<?xml version="1.0" encoding="UTF-8"?>
<svg xmlns="http://www.w3.org/2000/svg" viewBox="0 0 800 800" width="800" height="800">
  <path d="M 760.0,46.83 L 759.32,753.85 L 506.57,753.85 L 360.38,707.4 L 40.0,609.03 L 51.61,581.02 L 76.2,576.24 L 83.04,565.31 L 76.2,542.09 L 59.13,541.4 L 50.93,494.95 L 76.2,477.19 L 79.62,458.75 L 74.84,429.37 L 89.87,407.51 L 109.68,399.32 L 124.71,382.92 L 100.11,365.16 L 83.04,332.37 L 62.54,311.88 L 62.54,296.17 L 70.06,279.09 L 67.32,255.86 L 57.08,231.95 L 49.56,158.86 L 95.33,154.08 L 110.36,169.11 L 122.66,168.43 L 135.64,147.25 L 135.64,46.83 L 578.29,46.15 L 760.0,46.83 Z" fill="none" stroke="#000000" stroke-width="2" stroke-linejoin="round" opacity="0.3"/>
</svg>