<?xml version="1.0" encoding="UTF-8"?>
<svg xmlns="http://www.w3.org/2000/svg" viewBox="0 0 800 800" width="800" height="800">
  <path d="M 60.99,142.11 L 697.85,142.91 L 710.76,171.17 L 688.16,188.92 L 664.75,216.37 L 760.0,216.37 L 755.16,243.81 L 733.36,251.88 L 728.52,274.48 L 701.08,298.7 L 703.5,334.22 L 688.97,360.04 L 674.44,364.08 L 683.32,377.0 L 659.91,388.3 L 649.42,413.32 L 634.08,419.78 L 636.5,448.83 L 609.87,456.91 L 610.67,466.59 L 580.0,490.81 L 588.88,506.95 L 562.24,530.36 L 538.83,575.56 L 564.66,594.93 L 551.75,607.04 L 559.82,637.71 L 548.52,657.89 L 188.52,655.47 L 124.75,655.47 L 124.75,577.17 L 103.77,570.72 L 74.71,577.98 L 59.37,564.26 L 67.44,305.16 L 40.0,142.11 L 60.99,142.11 Z" fill="none" stroke="#000000" stroke-width="2" stroke-linejoin="round" opacity="0.3"/>
</svg>