<?xml version="1.0" encoding="UTF-8"?>
<svg xmlns="http://www.w3.org/2000/svg" viewBox="0 0 800 800" width="800" height="800">
  <path d="M 420.88,45.85 L 388.31,78.42 L 385.8,94.29 L 436.75,126.87 L 452.62,124.36 L 476.01,157.77 L 481.02,175.31 L 505.24,207.05 L 540.32,226.26 L 560.37,254.66 L 601.3,280.56 L 599.63,298.1 L 626.36,326.5 L 667.29,349.88 L 677.31,374.94 L 678.98,407.52 L 699.86,418.38 L 724.08,459.3 L 724.92,485.2 L 760.0,498.56 L 722.41,550.35 L 715.73,577.08 L 699.86,600.46 L 698.19,624.69 L 681.48,635.55 L 674.8,700.7 L 633.04,694.85 L 597.96,682.32 L 583.76,694.01 L 589.61,722.41 L 582.92,753.32 L 564.55,754.15 L 557.03,721.58 L 361.58,709.88 L 152.76,699.86 L 131.88,655.59 L 115.17,613.83 L 126.03,573.74 L 111.0,527.8 L 124.36,501.9 L 123.53,482.69 L 149.42,463.48 L 131.88,454.29 L 138.56,439.26 L 121.86,415.03 L 104.32,372.44 L 66.73,179.49 L 40.0,48.35 L 236.29,47.52 L 343.2,48.35 L 420.88,45.85 Z" fill="none" stroke="#000000" stroke-width="2" stroke-linejoin="round" opacity="0.3"/>
</svg>