<?xml version="1.0" encoding="UTF-8"?>
<svg xmlns="http://www.w3.org/2000/svg" viewBox="0 0 800 800" width="800" height="800">
  <path d="M 479.94,40.0 L 694.46,40.0 L 694.46,51.92 L 695.45,268.41 L 692.47,521.66 L 678.57,529.6 L 693.46,579.26 L 661.68,580.25 L 627.92,597.13 L 581.24,589.19 L 583.23,624.94 L 552.44,639.83 L 540.52,662.68 L 508.74,671.61 L 491.86,717.3 L 471.01,729.21 L 430.29,712.33 L 423.34,691.48 L 383.61,714.32 L 386.59,734.18 L 345.88,741.13 L 333.96,723.26 L 288.28,741.13 L 273.38,760.0 L 227.7,733.19 L 203.86,739.14 L 187.97,726.23 L 173.08,739.14 L 127.39,741.13 L 110.51,758.01 L 104.55,746.1 L 115.48,703.39 L 129.38,694.46 L 124.41,671.61 L 145.27,668.63 L 178.04,629.9 L 184.0,606.07 L 206.84,580.25 L 203.86,548.47 L 181.02,509.74 L 200.88,476.97 L 201.88,48.94 L 219.75,60.86 L 275.37,60.86 L 328.99,40.0 L 479.94,40.0 Z" fill="none" stroke="#000000" stroke-width="2" stroke-linejoin="round" opacity="0.3"/>
</svg>