<?xml version="1.0" encoding="UTF-8"?>
<svg xmlns="http://www.w3.org/2000/svg" viewBox="0 0 800 800" width="800" height="800">
  <path d="M 608.87,40.0 L 649.01,40.0 L 664.57,55.56 L 643.28,219.39 L 608.87,503.62 L 620.34,732.15 L 603.96,738.7 L 567.92,735.43 L 553.17,725.6 L 517.13,732.15 L 467.17,749.35 L 451.6,760.0 L 433.58,744.44 L 427.85,719.86 L 403.28,687.1 L 418.02,637.95 L 135.43,637.95 L 146.08,627.3 L 135.43,597.82 L 153.45,596.18 L 155.9,541.3 L 170.65,544.57 L 179.66,510.99 L 214.88,489.69 L 232.9,455.29 L 229.62,411.06 L 207.51,392.22 L 209.15,361.91 L 219.8,355.36 L 205.87,338.16 L 217.34,317.68 L 209.15,286.55 L 222.25,274.27 L 196.04,254.61 L 219.8,208.74 L 246.83,184.98 L 237.82,168.6 L 268.94,144.03 L 268.12,134.2 L 295.15,126.01 L 292.7,96.52 L 308.26,89.97 L 318.91,64.57 L 342.66,53.11 L 333.65,40.0 L 608.87,40.0 Z" fill="none" stroke="#000000" stroke-width="2" stroke-linejoin="round" opacity="0.3"/>
</svg>