<?xml version="1.0" encoding="UTF-8"?>
<svg xmlns="http://www.w3.org/2000/svg" viewBox="0 0 800 800" width="800" height="800">
  <path d="M 643.17,190.28 L 644.2,209.84 L 639.06,227.33 L 647.81,244.32 L 645.23,262.33 L 634.42,281.37 L 642.66,307.11 L 637.51,314.82 L 652.44,330.26 L 649.35,395.11 L 650.38,403.35 L 627.73,465.1 L 629.79,468.71 L 623.62,539.73 L 630.31,547.45 L 607.15,557.74 L 613.84,568.55 L 653.98,576.27 L 662.22,570.61 L 696.7,570.61 L 714.2,567.52 L 743.02,552.59 L 745.08,563.4 L 760.0,568.03 L 725.52,581.93 L 652.95,602.52 L 622.59,606.63 L 602.52,605.6 L 587.59,610.24 L 579.36,594.8 L 590.68,567.52 L 559.29,554.14 L 516.05,533.55 L 511.94,526.86 L 497.53,526.35 L 480.54,510.39 L 482.6,496.5 L 471.28,485.69 L 464.07,486.2 L 453.78,473.34 L 40.0,473.34 L 40.0,449.66 L 40.0,448.12 L 97.64,421.36 L 106.9,408.49 L 125.43,399.74 L 118.23,383.79 L 110.51,380.7 L 104.85,354.97 L 159.91,344.16 L 208.81,344.67 L 228.36,347.25 L 249.46,357.54 L 262.84,353.42 L 303.5,353.94 L 328.21,347.25 L 354.45,330.26 L 371.44,329.75 L 371.95,304.02 L 380.7,289.09 L 359.6,278.8 L 364.23,266.96 L 401.8,251.01 L 415.7,237.11 L 460.99,205.72 L 503.7,189.76 L 567.52,192.34 L 643.17,190.28 Z" fill="none" stroke="#000000" stroke-width="2" stroke-linejoin="round" opacity="0.3"/>
</svg>