<?xml version="1.0" encoding="UTF-8"?>
<svg xmlns="http://www.w3.org/2000/svg" viewBox="0 0 800 800" width="800" height="800">
  <path d="M 284.75,258.76 L 744.36,258.76 L 744.36,300.63 L 760.0,393.56 L 755.4,541.24 L 723.19,532.04 L 714.91,522.38 L 693.29,514.1 L 687.77,521.46 L 666.15,521.0 L 661.55,516.4 L 641.76,524.68 L 633.48,520.08 L 615.54,524.22 L 598.98,537.1 L 592.54,529.74 L 575.05,523.76 L 556.65,523.76 L 550.67,514.1 L 529.51,532.96 L 522.61,522.38 L 512.95,525.6 L 505.58,518.7 L 485.8,512.26 L 471.08,523.3 L 464.64,511.8 L 452.68,510.42 L 445.78,501.21 L 429.67,497.53 L 419.09,505.35 L 412.19,498.45 L 395.63,499.37 L 377.23,492.01 L 360.2,492.93 L 354.22,476.83 L 327.54,475.91 L 317.42,478.67 L 298.56,462.57 L 292.11,463.49 L 292.11,300.63 L 139.83,300.63 L 40.0,300.63 L 40.0,258.76 L 120.51,259.22 L 284.75,258.76 Z" fill="none" stroke="#000000" stroke-width="2" stroke-linejoin="round" opacity="0.3"/>
</svg>