<?xml version="1.0" encoding="UTF-8"?>
<svg xmlns="http://www.w3.org/2000/svg" viewBox="0 0 800 800" width="800" height="800">
  <path d="M 348.92,147.8 L 348.92,282.15 L 501.77,282.15 L 500.16,357.77 L 529.12,344.09 L 558.08,319.15 L 577.39,323.98 L 606.35,302.26 L 649.79,312.72 L 655.42,296.63 L 679.55,297.43 L 693.23,286.17 L 718.17,299.84 L 743.11,299.84 L 760.0,340.87 L 743.91,369.03 L 667.49,319.96 L 659.44,363.4 L 591.06,422.93 L 572.56,410.06 L 541.18,462.35 L 525.9,474.41 L 501.77,467.98 L 476.83,447.87 L 465.56,481.65 L 436.6,509.01 L 425.34,535.55 L 397.99,557.27 L 381.9,580.6 L 381.09,607.15 L 355.35,620.02 L 349.72,611.17 L 282.95,639.33 L 245.14,647.37 L 225.03,632.09 L 196.87,651.4 L 178.37,652.2 L 153.43,640.13 L 133.32,615.2 L 135.73,603.13 L 116.42,600.72 L 88.27,583.82 L 81.03,566.93 L 57.7,545.21 L 40.0,517.05 L 44.02,472.8 L 82.64,469.59 L 88.27,450.28 L 105.97,442.23 L 98.73,419.71 L 126.08,384.31 L 147.8,406.84 L 163.08,393.16 L 159.06,376.27 L 177.56,348.11 L 194.46,348.92 L 211.35,328.0 L 227.44,337.65 L 245.94,331.22 L 303.06,283.75 L 316.74,229.85 L 336.85,194.46 L 337.65,171.93 L 327.2,155.84 L 348.92,147.8 Z" fill="none" stroke="#000000" stroke-width="2" stroke-linejoin="round" opacity="0.3"/>
</svg>