<?xml version="1.0" standalone="no"?>
<!DOCTYPE svg PUBLIC "-//W3C//DTD SVG 20010904//EN"
 "http://www.w3.org/TR/2001/REC-SVG-20010904/DTD/svg10.dtd">
<svg version="1.0" xmlns="http://www.w3.org/2000/svg"
 width="3000.000000pt" height="3000.000000pt" viewBox="0 0 3000.000000 3000.000000"
 preserveAspectRatio="xMidYMid meet">
<metadata>
Created by potrace 1.16, written by Peter Selinger 2001-2019
</metadata>
<g transform="translate(0.000000,3000.000000) scale(0.100000,-0.100000)"
fill="#000000" stroke="none">
<path d="M13395 29993 c-16 -2 -138 -17 -270 -33 -4221 -523 -8026 -2820
-10483 -6331 -1440 -2057 -2333 -4427 -2617 -6939 l-25 -225 0 -1470 0 -1470
25 -225 c445 -3972 2440 -7587 5570 -10095 2164 -1733 4756 -2833 7500 -3180
l200 -25 1722 0 1723 0 197 25 c3724 477 7098 2303 9558 5175 1807 2108 3009
4723 3429 7455 83 539 76 328 76 2335 l0 1788 -30 224 c-320 2404 -1217 4689
-2623 6681 -895 1271 -2014 2425 -3254 3360 -2028 1528 -4409 2522 -6893 2877
-605 86 -439 80 -2206 79 -863 -1 -1582 -4 -1599 -6z m2370 -83 c1214 -68
2271 -245 3389 -566 2954 -848 5606 -2624 7539 -5049 2472 -3100 3603 -7006
3171 -10950 -411 -3749 -2244 -7213 -5127 -9688 -1255 -1077 -2667 -1934
-4202 -2547 -2144 -857 -4518 -1205 -6830 -1000 -2482 220 -4842 1044 -6915
2415 -2154 1425 -3917 3399 -5081 5690 -240 472 -387 794 -569 1250 -1331
3330 -1411 7074 -223 10465 406 1160 980 2310 1666 3340 407 610 895 1234
1406 1795 188 208 740 759 951 951 1026 934 2151 1710 3370 2323 1921 966
3979 1494 6165 1581 256 10 1043 4 1290 -10z M14565 29499 c-2562 -74 -5057
-827 -7230 -2182 -2401 -1497 -4323 -3674 -5510 -6242 -929 -2009 -1383 -4221
-1325 -6445 24 -896 110 -1680 276 -2508 671 -3350 2489 -6331 5174 -8485
2241 -1797 5014 -2897 7870 -3122 399 -31 527 -36 1015 -42 643 -7 1083 11
1650 67 3119 312 6046 1627 8365 3759 183 168 607 590 785 781 1245 1337 2213
2868 2885 4560 591 1490 928 3079 1000 4710 21 495 11 1198 -25 1705 -309
4303 -2520 8235 -6050 10760 -1286 920 -2781 1650 -4285 2093 -1234 364 -2435
553 -3751 592 -365 11 -457 11 -844 -1z m1180 -159 c2035 -114 3905 -604 5675
-1489 385 -193 864 -456 858 -471 -2 -4 -345 -285 -763 -625 -418 -339 -809
-661 -868 -714 -124 -110 -133 -116 -205 -131 -44 -10 -64 -8 -135 9 -94 24
-125 43 -150 93 -17 35 -17 37 9 109 30 84 627 1527 650 1570 31 61 76 63 220
9 59 -22 110 -40 113 -40 7 0 81 169 81 185 0 11 -946 406 -972 405 -11 0
-207 -216 -485 -534 -258 -294 -469 -532 -470 -528 -1 4 -30 320 -64 702 -34
382 -64 698 -68 702 -13 14 -1012 261 -1021 252 -12 -13 -56 -181 -49 -189 4
-3 49 -17 100 -31 105 -28 143 -47 171 -85 18 -24 19 -32 8 -85 -13 -62 -372
-1523 -390 -1586 -6 -20 -29 -60 -51 -88 l-41 -52 -57 4 c-31 2 -72 12 -91 22
-19 10 -56 24 -82 32 -78 24 -94 55 -127 245 -17 97 -513 2048 -526 2069 -3 4
-32 13 -65 20 -52 11 -63 11 -74 -1 -12 -13 -845 -1501 -996 -1779 -34 -63
-71 -128 -83 -145 -60 -88 -124 -132 -208 -142 l-49 -6 0 -97 0 -98 98 -7
c146 -9 144 -15 -3 -10 -71 3 -269 8 -440 12 -298 6 -307 7 -233 19 253 44
488 207 573 399 36 81 47 143 46 260 0 127 -26 230 -81 315 -48 76 -148 163
-237 208 l-79 39 55 29 c31 15 88 60 126 99 113 113 152 216 142 380 -7 119
-36 208 -100 303 -88 128 -231 225 -382 257 -38 8 -149 20 -245 26 -165 11
-205 10 -705 -25 -291 -19 -561 -39 -599 -42 l-69 -6 7 -67 c4 -36 10 -84 13
-105 l6 -39 96 6 c83 6 100 4 137 -13 35 -17 44 -28 53 -63 14 -55 161 -1554
164 -1673 2 -79 -1 -95 -18 -114 -28 -32 -70 -48 -145 -55 -36 -3 -82 -11
-102 -17 -34 -10 -42 -9 -72 13 -76 54 -76 55 -781 1154 -296 462 -540 842
-542 844 -2 3 -31 -4 -66 -15 l-62 -20 -167 -890 c-92 -489 -179 -959 -193
-1044 -47 -268 -96 -387 -180 -431 -51 -27 -50 -18 -14 -141 11 -38 24 -68 28
-68 5 0 111 25 236 56 125 30 229 53 231 51 3 -3 -19 -10 -48 -17 -181 -43
-636 -181 -893 -272 -1108 -391 -2134 -931 -3070 -1615 -523 -382 -897 -703
-1391 -1197 -338 -339 -481 -493 -729 -791 -2077 -2492 -3031 -5685 -2669
-8935 346 -3106 1919 -5953 4379 -7925 1831 -1467 4049 -2353 6385 -2549 487
-41 1209 -53 1655 -27 1896 110 3648 627 5265 1556 3159 1815 5324 5001 5834
8586 202 1416 151 2840 -150 4229 -327 1506 -966 2971 -1851 4239 -292 418
-604 809 -957 1201 -160 178 -595 615 -770 774 -1155 1053 -2479 1860 -3921
2391 -209 77 -619 212 -779 256 -131 37 -145 52 -18 19 44 -11 87 -20 96 -20
14 0 45 82 62 167 6 29 4 31 -41 42 -97 24 -162 76 -179 141 -4 16 48 243 151
659 87 348 159 627 160 620 1 -8 43 -396 93 -864 50 -467 93 -855 95 -861 4
-12 81 -34 117 -33 18 0 156 152 598 659 316 362 576 657 577 656 2 -2 -78
-223 -177 -492 -304 -824 -299 -814 -379 -814 -22 0 -74 14 -116 30 -42 17
-81 30 -88 30 -17 0 -92 -179 -80 -191 13 -13 1032 -419 1052 -419 10 0 162
-70 339 -155 178 -85 328 -155 335 -155 14 0 77 142 77 172 0 10 -36 42 -88
77 -49 34 -94 71 -99 84 -13 28 1 65 43 118 37 45 184 179 197 179 5 0 124
-62 263 -137 237 -128 254 -139 254 -164 0 -32 -37 -294 -46 -324 -3 -11 -12
-30 -20 -42 -12 -20 -17 -21 -46 -11 -18 6 -54 24 -79 40 -25 15 -52 28 -60
28 -13 0 -109 -156 -109 -176 0 -10 901 -564 916 -564 11 0 104 141 104 158 0
6 -21 31 -46 54 -25 23 -52 54 -60 69 -16 33 -18 137 -4 224 20 120 270 2047
270 2082 0 21 -8 45 -17 56 -19 21 83 -39 306 -180 1904 -1203 3504 -2840
4665 -4775 1164 -1940 1841 -4090 2006 -6373 45 -633 43 -1430 -6 -2085 -205
-2742 -1186 -5351 -2838 -7550 -416 -555 -810 -1005 -1340 -1535 -445 -444
-724 -696 -1171 -1054 -1345 -1077 -2820 -1880 -4445 -2422 -1259 -419 -2529
-654 -3890 -719 -440 -21 -1188 -12 -1650 20 -2750 193 -5367 1164 -7575 2809
-1264 943 -2359 2078 -3262 3386 -563 814 -1074 1757 -1458 2690 -1224 2974
-1406 6314 -514 9424 477 1665 1263 3243 2307 4636 629 838 1361 1621 2157
2303 1412 1212 3029 2129 4790 2718 1320 441 2637 679 4055 734 257 10 982 4
1235 -10z m-774 -330 c159 -33 274 -122 346 -267 36 -74 38 -81 38 -177 0 -87
-3 -107 -24 -145 -59 -112 -184 -199 -359 -252 l-73 -21 7 -67 c7 -75 10 -81
29 -81 27 0 181 -53 245 -84 88 -42 176 -126 211 -199 82 -173 49 -376 -82
-507 -126 -126 -285 -193 -509 -214 l-65 -6 45 20 c114 53 200 150 247 276 35
93 44 286 18 384 -53 203 -193 346 -379 385 l-61 12 45 13 c157 43 268 156
305 311 17 74 20 262 4 329 -30 130 -134 247 -268 302 l-46 19 119 -7 c65 -3
159 -14 207 -24z m-727 -12 c3 -13 16 -239 31 -503 14 -264 32 -583 40 -710 8
-126 19 -328 24 -447 11 -244 18 -268 90 -330 l41 -35 -203 -12 c-111 -6 -219
-14 -239 -17 l-37 -6 20 38 c33 67 26 216 -56 1051 -41 422 -80 793 -86 823
-13 62 -23 86 -51 116 l-19 21 193 12 c106 7 200 14 208 16 33 7 40 4 44 -17z
m305 -98 c108 -18 199 -79 242 -162 39 -76 43 -223 8 -336 -17 -59 -79 -126
-142 -156 -44 -20 -206 -60 -214 -52 -2 2 -43 671 -43 704 0 15 61 16 149 2z
m2599 -920 c127 -492 240 -948 252 -1013 11 -64 28 -136 36 -159 8 -22 13 -42
12 -44 -2 -1 -98 14 -214 34 l-212 36 21 28 c15 20 22 47 25 91 4 77 -54 306
-258 1005 l-140 483 122 219 c68 120 123 218 124 217 1 -1 106 -405 232 -897z
m-4423 -70 c511 -797 598 -928 659 -992 19 -21 33 -38 30 -38 -10 0 -411 -60
-430 -65 -19 -4 -20 -1 -16 48 6 73 -16 122 -158 353 -66 107 -120 197 -120
199 0 3 -127 197 -283 432 l-283 428 40 218 c32 173 42 215 52 205 7 -7 236
-362 509 -788z m6306 562 c4 -4 35 -317 69 -697 79 -894 66 -795 104 -795 17
0 42 -9 54 -18 l24 -18 -203 -233 c-112 -128 -205 -229 -206 -224 -1 4 -50
451 -108 993 -59 541 -108 987 -111 989 -2 2 -29 6 -59 9 -53 4 -55 6 -55 34
0 16 -6 44 -14 62 l-14 33 257 -64 c141 -35 259 -67 262 -71z m-2357 -591 c37
-128 64 -236 62 -239 -5 -4 -318 24 -363 33 -20 5 -12 21 100 230 67 124 124
222 127 217 4 -4 37 -112 74 -241z m3994 41 c61 -25 112 -49 112 -52 0 -3 -16
-16 -36 -29 -21 -15 -47 -47 -64 -81 -35 -70 -599 -1428 -648 -1560 -27 -75
-35 -109 -34 -163 0 -48 -3 -67 -11 -64 -182 72 -374 150 -380 154 -5 3 5 13
21 23 37 23 65 63 101 142 41 90 601 1611 601 1631 0 10 -22 31 -50 48 l-50
31 32 37 31 38 131 -54 c72 -30 182 -76 244 -101z m-8222 -419 c-5 -6 -358
-74 -363 -70 -5 5 72 443 83 477 3 9 59 -67 144 -195 76 -116 137 -211 136
-212z m2216 397 c145 -42 250 -208 249 -392 -1 -216 -105 -350 -300 -389 -62
-12 -63 -12 -89 15 -25 24 -27 34 -30 114 -1 48 -9 204 -17 348 -8 144 -15
276 -15 294 l0 33 83 -6 c45 -3 99 -11 119 -17z m1859 -515 c166 -19 304 -36
305 -38 12 -12 97 -376 91 -391 -7 -17 -15 -18 -100 -13 -50 4 -104 9 -118 13
-32 7 -36 -3 -45 -131 l-7 -87 -36 6 c-32 5 -421 49 -526 59 -22 2 23 2 101
-1 l141 -5 12 91 c7 50 10 95 7 100 -3 5 -29 12 -58 16 -153 20 -215 58 -204
126 5 29 124 290 132 290 2 0 139 -16 305 -35z m-3814 -298 c121 -202 118
-196 99 -215 -8 -8 -59 -25 -113 -37 l-98 -22 0 -49 c1 -27 3 -73 5 -103 l5
-55 -170 -38 c-93 -21 -174 -36 -180 -34 -5 3 0 5 13 5 26 1 26 6 10 119 l-11
83 -108 -7 c-105 -7 -108 -6 -132 19 -37 37 -42 82 -22 232 l17 134 57 12 c31
6 155 33 276 59 121 27 229 49 240 49 15 1 41 -34 112 -152z m9513 19 c0 -26
-230 -1780 -241 -1841 -6 -33 -14 -115 -18 -182 l-6 -122 -197 120 -197 121
38 36 c23 22 46 59 58 92 23 63 67 375 148 1045 31 252 58 461 61 464 22 22
341 280 347 280 4 1 7 -5 7 -13z m-6256 -124 c8 -14 -11 -15 -91 -6 l-53 7 50
54 c28 30 50 60 51 66 0 7 8 -15 18 -48 9 -33 20 -66 25 -73z m-91 -159 c-18
-2 -48 -2 -65 0 -18 2 -4 4 32 4 36 0 50 -2 33 -4z m135 -10 c-15 -2 -42 -2
-60 0 -18 2 -6 4 27 4 33 0 48 -2 33 -4z m-4104 -159 l35 -41 -77 -18 c-42
-10 -83 -20 -90 -23 -8 -3 -1 20 17 55 16 34 36 82 42 109 l12 48 13 -45 c7
-25 29 -63 48 -85z m6216 -24 c6 -12 10 -24 7 -26 -4 -5 -97 15 -106 22 -2 2
14 25 35 52 l39 49 7 -38 c4 -21 12 -48 18 -59z m-2610 60 c2153 -97 4171
-753 5955 -1935 2115 -1401 3714 -3435 4573 -5815 525 -1457 756 -3036 671
-4590 -159 -2916 -1409 -5668 -3505 -7720 -2613 -2559 -6248 -3749 -9859
-3229 -1542 222 -2997 741 -4350 1551 -2173 1302 -3894 3319 -4841 5674 -712
1771 -976 3652 -783 5569 251 2497 1322 4870 3034 6725 151 164 548 561 700
700 1128 1035 2496 1866 3920 2380 916 330 1839 541 2795 639 193 20 597 48
760 54 222 8 728 6 930 -3z m1843 -67 c-7 -2 -19 -2 -25 0 -7 3 -2 5 12 5 14
0 19 -2 13 -5z m166 -24 c69 -12 130 -26 136 -30 15 -14 -15 -11 -142 16 -188
40 -185 46 6 14z m4123 -329 c-15 -124 -31 -225 -34 -225 -11 0 -328 170 -327
175 0 3 87 75 192 161 162 132 192 153 194 135 2 -11 -10 -122 -25 -246z
m-973 -432 c-6 -12 -11 -50 -11 -84 l0 -63 -74 37 -74 36 48 18 c26 10 63 31
82 47 42 36 44 37 29 9z M9890 28310 c-63 -26 -330 -135 -593 -241 -264 -106
-481 -199 -484 -206 -6 -16 66 -193 78 -193 4 0 49 20 100 45 149 72 187 71
231 -11 45 -84 660 -1577 666 -1616 7 -54 -16 -82 -108 -128 -44 -22 -80 -45
-80 -50 0 -15 -56 -40 -90 -40 -44 0 -58 9 -184 123 -111 100 -1639 1369
-1657 1375 -5 2 -32 -11 -59 -28 -40 -26 -50 -37 -50 -60 0 -35 211 -1740 246
-1990 16 -110 24 -206 21 -237 -7 -69 -36 -132 -86 -186 -23 -24 -41 -51 -41
-58 0 -23 89 -149 105 -149 24 0 665 411 665 426 0 23 -91 154 -107 154 -8 0
-45 -13 -81 -29 -37 -16 -79 -33 -95 -36 -35 -9 -74 16 -92 60 -17 40 -79 284
-74 289 26 23 523 297 532 293 22 -10 290 -235 300 -253 12 -21 -14 -44 -116
-106 -38 -23 -71 -47 -74 -54 -5 -15 93 -164 108 -164 22 0 939 474 939 486 0
12 46 29 1078 410 513 190 592 221 592 239 1 11 -32 199 -72 418 l-72 398 -31
-3 c-26 -3 -30 0 -33 26 -3 27 -4 28 -50 21 -87 -12 -82 -5 -82 -111 0 -256
-59 -503 -141 -585 -48 -48 -105 -77 -261 -134 -153 -55 -210 -70 -232 -62 -9
4 -30 36 -46 71 -66 148 -583 1553 -584 1588 -1 53 30 81 145 128 58 24 95 45
97 55 2 9 -11 52 -29 96 -40 97 -39 96 -199 29z m-165 -274 c-5 -28 -1 -66 9
-107 17 -64 509 -1393 573 -1547 64 -151 97 -183 203 -191 l69 -6 -273 -101
-273 -100 5 67 c3 48 0 83 -12 118 -33 101 -658 1597 -683 1635 -14 22 -37 50
-51 63 -14 13 -23 25 -21 26 4 3 449 185 457 186 2 1 0 -19 -3 -43z m-935
-1710 c239 -198 478 -398 530 -446 52 -48 114 -101 138 -118 l42 -30 -82 -45
c-46 -25 -134 -70 -195 -101 l-113 -56 0 29 c0 77 -25 106 -253 294 -100 82
-183 155 -185 162 -2 7 -176 149 -388 315 -212 166 -389 312 -394 324 -7 17
-61 429 -60 459 0 4 118 -91 263 -210 144 -119 458 -379 697 -577z m2500 279
l27 -147 -21 -7 c-12 -5 -48 -18 -81 -31 -148 -55 -219 -79 -201 -67 61 40
118 93 144 135 31 47 92 218 92 256 0 47 14 -3 40 -139z m-3067 -424 c108 -85
196 -155 194 -156 -1 -2 -77 -45 -169 -98 l-167 -96 -6 32 c-3 18 -16 120 -30
227 -14 107 -27 208 -30 223 -3 16 -1 27 3 25 5 -2 97 -72 205 -157z m-57
-1134 l43 -22 -70 -44 c-39 -23 -72 -41 -74 -40 -2 2 1 24 5 49 5 25 9 65 10
89 l0 44 21 -27 c11 -15 41 -37 65 -49z M2298 18947 c-36 -62 -123 -226 -192
-364 -69 -139 -128 -253 -130 -253 -25 0 -603 74 -666 85 -104 18 -130 19
-130 2 0 -6 106 -118 236 -247 129 -129 253 -256 275 -281 l39 -47 -106 -248
c-133 -314 -184 -440 -184 -459 0 -26 29 -16 133 45 56 34 208 114 338 180
l236 119 204 -175 c112 -97 245 -216 294 -265 86 -85 115 -104 115 -76 0 6
-29 183 -64 392 -35 209 -62 383 -60 386 2 3 150 93 329 199 225 135 325 199
323 210 -4 19 -113 38 -468 79 -146 18 -274 34 -286 36 -19 4 -27 34 -83 287
-55 254 -61 295 -61 396 0 83 -3 112 -12 112 -7 0 -43 -51 -80 -113z m38 -574
c26 -123 50 -227 54 -233 3 -5 105 -21 225 -35 121 -15 228 -30 239 -34 14 -5
-26 -33 -183 -126 -110 -65 -201 -124 -201 -131 0 -7 16 -110 35 -229 20 -120
35 -221 33 -226 -2 -5 -82 59 -178 142 -96 83 -180 153 -187 155 -6 3 -109
-45 -229 -107 -136 -70 -215 -106 -211 -96 3 9 45 109 93 222 l87 206 -69 72
c-38 40 -113 117 -167 173 l-98 100 223 -27 c123 -16 235 -28 249 -28 24 -1
34 15 130 213 57 118 105 214 105 213 1 -1 23 -102 50 -224z M27620 18928 c0
-125 -3 -149 -57 -396 -50 -233 -59 -263 -77 -267 -12 -3 -138 -18 -281 -35
-368 -43 -475 -61 -475 -80 0 -14 160 -114 565 -353 69 -40 89 -57 88 -72 -2
-11 -30 -186 -63 -389 -33 -202 -60 -372 -60 -377 0 -24 32 -1 115 80 49 49
182 169 295 265 l204 175 261 -133 c143 -73 294 -154 336 -180 79 -48 109 -56
109 -31 0 20 -41 122 -176 438 l-115 268 20 27 c11 15 135 142 275 282 141
140 256 261 256 267 0 17 -26 16 -130 -2 -66 -12 -639 -85 -664 -85 -3 0 -60
109 -127 243 -150 300 -257 486 -281 487 -16 0 -18 -13 -18 -132z m349 -757
c15 0 126 12 247 27 l221 28 -161 -168 c-88 -92 -162 -172 -164 -177 -2 -5 38
-104 88 -221 49 -117 90 -215 90 -217 0 -3 -97 45 -216 107 -119 61 -222 109
-228 106 -6 -2 -72 -57 -146 -121 -74 -64 -156 -134 -181 -155 l-46 -39 39
227 c21 125 38 234 38 242 0 10 -77 62 -201 135 -155 92 -197 121 -183 127 11
4 118 18 239 33 120 14 221 29 225 34 3 5 27 110 54 234 l49 224 106 -213 c96
-196 107 -214 130 -213z M1767 15848 c-32 -95 -90 -265 -130 -378 l-72 -205
-392 -3 c-317 -2 -393 -5 -393 -15 0 -8 135 -120 300 -251 165 -131 300 -242
300 -248 0 -16 -144 -496 -185 -617 -19 -58 -35 -109 -35 -113 0 -33 80 12
428 244 l252 168 238 -158 c253 -169 403 -262 421 -262 17 0 13 44 -9 102 -23
59 -190 619 -190 636 0 6 135 117 300 248 165 131 300 244 300 251 0 10 -80
13 -392 15 l-393 3 -97 275 c-54 151 -112 321 -130 378 -23 74 -36 102 -47
102 -12 0 -31 -45 -74 -172z m157 -503 l79 -225 249 -2 249 -3 -185 -145
c-150 -118 -185 -150 -185 -170 -1 -20 100 -383 124 -448 6 -16 19 -24 -212
130 -106 70 -197 128 -203 128 -6 0 -97 -58 -203 -128 -231 -154 -218 -146
-212 -130 29 83 125 428 124 447 0 21 -33 51 -185 171 l-185 145 249 3 248 2
79 225 c44 124 82 225 85 225 3 0 41 -101 84 -225z M28142 15923 c-17 -54 -76
-224 -131 -378 l-99 -280 -391 -3 c-318 -2 -391 -5 -391 -16 0 -7 127 -114
282 -237 155 -123 291 -231 301 -240 19 -15 18 -22 -62 -290 -44 -151 -94
-314 -111 -363 -16 -50 -30 -93 -30 -98 0 -32 94 22 441 253 l236 157 204
-136 c233 -155 437 -282 456 -282 20 0 16 26 -22 140 -19 58 -68 217 -108 355
l-74 249 176 140 c97 76 233 184 303 240 71 56 128 107 128 114 0 9 -85 12
-391 12 l-390 0 -16 38 c-16 37 -194 546 -230 657 -29 88 -43 83 -81 -32z
m119 -545 c34 -95 68 -192 76 -215 l15 -43 248 -2 249 -3 -190 -150 c-104 -82
-189 -154 -189 -158 0 -4 29 -106 65 -226 36 -120 65 -224 65 -230 0 -6 -88
48 -196 119 -107 72 -201 133 -209 136 -7 3 -104 -56 -216 -130 -112 -74 -204
-134 -206 -133 -1 2 27 101 62 220 36 119 65 226 65 237 0 14 -57 65 -186 167
l-186 148 248 3 249 2 80 230 c50 143 83 224 88 215 4 -7 35 -91 68 -187z
M2064 12872 c-6 -4 -40 -140 -76 -302 l-64 -295 -265 -32 c-302 -36 -481 -62
-499 -73 -7 -4 -11 -14 -8 -21 3 -8 150 -99 327 -204 262 -155 321 -194 321
-211 0 -12 -27 -184 -60 -383 -33 -199 -60 -368 -60 -376 0 -30 27 -13 115 74
49 49 181 168 293 263 l203 175 247 -125 c136 -69 290 -151 343 -183 53 -33
101 -59 107 -59 27 0 16 30 -165 457 l-115 273 30 37 c17 21 141 148 276 283
135 135 246 251 246 257 0 17 -17 16 -120 -2 -81 -15 -637 -85 -671 -85 -11 0
-56 82 -142 260 -70 143 -127 265 -127 270 0 12 -119 13 -136 2z m318 -690
c13 -2 116 9 230 23 115 14 215 25 224 25 8 0 -56 -74 -143 -165 -87 -91 -160
-170 -161 -175 -2 -6 31 -92 74 -193 42 -100 83 -197 91 -215 l13 -32 -210
105 c-115 58 -218 105 -227 105 -10 0 -79 -52 -153 -116 -227 -195 -229 -196
-225 -177 13 61 76 465 73 467 -1 2 -95 58 -208 124 -113 67 -203 122 -200
122 40 2 483 59 486 62 2 3 24 97 49 209 25 112 48 215 51 229 5 21 24 -11
110 -185 86 -173 108 -211 126 -213z M27705 12612 c-71 -147 -131 -269 -132
-271 -3 -6 -522 57 -654 79 -137 23 -149 24 -149 7 0 -7 57 -68 126 -137 69
-69 193 -196 275 -282 l150 -157 -115 -268 c-177 -413 -194 -463 -166 -463 5
0 49 24 97 53 48 29 203 112 343 184 l255 131 215 -185 c118 -101 251 -220
295 -263 75 -75 105 -94 105 -69 0 12 -118 724 -125 756 -5 20 30 43 325 219
234 139 330 201 328 212 -4 20 -114 38 -490 83 -150 17 -276 35 -280 38 -4 3
-35 137 -70 296 -34 160 -67 293 -73 297 -5 4 -37 8 -70 7 l-60 0 -130 -267z
m277 -467 c3 -3 95 -17 204 -30 110 -14 218 -27 242 -31 l44 -5 -204 -121
c-112 -66 -205 -122 -207 -125 -3 -2 12 -107 33 -234 21 -127 35 -233 33 -235
-3 -3 -83 63 -178 145 -96 83 -182 151 -192 151 -9 0 -112 -47 -227 -105 -116
-58 -210 -103 -210 -101 0 2 41 99 90 214 50 116 90 214 90 217 0 4 -72 82
-161 173 -94 97 -155 168 -147 170 8 1 107 -9 221 -23 114 -14 217 -25 230
-25 20 0 37 28 127 213 l105 212 50 -227 c28 -125 53 -230 57 -233z M22145
5350 c-242 -181 -441 -334 -443 -340 -6 -18 91 -160 111 -160 9 0 50 23 91 51
53 37 85 52 117 56 40 4 47 2 76 -29 46 -49 892 -1262 931 -1336 33 -62 33
-63 16 -90 -10 -15 -25 -33 -33 -40 -50 -40 -172 -123 -209 -142 l-43 -22 -70
22 c-38 13 -108 45 -154 71 -47 27 -427 301 -845 609 -419 308 -770 560 -781
560 -11 0 -37 -12 -59 -26 -33 -22 -40 -32 -40 -59 0 -18 34 -423 76 -901 43
-486 77 -924 77 -994 0 -221 -31 -306 -143 -391 l-35 -27 40 -81 c23 -49 45
-81 55 -81 8 0 183 82 388 182 285 140 372 186 372 200 0 15 -62 152 -76 167
-2 2 -53 -15 -113 -38 -61 -22 -121 -41 -135 -41 -53 0 -81 73 -94 253 l-8 97
277 150 c152 83 279 150 282 150 8 0 278 -197 302 -221 19 -19 19 -19 -15 -49
-19 -16 -65 -45 -102 -65 -38 -20 -68 -40 -68 -45 0 -6 19 -48 42 -95 30 -60
48 -85 58 -82 8 2 240 144 515 316 l500 312 792 622 c561 441 792 627 790 640
-1 9 -105 159 -231 333 l-229 316 -34 -7 c-25 -4 -35 -2 -39 10 -9 22 -29 19
-85 -12 -36 -19 -49 -32 -49 -48 0 -12 20 -64 44 -116 92 -198 122 -315 106
-412 -12 -73 -50 -157 -96 -214 -59 -71 -348 -303 -379 -303 -7 0 -34 24 -60
53 -50 55 -902 1154 -948 1222 -45 67 -39 89 53 176 44 42 80 82 80 90 0 23
-99 139 -118 138 -9 0 -215 -148 -457 -329z m302 -141 c40 -71 916 -1201 988
-1275 44 -45 73 -65 106 -75 l46 -14 -193 -152 -194 -152 0 32 c0 20 -17 62
-46 112 -60 103 -886 1283 -941 1345 -24 26 -61 55 -84 64 -23 9 -40 19 -38
21 2 2 74 55 159 118 l155 115 7 -44 c3 -25 19 -67 35 -95z m1840 -812 c-56
-44 -108 -84 -115 -90 -8 -6 -5 7 7 35 33 79 44 149 39 266 l-4 110 87 -120
87 -120 -101 -81z m-2640 -559 c368 -270 693 -508 723 -529 67 -44 165 -94
242 -123 l57 -22 -211 -131 -211 -132 -22 47 c-27 58 -32 62 -229 206 -154
112 -187 129 -202 104 -5 -8 -11 -6 -20 7 -9 12 -20 16 -37 11 -32 -8 -40 2
-22 28 8 11 15 26 15 33 0 12 -663 548 -707 571 -17 9 -21 30 -32 174 -7 90
-15 182 -18 206 -3 23 -3 42 1 42 3 0 306 -221 673 -492z m-287 -392 c124 -99
176 -147 168 -153 -49 -32 -323 -179 -325 -174 -3 9 -33 413 -33 444 0 15 2
27 5 27 3 0 86 -65 185 -144z m-180 -1080 c18 -14 37 -26 43 -26 11 -1 -131
-78 -145 -80 -3 0 0 19 7 43 7 23 16 69 20 102 l7 60 19 -36 c10 -20 32 -48
49 -63z M6884 5634 c-243 -40 -464 -156 -642 -333 -208 -208 -328 -440 -347
-671 -8 -95 8 -282 31 -375 65 -259 203 -479 409 -653 269 -226 627 -395 967
-456 l38 -7 153 234 c85 128 164 243 177 255 33 30 64 28 149 -13 40 -19 78
-35 84 -35 13 0 107 139 107 157 0 14 -897 625 -925 630 -16 3 -30 -12 -67
-71 -27 -41 -48 -79 -48 -84 0 -5 28 -31 63 -59 34 -27 70 -65 81 -84 18 -34
18 -36 0 -71 -34 -64 -269 -387 -282 -387 -8 -1 -55 20 -105 46 -71 36 -111
66 -173 128 -96 95 -138 163 -160 263 -28 124 -5 219 99 414 86 163 172 282
305 419 244 254 422 359 605 359 185 0 366 -115 446 -284 79 -164 96 -347 51
-536 -12 -52 -24 -105 -27 -117 -4 -17 7 -29 63 -67 38 -25 76 -46 84 -46 16
0 433 630 438 664 2 11 -4 26 -14 33 -14 10 -15 16 -6 25 22 22 13 45 -32 82
-24 20 -48 36 -53 36 -5 0 -24 -13 -43 -29 -19 -15 -49 -35 -67 -44 l-32 -17
-92 138 c-110 163 -181 241 -309 336 -164 123 -321 193 -495 221 -110 18 -322
18 -431 -1z m431 -153 c90 -18 225 -68 261 -97 17 -13 16 -14 -21 -7 -22 5
-94 8 -160 8 -99 -1 -132 -5 -190 -24 -169 -57 -282 -136 -490 -345 -198 -200
-317 -371 -420 -605 -73 -165 -80 -344 -21 -493 l25 -63 -30 35 c-64 74 -146
237 -188 372 -25 84 -45 264 -38 345 32 337 337 704 692 832 169 61 405 78
580 42z m768 -623 c40 -50 97 -76 139 -62 29 9 24 -1 -69 -142 l-78 -119 -1
110 c-1 96 -16 194 -40 260 -8 24 -2 18 49 -47z m-606 -934 l185 -126 -38 -18
c-59 -26 -94 -69 -231 -277 -69 -106 -131 -193 -137 -193 -24 0 -193 53 -277
87 l-88 35 23 21 c34 32 305 413 338 475 15 30 28 69 28 88 0 19 3 34 6 34 3
0 89 -57 191 -126z M8556 4705 c-26 -41 -46 -81 -43 -89 3 -7 30 -28 60 -45
108 -62 128 -101 92 -179 -26 -56 -751 -1281 -806 -1363 -25 -37 -47 -58 -63
-61 -29 -6 -82 16 -166 67 -32 19 -65 35 -74 35 -16 0 -116 -139 -116 -162 0
-7 58 -45 128 -84 70 -39 310 -176 534 -303 224 -127 414 -231 422 -231 10 0
32 32 59 86 35 72 40 87 27 94 -83 48 -178 121 -194 149 -17 29 -18 38 -6 70
13 38 297 548 309 555 24 15 38 -49 125 -583 52 -314 95 -573 97 -576 2 -2
144 -65 314 -140 171 -75 317 -143 325 -150 17 -14 1899 -639 1906 -632 9 8
324 730 324 742 0 11 -196 63 -203 54 -2 -2 -25 -38 -52 -79 -73 -114 -176
-212 -271 -257 -79 -38 -80 -38 -204 -37 -130 0 -185 10 -323 60 -133 47 -171
78 -160 129 14 72 212 610 225 612 26 5 92 -52 116 -100 38 -77 49 -208 28
-331 -9 -55 -13 -103 -9 -106 10 -9 157 -50 177 -50 9 0 16 2 16 5 0 3 74 262
165 576 91 314 165 578 165 587 0 13 -21 23 -82 40 -46 12 -88 22 -94 22 -6 0
-39 -55 -72 -122 -66 -136 -125 -211 -187 -239 -41 -19 -140 -26 -149 -11 -4
7 209 638 219 650 5 6 278 -99 334 -128 148 -79 207 -210 199 -444 l-3 -109
88 -25 c51 -15 91 -21 96 -16 10 11 196 723 190 728 -8 7 -1578 526 -1591 526
-17 0 -93 -153 -85 -172 3 -8 34 -25 69 -38 116 -42 151 -85 128 -157 -40
-122 -556 -1485 -575 -1519 -15 -25 -34 -44 -50 -48 -51 -13 -239 70 -297 131
-35 37 -53 110 -139 558 -38 198 -71 369 -74 380 -4 18 0 20 34 17 53 -5 169
14 235 38 205 77 359 308 373 560 6 109 -10 189 -57 285 -64 132 -169 229
-380 354 -263 156 -972 551 -988 551 -10 0 -37 -31 -66 -75z m454 -312 c94
-54 170 -102 168 -108 -2 -5 -16 -9 -33 -7 -30 2 -32 -2 -255 -408 -124 -226
-229 -420 -235 -432 -7 -16 -5 -24 12 -38 22 -17 21 -17 -14 -16 l-36 1 -164
-290 c-173 -307 -203 -371 -203 -436 0 -22 -4 -39 -9 -37 -24 8 -361 204 -361
209 0 3 11 11 24 17 39 17 95 105 472 742 431 728 454 771 454 845 0 30 2 55
4 55 2 0 81 -44 176 -97z m326 -329 c123 -87 165 -181 139 -310 -16 -74 -70
-187 -125 -260 -48 -63 -126 -115 -185 -121 -52 -6 -160 24 -252 70 l-62 32
182 331 182 332 30 -15 c17 -9 57 -35 91 -59z m366 -81 c158 -121 230 -305
183 -469 -60 -210 -183 -335 -358 -366 -49 -9 -83 -7 -179 7 -65 10 -121 15
-125 11 -7 -7 153 -861 194 -1030 13 -54 22 -100 21 -101 -2 -2 -245 105 -359
157 -5 3 -179 1046 -179 1074 0 6 29 1 72 -14 253 -84 448 10 583 283 55 111
75 186 75 285 0 93 -19 162 -64 229 l-34 51 56 -37 c31 -20 83 -56 114 -80z
m1185 -454 c101 -33 183 -64 183 -67 -1 -17 -17 -27 -45 -27 l-29 0 -144 -410
c-79 -225 -145 -426 -147 -445 -2 -19 -60 -196 -129 -393 -129 -365 -151 -451
-126 -496 6 -13 10 -25 8 -27 -4 -3 -398 124 -407 132 -2 2 8 21 22 41 42 60
63 113 317 793 324 862 313 832 307 903 -3 31 -2 57 1 57 4 0 89 -27 189 -61z
m818 -269 c72 -23 131 -44 133 -45 2 -1 -10 -51 -26 -111 -22 -78 -32 -103
-37 -89 -38 108 -120 219 -205 279 -30 20 -30 21 135 -34z m-538 -843 l-52
-179 -16 54 c-23 79 -46 118 -97 166 l-45 42 31 0 c50 0 155 37 192 69 19 16
36 28 37 28 0 -1 -22 -82 -50 -180z m307 -904 c-14 -32 -35 -82 -47 -110 -12
-29 -27 -53 -32 -53 -25 0 -238 78 -225 83 8 2 42 9 75 16 64 11 193 71 221
102 31 34 34 20 8 -38z M19260 3794 c-267 -95 -609 -217 -760 -270 -151 -54
-279 -101 -283 -104 -8 -7 28 -155 43 -180 6 -10 29 -9 104 6 104 19 133 14
162 -31 16 -24 469 -1530 479 -1591 6 -38 4 -43 -29 -72 -32 -28 -64 -40 -183
-72 -51 -13 -51 -15 -19 -125 18 -62 27 -81 43 -83 11 -2 312 101 669 228 357
127 780 278 939 335 252 89 290 106 293 125 4 22 -205 748 -220 765 -5 6 -41
-7 -94 -33 -81 -41 -86 -44 -80 -70 17 -81 18 -211 2 -284 -48 -217 -171 -348
-422 -447 -134 -53 -178 -65 -207 -57 -29 7 -44 42 -180 426 -93 263 -93 250
-2 252 92 1 193 -85 290 -250 33 -57 67 -102 75 -102 8 0 50 12 93 26 61 20
78 30 74 43 -10 38 -430 1117 -438 1126 -6 6 -41 -1 -94 -19 -66 -21 -85 -31
-85 -46 0 -10 11 -61 25 -112 37 -134 36 -249 0 -324 -28 -57 -97 -116 -115
-98 -9 10 -230 623 -230 641 0 14 158 86 263 118 112 35 184 32 273 -13 69
-35 172 -138 225 -225 19 -31 41 -57 49 -57 27 -1 160 54 160 67 0 9 -223 531
-281 656 -8 17 -19 27 -33 26 -12 -1 -239 -79 -506 -175z m480 -99 c21 -47 37
-85 35 -85 -1 0 -22 11 -46 24 -60 34 -150 56 -229 57 l-65 0 130 48 c72 26
132 46 134 45 2 -2 21 -42 41 -89z m-732 -166 c-40 -21 -44 -29 -28 -59 9 -16
6 -21 -15 -26 -14 -3 -25 -13 -25 -23 0 -9 70 -209 156 -446 85 -236 206 -572
268 -745 140 -390 172 -468 208 -501 l27 -26 -217 -77 c-119 -42 -219 -76
-222 -76 -3 0 -6 31 -7 68 -2 57 -41 197 -227 818 -124 413 -235 777 -247 810
-14 39 -36 72 -64 99 l-43 41 226 81 c235 85 273 96 210 62z m685 -806 l55
-142 -40 25 c-56 36 -113 54 -167 54 -45 0 -46 1 -25 18 38 30 82 101 95 152
7 28 16 47 20 43 4 -5 32 -72 62 -150z m844 -677 c-2 -5 -55 -28 -119 -51
l-115 -42 45 61 c49 66 93 154 112 226 l13 45 33 -115 c19 -63 33 -119 31
-124z M17922 3337 c-28 -29 -32 -39 -32 -90 0 -31 -4 -57 -9 -57 -5 0 -56 11
-113 25 -336 81 -628 -23 -796 -283 -71 -110 -87 -174 -87 -342 1 -225 40
-338 163 -471 138 -149 295 -224 722 -344 211 -59 317 -109 364 -171 58 -76
57 -141 -3 -235 -61 -97 -161 -143 -311 -143 -107 0 -183 19 -272 66 -130 69
-261 239 -333 431 -10 26 -22 50 -26 53 -4 2 -49 -1 -99 -7 -87 -11 -90 -12
-90 -38 -1 -41 123 -885 130 -894 4 -5 50 0 101 10 87 17 95 21 107 48 26 61
38 79 63 98 26 19 29 19 110 2 330 -68 644 -4 853 172 193 162 298 462 241
688 -23 90 -90 216 -152 285 -130 143 -271 213 -658 325 -307 88 -407 132
-469 206 -30 36 -45 143 -26 189 15 37 78 95 125 114 107 45 189 36 325 -34
134 -70 241 -185 311 -334 36 -76 22 -73 152 -35 37 11 67 25 67 32 0 6 -44
175 -97 375 l-98 364 -32 -5 c-23 -4 -36 0 -49 14 -25 27 -46 24 -82 -14z
m112 -391 c7 -27 5 -27 -51 22 -32 27 -67 54 -78 60 -18 10 -17 11 11 12 18 0
42 9 55 19 l24 20 16 -52 c9 -29 19 -65 23 -81z m-884 -52 c-19 -49 -7 -204
22 -277 16 -41 111 -121 197 -166 82 -41 191 -79 392 -136 358 -99 524 -191
625 -342 74 -112 101 -243 73 -361 -19 -81 -94 -223 -148 -282 l-51 -55 33 70
c28 61 32 80 32 155 0 69 -5 94 -24 133 -57 117 -182 198 -403 263 -239 70
-414 126 -482 155 -144 61 -277 173 -330 277 -57 112 -73 302 -35 414 17 51
92 178 105 178 2 0 -1 -12 -6 -26z m99 -1544 c51 -64 143 -149 185 -172 19
-10 15 -13 -41 -25 -45 -10 -73 -24 -105 -53 l-44 -38 -23 166 c-13 92 -26
174 -29 182 -7 20 -3 16 57 -60z M12618 2373 c-485 -729 -604 -898 -696 -987
-48 -46 -127 -68 -212 -59 l-55 5 -23 -83 c-12 -46 -22 -91 -22 -100 0 -12 83
-33 426 -103 234 -48 427 -86 429 -84 8 8 26 148 23 174 -3 24 -11 29 -96 54
-95 28 -124 46 -147 91 -12 23 -11 32 10 78 37 78 143 211 169 211 28 0 607
-98 613 -103 10 -11 104 -326 106 -357 l2 -35 -70 0 c-38 1 -93 4 -121 9 l-51
8 -13 -101 c-7 -56 -11 -103 -9 -105 7 -7 1183 -134 1192 -129 4 2 7 48 7 103
l0 98 -52 7 c-29 4 -72 15 -95 25 -38 17 -46 27 -86 112 -24 51 -54 120 -65
153 -12 33 -132 456 -267 940 -135 484 -249 889 -254 901 -9 20 -68 44 -110
44 -17 0 -122 -151 -533 -767z m781 -328 c223 -797 258 -910 322 -1036 17 -34
28 -63 26 -66 -5 -4 -342 30 -427 43 l-35 5 3 92 c3 89 1 99 -57 285 -34 107
-61 196 -61 199 0 3 -11 2 -25 -1 -22 -6 -25 -3 -25 19 0 18 -5 25 -20 25 -31
0 -23 28 10 35 17 4 30 12 30 18 0 7 -50 208 -110 447 l-109 435 117 177 c89
134 119 173 124 160 5 -9 111 -386 237 -837z m-494 -64 c31 -123 55 -227 53
-230 -2 -4 -87 7 -189 24 l-185 30 130 202 c72 110 132 200 133 199 1 -1 27
-102 58 -225z m-797 -777 c11 -21 11 -21 -61 -7 -40 9 -73 16 -75 18 -2 1 23
28 55 58 l58 56 6 -52 c3 -29 11 -62 17 -73z M15025 2988 c-462 -5 -842 -11
-844 -14 -5 -4 -40 -567 -40 -652 l-1 -53 97 3 96 3 24 90 c44 167 91 244 175
291 46 24 66 29 151 32 l97 4 -1 -383 c0 -211 -4 -590 -7 -841 l-7 -458 -27
-27 c-26 -26 -32 -27 -153 -31 l-125 -4 0 -106 0 -105 98 6 c53 4 341 7 640 7
l542 0 0 105 0 105 -102 0 c-108 0 -166 16 -198 54 -15 19 -17 88 -35 1244
l-7 442 97 0 c69 0 107 -5 131 -16 76 -36 160 -165 213 -326 l23 -68 94 0 94
0 0 48 c0 26 -9 164 -20 307 -11 143 -20 268 -20 278 0 12 -8 17 -29 17 -25 0
-30 4 -33 28 -3 24 -7 27 -43 28 -22 1 -418 -3 -880 -8z m845 -185 c0 -27 3
-73 7 -103 l6 -55 -40 50 c-50 63 -97 103 -146 125 -50 23 -35 28 81 29 l92 1
0 -47z m-617 -315 c4 -194 10 -571 13 -838 7 -555 13 -665 43 -715 l20 -35
-207 0 c-114 0 -218 -3 -230 -7 -24 -6 -24 -6 -7 26 9 18 20 69 25 114 5 45
12 470 16 945 l6 862 158 0 157 0 6 -352z m-761 321 c-34 -13 -77 -43 -118
-81 l-64 -60 0 43 c0 24 3 61 6 82 l7 37 111 -1 111 0 -53 -20z M14526 26349
c-3457 -146 -6658 -1867 -8715 -4684 -609 -834 -1114 -1780 -1476 -2760 -807
-2189 -913 -4641 -299 -6913 367 -1357 1000 -2663 1834 -3782 1415 -1897 3336
-3289 5555 -4026 998 -331 1960 -510 3038 -565 297 -15 1109 -6 1377 15 866
69 1601 201 2375 426 294 85 912 299 925 320 3 4 61 31 130 58 1204 481 2370
1209 3365 2103 183 164 599 573 725 713 47 52 93 97 103 101 9 3 17 11 17 17
0 6 19 32 43 57 205 225 586 710 814 1036 1149 1647 1838 3548 2007 5535 54
635 54 1333 0 1975 -144 1717 -681 3371 -1576 4863 -366 609 -808 1202 -1312
1762 -175 194 -583 602 -780 778 -409 368 -849 712 -1277 999 -113 76 -189
133 -189 142 0 28 -506 332 -895 539 -1755 929 -3759 1377 -5789 1291z m1159
-238 c697 -48 1308 -139 1945 -292 174 -42 484 -126 585 -158 l60 -20 -737 0
-738 -1 -2 -72 -2 -73 -5 72 -6 72 -60 45 c-33 25 -65 46 -72 46 -6 0 -17 -16
-23 -35 -6 -19 -13 -35 -15 -35 -1 0 -22 7 -45 15 -54 19 -152 19 -217 0 -65
-19 -139 -85 -169 -150 l-24 -50 0 73 0 74 -59 61 c-63 66 -84 70 -96 18 -9
-41 -15 -43 -70 -25 -69 24 -185 15 -251 -19 -61 -31 -117 -93 -138 -151 l-14
-41 -1 93 -1 92 -550 0 -550 0 0 -80 0 -80 38 0 c57 0 63 -8 60 -80 l-3 -63
-122 156 -123 155 -332 -5 c-183 -2 -339 -6 -345 -8 -9 -3 -13 -28 -13 -80 l0
-75 43 0 c63 0 68 -7 65 -81 l-3 -63 -125 158 -124 158 -168 -7 c-134 -6 -168
-5 -168 5 0 11 -122 12 -646 7 -356 -3 -645 -4 -643 -3 7 7 298 86 497 136
709 176 1439 282 2207 320 212 10 958 4 1160 -9z m2808 -537 c616 -201 1339
-517 1911 -836 l150 -83 -425 -8 c-535 -10 -1559 -3 -2414 17 -1148 27 -7225
59 -7787 41 -257 -8 -272 -12 -203 -55 33 -20 180 -199 171 -208 -7 -6 -676
52 -676 59 0 4 69 47 153 97 513 303 1087 579 1647 794 175 67 516 188 531
188 5 0 9 -57 9 -135 l0 -135 78 0 77 0 17 58 c21 66 34 86 66 96 l22 7 -2
-268 -3 -268 -52 -3 -53 -3 0 -80 0 -79 270 0 270 0 0 80 0 80 -49 0 c-46 0
-49 1 -55 31 -3 17 -6 139 -6 270 0 203 2 239 15 239 32 0 63 -54 77 -135 3
-18 11 -20 78 -20 l75 0 3 88 c3 85 3 87 28 87 l24 0 -2 -277 -3 -278 -52 -3
-53 -3 0 -80 0 -79 575 0 575 0 0 80 0 80 -42 0 c-69 0 -69 0 -66 154 l3 137
194 -241 194 -241 61 3 61 3 3 368 2 367 48 0 c26 0 53 -5 60 -12 9 -9 12 -82
12 -269 0 -286 4 -269 -71 -269 l-39 0 0 -80 0 -80 205 0 205 0 0 80 0 80 -44
0 c-25 0 -48 6 -55 14 -8 9 -11 57 -9 147 l3 132 195 -242 195 -242 60 3 60 3
3 368 c1 202 6 367 10 368 4 0 33 2 65 4 l57 3 -2 -281 -3 -282 -53 -3 -53 -3
3 -77 3 -77 393 -3 c250 -1 392 -6 392 -12 0 -6 29 -10 64 -10 53 0 67 4 79
20 13 19 15 19 68 3 71 -22 190 -21 260 2 38 13 69 33 106 70 l52 53 3 -72 3
-71 65 -3 c54 -3 67 0 80 17 15 19 15 19 90 0 135 -35 266 -5 349 81 l41 42 0
-66 0 -66 775 0 c426 0 775 1 775 3 0 1 11 81 25 177 14 96 25 183 25 193 0
16 -9 18 -82 15 l-83 -3 -18 -55 c-9 -30 -26 -64 -37 -74 -20 -20 -20 -20 -20
178 0 197 5 234 18 139 l7 -48 78 -3 77 -3 0 176 c0 117 4 175 11 175 5 0 74
-21 152 -46z m-5889 -356 c7 -276 6 -298 -9 -298 -13 0 -16 6 -11 23 3 12 6
148 6 301 0 154 2 277 4 275 2 -2 7 -138 10 -301z m-604 -3 c0 -293 0 -295
-21 -295 -15 0 -19 4 -15 16 3 9 6 141 6 295 0 241 2 279 15 279 13 0 15 -39
15 -295z m1549 66 c100 -127 184 -238 188 -248 4 -12 3 -15 -4 -8 -22 22 -383
474 -383 479 0 23 40 -22 199 -223z m835 -6 c102 -129 186 -239 186 -246 0
-10 -363 433 -383 467 -5 8 -4 14 2 14 5 0 93 -106 195 -235z m630 -72 c5
-207 4 -293 -3 -293 -8 0 -11 91 -11 297 0 163 2 294 4 292 2 -2 7 -136 10
-296z m-1852 270 c17 -15 18 -37 18 -273 0 -230 -2 -259 -16 -264 -9 -4 -19
-4 -22 -2 -2 3 1 39 7 81 6 42 11 89 11 106 l0 30 -82 -3 -81 -3 -17 -54 c-10
-29 -25 -60 -34 -69 -15 -15 -16 1 -15 193 1 197 6 226 24 123 l6 -38 74 0 75
0 0 88 c0 107 10 123 52 85z m3898 -90 c0 -60 3 -192 7 -295 6 -171 5 -188
-10 -188 -15 0 -17 27 -17 295 0 190 4 295 10 295 6 0 10 -43 10 -107z m770
-172 c0 -154 3 -286 6 -295 4 -11 1 -16 -10 -16 -14 0 -16 31 -16 295 0 190 4
295 10 295 6 0 10 -100 10 -279z m-1913 236 c28 -19 73 -82 73 -102 0 -7 -167
81 -185 97 -7 6 -3 14 10 24 24 18 57 12 102 -19z m600 22 c15 -6 39 -20 51
-32 26 -24 56 -76 49 -84 -6 -5 -131 57 -162 80 -16 13 -17 17 -6 31 16 19 29
20 68 5z m381 -266 l-3 -278 -44 -3 c-39 -3 -43 -1 -36 15 14 31 18 174 6 212
-6 21 -27 56 -47 79 l-36 42 31 0 31 0 0 105 0 105 50 0 50 0 -2 -277z m762
-3 l0 -280 -31 0 -32 0 7 48 c4 26 9 75 13 110 l6 62 -82 0 c-57 0 -83 -4 -85
-12 -13 -46 -39 -108 -51 -124 -13 -17 -14 5 -14 186 1 192 6 221 24 118 l6
-38 74 0 75 0 0 105 0 105 45 0 45 0 0 -280z m-4896 228 c-9 -59 -14 -60 -14
-5 0 26 5 47 10 47 6 0 8 -16 4 -42z m2408 -29 l-10 -44 -1 55 c-1 39 2 51 10
43 7 -7 8 -24 1 -54z m2051 14 c-8 -52 -13 -54 -13 -5 0 23 4 42 9 42 6 0 7
-17 4 -37z m766 10 c-1 -16 -5 -41 -9 -58 -6 -25 -8 -20 -9 28 0 32 3 57 9 57
6 0 9 -12 9 -27z m-2624 -97 l7 -46 79 0 c75 0 79 1 79 23 0 16 6 10 20 -21
11 -24 29 -57 41 -73 l20 -29 -39 0 c-31 0 -41 -4 -45 -20 -4 -17 -14 -20 -60
-20 l-54 0 -22 -59 c-12 -32 -28 -64 -36 -71 -13 -11 -15 13 -14 196 0 199 7
234 24 120z m1138 -96 c114 -62 177 -113 177 -147 0 -10 -13 -2 -38 23 -21 22
-76 58 -123 82 -98 50 -173 103 -190 133 -11 20 -9 20 22 -3 19 -14 87 -54
152 -88z m-765 71 c15 -10 68 -39 117 -64 132 -67 173 -100 190 -157 6 -21 1
-18 -29 17 -23 26 -75 62 -142 99 -58 32 -122 72 -142 90 -40 36 -36 45 6 15z
m478 -88 l25 -33 -34 0 c-26 0 -39 6 -52 26 -9 14 -25 34 -36 45 -19 19 -19
19 16 19 21 0 35 5 36 13 0 6 5 1 10 -13 6 -13 21 -39 35 -57z m-328 -206 c29
-26 28 -43 -3 -63 -22 -14 -30 -15 -56 -3 -63 26 -110 81 -134 157 -6 21 0 19
82 -24 48 -26 98 -56 111 -67z m549 51 c106 -55 128 -81 92 -110 -54 -45 -162
33 -194 141 -4 13 -3 22 1 20 5 -2 50 -25 101 -51z m1556 -85 c4 -19 2 -33 -3
-33 -6 0 -10 17 -10 37 0 43 5 41 13 -4z m-5226 -5 c-3 -7 -5 -2 -5 12 0 14 2
19 5 13 2 -7 2 -19 0 -25z m2410 -5 c-3 -10 -5 -4 -5 12 0 17 2 24 5 18 2 -7
2 -21 0 -30z m2050 -15 c-3 -7 -5 -2 -5 12 0 14 2 19 5 13 2 -7 2 -19 0 -25z
m-4112 -398 c3426 -23 4100 -29 4838 -46 422 -10 767 -21 767 -24 0 -3 -24
-126 -54 -273 l-53 -266 -45 -53 c-69 -81 -617 -638 -1048 -1065 -212 -210
-475 -476 -584 -590 l-200 -209 -50 27 c-28 15 -132 64 -231 109 -254 116
-374 189 -462 282 -45 47 -99 140 -123 214 -12 35 -25 64 -30 64 -5 0 -37 -7
-72 -15 -320 -74 -694 -17 -1126 171 -163 71 -355 171 -715 373 -631 354 -886
466 -1224 538 -115 24 -148 27 -333 27 -175 0 -220 -3 -307 -22 -174 -38 -361
-112 -503 -198 l-66 -40 -89 36 c-135 54 -407 224 -700 438 -133 98 -163 111
-252 112 -41 0 -42 1 -38 28 26 157 30 212 14 212 -6 0 -68 37 -137 83 l-126
82 234 5 c444 10 1158 10 2715 0z m7868 -156 c958 -608 1850 -1392 2585 -2273
1253 -1500 2088 -3297 2422 -5213 335 -1927 162 -3899 -505 -5733 -456 -1256
-1176 -2478 -2046 -3474 -73 -85 -143 -164 -154 -177 l-20 -23 -635 -11 c-349
-5 -725 -12 -836 -14 l-200 -5 -109 136 c-60 74 -164 222 -230 327 l-122 191
79 3 c69 2 78 5 78 22 0 21 -89 750 -93 763 -1 5 -61 52 -132 105 -102 77
-136 108 -161 150 l-32 54 88 201 87 202 22 513 21 512 -105 413 -105 413 29
154 c17 85 62 286 102 445 l71 290 212 440 211 439 3 241 3 240 -163 89 c-90
49 -165 91 -167 92 -2 2 -9 142 -16 311 l-12 308 -206 342 -206 342 -129 598
-130 598 -62 635 -62 635 -104 477 -105 478 -79 622 c-44 343 -133 1023 -200
1513 l-120 889 -234 771 -234 770 -28 320 c-27 316 -27 324 -15 623 7 167 15
310 18 318 3 9 23 14 62 15 76 2 1034 15 1299 17 l213 2 152 -96z m-1887 6
c-4 -39 -11 -193 -16 -343 -9 -261 -8 -286 21 -611 l30 -339 234 -766 c150
-493 237 -796 245 -851 12 -83 11 -85 -12 -104 -54 -45 -264 -127 -437 -171
-139 -35 -229 -44 -288 -29 -26 7 -51 13 -55 14 -4 0 -30 -44 -57 -97 -66
-128 -130 -211 -245 -320 -172 -162 -377 -253 -571 -252 l-70 0 -59 74 c-33
41 -70 85 -83 97 -47 44 -20 36 117 -32 77 -38 146 -70 153 -70 7 0 28 16 47
35 l34 35 -58 196 c-32 107 -56 197 -54 199 4 4 117 -131 124 -148 3 -8 -2
-20 -11 -27 -8 -7 -15 -17 -15 -23 0 -13 90 -107 103 -107 10 0 223 171 385
310 68 58 130 107 137 110 35 13 164 127 165 145 0 10 -19 39 -42 62 -41 42
-74 53 -94 33 -6 -6 -23 -6 -47 1 -34 9 -37 13 -37 45 0 92 -58 144 -158 144
-74 0 -79 -2 -198 -92 -50 -37 -94 -68 -98 -68 -4 0 -86 -64 -182 -142 -97
-79 -208 -167 -247 -195 -39 -29 -74 -61 -78 -71 -4 -9 -42 -46 -85 -82 -44
-35 -121 -103 -172 -150 -75 -68 -92 -89 -89 -108 4 -18 -3 -26 -37 -41 -53
-24 -260 -206 -264 -233 -3 -13 11 -36 39 -64 44 -45 66 -53 87 -32 9 9 21 3
53 -27 57 -55 86 -98 71 -103 -25 -8 -10 -39 42 -91 55 -54 61 -56 102 -26 20
15 21 14 39 -84 30 -166 11 -290 -73 -461 -20 -41 -101 -170 -179 -286 -136
-203 -489 -791 -702 -1169 -206 -364 -388 -764 -470 -1030 -41 -135 -76 -286
-97 -425 -27 -170 -24 -484 5 -644 52 -291 157 -549 328 -809 112 -170 296
-389 436 -519 l61 -56 -26 -39 c-14 -22 -41 -68 -59 -104 -28 -55 -33 -75 -33
-139 -1 -87 2 -83 -131 -170 -206 -134 -454 -218 -745 -251 -160 -18 -537 -6
-802 25 -753 89 -838 96 -919 73 -54 -16 -55 -17 -98 -97 -51 -97 -86 -140
-112 -140 -56 0 -121 129 -180 357 -24 94 -70 233 -114 343 -182 456 -199 692
-75 1001 22 57 105 228 184 379 258 497 424 887 460 1080 31 164 12 348 -42
390 -67 53 -145 -17 -113 -102 17 -46 21 -78 11 -78 -5 0 -10 9 -10 21 0 26
-49 76 -84 85 -69 17 -138 -25 -150 -91 l-7 -33 -42 24 c-48 27 -123 32 -165
10 -39 -20 -78 -65 -97 -111 -34 -82 -105 -288 -105 -306 0 -17 8 -19 75 -19
58 0 76 3 83 17 9 15 17 14 90 -12 105 -36 107 -38 93 -63 -25 -48 -18 -53 76
-50 l86 3 81 225 c81 223 108 263 66 95 -48 -192 -188 -514 -440 -1010 -197
-388 -236 -485 -266 -658 -16 -88 -15 -305 1 -377 12 -53 -27 59 -46 134 -17
67 -19 89 -10 150 6 39 13 109 17 156 6 76 13 99 65 211 33 69 59 132 59 140
0 8 8 26 18 39 26 38 104 180 184 337 l73 143 -45 45 c-49 50 -64 54 -94 26
-20 -19 -27 -19 -206 -6 -102 8 -202 15 -222 15 l-38 0 0 -56 c0 -56 1 -57 90
-170 50 -63 90 -116 90 -119 0 -12 -38 -3 -44 10 -10 28 -69 55 -119 55 -58 0
-98 -19 -132 -64 -25 -33 -135 -268 -135 -289 0 -18 93 -107 112 -107 10 0 20
10 24 25 3 14 10 25 14 25 4 0 45 -17 91 -38 l84 -39 -105 -32 c-58 -18 -149
-46 -202 -63 l-98 -30 0 -56 0 -57 165 -94 c91 -51 168 -97 171 -102 2 -5 -8
-11 -23 -15 -15 -3 -53 -12 -83 -20 -34 -8 -56 -10 -58 -4 -6 15 -172 13 -172
-2 0 -12 19 -83 112 -426 l33 -123 70 3 c69 3 70 4 75 32 5 27 11 31 72 47
l68 17 -105 -113 -105 -112 0 -57 0 -56 53 -1 c28 -1 77 -4 107 -7 l54 -7 -69
-18 c-39 -10 -87 -23 -107 -28 -51 -13 -49 -34 7 -89 31 -31 45 -52 45 -71 0
-44 31 -125 61 -162 16 -20 52 -47 81 -61 43 -22 66 -26 133 -26 73 0 86 3
135 33 68 40 111 105 118 179 l5 51 23 -82 c27 -93 82 -208 128 -266 17 -21
30 -45 28 -53 -2 -7 -37 -90 -78 -183 -41 -94 -85 -207 -98 -252 l-24 -82 -53
-8 c-106 -15 -228 -96 -274 -181 -15 -27 -32 -40 -77 -57 l-57 -21 -43 36
c-76 65 -185 81 -273 39 -30 -15 -37 -28 -89 -172 -93 -259 -120 -410 -99
-543 l10 -57 -66 -6 c-127 -11 -193 -24 -213 -42 -11 -10 -33 -40 -49 -68 -23
-40 -29 -62 -29 -113 0 -84 21 -125 125 -245 100 -115 130 -167 121 -210 -4
-19 -36 -61 -89 -116 -208 -216 -313 -473 -397 -972 -15 -94 -32 -175 -37
-179 -4 -4 -37 -17 -73 -30 -174 -61 -381 -198 -510 -338 -190 -205 -348 -515
-430 -842 -52 -203 -62 -279 -90 -680 -7 -85 -39 -423 -73 -751 l-62 -597 -45
17 c-32 12 -46 23 -48 38 -4 29 50 800 88 1251 18 210 38 390 51 444 112 505
162 1131 129 1620 -14 208 -9 194 -78 208 -115 24 -205 96 -269 216 -17 33
-62 151 -98 264 -37 113 -84 237 -103 275 -34 65 -129 174 -175 200 -16 9 -12
30 53 290 147 585 313 1112 496 1580 112 288 120 330 85 438 -12 35 -42 97
-66 136 -25 40 -45 83 -45 95 0 12 13 43 29 68 29 45 85 86 272 201 43 26 104
76 138 112 35 38 69 65 80 65 69 0 184 66 279 161 l62 61 0 93 c0 170 -22 255
-155 609 -75 200 -75 200 -25 318 40 96 122 214 245 353 216 244 284 324 326
386 101 149 131 292 90 427 -27 89 -27 121 2 163 35 53 100 85 308 155 107 36
226 81 266 101 145 73 233 179 233 284 0 80 33 200 86 308 79 165 157 263 459
571 266 273 359 388 437 545 68 136 98 261 98 411 l0 91 41 28 c23 15 60 44
83 65 22 20 79 54 126 74 285 124 663 352 925 557 369 289 690 659 900 1039
60 109 66 140 32 174 -54 54 -97 30 -163 -91 -26 -48 -87 -146 -135 -218 -294
-438 -701 -811 -1209 -1107 -105 -61 -434 -228 -450 -228 -15 0 -54 84 -105
230 -69 197 -123 305 -186 368 -61 60 -151 109 -219 118 l-48 6 -6 46 c-3 24
-6 201 -6 393 0 203 -4 358 -10 373 -18 48 -86 59 -125 20 -15 -15 -16 -56
-12 -428 3 -280 8 -433 17 -478 l13 -68 52 0 c95 0 192 -41 248 -105 40 -46
72 -114 127 -268 31 -89 71 -193 89 -231 17 -38 31 -70 31 -71 0 -9 -94 -65
-126 -75 l-40 -12 0 -172 c1 -167 0 -173 -31 -259 -65 -185 -162 -313 -476
-635 -120 -123 -255 -270 -301 -328 -143 -179 -232 -370 -256 -545 -17 -125
-18 -127 -55 -168 -50 -55 -144 -100 -351 -169 -197 -65 -284 -105 -339 -153
-37 -33 -78 -96 -89 -139 -4 -14 -21 -36 -38 -49 -26 -21 -45 -26 -118 -29
l-87 -4 -7 57 c-6 50 -4 61 14 80 11 12 20 28 20 35 0 18 -90 110 -107 110
-12 0 -155 -173 -177 -214 -6 -12 -40 -58 -75 -104 l-63 -82 -56 0 c-31 0 -52
4 -46 8 5 5 37 30 70 55 266 201 384 423 416 781 14 154 1 362 -37 621 -82
544 -99 763 -76 964 33 283 136 523 315 736 83 99 95 136 56 175 -20 20 -74
27 -96 12 -25 -16 -120 -132 -174 -212 -177 -263 -260 -548 -260 -900 0 -159
14 -294 65 -655 59 -407 69 -523 61 -675 -18 -369 -137 -575 -451 -785 -186
-124 -300 -183 -720 -371 l-229 -103 -33 47 c-73 101 -162 310 -267 619 l-62
183 193 1512 193 1513 139 1501 c77 825 147 1584 155 1687 9 103 21 239 27
302 l12 115 50 0 c47 0 57 -5 201 -109 340 -244 543 -367 768 -462 l98 -41 77
50 c159 101 306 165 483 210 96 24 121 27 300 26 163 0 211 -4 295 -22 314
-70 584 -189 1175 -521 329 -185 616 -334 775 -401 209 -89 447 -158 628 -180
99 -13 457 -9 488 4 13 5 19 -1 28 -24 18 -52 96 -163 154 -218 75 -70 204
-152 344 -219 65 -31 179 -85 253 -120 74 -35 155 -77 181 -93 25 -17 55 -30
65 -30 13 0 108 92 266 258 136 141 412 421 614 622 478 475 939 943 1039
1056 l80 89 60 303 59 302 115 0 114 0 -7 -70z m-9209 -121 l153 -12 96 -125
97 -125 -7 -121 c-4 -66 -14 -186 -21 -266 -8 -80 -78 -826 -155 -1659 l-141
-1514 -180 -1421 c-98 -782 -262 -2073 -364 -2871 -102 -803 -249 -2022 -330
-2733 l-145 -1284 75 -1786 74 -1787 3 -1343 3 -1342 -233 0 -232 0 -78 57
c-998 731 -1813 1545 -2509 2503 -1941 2674 -2591 6061 -1781 9275 669 2657
2307 4979 4598 6520 l166 111 379 -32 c209 -18 449 -38 532 -45z m9763 -3059
c0 -6 43 -320 95 -698 53 -378 113 -824 135 -991 l38 -305 -44 -58 c-57 -73
-166 -181 -222 -220 -57 -39 -87 -47 -225 -57 -107 -8 -121 -11 -187 -47 -92
-50 -184 -133 -218 -198 -26 -50 -27 -55 -30 -261 -4 -236 6 -406 48 -805 16
-151 35 -333 41 -405 14 -153 18 -517 6 -627 l-9 -77 -123 -91 -124 -91 -58
16 c-91 25 -263 31 -358 11 -166 -33 -330 -144 -387 -261 -23 -48 -24 -55 -18
-205 3 -85 2 -306 -3 -490 -10 -387 -5 -780 13 -927 l13 -102 -30 -53 c-34
-60 -11 -50 -396 -173 l-178 -58 -157 76 c-169 81 -294 128 -403 153 -56 13
-69 19 -69 35 0 28 22 78 73 161 24 40 52 94 62 121 l18 47 -124 123 c-335
330 -543 636 -658 970 -163 474 -128 939 120 1562 56 143 263 556 380 760 241
422 536 911 666 1103 230 343 283 471 288 701 l3 135 46 18 c142 55 231 161
258 306 l12 62 42 0 c94 0 263 45 369 98 190 95 401 298 514 495 l31 54 92 6
c150 10 402 80 563 157 89 43 95 44 95 30z m-2064 -727 c-7 -7 -26 7 -26 19 0
6 6 6 15 -2 9 -7 13 -15 11 -17z m195 -160 c-6 -21 -22 -57 -37 -79 -43 -66
-94 -93 -269 -141 -12 -4 5 20 44 61 41 41 73 66 86 66 13 0 53 29 99 71 43
39 80 68 83 66 2 -3 0 -22 -6 -44z m2194 -1548 c20 -160 51 -324 130 -685
l105 -475 64 -650 65 -650 131 -599 131 -599 203 -341 204 -341 11 -318 c6
-175 13 -322 16 -327 2 -4 77 -48 165 -96 l160 -89 0 -150 0 -149 -209 -436
-210 -435 -71 -285 c-70 -278 -140 -622 -140 -688 0 -18 47 -217 104 -442
l104 -408 -20 -473 -20 -472 -99 -219 c-54 -121 -99 -228 -99 -239 0 -10 27
-63 60 -118 57 -94 66 -104 167 -178 59 -43 110 -80 115 -83 4 -4 23 -128 41
-278 l33 -272 -150 0 c-110 0 -302 15 -701 55 l-550 55 -682 7 -683 8 71 85
c87 106 188 253 358 528 73 116 133 212 135 212 2 0 29 -9 62 -20 85 -30 213
-50 313 -50 178 0 356 41 626 145 83 31 213 81 290 110 76 30 145 62 152 71
18 25 16 74 -4 96 -28 31 -84 22 -239 -37 -79 -30 -210 -80 -291 -111 -82 -31
-200 -70 -263 -87 -102 -27 -131 -31 -260 -31 -110 0 -160 4 -208 17 -113 32
-112 31 -100 69 10 33 12 34 92 47 360 56 673 300 835 654 88 191 120 335 128
570 5 161 4 179 -12 197 -18 20 -78 27 -102 12 -19 -12 -34 -62 -28 -96 11
-54 -15 -273 -45 -393 -31 -124 -101 -281 -171 -384 -50 -75 -183 -211 -251
-257 -129 -88 -307 -152 -465 -167 l-71 -7 -25 -52 c-14 -28 -30 -71 -37 -96
-6 -25 -38 -85 -70 -135 -31 -49 -99 -157 -150 -239 -248 -402 -398 -588 -527
-655 -15 -7 -125 -11 -346 -11 l-324 0 -21 148 c-70 479 -63 842 21 1100 l21
67 6 -50 c5 -46 7 -50 35 -55 28 -5 30 -8 47 -95 16 -79 16 -90 3 -98 -11 -6
-15 -27 -15 -87 0 -96 -15 -92 190 -47 130 29 145 35 150 55 l5 24 24 -26 c14
-14 30 -26 38 -26 7 0 85 34 174 75 88 41 168 75 177 75 16 0 383 340 391 361
5 15 -90 109 -109 109 -9 0 -21 -5 -27 -11 -8 -8 -70 14 -222 78 l-211 88 37
30 c21 16 69 59 107 95 38 36 64 55 57 43 -6 -12 -11 -30 -11 -40 0 -20 128
-153 147 -153 9 0 13 15 13 45 0 25 2 45 4 45 2 0 39 -17 83 -37 52 -25 78
-43 75 -52 -5 -14 95 -121 113 -121 5 0 44 66 85 147 41 81 81 154 88 161 7 8
29 46 50 86 71 139 76 190 19 243 -40 38 -77 47 -120 29 -48 -19 -77 -61 -77
-107 0 -44 -12 -50 -28 -15 -6 13 -27 37 -48 52 -32 25 -47 29 -101 29 -34 0
-63 1 -63 3 0 1 11 20 24 41 82 129 183 358 348 791 226 588 354 837 534 1032
35 37 44 55 44 83 0 74 -80 102 -134 46 l-27 -29 -46 49 c-25 27 -53 49 -63
49 -9 0 -27 -11 -40 -25 -27 -29 -100 -37 -100 -11 0 21 -47 74 -81 91 -40 21
-137 19 -171 -3 -34 -22 -54 -48 -112 -144 -48 -79 -70 -105 -40 -47 91 178
122 451 75 668 -24 108 -39 131 -89 131 -72 0 -87 -46 -56 -177 10 -41 17
-112 17 -178 2 -443 -347 -854 -998 -1175 l-180 -89 -19 -68 c-90 -324 -300
-650 -617 -958 -210 -204 -312 -285 -1020 -812 -267 -200 -383 -292 -536 -431
l-93 -83 0 49 c0 71 26 211 61 332 55 188 129 358 344 785 270 537 335 702
371 946 21 149 17 318 -10 348 -24 27 -79 28 -105 2 -16 -16 -19 -40 -23 -177
-10 -290 -66 -447 -384 -1079 -209 -416 -287 -594 -338 -772 -41 -143 -66
-311 -66 -441 l-1 -117 -77 -48 c-42 -26 -141 -91 -220 -145 -252 -174 -396
-236 -547 -236 -44 0 -100 6 -124 13 l-44 13 6 143 c10 227 48 448 116 665 61
197 53 185 176 263 107 68 293 167 314 167 17 0 51 51 51 77 0 13 -12 35 -26
50 -21 21 -32 24 -62 19 -53 -8 -236 -102 -387 -199 l-130 -83 -47 -139 c-96
-284 -144 -545 -153 -824 l-6 -165 -47 -31 c-119 -81 -259 -236 -313 -347
l-22 -47 -71 -5 c-39 -3 -390 -13 -781 -22 -390 -8 -723 -17 -740 -20 l-30 -4
-63 -314 c-35 -173 -62 -323 -60 -335 2 -11 69 -107 150 -213 132 -173 167
-213 351 -385 l205 -192 -5 -63 c-2 -35 -21 -348 -42 -696 -21 -348 -42 -637
-47 -641 -5 -5 -214 -66 -464 -136 -250 -70 -493 -138 -539 -151 -46 -13 -91
-24 -101 -24 -22 0 -228 47 -252 58 -12 5 33 36 173 116 126 71 193 116 199
130 4 12 11 71 15 132 l7 109 -201 516 c-110 285 -214 553 -231 597 -28 73
-34 82 -66 92 l-35 12 6 51 c6 59 72 694 110 1072 14 138 30 327 35 420 14
246 50 446 121 658 172 513 482 840 903 956 l60 16 37 225 c86 522 174 743
380 956 75 78 90 99 104 149 35 118 2 206 -130 359 -95 110 -105 125 -105 158
1 51 21 61 155 74 127 12 210 39 222 71 3 8 -5 57 -17 109 -27 113 -24 194 14
326 44 149 100 293 117 296 23 4 80 -38 114 -85 17 -24 39 -42 50 -42 11 -1
79 23 152 52 131 51 132 52 148 94 9 23 34 58 55 77 61 55 102 69 203 68 l87
-1 0 32 c0 57 37 189 83 297 142 332 132 313 175 328 61 20 113 72 162 161
l45 81 46 0 c63 0 305 -25 590 -60 649 -80 1005 -80 1337 0 221 54 426 148
607 279 l84 62 65 -16 c94 -21 207 -66 405 -161 96 -46 179 -84 185 -84 7 0
47 15 91 34 44 18 150 55 235 81 85 26 191 60 235 76 l80 29 47 78 c74 123 70
107 51 244 -16 110 -18 197 -15 843 l3 720 34 41 c41 50 113 97 192 126 47 18
80 22 178 23 108 0 128 -3 202 -29 l82 -29 56 37 c31 20 101 70 155 111 55 40
113 81 129 91 28 16 29 22 41 128 16 136 16 515 1 691 -6 72 -25 258 -41 415
-44 427 -51 525 -52 745 -1 228 1 234 75 302 80 74 135 96 279 109 179 17 240
48 383 193 38 39 71 68 72 64 1 -5 13 -102 28 -218z m-10278 -1950 c70 -178
140 -315 205 -400 l50 -67 14 -120 c42 -364 198 -802 401 -1131 105 -169 274
-377 308 -377 8 0 47 16 85 35 70 35 125 44 160 25 19 -10 37 -57 65 -167 8
-34 18 -69 21 -76 9 -23 -71 -90 -208 -173 -214 -130 -279 -209 -286 -352 -4
-70 -3 -74 36 -135 53 -81 92 -165 92 -199 0 -15 -27 -94 -59 -175 -158 -397
-311 -856 -441 -1328 -54 -196 -190 -748 -190 -772 0 -14 14 -24 52 -38 64
-23 128 -80 168 -150 17 -29 62 -148 100 -264 38 -116 88 -248 111 -293 59
-114 147 -201 251 -248 l76 -34 7 -156 c10 -204 0 -608 -20 -790 -21 -194 -59
-439 -100 -640 -36 -177 -69 -526 -120 -1265 -34 -504 -32 -485 -59 -485 -19
0 -43 -48 -201 -407 -155 -351 -198 -438 -307 -624 l-128 -216 -52 13 c-29 7
-159 22 -289 35 l-236 22 -5 1421 -5 1421 -73 1715 -72 1715 141 1250 c117
1033 415 3460 438 3570 3 18 8 24 11 15 2 -8 29 -78 59 -155z m1390 -26 l32
-32 -34 -40 c-90 -105 -87 -275 8 -376 l32 -34 -65 7 c-36 4 -107 9 -157 13
l-93 6 0 -60 c0 -59 0 -60 89 -179 l89 -118 -41 -12 c-91 -24 -129 -38 -134
-51 -4 -9 -28 -13 -83 -13 -44 0 -82 -4 -85 -10 -9 -15 -95 -300 -95 -316 0
-11 19 -14 83 -14 46 0 88 5 94 11 7 7 28 5 70 -8 l60 -17 -36 -24 c-28 -19
-42 -23 -74 -18 -91 15 -167 -61 -167 -165 0 -45 23 -196 45 -296 5 -21 11
-23 80 -23 l75 0 0 28 c0 27 2 28 100 48 96 20 100 20 100 2 0 -16 9 -18 80
-18 l80 0 0 28 c0 50 -47 297 -62 328 -14 27 -12 38 39 204 54 177 91 257 224
486 59 100 68 127 49 139 -6 4 10 20 35 37 48 32 99 97 111 141 4 17 13 27 25
27 17 0 160 162 256 290 20 27 41 46 46 43 5 -3 7 -33 5 -67 -10 -114 -86
-230 -319 -486 -243 -267 -352 -438 -387 -607 -20 -100 -20 -101 84 -376 94
-252 114 -321 121 -432 l6 -90 -52 -43 c-63 -53 -129 -92 -157 -92 -19 0 -24
10 -39 73 -36 148 -64 196 -136 232 -62 32 -164 34 -239 6 l-51 -19 -53 66
c-208 259 -384 630 -481 1012 -31 123 -68 361 -57 372 4 4 90 44 192 88 243
107 565 266 665 328 44 28 82 51 85 51 2 1 19 -13 37 -30z m264 -181 c10 7 19
9 19 5 1 -5 5 -27 9 -50 6 -31 4 -48 -6 -63 -19 -27 -41 -25 -96 10 -57 36
-71 74 -38 101 21 17 24 17 57 1 28 -13 39 -14 55 -4z m-439 -786 c41 -26 60
-58 31 -49 -10 2 -48 13 -84 23 l-67 18 16 33 c18 37 6 40 104 -25z m2423
-1754 c21 -31 20 -35 -22 -62 -52 -33 -108 -42 -139 -22 -20 14 -22 20 -13 39
6 13 24 31 40 41 23 14 29 24 29 52 l0 35 45 -31 c24 -17 51 -40 60 -52z
m5657 -2065 c-41 -79 -133 -305 -242 -593 -178 -468 -257 -637 -397 -848 -206
-312 -495 -512 -842 -583 -60 -13 -67 -17 -116 -75 -127 -149 -185 -405 -185
-807 0 -228 10 -362 41 -581 11 -76 19 -140 17 -141 -2 -1 -736 -12 -1633 -24
-896 -11 -1714 -23 -1817 -26 -104 -3 -188 -3 -188 1 0 31 165 202 255 264 48
33 49 33 109 22 115 -21 154 -23 239 -12 187 23 321 88 642 311 77 53 172 114
210 135 47 25 107 73 185 148 104 100 235 213 377 326 l51 40 -20 -42 c-46
-95 -15 -247 61 -307 65 -51 101 -65 176 -65 53 -1 81 4 116 22 97 48 169 133
169 202 l0 30 63 0 c101 1 203 62 241 148 14 31 22 38 39 35 26 -5 216 133
216 156 1 8 -9 26 -21 39 -21 23 -22 25 -3 18 11 -4 40 -10 65 -13 39 -4 48
-2 69 21 14 14 28 26 33 26 5 0 80 61 166 136 129 112 157 141 157 162 0 23 8
30 54 49 99 40 161 125 161 219 l0 50 44 12 c81 21 146 96 167 190 11 51 11
52 48 52 l38 0 51 113 c28 61 62 139 75 172 13 33 37 89 52 125 l29 65 133 80
c74 44 173 103 221 130 49 28 97 59 108 71 11 11 51 42 87 68 37 26 67 53 67
59 0 23 -74 87 -100 87 -15 0 -35 9 -45 20 -10 11 -15 20 -12 20 4 0 53 -20
109 -45 56 -25 107 -45 113 -45 6 0 26 16 45 35 l34 35 -51 162 c-29 90 -51
164 -49 165 1 1 23 -15 49 -37 26 -21 43 -41 37 -45 -21 -13 -9 -41 37 -87 26
-26 52 -48 59 -48 6 0 58 56 115 125 56 68 105 123 107 121 2 -2 -6 -22 -16
-43z m-1297 -463 c23 -23 48 -40 62 -40 17 0 32 -17 67 -77 25 -43 46 -83 46
-90 0 -6 -9 -15 -21 -18 -15 -5 -20 -13 -16 -31 3 -16 -4 -31 -24 -50 l-28
-27 -81 33 c-44 19 -80 37 -80 40 0 4 11 17 25 30 44 41 34 50 -58 50 l-84 0
32 91 c28 80 36 94 66 110 47 25 50 24 94 -21z m-270 -800 c29 -22 57 -45 61
-51 6 -10 -94 58 -120 82 -27 24 12 4 59 -31z m-235 -236 c22 -9 49 -14 60
-11 18 5 20 0 20 -37 0 -43 -22 -86 -43 -86 -18 0 -100 68 -114 95 -11 20 -10
26 3 39 19 20 24 20 74 0z m896 -548 c5 -20 2 -26 -10 -26 -9 0 -61 -22 -116
-50 -55 -27 -111 -50 -125 -50 -15 0 -25 -6 -25 -14 0 -18 -22 -26 -68 -26
-20 0 -90 -11 -154 -24 -65 -12 -118 -21 -118 -19 0 2 14 21 30 42 25 31 42
40 88 51 129 29 334 112 437 178 l30 19 12 -27 c7 -15 15 -39 19 -54z m-2084
-191 c-5 -26 -16 -32 -27 -14 -5 8 17 35 31 39 1 0 -1 -11 -4 -25z m261 -57
c58 -72 71 -98 59 -110 -15 -15 -53 19 -93 81 -51 79 -25 101 34 29z m-294
-214 c20 -16 39 -24 51 -21 17 4 20 0 20 -33 0 -36 -30 -90 -50 -90 -18 0 -72
54 -91 92 -19 38 -19 41 -3 59 23 25 37 24 73 -7z m1901 -33 c13 -24 5 -29
-40 -21 l-35 6 30 16 c17 9 31 16 32 17 1 1 7 -8 13 -18z m2372 -1286 c300
-30 579 -55 620 -55 l73 0 150 -237 c101 -160 196 -295 290 -412 l139 -174
251 7 c137 3 497 9 800 12 l549 7 -111 -120 c-188 -200 -598 -579 -883 -815
-895 -742 -1926 -1355 -2982 -1774 l-57 -22 -7 34 c-3 18 -11 37 -18 42 -6 5
-141 61 -301 125 -159 64 -524 211 -810 327 l-519 210 -535 126 c-477 112
-591 135 -1069 215 -597 100 -524 93 -1241 109 l-433 10 -567 -140 -566 -139
-258 -17 c-141 -9 -260 -14 -263 -11 -4 3 12 316 35 694 23 378 41 698 41 709
0 15 -69 87 -226 235 -195 184 -244 236 -351 376 l-124 163 47 235 47 235 61
0 c34 0 500 11 1036 25 536 13 1682 34 2545 45 864 12 1784 25 2045 30 261 5
828 6 1260 4 l785 -4 547 -55z m-9577 -1395 c55 -23 105 -47 111 -53 7 -7 104
-257 218 -556 171 -452 206 -552 206 -595 0 -28 -4 -57 -8 -64 -5 -7 -148 -93
-318 -190 -225 -130 -310 -183 -312 -198 -3 -18 25 -26 327 -96 l329 -77 622
175 c342 96 629 178 638 183 10 5 141 17 292 26 l275 17 570 139 570 140 525
-12 525 -11 535 -89 c477 -80 593 -103 1070 -215 l535 -126 360 -145 c198 -80
542 -219 765 -310 223 -91 411 -167 418 -170 6 -3 12 -9 12 -13 0 -4 -75 -35
-167 -68 -1881 -672 -3925 -825 -5893 -441 -1382 270 -2755 826 -3910 1583
l-145 96 123 0 c68 0 259 -11 425 -25 272 -23 310 -28 387 -55 47 -17 88 -30
92 -30 4 0 79 120 166 268 143 239 175 303 311 612 l153 345 46 -2 c30 -1 84
-17 147 -43z M12053 24426 c-133 -22 -244 -43 -247 -46 -3 -3 4 -60 14 -125
11 -66 20 -122 20 -124 0 -2 31 -1 70 3 79 7 70 15 88 -91 9 -51 8 -53 -14
-53 -33 0 -37 -13 -24 -90 12 -70 12 -70 43 -70 18 1 103 13 191 29 l159 27
206 -27 c170 -22 224 -33 305 -63 55 -21 109 -36 119 -34 14 2 25 17 35 46 7
23 17 42 22 42 5 0 18 -30 31 -67 12 -38 26 -73 31 -79 4 -6 30 -17 56 -24 26
-7 88 -35 138 -62 50 -26 100 -48 111 -48 14 0 26 15 43 51 27 57 29 55 50
-54 l13 -68 56 -27 c86 -41 395 -214 406 -228 17 -21 79 -54 101 -54 11 0 31
-11 44 -24 26 -28 98 -56 145 -56 29 0 32 -3 28 -24 -4 -21 2 -27 42 -45 26
-12 56 -21 66 -21 10 0 21 -5 25 -11 12 -20 108 -59 147 -59 30 0 37 -4 37
-20 0 -17 30 -29 208 -86 114 -37 210 -71 213 -75 6 -10 498 -63 506 -55 7 7
63 228 63 252 0 23 -31 34 -96 34 -19 0 -34 5 -34 11 0 8 14 10 45 6 24 -4 46
-3 49 1 7 11 30 261 25 266 -2 2 -80 12 -174 21 -150 15 -189 23 -328 66 -87
28 -174 61 -193 74 -19 13 -52 29 -72 36 -20 7 -57 23 -81 36 -28 15 -61 23
-91 23 -42 0 -47 2 -46 23 1 18 -14 30 -79 65 -124 66 -141 72 -193 72 -46 0
-49 2 -45 23 4 20 -15 33 -171 122 -236 134 -407 224 -428 225 -10 0 -18 -5
-18 -11 0 -5 -4 -7 -10 -4 -5 3 -10 14 -10 24 0 11 -15 25 -41 36 -23 11 -55
32 -72 47 -16 16 -35 27 -41 25 -6 -3 -22 2 -36 9 -34 19 -239 94 -257 94 -7
0 -16 -7 -20 -16 -5 -12 -9 -10 -18 13 -10 24 -24 32 -73 47 -41 13 -62 25
-65 37 -5 19 -37 27 -37 9 0 -6 -9 -6 -26 0 -51 20 -61 14 -82 -47 l-20 -58 5
65 5 66 -247 32 c-137 18 -250 30 -252 28 -2 -2 -8 -26 -12 -53 -8 -50 -15
-45 -26 20 -4 26 -11 37 -23 36 -9 -1 -126 -20 -259 -43z m343 -124 c8 -5 7
-41 -4 -128 l-15 -122 -54 -6 c-30 -3 -58 -4 -63 -1 -4 2 -11 30 -15 61 -4 32
-9 62 -11 69 -3 8 18 15 63 21 l68 9 -3 53 c-3 52 6 63 34 44z m511 -76 c4 -4
-29 -100 -37 -109 -9 -11 -120 3 -120 16 0 5 17 7 44 3 43 -7 43 -6 50 25 3
17 6 43 6 56 0 22 3 24 27 18 16 -4 29 -8 30 -9z m482 -185 c0 -9 -108 -217
-108 -210 -1 4 10 38 24 75 14 38 32 88 41 111 10 29 20 40 30 36 8 -3 14 -8
13 -12z m-370 -113 c1 -5 -6 -8 -15 -8 -11 0 -14 5 -10 16 3 9 6 21 7 27 0 12
17 -20 18 -35z m446 -206 c-1 -1 -9 0 -18 4 -13 5 -14 10 -4 32 l12 26 6 -30
c3 -16 4 -30 4 -32z m652 -208 c-7 -7 -37 7 -37 17 0 6 9 5 21 -1 11 -7 19
-14 16 -16z m1003 -454 c0 -5 -7 -7 -15 -4 -8 4 -15 8 -15 10 0 2 7 4 15 4 8
0 15 -4 15 -10z M17896 24106 c-29 -15 -82 -61 -138 -120 -49 -53 -97 -96
-106 -96 -21 0 -352 -329 -352 -350 -1 -8 -111 -127 -245 -265 -165 -167 -245
-256 -245 -271 0 -16 -10 -24 -41 -33 -33 -10 -67 -39 -163 -138 -66 -68 -123
-132 -124 -140 -5 -18 76 -103 97 -103 8 0 22 7 31 15 14 13 25 6 104 -74 76
-76 85 -89 72 -101 -9 -7 -16 -20 -16 -29 0 -18 89 -111 105 -111 15 0 245
233 245 248 0 6 6 12 13 12 18 0 317 302 317 321 0 8 -19 34 -43 57 -42 41
-73 52 -93 32 -6 -6 -32 13 -74 56 -36 37 -60 65 -54 63 6 -2 88 -35 182 -73
l170 -69 35 29 c23 19 36 38 36 55 1 14 -28 104 -63 200 -36 96 -68 183 -72
194 -4 11 25 -11 64 -49 64 -63 70 -72 57 -86 -8 -9 -15 -21 -15 -26 0 -15 94
-104 110 -104 9 0 80 65 159 144 93 93 149 142 158 139 21 -8 433 405 433 432
0 24 -68 95 -91 95 -8 0 -25 -7 -37 -16 -17 -12 -35 -14 -76 -9 -53 7 -54 8
-60 44 -7 47 -42 99 -85 128 -47 32 -131 32 -195 -1z m-831 -1304 c-20 -4 -20
-4 -30 28 l-7 25 27 -25 c22 -21 24 -26 10 -28z M22709 20306 c-155 -44 -255
-148 -306 -315 -18 -59 -16 -240 2 -321 9 -36 37 -109 63 -164 l47 -98 75 6
c41 4 91 9 111 12 34 6 35 5 45 -33 l9 -38 78 -3 77 -3 0 28 c0 15 -11 125
-25 243 -14 117 -25 218 -25 222 0 4 -36 8 -80 8 l-80 0 0 -49 0 -49 -56 -7
c-31 -4 -58 -4 -61 -2 -2 3 -7 23 -9 44 -8 59 29 121 89 151 67 33 197 56 276
48 105 -9 174 -67 173 -145 -1 -82 -51 -154 -134 -197 l-48 -24 0 -75 c0 -53
4 -75 13 -75 15 0 321 38 365 46 l33 5 -3 72 c-3 67 -5 72 -26 75 -22 3 -23 6
-15 45 4 23 8 83 7 132 -2 208 -92 352 -274 439 -58 27 -76 31 -170 33 -64 1
-123 -3 -151 -11z m244 -154 l38 -17 -108 -2 c-71 -1 -133 -8 -182 -21 -70
-18 -73 -18 -50 -1 72 56 224 77 302 41z m-213 -561 c0 -8 -70 -21 -116 -21
-33 0 -30 18 4 23 52 8 112 7 112 -2z M23230 19035 c0 -65 30 -56 -275 -90
-306 -34 -285 -35 -285 20 l0 45 -85 0 c-74 0 -85 -2 -85 -17 0 -10 18 -188
42 -395 l42 -377 51 -5 c27 -3 112 -7 188 -9 l138 -3 -3 81 -3 80 -46 6 c-46
7 -123 40 -104 45 6 2 71 10 145 19 74 9 149 18 165 20 27 5 27 4 8 -5 -21 -8
-23 -16 -23 -85 0 -88 -20 -82 182 -60 196 22 188 19 188 58 0 18 -18 184 -40
368 -22 183 -40 340 -40 347 0 8 -23 12 -80 12 l-80 0 0 -55z m40 -220 c0 -8
-2 -15 -3 -15 -10 0 -368 -42 -467 -55 -90 -11 -116 -12 -122 -2 -14 23 -8 27
40 28 26 0 148 13 272 28 277 35 280 35 280 16z m-20 -175 c0 -6 -23 -9 -52
-8 l-53 1 45 7 c25 4 48 8 53 8 4 1 7 -2 7 -8z m-450 -54 c0 -2 -13 -6 -30 -8
-16 -3 -30 -1 -30 4 0 4 14 8 30 8 17 0 30 -2 30 -4z M23020 17819 c-134 -23
-257 -115 -317 -236 -34 -69 -38 -85 -41 -175 -5 -124 10 -204 55 -291 111
-212 386 -294 618 -184 183 87 273 265 246 488 -14 125 -47 194 -129 271 -93
87 -183 127 -293 133 -46 2 -109 0 -139 -6z m220 -166 l45 -21 -103 -1 c-98
-1 -237 -22 -274 -42 -34 -18 -18 0 26 31 89 60 216 74 306 33z m77 -184 c45
-14 83 -62 83 -105 0 -28 -6 -38 -37 -57 -97 -61 -305 -95 -407 -66 -85 24
-125 109 -73 156 81 74 306 111 434 72z m13 -360 c-92 -75 -227 -95 -329 -48
l-54 25 76 -4 c73 -4 254 19 301 38 32 13 33 11 6 -11z M23483 16548 c14 -59
18 -98 11 -98 -5 0 -121 -14 -258 -30 -136 -17 -254 -30 -261 -30 -7 0 -18 20
-24 45 l-11 45 -80 0 c-58 0 -80 -3 -79 -12 0 -7 15 -125 32 -263 l33 -250 39
-5 39 -5 -44 -37 -44 -36 16 -167 c9 -92 20 -171 25 -176 6 -6 41 -9 79 -7
l69 3 3 40 c2 37 11 48 104 136 l101 96 42 -32 c55 -41 120 -59 193 -52 125
11 214 94 242 224 12 53 6 135 -31 451 l-22 182 -90 0 c-87 0 -89 0 -84 -22z
m54 -264 c-6 -6 -159 -26 -372 -49 -82 -9 -162 -18 -177 -21 -20 -4 -28 -2
-28 8 0 11 64 22 283 47 155 19 284 35 287 38 6 6 13 -17 7 -23z m-7 -174 c0
-64 -112 -108 -154 -61 -30 33 -17 55 34 62 74 10 120 10 120 -1z m-495 -60
c-12 -13 -22 -17 -28 -11 -13 13 1 31 25 31 21 0 21 -1 3 -20z m185 -53 c0 -2
-10 -12 -22 -23 l-23 -19 19 23 c18 21 26 27 26 19z m-90 -83 c-25 -25 -67
-64 -95 -86 -27 -22 -9 -1 40 46 97 92 126 114 55 40z m375 -34 c-9 -14 -70
-23 -97 -14 -23 9 -23 9 90 22 7 1 11 -2 7 -8z M23309 15226 c-127 -36 -225
-125 -280 -253 -33 -76 -34 -82 -34 -208 1 -152 21 -237 86 -367 l40 -80 37 5
c20 3 69 9 109 13 l71 6 13 -41 12 -41 73 0 c40 0 75 3 77 8 3 5 -40 420 -53
500 0 2 -35 2 -77 0 l-78 -3 -3 -52 -3 -53 -37 0 c-20 0 -47 -3 -59 -6 -22 -6
-23 -4 -23 50 0 96 32 132 150 172 81 27 262 27 309 -1 55 -32 76 -69 75 -128
-1 -88 -41 -146 -136 -201 l-48 -27 0 -69 0 -70 38 0 c20 0 107 9 192 20 85
11 161 20 168 20 9 0 12 24 12 85 0 85 0 85 -26 85 -24 0 -25 2 -17 33 4 17 8
82 8 142 0 91 -4 121 -24 175 -44 120 -120 204 -240 263 -61 30 -74 32 -176
34 -68 1 -128 -3 -156 -11z m206 -142 c33 -8 64 -19 68 -23 4 -4 -45 -11 -110
-14 -65 -3 -143 -13 -173 -21 -68 -19 -65 -19 -49 1 19 22 91 53 148 63 25 4
48 8 51 9 3 0 33 -6 65 -15z m-175 -578 c0 -16 -119 -31 -133 -17 -11 11 14
19 78 24 22 2 43 4 48 5 4 1 7 -4 7 -12z M23830 13930 c0 -43 -3 -50 -22 -55
-47 -11 -531 -64 -540 -59 -4 3 -8 23 -8 45 l0 39 -86 0 -86 0 6 -37 c3 -21
17 -132 31 -248 35 -286 21 -255 110 -255 l75 0 0 55 c0 64 -32 54 285 90 121
14 235 28 253 31 l32 5 0 -46 0 -45 85 0 85 0 0 32 c0 29 -44 395 -55 466 l-6
32 -79 0 -80 0 0 -50z m40 -209 c0 -5 3 -16 6 -25 5 -13 -2 -16 -42 -16 -27 0
-161 -14 -298 -30 -137 -16 -253 -27 -257 -24 -5 3 -9 14 -9 25 0 16 7 19 58
20 31 0 158 13 282 28 269 34 260 33 260 22z M23190 13016 c0 -16 37 -296 45
-344 l6 -33 77 3 77 3 3 48 c2 26 6 47 10 47 22 -1 33 -24 42 -90 10 -67 9
-76 -7 -88 -16 -12 -18 -10 -21 12 -3 26 -5 26 -88 26 l-84 0 0 -27 c0 -16 11
-122 25 -238 14 -115 25 -218 25 -227 0 -16 11 -18 80 -18 l80 0 0 45 c0 53
-40 24 369 267 l316 186 3 59 3 58 -368 114 c-202 62 -379 121 -393 131 -14 9
-29 31 -34 49 l-9 31 -78 0 c-60 0 -79 -3 -79 -14z m685 -408 c-11 -6 -114
-67 -228 -135 -115 -68 -212 -123 -218 -123 -5 0 -9 4 -9 9 0 11 92 71 111 71
8 1 88 43 179 95 91 52 170 94 175 94 6 0 1 -5 -10 -11z M15215 21415 c-26 -9
-67 -42 -119 -95 -43 -44 -80 -80 -83 -80 -8 0 -333 -283 -333 -291 0 -11
-186 -139 -203 -139 -13 0 -255 -152 -267 -168 -3 -4 -80 -45 -172 -92 -108
-55 -168 -91 -168 -100 0 -23 82 -100 106 -100 14 0 32 -23 68 -91 26 -49 47
-92 45 -93 -2 -2 -14 -9 -26 -15 -35 -18 -28 -42 28 -96 l50 -50 205 105 c113
58 222 116 243 130 20 14 74 49 119 79 45 30 82 61 82 70 0 8 -21 38 -47 65
l-48 49 50 -28 c28 -16 64 -37 80 -47 40 -24 54 -23 87 9 35 34 36 61 4 208
-14 60 -23 111 -21 113 1 1 15 -11 29 -29 19 -22 24 -35 17 -42 -6 -6 -11 -18
-11 -26 0 -19 79 -101 98 -101 8 0 74 52 147 115 73 63 137 115 143 115 14 0
211 209 222 235 5 11 38 52 74 92 36 39 66 77 66 85 0 22 -83 98 -107 98 -11
0 -26 -7 -33 -15 -7 -9 -29 -15 -51 -15 -36 0 -39 2 -48 38 -12 42 -61 95
-104 111 -38 14 -73 13 -122 -4z m-525 -910 c0 -14 -37 -2 -48 15 -12 20 -12
21 18 5 16 -8 30 -18 30 -20z M13234 19821 c-51 -31 -81 -79 -135 -216 -29
-71 -64 -143 -79 -160 -39 -43 -80 -111 -87 -145 -3 -17 -9 -30 -13 -30 -4 0
-47 -61 -95 -135 -57 -89 -85 -142 -82 -155 3 -13 -7 -28 -33 -49 -21 -16 -84
-97 -141 -178 -56 -81 -147 -206 -202 -276 -54 -70 -97 -132 -95 -136 8 -22
100 -111 115 -111 9 0 21 8 28 17 11 15 16 14 56 -17 24 -18 48 -37 53 -41 4
-4 -70 12 -165 37 -218 55 -219 55 -219 9 0 -26 -14 -57 -51 -113 -28 -42 -57
-81 -63 -87 -6 -5 -36 -41 -65 -80 -30 -38 -62 -77 -71 -85 -24 -22 -180 -236
-180 -247 0 -15 85 -93 101 -93 8 0 20 5 26 11 9 9 61 -2 202 -42 l191 -53 35
34 c42 40 43 58 10 115 l-26 43 52 -15 51 -15 39 38 c21 21 39 43 39 50 0 11
96 143 111 154 13 9 112 134 221 280 56 74 107 140 114 145 19 14 124 157 124
168 0 12 100 151 112 155 12 5 106 146 118 176 5 14 30 56 56 95 36 54 45 77
41 98 -4 24 2 33 37 58 55 41 106 139 106 205 0 48 1 49 32 52 32 3 34 6 91
143 86 207 137 338 137 353 0 9 -24 12 -89 12 -78 0 -89 -2 -94 -19 -3 -12
-16 -20 -36 -23 -28 -4 -34 -1 -47 24 -8 16 -29 38 -47 48 -43 27 -140 27
-183 1z m-39 -560 c28 -16 59 -38 69 -50 17 -19 17 -21 2 -21 -33 0 -146 70
-146 91 0 16 23 10 75 -20z M16333 18139 c-21 -22 -23 -22 -195 -10 -95 6
-194 14 -220 17 l-48 6 0 -61 0 -62 90 -119 c50 -66 85 -120 79 -120 -6 0 -84
32 -172 70 -156 68 -197 81 -197 60 0 -6 14 -38 31 -71 l30 -60 -25 -52 c-30
-59 -35 -141 -11 -186 14 -28 14 -29 -31 -57 -57 -36 -97 -96 -119 -178 -22
-80 -15 -137 25 -199 l29 -46 -36 -12 c-57 -19 -119 -88 -139 -155 -20 -71
-15 -172 12 -229 l20 -40 -98 3 c-118 5 -122 -2 -45 -75 41 -39 51 -55 46 -69
-4 -11 -8 -55 -8 -100 -1 -101 28 -167 99 -223 85 -67 197 -78 296 -30 119 57
172 256 102 381 l-24 43 35 30 c93 81 116 260 46 367 l-24 37 30 6 c43 10 105
69 137 129 20 41 26 66 26 125 l1 75 43 40 c30 27 42 46 40 61 -5 36 38 127
201 426 55 102 101 193 101 200 0 16 -80 99 -96 99 -5 0 -19 -10 -31 -21z
m-495 -875 c62 -30 68 -49 14 -41 -58 7 -132 43 -132 63 0 22 45 14 118 -22z
m-91 -461 c37 -17 35 -33 -4 -33 -40 0 -130 29 -145 47 -12 15 -7 15 52 9 36
-4 80 -14 97 -23z m-51 -365 c26 -49 2 -68 -87 -68 -47 0 -89 26 -89 55 0 18
35 41 78 50 20 4 32 13 32 23 0 20 46 -21 66 -60z M14340 14540 c0 -64 3 -80
15 -80 18 0 18 -8 4 -122 -12 -88 -12 -88 -40 -88 l-29 0 0 -75 c0 -87 -17
-77 170 -100 69 -9 168 -23 220 -31 52 -8 122 -17 155 -18 33 -2 93 -7 133
-11 l72 -8 0 82 c0 78 -1 81 -24 81 -20 0 -23 4 -19 28 13 81 14 80 66 -68
l52 -145 54 0 55 0 38 65 38 65 0 -79 0 -79 223 6 c179 5 256 12 397 36 351
60 330 51 330 136 l0 65 -30 0 c-20 0 -42 11 -66 33 -32 29 -35 36 -25 55 33
62 -2 174 -68 219 -44 30 -122 30 -268 2 -122 -24 -262 -23 -579 6 -178 15
-242 20 -389 31 -49 3 -110 12 -135 20 -45 14 -286 54 -327 54 -22 0 -23 -4
-23 -80z m1010 -380 c0 -36 -2 -40 -25 -40 l-26 0 23 40 c13 22 24 40 26 40 1
0 2 -18 2 -40z M12390 13185 c0 -8 -8 -15 -17 -15 -10 0 -101 -7 -203 -15
-102 -8 -188 -15 -192 -15 -5 0 -8 -25 -8 -55 l0 -55 118 -115 117 -115 -70
24 c-69 22 -70 23 -73 60 l-3 37 -67 -3 -67 -3 -37 -105 c-20 -58 -37 -115
-37 -126 -1 -14 15 -35 45 -59 50 -42 47 -54 -16 -55 -74 -1 -76 -3 -120 -134
-57 -172 -59 -166 44 -166 51 0 86 4 88 11 2 7 24 5 66 -7 34 -9 60 -19 59
-21 -4 -3 -301 -43 -324 -43 -9 0 -13 -18 -13 -58 l0 -58 92 -80 c50 -43 96
-82 102 -86 6 -4 8 -10 4 -13 -3 -3 -23 5 -43 20 -68 45 -170 23 -213 -47 -23
-37 -102 -303 -102 -342 0 -25 1 -26 70 -26 53 0 71 4 78 16 8 14 17 14 96 -8
47 -12 86 -27 86 -33 0 -5 -89 -26 -198 -45 l-197 -35 -3 -56 -3 -56 130 -98
c126 -93 130 -98 116 -118 -23 -34 -18 -64 15 -89 33 -24 41 -52 13 -44 -10 2
-45 10 -78 16 -96 18 -95 18 -95 56 l0 35 -72 -3 -73 -3 -33 -159 c-18 -87
-31 -165 -28 -172 4 -10 26 -14 82 -14 68 0 76 2 81 21 3 11 11 18 18 15 7 -2
33 -8 59 -11 25 -4 46 -10 46 -14 0 -4 -72 -27 -160 -51 l-160 -43 0 -56 1
-56 169 -109 c166 -105 170 -109 170 -142 l0 -35 73 3 72 3 13 100 c7 55 17
109 22 120 5 11 19 94 30 185 21 159 50 326 90 515 10 50 26 128 35 175 9 46
23 89 30 95 15 12 85 268 85 313 0 18 4 32 8 32 4 0 19 44 32 97 14 53 30 102
37 109 13 12 88 271 98 337 3 21 15 46 26 55 13 11 19 29 19 57 0 23 4 45 9
51 11 11 151 428 151 449 0 8 20 67 45 131 25 64 45 122 45 130 0 11 -19 14
-90 14 -73 0 -90 -3 -90 -15z M7750 21198 c0 -2 -16 -108 -35 -237 -19 -128
-35 -246 -35 -262 l0 -29 85 0 85 0 0 45 c0 25 3 45 8 45 11 0 473 -69 504
-76 25 -5 27 -9 30 -62 l3 -57 78 -3 c42 -2 77 -1 77 2 0 3 16 111 35 240 19
130 35 247 35 261 0 25 -1 25 -85 25 l-85 0 0 -45 0 -46 -32 6 c-40 7 -497 75
-503 75 -2 0 -5 26 -7 58 l-3 57 -77 3 c-43 2 -78 1 -78 0z m419 -308 c146
-22 266 -40 268 -40 2 0 3 -7 3 -15 0 -8 -6 -12 -12 -10 -13 5 -542 85 -559
85 -5 0 -9 7 -9 15 0 11 7 14 23 10 12 -3 141 -23 286 -45z M7770 20281 c-82
-27 -126 -69 -170 -162 -25 -54 -37 -106 -65 -290 -19 -123 -35 -239 -35 -256
l0 -33 85 0 85 0 0 49 0 50 33 -5 c17 -3 142 -23 277 -43 175 -27 244 -42 242
-51 -1 -6 -5 -32 -9 -56 l-6 -44 87 0 c47 0 86 4 86 9 0 4 16 110 35 234 19
124 35 237 35 251 0 26 0 26 -85 26 l-85 0 0 -45 c0 -52 3 -51 -101 -34 l-69
12 0 87 c0 52 -6 105 -16 132 -19 58 -75 123 -128 150 -44 23 -153 33 -196 19z
m146 -172 c31 -29 30 -41 -2 -29 -14 6 -55 10 -91 10 -59 0 -64 2 -52 16 33
40 105 41 145 3z m-28 -185 c4 -4 -4 -4 -18 -1 -14 4 -35 7 -48 7 -13 0 -21 4
-18 9 6 9 73 -2 84 -15z m-13 -153 c77 -11 197 -28 268 -38 70 -9 127 -21 127
-25 0 -8 9 -9 -305 38 -132 19 -251 39 -265 45 -24 8 -23 9 5 4 17 -2 93 -13
170 -24z M7627 19150 c-95 -16 -168 -89 -206 -203 -16 -46 -90 -480 -91 -529
0 -5 41 -8 90 -8 l90 0 0 45 c0 29 4 45 13 45 16 0 508 -71 526 -76 10 -3 11
-14 6 -42 -17 -80 -20 -77 75 -77 l85 0 37 240 c20 132 37 250 37 263 1 21 -2
22 -84 22 l-85 0 0 -34 c0 -63 -2 -64 -88 -50 -42 7 -78 13 -78 13 -1 1 -3 45
-6 99 -6 114 -26 170 -85 229 -54 54 -146 78 -236 63z m101 -155 c12 -3 27
-15 33 -27 10 -18 8 -19 -13 -12 -12 4 -50 10 -83 14 l-60 7 35 16 c19 9 42
14 50 12 8 -2 25 -6 38 -10z m-23 -185 c17 -7 15 -9 -10 -8 -16 0 -41 4 -55 8
-23 7 -22 8 10 8 19 0 44 -3 55 -8z m140 -186 c246 -39 261 -42 252 -50 -8 -9
-577 80 -577 90 0 10 26 7 325 -40z M7262 17838 c-18 -117 -35 -237 -39 -265
l-6 -53 87 0 86 0 0 48 0 48 253 -38 c138 -21 262 -40 275 -43 19 -5 22 -12
22 -61 l0 -55 77 3 77 3 38 250 c20 138 35 256 33 263 -4 9 -27 12 -87 10
l-83 -3 -3 -46 -3 -45 -257 38 c-141 21 -263 41 -269 43 -8 3 -13 24 -13 60
l0 55 -78 0 -79 0 -31 -212z m448 -94 c235 -34 282 -45 269 -59 -5 -4 -537 71
-567 81 -22 7 -2 26 22 20 11 -2 136 -21 276 -42z M7080 17106 c0 -9 16 -49
36 -88 l36 -71 -23 -49 c-32 -69 -32 -192 0 -263 26 -59 80 -118 136 -148 58
-32 192 -31 253 0 l42 23 0 -45 c0 -25 4 -45 9 -45 5 0 98 -13 206 -30 109
-16 202 -27 207 -24 4 3 8 36 8 74 0 55 -3 71 -17 79 -17 9 -16 14 12 63 29
50 30 59 30 168 0 130 -12 165 -86 245 -53 58 -112 80 -209 80 -79 -1 -138
-22 -187 -68 l-23 -20 0 40 0 40 -157 21 c-273 37 -273 37 -273 18z m637 -197
c-21 -11 -63 -52 -97 -97 -128 -164 -168 -202 -215 -202 -17 0 -15 5 13 26 18
14 66 70 106 123 106 139 143 169 206 170 22 0 21 -2 -13 -20z m-293 -21 c-24
-40 -87 -119 -105 -132 -27 -18 -39 -13 -39 17 0 37 35 83 81 105 50 25 74 28
63 10z m412 -132 c18 -74 -55 -152 -161 -172 l-39 -7 39 54 c106 146 147 179
161 125z M6970 15971 c0 -50 4 -81 11 -83 8 -3 3 -20 -12 -48 -20 -38 -24 -59
-24 -140 0 -84 3 -101 27 -146 33 -62 76 -108 132 -136 63 -33 183 -32 254 3
l52 26 0 -47 0 -46 183 -27 c256 -38 237 -41 237 42 0 47 -4 72 -14 80 -12 10
-9 21 17 73 29 55 31 68 31 152 -1 70 -6 105 -24 150 -68 177 -269 240 -433
136 l-47 -30 0 35 c0 19 -3 35 -7 35 -5 0 -91 11 -192 25 -101 14 -185 25
-187 25 -2 0 -4 -36 -4 -79z m595 -123 c-34 -18 -86 -70 -132 -132 -64 -86
-98 -123 -139 -151 -54 -36 -77 -32 -31 6 21 17 71 75 111 128 98 129 135 160
186 160 24 0 24 0 5 -11z m-295 -26 c0 -12 -92 -123 -112 -136 -13 -8 -21 -7
-30 2 -21 21 24 94 75 120 44 23 67 27 67 14z m405 -125 c11 -18 12 -31 5 -57
-18 -62 -83 -111 -168 -125 l-44 -7 73 93 c99 128 108 134 134 96z M6866
15032 c-7 -12 -76 -463 -76 -497 0 -25 1 -25 85 -25 l85 0 0 46 c0 44 1 45 28
40 15 -3 135 -22 267 -42 131 -19 243 -38 247 -40 4 -3 8 -30 8 -60 l0 -54 75
0 74 0 6 33 c19 107 65 436 65 464 l0 33 -85 0 -85 0 0 -45 c0 -25 -4 -45 -10
-45 -12 0 -479 69 -507 75 -19 5 -22 13 -25 63 l-3 57 -72 3 c-39 2 -74 -1
-77 -6z m394 -302 c145 -22 270 -40 277 -40 7 0 13 -7 13 -15 0 -11 -7 -14
-22 -10 -13 3 -131 21 -263 40 -286 42 -295 44 -295 56 0 13 0 13 290 -31z
M6640 14084 c0 -11 17 -50 38 -89 l37 -70 -24 -47 c-18 -36 -24 -66 -25 -120
-1 -93 16 -152 63 -214 75 -100 219 -137 335 -85 27 11 50 21 52 21 2 0 4 -18
4 -40 0 -33 4 -40 23 -45 40 -8 366 -55 387 -55 18 0 20 6 20 67 0 45 -5 72
-15 83 -14 16 -13 23 15 81 53 113 39 271 -35 371 -51 70 -111 100 -205 106
-88 5 -134 -7 -197 -50 l-43 -29 0 35 c0 42 13 38 -205 66 -88 12 -175 23
-192 26 -28 5 -33 3 -33 -12z m630 -202 c-35 -24 -65 -56 -125 -137 -70 -92
-124 -143 -165 -155 -45 -13 -47 -7 -8 20 18 12 71 72 118 133 89 117 136 157
179 156 l26 0 -25 -17z m-326 -75 c-69 -92 -104 -109 -104 -51 0 33 56 92 105
109 22 7 42 12 43 10 2 -2 -18 -33 -44 -68z m444 -59 c26 -26 7 -91 -40 -135
-29 -27 -89 -53 -123 -53 -24 0 -22 4 41 88 85 112 99 123 122 100z M6480
13020 c0 -6 18 -45 39 -88 l39 -77 -22 -40 c-17 -33 -21 -57 -21 -140 0 -89 3
-106 27 -151 33 -63 91 -116 151 -139 63 -24 176 -18 235 12 l42 23 0 -44 c0
-40 3 -45 28 -50 32 -7 370 -56 383 -56 15 0 11 131 -5 149 -13 14 -11 24 17
80 29 59 32 73 32 160 0 85 -3 103 -27 152 -59 120 -135 168 -264 169 -89 0
-133 -13 -182 -55 l-31 -26 -3 38 -3 38 -200 27 c-230 31 -235 32 -235 18z
m618 -220 c-26 -22 -79 -83 -117 -135 -75 -99 -129 -145 -171 -145 -24 0 -24
1 7 21 18 11 64 62 101 112 81 108 126 154 167 173 55 25 60 14 13 -26z m-290
-37 c-42 -59 -92 -113 -106 -113 -37 0 -11 85 36 118 77 56 111 53 70 -5z
m431 -95 c17 -46 -22 -119 -78 -148 -39 -20 -111 -36 -111 -26 0 4 23 37 51
74 97 126 122 144 138 100z M6420 12003 c0 -5 -16 -111 -35 -238 -19 -126 -35
-242 -35 -257 l0 -28 85 0 85 0 0 45 c0 40 2 45 23 44 12 0 132 -17 267 -37
l245 -37 3 -58 3 -57 79 0 c78 0 78 0 84 28 14 65 66 438 66 469 l0 34 -82 -3
-83 -3 -3 -48 c-2 -33 -7 -47 -15 -44 -7 2 -128 21 -269 42 l-258 39 0 58 0
58 -80 0 c-44 0 -80 -3 -80 -7z m427 -302 c238 -35 274 -43 261 -56 -3 -3
-134 13 -292 37 -207 31 -286 46 -286 56 0 9 9 11 33 7 17 -3 146 -23 284 -44z
M6280 11121 c0 -5 -11 -91 -25 -191 -14 -100 -25 -190 -25 -200 0 -13 48 -46
166 -116 133 -78 163 -99 148 -106 -10 -4 -98 -28 -195 -54 l-176 -46 -27
-206 c-14 -114 -26 -213 -26 -219 0 -9 24 -13 85 -13 l85 0 0 48 0 48 243 -33
c133 -18 257 -36 275 -39 32 -5 32 -6 32 -59 l0 -55 75 0 c69 0 75 2 80 23 9
41 55 336 55 356 0 18 -7 21 -42 22 l-43 1 53 16 52 15 0 62 0 63 -42 26 -43
25 47 1 c55 0 45 -32 92 290 19 129 31 239 27 243 -4 4 -43 7 -87 5 l-79 -3
-3 -48 c-3 -40 -6 -47 -20 -43 -9 3 -131 22 -269 42 l-253 38 0 58 0 58 -80 0
c-44 0 -80 -4 -80 -9z m427 -300 c239 -35 274 -43 261 -57 -3 -3 -128 13 -277
35 -149 23 -276 41 -281 41 -6 0 -10 7 -10 15 0 10 8 13 28 9 15 -3 141 -22
279 -43z m157 -201 c33 -5 61 -12 63 -14 2 -2 3 -22 1 -43 l-3 -40 -95 59
c-102 64 -104 62 34 38z m-50 -208 c3 -5 -108 -39 -246 -75 -223 -58 -273 -69
-257 -53 4 4 474 133 491 135 4 1 9 -3 12 -7z m66 -186 c0 -19 -4 -37 -9 -40
-11 -7 -182 16 -175 23 6 6 149 48 172 50 7 1 12 -12 12 -33z M19576 18121
c-16 -11 -35 -30 -42 -43 -18 -32 -17 -89 2 -117 27 -37 3 -50 -45 -23 -53 30
-140 30 -189 0 -61 -38 -72 -77 -72 -280 l0 -178 75 0 c74 0 75 0 75 25 l0 26
113 -3 c108 -3 112 -4 115 -25 3 -22 8 -23 83 -23 l79 0 0 165 c0 138 -3 167
-15 171 -21 8 -20 96 1 151 21 55 12 101 -27 141 -26 27 -39 32 -78 32 -29 0
-57 -7 -75 -19z M19650 16088 c0 -21 -20 -30 -188 -89 l-187 -66 0 -58 0 -58
92 -51 c51 -28 91 -51 90 -52 -1 -1 -60 7 -132 17 -211 30 -219 26 -136 -55
43 -43 48 -52 40 -73 -14 -37 -11 -131 6 -162 13 -27 13 -30 -16 -57 -61 -58
-94 -170 -82 -274 3 -29 2 -50 -4 -50 -5 0 -28 -16 -51 -35 -52 -45 -102 -143
-102 -202 0 -37 -4 -45 -24 -53 -13 -5 -39 -22 -59 -39 -38 -34 -187 -214
-187 -227 0 -4 8 -16 17 -26 13 -15 2 -12 -47 11 -69 33 -100 39 -100 19 0 -7
23 -84 51 -171 28 -88 48 -165 46 -172 -3 -6 -26 -18 -51 -25 -52 -14 -53 -20
-31 -94 8 -26 12 -53 9 -58 -6 -9 -104 127 -104 144 0 4 9 10 20 13 11 3 20
14 20 24 0 22 -91 111 -114 111 -10 0 -70 -34 -133 -75 -62 -41 -120 -75 -128
-75 -9 0 -79 -32 -158 -72 -121 -61 -152 -73 -207 -78 l-65 -5 -6 -35 c-4 -19
-7 -29 -8 -22 0 6 -10 12 -22 12 -24 0 -430 -120 -443 -131 -8 -7 1 -52 35
-181 l10 -38 64 0 64 0 10 -37 c7 -25 7 -39 1 -41 -11 -4 -14 -182 -4 -182 26
0 281 70 374 103 63 22 169 59 235 82 162 57 431 192 592 298 72 48 141 87
153 87 13 0 73 48 158 128 76 70 159 146 185 168 26 23 47 46 47 52 0 6 27 43
60 82 33 40 60 82 60 94 0 22 -65 92 -105 114 -16 9 -6 11 53 12 86 0 125 14
182 67 59 52 90 121 90 200 0 34 -4 73 -10 87 -8 21 -6 26 11 31 89 29 168
189 150 305 l-7 46 33 -4 33 -4 0 53 c0 30 7 72 15 94 8 22 14 66 15 98 0 31
4 57 9 57 9 0 17 88 26 260 2 41 7 121 11 178 l7 102 -82 0 c-77 0 -81 -1 -81
-22z m-241 -884 c68 -19 100 -39 84 -55 -22 -22 -183 37 -168 61 8 13 20 13
84 -6z m-153 -390 c23 -13 49 -33 59 -44 18 -20 18 -20 -28 -4 -51 17 -142 90
-97 78 14 -4 43 -17 66 -30z m-957 -852 c-22 -4 -25 -35 -8 -96 7 -26 7 -42 1
-48 -7 -7 -24 16 -51 70 -44 88 -44 91 19 102 25 4 38 1 47 -10 9 -12 8 -16
-8 -18z m-305 -128 c5 -14 4 -15 -9 -4 -17 14 -19 20 -6 20 5 0 12 -7 15 -16z
m-285 -186 c0 -13 -4 -41 -8 -63 l-8 -40 -12 45 c-7 25 -14 53 -17 63 -4 13 1
17 20 17 20 0 26 -5 25 -22z M10027 15413 c-4 -3 -7 -17 -7 -31 0 -13 -12 -38
-27 -56 -27 -30 -30 -30 -63 -19 -66 24 -162 -7 -205 -65 -31 -42 -31 -142 0
-297 40 -196 54 -302 55 -390 0 -133 29 -446 47 -505 13 -45 16 -95 14 -275
-1 -121 1 -244 5 -272 l6 -53 74 0 74 0 0 29 0 28 95 7 c103 8 115 5 115 -25
0 -17 7 -19 80 -19 l81 0 -6 198 c-4 108 -13 272 -21 363 -8 92 -14 169 -14
173 0 3 -34 6 -75 6 l-75 0 0 -30 c0 -35 -19 -43 -100 -38 l-53 3 146 80 147
79 0 56 0 56 -151 49 c-151 50 -151 50 -108 57 74 11 86 9 92 -12 5 -18 14
-20 86 -20 45 0 81 3 81 7 0 30 -52 416 -60 445 -13 45 -46 216 -70 363 -11
61 -19 111 -19 113 -2 5 -138 1 -144 -5z M9830 11310 c-103 -57 -123 -78 -101
-104 9 -10 7 -15 -6 -19 -35 -10 -183 -127 -183 -144 0 -10 53 -85 119 -166
l118 -149 46 -171 c40 -150 46 -189 51 -304 5 -127 5 -133 -14 -133 -26 0 -25
-10 9 -78 26 -53 28 -63 23 -147 -3 -68 0 -100 11 -128 15 -35 15 -37 -2 -37
-16 0 -19 -12 -25 -92 -3 -50 -6 -128 -6 -172 0 -45 -5 -100 -10 -122 -5 -23
-11 -140 -12 -260 l-3 -219 52 -25 c29 -14 52 -27 53 -30 0 -3 -24 -14 -54
-24 l-54 -19 -7 -72 c-3 -40 -6 -110 -4 -156 1 -46 -3 -96 -9 -111 -27 -67
-25 -177 5 -254 3 -8 -1 -14 -9 -14 -20 0 -28 -98 -28 -322 l0 -168 120 0 120
0 0 60 0 60 60 0 c57 0 60 -1 60 -25 0 -24 2 -25 74 -25 l73 0 7 92 c3 50 6
126 6 170 l0 78 -41 0 -42 0 28 22 c48 38 75 111 75 206 0 50 -6 96 -14 117
-12 28 -12 35 -2 35 15 0 26 63 26 154 0 34 5 67 10 72 12 12 27 336 26 541
-1 79 2 144 6 145 4 2 11 78 14 171 5 125 4 167 -5 167 -8 0 -6 11 6 33 24 46
30 211 10 271 -11 32 -12 46 -4 49 14 4 -9 304 -28 359 -7 21 -9 38 -4 38 5 0
9 11 9 24 0 21 -105 435 -112 441 -2 2 -58 -4 -125 -13 -115 -15 -123 -17
-123 -38 0 -17 -7 -23 -32 -27 -18 -2 -34 -3 -36 -2 -2 1 27 26 63 55 62 48
68 50 84 36 10 -9 24 -16 32 -16 19 0 99 81 99 101 0 20 -262 343 -280 346 -8
0 -62 -25 -120 -57z m280 -1405 c0 -54 0 -55 -25 -43 -32 15 -40 43 -21 73 29
43 46 32 46 -30z m37 -1576 c25 -9 26 -12 11 -20 -44 -25 -217 -3 -177 22 20
12 132 11 166 -2z M13810 7405 l0 -85 50 0 50 0 0 -222 c0 -123 -3 -247 -6
-275 l-7 -53 -48 0 -49 0 0 -79 0 -78 92 -7 c50 -3 171 -6 270 -6 l178 0 0 80
0 80 -55 0 -55 0 0 85 c0 47 4 85 9 85 12 0 31 -56 31 -91 0 -55 6 -59 85 -59
89 0 85 -9 85 193 l0 147 70 0 70 0 0 96 c0 69 3 95 12 92 9 -3 11 -73 9 -273
-1 -148 -5 -273 -7 -277 -3 -5 -27 -8 -55 -8 l-49 0 0 -79 0 -78 396 -7 c305
-6 399 -5 404 4 4 7 11 44 14 84 12 123 13 124 55 64 81 -116 187 -168 358
-176 130 -5 214 14 297 69 81 54 155 161 182 264 16 59 18 192 3 254 -37 163
-170 289 -338 321 -299 57 -542 -96 -580 -364 -9 -64 -14 -73 -59 -120 -33
-34 -55 -68 -66 -102 -10 -29 -31 -64 -51 -84 -30 -29 -41 -33 -103 -38 -62
-4 -70 -2 -74 13 -1 10 -2 132 0 272 l3 253 59 0 60 0 0 79 0 78 -142 7 c-131
6 -906 25 -1040 26 l-58 0 0 -85z m270 -360 c0 -268 -2 -295 -17 -295 -14 0
-15 14 -10 143 4 78 7 211 7 295 0 94 4 152 10 152 6 0 10 -105 10 -295z m706
244 c-3 -17 -6 -150 -6 -294 0 -261 0 -263 -21 -258 -12 4 -18 11 -15 20 3 8
6 138 6 289 0 273 0 274 21 274 19 0 21 -4 15 -31z m1007 0 c82 -37 110 -268
55 -452 -17 -58 -50 -87 -96 -87 -42 0 -66 19 -98 80 -16 30 -19 58 -19 180 0
141 1 147 30 205 38 77 75 98 128 74z m-1509 -26 c-12 -58 -26 -92 -40 -103
-12 -11 -14 -2 -14 59 l0 71 30 0 c28 0 30 -2 24 -27z m1205 -93 c-12 -56 -8
-310 6 -345 4 -11 -4 -4 -17 15 -47 66 -66 169 -49 251 11 51 58 146 67 136 2
-2 -1 -28 -7 -57z m569 -121 c3 -55 0 -91 -13 -128 -19 -60 -41 -81 -30 -30 9
39 9 260 0 292 -3 12 4 4 16 -18 16 -28 24 -63 27 -116z M16152 7383 l3 -78
53 -3 52 -3 0 -132 c0 -73 -3 -196 -7 -274 l-6 -143 -49 0 -48 0 0 -85 0 -85
143 0 c79 0 199 -3 265 -7 l122 -6 0 33 0 33 31 -43 31 -43 332 8 c274 6 373
4 563 -10 218 -17 233 -17 309 -1 217 48 326 154 356 349 31 205 -55 402 -211
482 -90 45 -154 53 -471 59 -162 4 -373 9 -467 12 l-173 6 0 -86 0 -86 50 0
50 0 0 -275 0 -275 -34 0 c-32 0 -39 7 -108 103 l-73 102 47 47 c91 92 101
228 24 343 -28 42 -48 60 -99 85 -55 27 -80 32 -183 40 -65 5 -206 10 -312 10
l-193 0 3 -77z m275 -240 c-4 -91 -7 -222 -7 -290 0 -75 -4 -123 -10 -123 -12
0 -13 106 -3 383 4 120 10 197 16 197 7 0 8 -58 4 -167z m833 -143 l0 -290
-21 0 c-21 0 -22 3 -15 92 3 50 6 180 6 290 0 169 2 198 15 198 13 0 15 -39
15 -290z m440 -10 l0 -300 -21 0 c-21 0 -22 3 -15 92 3 50 6 185 6 300 0 178
2 208 15 208 13 0 15 -40 15 -300z m-1087 279 c30 -16 37 -28 37 -71 0 -51
-18 -85 -47 -93 -14 -3 -27 -5 -28 -3 -5 5 7 178 12 178 2 0 14 -5 26 -11z
m907 -258 c0 -143 -3 -266 -6 -275 -5 -12 -20 -16 -62 -16 l-55 0 6 107 c4 58
7 182 7 275 l0 168 55 0 55 0 0 -259z m413 159 c19 -39 22 -61 22 -170 0 -117
-2 -129 -29 -183 -24 -51 -67 -90 -80 -76 -2 2 -1 117 2 256 l5 252 29 -17
c15 -9 38 -37 51 -62z m-1103 24 c14 -41 2 -80 -33 -111 -20 -18 -20 -17 -12
2 4 11 10 50 13 87 5 73 14 79 32 22z m1316 -130 c21 -75 14 -158 -20 -229
-37 -75 -59 -92 -39 -28 17 52 24 281 10 343 l-7 35 19 -32 c11 -18 28 -58 37
-89z m-1440 -174 c109 -151 134 -190 126 -190 -8 0 -172 231 -181 255 -6 17
13 -5 55 -65z m-106 -142 c0 -5 -7 -8 -15 -8 -10 0 -15 10 -15 27 0 26 1 26
15 7 8 -10 15 -22 15 -26z M18663 7438 c-5 -7 -80 -166 -167 -353 -87 -187
-165 -348 -174 -358 -8 -9 -33 -20 -54 -23 l-38 -7 0 -78 0 -79 200 0 200 0 0
80 0 80 -27 0 c-37 0 -57 14 -50 34 5 13 22 16 86 16 69 0 82 -3 91 -19 15
-29 13 -31 -25 -31 l-35 0 0 -85 0 -85 173 0 c96 0 208 -3 250 -6 l77 -7 0 75
0 74 -35 17 c-18 9 -41 27 -49 39 -8 13 -78 172 -154 354 -77 182 -145 340
-151 352 -10 18 -21 22 -60 22 -27 0 -53 -6 -58 -12z m158 -494 c55 -131 103
-245 106 -251 3 -7 0 -13 -6 -13 -6 0 -11 7 -11 15 0 8 -18 54 -39 102 -42 94
-161 382 -161 391 0 15 18 -25 111 -244z M15034 5232 c-81 -64 -153 -176 -169
-265 -4 -22 -17 -39 -40 -54 l-34 -22 -34 34 c-31 31 -41 35 -89 35 -45 0 -62
-6 -108 -36 -77 -52 -108 -82 -135 -134 -52 -103 -69 -234 -44 -335 9 -35 16
-45 33 -45 11 -1 54 -3 94 -6 65 -5 77 -3 115 19 53 32 108 89 141 147 25 44
26 44 26 15 0 -44 -43 -204 -69 -252 -43 -84 -134 -95 -212 -26 -26 22 -84 7
-114 -29 -41 -49 -28 -134 27 -172 42 -30 248 -12 324 27 49 25 143 116 164
158 54 104 99 267 116 417 5 52 10 62 26 62 27 0 98 38 105 56 3 10 -8 30 -31
53 -20 20 -36 42 -36 49 0 7 -4 12 -10 12 -15 0 -12 53 6 95 12 29 19 35 32
29 9 -4 42 -10 73 -12 l56 -4 7 60 c4 32 4 77 0 100 -7 44 -15 48 -120 59 -47
4 -53 2 -100 -35z m-446 -554 c-5 -29 -12 -55 -15 -58 -6 -6 7 91 14 103 10
16 10 5 1 -45z M14077 5223 c-25 -25 -37 -32 -37 -22 0 36 -35 52 -108 47 -84
-4 -126 -29 -179 -105 -61 -89 -123 -366 -123 -557 0 -51 -2 -57 -15 -46 -12
10 -15 46 -15 206 0 168 -2 194 -15 194 -9 0 -55 -29 -102 -65 l-87 -65 -26
25 c-38 36 -110 36 -139 -1 -12 -15 -21 -33 -21 -41 0 -31 -52 -81 -110 -107
-61 -28 -173 -56 -223 -56 l-28 0 3 -82 3 -83 35 2 c59 3 69 -39 14 -62 -32
-13 -39 -13 -65 0 -47 25 -71 84 -72 184 -2 102 16 149 70 181 48 28 71 25 91
-10 14 -25 23 -30 55 -30 50 0 115 58 123 110 9 55 -17 107 -63 127 -53 22
-191 14 -257 -15 -105 -47 -188 -148 -228 -276 -40 -131 -11 -301 66 -393 37
-44 119 -83 175 -83 92 1 220 61 313 148 l48 45 0 -45 c0 -59 38 -98 96 -98
42 0 96 27 116 59 12 19 12 19 41 -5 19 -16 41 -24 68 -24 34 0 45 7 94 56
l56 57 24 -23 c20 -19 32 -22 75 -18 45 5 58 11 101 54 47 46 49 47 49 22 0
-38 -37 -150 -59 -175 -38 -46 -121 -57 -164 -23 -38 30 -92 26 -128 -9 -23
-24 -29 -38 -29 -74 0 -64 34 -103 98 -113 69 -10 208 12 259 42 53 31 139
132 169 199 31 68 60 205 75 353 9 91 15 122 26 122 7 0 26 8 41 17 40 24 162
145 162 160 0 10 -25 13 -96 13 l-96 0 7 43 c11 70 15 79 33 72 10 -4 35 -9
58 -12 36 -5 44 -2 62 22 16 20 22 41 22 79 -1 53 -17 83 -57 105 -29 15 -80
14 -86 -1 -4 -10 -7 -10 -18 0 -22 20 -42 14 -82 -25z m-112 -207 c-4 -11 -11
-39 -16 -61 -7 -29 -19 -46 -44 -63 -19 -12 -35 -20 -35 -18 0 8 30 151 34
162 2 6 18 9 36 6 27 -4 31 -8 25 -26z m-65 -353 c0 -65 0 -66 -20 -48 -15 13
-20 31 -20 67 0 41 3 48 20 48 18 0 20 -7 20 -67z m-739 -198 l-9 -40 -1 46
c-1 25 2 49 7 53 12 12 13 -16 3 -59z M15550 5175 l-24 -65 -58 0 -58 0 -30
-60 c-39 -78 -38 -86 9 -94 l39 -6 -14 -47 c-8 -27 -38 -112 -66 -190 l-51
-143 -41 0 c-63 0 -67 -7 -64 -91 l3 -74 175 -7 c133 -6 176 -5 182 5 6 9 8 9
8 -2 0 -10 10 -12 40 -7 25 4 40 2 40 -4 0 -21 30 -9 46 20 25 41 50 50 29 10
-8 -16 -15 -33 -15 -38 0 -5 79 -11 175 -14 163 -5 177 -6 196 -26 11 -12 31
-25 45 -28 32 -8 138 2 163 16 14 7 23 4 37 -12 46 -51 135 -59 189 -17 l25
20 11 -24 c22 -49 93 -61 158 -27 38 19 39 19 56 0 26 -29 89 -26 144 5 24 14
45 24 45 23 1 -2 7 -15 14 -31 32 -75 148 -87 245 -27 28 18 53 28 54 23 34
-96 142 -126 254 -70 89 43 144 98 185 184 31 65 37 90 41 169 6 92 6 93 -23
118 -78 70 -151 74 -254 13 -34 -20 -63 -37 -66 -37 -2 0 -4 18 -4 39 0 55
-34 81 -106 81 -66 0 -125 -25 -196 -83 l-55 -45 5 72 c3 45 11 80 22 96 10
14 21 42 25 62 19 100 -131 158 -199 77 -28 -33 -36 -102 -16 -139 13 -24 -16
-36 -39 -16 -26 23 -75 28 -120 13 -41 -15 -42 -15 -56 13 -8 15 -22 30 -30
34 -32 12 -101 6 -125 -11 -17 -12 -25 -13 -28 -5 -7 22 -60 42 -110 42 -91 0
-208 -80 -263 -180 l-20 -35 5 66 c3 36 10 96 17 133 12 66 13 66 46 66 31 0
35 5 68 70 19 38 35 74 35 80 0 6 -60 10 -168 10 l-168 0 -26 -58 c-36 -76
-161 -268 -166 -253 -2 6 -11 82 -20 169 l-17 157 -32 3 c-31 3 -32 5 -38 60
-4 31 -8 63 -10 70 -10 29 -32 7 -55 -53z m-11 -602 c1 -15 -5 -23 -15 -23
-12 0 -15 6 -10 23 3 12 6 31 7 42 l0 20 9 -20 c5 -11 9 -30 9 -42z m303 10
c-3 -36 -7 -41 -32 -45 -19 -3 -27 -1 -22 6 22 35 57 84 58 83 0 -1 -1 -21 -4
-44z m612 8 c17 -19 17 -21 0 -50 -21 -36 -34 -38 -59 -11 -10 11 -30 20 -44
21 -23 0 -21 3 15 19 23 10 45 23 48 29 10 16 21 14 40 -8z m305 -60 c-13 -44
-20 -49 -38 -27 -9 11 -6 21 15 45 15 18 28 30 31 27 2 -2 -1 -22 -8 -45z
m551 15 c0 -2 -9 -24 -20 -50 -19 -42 -24 -46 -57 -46 -21 0 -45 -8 -56 -17
-19 -17 -19 -17 -14 2 3 11 11 39 17 62 10 41 12 42 58 46 26 2 53 4 60 5 6 1
12 0 12 -2z m214 -43 c-4 -16 -18 -48 -31 -73 -23 -45 -23 -45 -17 -10 6 35
40 110 49 110 3 0 2 -12 -1 -27z"/>
</g>
</svg>
