<?xml version="1.0" standalone="no"?>
<!DOCTYPE svg PUBLIC "-//W3C//DTD SVG 20010904//EN"
 "http://www.w3.org/TR/2001/REC-SVG-20010904/DTD/svg10.dtd">
<svg version="1.0" xmlns="http://www.w3.org/2000/svg"
 width="3000.000000pt" height="3000.000000pt" viewBox="0 0 3000.000000 3000.000000"
 preserveAspectRatio="xMidYMid meet">
<metadata>
Created by potrace 1.16, written by Peter Selinger 2001-2019
</metadata>
<g transform="translate(0.000000,3000.000000) scale(0.100000,-0.100000)"
fill="#000000" stroke="none">
<path d="M14285 29979 c-343 -16 -724 -52 -1065 -100 -3182 -444 -6091 -1806
-8390 -3928 -206 -190 -707 -695 -891 -897 -782 -861 -1419 -1744 -2004 -2779
-209 -368 -526 -1012 -705 -1430 -616 -1436 -1021 -3057 -1160 -4640 -58 -663
-66 -1586 -19 -2195 66 -864 251 -1961 480 -2850 508 -1973 1353 -3707 2568
-5270 736 -948 1678 -1898 2651 -2677 1182 -945 2429 -1673 3780 -2208 1339
-530 2777 -861 4300 -990 246 -21 1010 -21 1010 -1 0 18 -56 23 -330 31 -1038
29 -2273 213 -3352 500 -1726 460 -3323 1224 -4793 2294 -1041 758 -2063 1715
-2886 2701 -1846 2214 -2915 4772 -3303 7905 -182 1467 -92 3086 260 4680 289
1308 734 2534 1342 3700 901 1729 2110 3243 3594 4502 655 555 1405 1085 2153
1520 537 313 1136 613 1710 858 1298 553 2735 944 4135 1124 1022 132 2131
127 3280 -15 1828 -225 3622 -765 5150 -1551 2470 -1270 4488 -3126 5932
-5453 1329 -2143 2112 -4679 2218 -7190 18 -432 20 -460 36 -460 24 0 19 770
-6 1070 -134 1557 -506 3077 -1101 4507 -1138 2734 -3039 5042 -5509 6690
-478 319 -914 577 -1445 856 -1880 985 -4191 1595 -6428 1697 -257 11 -968 11
-1212 -1z M16020 29779 c-295 -23 -660 -147 -865 -293 -27 -20 -139 -118 -247
-218 -167 -154 -198 -187 -198 -211 0 -15 6 -30 14 -33 7 -3 161 5 342 16 256
17 381 21 564 17 262 -7 356 -21 429 -64 114 -68 198 -85 426 -85 359 0 648
76 861 225 109 76 294 163 294 139 0 -5 -61 -60 -135 -122 -144 -119 -185
-171 -185 -232 0 -99 98 -134 525 -188 365 -47 514 -79 627 -136 144 -72 360
-131 570 -153 145 -16 433 -14 557 5 122 18 276 66 408 129 110 52 143 81 143
127 0 47 -33 90 -122 156 -219 163 -371 211 -642 199 -198 -8 -333 -39 -661
-152 -11 -4 -2 8 20 27 78 64 157 143 171 170 8 15 14 41 14 57 0 122 -109
157 -840 271 -179 28 -435 72 -570 97 -135 24 -283 51 -330 60 -126 23 -356
13 -470 -20 -115 -33 -209 -74 -318 -140 l-92 -55 29 42 c58 85 91 163 91 217
0 44 -4 55 -33 84 -57 57 -185 79 -377 64z m273 -87 c57 -25 71 -44 63 -86 -7
-36 -77 -150 -146 -238 -32 -39 -40 -58 -38 -82 3 -30 5 -31 48 -30 38 0 65
12 170 76 151 91 184 108 280 142 201 72 347 76 655 16 187 -36 377 -68 1060
-179 300 -49 465 -99 473 -144 5 -26 -79 -108 -250 -245 -137 -109 -158 -129
-158 -154 0 -25 3 -28 33 -28 18 0 94 25 169 55 197 79 350 130 485 161 105
25 137 28 293 29 190 0 257 -13 375 -72 62 -32 193 -123 243 -170 l37 -35 -30
-24 c-17 -13 -84 -46 -150 -73 -217 -90 -346 -114 -595 -114 -306 -1 -586 55
-788 157 -120 60 -261 92 -612 137 -351 45 -500 80 -516 124 -10 24 37 77 144
163 138 112 192 173 192 215 0 45 -15 57 -72 57 -84 0 -216 -58 -372 -165 -53
-36 -128 -79 -165 -95 -296 -126 -836 -156 -986 -55 -19 14 -49 32 -65 40 -94
48 -491 67 -905 41 -148 -9 -284 -18 -302 -20 -28 -4 -13 12 125 141 193 180
248 221 387 288 326 158 761 236 918 167z M14600 29759 c-236 -23 -444 -115
-645 -285 -122 -103 -388 -353 -433 -405 -65 -78 -67 -122 -8 -143 19 -7 67
-2 179 18 317 58 431 76 550 85 160 13 246 43 425 153 90 54 155 106 408 325
189 163 215 188 212 211 -3 22 -9 28 -43 33 -67 11 -554 17 -645 8z m437 -68
l131 -6 -205 -175 c-230 -197 -315 -258 -452 -329 -110 -56 -186 -81 -247 -81
-86 0 -533 -70 -682 -107 -44 -11 -10 28 197 218 244 226 368 323 494 384 194
94 363 116 764 96z M13470 29735 c-105 -18 -190 -41 -300 -82 -233 -87 -436
-248 -792 -631 -165 -178 -198 -218 -198 -243 0 -16 6 -32 14 -35 17 -6 564
89 672 117 413 108 882 409 998 639 48 97 50 159 6 200 -18 17 -50 33 -81 39
-65 14 -225 12 -319 -4z m336 -80 c14 -9 24 -25 24 -38 0 -76 -145 -245 -308
-361 -188 -133 -439 -256 -646 -316 -95 -28 -554 -116 -562 -108 -5 6 293 324
382 407 251 235 432 341 694 407 166 43 359 47 416 9z M12118 29489 c-178 -26
-331 -103 -507 -253 -137 -118 -423 -443 -492 -561 -42 -71 -38 -123 11 -147
47 -24 151 -23 260 1 274 62 696 271 901 448 31 26 145 140 253 252 179 185
197 207 194 235 l-3 31 -280 1 c-154 1 -306 -2 -337 -7z m377 -201 c-216 -224
-271 -274 -405 -363 -274 -184 -672 -345 -849 -345 -87 0 -90 7 -41 81 52 76
171 218 294 353 212 230 403 357 601 399 50 11 137 16 304 16 l235 1 -139
-142z M10917 29206 c-189 -68 -384 -212 -675 -500 l-223 -221 42 88 c45 94 59
169 39 206 -19 36 -70 51 -174 51 -216 0 -418 -79 -623 -245 -130 -104 -235
-233 -353 -433 -23 -40 -44 -71 -46 -69 -2 2 2 26 10 53 24 81 29 140 16 179
-20 62 -77 70 -211 30 -243 -71 -401 -154 -544 -287 -110 -103 -178 -194 -270
-363 -42 -77 -89 -157 -105 -178 l-28 -38 -7 65 c-8 80 -39 144 -84 173 -48
32 -154 32 -234 -1 -171 -71 -344 -226 -487 -436 -84 -124 -126 -215 -185
-395 -58 -176 -51 -175 -75 -15 -13 87 -53 183 -88 211 -70 55 -200 -10 -379
-189 -220 -220 -380 -472 -401 -629 l-8 -58 -16 30 c-18 34 -62 77 -95 94 -33
17 -127 13 -181 -7 -77 -30 -160 -92 -262 -198 -107 -112 -192 -233 -261 -374
-83 -167 -112 -277 -125 -470 l-7 -105 -21 80 c-45 168 -95 228 -190 228 -74
0 -142 -39 -241 -139 -314 -316 -453 -646 -472 -1119 -3 -88 -9 -170 -12 -183
-4 -13 -27 97 -55 265 -27 158 -51 294 -53 301 -3 6 -19 12 -37 12 -29 -1 -43
-17 -201 -226 -204 -270 -243 -329 -306 -459 -142 -295 -153 -608 -28 -823 73
-128 193 -100 371 86 41 43 171 199 290 348 337 422 582 695 1038 1159 330
335 440 455 545 596 121 162 175 275 175 366 l0 43 38 -24 c49 -32 89 -39 147
-26 91 20 191 93 435 315 236 215 347 302 424 331 194 75 505 302 757 553 129
129 179 196 179 240 0 18 3 19 31 9 161 -56 653 159 952 416 99 86 111 92 297
147 160 48 338 115 630 237 278 115 555 226 783 311 312 117 465 208 632 376
81 81 117 129 189 245 116 188 136 232 136 297 0 79 -18 87 -190 91 -122 2
-141 0 -203 -22z m261 -45 c29 -4 57 -12 62 -17 24 -24 -171 -349 -277 -464
-83 -90 -214 -192 -331 -258 -100 -57 -128 -70 -348 -151 -182 -67 -520 -202
-793 -316 -260 -108 -447 -178 -592 -220 -170 -50 -214 -72 -311 -156 -216
-188 -608 -389 -793 -406 -52 -5 -68 -2 -113 21 -56 29 -82 32 -100 14 -15
-15 -15 -53 0 -78 19 -30 -4 -62 -157 -216 -249 -249 -555 -475 -730 -539 -36
-13 -86 -39 -113 -58 -58 -43 -261 -217 -406 -349 -59 -54 -134 -118 -166
-143 -64 -49 -163 -105 -187 -105 -31 0 -73 32 -122 95 -47 60 -55 66 -84 63
-29 -3 -32 -6 -35 -41 -2 -21 4 -62 12 -91 9 -30 16 -66 16 -80 0 -77 -106
-254 -267 -446 -48 -58 -221 -240 -383 -405 -401 -408 -661 -690 -903 -978
-46 -55 -57 -64 -57 -45 0 13 7 151 15 308 20 400 54 557 170 795 117 238 410
547 495 520 49 -16 95 -112 130 -270 24 -114 40 -145 74 -145 37 0 45 20 56
136 27 283 31 308 66 413 115 346 443 721 629 721 45 0 70 -17 105 -70 41 -62
72 -90 101 -90 39 0 51 22 59 111 6 67 15 95 53 173 108 217 385 530 543 613
46 24 54 25 69 13 40 -33 68 -134 85 -304 6 -55 15 -105 21 -113 6 -7 26 -13
44 -13 29 0 35 5 53 48 11 26 41 115 67 197 76 245 186 433 350 600 154 157
327 255 418 238 56 -11 97 -88 97 -183 0 -60 21 -90 65 -90 47 0 104 68 183
218 87 164 131 228 220 324 141 150 280 236 502 312 138 46 187 54 196 31 4
-9 -10 -85 -30 -168 -21 -84 -36 -165 -34 -182 3 -27 7 -30 40 -33 38 -3 38
-3 101 95 35 54 85 135 112 180 201 341 551 579 860 585 102 3 130 -10 121
-55 -3 -18 -26 -70 -50 -117 -53 -106 -70 -154 -62 -186 5 -20 12 -24 45 -24
24 0 49 8 67 22 16 12 130 121 254 243 276 272 425 388 607 472 108 50 171 60
281 44z m-7322 -5092 l67 -397 -129 -163 c-147 -187 -309 -357 -372 -388 -57
-29 -75 -18 -118 73 -103 217 -80 451 74 749 75 145 392 570 403 541 5 -10 38
-197 75 -415z M20371 28665 c-108 -24 -216 -63 -471 -173 -391 -168 -390 -167
-390 -196 0 -14 8 -29 18 -35 9 -5 181 -56 382 -115 598 -173 740 -227 889
-339 152 -114 536 -321 678 -366 144 -45 299 -46 469 -2 43 11 185 56 314 100
401 136 360 118 360 155 0 32 -1 33 -257 163 -284 145 -341 170 -470 206 -176
50 -250 61 -419 62 l-161 0 20 26 c53 73 23 170 -79 252 -63 52 -309 177 -434
222 -156 55 -312 69 -449 40z m379 -94 c52 -17 167 -67 255 -111 168 -83 252
-144 275 -200 11 -28 11 -34 -7 -58 -11 -15 -52 -43 -91 -62 -63 -31 -72 -38
-72 -63 0 -17 7 -30 17 -34 9 -4 87 0 172 8 226 22 374 6 606 -68 115 -36 600
-272 587 -285 -4 -4 -135 -50 -292 -102 -412 -138 -502 -149 -693 -85 -163 54
-520 248 -674 366 -126 96 -317 169 -833 319 -179 52 -332 97 -340 100 -9 3
33 26 100 55 562 244 614 261 790 255 86 -2 122 -9 200 -35z M13390 28164
c-227 -6 -484 -24 -554 -39 -96 -20 -116 -35 -116 -86 0 -37 6 -47 62 -102
105 -105 176 -286 231 -597 45 -249 59 -400 64 -707 6 -308 -3 -458 -37 -613
-35 -164 -66 -219 -159 -288 -31 -23 -40 -57 -25 -96 15 -40 222 -66 526 -66
270 0 462 31 590 96 58 30 78 57 78 110 0 53 -30 86 -108 120 -84 37 -85 38
-109 79 -47 83 -54 269 -25 593 l17 183 174 -293 c329 -553 395 -632 586 -701
132 -47 279 -64 830 -93 370 -19 640 -16 700 10 47 20 55 31 55 73 0 42 -35
83 -125 143 -158 107 -186 201 -90 308 52 58 138 106 226 127 127 30 376 12
504 -36 127 -47 187 -150 189 -324 1 -86 -3 -106 -22 -142 -18 -35 -29 -44
-65 -53 -23 -6 -50 -13 -60 -16 -9 -3 -24 -18 -32 -34 -35 -67 -4 -151 71
-191 135 -73 438 -113 686 -90 145 13 192 26 224 64 31 37 31 83 0 145 -74
147 -165 534 -336 1432 -77 407 -161 706 -236 850 -67 129 -131 180 -221 180
-71 -1 -127 -31 -212 -118 -141 -141 -287 -370 -551 -862 -261 -485 -460 -808
-630 -1018 -103 -129 -167 -182 -219 -182 -89 0 -240 120 -371 295 -89 120
-261 390 -312 492 -46 92 -51 138 -24 195 10 20 73 95 141 167 130 137 188
221 227 331 31 88 33 285 4 374 -41 123 -132 232 -225 267 -215 80 -764 127
-1321 113z m590 -74 c338 -19 608 -62 716 -115 126 -62 217 -262 194 -427 -21
-145 -74 -239 -231 -405 -153 -163 -179 -205 -179 -296 0 -106 35 -179 238
-492 160 -246 299 -400 417 -460 59 -29 149 -44 198 -31 43 10 126 86 211 193
180 224 357 509 621 998 92 171 199 364 238 430 206 352 383 555 482 555 71 0
155 -117 223 -312 46 -128 115 -415 167 -685 25 -131 64 -332 86 -448 83 -433
183 -832 241 -958 29 -64 30 -68 14 -86 -26 -28 -96 -42 -241 -48 -292 -12
-590 56 -618 141 -8 24 -6 32 9 43 10 7 28 13 41 13 117 0 175 212 118 430
-49 186 -202 264 -540 277 -162 6 -247 -8 -348 -56 -177 -84 -250 -235 -183
-376 26 -56 51 -80 146 -147 36 -25 73 -55 83 -66 18 -20 18 -20 -40 -32 -72
-16 -508 -8 -853 14 -514 34 -618 62 -760 205 -87 88 -139 167 -405 614 -168
283 -195 322 -218 325 -20 3 -29 -2 -36 -20 -5 -13 -20 -146 -32 -297 -30
-378 -20 -552 38 -654 14 -23 42 -44 108 -77 53 -26 91 -52 93 -62 8 -43 -160
-106 -343 -129 -172 -21 -609 -9 -685 19 -19 7 -16 11 24 39 110 78 163 306
173 738 8 363 -21 713 -83 1007 -59 278 -117 422 -214 522 l-61 64 31 11 c116
40 763 63 1160 41z M13792 28026 c-45 -15 -106 -55 -134 -90 -52 -63 -88 -269
-88 -506 0 -229 19 -298 93 -354 52 -39 261 -31 382 15 54 20 112 73 139 126
47 94 63 358 30 492 -34 136 -113 250 -207 297 -60 31 -155 40 -215 20z m140
-68 c49 -14 128 -83 161 -141 50 -85 70 -171 70 -302 0 -193 -37 -295 -123
-344 -50 -28 -157 -51 -241 -51 -111 0 -143 40 -160 201 -17 165 9 410 56 527
17 43 61 83 117 107 41 18 69 18 120 3z M16574 27336 c-79 -36 -151 -122 -269
-326 -90 -154 -124 -231 -125 -278 0 -74 32 -90 195 -99 196 -10 332 23 399
97 52 58 59 93 53 254 -6 173 -29 258 -86 319 -32 34 -44 40 -87 43 -29 3 -62
-1 -80 -10z m109 -82 c39 -39 65 -121 77 -239 13 -144 2 -191 -57 -247 -46
-44 -105 -60 -243 -65 -133 -6 -210 6 -210 32 0 19 71 156 150 289 90 151 188
256 241 256 9 0 28 -12 42 -26z M10859 27589 c-234 -15 -286 -28 -630 -158
-174 -65 -334 -128 -356 -140 -100 -51 -140 -117 -109 -182 9 -19 30 -43 47
-54 47 -31 112 -124 182 -263 230 -452 497 -1363 497 -1694 0 -78 -9 -102 -67
-178 -39 -51 -45 -106 -13 -135 83 -75 787 132 1408 413 289 131 409 217 503
361 69 104 100 207 107 348 8 202 -51 367 -177 492 -108 108 -225 156 -401
166 -130 8 -160 14 -160 29 0 8 20 38 45 68 97 118 139 259 140 468 0 124 -3
156 -23 218 -51 163 -169 216 -532 242 -163 11 -276 11 -461 -1z m491 -69
c224 -20 345 -58 395 -124 48 -63 59 -110 59 -261 1 -120 -2 -151 -22 -215
-31 -96 -60 -154 -111 -215 -50 -60 -67 -108 -52 -148 15 -38 48 -48 187 -57
142 -9 224 -32 311 -89 107 -69 193 -192 228 -327 19 -75 19 -213 0 -289 -38
-149 -149 -301 -278 -383 -292 -185 -1140 -505 -1497 -566 -110 -19 -122 -12
-75 44 59 71 60 74 59 225 -1 106 -8 174 -28 280 -103 539 -356 1274 -542
1571 -24 40 -69 95 -99 122 -30 28 -55 57 -55 66 0 17 47 55 105 83 96 48 642
245 713 259 168 31 493 42 702 24z M10769 27360 c-49 -8 -123 -39 -149 -62
-41 -34 -50 -61 -50 -149 0 -207 149 -573 284 -697 41 -38 51 -42 96 -42 111
0 251 116 327 270 57 114 76 200 71 320 -6 154 -51 227 -187 299 -103 54 -279
82 -392 61z m219 -75 c72 -17 164 -61 212 -101 103 -87 108 -285 13 -466 -57
-108 -155 -207 -239 -238 -25 -10 -31 -7 -79 43 -137 141 -294 555 -255 673
28 84 192 126 348 89z M11128 26285 c-102 -16 -181 -48 -208 -83 -48 -61 3
-340 97 -527 73 -145 200 -290 298 -339 67 -35 160 -44 261 -27 234 41 329
197 296 489 -15 132 -33 207 -73 292 -54 116 -130 171 -268 196 -96 17 -290
16 -403 -1z m440 -80 c68 -24 134 -82 166 -148 59 -120 91 -343 67 -459 -28
-135 -133 -215 -293 -225 -70 -5 -92 -2 -129 14 -170 76 -343 344 -395 611
-23 120 -20 149 19 172 71 44 167 59 357 56 119 -2 167 -7 208 -21z M19135
27480 c-94 -15 -214 -56 -284 -97 -76 -45 -191 -156 -243 -234 -139 -210 -124
-460 46 -742 85 -141 130 -200 386 -497 211 -245 340 -478 340 -615 0 -105
-70 -165 -200 -173 -157 -9 -274 36 -401 156 -97 91 -144 161 -248 370 -145
290 -202 362 -292 362 -49 0 -98 -57 -131 -155 -41 -117 -59 -218 -60 -323 -1
-84 2 -98 31 -156 47 -97 135 -164 366 -281 171 -88 364 -163 510 -201 99 -26
126 -29 275 -29 186 0 238 12 355 83 142 86 296 292 386 517 105 263 50 392
-367 861 -300 336 -369 425 -440 569 -85 170 -70 257 55 337 105 66 271 13
433 -140 121 -115 180 -211 242 -397 60 -178 123 -255 212 -255 77 0 138 65
170 183 21 77 29 241 15 309 -52 248 -299 427 -721 524 -119 28 -334 39 -435
24z m331 -75 c114 -20 212 -48 346 -100 188 -74 319 -182 382 -315 29 -61 31
-72 31 -180 0 -132 -19 -206 -67 -264 -34 -41 -54 -45 -92 -15 -40 31 -74 97
-112 216 -83 257 -238 440 -462 546 -61 29 -75 32 -167 32 -77 0 -108 -4 -132
-18 -96 -52 -153 -140 -153 -238 0 -165 124 -370 426 -704 336 -372 437 -509
471 -639 17 -63 17 -69 0 -133 -34 -133 -157 -352 -266 -475 -59 -67 -179
-144 -264 -170 -207 -64 -524 8 -917 208 -251 127 -346 209 -371 318 -10 44
-9 70 4 148 23 133 63 253 97 291 l28 32 44 -46 c52 -53 118 -166 194 -327
175 -372 402 -538 710 -519 170 10 254 90 254 242 0 181 -146 439 -425 750
-309 345 -459 625 -442 826 20 242 257 478 537 534 90 18 240 18 346 0z
M22385 27479 c-172 -10 -334 -48 -377 -86 -62 -55 37 -179 326 -412 310 -248
848 -599 1156 -752 233 -116 385 -159 559 -159 226 0 465 81 509 173 46 95
-69 230 -284 336 -314 156 -712 230 -998 186 -64 -9 -119 -16 -121 -14 -2 2
105 51 238 108 291 125 289 124 285 159 -2 22 -33 48 -168 144 -91 65 -203
137 -250 162 -225 117 -555 175 -875 155z m281 -70 c205 -20 406 -72 544 -142
83 -42 362 -239 352 -248 -4 -5 -79 -39 -167 -77 -88 -38 -247 -108 -353 -156
l-192 -86 -118 82 c-172 120 -341 249 -456 348 -101 87 -206 194 -206 210 0
12 83 36 184 55 145 26 253 30 412 14z m1024 -720 c362 -61 721 -229 797 -373
14 -26 13 -30 -9 -53 -74 -79 -339 -143 -508 -122 -160 19 -371 104 -630 254
-152 87 -390 237 -390 245 0 3 89 19 198 36 243 39 372 42 542 13z M21233
26675 c-30 -21 -31 -80 -3 -160 27 -79 25 -121 -10 -229 -140 -420 -725 -1289
-1037 -1537 -69 -55 -107 -74 -175 -83 -64 -10 -98 -38 -98 -82 0 -73 50 -112
435 -345 357 -215 424 -249 491 -249 35 0 56 5 65 16 18 22 15 111 -6 209 -11
47 -15 94 -11 121 9 72 63 196 124 288 53 81 351 420 360 411 3 -2 13 -122 23
-267 38 -542 19 -768 -73 -860 -46 -46 -58 -68 -58 -108 0 -81 85 -169 302
-312 296 -196 562 -432 663 -588 57 -88 164 -202 220 -235 56 -33 104 -40 148
-21 63 26 73 88 31 187 -25 60 -25 62 -9 110 22 64 99 149 194 211 123 80 175
83 278 13 63 -42 197 -166 276 -255 122 -137 135 -212 62 -358 -75 -149 -190
-236 -334 -252 -80 -9 -109 -22 -117 -55 -16 -64 17 -126 143 -272 187 -216
438 -444 557 -507 65 -34 138 -36 160 -4 20 28 20 93 1 148 -21 59 -19 94 9
191 56 192 225 551 421 894 203 357 415 766 517 1000 40 92 43 107 43 186 0
76 -3 90 -27 126 -43 66 -81 78 -238 78 -120 0 -150 -4 -265 -34 -216 -55
-483 -154 -929 -345 -627 -269 -836 -339 -1016 -340 -80 -1 -102 3 -142 22
-165 81 -199 364 -132 1077 28 296 99 653 135 676 59 38 319 76 609 89 124 5
248 12 275 15 204 23 274 71 246 165 -23 78 -167 178 -496 344 -204 102 -291
136 -350 136 -84 0 -103 -50 -65 -172 27 -86 25 -111 -9 -151 -48 -54 -127
-84 -429 -163 -158 -41 -342 -90 -410 -110 -67 -19 -127 -34 -133 -32 -23 8
195 383 284 489 68 81 165 164 237 203 27 15 83 33 125 41 92 18 113 28 126
62 15 40 -6 87 -59 134 -150 132 -757 479 -867 494 -28 5 -47 1 -62 -10z m307
-182 c291 -162 526 -311 585 -373 35 -36 27 -46 -45 -56 -116 -15 -219 -73
-336 -189 -90 -89 -135 -150 -225 -305 -140 -242 -171 -327 -133 -364 24 -25
80 -19 230 23 77 22 263 71 414 110 304 78 400 117 453 183 42 52 47 117 17
214 -13 41 -20 77 -16 81 15 15 110 -22 299 -117 257 -129 379 -202 447 -268
53 -52 54 -54 35 -68 -50 -37 -224 -63 -421 -64 -55 0 -170 -7 -256 -15 -247
-24 -398 -57 -435 -97 -61 -65 -135 -493 -164 -946 -15 -243 -7 -606 16 -686
36 -130 99 -212 183 -240 200 -69 455 -1 1202 319 582 249 883 353 1113 385
125 18 209 -7 242 -71 25 -48 20 -97 -19 -193 -88 -213 -314 -652 -526 -1021
-125 -218 -296 -564 -359 -723 -88 -223 -108 -333 -76 -422 33 -93 12 -102
-86 -39 -94 61 -212 164 -344 301 -217 225 -313 350 -284 369 8 5 28 9 44 9
53 0 148 30 204 63 76 45 144 124 193 224 36 73 43 97 47 160 6 131 -44 217
-230 398 -236 228 -344 259 -524 153 -87 -52 -194 -157 -224 -222 -27 -59 -25
-153 5 -228 18 -45 18 -49 2 -65 -16 -15 -20 -15 -59 2 -59 27 -147 118 -219
227 -118 177 -358 391 -676 603 -173 115 -284 215 -284 255 0 10 14 28 30 40
70 50 109 189 117 417 6 156 -31 835 -48 881 -6 14 -17 22 -33 22 -19 0 -64
-43 -201 -192 -193 -211 -245 -277 -299 -383 -84 -165 -98 -252 -66 -409 12
-59 19 -110 17 -113 -19 -19 -139 45 -530 281 -203 123 -333 214 -331 231 1 6
36 19 80 30 100 26 151 61 279 189 331 333 795 1049 935 1442 43 120 49 217
21 298 -12 33 -21 65 -21 72 0 21 83 -15 260 -113z M24090 23836 c-144 -65
-447 -218 -542 -275 -173 -102 -228 -164 -228 -256 0 -68 23 -110 98 -184 83
-81 151 -127 201 -136 130 -22 230 86 506 545 149 248 157 263 153 308 -3 36
-4 37 -48 39 -35 2 -67 -7 -140 -41z m0 -218 c-217 -364 -354 -546 -423 -563
-35 -9 -91 24 -178 104 -72 65 -110 128 -101 164 9 35 91 109 182 164 99 60
611 315 618 308 3 -2 -41 -82 -98 -177z M8531 26525 c-233 -81 -642 -322 -986
-580 -389 -292 -480 -416 -347 -477 66 -30 235 -203 358 -368 336 -448 672
-1043 746 -1322 l21 -77 -21 -66 c-27 -79 -28 -137 -5 -160 13 -13 30 -16 77
-13 98 7 225 71 666 336 503 303 679 423 812 557 139 139 178 229 178 410 0
213 -42 343 -119 366 -108 32 -200 -77 -314 -371 -83 -215 -154 -337 -249
-426 -123 -116 -227 -129 -368 -46 -82 48 -182 148 -298 297 -103 133 -158
231 -147 264 12 38 86 91 160 114 57 18 92 22 195 21 111 -1 136 -5 224 -33
116 -37 190 -41 206 -12 5 11 10 30 10 44 0 49 -158 338 -285 522 -125 180
-201 245 -286 245 -88 0 -113 -51 -128 -265 -9 -128 -29 -196 -74 -243 -95
-102 -258 -47 -392 129 -58 77 -159 284 -182 373 -16 61 -16 66 2 106 21 47
108 131 167 161 124 63 366 81 598 44 140 -22 340 -25 392 -7 122 43 99 170
-57 329 -67 67 -97 89 -170 125 -87 42 -93 43 -200 46 -97 2 -119 -1 -184 -23z
m293 -64 c32 -11 80 -34 106 -51 64 -41 175 -160 203 -217 l22 -45 -23 -18
c-45 -37 -159 -38 -377 -5 -55 8 -168 15 -252 15 -242 0 -363 -32 -475 -125
-92 -75 -123 -131 -122 -215 1 -76 10 -108 75 -253 123 -273 271 -416 442
-425 88 -5 145 16 192 70 54 64 75 133 85 285 10 149 27 203 65 203 51 0 171
-138 297 -340 81 -131 188 -323 188 -338 0 -17 -8 -15 -100 13 -291 92 -638
23 -680 -136 -18 -66 12 -155 89 -259 67 -91 188 -236 239 -286 127 -124 227
-168 365 -162 101 4 154 28 238 105 101 94 161 197 265 457 36 88 80 185 100
217 41 68 97 121 119 112 67 -25 105 -329 56 -453 -52 -135 -196 -273 -486
-465 -184 -121 -710 -440 -866 -523 -103 -55 -228 -106 -237 -97 -3 3 0 25 7
48 31 107 33 126 18 200 -55 267 -401 894 -755 1367 -129 172 -295 347 -359
379 -24 12 -43 25 -43 30 0 18 106 125 204 205 390 320 954 660 1196 721 67
17 128 13 204 -14z M23784 26016 c-3 -8 -4 -24 -2 -35 2 -17 657 -630 919
-862 296 -261 661 -541 854 -654 125 -73 157 -86 259 -99 l89 -11 -94 -38
c-135 -53 -169 -91 -156 -172 12 -71 104 -175 347 -388 223 -196 467 -346 683
-419 76 -26 112 -32 207 -36 271 -10 328 46 246 246 -41 97 -81 154 -173 243
-144 139 -271 226 -469 320 -145 69 -224 115 -224 130 0 5 15 15 33 23 164 68
94 294 -160 512 -233 200 -479 315 -716 335 -155 14 -163 16 -106 38 152 59
200 194 124 346 -56 111 -236 270 -417 370 -122 67 -314 120 -538 151 -151 20
-698 20 -706 0z m572 -56 c251 -21 519 -91 651 -170 246 -150 403 -317 403
-430 0 -73 -53 -119 -195 -173 -60 -22 -60 -22 -60 -62 0 -37 3 -41 35 -51 19
-7 94 -17 165 -23 72 -7 164 -21 205 -32 113 -30 318 -136 441 -228 215 -162
357 -357 311 -427 -4 -7 -29 -25 -57 -41 -124 -73 -71 -155 165 -259 200 -88
375 -209 519 -359 85 -89 145 -192 158 -271 5 -32 3 -35 -33 -50 -31 -13 -63
-15 -159 -12 -104 4 -132 9 -208 38 -241 89 -442 220 -719 469 -151 136 -244
238 -255 280 -8 32 17 50 154 106 121 51 143 67 143 108 0 37 -22 45 -145 56
-89 8 -118 15 -178 44 -141 67 -452 289 -743 532 -169 140 -231 196 -671 603
l-393 362 168 0 c93 0 227 -5 298 -10z M6310 25102 c-17 -8 -395 -399 -480
-497 -88 -101 -108 -160 -72 -205 17 -20 32 -24 124 -31 118 -8 177 -28 303
-100 132 -75 286 -198 441 -353 154 -155 344 -364 344 -380 0 -14 -72 -1 -333
60 -316 72 -644 137 -837 166 -124 18 -200 22 -380 23 -205 0 -232 -2 -303
-23 -143 -41 -258 -113 -368 -229 -81 -86 -104 -131 -104 -203 0 -103 55 -144
218 -161 109 -11 189 -45 325 -138 373 -256 901 -833 1058 -1157 44 -91 48
-138 20 -244 -33 -122 -1 -190 88 -190 126 0 292 159 457 438 74 124 93 170
87 216 -5 48 -40 65 -155 74 -117 10 -169 31 -313 128 -237 158 -544 452 -808
775 l-71 86 82 -14 c45 -8 303 -54 572 -104 866 -159 1071 -189 1305 -189 201
0 284 26 323 101 70 133 -92 368 -581 838 -374 360 -663 703 -770 916 -16 33
-48 132 -71 219 -49 188 -55 198 -101 178z m109 -442 c116 -224 338 -487 802
-950 184 -184 368 -375 407 -425 70 -87 152 -230 152 -264 0 -27 -30 -62 -67
-78 -135 -56 -435 -29 -1178 108 -795 146 -991 180 -1030 177 -37 -3 -40 -5
-43 -36 -4 -41 40 -105 204 -292 330 -376 634 -639 871 -753 76 -36 97 -42
180 -47 51 -3 98 -11 104 -17 23 -23 -155 -313 -265 -430 -68 -74 -170 -145
-200 -141 -38 6 -42 32 -18 112 35 121 29 173 -38 308 -194 391 -856 1071
-1215 1249 -68 34 -99 43 -171 50 -208 22 -247 76 -149 207 42 55 155 152 233
198 233 139 682 111 1582 -101 254 -60 334 -75 396 -75 60 0 74 12 74 61 0 49
-36 96 -241 317 -226 243 -375 369 -580 492 -115 69 -178 91 -294 101 -55 5
-106 11 -113 14 -27 10 52 100 450 515 l43 45 40 -150 c23 -82 51 -170 64
-195z M14360 25059 c-528 -21 -1089 -81 -1475 -160 -254 -52 -625 -155 -990
-276 -1235 -408 -2281 -983 -3235 -1779 -444 -370 -966 -888 -1379 -1369
-1417 -1649 -2178 -3481 -2345 -5650 -51 -657 -46 -1327 15 -1945 277 -2822
1783 -5429 4109 -7112 959 -694 2034 -1213 3215 -1553 1349 -389 2688 -498
4035 -329 1045 131 2079 438 3110 923 849 400 1443 804 2150 1460 1917 1782
2805 3180 3310 5212 154 622 253 1280 290 1929 13 227 13 898 0 1110 -63 1040
-260 1998 -605 2936 -849 2306 -2505 4222 -4687 5423 -812 447 -1771 816
-2518 970 -821 169 -1974 250 -3000 210z m1130 -69 c1075 -47 1886 -175 2593
-411 1253 -417 2403 -1056 3397 -1885 516 -430 1008 -932 1427 -1454 1670
-2085 2444 -4746 2147 -7390 -65 -582 -185 -1177 -358 -1777 -477 -1652 -1300
-2937 -2826 -4412 -901 -870 -1423 -1257 -2267 -1680 -1121 -561 -2280 -912
-3453 -1045 -321 -37 -518 -48 -931 -53 -756 -10 -1327 43 -2049 187 -1314
263 -2579 775 -3668 1487 -730 476 -1429 1078 -2008 1728 -1417 1594 -2288
3588 -2483 5690 -59 627 -53 1430 15 2090 208 2034 935 3733 2273 5313 366
432 873 946 1281 1298 1134 979 2420 1649 3970 2068 518 140 1109 219 1865
249 192 8 868 6 1075 -3z M14360 24669 c-830 -42 -1468 -157 -2260 -406 -964
-303 -1938 -796 -2770 -1402 -852 -620 -1590 -1363 -2205 -2220 -910 -1269
-1517 -2785 -1719 -4301 -108 -809 -123 -1738 -41 -2555 104 -1030 395 -1997
920 -3060 1041 -2108 2527 -3588 4584 -4565 1234 -586 2066 -807 3366 -892
315 -21 1415 -17 1715 5 1231 92 2063 337 3455 1016 958 468 1705 996 2454
1735 806 797 1433 1670 1937 2701 589 1205 913 2445 985 3765 15 269 6 905
-15 1160 -161 1883 -836 3659 -1961 5158 -1276 1702 -3064 2939 -5096 3527
-692 201 -1274 293 -2108 335 -232 11 -1008 11 -1241 -1z m1015 -59 c935 -32
1559 -125 2319 -346 2342 -682 4353 -2237 5619 -4344 440 -733 798 -1554 1027
-2353 480 -1676 509 -3273 90 -4912 -235 -920 -602 -1797 -1103 -2640 -548
-921 -1285 -1784 -2107 -2470 -518 -432 -1089 -807 -1690 -1110 -1291 -650
-2202 -951 -3205 -1059 -701 -76 -1707 -80 -2465 -10 -893 82 -1669 287 -2535
667 -1251 550 -2181 1162 -3024 1992 -767 755 -1380 1608 -1911 2660 -743
1471 -1034 2733 -1007 4365 13 742 71 1290 208 1940 535 2543 2134 4815 4365
6201 987 613 2101 1055 3209 1273 599 118 1419 172 2210 146z M14475 24549
c-1845 -103 -3523 -719 -5020 -1842 -480 -360 -905 -743 -1446 -1299 -638
-658 -991 -1079 -1054 -1258 -34 -97 -10 -150 70 -150 54 0 51 -1 1010 368
429 165 994 382 1255 482 535 205 813 316 1234 495 937 397 1953 873 2711
1269 1861 973 3013 1352 4125 1356 189 1 327 31 344 75 35 93 -95 164 -474
259 -484 122 -1130 212 -1770 246 -210 11 -776 11 -985 -1z m1028 -69 c872
-52 1899 -239 2101 -383 l30 -21 -44 -14 c-54 -15 -260 -31 -425 -32 -464 -2
-1055 -118 -1690 -333 -672 -227 -1291 -508 -2510 -1137 -1002 -517 -2427
-1153 -3520 -1572 -187 -71 -797 -305 -1355 -520 -558 -215 -1030 -392 -1047
-395 -39 -7 -41 3 -14 64 84 184 428 590 1019 1200 691 714 1230 1175 1882
1613 1369 917 2876 1429 4500 1529 198 12 874 13 1073 1z M14245 22549 c-38
-5 -101 -18 -140 -30 -142 -42 -223 -175 -213 -348 9 -151 88 -261 329 -458
65 -53 117 -98 115 -101 -2 -2 -138 11 -303 29 -236 26 -342 33 -508 33 -224
1 -280 -7 -367 -50 -98 -49 -121 -143 -63 -259 45 -89 170 -210 270 -262 261
-135 612 -147 1057 -37 133 33 288 55 288 41 0 -4 -9 -24 -21 -47 -11 -22 -23
-57 -26 -78 -7 -56 13 -72 90 -72 75 0 204 42 537 177 287 116 280 113 280
109 0 -10 -271 -225 -356 -281 -115 -77 -395 -218 -539 -271 -402 -148 -890
-234 -1163 -203 -411 45 -1050 351 -1077 515 -13 78 -28 141 -62 249 -32 101
-34 114 -24 159 14 59 60 152 109 221 20 28 129 145 242 260 113 116 225 239
248 274 38 58 43 70 40 115 l-3 51 -51 3 c-67 4 -126 -22 -272 -121 -221 -149
-348 -263 -427 -382 -91 -137 -122 -253 -135 -495 -11 -195 -18 -253 -30 -245
-5 3 -28 36 -53 73 -134 203 -223 195 -732 -63 -324 -165 -461 -242 -645 -362
-489 -321 -989 -772 -1337 -1205 -165 -206 -309 -448 -370 -623 -27 -78 -27
-87 -31 -336 -3 -223 -2 -257 12 -268 9 -7 26 -11 38 -7 13 3 160 82 328 177
579 324 800 442 800 424 0 -10 -169 -131 -355 -255 -305 -203 -445 -314 -667
-529 -145 -140 -258 -268 -373 -420 -203 -270 -396 -442 -795 -711 -274 -184
-706 -440 -1165 -690 -446 -243 -990 -562 -1182 -692 -97 -66 -103 -72 -103
-104 0 -28 6 -38 33 -54 200 -122 1771 -431 2817 -554 508 -60 909 -84 971
-58 32 13 44 53 27 90 -7 14 -42 49 -78 76 -116 90 -231 214 -318 346 -153
230 -326 616 -400 890 -20 76 -25 118 -25 210 0 134 19 216 103 450 221 612
579 1037 1250 1485 228 151 430 268 800 460 754 392 1338 741 1755 1050 227
168 325 271 325 341 0 44 -23 64 -74 64 -54 0 -119 -39 -258 -152 -183 -151
-352 -268 -365 -254 -10 10 64 141 212 380 81 130 153 236 159 236 27 0 226
-65 418 -136 112 -42 246 -86 298 -99 681 -172 1717 -27 2510 351 439 210 732
451 863 709 63 126 105 329 88 427 -21 123 -85 207 -299 396 -144 127 -252
232 -240 232 23 0 279 -98 514 -196 470 -196 641 -253 790 -261 103 -6 129 2
139 46 14 64 -59 149 -233 272 -204 145 -413 218 -782 269 -255 36 -442 48
-1258 80 -300 12 -838 11 -937 -1z m690 -59 c943 -33 1063 -39 1350 -71 307
-34 576 -98 725 -174 116 -59 370 -254 370 -285 0 -15 -25 -18 -81 -9 -136 21
-337 91 -694 241 -433 181 -557 223 -640 216 -39 -3 -40 -4 -43 -46 -3 -42 -2
-44 95 -140 54 -54 154 -147 224 -208 249 -220 282 -304 213 -542 -45 -153
-103 -250 -233 -385 -564 -585 -1993 -990 -2936 -831 -139 23 -232 51 -464
136 -331 122 -482 159 -511 126 -30 -35 -308 -494 -342 -562 -39 -83 -50 -150
-26 -174 20 -20 85 -14 136 12 66 34 175 112 327 235 203 164 287 200 148 62
-261 -256 -1062 -759 -1913 -1201 -328 -170 -373 -195 -560 -303 -693 -403
-1153 -834 -1414 -1328 -116 -219 -238 -565 -264 -746 -14 -103 -14 -123 0
-226 27 -186 140 -504 271 -762 145 -282 304 -490 476 -619 100 -75 76 -79
-309 -46 -615 52 -1311 152 -2095 300 -615 116 -1198 259 -1207 295 -7 27 636
406 1397 825 228 125 491 278 710 413 573 351 877 604 1107 918 97 133 204
253 367 411 187 182 369 329 576 466 465 306 567 399 509 457 -45 44 -227 -36
-744 -327 -418 -235 -477 -268 -484 -268 -3 0 -6 84 -6 188 0 223 11 276 95
447 123 250 323 511 640 834 445 454 880 782 1406 1062 400 212 619 309 700
309 50 0 85 -26 134 -102 86 -132 137 -167 177 -120 25 29 29 49 43 272 8 118
21 242 30 275 35 134 118 269 225 369 147 136 456 346 491 334 22 -7 -78 -126
-266 -318 -260 -265 -338 -376 -365 -519 -12 -66 -8 -94 36 -235 19 -60 39
-139 45 -175 14 -81 44 -137 101 -183 187 -151 506 -297 833 -380 506 -128
1415 80 1970 451 66 44 217 160 335 258 191 159 215 182 215 208 0 23 -5 31
-21 33 -12 2 -194 -66 -405 -151 -349 -141 -547 -214 -621 -231 -35 -8 -37 14
-8 62 29 48 27 107 -5 128 -39 25 -169 13 -369 -35 -460 -110 -782 -91 -1023
61 -123 78 -248 246 -227 306 14 40 80 80 159 97 123 26 322 19 746 -25 211
-23 398 -39 414 -38 24 2 31 8 33 30 3 24 -16 43 -175 174 -214 177 -273 237
-318 328 -40 79 -46 152 -20 227 49 138 133 181 395 198 169 12 254 12 565 1z
M20320 22553 c-209 -22 -1355 -254 -1740 -352 -264 -67 -333 -100 -338 -163
-2 -21 2 -47 8 -58 24 -45 254 -176 485 -275 240 -104 418 -205 695 -393 377
-256 570 -412 1118 -905 228 -205 423 -376 436 -381 16 -6 117 17 381 87 198
53 414 109 480 126 224 56 533 111 621 111 65 0 212 29 266 52 99 42 124 113
70 199 -39 61 -209 270 -332 409 -352 395 -1062 1118 -1230 1252 -224 178
-383 258 -570 288 -61 9 -273 11 -350 3z m450 -101 c238 -79 416 -218 895
-703 531 -537 937 -987 1063 -1176 29 -45 33 -55 21 -69 -35 -43 -163 -78
-324 -89 -207 -14 -469 -70 -1020 -216 -209 -56 -383 -102 -386 -103 -4 0
-188 162 -410 361 -222 199 -453 403 -514 453 -256 214 -664 505 -920 657
-144 85 -205 116 -373 189 -163 71 -380 183 -443 230 -38 28 -47 39 -39 49 40
49 465 151 1426 344 506 102 567 111 764 107 154 -3 172 -5 260 -34z M15030
19419 c-638 -46 -1286 -199 -1672 -396 -155 -78 -211 -150 -160 -201 26 -26
111 -34 229 -22 100 11 213 5 213 -11 0 -4 -10 -14 -22 -20 -13 -7 -68 -49
-123 -94 -169 -139 -263 -189 -437 -235 -67 -18 -126 -24 -313 -30 -297 -10
-399 -31 -567 -115 -104 -52 -209 -131 -339 -253 -148 -141 -189 -193 -189
-241 0 -65 28 -73 155 -46 47 10 93 13 139 9 l69 -7 -60 -27 c-122 -55 -263
-161 -633 -471 -172 -145 -195 -168 -198 -196 -3 -30 -1 -33 23 -33 32 0 415
178 562 261 152 87 290 180 342 231 55 54 95 136 89 184 -2 19 0 34 5 34 34 0
272 -61 427 -110 243 -77 326 -98 437 -111 166 -20 332 17 553 122 102 48 104
49 66 17 -269 -227 -468 -295 -752 -258 -144 19 -347 15 -484 -9 -474 -83
-961 -352 -1081 -597 -33 -67 -34 -72 -34 -199 -1 -169 -34 -283 -110 -373
-88 -105 -122 -217 -74 -243 35 -18 97 -3 204 50 326 163 598 416 613 571 6
63 -7 80 -63 80 -29 0 -63 -11 -109 -36 -79 -41 -101 -39 -91 8 18 80 100 192
172 235 115 67 452 134 852 169 360 31 615 80 806 155 170 68 240 113 414 267
104 92 280 230 322 253 26 13 25 11 -39 -81 -181 -260 -514 -580 -702 -676
-45 -23 -69 -28 -132 -29 -165 -3 -182 -74 -93 -390 88 -311 135 -571 135
-742 0 -120 -19 -191 -64 -240 -27 -29 -39 -36 -72 -36 -128 0 -287 185 -368
428 -39 115 -54 225 -61 435 -4 102 -9 193 -11 203 -6 20 -49 23 -61 5 -4 -7
-40 -110 -79 -228 -62 -186 -72 -209 -73 -170 -5 176 -23 439 -36 512 -25 142
-53 188 -116 188 -31 0 -43 -6 -65 -34 -96 -120 -98 -365 -7 -666 170 -564
598 -1191 922 -1353 75 -37 94 -42 165 -45 64 -3 91 1 127 16 182 79 209 243
148 892 -17 175 -23 308 -23 520 -1 327 0 335 61 318 227 -62 744 -486 951
-780 65 -92 134 -239 140 -297 4 -44 2 -51 -21 -66 -24 -16 -30 -16 -84 0 -69
20 -149 60 -257 128 -159 100 -315 157 -385 142 -60 -13 -88 -67 -101 -192
-30 -286 105 -902 275 -1259 74 -156 117 -215 268 -367 318 -320 605 -465
1016 -516 256 -32 535 -24 1179 34 599 54 796 66 1217 75 215 5 407 13 427 18
119 31 158 85 158 222 0 87 -21 258 -40 320 -26 89 -81 148 -159 170 -54 15
-195 12 -302 -6 -52 -9 -202 -43 -333 -75 -132 -33 -255 -59 -273 -59 -47 0
-67 34 -59 97 20 142 77 217 193 253 53 17 111 23 263 31 227 10 317 22 421
55 90 28 155 73 175 119 55 132 -123 214 -440 202 -180 -7 -292 -28 -498 -97
-310 -103 -574 -258 -684 -403 -20 -26 -39 -46 -41 -43 -10 10 30 204 64 308
41 130 69 168 122 168 52 0 282 58 496 125 99 31 220 65 270 76 223 50 470 64
596 36 109 -25 165 -29 224 -17 65 13 124 60 155 119 52 103 120 400 120 525
0 115 -23 147 -119 162 -108 17 -184 -65 -201 -218 -9 -79 -34 -119 -93 -150
-171 -87 -504 45 -637 252 -47 73 -83 184 -75 229 15 79 86 135 215 170 137
37 229 44 640 50 l405 6 3 28 c3 21 -40 111 -162 343 -268 509 -431 767 -534
845 -118 91 -120 247 -4 349 25 22 49 40 53 40 5 0 33 9 64 21 74 28 89 56 83
158 -4 60 -12 92 -40 151 -70 150 -196 317 -393 519 -147 150 -266 255 -405
357 -202 149 -326 213 -553 289 -342 113 -719 183 -1159 215 -168 12 -707 11
-878 -1z m900 -70 c526 -40 1051 -160 1345 -306 211 -106 440 -279 665 -504
231 -232 400 -467 444 -621 21 -69 11 -100 -36 -117 -128 -48 -180 -90 -222
-180 -16 -36 -21 -65 -21 -131 0 -75 4 -91 30 -139 18 -33 48 -67 75 -87 98
-70 264 -335 533 -849 l126 -240 -357 -7 c-363 -6 -528 -20 -642 -54 -247 -73
-305 -218 -186 -460 36 -73 59 -104 115 -157 38 -36 99 -82 136 -102 234 -131
524 -121 602 20 12 22 26 73 31 113 17 118 70 184 134 166 67 -20 68 -103 2
-364 -55 -221 -103 -294 -202 -307 -20 -2 -82 5 -136 16 -168 36 -412 24 -666
-30 -52 -12 -174 -46 -270 -76 -232 -72 -434 -123 -491 -123 -63 0 -94 -27
-134 -114 -81 -178 -133 -518 -84 -549 33 -20 66 2 133 87 89 113 200 196 391
291 312 155 673 242 889 215 102 -13 197 -44 225 -74 l22 -23 -35 -31 c-77
-67 -225 -100 -506 -112 -254 -11 -326 -28 -419 -98 -45 -34 -88 -128 -101
-224 -13 -88 -3 -143 31 -174 37 -34 154 -24 359 29 467 122 621 129 696 32
55 -73 97 -382 60 -452 -35 -69 -67 -74 -486 -83 -461 -11 -643 -23 -1445 -95
-866 -79 -1258 -22 -1635 236 -148 101 -349 290 -451 424 -151 199 -326 756
-369 1175 -19 181 3 330 51 345 39 13 191 -51 326 -138 150 -96 254 -137 349
-137 51 0 68 4 90 23 53 46 42 172 -28 311 -70 140 -139 229 -322 411 -239
238 -451 402 -645 498 -75 37 -92 42 -155 42 l-71 0 -20 -40 c-19 -37 -20 -59
-19 -325 1 -224 7 -351 28 -595 32 -351 32 -564 2 -645 -31 -84 -112 -142
-195 -142 -179 1 -443 242 -698 640 -86 134 -245 451 -298 595 -118 321 -138
602 -51 704 l24 27 20 -65 c26 -84 40 -206 52 -459 12 -253 14 -264 63 -268
32 -3 38 1 53 30 9 18 38 96 64 173 l47 140 6 -135 c14 -282 112 -536 266
-687 74 -73 138 -103 218 -103 101 0 154 40 190 142 27 80 25 329 -6 502 -24
135 -78 364 -130 550 -53 187 -44 210 75 211 71 0 86 4 149 38 205 109 507
398 713 683 107 147 121 234 40 234 -62 0 -209 -101 -428 -294 -180 -158 -270
-214 -444 -275 -198 -70 -435 -114 -726 -136 -343 -26 -731 -97 -868 -160
-115 -53 -224 -210 -226 -325 -1 -76 18 -100 82 -100 33 0 62 10 109 36 36 20
67 33 70 30 11 -11 -63 -120 -132 -194 -83 -90 -188 -170 -345 -262 -115 -68
-220 -117 -220 -102 0 5 31 52 69 105 105 147 149 296 135 452 -6 68 -4 78 24
139 110 234 591 500 1052 581 146 26 247 28 405 10 298 -34 485 4 691 141 30
20 138 106 241 193 165 138 188 161 188 187 0 22 -5 30 -21 32 -11 2 -120 -46
-241 -106 -491 -243 -562 -249 -1063 -92 -225 71 -352 102 -501 124 -118 18
-306 21 -357 7 -17 -5 -32 -7 -32 -4 0 10 153 164 234 236 72 63 80 68 87 50
5 -15 75 -49 256 -126 407 -174 517 -205 762 -214 179 -7 219 -1 451 65 159
45 165 48 168 74 3 21 -2 30 -20 38 -13 5 -140 36 -283 69 -419 96 -567 116
-950 131 -148 6 -288 12 -310 13 l-40 2 79 47 c167 100 327 138 575 138 253 1
390 28 566 115 76 37 138 77 200 130 121 101 175 139 175 123 -1 -27 -38 -95
-83 -149 -57 -70 -166 -153 -282 -214 -183 -96 -235 -143 -222 -197 9 -33 50
-48 131 -48 152 0 324 86 471 234 123 124 187 262 171 368 -9 58 -35 92 -94
122 -91 45 -187 57 -350 43 -79 -6 -130 -6 -144 0 -49 21 209 149 492 243 426
142 943 229 1505 254 123 5 504 -3 655 -15z m-2133 -696 c-15 -137 -188 -332
-379 -428 -89 -45 -146 -59 -208 -53 l-35 3 65 41 c36 23 97 57 135 77 130 65
265 180 326 275 15 23 35 72 45 109 l18 66 19 -24 c14 -18 18 -34 14 -66z
m-1281 -583 c285 -14 519 -51 888 -138 l119 -29 -117 -32 c-64 -17 -153 -36
-197 -41 -142 -16 -356 15 -539 78 -79 28 -389 158 -399 168 -6 6 28 5 245 -6z
m-472 -430 c-40 -73 -145 -152 -379 -285 -132 -75 -282 -146 -250 -118 254
219 431 352 548 413 106 54 115 53 81 -10z M16560 18284 c-14 -2 -59 -9 -100
-15 -162 -24 -334 -94 -548 -225 -160 -98 -174 -110 -170 -147 3 -28 7 -32 34
-35 18 -2 92 11 165 27 242 56 334 31 245 -66 -50 -55 -127 -98 -265 -147
-136 -49 -161 -66 -161 -108 0 -44 37 -74 173 -138 326 -154 624 -243 868
-260 126 -9 169 -16 169 -26 0 -13 -61 -122 -120 -214 -142 -222 -217 -413
-190 -484 8 -22 16 -26 47 -26 80 1 175 90 314 295 67 99 196 229 269 272 31
18 87 39 129 47 187 39 369 216 506 491 78 155 109 266 103 366 -5 86 -23 109
-85 109 -24 0 -58 -7 -75 -16 -71 -37 -231 5 -488 126 -266 126 -425 168 -660
175 -74 2 -146 2 -160 -1z m365 -89 c126 -26 272 -78 442 -159 268 -125 430
-162 530 -121 58 24 66 16 61 -63 -7 -81 -35 -167 -94 -285 -93 -185 -207
-324 -334 -406 -61 -40 -77 -46 -185 -71 -118 -26 -264 -155 -403 -353 -94
-133 -205 -252 -210 -225 -4 21 49 155 90 228 17 30 62 102 98 160 84 132 108
178 116 227 5 33 2 44 -19 68 -23 28 -28 29 -150 36 -145 8 -246 27 -407 76
-200 60 -360 123 -534 210 -103 52 -106 46 46 99 152 52 236 104 289 177 50
69 36 147 -31 182 -37 19 -155 19 -235 1 -33 -8 -61 -13 -63 -11 -7 7 228 136
298 164 89 35 204 68 286 81 85 13 315 5 409 -15z M17291 16202 c-49 -51 -173
-272 -222 -395 -86 -218 26 -251 216 -63 67 67 90 98 129 177 54 107 69 195
46 263 -17 51 -35 66 -83 66 -36 0 -46 -6 -86 -48z m105 -57 c21 -115 -90
-303 -250 -421 l-39 -28 7 24 c12 40 73 167 137 285 56 103 109 175 129 175 5
0 12 -16 16 -35z M24340 16561 c-145 -45 -723 -408 -1450 -911 -1469 -1016
-2391 -1526 -3145 -1739 -149 -41 -272 -66 -512 -101 -327 -49 -471 -95 -540
-173 -36 -41 -49 -77 -62 -168 -5 -36 -18 -84 -30 -106 -38 -75 -145 -207
-261 -323 -112 -112 -166 -157 -530 -445 -356 -282 -444 -404 -482 -671 -18
-128 -18 -792 1 -899 33 -199 82 -271 260 -389 95 -63 152 -111 223 -185 308
-320 550 -838 550 -1176 0 -223 -120 -664 -315 -1161 -101 -254 -178 -473
-239 -674 -80 -266 -99 -357 -108 -528 -5 -85 -11 -156 -13 -159 -3 -2 -29 25
-57 61 -75 96 -170 149 -415 233 -134 46 -369 106 -535 137 -74 14 -223 41
-330 61 -421 78 -1209 250 -1555 340 -93 24 -422 109 -730 190 -337 88 -574
145 -595 143 -33 -3 -50 -21 -250 -265 -118 -144 -220 -267 -225 -273 -7 -7
-94 91 -275 313 -273 332 -486 561 -625 674 -302 244 -706 438 -1405 675 -582
196 -990 282 -1405 295 -445 14 -793 -64 -1239 -276 -158 -75 -287 -152 -321
-193 -38 -44 -30 -89 28 -170 212 -296 1145 -1127 1771 -1577 643 -463 1416
-879 2123 -1142 710 -264 1465 -426 2303 -494 618 -49 1407 -46 2235 10 1105
75 1721 238 2825 750 186 86 1158 562 1188 581 22 15 31 58 13 68 -11 7 -849
43 -1216 52 -409 10 -700 -18 -822 -79 -33 -17 -63 -44 -88 -77 -41 -55 -61
-65 -51 -23 24 94 273 332 566 539 47 34 173 123 280 199 340 240 694 511 867
663 190 167 196 177 145 247 -15 22 -199 283 -407 580 -405 579 -532 750 -715
970 -163 195 -243 279 -330 348 -41 33 -78 65 -83 72 -16 29 138 64 393 89
213 22 517 42 1250 81 1257 67 2022 125 2585 196 566 71 880 137 1063 225 104
50 117 64 209 228 296 526 519 1453 622 2581 58 628 94 1760 72 2240 -16 357
-50 499 -125 530 -39 16 -49 17 -86 6z m87 -118 c59 -143 75 -566 53 -1398
-32 -1201 -131 -2053 -326 -2830 -135 -535 -370 -1078 -501 -1155 -320 -189
-1410 -318 -3703 -440 -862 -46 -1223 -71 -1410 -101 -202 -32 -260 -60 -260
-129 0 -35 6 -44 63 -92 167 -141 379 -381 622 -703 88 -117 837 -1179 868
-1232 11 -18 -283 -269 -547 -466 -222 -166 -446 -328 -701 -508 -288 -202
-540 -431 -596 -541 -24 -47 -26 -153 -3 -186 32 -45 78 -25 148 67 29 37 61
66 88 79 103 48 308 72 616 72 174 0 1203 -37 1209 -44 2 -1 -216 -110 -484
-241 -1694 -828 -2182 -965 -3758 -1056 -296 -17 -1213 -23 -1472 -10 -1737
90 -3071 526 -4498 1471 -540 358 -1274 965 -1771 1466 -202 203 -302 328
-282 352 38 46 252 162 475 256 354 149 642 204 1027 193 393 -11 814 -100
1388 -296 680 -232 1075 -422 1368 -658 178 -143 276 -252 783 -867 126 -152
141 -167 167 -164 24 3 65 48 259 286 128 155 234 282 237 282 3 0 231 -59
507 -131 1178 -307 1745 -436 2622 -595 440 -79 821 -214 924 -326 115 -126
118 -128 148 -128 46 0 64 29 74 117 4 43 8 109 8 147 2 173 131 603 351 1166
108 277 179 492 236 718 56 219 74 331 74 459 0 469 -400 1185 -791 1418 -146
86 -200 159 -237 317 -14 62 -17 130 -17 458 0 402 5 460 46 587 48 147 169
278 484 523 368 287 533 439 659 607 83 111 117 181 126 263 20 180 118 228
605 300 325 48 572 113 885 235 678 263 1578 790 2770 1620 561 392 1027 690
1294 831 134 70 146 70 173 7z M11998 16373 c-114 -78 -378 -268 -523 -377
-338 -253 -486 -419 -615 -689 -74 -155 -123 -304 -250 -757 -57 -201 -104
-366 -104 -367 -1 -2 -551 -11 -1222 -22 -670 -11 -1325 -23 -1454 -26 -1725
-41 -2276 -68 -2305 -115 -3 -5 -10 -36 -16 -67 -32 -196 111 -966 306 -1652
66 -233 294 -953 306 -965 5 -5 475 -19 1071 -32 585 -12 1394 -30 1798 -40
780 -17 1663 -15 1880 6 285 27 394 56 512 137 143 98 277 147 441 162 140 12
171 40 152 137 -19 105 -310 316 -764 554 -394 207 -440 232 -537 297 -244
162 -373 309 -436 498 -33 99 -32 298 1 435 31 127 56 192 84 219 24 21 24 21
49 2 67 -53 114 -240 127 -506 6 -124 14 -192 24 -217 15 -35 19 -38 55 -38
41 0 58 14 115 92 43 59 62 64 107 33 41 -28 59 -49 172 -200 96 -129 147
-175 191 -175 44 0 67 26 67 76 l1 39 34 -40 c19 -22 60 -87 91 -145 144 -267
239 -370 340 -370 54 0 87 27 111 88 25 66 23 261 -5 454 -22 148 -28 293 -14
315 5 9 17 9 49 0 74 -19 114 26 134 155 15 99 6 480 -14 569 -29 125 -78 189
-145 189 -124 0 -224 -189 -333 -624 -27 -111 -53 -209 -57 -219 -5 -12 -19
41 -42 155 -31 151 -35 191 -34 313 1 177 16 224 112 369 l72 106 -2 68 c-1
58 8 91 62 247 105 305 140 435 140 527 0 58 -14 78 -57 78 -67 0 -88 -34
-302 -483 -91 -192 -162 -299 -273 -414 -71 -74 -96 -108 -128 -175 -43 -92
-69 -204 -71 -300 -1 -35 -4 -76 -8 -93 l-6 -29 -32 49 c-18 28 -44 76 -59
108 -36 79 -31 155 14 247 31 63 59 101 292 407 160 208 249 364 265 463 18
109 117 242 360 485 183 182 249 262 321 383 109 185 131 283 116 530 -6 105
-15 179 -22 188 -22 26 -57 15 -142 -43z m101 -248 c2 -241 -103 -428 -417
-744 -263 -264 -361 -396 -383 -516 -20 -112 -145 -315 -346 -565 -127 -159
-172 -226 -216 -317 -29 -62 -32 -77 -32 -163 0 -110 16 -153 104 -283 51 -76
75 -94 110 -82 28 9 32 25 46 190 11 120 19 166 43 232 37 101 54 126 153 228
123 127 223 294 344 570 61 138 147 294 153 275 8 -23 -33 -174 -104 -378 -79
-232 -110 -349 -100 -387 5 -19 -6 -42 -49 -105 -110 -161 -129 -226 -129
-440 0 -133 4 -164 47 -380 26 -129 52 -245 57 -258 8 -18 17 -23 38 -20 27 3
27 5 103 303 105 412 179 597 262 659 l29 21 27 -31 c40 -44 62 -143 70 -314
8 -181 -1 -341 -24 -397 -15 -37 -19 -41 -36 -32 -11 5 -39 9 -62 7 -37 -3
-44 -7 -59 -38 -26 -50 -23 -171 8 -396 29 -211 29 -336 0 -392 -21 -41 -37
-47 -73 -29 -61 33 -145 143 -229 303 -91 172 -153 244 -208 244 -30 0 -56
-30 -56 -65 0 -71 -23 -56 -127 84 -112 152 -197 239 -245 252 -69 18 -118 -6
-175 -85 -36 -49 -37 -50 -44 -26 -4 14 -8 61 -8 105 -6 394 -94 645 -229 645
-78 0 -135 -104 -177 -321 -62 -328 -3 -556 199 -767 148 -154 288 -246 686
-452 297 -154 405 -216 575 -328 131 -87 285 -225 285 -255 0 -26 -33 -37
-140 -47 -155 -15 -325 -78 -430 -160 -106 -82 -255 -117 -600 -140 -209 -14
-1161 -14 -1680 0 -486 13 -2691 60 -2804 60 l-81 0 -132 418 c-73 229 -153
491 -178 581 -108 382 -221 897 -265 1206 -22 148 -32 356 -18 370 14 15 103
24 355 39 627 37 1566 62 3533 91 580 9 1064 20 1075 24 17 7 38 71 125 377
218 776 286 922 549 1184 124 123 256 227 631 495 l235 168 6 -64 c4 -35 7
-104 8 -154z M11681 15870 c-222 -123 -529 -472 -671 -765 -85 -173 -95 -217
-94 -392 0 -165 5 -183 54 -183 35 0 48 19 106 162 59 144 113 245 218 402
105 157 216 299 341 436 134 147 187 226 193 289 3 33 0 56 -8 66 -20 24 -80
18 -139 -15z m37 -117 c-25 -38 -83 -108 -128 -158 -117 -127 -237 -278 -339
-430 -121 -179 -167 -261 -224 -395 l-48 -115 4 100 c4 77 11 118 32 175 90
247 302 544 533 746 89 78 201 158 210 149 3 -3 -15 -35 -40 -72z M12785
15120 c-4 -7 -29 -141 -56 -298 -46 -270 -49 -298 -49 -467 0 -325 37 -555
163 -1006 56 -201 78 -349 84 -559 9 -330 -44 -607 -188 -988 -64 -169 -51
-249 66 -391 62 -77 136 -144 295 -266 103 -80 280 -225 280 -231 0 -2 -113
40 -580 213 -469 174 -1064 383 -1093 383 -19 0 -107 -86 -388 -377 -579 -601
-1023 -1072 -1033 -1098 -5 -12 -6 -30 -3 -39 4 -9 138 -104 299 -210 329
-216 424 -286 683 -494 383 -310 596 -500 1265 -1136 337 -320 389 -366 416
-366 28 0 70 37 360 321 181 177 385 374 454 438 429 399 732 611 1003 703 73
25 114 32 200 36 228 10 380 -51 679 -274 220 -165 274 -198 328 -199 44 0 45
1 48 35 2 27 -5 46 -31 83 -62 87 -258 294 -491 520 -244 236 -350 351 -417
451 l-41 61 32 6 c51 11 82 49 88 107 13 139 -80 343 -322 712 -143 216 -161
246 -175 283 l-11 27 40 -20 c44 -22 100 -26 118 -8 22 22 13 109 -19 198 -56
153 -118 349 -244 765 -211 701 -503 1735 -489 1735 2 0 47 -54 99 -120 53
-66 106 -125 117 -131 11 -6 31 -8 45 -4 24 6 25 9 21 58 -5 58 -30 125 -124
331 -106 232 -196 367 -293 434 -52 36 -67 39 -191 31 -37 -2 -60 5 -125 39
-128 68 -243 169 -508 452 -197 211 -254 266 -277 268 -15 2 -31 -2 -35 -8z
m292 -350 c266 -285 368 -371 520 -442 66 -31 75 -33 216 -26 67 3 176 -119
270 -301 63 -121 140 -292 134 -298 -2 -2 -23 20 -45 49 -22 29 -61 72 -85 96
-37 37 -50 43 -78 40 -31 -3 -34 -6 -37 -39 -9 -108 538 -2007 761 -2644 14
-38 23 -72 22 -73 -2 -2 -23 8 -48 22 -55 33 -112 35 -128 5 -27 -51 13 -138
191 -409 207 -314 303 -504 317 -621 7 -58 -10 -84 -61 -95 -43 -9 -56 -22
-56 -57 0 -89 89 -197 495 -602 193 -192 371 -375 395 -405 l45 -55 -55 40
c-30 21 -108 79 -172 127 -288 217 -471 287 -720 275 -234 -11 -465 -114 -765
-339 -236 -177 -466 -385 -946 -857 l-298 -293 -26 23 c-15 13 -205 193 -423
399 -566 536 -705 662 -985 896 -348 291 -527 424 -880 656 -145 95 -263 176
-262 180 8 28 1334 1408 1352 1408 17 0 636 -218 895 -315 494 -185 802 -295
828 -295 54 0 67 39 31 96 -24 39 -151 150 -339 294 -234 181 -372 341 -372
433 0 18 13 66 30 107 193 488 247 962 161 1420 -11 58 -44 193 -74 300 -97
347 -137 597 -138 870 -1 151 3 187 43 427 33 196 47 260 56 250 6 -6 110
-118 231 -247z M17018 11860 c-27 -16 -107 -152 -142 -243 -66 -167 -99 -331
-111 -548 -12 -221 -78 -365 -193 -420 -70 -34 -126 -91 -158 -162 -29 -62
-29 -63 -30 -272 -1 -220 -10 -279 -53 -363 -68 -133 -167 -127 -307 20 -78
81 -104 121 -210 313 -182 333 -253 415 -309 358 -38 -37 2 -188 146 -550 112
-282 147 -375 158 -424 l9 -38 -60 30 c-79 40 -108 35 -108 -19 0 -61 87 -178
311 -421 422 -456 854 -979 1335 -1610 259 -342 272 -356 303 -356 l33 0 75
200 c108 289 117 334 117 590 1 235 -12 335 -69 561 -72 281 -173 482 -318
632 l-70 72 37 0 c58 0 86 34 86 107 0 72 -28 134 -98 221 -44 55 -54 76 -71
150 -51 219 -92 663 -121 1317 -28 615 -48 793 -97 847 -18 20 -58 23 -85 8z
m68 -192 c14 -97 35 -415 59 -918 22 -437 51 -758 91 -995 25 -150 42 -198 91
-256 75 -91 111 -174 88 -206 -11 -15 -18 -16 -52 -6 -21 6 -53 17 -71 24 -40
17 -66 4 -70 -35 -3 -22 16 -47 120 -154 68 -70 141 -155 161 -189 122 -202
214 -492 247 -782 16 -136 8 -383 -15 -480 -18 -76 -130 -390 -144 -404 -5 -4
-120 140 -257 320 -437 577 -873 1103 -1272 1537 -146 158 -266 297 -282 326
-7 13 -2 15 31 12 55 -6 69 10 69 72 0 72 -15 118 -150 461 -106 268 -164 434
-157 442 6 6 89 -130 172 -282 110 -200 171 -289 250 -363 81 -76 136 -102
217 -102 75 0 113 20 158 81 59 82 72 148 79 404 7 255 11 272 76 344 21 23
64 55 97 73 136 72 198 218 213 496 7 144 36 294 81 425 39 112 50 134 102
221 42 71 48 65 68 -66z M2882 23400 c-57 -41 -170 -191 -224 -297 -52 -100
-97 -228 -124 -353 -15 -68 -19 -126 -18 -285 0 -189 2 -205 28 -290 84 -275
216 -351 336 -191 121 163 280 521 331 746 23 103 24 241 4 330 -42 179 -112
323 -174 354 -49 26 -112 21 -159 -14z m130 -59 c55 -44 129 -232 147 -375 12
-98 -5 -199 -65 -376 -79 -234 -250 -559 -318 -604 -28 -18 -28 -18 -61 14
-38 37 -87 137 -110 225 -64 245 -22 561 110 825 74 147 208 310 256 310 9 0
27 -9 41 -19z M26367 23343 c-20 -19 7 -74 151 -303 127 -204 174 -270 245
-346 210 -223 454 -375 726 -454 254 -74 373 -94 399 -68 81 81 -235 651 -450
813 -84 63 -443 198 -817 306 -199 58 -241 66 -254 52z m339 -153 c160 -48
502 -170 602 -216 54 -24 91 -51 135 -96 135 -137 290 -378 354 -550 19 -49
32 -92 30 -95 -6 -6 -187 38 -326 78 -219 64 -428 190 -625 379 -111 106 -148
154 -276 360 -57 91 -110 175 -117 187 l-15 23 54 -16 c29 -8 112 -33 184 -54z
M2142 22268 c-153 -230 -188 -294 -228 -411 -50 -148 -56 -347 -15 -567 21
-120 34 -220 28 -220 -2 0 -17 19 -33 41 -41 60 -107 107 -160 115 -151 22
-262 -138 -320 -461 -14 -76 -18 -152 -18 -315 0 -244 15 -370 70 -575 3 -11
-22 25 -55 80 -79 129 -126 175 -179 175 -52 0 -90 -41 -164 -180 -113 -211
-153 -369 -152 -600 1 -246 41 -408 164 -657 75 -150 131 -234 177 -264 52
-35 108 -19 141 40 11 20 115 318 230 662 328 976 503 1424 785 2014 120 252
161 364 177 486 21 161 -6 276 -154 644 -82 206 -85 210 -115 213 -29 3 -35
-4 -179 -220z m245 -71 c98 -246 121 -316 135 -412 22 -154 -14 -273 -200
-660 -260 -542 -428 -976 -754 -1945 -116 -344 -219 -642 -229 -663 -17 -33
-22 -36 -40 -26 -47 25 -193 293 -247 454 -90 265 -94 526 -11 761 37 106 122
272 164 321 l31 36 35 -41 c20 -23 77 -113 129 -199 189 -320 173 -298 206
-298 22 0 30 5 32 21 2 11 -20 92 -48 180 -96 299 -119 418 -127 649 -11 328
51 611 161 733 21 23 50 44 67 47 42 9 98 -29 155 -108 25 -34 53 -68 62 -74
26 -21 60 -15 78 12 21 32 15 120 -22 345 -36 213 -31 353 15 490 18 52 46
120 63 150 38 68 261 410 268 410 3 0 38 -82 77 -183z M27047 22303 c-20 -19
6 -74 139 -300 179 -304 210 -348 343 -486 250 -258 542 -444 718 -455 46 -3
84 0 103 8 107 44 105 224 -5 446 -98 200 -241 362 -406 461 -206 124 -430
219 -678 288 -163 44 -201 51 -214 38z m247 -123 c189 -53 462 -176 627 -282
85 -54 214 -182 277 -274 89 -132 151 -279 159 -381 5 -57 4 -63 -22 -88 -25
-25 -31 -27 -85 -22 -188 17 -592 315 -803 594 -40 52 -297 477 -297 490 0 2
8 2 18 -1 9 -3 66 -19 126 -36z M27738 21163 c-28 -31 -22 -73 36 -225 30 -79
79 -216 110 -305 30 -89 62 -176 71 -194 45 -87 268 -284 444 -393 193 -119
332 -176 431 -176 51 0 65 4 85 25 22 21 25 33 25 90 0 130 -70 379 -141 497
-133 224 -362 420 -654 559 -277 131 -373 160 -407 122z m139 -84 c146 -57
398 -186 482 -247 183 -131 328 -289 401 -437 53 -107 112 -322 108 -395 -3
-55 -3 -55 -37 -58 -134 -13 -571 256 -751 462 -64 74 -70 85 -136 279 -31 89
-78 220 -105 290 -27 71 -49 131 -49 133 0 7 8 5 87 -27z M28127 20153 c-4 -3
-7 -17 -7 -31 0 -34 195 -582 237 -666 191 -379 586 -774 809 -811 51 -8 115
8 139 35 57 63 25 364 -60 545 -51 110 -149 238 -290 381 -160 161 -223 208
-534 402 -225 139 -275 164 -294 145z m324 -253 c243 -153 286 -186 440 -340
133 -131 231 -255 280 -352 57 -114 110 -352 95 -432 -4 -23 -16 -42 -32 -53
-24 -15 -29 -15 -80 1 -167 53 -444 313 -627 591 -90 137 -138 240 -226 490
-45 126 -81 230 -81 232 0 6 33 -14 231 -137z M3355 19466 c-32 -32 -46 -89
-55 -232 -10 -146 -39 -238 -106 -336 -92 -135 -222 -231 -394 -290 l-95 -32
-260 -6 -260 -5 -3 -32 c-3 -30 7 -39 244 -228 354 -283 423 -359 444 -492 11
-68 0 -148 -55 -408 -41 -193 -44 -286 -10 -311 37 -27 96 -17 206 37 150 73
262 151 361 250 47 48 96 90 108 94 64 20 305 -84 545 -236 245 -155 328 -186
370 -139 32 36 16 121 -77 400 -97 289 -114 365 -98 437 23 99 88 170 463 502
179 158 207 187 207 212 0 22 -5 30 -22 33 -13 3 -189 10 -393 15 -386 11
-438 16 -528 60 -85 41 -138 121 -231 351 -79 192 -158 321 -222 361 -45 27
-109 25 -139 -5z m95 -56 c48 -26 139 -182 210 -360 86 -215 142 -297 238
-348 96 -51 177 -62 540 -72 178 -4 325 -10 327 -12 1 -1 -92 -86 -207 -188
-369 -326 -408 -378 -408 -541 0 -104 24 -200 108 -444 61 -175 90 -280 79
-291 -8 -8 -107 47 -261 143 -303 190 -500 267 -622 244 -34 -6 -57 -23 -130
-98 -49 -50 -123 -113 -164 -140 -83 -56 -271 -153 -295 -153 -25 0 -18 66 26
268 28 127 43 222 46 296 12 240 -36 310 -427 622 l-199 159 197 6 c232 6 292
19 437 89 165 80 278 187 350 331 48 93 64 161 74 310 6 81 15 138 25 158 18
33 27 37 56 21z M26508 19430 c-37 -28 -98 -153 -158 -320 -114 -315 -173
-374 -403 -399 -53 -6 -261 -11 -462 -11 -316 0 -366 -2 -371 -15 -12 -29 7
-61 64 -105 249 -197 548 -443 600 -494 75 -73 102 -124 102 -192 0 -62 -20
-126 -108 -344 -93 -233 -122 -328 -122 -400 0 -72 15 -90 73 -90 75 0 195 72
581 348 104 74 194 135 201 135 15 0 407 -322 645 -532 269 -236 279 -233 215
58 -42 192 -144 553 -186 659 -35 88 -36 109 -5 170 59 115 164 203 482 402
126 78 237 149 247 158 20 18 22 45 4 60 -7 6 -175 38 -372 72 -399 68 -452
79 -539 119 -120 55 -152 100 -166 239 -18 166 -102 390 -178 468 -27 28 -40
34 -76 34 -28 0 -52 -7 -68 -20z m133 -132 c60 -99 105 -237 123 -375 17 -130
39 -180 99 -224 102 -75 189 -100 607 -169 168 -28 309 -52 313 -53 5 -1 -81
-58 -190 -126 -301 -188 -413 -282 -478 -403 -46 -84 -44 -134 8 -284 74 -213
197 -668 184 -681 -2 -2 -69 54 -148 123 -123 108 -361 307 -572 477 -32 26
-68 47 -81 47 -14 0 -98 -54 -207 -132 -380 -272 -544 -376 -575 -364 -25 9 4
104 117 387 95 240 112 302 107 394 -7 136 -43 177 -414 476 -151 122 -276
225 -279 229 -2 4 161 10 363 13 273 4 384 10 434 21 192 43 253 113 363 421
49 135 105 257 133 288 26 29 44 16 93 -65z M28527 18953 c-15 -15 -4 -67 58
-264 36 -114 81 -272 100 -351 42 -171 135 -638 165 -833 70 -450 108 -614
175 -750 29 -61 47 -113 54 -162 17 -110 13 -292 -9 -468 -38 -304 -23 -471
60 -634 97 -193 394 -525 544 -607 95 -52 153 -32 196 68 60 140 39 380 -55
613 -66 164 -136 279 -287 473 -117 151 -206 307 -186 327 10 11 79 -39 173
-124 50 -45 100 -84 111 -87 71 -18 117 26 131 124 14 102 8 380 -10 459 -53
233 -159 398 -426 662 l-146 143 80 -50 c233 -144 327 -167 361 -87 19 47 19
275 -1 391 -21 117 -59 243 -100 324 -106 211 -362 455 -735 704 -187 124
-234 148 -253 129z m466 -372 c102 -81 282 -256 351 -340 125 -153 188 -317
216 -561 11 -94 6 -214 -10 -240 -13 -21 -63 3 -298 144 -163 98 -218 126
-245 126 -20 0 -39 -5 -42 -11 -19 -30 18 -75 243 -299 312 -310 407 -444 463
-657 38 -144 35 -471 -4 -511 -12 -11 -29 1 -103 69 -106 96 -174 139 -226
139 -123 0 -79 -175 104 -413 143 -187 196 -268 257 -392 134 -271 172 -499
106 -643 -13 -29 -31 -55 -39 -58 -39 -15 -205 120 -335 271 -252 293 -313
422 -312 660 0 61 8 162 17 225 12 79 18 178 18 315 0 223 -12 299 -63 389
-58 102 -106 297 -161 654 -68 441 -172 927 -255 1194 -30 98 -55 182 -55 188
0 13 269 -166 373 -249z M758 18817 c-58 -54 -105 -250 -114 -472 -16 -371 77
-733 260 -1020 61 -95 128 -128 182 -91 44 31 95 180 160 468 43 188 48 304
20 450 -49 255 -201 553 -334 655 -37 28 -52 33 -96 33 -42 0 -59 -5 -78 -23z
m179 -121 c134 -146 260 -459 278 -687 6 -76 3 -103 -34 -271 -45 -203 -101
-389 -127 -426 -16 -23 -17 -23 -36 -5 -59 53 -172 268 -222 422 -56 172 -78
304 -83 496 -4 124 -1 195 10 263 21 127 55 237 83 268 22 23 25 24 52 10 16
-8 52 -40 79 -70z M495 17565 c-39 -20 -72 -69 -98 -147 -29 -89 -36 -350 -12
-509 40 -276 125 -503 252 -674 103 -139 179 -190 270 -183 62 5 93 29 128 99
57 111 81 394 50 580 -40 241 -159 507 -316 705 -91 114 -202 167 -274 129z
m120 -87 c132 -88 310 -398 382 -668 59 -224 35 -553 -50 -655 -36 -44 -70
-46 -123 -6 -197 145 -348 494 -385 891 -19 193 13 376 76 444 31 33 41 33
100 -6z M344 16271 c-71 -43 -106 -182 -107 -421 -1 -177 12 -265 58 -401 47
-139 102 -223 227 -356 120 -127 192 -218 224 -285 10 -21 15 -41 11 -44 -12
-12 -110 56 -222 152 -141 123 -163 136 -217 132 -39 -3 -45 -7 -63 -43 -18
-36 -20 -61 -20 -260 0 -314 26 -466 108 -639 86 -179 248 -356 509 -552 127
-95 142 -104 182 -104 70 0 73 38 21 216 -73 247 -93 460 -105 1114 -9 501
-18 627 -61 840 -41 205 -85 312 -182 442 -145 197 -268 267 -363 209z m139
-82 c46 -30 144 -140 206 -232 48 -71 80 -149 112 -273 60 -239 79 -449 84
-944 6 -625 29 -854 114 -1143 l20 -69 -27 18 c-73 47 -247 189 -334 272 -223
214 -315 399 -347 694 -19 169 -11 441 12 465 9 8 48 -19 135 -96 167 -146
240 -191 305 -191 48 0 67 22 67 75 0 81 -81 203 -255 385 -139 145 -199 253
-245 441 -54 221 -24 560 53 614 31 22 48 19 100 -16z M29055 15409 c-4 -6 -4
-320 0 -698 8 -847 -9 -1376 -51 -1544 -31 -126 -11 -219 83 -382 63 -110 113
-179 290 -402 137 -173 156 -193 183 -193 25 0 30 5 39 38 117 443 141 589
122 749 -25 212 -83 356 -276 684 -53 90 -101 172 -107 182 -5 10 30 -16 79
-58 168 -145 240 -179 298 -141 34 22 49 56 81 177 25 92 28 122 28 264 1 219
-15 292 -99 462 -87 175 -268 445 -455 678 -125 157 -156 191 -180 193 -15 2
-31 -2 -35 -9z m213 -306 c186 -235 396 -565 442 -696 29 -81 50 -217 50 -317
0 -132 -41 -325 -79 -372 l-19 -22 -53 36 c-30 19 -107 81 -173 137 -145 125
-158 133 -193 129 -23 -2 -29 -8 -31 -35 -4 -38 33 -113 163 -333 151 -255
208 -375 251 -530 50 -179 43 -305 -35 -615 l-47 -189 -119 149 c-215 270
-310 418 -355 553 -19 57 -19 67 -6 105 7 23 19 89 25 147 28 267 34 509 33
1260 -2 655 0 772 12 760 7 -8 68 -84 134 -167z M29966 14628 c-3 -57 -8 -177
-11 -268 -26 -746 -127 -1589 -285 -2364 -625 -3074 -2208 -5853 -4571 -8021
-1986 -1823 -4361 -3057 -6954 -3615 -823 -177 -1758 -293 -2545 -315 -264 -8
-320 -13 -320 -31 0 -24 764 -20 1063 6 3177 277 6134 1545 8557 3672 664 583
1290 1237 1851 1933 1883 2336 3004 5157 3239 8149 5 71 10 315 10 542 0 349
-2 414 -14 414 -11 0 -15 -24 -20 -102z M308 13745 c-138 -78 -76 -526 118
-846 137 -226 247 -335 534 -525 245 -162 280 -175 280 -107 0 44 -83 497
-111 608 -62 244 -206 525 -331 647 -69 68 -202 164 -276 200 -77 38 -170 48
-214 23z m160 -80 c112 -52 271 -179 343 -274 64 -86 179 -318 223 -451 33
-98 133 -587 122 -597 -2 -2 -84 49 -183 113 -260 173 -398 319 -523 555 -134
256 -190 563 -119 653 26 33 67 34 137 1z M4173 13471 c-35 -22 -73 -77 -99
-141 -32 -80 -126 -135 -367 -215 -450 -150 -1151 -264 -1437 -234 -51 5 -95
11 -99 13 -3 2 -42 12 -86 21 -104 21 -168 13 -207 -25 -26 -26 -28 -35 -28
-105 0 -131 53 -331 130 -490 48 -100 79 -135 120 -135 33 0 38 7 60 89 18 69
91 130 234 201 230 112 557 201 1072 294 188 34 231 39 220 27 -7 -9 -204
-234 -437 -501 -693 -792 -857 -1000 -969 -1230 -34 -73 -40 -93 -40 -151 0
-63 2 -69 32 -94 31 -26 36 -27 118 -22 92 6 316 58 888 206 613 159 927 220
1134 221 106 0 126 -7 194 -69 135 -123 250 -117 270 16 23 158 -46 598 -111
696 -22 34 -66 51 -111 43 -38 -8 -94 -58 -192 -173 -76 -90 -225 -166 -522
-266 -306 -103 -664 -181 -684 -149 -11 18 241 308 593 682 112 118 240 258
286 310 324 372 401 583 324 890 -34 135 -79 229 -132 279 -37 34 -111 39
-154 12z m121 -92 c101 -119 152 -413 97 -569 -61 -174 -196 -351 -591 -770
-244 -259 -453 -493 -555 -620 -82 -102 -94 -140 -55 -175 85 -77 767 93 1155
287 110 55 125 68 205 163 38 46 84 94 101 106 l32 22 18 -22 c26 -32 57 -136
79 -269 40 -231 43 -374 8 -409 -14 -13 -19 -13 -47 1 -17 9 -58 41 -91 70
-79 70 -120 81 -289 73 -215 -10 -601 -85 -1061 -207 -228 -60 -627 -160 -778
-195 -145 -33 -177 -34 -204 -7 -20 20 -20 22 -4 74 44 136 217 385 510 732
56 66 302 349 549 630 363 414 447 516 447 538 0 17 -7 31 -17 35 -19 7 -472
-71 -708 -123 -600 -131 -943 -285 -998 -446 l-14 -43 -30 60 c-61 121 -123
322 -137 443 -6 47 -4 55 18 77 31 31 58 31 156 4 118 -33 372 -37 614 -10
567 65 1208 239 1370 373 24 19 49 55 66 92 32 73 75 126 100 126 10 0 34 -19
54 -41z M26495 13465 c-152 -35 -409 -161 -537 -264 -193 -155 -336 -387 -463
-754 -67 -193 -312 -1093 -322 -1184 -7 -63 6 -83 52 -83 31 0 69 22 200 115
135 96 323 95 818 -6 495 -100 884 -220 1130 -346 73 -37 108 -64 169 -126 75
-76 79 -79 114 -74 20 3 46 14 57 24 84 74 234 629 291 1073 47 366 23 673
-72 898 -92 219 -284 404 -553 531 -133 63 -357 146 -479 178 -118 31 -312 40
-405 18z m380 -85 c112 -30 331 -113 453 -170 389 -185 575 -437 623 -841 30
-261 -20 -676 -136 -1124 -51 -196 -81 -288 -119 -363 -32 -63 -53 -75 -75
-41 -54 82 -133 137 -312 216 -452 198 -1417 409 -1714 374 -114 -14 -164 -34
-262 -107 -48 -35 -88 -62 -89 -61 -3 2 66 264 201 767 173 646 349 973 626
1161 88 60 332 176 419 199 99 27 268 22 385 -10z M26025 12816 c-38 -8 -83
-20 -100 -27 -100 -43 -177 -136 -256 -304 -104 -222 -69 -347 128 -448 172
-88 587 -205 1088 -307 379 -77 428 -84 610 -84 157 -1 173 1 211 21 23 12 54
37 69 55 41 48 102 181 110 237 8 60 -14 156 -52 221 -33 56 -154 219 -212
284 -162 183 -364 267 -771 320 -298 40 -707 55 -825 32z m530 -71 c497 -40
728 -101 912 -239 104 -78 303 -342 338 -447 22 -65 11 -123 -40 -215 -42 -74
-91 -120 -142 -131 -138 -29 -568 39 -1140 182 -435 108 -642 183 -735 265
-88 77 -87 141 4 322 63 124 124 200 187 233 90 46 292 56 616 30z M28955
12798 c-4 -11 -212 -910 -320 -1383 -102 -447 -142 -799 -116 -1025 24 -209
137 -460 234 -521 47 -29 118 -22 158 17 85 80 154 309 174 574 13 173 -29
473 -101 722 -19 66 -34 122 -34 126 0 3 36 -50 81 -119 107 -164 112 -169
168 -169 40 0 49 5 90 48 73 75 147 246 187 434 27 124 25 337 -4 445 -64 237
-133 379 -319 659 -124 186 -139 204 -165 204 -16 0 -31 -6 -33 -12z m175
-293 c123 -187 180 -297 234 -452 46 -134 66 -234 66 -334 0 -200 -103 -512
-199 -604 -27 -25 -33 -27 -45 -15 -18 19 -145 211 -182 275 -15 28 -66 107
-111 178 -61 93 -88 127 -103 127 -16 0 -19 5 -15 23 19 77 225 982 225 986 0
11 23 -21 130 -184z m-224 -1313 c136 -471 146 -794 33 -1106 -30 -84 -87
-166 -114 -166 -34 0 -88 66 -140 174 -89 182 -100 235 -99 471 1 258 26 430
131 892 l36 162 54 -137 c30 -75 74 -206 99 -290z M507 12563 c-11 -11 -8
-479 4 -555 39 -251 185 -459 496 -705 113 -90 271 -202 320 -227 46 -23 90
-21 104 6 14 26 7 207 -16 417 -25 221 -94 395 -226 571 -87 115 -174 190
-410 353 -201 139 -249 164 -272 140z m257 -222 c263 -181 387 -310 481 -504
78 -162 104 -287 122 -586 l6 -115 -39 24 c-137 84 -384 282 -494 396 -128
132 -194 238 -241 379 -20 63 -23 94 -27 304 -3 193 -2 232 10 226 7 -5 89
-60 182 -124z M794 11279 c-17 -18 -19 -41 -22 -173 -6 -238 32 -404 133 -580
123 -216 300 -368 617 -530 215 -110 288 -127 333 -81 44 43 30 121 -62 350
-80 201 -152 349 -216 446 -76 116 -204 266 -279 329 -76 64 -274 197 -345
234 -66 33 -132 35 -159 5z m217 -128 c68 -44 157 -106 198 -138 133 -104 303
-318 389 -488 57 -112 169 -385 195 -472 27 -92 19 -104 -50 -78 -62 23 -258
122 -348 176 -333 200 -519 477 -555 826 -10 95 -6 224 7 246 11 18 49 2 164
-72z M25190 10796 c-180 -52 -299 -187 -520 -591 -157 -285 -448 -871 -474
-953 -31 -100 -32 -121 -5 -156 26 -33 74 -34 179 -5 59 16 90 20 146 15 392
-35 1341 -463 1689 -763 39 -33 79 -76 89 -95 19 -36 19 -37 -2 -110 -38 -125
-26 -188 35 -188 88 0 244 179 377 432 73 138 189 397 221 491 33 99 34 179 3
201 -33 23 -77 20 -180 -15 -91 -31 -95 -31 -183 -21 -169 21 -362 86 -505
171 -77 46 -150 112 -150 136 0 39 295 85 554 85 226 1 464 18 550 40 182 46
248 123 381 439 63 150 95 257 95 313 0 29 -6 41 -25 54 -40 26 -54 20 -199
-95 -131 -105 -509 -166 -876 -142 -91 5 -181 15 -201 21 -104 30 -151 103
-174 275 -31 225 -51 284 -117 352 -83 84 -195 113 -468 118 -142 3 -207 1
-240 -9z m440 -72 c216 -38 274 -106 311 -369 36 -262 77 -325 239 -366 75
-19 609 -20 730 -1 220 34 358 86 448 167 29 26 55 45 58 42 12 -12 -95 -287
-173 -441 -45 -88 -119 -168 -184 -196 -93 -40 -189 -51 -519 -60 -320 -9
-430 -18 -555 -46 -133 -29 -165 -59 -145 -134 36 -135 407 -319 705 -349 102
-10 173 -2 259 29 77 28 87 23 75 -31 -27 -118 -240 -570 -340 -718 -73 -108
-190 -235 -196 -211 -2 8 6 42 17 74 29 86 26 133 -11 189 -117 177 -714 518
-1269 725 -358 133 -583 172 -748 128 -92 -25 -99 -19 -71 62 35 105 415 855
540 1069 182 308 300 423 466 453 62 11 254 3 363 -16z M25024 10290 c-100
-21 -181 -81 -224 -167 -21 -40 -25 -62 -25 -133 0 -75 3 -91 29 -138 96 -173
430 -352 656 -352 178 0 271 83 295 262 9 69 -12 204 -41 265 -69 143 -305
258 -549 268 -55 2 -118 0 -141 -5z m278 -84 c189 -48 340 -155 366 -259 45
-176 7 -309 -103 -358 -133 -61 -434 40 -611 204 -137 127 -149 250 -35 361
79 78 211 96 383 52z M28335 10261 c-69 -42 -145 -174 -213 -373 -64 -184 -77
-255 -76 -408 2 -179 23 -258 167 -615 l113 -280 32 -3 33 -3 99 205 c150 310
180 430 180 710 0 277 -68 590 -157 719 -46 66 -117 86 -178 48z m101 -76 c35
-35 77 -132 107 -250 80 -306 81 -615 2 -845 -32 -93 -177 -392 -186 -383 -16
17 -200 493 -219 568 -30 114 -36 240 -17 350 19 106 82 295 138 413 38 79
112 172 138 172 6 0 23 -11 37 -25z M3985 10140 c-826 -27 -1081 -49 -1199
-103 -67 -31 -86 -63 -86 -148 0 -125 118 -394 217 -496 43 -45 57 -53 88 -53
20 0 45 5 55 10 22 12 40 68 40 126 0 128 151 260 311 272 85 6 126 -8 188
-64 66 -59 126 -151 205 -314 110 -225 108 -259 -17 -383 -96 -95 -178 -150
-266 -178 -56 -17 -81 -19 -158 -13 -88 6 -92 5 -103 -17 -19 -34 -7 -134 25
-214 42 -106 200 -419 252 -499 60 -94 118 -163 167 -198 51 -37 122 -40 153
-5 25 26 43 86 43 140 0 125 233 401 915 1082 465 464 716 768 740 895 16 89
-78 122 -425 150 -177 14 -837 20 -1145 10z m1170 -80 c137 -13 303 -44 318
-59 14 -14 -11 -67 -76 -156 -135 -187 -369 -445 -752 -825 -397 -394 -581
-595 -710 -775 -79 -111 -95 -145 -105 -232 -13 -122 -43 -131 -128 -38 -73
80 -136 180 -233 370 -91 181 -149 319 -149 358 0 24 2 24 68 19 138 -9 271
45 411 169 119 105 151 158 151 252 0 81 -22 151 -92 291 -64 130 -146 253
-199 301 -23 20 -66 49 -97 62 -49 23 -63 25 -148 21 -80 -4 -103 -10 -168
-41 -134 -64 -200 -152 -215 -287 -4 -38 -11 -73 -15 -77 -17 -17 -99 94 -157
211 -71 146 -105 266 -86 304 41 85 245 110 1132 142 316 11 1098 5 1250 -10z
M4564 9984 c-131 -22 -458 -93 -530 -115 -131 -40 -163 -108 -105 -222 39 -76
164 -233 210 -264 51 -34 127 -32 200 7 100 54 455 362 514 447 15 22 30 56
34 76 4 29 1 40 -20 61 -25 25 -31 26 -124 25 -54 -1 -135 -7 -179 -15z m224
-50 c12 -4 22 -12 22 -20 0 -52 -475 -462 -566 -488 -13 -4 -33 2 -55 17 -43
29 -159 172 -195 242 -28 52 -28 54 -10 74 28 31 102 55 311 99 224 48 343 69
455 80 8 1 25 -1 38 -4z M1241 10012 c-13 -4 -34 -20 -45 -35 -18 -25 -21 -46
-25 -152 -3 -106 0 -133 19 -189 76 -230 395 -583 625 -692 42 -20 99 -38 143
-44 88 -12 138 -36 182 -87 57 -64 26 -59 -254 42 -160 57 -236 64 -268 25
-30 -37 -19 -116 41 -298 130 -389 277 -559 666 -771 l125 -68 -57 -7 c-126
-15 -159 -54 -157 -186 3 -171 88 -331 262 -491 136 -125 390 -271 632 -363
52 -20 103 -40 113 -44 10 -4 -31 -5 -91 -4 -127 4 -184 -8 -224 -48 -73 -73
-6 -244 166 -427 260 -275 596 -464 871 -489 l70 -6 -75 -19 c-93 -24 -186
-68 -224 -108 -132 -137 119 -414 579 -638 217 -105 372 -150 560 -160 140 -8
147 -5 -172 -69 -131 -26 -244 -52 -250 -57 -33 -25 -11 -54 180 -244 124
-123 218 -207 264 -237 183 -118 393 -178 671 -192 117 -7 214 -21 155 -23
-36 -2 -151 -47 -193 -76 -68 -47 -95 -134 -67 -212 73 -198 477 -400 937
-467 58 -9 175 -19 260 -22 85 -4 166 -11 180 -15 l25 -7 -25 -1 c-44 -2 -169
-40 -229 -71 -101 -51 -127 -100 -99 -191 44 -147 337 -306 708 -384 102 -22
161 -28 320 -32 l195 -4 269 45 c148 24 273 49 278 54 34 34 16 49 -643 487
-661 440 -857 580 -1199 855 -765 616 -1648 1464 -2261 2170 -267 308 -419
507 -640 835 -168 250 -297 430 -407 570 -98 123 -187 287 -519 955 -158 316
-319 635 -360 708 -165 300 -312 512 -445 644 -66 65 -95 86 -181 127 -203 96
-323 132 -386 113z m173 -102 c233 -92 303 -140 423 -283 185 -222 303 -428
688 -1202 297 -596 452 -890 501 -950 98 -121 280 -373 434 -600 242 -358 361
-515 609 -805 624 -728 1526 -1598 2311 -2229 411 -331 522 -410 1233 -881
301 -199 546 -364 545 -366 -2 -2 -100 -20 -218 -40 -179 -31 -238 -37 -355
-37 -269 0 -559 71 -790 191 -100 52 -209 150 -221 197 -6 25 -2 33 30 61 49
43 126 70 280 100 150 30 179 43 174 82 -5 41 -37 50 -213 62 -450 30 -572 48
-787 120 -216 72 -393 171 -477 267 -56 63 -70 111 -45 154 26 44 101 83 219
114 117 31 145 47 145 79 0 48 -45 60 -300 76 -268 17 -442 63 -616 161 -63
35 -116 80 -257 219 -147 144 -175 176 -160 182 10 4 79 19 153 33 204 40 533
117 548 128 7 6 12 22 10 36 l-3 26 -205 7 c-260 9 -337 20 -483 68 -315 105
-695 353 -788 514 -36 63 -36 76 -1 109 43 41 127 74 270 107 73 16 142 34
152 40 23 12 26 52 6 69 -8 7 -83 18 -167 26 -176 17 -240 32 -350 79 -308
134 -671 461 -731 659 -13 44 -5 65 33 84 34 18 179 16 300 -3 120 -19 149
-12 149 35 0 44 -21 55 -314 171 -488 192 -790 458 -838 738 -15 86 -1 128 48
148 45 19 68 18 201 -8 106 -21 114 -21 130 -5 13 13 15 23 7 44 -8 24 -41 44
-209 128 -399 200 -547 327 -674 582 -47 94 -134 353 -135 403 -1 34 0 35 32
32 18 -1 108 -30 200 -63 191 -70 287 -86 322 -54 54 49 -21 176 -134 226 -23
9 -73 22 -113 27 -129 18 -264 105 -434 279 -160 164 -270 330 -304 459 -18
68 -12 185 12 222 13 21 20 23 51 17 19 -4 67 -19 106 -35z M5790 9076 c-160
-67 -384 -197 -436 -253 -29 -31 -32 -83 -6 -106 27 -24 60 -34 241 -72 170
-35 265 -62 333 -96 45 -23 108 -77 108 -93 0 -26 -108 -151 -247 -286 -310
-303 -760 -651 -1008 -781 -170 -89 -277 -107 -410 -69 -78 22 -165 26 -183 8
-22 -22 -13 -86 19 -151 37 -72 221 -351 311 -470 159 -211 313 -381 395 -438
48 -34 112 -40 134 -12 19 22 16 90 -6 161 -17 57 -17 60 3 98 92 180 597 681
1020 1012 203 158 438 302 494 302 47 0 73 -146 55 -315 -25 -242 -10 -381 46
-420 30 -21 101 -19 145 4 45 23 123 103 186 190 158 218 81 418 -410 1058
-242 315 -545 665 -628 724 -47 35 -82 36 -156 5z m152 -103 c178 -169 645
-749 856 -1063 125 -187 192 -332 192 -418 0 -49 -36 -120 -103 -204 -63 -80
-133 -138 -164 -138 -15 0 -28 11 -40 33 -15 27 -17 51 -14 157 10 305 7 433
-12 482 -35 90 -104 100 -240 35 -360 -171 -1228 -944 -1425 -1271 -44 -72
-49 -115 -23 -200 12 -38 19 -71 17 -74 -17 -17 -221 192 -354 363 -153 197
-399 571 -390 594 1 5 44 -2 93 -16 247 -66 449 11 890 342 239 179 457 366
641 550 226 224 264 291 214 373 -46 75 -188 137 -432 187 -187 38 -238 52
-238 65 0 17 155 113 299 184 84 42 158 76 163 76 5 0 37 -26 70 -57z M27893
9081 c-58 -27 -123 -113 -197 -263 -103 -206 -152 -417 -163 -698 -10 -260 23
-434 97 -511 l39 -41 68 4 c38 2 86 12 108 23 62 29 146 121 192 211 108 207
146 445 124 779 -28 414 -111 569 -268 496z m100 -81 c104 -123 140 -635 66
-929 -55 -218 -171 -390 -288 -425 -53 -16 -73 -9 -107 42 -44 64 -59 160 -59
372 0 208 8 271 56 460 41 160 147 376 223 454 30 31 61 56 69 56 8 0 27 -13
40 -30z M23473 8310 c-48 -21 -98 -90 -109 -149 -31 -163 158 -590 532 -1201
376 -614 604 -1068 604 -1202 0 -117 81 -168 183 -117 90 46 222 219 327 427
60 119 72 172 45 202 -25 27 -71 26 -178 -6 -76 -22 -92 -24 -125 -13 -45 14
-100 53 -135 95 -39 46 -103 171 -122 238 -16 56 -16 63 -1 112 37 118 204
288 350 359 100 48 167 65 255 65 123 0 228 -59 253 -142 10 -34 8 -50 -15
-131 -29 -100 -33 -138 -17 -168 16 -29 87 -26 136 7 94 63 251 239 426 479
161 220 208 307 208 385 0 54 -17 65 -93 54 -34 -4 -114 -8 -177 -7 -186 2
-187 2 -1354 448 -730 279 -877 318 -993 265z m238 -74 c129 -34 253 -79 954
-346 736 -280 835 -316 947 -341 115 -25 268 -34 342 -20 33 6 61 9 64 6 17
-16 -134 -248 -302 -465 -132 -170 -336 -372 -336 -332 0 5 9 35 20 66 47 138
33 235 -46 304 -58 52 -117 72 -225 79 -157 10 -334 -49 -464 -154 -76 -62
-187 -190 -217 -251 -34 -69 -37 -183 -8 -265 53 -148 145 -271 235 -313 65
-31 158 -32 241 -4 32 11 65 19 73 18 17 -4 -74 -183 -157 -308 -62 -93 -166
-204 -203 -215 -30 -10 -59 25 -59 69 0 83 -48 211 -175 466 -111 223 -199
382 -353 635 -251 416 -297 494 -377 649 -131 252 -216 464 -231 575 -12 91
54 171 142 171 23 0 84 -11 135 -24z M23717 7743 c-20 -19 3 -78 99 -259 139
-261 185 -334 260 -413 75 -81 137 -114 220 -119 110 -7 183 54 224 186 43
138 18 239 -82 326 -72 63 -153 100 -436 200 -236 84 -271 93 -285 79z m494
-232 c121 -46 238 -145 258 -218 19 -67 -37 -209 -98 -252 -81 -58 -213 18
-325 188 -41 63 -226 401 -226 414 0 6 250 -79 391 -132z M27342 8183 c-61
-89 -342 -571 -387 -666 -87 -182 -100 -239 -100 -452 1 -166 3 -191 33 -322
58 -252 83 -303 152 -303 52 0 91 30 188 145 152 181 294 421 326 552 32 131
28 374 -10 577 -18 93 -112 452 -125 479 -15 26 -55 21 -77 -10z m81 -273 c68
-258 80 -338 81 -535 0 -194 -8 -231 -91 -385 -88 -162 -263 -399 -340 -460
-36 -28 -49 -14 -80 92 -118 408 -99 648 75 956 65 115 305 513 307 510 1 -2
23 -82 48 -178z M22685 7317 c-133 -76 -401 -274 -467 -345 -79 -84 -108 -138
-108 -198 0 -43 4 -56 22 -68 28 -20 109 -21 173 -1 45 13 52 13 94 -6 200
-88 651 -578 943 -1024 93 -141 192 -336 212 -418 41 -163 -76 -377 -255 -464
-217 -106 -372 -46 -658 253 -297 311 -609 742 -750 1034 -67 138 -83 202 -65
253 18 51 28 130 20 161 -22 89 -133 71 -311 -51 -252 -173 -633 -513 -684
-610 -6 -12 -11 -38 -11 -57 0 -48 31 -67 123 -76 86 -8 143 -32 251 -105 178
-119 396 -324 691 -650 450 -496 767 -735 943 -711 121 17 272 91 437 216 261
195 481 438 574 630 31 65 36 85 36 150 0 71 -3 81 -52 180 -100 199 -293 491
-562 850 -241 320 -385 552 -452 723 -42 110 -44 125 -20 201 24 77 27 126 9
144 -20 20 -89 14 -133 -11z m52 -125 c-19 -65 -20 -78 -8 -133 32 -156 210
-476 415 -744 311 -409 515 -712 629 -935 69 -136 70 -159 14 -273 -149 -301
-654 -738 -922 -798 -44 -10 -60 -9 -102 5 -169 56 -459 305 -818 701 -294
325 -515 530 -701 652 -110 71 -166 94 -252 100 -40 3 -75 9 -77 14 -23 37
436 449 679 610 90 60 171 97 183 85 4 -4 1 -32 -7 -64 -36 -152 -23 -222 79
-417 228 -439 739 -1067 1012 -1245 89 -57 151 -73 278 -68 104 3 111 5 194
46 236 117 353 375 273 608 -82 243 -373 667 -715 1041 -191 210 -402 383
-486 399 -33 6 -51 5 -172 -12 -48 -6 -53 -5 -53 13 0 31 55 106 125 172 90
83 439 330 451 318 1 -1 -7 -35 -19 -75z M7367 7202 c-21 -23 -22 -83 -2 -148
22 -72 19 -92 -24 -181 -199 -411 -987 -1237 -1334 -1399 -37 -17 -70 -24
-112 -24 -34 0 -66 -5 -73 -12 -20 -20 -13 -60 18 -116 57 -98 444 -477 595
-581 45 -31 76 -45 109 -48 83 -10 103 12 156 167 48 145 129 279 314 525 318
423 813 926 1017 1035 l58 31 58 -29 c80 -41 118 -48 148 -28 93 61 -98 315
-413 549 -323 239 -467 312 -515 259z m373 -252 c191 -136 314 -241 395 -336
62 -73 109 -143 102 -151 -3 -2 -29 9 -59 26 -63 36 -96 38 -155 11 -302 -137
-1115 -1032 -1330 -1465 -22 -44 -50 -111 -63 -150 -31 -96 -47 -125 -69 -125
-46 0 -267 185 -490 410 -87 88 -171 188 -171 203 0 4 17 7 38 7 20 0 63 11
94 24 337 138 1176 1011 1371 1425 47 101 58 179 33 241 -9 22 -16 50 -16 61
0 19 6 18 78 -21 42 -23 151 -95 242 -160z M26555 6944 c-326 -437 -387 -530
-443 -670 -49 -123 -62 -187 -62 -309 0 -178 59 -402 125 -473 27 -30 39 -36
87 -40 83 -7 131 22 264 153 158 155 220 260 259 436 28 127 30 400 6 759 -12
173 -24 321 -26 328 -3 6 -18 12 -34 12 -27 0 -43 -18 -176 -196z m184 -414
c18 -292 -7 -474 -85 -637 -37 -77 -60 -108 -149 -201 -111 -116 -185 -172
-227 -172 -53 0 -100 90 -140 265 -31 132 -28 256 7 365 55 170 108 258 374
617 l186 251 12 -156 c6 -87 16 -236 22 -332z M25860 5993 c-27 -27 -207 -212
-401 -413 -695 -720 -866 -907 -978 -1070 -165 -240 -178 -347 -94 -760 l48
-235 31 -3 c28 -3 49 15 221 180 104 101 216 213 247 248 145 162 251 372 292
575 8 39 17 135 21 215 6 144 7 145 20 95 7 -27 31 -138 53 -245 53 -251 46
-232 83 -228 26 2 58 32 190 173 321 345 390 463 417 718 10 90 8 147 -15 438
-15 184 -32 340 -37 347 -19 23 -49 12 -98 -35z m71 -358 c13 -173 19 -299 15
-352 -13 -158 -67 -298 -167 -429 -88 -117 -352 -397 -360 -382 -4 7 -19 74
-34 148 -32 160 -112 485 -126 512 -13 23 -56 24 -63 1 -2 -10 -7 -121 -11
-248 -4 -126 -13 -266 -21 -310 -29 -169 -108 -351 -217 -499 -63 -85 -448
-469 -458 -458 -10 11 -78 371 -85 448 -18 201 102 400 481 804 316 336 1020
1058 1022 1047 1 -6 12 -133 24 -282z M8785 5933 c-128 -16 -327 -79 -459
-145 -404 -202 -649 -529 -732 -973 -27 -141 -27 -492 -1 -615 78 -362 280
-633 578 -774 120 -57 216 -83 357 -98 402 -42 884 156 1151 473 165 196 278
427 333 682 18 86 22 134 23 302 0 211 -6 256 -52 400 -59 182 -159 330 -306
448 -208 169 -385 257 -586 292 -76 14 -231 18 -306 8z m379 -97 c155 -46 302
-131 479 -274 417 -338 442 -1063 56 -1612 -62 -87 -199 -229 -281 -288 -145
-106 -345 -198 -528 -243 -134 -32 -356 -33 -483 -1 -286 72 -513 254 -645
517 -88 176 -125 346 -125 570 1 461 183 844 520 1092 150 111 382 214 578
257 111 25 315 16 429 -18z M9096 5749 c-142 -23 -336 -176 -579 -458 -278
-323 -441 -608 -513 -895 -35 -137 -45 -387 -20 -498 40 -180 129 -286 271
-323 293 -76 691 176 986 623 37 56 104 173 147 260 290 574 307 927 56 1161
-119 111 -223 150 -348 130z m176 -95 c30 -15 87 -60 129 -103 119 -119 156
-218 146 -390 -9 -171 -74 -368 -213 -644 -122 -244 -220 -388 -368 -544 -113
-120 -225 -206 -341 -264 -122 -60 -209 -83 -286 -76 -196 18 -303 179 -302
457 2 384 191 766 608 1230 120 134 246 247 338 303 119 73 192 80 289 31z
M20260 5577 c-36 -13 -130 -52 -210 -86 -333 -145 -466 -227 -630 -391 -208
-206 -341 -460 -385 -733 -20 -122 -19 -349 1 -468 83 -485 461 -922 939
-1086 215 -73 499 -71 725 5 223 76 409 200 660 439 232 221 269 342 168 558
-61 130 -88 228 -95 345 -4 84 -2 104 21 174 29 88 32 124 13 150 -23 31 -122
18 -247 -33 -429 -174 -730 -389 -730 -520 0 -71 30 -85 164 -76 100 6 102 6
147 -23 169 -108 265 -421 173 -568 -99 -159 -368 -199 -634 -93 -99 40 -225
125 -291 196 -260 284 -546 1026 -527 1363 14 238 235 420 508 419 101 0 202
-22 402 -88 300 -99 378 -95 378 19 0 67 -49 158 -180 332 -124 166 -154 188
-246 188 -36 0 -85 -10 -124 -23z m187 -64 c24 -16 141 -166 212 -271 50 -75
92 -162 84 -175 -11 -18 -104 2 -267 57 -89 30 -198 62 -242 71 -109 24 -307
24 -393 1 -199 -54 -348 -206 -382 -391 -45 -240 110 -797 331 -1195 142 -256
257 -378 445 -471 142 -70 230 -91 390 -93 151 -1 237 20 318 77 96 68 137
154 137 287 0 206 -123 438 -266 501 -42 19 -58 20 -150 14 -129 -9 -132 -2
-36 93 112 113 293 222 553 335 130 57 229 91 229 79 0 -4 -10 -32 -22 -62
-18 -46 -22 -75 -22 -175 0 -167 19 -249 101 -428 81 -178 64 -229 -151 -442
-315 -312 -580 -460 -890 -494 -433 -49 -935 250 -1186 705 -172 310 -202 686
-83 1019 67 185 167 340 318 490 167 167 281 237 645 395 233 101 271 110 327
73z M10600 5094 c-61 -25 -68 -93 -17 -169 75 -112 72 -103 75 -220 14 -435
-360 -1478 -643 -1793 -34 -38 -69 -62 -130 -91 -113 -54 -140 -97 -95 -154
26 -33 127 -74 457 -186 293 -99 385 -118 416 -87 36 36 22 76 -70 197 -63 84
-78 139 -70 263 11 163 72 401 208 809 79 237 134 374 166 409 13 14 19 15 30
6 52 -43 124 -266 322 -999 123 -455 223 -736 321 -900 128 -215 214 -197 376
78 101 171 194 386 314 728 95 270 157 426 248 620 118 257 214 407 309 485
30 25 63 59 74 76 19 31 25 87 13 119 -18 45 -180 120 -465 213 -246 81 -309
81 -309 -1 0 -32 8 -52 35 -87 116 -151 134 -203 117 -342 -17 -137 -48 -251
-160 -578 -57 -168 -118 -347 -135 -397 -17 -51 -34 -93 -38 -93 -3 0 -50 143
-104 318 -54 174 -116 373 -137 442 -91 289 -160 571 -188 761 -23 155 -40
191 -134 285 -84 84 -158 127 -322 188 -210 78 -412 121 -464 100z m226 -99
c128 -37 298 -101 368 -138 77 -41 184 -141 219 -206 20 -36 31 -75 38 -138
23 -209 103 -507 334 -1250 81 -260 134 -414 143 -418 21 -8 49 3 57 23 42
104 295 859 323 962 33 126 36 145 36 290 1 173 -5 194 -83 290 -73 90 -70 84
-31 75 59 -12 302 -93 421 -140 122 -48 189 -87 189 -111 0 -8 -42 -56 -93
-107 -109 -107 -158 -183 -281 -439 -97 -200 -178 -398 -266 -653 -76 -221
-145 -391 -221 -552 -99 -210 -208 -373 -249 -373 -35 0 -114 123 -183 286
-81 189 -154 419 -262 824 -160 601 -235 830 -296 903 -26 32 -36 37 -73 37
-82 0 -120 -72 -250 -462 -140 -420 -203 -671 -213 -853 -8 -141 10 -205 86
-310 33 -44 58 -81 56 -83 -17 -18 -745 240 -745 263 0 3 38 23 84 45 62 30
97 54 132 93 153 168 334 536 480 972 116 347 171 597 181 815 7 162 -4 215
-63 302 -27 39 -43 71 -39 78 10 17 89 7 201 -25z M14190 4283 c-150 -52 -304
-235 -520 -618 -40 -71 -153 -285 -250 -475 -391 -763 -614 -1140 -676 -1140
-21 0 -93 -60 -110 -91 -48 -94 34 -183 213 -230 157 -41 501 -35 563 10 17
12 26 29 28 55 3 39 1 43 -109 136 -67 57 -104 132 -95 196 18 138 164 273
349 325 69 19 107 23 242 23 158 1 161 1 208 -27 60 -35 91 -82 129 -194 55
-160 46 -286 -22 -320 -14 -7 -52 -25 -85 -40 -68 -32 -105 -78 -105 -131 0
-46 56 -102 132 -130 131 -49 204 -57 508 -57 313 0 375 9 427 61 35 35 28 92
-20 170 -86 141 -200 547 -352 1259 -145 678 -274 1158 -327 1215 -23 24 -65
25 -128 3z m108 -136 c68 -187 170 -590 281 -1112 156 -733 269 -1134 362
-1283 28 -45 30 -55 18 -66 -27 -25 -84 -37 -239 -47 -313 -21 -605 25 -682
108 l-23 25 35 29 c19 16 61 39 93 51 93 34 127 91 127 214 0 66 -36 220 -68
294 -34 78 -76 126 -138 156 -48 24 -72 28 -164 32 -208 9 -399 -29 -521 -103
-74 -46 -154 -132 -186 -202 -36 -77 -37 -183 -4 -260 22 -50 92 -126 151
-164 14 -9 22 -20 19 -23 -26 -28 -311 -35 -436 -11 -91 17 -197 66 -220 101
-15 23 -15 26 8 51 13 14 42 34 64 44 22 10 54 33 71 51 93 97 398 635 679
1198 288 577 505 893 666 974 29 14 58 26 65 26 7 0 26 -37 42 -83z M13861
3708 c-21 -46 -100 -212 -175 -371 -153 -323 -176 -383 -176 -460 0 -95 32
-119 246 -185 216 -67 291 -65 329 9 28 53 16 246 -34 554 -24 143 -52 321
-64 395 l-22 135 -33 3 c-32 3 -33 1 -71 -80z m110 -398 c79 -502 82 -554 33
-587 -30 -19 -60 -14 -240 43 -138 43 -178 68 -182 111 -5 46 22 112 184 456
149 315 149 315 157 274 4 -23 25 -157 48 -297z M16022 4279 c-199 -18 -379
-57 -529 -115 -185 -71 -204 -143 -57 -210 66 -30 78 -40 113 -93 99 -153 192
-572 231 -1036 15 -168 15 -554 1 -670 -25 -207 -53 -289 -130 -390 -54 -70
-65 -95 -59 -141 8 -75 83 -71 783 40 297 47 648 101 780 121 296 45 391 66
468 107 68 36 102 81 125 161 15 56 31 601 18 651 -5 20 -13 26 -35 26 -24 0
-55 -29 -201 -187 -200 -218 -259 -276 -355 -348 -120 -90 -273 -155 -367
-155 -66 0 -138 29 -188 76 -69 65 -94 129 -135 352 -94 517 -139 1010 -116
1285 15 173 32 238 87 318 81 118 69 186 -38 208 -56 12 -258 12 -396 0z m387
-70 c17 -6 31 -14 31 -18 0 -4 -19 -34 -41 -66 -84 -117 -104 -248 -96 -638 7
-354 46 -697 128 -1112 35 -180 67 -254 140 -319 66 -59 130 -81 239 -80 101
1 176 21 280 75 138 72 249 172 523 468 l87 95 0 -210 c0 -381 -23 -431 -222
-488 -48 -14 -197 -41 -330 -61 -134 -20 -484 -75 -778 -121 -511 -81 -710
-106 -710 -89 0 4 24 40 54 79 85 111 114 206 137 450 15 162 7 605 -16 806
-52 480 -145 830 -256 971 -19 24 -48 44 -86 59 -32 13 -62 27 -67 31 -20 18
184 95 342 129 56 12 150 28 209 35 136 16 389 19 432 4z M23702 3926 c-259
-194 -530 -402 -603 -462 -287 -236 -572 -505 -661 -623 -23 -31 -45 -60 -49
-65 -4 -4 -5 18 -2 51 6 70 -9 93 -63 93 -59 0 -371 -170 -534 -290 -219 -163
-450 -433 -551 -643 -83 -177 -90 -294 -19 -362 27 -26 39 -30 104 -33 121 -6
247 40 416 153 117 78 235 186 296 271 25 35 63 107 84 160 35 87 64 136 73
123 94 -123 113 -134 227 -133 129 2 264 57 428 178 184 136 302 296 367 496
26 81 40 110 54 110 3 0 16 -16 29 -34 69 -101 203 -81 396 58 192 139 401
341 484 468 103 159 117 260 83 585 -12 114 -26 218 -31 231 -6 14 -18 22 -33
22 -16 0 -184 -120 -495 -354z m492 84 c29 -279 18 -368 -64 -503 -127 -210
-582 -587 -708 -587 -15 0 -39 18 -69 50 -45 48 -49 51 -92 48 -39 -3 -49 -8
-68 -36 -12 -18 -35 -77 -52 -130 -38 -124 -106 -228 -221 -342 -134 -134
-288 -229 -430 -266 -99 -26 -132 -16 -205 62 -77 82 -110 91 -158 43 -19 -19
-42 -56 -51 -84 -10 -27 -33 -82 -52 -122 -113 -237 -564 -532 -732 -479 -26
9 -52 54 -52 91 0 81 91 267 206 423 77 103 299 325 402 400 83 61 362 225
436 256 45 19 45 27 2 -121 -35 -116 -33 -147 10 -151 40 -4 45 2 146 151 119
176 337 389 717 701 188 155 1005 766 1012 758 3 -4 13 -77 23 -162z M8365
2535 c-5 -3 -106 -18 -223 -35 -118 -16 -241 -37 -275 -46 -142 -36 -248 -112
-262 -187 -10 -51 26 -126 89 -186 166 -156 556 -243 948 -212 120 10 748 113
770 127 4 3 8 18 8 34 0 27 -13 36 -262 171 -268 145 -489 255 -613 305 -64
25 -156 40 -180 29z m122 -86 c96 -36 334 -152 575 -282 124 -67 226 -123 225
-124 -3 -2 -428 -78 -532 -94 -120 -20 -438 -17 -555 4 -219 40 -351 93 -443
177 -30 27 -62 66 -71 85 -20 41 -12 59 44 100 78 58 158 78 500 129 198 30
189 30 257 5z M21095 2233 c-122 -27 -372 -126 -710 -281 -178 -81 -281 -122
-396 -155 -647 -189 -1028 -469 -1259 -923 -41 -80 -50 -107 -50 -149 0 -37 5
-57 17 -66 44 -37 312 8 471 79 247 109 480 291 736 572 l77 85 -25 -50 c-69
-142 -73 -252 -11 -285 36 -19 185 -7 285 23 130 39 288 102 359 144 83 49
254 213 337 322 108 143 269 492 281 610 5 45 3 56 -12 67 -18 14 -59 16 -100
7z m40 -90 c-27 -112 -185 -434 -263 -538 -81 -109 -210 -235 -307 -301 -82
-55 -240 -120 -395 -162 -108 -29 -144 -34 -175 -22 -25 10 -27 14 -22 51 3
22 30 93 61 157 65 136 73 187 30 198 -42 11 -74 -12 -179 -124 -309 -330
-471 -461 -720 -583 -135 -66 -401 -130 -419 -101 -10 16 97 215 172 321 228
321 586 544 1116 695 128 37 238 82 516 211 80 37 190 85 245 107 96 39 321
117 339 118 4 0 5 -12 1 -27z M9470 1954 c-145 -18 -273 -45 -539 -116 -168
-44 -312 -85 -318 -91 -7 -5 -13 -20 -13 -32 0 -19 34 -47 173 -143 179 -124
244 -162 337 -194 170 -59 379 -71 655 -39 99 11 216 23 260 26 l80 6 -25 -21
c-14 -12 -55 -45 -91 -75 -62 -51 -99 -102 -99 -140 0 -32 30 -73 72 -98 57
-33 296 -121 416 -153 73 -20 130 -28 233 -31 157 -6 242 7 408 63 90 31 569
232 644 270 29 16 37 54 15 72 -24 18 -668 242 -771 268 -56 13 -148 30 -204
36 -101 12 -120 10 -230 -18 -24 -7 -35 10 -48 69 -9 41 -86 119 -153 155 -31
16 -109 44 -172 61 -63 17 -176 51 -250 76 -121 42 -146 47 -240 50 -58 2
-121 1 -140 -1z m377 -125 c104 -33 217 -67 253 -75 140 -33 254 -117 267
-197 13 -81 79 -109 169 -71 52 22 166 14 316 -22 127 -30 713 -234 701 -244
-16 -14 -481 -209 -568 -239 -249 -84 -419 -85 -676 -1 -147 48 -292 108 -324
134 l-30 24 45 44 c25 24 72 63 104 88 33 25 68 57 79 72 26 35 17 75 -21 85
-43 12 -190 5 -392 -18 -327 -38 -523 -18 -705 70 -73 35 -351 218 -343 226 6
6 464 128 553 147 122 26 194 35 297 37 82 1 101 -3 275 -60z M18815 1454
c-84 -20 -152 -43 -465 -156 -151 -55 -340 -122 -419 -149 l-143 -49 -121 11
c-211 19 -472 -14 -658 -84 -147 -55 -320 -156 -439 -256 -31 -25 -162 -140
-293 -255 -182 -160 -237 -214 -237 -232 0 -12 5 -26 12 -30 22 -14 508 -24
611 -13 269 28 474 136 758 395 47 44 127 116 177 162 l91 84 -91 -148 c-110
-178 -127 -216 -128 -272 0 -51 23 -78 75 -88 20 -3 118 -4 218 -1 209 6 300
24 431 86 194 91 415 312 680 679 200 278 182 374 -59 316z m119 -76 c-10 -33
-83 -145 -172 -262 -310 -412 -518 -590 -763 -650 -133 -33 -382 -43 -445 -19
-33 12 -15 48 154 318 86 137 128 212 131 239 5 33 11 41 36 49 41 13 425 149
666 236 207 74 326 109 372 110 25 1 27 -2 21 -21z m-1245 -337 l65 -6 -54
-45 c-30 -25 -140 -123 -244 -218 -295 -269 -421 -356 -604 -418 -141 -48
-231 -57 -479 -49 l-211 7 221 196 c330 289 439 366 632 441 220 86 439 115
674 92z M11925 1174 c-133 -15 -331 -70 -461 -129 -40 -18 -166 -86 -279 -150
-192 -109 -205 -118 -205 -145 0 -16 4 -31 9 -34 23 -14 600 -166 666 -175
232 -33 414 5 757 156 93 40 171 73 174 73 4 0 -23 -27 -59 -60 -75 -69 -127
-160 -127 -221 0 -164 363 -224 807 -134 297 60 447 132 731 350 183 141 202
158 202 186 0 16 -6 32 -12 34 -16 5 -742 87 -1028 115 -294 29 -662 76 -830
106 -147 25 -272 35 -345 28z m307 -93 c209 -36 483 -70 878 -111 385 -40 902
-99 906 -103 10 -10 -346 -268 -422 -306 -271 -137 -687 -211 -936 -167 -84
15 -174 58 -183 87 -14 44 44 118 219 275 58 52 67 65 64 90 -3 26 -7 29 -46
32 -50 4 -107 -16 -352 -123 -190 -83 -293 -119 -403 -140 -92 -18 -219 -19
-303 -4 -62 11 -535 138 -544 146 -6 5 -7 5 199 120 231 130 366 182 561 218
113 20 173 18 362 -14z M15915 939 c-835 -20 -1131 -30 -1274 -44 -334 -33
-528 -96 -713 -232 -77 -57 -390 -313 -401 -327 -4 -6 -6 -22 -5 -36 3 -24 12
-27 228 -77 124 -29 275 -58 337 -64 310 -34 598 70 921 331 l63 51 -54 -73
c-92 -123 -119 -196 -97 -262 23 -69 101 -94 320 -103 234 -8 363 21 580 133
156 81 258 159 543 416 237 215 257 235 255 263 l-3 30 -185 1 c-102 1 -333
-3 -515 -7z m575 -63 c0 -6 -377 -347 -440 -398 -161 -130 -373 -242 -535
-283 -77 -20 -123 -25 -219 -25 -190 0 -296 24 -311 69 -13 41 48 134 228 350
71 85 134 165 139 177 15 33 3 54 -31 54 -32 0 -61 -21 -251 -180 -271 -227
-436 -327 -636 -385 -111 -32 -251 -42 -365 -26 -63 10 -379 78 -432 94 -14 4
320 270 414 329 216 136 439 179 1049 198 640 21 1390 35 1390 26z"/>
</g>
</svg>
