<?xml version="1.0" encoding="UTF-8" standalone="no"?>
<!-- Created with Inkscape (http://www.inkscape.org/) -->

<svg
   version="1.1"
   id="svg9051"
   width="1200.829"
   height="1200.829"
   viewBox="0 0 1200.829 1200.829"
   sodipodi:docname="Seal of the State of Minnesota.svg"
   inkscape:version="1.2.2 (b0a8486541, 2022-12-01)"
   xmlns:inkscape="http://www.inkscape.org/namespaces/inkscape"
   xmlns:sodipodi="http://sodipodi.sourceforge.net/DTD/sodipodi-0.dtd"
   xmlns="http://www.w3.org/2000/svg"
   xmlns:svg="http://www.w3.org/2000/svg">
  <g
     inkscape:groupmode="layer"
     inkscape:label="Image"
     id="g9057"
     transform="translate(-70.085516,-18.585516)">
    <circle
       style="fill:#002c5a;fill-opacity:1;fill-rule:evenodd;stroke:none;stroke-width:37.7953;stroke-dasharray:none;stroke-opacity:1"
       id="path9230"
       cx="670.5"
       cy="619"
       r="581.51685" />
    <path
       id="path9709"
       style="fill:#73c6e5;fill-opacity:1;fill-rule:evenodd;stroke:none;stroke-width:4.99508;stroke-dasharray:none"
       d="M 348.67739,801.57058 A 370.00244,370.00247 0 0 1 300.49756,619 370.00244,370.00247 0 0 1 670.5,248.99753 370.00244,370.00247 0 0 1 1040.5024,619 v 0 a 370.00244,370.00247 0 0 1 -48.17979,182.5706" />
    <circle
       style="fill:none;fill-rule:evenodd;stroke:none;stroke-width:5;stroke-dasharray:none;stroke-opacity:1"
       id="path11889"
       cx="-912.03198"
       cy="30.477779"
       r="306.83762"
       transform="rotate(-135.37309)" />
    <g
       id="text11945"
       style="fill:#ffffff;fill-rule:evenodd;stroke-width:5">
      <path
         d="m 475.86008,381.50403 -13.9949,-15.82777 q -0.47524,-0.53748 -0.95048,-1.07496 -0.4567,-0.55386 -3.89514,-4.77876 3.09234,6.14907 4.19926,8.67082 l 8.173,18.7299 -3.89208,3.44137 -17.58811,-10.40507 -8.12841,-5.19668 q 4.0243,4.10317 5.25336,5.4932 l 13.9949,15.82777 -4.85583,4.29352 -23.08994,-26.11398 7.32081,-6.47305 17.58381,10.47491 1.65319,1.04804 3.98685,2.71627 -2.53594,-5.22103 -8.75221,-19.57172 7.28374,-6.44027 23.08994,26.11398 z"
         id="path33227" />
      <path
         d="m 503.77712,361.25414 -27.63588,-13.6936 q 2.56208,2.98549 3.89484,4.9513 l 11.53667,17.01649 -5.36501,3.63731 -19.56097,-28.85227 6.90079,-4.67853 27.94512,13.75295 q -2.4649,-2.84216 -4.18638,-5.38132 l -11.37008,-16.77077 5.36501,-3.63731 19.56097,28.85227 z"
         id="path33229" />
      <path
         d="m 516.89965,353.26128 -17.0988,-30.37625 6.35982,-3.57995 17.09881,30.37625 z"
         id="path33231" />
      <path
         d="m 564.2914,319.99795 q 1.93705,4.74061 -0.56043,8.70087 -2.48394,3.928 -9.28569,6.70725 -6.20632,2.53595 -10.63149,1.77849 -4.42518,-0.75745 -7.25761,-4.81151 l 6.08712,-3.74333 q 1.71221,2.2936 4.11319,2.67553 2.39161,0.35902 5.80394,-1.03528 7.07657,-2.89154 5.31731,-7.19703 -0.56146,-1.37409 -1.75087,-1.93037 -1.1665,-0.56564 -2.8984,-0.55282 -1.709,0.003 -6.24622,0.86856 -3.96467,0.63117 -5.59044,0.70751 -1.63512,0.0534 -3.06093,-0.16571 -1.43516,-0.24206 -2.6391,-0.8993 -1.20394,-0.65725 -2.20472,-1.79838 -0.97787,-1.15049 -1.6797,-2.86811 -1.78733,-4.37419 0.54245,-8.0254 2.34333,-3.68347 8.61835,-6.24749 6.0002,-2.45173 9.76763,-1.79967 3.79034,0.64271 6.42921,4.6155 l -6.18488,3.56947 q -1.35539,-1.87816 -3.34315,-2.29531 -1.96486,-0.4265 -4.85045,0.75258 -6.13761,2.50787 -4.56551,6.35533 0.51468,1.25958 1.48344,1.79912 0.99167,0.53017 2.50809,0.57868 1.50708,0.0256 5.76947,-0.72721 5.05139,-0.91486 7.39006,-0.88163 2.35222,9.8e-4 3.97872,0.64591 1.61715,0.62203 2.87182,1.92667 1.24531,1.28174 2.06879,3.29708 z"
         id="path33233" />
      <path
         d="m 601.19961,301.5364 q 1.44224,5.24814 0.46163,9.8023 -0.98061,4.55416 -4.2617,7.73929 -3.28764,3.16127 -8.44037,4.57729 -7.91992,2.17647 -13.7069,-1.23627 -5.76969,-3.44316 -7.99861,-11.55393 -2.22236,-8.08691 1.01685,-13.85186 3.2392,-5.76495 11.23069,-7.96109 7.99149,-2.19614 13.73496,1.1516 5.76731,3.34118 7.96345,11.33267 z m -7.18041,1.97325 q -1.49469,-5.43899 -4.91673,-7.8083 -3.42859,-2.39317 -8.08036,-1.11482 -4.72333,1.29802 -6.45401,5.08335 -1.73724,3.76148 -0.22944,9.24817 1.52091,5.53441 5.02343,8.00989 3.51983,2.44506 8.07618,1.19293 4.72333,-1.29801 6.4236,-5.10064 1.72413,-3.80919 0.15733,-9.51058 z m -19.22895,-15.72858 -0.20322,-0.73951 4.34638,-7.71125 6.15464,-1.69135 0.28189,1.02577 -6.5243,8.00188 z"
         id="path33235" />
      <path
         d="m 622.24634,286.36434 4.64859,28.84528 -7.20521,1.16116 -4.64859,-28.84527 -11.11312,1.79094 -0.89744,-5.56877 29.45588,-4.74699 0.89744,5.56877 z"
         id="path33237" />
      <path
         d="m 662.84312,312.07301 -3.61571,-8.70696 -13.26172,0.78867 -2.55828,9.07412 -7.28531,0.43326 10.62438,-35.55149 8.59419,-0.51109 14.71367,34.04464 z m -11.48085,-28.85893 -0.11586,0.55213 q -0.19409,0.90374 -0.47227,2.06031 -0.27819,1.15658 -3.50456,12.74876 l 10.00186,-0.5948 -4.02755,-9.79772 -1.26166,-3.2955 z"
         id="path33239" />
      <path
         d="m 715.80349,315.29739 2.33714,-20.99794 q 0.0794,-0.71304 0.15873,-1.42608 0.10395,-0.71031 0.92732,-6.09499 -2.48191,6.4198 -3.60798,8.93305 l -8.39634,18.63085 -5.16343,-0.5747 -4.09423,-20.0211 -1.60463,-9.51323 q -0.33986,5.7372 -0.54511,7.58128 l -2.33715,20.99794 -6.44199,-0.71702 3.85602,-34.64414 9.71216,1.081 4.03959,20.06479 0.33294,1.92888 0.66297,4.77845 2.16753,-5.38442 8.63148,-19.62527 9.66298,1.07553 -3.85601,34.64414 z"
         id="path33241" />
      <path
         d="m 752.86989,323.20719 -0.89655,-9.38513 -12.90765,-3.14448 -5.11261,7.92123 -7.0908,-1.72742 20.60541,-30.85778 8.36474,2.03776 4.05615,36.86567 z m -2.4905,-30.95876 -0.27305,0.49368 q -0.45116,0.80676 -1.05704,1.83046 -0.60587,1.02371 -7.09725,11.15536 l 9.73483,2.37153 -0.96955,-10.54876 -0.23721,-3.52077 z"
         id="path33243" />
      <path
         d="m 786.98984,334.89755 -6.105,-19.38153 -5.18559,1.57048 -4.46244,11.90744 -6.83403,-2.56113 12.23262,-32.6412 6.83404,2.56112 -5.54766,14.80322 20.25821,-9.29029 7.96918,2.98653 -19.12041,8.58064 8.02292,24.48597 z"
         id="path33245" />
      <path
         d="m 836.75987,339.77125 q -2.52909,4.81942 -6.35476,7.47766 -3.82567,2.65823 -8.39765,2.74557 -4.56048,0.0654 -9.29227,-2.41767 -7.27294,-3.81663 -9.17156,-10.2611 -1.86522,-6.45489 2.04338,-13.90307 3.89709,-7.42629 10.19972,-9.42729 6.30262,-2.001 13.64128,1.85012 7.33866,3.85111 9.24986,10.21837 1.93311,6.37876 -1.918,13.71741 z m -6.59384,-3.46025 q 2.62106,-4.99467 1.73813,-9.06215 -0.87143,-4.08939 -5.14319,-6.33109 -4.33747,-2.27618 -8.18634,-0.6918 -3.83736,1.56247 -6.48141,6.60095 -2.66704,5.08229 -1.79778,9.2823 0.90266,4.1896 5.08679,6.38531 4.33748,2.27618 8.17593,0.6584 3.86036,-1.60628 6.60787,-6.84192 z"
         id="path33247" />
      <path
         d="m 849.60551,363.36576 q 5.4222,3.77252 11.32087,-0.20054 l 3.84858,5.60109 q -4.56793,2.97008 -9.25043,2.72605 -4.64806,-0.25021 -9.19702,-3.41518 -6.90468,-4.80396 -7.96912,-11.33112 -1.03,-6.53334 3.85874,-13.55987 4.90286,-7.04683 11.16602,-8.29495 6.26316,-1.24812 13.16784,3.55584 5.03636,3.50407 6.79145,7.73903 1.76923,4.21465 0.32167,9.02422 l -6.28322,-2.23176 q 0.82754,-2.61891 -0.26631,-5.24854 -1.05941,-2.63581 -3.71974,-4.48674 -4.06157,-2.82586 -7.92563,-1.77714 -3.84374,1.06286 -7.22064,5.91645 -3.43342,4.93481 -3.08934,9.03192 0.36439,4.11125 4.44628,6.95124 z"
         id="path33249" />
      <path
         d="m 863.02042,379.668 23.04322,-26.15522 20.56776,18.12057 -3.72878,4.23235 -15.09169,-13.29604 -5.78942,6.57129 13.95935,12.29843 -3.72878,4.23236 -13.95936,-12.29844 -6.06744,6.88686 15.85277,13.96658 -3.72878,4.23236 z"
         id="path33251" />
    </g>
    <g
       id="loon">
      <path
         style="fill:#000000;fill-opacity:1;fill-rule:evenodd;stroke:#000000;stroke-width:1.00157;stroke-dasharray:none;stroke-opacity:1"
         d="m 799.39509,570.95879 c -2.89135,-32.47749 -20.47627,-47.8318 -32.01789,-61.06025 -13.98907,-16.03361 -27.96451,-25.47302 -37.20667,-32.38266 -19.13452,-14.30536 -11.55009,-19.63383 4.22407,-37.82103 15.77416,-18.1872 56.10772,-64.27333 56.10772,-64.27333 0,0 -38.78498,19.27011 -49.74507,23.36377 -10.96009,4.09365 -10.16521,5.62318 -14.16405,5.51802 -3.99883,-0.10517 -17.17786,-17.99468 -43.79342,0.28594 -26.61556,18.28061 -45.73818,36.23398 -38.94557,72.49322 6.79261,36.25924 34.53124,65.88391 22.50785,78.82972 -10.51461,11.32128 -19.69627,0.42171 -27.90543,-8.23461 -8.31034,-8.76301 -30.75546,-42.09876 -41.89478,-46.70428 -15.82933,-6.54459 -29.99122,-5.84234 -44.5122,14.39777 -14.52098,20.24011 -177.1713,264.81427 -177.1713,264.81427 0,0 2.96359,-10e-4 20.46585,-0.01 17.50227,-0.008 27.88183,3.24192 47.03456,-24.10223 19.15273,-27.34415 127.22431,-181.63654 133.9565,-191.24802 6.73219,-9.61147 5.82496,16.25094 -3.22724,29.17466 -9.0522,12.92373 -130.38774,186.15294 -130.38774,186.15294 0,0 15.27274,-0.007 26.78214,-0.0128 25.97896,-0.0122 23.10745,-4.27884 48.93489,-41.1526 18.7112,-26.71392 82.68732,-118.05158 95.21886,-135.94272 5.76602,-8.23208 4.27333,18.7573 -5.28395,32.4021 L 507.0368,780.12195 c 0,0 10.31123,-0.005 28.14275,-0.0135 20.98068,-0.01 27.52379,-0.78778 56.995,-46.78499 14.03968,-21.91244 27.96421,-45.42108 38.50303,-64.52305 5.99852,-10.87253 14.05656,-24.35813 18.00287,-31.41956 2.6295,-4.70516 7.97119,-3.54172 7.74842,2.59224 -0.31707,8.73045 2.49224,130.78409 2.14573,161.51981 l 33.20019,2.4e-4 c 2.49679,-4.60344 28.16171,-47.63194 55.09147,-96.3054 26.92977,-48.67346 56.09007,-94.22685 52.52883,-134.22895 z" />
      <circle
         style="fill:#e40032;fill-opacity:1;fill-rule:evenodd;stroke:none;stroke-width:1;stroke-dasharray:none;stroke-opacity:1"
         cx="699.61621"
         cy="423.37546"
         r="8.1530199" />
      <path
         style="fill:#ffffff;fill-opacity:1;fill-rule:evenodd;stroke:none;stroke-width:1;stroke-dasharray:none;stroke-opacity:1"
         d="m 663.99718,482.90103 38.57161,43.64942 c 0.94962,1.07464 0.55318,1.94151 -0.86955,1.76849 -5.25493,-0.63903 -17.54848,-3.55416 -27.85458,-16.77473 -9.85167,-12.63762 -11.54516,-23.17267 -11.73958,-27.95409 -0.0619,-1.52315 0.88168,-1.83253 1.8921,-0.68909 z"
         id="path13897" />
      <path
         style="fill:#ffffff;fill-opacity:1;fill-rule:evenodd;stroke:none;stroke-width:1;stroke-dasharray:none;stroke-opacity:1"
         d="m 723.74249,492.33231 38.23992,27.2231 c 1.64762,1.17294 1.36561,2.44682 -0.65332,2.51733 -4.98243,0.17401 -14.48749,-0.74444 -24.73187,-8.3042 -10.03819,-7.4076 -13.73532,-15.47138 -15.08197,-19.98259 -0.57763,-1.93503 0.57962,-2.62658 2.22724,-1.45364 z"
         id="path13897-6" />
      <path
         style="fill:#ffffff;fill-opacity:1;fill-rule:evenodd;stroke:none;stroke-width:1;stroke-dasharray:none;stroke-opacity:1"
         d="m 692.81911,485.54517 40.38804,37.88299 c 1.04597,0.9811 0.73522,1.92157 -0.69751,1.90186 -4.91991,-0.0677 -16.15068,-1.65247 -27.61753,-13.19432 -0.13324,-0.13412 -0.34804,-0.35292 -0.47994,-0.48852 -10.87091,-11.17617 -13.14689,-20.73133 -13.5658,-25.23358 -0.14117,-1.51716 0.8598,-1.91234 1.97274,-0.86843 z" />
      <path
         style="fill:#ffffff;fill-opacity:1;fill-rule:evenodd;stroke:none;stroke-width:1;stroke-dasharray:none;stroke-opacity:1"
         d="m 700.06397,751.4427 75.1409,-144.90852 c 1.06812,-2.05985 0.0531,-3.79683 -2.26671,-3.76223 -9.08977,0.13556 -31.01492,1.5886 -46.54298,11.81789 -6.13023,4.03835 -13.64099,13.61514 -17.3389,19.99124 -5.87679,10.13304 -8.45914,20.56284 -9.67537,40.37247 -0.45198,7.36165 -0.77591,19.31813 -0.91147,26.69265 -0.37163,20.21645 -0.29386,40.93871 -0.23884,49.36017 0.0141,2.16106 0.83774,2.35639 1.83337,0.43633 z" />
    </g>
    <path
       style="fill:#ffffff;fill-opacity:1;fill-rule:evenodd"
       d="M 877.72071,585.15367 869.041,546.14431 A 38.334646,38.334646 45.129672 0 0 840.11671,517.0888 l -38.96966,-8.85619 38.59077,-8.58657 a 39.012285,39.012285 135.12968 0 0 29.56913,-29.43558 l 8.76116,-38.55151 8.5517,38.43406 a 39.265975,39.265975 45.129676 0 0 29.627,29.76141 l 38.39496,8.72559 -38.51047,8.56871 a 39.142284,39.142284 135.12967 0 0 -29.66766,29.53367 z" />
    <path
       id="path20098"
       style="fill:#ffffff;fill-rule:evenodd;stroke:none"
       d="m 877.72071,585.15367 -8.80145,-32.97564 a 49.489212,49.489212 45.129677 0 0 -34.83675,-34.99479 l -32.93546,-8.95063 33.14307,-8.84614 a 49.188158,49.188158 135.12968 0 0 34.78192,-34.62483 l 8.99607,-33.10269 8.81302,33.01898 a 49.411285,49.411285 45.129677 0 0 34.78189,34.93969 l 32.97875,8.96239 -33.23664,8.87112 a 49.019911,49.019911 135.12968 0 0 -34.66295,34.50639 z" />
    <path
       style="fill:#006847;fill-opacity:1;fill-rule:evenodd;stroke:#2e673c;stroke-width:2;stroke-dasharray:none;stroke-opacity:1"
       d="m 966.42773,537.9082 -77.625,181.40039 -44.66796,-88.30664 -86.72852,170.49024 h 233.94141 a 370.00244,370.00247 0 0 0 40.96094,-109.48047 z" />
    <g
       id="rice">
      <path
         id="path20855"
         style="color:#000000;fill:#f2ce00;fill-opacity:1;fill-rule:evenodd;-inkscape-stroke:none"
         d="m 570.29883,454.375 c -8.90182,0.0493 -17.39796,1.34258 -25.15821,3.7168 -3.95779,1.21087 -7.72102,2.70544 -11.25195,4.45703 -21.08438,6.20292 -60.19969,28.8438 -101.10937,76.80859 C 393.66568,585.2164 353.2758,654.247 326.89844,753.8418 a 370.00244,370.00247 0 0 0 4.57422,12.26367 c 15.5093,-62.14412 36.4646,-112.47791 59.27539,-152.88281 7.96941,1.01913 9.90625,0.99636 16.36328,0.55664 9.51667,-0.64809 20.70656,-7.78568 27.57031,-14.67188 0.46952,-0.47106 0.30137,-0.8909 -0.36328,-0.91601 -9.54536,-0.36066 -18.68981,0.71733 -27.02734,3.04492 -4.3451,1.21302 -8.47111,2.76535 -12.32032,4.63086 5.28372,-8.99251 10.65059,-17.45076 16.0625,-25.42774 6.11924,1.16562 7.69447,1.23816 12.8086,1.20703 7.55264,-0.046 16.72882,-5.08443 22.56054,-10.18945 0.50045,-0.43808 0.35734,-0.86947 -0.30468,-0.93359 -7.519,-0.72818 -14.79065,-0.3135 -21.49219,1.11718 -3.32967,0.71085 -6.51698,1.67578 -9.52539,2.87305 5.66028,-8.0581 11.35174,-15.56468 17.03125,-22.58008 6.82609,1.14437 8.53118,1.18875 14.15039,1.02735 8.27631,-0.23773 18.21452,-6.01258 24.44726,-11.75196 0.48926,-0.45053 0.33707,-0.87774 -0.32617,-0.92773 -8.26213,-0.62272 -16.22523,0.008 -23.53515,1.74219 -3.0645,0.7271 -6.01156,1.65123 -8.82032,2.75586 0.15265,-0.17964 0.30639,-0.37578 0.45899,-0.55469 5.72057,-6.70712 11.40395,-12.84992 17.01562,-18.5625 8.03095,1.62636 9.73832,1.73171 16.01367,1.74805 8.9336,0.0233 19.85326,-5.88962 26.74219,-11.86914 0.50228,-0.43596 0.36441,-0.8661 -0.29687,-0.9375 -8.89176,-0.96004 -17.50474,-0.55524 -25.44727,1.06836 -3.33068,0.68084 -6.54094,1.57944 -9.60742,2.67773 10.17999,-9.73674 19.98363,-17.85921 29.10547,-24.53906 9.19446,2.3421 10.75294,2.51365 17.55859,2.85547 9.33359,0.46877 21.04333,-5.17573 28.52344,-11.08204 0.52199,-0.41216 0.40512,-0.84998 -0.25195,-0.95312 -9.24448,-1.45105 -18.26621,-1.45764 -26.64649,-0.15625 -2.83156,0.43972 -5.58847,1.03043 -8.25781,1.76367 11.83266,-7.68077 22.04405,-12.68978 29.68945,-15.40234 5.08173,0.42516 7.33016,0.29267 12.64453,-0.20117 9.49781,-0.8826 20.50738,-8.29231 27.19922,-15.34571 0.45777,-0.48249 0.2803,-0.89753 -0.38476,-0.90625 -0.59696,-0.008 -1.19366,-0.0111 -1.78711,-0.008 z" />
      <path
         id="path20911"
         style="color:#000000;fill:#f2ce00;fill-opacity:1;fill-rule:evenodd;-inkscape-stroke:none"
         d="m 622.22656,351.36133 c -1.65422,-0.002 -3.29189,0.0464 -4.91211,0.14258 -8.92866,0.52981 -17.29641,2.54796 -24.62304,5.94336 -79.70474,27.20316 -140.98966,80.31898 -185.58203,143.69726 -0.11608,0.0682 -0.23428,0.13411 -0.34961,0.20313 0.0643,0.0161 0.10823,0.027 0.17187,0.043 -49.60524,70.60149 -78.50157,153.78882 -89.1875,227.90821 a 370.00244,370.00247 0 0 0 5.60547,15.02929 c 7.84573,-68.43197 31.98015,-146.27752 74.30273,-214.96484 4.65998,0.62599 6.52105,0.60779 11.19922,0.38477 7.96101,-0.37954 17.41769,-6.11047 23.32422,-11.74805 0.48112,-0.45922 0.32229,-0.88285 -0.3418,-0.91992 -7.96162,-0.44452 -15.61377,0.30902 -22.61718,2.11133 -2.23967,0.57637 -4.41165,1.26065 -6.50782,2.04687 3.90466,-6.06072 8.00041,-12.01142 12.19727,-17.90039 4.82619,1.10314 6.7627,1.25844 11.67187,1.4707 8.34837,0.36095 18.77377,-4.73307 25.46094,-10.05859 0.52027,-0.41432 0.39816,-0.85162 -0.25976,-0.94922 -8.27193,-1.22716 -16.33416,-1.17082 -23.81836,0.0449 -2.54181,0.41289 -5.01602,0.96296 -7.41016,1.63868 4.15552,-5.57261 8.49147,-11.01908 12.91992,-16.39844 9.13538,2.75899 10.75208,3.01113 17.63477,3.66211 9.49634,0.89818 21.69186,-4.33681 29.57812,-10.02344 0.53947,-0.389 0.44092,-0.83071 -0.21093,-0.96289 -9.36164,-1.89831 -18.55999,-2.31305 -27.16407,-1.36328 -5.39639,0.5957 -10.55658,1.73171 -15.3789,3.37109 5.81976,-6.83769 11.87023,-13.4894 18.14843,-19.94922 7.67577,2.26456 9.5984,2.55014 16.03321,3.14258 9.49855,0.87452 21.68067,-4.39137 29.55273,-10.09766 0.5385,-0.39034 0.43929,-0.83233 -0.21289,-0.96289 -9.36634,-1.87495 -18.56631,-2.26614 -27.16797,-1.29492 -3.87911,0.438 -7.636,1.15359 -11.23242,2.13477 6.60421,-6.46119 13.4973,-12.65239 20.58984,-18.64453 7.36188,2.51465 9.29663,2.88494 15.62891,3.74414 9.45212,1.28249 21.85057,-3.45422 29.96094,-8.81641 0.5548,-0.36681 0.47408,-0.8122 -0.17188,-0.9707 -9.27697,-2.27635 -18.45044,-3.06301 -27.08593,-2.46289 -3.24774,0.2257 -6.41806,0.64905 -9.49024,1.26172 9.10699,-7.22175 18.60695,-14.02304 28.48828,-20.38477 8.82745,3.3745 10.44516,3.74644 17.23828,4.88672 9.40711,1.57905 21.94772,-2.76461 30.22266,-7.86914 0.56606,-0.34919 0.50001,-0.79588 -0.14062,-0.97461 -9.20085,-2.56691 -18.346,-3.64277 -26.9961,-3.31445 -3.61794,0.13731 -7.14781,0.52462 -10.56054,1.14648 9.92523,-5.93211 20.23876,-11.39001 30.91992,-16.36523 9.50281,3.5009 11.04943,3.85248 18.03515,4.92968 9.4273,1.45371 21.91092,-3.05726 30.11719,-8.27148 0.56136,-0.35668 0.48867,-0.80442 -0.1543,-0.97461 -9.23418,-2.4442 -18.39411,-3.39656 -27.03906,-2.95313 -1.79765,0.0922 -3.57099,0.2488 -5.32031,0.46094 8.71272,-3.53408 17.66789,-6.73119 26.85937,-9.58594 3.55996,1.09223 5.82917,1.48293 10.33399,2.14063 9.43866,1.37803 21.88463,-3.23182 30.04883,-8.51172 0.55848,-0.36118 0.48221,-0.80764 -0.16211,-0.97266 -7.51846,-1.92566 -14.97821,-2.86844 -22.14649,-2.8789 z" />
      <path
         id="path20913"
         style="color:#000000;fill:#f2ce00;fill-opacity:1;fill-rule:evenodd;-inkscape-stroke:none"
         d="m 428.59961,415.51172 c -0.0686,0.007 -0.1428,0.0218 -0.22266,0.0449 -10.39761,3.00612 -19.84764,7.42457 -27.97851,12.90234 -5.313,3.57937 -10.06085,7.61258 -14.14258,12 l -0.006,-0.006 c -0.0156,0.0191 -0.0428,0.0569 -0.0586,0.0762 -2.37029,2.55444 -4.51653,5.22672 -6.41407,8.00195 0.20764,-0.039 0.35217,-0.0674 0.55469,-0.10547 -9.10938,12.97269 -24.67904,38.20575 -39.5957,74.87891 -15.84686,38.96005 -30.69254,90.54517 -35.5,152.82617 a 370.00244,370.00247 0 0 0 6.05469,27.83398 c 1.64779,-63.12579 14.05734,-116.28494 28.79296,-157.80859 5.43918,0.51239 7.2606,0.41145 12.33985,-0.0606 8.23752,-0.76549 17.78012,-7.15833 23.6289,-13.27929 0.45948,-0.48086 0.28032,-0.8968 -0.38476,-0.9043 -8.27828,-0.0933 -16.17909,1.04209 -23.35742,3.23828 -3.36656,1.02999 -6.57244,2.29464 -9.58594,3.77344 1.63784,-4.38883 3.28897,-8.68715 4.95898,-12.79297 1.43305,-3.52319 2.87524,-6.90547 4.31836,-10.21875 6.04611,0.58303 7.90512,0.47741 13.37891,-0.0312 8.69897,-0.80837 18.77792,-7.57467 24.93555,-14.03711 0.4588,-0.48151 0.2803,-0.89827 -0.38477,-0.90625 -8.74446,-0.10495 -17.08907,1.09278 -24.66992,3.41211 -3.43829,1.05193 -6.7188,2.33519 -9.8086,3.83203 4.64363,-10.13117 9.22523,-19.11457 13.53516,-26.96289 6.91977,0.0749 8.92811,-0.20347 14.92578,-1.29297 9.38513,-1.70485 19.71028,-10.04396 25.76367,-17.65234 0.41409,-0.52046 0.19846,-0.91827 -0.46484,-0.86914 -9.52608,0.70559 -18.49342,2.79465 -26.51953,6.03711 -2.80655,1.1338 -5.49472,2.41069 -8.05469,3.8164 7.5026,-12.7174 13.4761,-21.03693 16.57813,-24.9707 5.53355,-1.19909 7.91665,-2.08403 13.44531,-4.34766 9.99703,-4.09313 19.47496,-15.79121 24.35156,-25.625 0.25856,-0.52137 0.0659,-0.85218 -0.41406,-0.80273 z" />
    </g>
    <path
       id="path26564-5"
       style="fill:#73c6e5;fill-opacity:1;fill-rule:evenodd;stroke:none;stroke-width:2;stroke-dasharray:none;stroke-opacity:1"
       d="m 670.5,936.09961 c -69.01161,0 -63.53065,25.83216 -125.28516,30.06641 A 370.00244,370.00247 0 0 0 670.5,989.00195 370.00244,370.00247 0 0 0 795.78516,966.16602 C 734.03065,961.93177 739.51161,936.09961 670.5,936.09961 Z" />
    <path
       id="path26564-44"
       style="fill:#73c6e5;fill-opacity:1;fill-rule:evenodd;stroke:none;stroke-width:2;stroke-dasharray:none;stroke-opacity:1"
       d="m 952.00913,858.34608 a 370.00244,370.00247 0 0 0 30.71157,-41.05506 c -7.32293,-0.76347 -15.6002,-1.22071 -25.29492,-1.22071 -81.56872,0 -68.29523,30.66797 -143.46289,30.66797 -75.16765,0 -61.89417,-30.66797 -143.46289,-30.66797 -81.56872,0 -68.29524,30.66797 -143.46289,30.66797 -75.16766,0 -61.89417,-30.66797 -143.46289,-30.66797 v 0 c -9.69472,0 -17.97199,0.45724 -25.29492,1.22071 a 370.00244,370.00247 0 0 0 30.55032,41.1657" />
    <path
       id="path26564-3"
       style="fill:#73c6e5;fill-opacity:1;fill-rule:evenodd;stroke:none;stroke-width:2;stroke-dasharray:none;stroke-opacity:1"
       d="m 885.53628,919.60658 a 370.00244,370.00247 0 0 0 24.65122,-19.0226 c -28.05414,-8.95633 -38.16436,-24.45703 -96.22461,-24.45703 -81.56873,0 -68.29524,30.66797 -143.46289,30.66797 -75.16766,0 -61.89416,-30.66797 -143.46289,-30.66797 v 0 c -58.06025,0 -68.17046,15.5007 -96.22461,24.45703 a 370.00244,370.00247 0 0 0 24.69867,19.18768" />
    <path
       style="fill:#73c6e5;fill-opacity:1;fill-rule:evenodd;stroke:none;stroke-width:2;stroke-dasharray:none;stroke-opacity:1"
       id="path27783"
       d="m 680.5519,231.61613 c 0,5.55152 -4.50039,10.05191 -10.0519,10.05191 -5.55151,0 -10.0519,-4.50039 -10.0519,-10.05191 0,-5.55151 4.50039,-10.0519 10.0519,-10.0519 5.55151,0 10.0519,4.50039 10.0519,10.0519 z m -30.04954,0.38594 c 0.4302,5.53482 -3.70791,10.37043 -9.24273,10.80063 -5.53482,0.4302 -10.37042,-3.70791 -10.80062,-9.24273 -0.4302,-5.53482 3.70791,-10.37043 9.24273,-10.80063 5.53482,-0.4302 10.37042,3.70791 10.80062,9.24273 z m -29.92927,2.7134 c 0.85781,5.48483 -2.89313,10.62657 -8.37797,11.48438 -5.48484,0.85782 -10.62657,-2.89313 -11.48439,-8.37797 -0.85781,-5.48484 2.89314,-10.62657 8.37797,-11.48439 5.48484,-0.85781 10.62658,2.89314 11.48439,8.37798 z m -29.629,5.02452 c 1.28026,5.40187 -2.06096,10.81881 -7.46283,12.09908 -5.40187,1.28027 -10.81881,-2.06095 -12.09908,-7.46282 -1.28027,-5.40188 2.06095,-10.81882 7.46282,-12.09909 5.40188,-1.28026 10.81882,2.06096 12.09909,7.46283 z m -29.15055,7.30544 c 1.69502,5.28641 -1.21638,10.94599 -6.5028,12.64101 -5.28641,1.69502 -10.94599,-1.21638 -12.64101,-6.5028 -1.69502,-5.28642 1.21638,-10.94599 6.5028,-12.64101 5.28641,-1.69502 10.94599,1.21638 12.64101,6.5028 z m -28.49677,9.54241 c 2.09958,5.13917 -0.3645,11.00734 -5.50366,13.10692 -5.13917,2.09958 -11.00734,-0.36449 -13.10692,-5.50366 -2.09958,-5.13917 0.36449,-11.00734 5.50366,-13.10692 5.13917,-2.09958 11.00733,0.36449 13.10692,5.50366 z m -27.67162,11.72201 c 2.49151,4.96101 0.48959,11.00248 -4.47143,13.49399 -4.96101,2.49152 -11.00248,0.48959 -13.49399,-4.47142 -2.49152,-4.96101 -0.48959,-11.00248 4.47142,-13.494 4.96102,-2.49151 11.00248,-0.48959 13.494,4.47143 z m -26.68004,13.83109 c 2.86846,4.75303 1.34072,10.93146 -3.4123,13.79992 -4.75302,2.86847 -10.93145,1.34073 -13.79992,-3.41229 -2.86846,-4.75302 -1.34072,-10.93146 3.4123,-13.79992 4.75302,-2.86846 10.93145,-1.34073 13.79992,3.41229 z m -25.52801,15.85701 c 3.22816,4.51645 2.1838,10.79469 -2.33264,14.02285 -4.51645,3.22816 -10.79469,2.1838 -14.02285,-2.33264 -3.22816,-4.51645 -2.1838,-10.79469 2.33264,-14.02285 4.51645,-3.22816 10.79469,-2.1838 14.02285,2.33264 z m -24.22244,17.78755 c 3.56844,4.25271 3.01374,10.593 -1.23897,14.16145 -4.25271,3.56844 -10.593,3.01374 -14.16144,-1.23897 -3.56845,-4.2527 -3.01374,-10.593 1.23896,-14.16144 4.25271,-3.56845 10.593,-3.01374 14.16145,1.23896 z m -22.77121,19.61112 c 3.88727,3.96339 3.82555,10.32761 -0.13784,14.21487 -3.96339,3.88727 -10.3276,3.82556 -14.21487,-0.13783 -3.88726,-3.96339 -3.82555,-10.32761 0.13784,-14.21487 3.96339,-3.88727 10.3276,-3.82556 14.21487,0.13783 z m -21.18302,21.31675 c 4.18271,3.65023 4.61436,10.00009 0.96413,14.1828 -3.65024,4.18271 -10.0001,4.61436 -14.18281,0.96413 -4.18271,-3.65024 -4.61436,-10.0001 -0.96412,-14.18281 3.65023,-4.18271 10.00009,-4.61436 14.1828,-0.96412 z M 365.773,379.60753 c 4.453,3.31514 5.37542,9.61245 2.06028,14.06545 -3.31513,4.45299 -9.61245,5.37542 -14.06544,2.06028 -4.453,-3.31513 -5.37542,-9.61245 -2.06029,-14.06544 3.31514,-4.453 9.61245,-5.37542 14.06545,-2.06029 z m -17.63477,24.3339 c 4.6965,2.96009 6.10414,9.16699 3.14405,13.8635 -2.96009,4.6965 -9.16699,6.10414 -13.86349,3.14405 -4.69651,-2.96009 -6.10415,-9.16699 -3.14406,-13.86349 2.9601,-4.69651 9.16699,-6.10415 13.8635,-3.14406 z m -15.69605,25.62729 c 4.91177,2.58725 6.79616,8.6664 4.20892,13.57816 -2.58725,4.91177 -8.6664,6.79617 -13.57817,4.20892 -4.91177,-2.58725 -6.79616,-8.6664 -4.20892,-13.57816 2.58725,-4.91177 8.6664,-6.79617 13.57817,-4.20892 z m -13.66293,26.76655 c 5.09749,2.19884 7.44731,8.11369 5.24847,13.21117 -2.19885,5.09749 -8.11369,7.44731 -13.21118,5.24847 -5.09749,-2.19884 -7.44731,-8.11369 -5.24846,-13.21118 2.19884,-5.09749 8.11368,-7.4473 13.21117,-5.24846 z m -11.54764,27.74483 c 5.25256,1.79722 8.05366,7.51218 6.25645,12.76474 -1.79721,5.25255 -7.51218,8.05366 -12.76473,6.25644 -5.25256,-1.79721 -8.05366,-7.51217 -6.25645,-12.76473 1.79721,-5.25255 7.51218,-8.05366 12.76473,-6.25645 z m -9.3629,28.55626 c 5.37603,1.38478 8.61158,6.86549 7.22681,12.24152 -1.38478,5.37603 -6.86549,8.61158 -12.24152,7.22681 -5.37603,-1.38478 -8.61158,-6.86549 -7.22681,-12.24152 1.38478,-5.37603 6.86549,-8.61158 12.24152,-7.22681 z m -7.12185,29.19595 c 5.46717,0.96401 9.11771,6.17751 8.1537,11.64468 -0.96401,5.46718 -6.17752,9.11771 -11.64469,8.1537 -5.46717,-0.96401 -9.11771,-6.17751 -8.1537,-11.64469 0.96401,-5.46717 6.17752,-9.11771 11.64469,-8.15369 z m -4.83797,29.66003 c 5.52544,0.53745 9.569,5.45239 9.03155,10.97782 -0.53744,5.52544 -5.45238,9.56901 -10.97782,9.03156 -5.52543,-0.53745 -9.569,-5.45239 -9.03155,-10.97782 0.53744,-5.52544 5.45238,-9.569 10.97782,-9.03156 z m -2.525,29.94576 c 5.55047,0.10765 9.96275,4.69446 9.8551,10.24493 -0.10765,5.55047 -4.69447,9.96275 -10.24494,9.85509 -5.55046,-0.10765 -9.96274,-4.69446 -9.85509,-10.24493 0.10765,-5.55047 4.69446,-9.96274 10.24493,-9.85509 z m -0.19683,30.05137 c 5.54212,-0.32279 10.29657,3.90831 10.61936,9.45043 0.3228,5.54212 -3.90831,10.29657 -9.45043,10.61937 -5.54212,0.32279 -10.29657,-3.90831 -10.61936,-9.45044 -0.32279,-5.54212 3.90831,-10.29657 9.45043,-10.61936 z m 2.13251,29.97626 c 5.50044,-0.75129 10.56848,3.09865 11.31977,8.59909 0.75129,5.50045 -3.09865,10.56848 -8.59909,11.31977 -5.50044,0.7513 -10.56848,-3.09865 -11.31977,-8.59909 -0.75129,-5.50044 3.09865,-10.56847 8.59909,-11.31977 z m 4.44904,29.72087 c 5.42568,-1.17528 10.77681,2.27036 11.95209,7.69604 1.17527,5.42568 -2.27036,10.77681 -7.69604,11.95209 -5.42568,1.17528 -10.77682,-2.27036 -11.95209,-7.69604 -1.17528,-5.42568 2.27035,-10.77681 7.69604,-11.95209 z m 6.73879,29.28673 c 5.31829,-1.5922 10.92035,1.42841 12.51254,6.7467 1.59219,5.31829 -1.42841,10.92034 -6.7467,12.51253 -5.31829,1.5922 -10.92035,-1.42841 -12.51254,-6.7467 -1.59219,-5.31829 1.42841,-10.92034 6.7467,-12.51253 z m 8.98803,28.67645 c 5.17892,-1.99953 10.9982,0.57787 12.99773,5.75679 1.99953,5.17891 -0.57787,10.9982 -5.75678,12.99773 -5.17892,1.99953 -10.9982,-0.57787 -12.99773,-5.75679 -1.99953,-5.17892 0.57787,-10.9982 5.75678,-12.99773 z m 11.18321,27.89372 c 5.0084,-2.39484 11.00991,-0.27614 13.40476,4.73225 2.39484,5.00839 0.27614,11.00991 -4.73225,13.40475 -5.0084,2.39485 -11.00991,0.27615 -13.40475,-4.73225 -2.39485,-5.00839 -0.27615,-11.0099 4.73224,-13.40475 z m 13.31114,26.94323 c 4.80775,-2.77576 10.9554,-1.1285 13.73116,3.67925 2.77575,4.80775 1.12849,10.9554 -3.67926,13.73116 -4.80775,2.77575 -10.9554,1.1285 -13.73115,-3.67926 -2.77576,-4.80775 -1.1285,-10.95539 3.67925,-13.73115 z m 15.359,25.83069 c 4.5782,-3.13997 10.83501,-1.97406 13.97498,2.60413 3.13998,4.5782 1.97407,10.83501 -2.60412,13.97498 -4.5782,3.13998 -10.83501,1.97407 -13.97498,-2.60413 -3.13998,-4.57819 -1.97407,-10.835 2.60412,-13.97498 z m 17.3145,24.56282 c 4.32111,-3.48531 10.64945,-2.80776 14.13476,1.51334 3.48531,4.3211 2.80776,10.64945 -1.51334,14.13476 -4.3211,3.4853 -10.64945,2.80776 -14.13476,-1.51335 -3.4853,-4.3211 -2.80776,-10.64944 1.51334,-14.13475 z m 19.16587,23.14721 c 4.03803,-3.80968 10.39985,-3.62457 14.20953,0.41345 3.80968,4.03803 3.62457,10.39985 -0.41346,14.20953 -4.03802,3.80968 -10.39984,3.62457 -14.20952,-0.41346 -3.80968,-4.03802 -3.62457,-10.39984 0.41345,-14.20952 z m 20.90197,21.59239 c 3.73066,-4.11114 10.0877,-4.41958 14.19884,-0.68891 4.11114,3.73066 4.41958,10.08769 0.68891,14.19883 -3.73066,4.11114 -10.08769,4.41958 -14.19883,0.68892 -4.11114,-3.73066 -4.41958,-10.0877 -0.68892,-14.19884 z m 22.51236,19.90773 c 3.40086,-4.38788 9.71488,-5.18801 14.10275,-1.78715 4.38788,3.40086 5.18801,9.71487 1.78715,14.10275 -3.40086,4.38787 -9.71487,5.18801 -14.10275,1.78715 -4.38787,-3.40086 -5.18801,-9.71488 -1.78715,-14.10275 z m 23.98736,18.10332 c 3.05061,-4.63823 9.28364,-5.92524 13.92186,-2.87464 4.63822,3.05061 5.92524,9.28364 2.87463,13.92186 -3.05061,4.63822 -9.28363,5.92524 -13.92185,2.87463 -4.63822,-3.05061 -5.92524,-9.28363 -2.87464,-13.92185 z m 25.31811,16.19004 c 2.682,-4.86067 8.79655,-6.62683 13.65723,-3.94483 4.86067,2.68201 6.62683,8.79656 3.94482,13.65723 -2.68201,4.86068 -8.79655,6.62683 -13.65723,3.94483 -4.86067,-2.68201 -6.62683,-8.79656 -3.94482,-13.65723 z m 26.49657,14.1794 c 2.29728,-5.05389 8.25658,-7.28857 13.31047,-4.9913 5.05389,2.29728 7.28857,8.25658 4.99129,13.31047 -2.29727,5.05389 -8.25657,7.28857 -13.31046,4.9913 -5.0539,-2.29728 -7.28857,-8.25658 -4.9913,-13.31047 z m 27.5157,12.08348 c 1.89872,-5.21672 7.66693,-7.90648 12.88365,-6.00775 5.21671,1.89873 7.90647,7.66694 6.00774,12.88365 -1.89872,5.21672 -7.66693,7.90648 -12.88365,6.00775 -5.21671,-1.89873 -7.90647,-7.66694 -6.00774,-12.88365 z m 28.36933,9.91488 c 1.48876,-5.34817 7.03119,-8.47683 12.37935,-6.98807 5.34817,1.48877 8.47683,7.03119 6.98807,12.37936 -1.48877,5.34812 -7.03119,8.47682 -12.37936,6.98802 -5.34816,-1.4887 -8.47683,-7.03114 -6.98806,-12.37931 z m 29.05235,7.68666 c 1.06984,-5.44745 6.35315,-8.9962 11.8006,-7.92636 5.44746,1.06985 8.99621,6.35316 7.92636,11.80061 -1.06984,5.4475 -6.35315,8.9962 -11.80061,7.9264 -5.44745,-1.0699 -8.9962,-6.3532 -7.92635,-11.80065 z m 29.56064,5.41225 c 0.64449,-5.51402 5.63692,-9.46151 11.15089,-8.81702 5.51398,0.64449 9.46148,5.63691 8.81698,11.15092 -0.64449,5.5139 -5.63691,9.4614 -11.15089,8.817 -5.51397,-0.6445 -9.46147,-5.637 -8.81698,-11.1509 z m 29.89116,3.1052 c 0.21526,-5.5474 4.88677,-9.86987 10.43411,-9.65461 5.54734,0.21526 9.86984,4.88681 9.65458,10.43411 -0.21526,5.5473 -4.88677,9.8698 -10.43411,9.6546 -5.54734,-0.2153 -9.86984,-4.8868 -9.65458,-10.4341 z m 30.04191,0.7795 c -0.21526,-5.5473 4.10724,-10.21885 9.65458,-10.43411 5.54734,-0.21526 10.21885,4.10721 10.43411,9.65461 0.21526,5.5473 -4.10724,10.2188 -9.65458,10.4341 -5.54734,0.2152 -10.21885,-4.1073 -10.43411,-9.6546 z m 30.01198,-1.5508 c -0.6445,-5.51401 3.303,-10.50643 8.81698,-11.15092 5.51397,-0.64449 10.5064,3.303 11.15089,8.81702 0.64449,5.5139 -3.30301,10.5064 -8.81698,11.1509 -5.51398,0.6444 -10.5064,-3.3031 -11.15089,-8.817 z m 29.80155,-3.8719 c -1.06985,-5.44745 2.4789,-10.73076 7.92636,-11.80061 5.44745,-1.06984 10.73076,2.47891 11.8006,7.92636 1.06985,5.44745 -2.4789,10.73075 -7.92635,11.80065 -5.44746,1.0698 -10.73077,-2.4789 -11.80061,-7.9264 z m 29.41189,-6.16962 c -1.48876,-5.34817 1.6399,-10.89059 6.98807,-12.37936 5.34816,-1.48876 10.89059,1.6399 12.37935,6.98807 1.48877,5.34817 -1.6399,10.89061 -6.98806,12.37931 -5.34817,1.4888 -10.89059,-1.6399 -12.37936,-6.98802 z m 28.84536,-8.43027 c -1.89873,-5.21671 0.79103,-10.98492 6.00774,-12.88365 5.21672,-1.89873 10.98493,0.79103 12.88365,6.00775 1.89873,5.21671 -0.79103,10.98492 -6.00774,12.88365 -5.21672,1.89873 -10.98493,-0.79103 -12.88365,-6.00775 z m 28.10533,-10.64021 c -2.29728,-5.05389 -0.0626,-11.01319 4.99129,-13.31047 5.05389,-2.29727 11.01319,-0.0626 13.31047,4.9913 2.29727,5.05389 0.0626,11.01319 -4.9913,13.31047 -5.05389,2.29727 -11.01319,0.0626 -13.31046,-4.9913 z M 848.849,963.03333 c -2.68201,-4.86067 -0.91585,-10.97522 3.94482,-13.65723 4.86068,-2.682 10.97523,-0.91584 13.65723,3.94483 2.68201,4.86067 0.91585,10.97522 -3.94482,13.65723 -4.86068,2.682 -10.97522,0.91585 -13.65723,-3.94483 z m 26.12367,-14.85522 c -3.05061,-4.63822 -1.76359,-10.87125 2.87463,-13.92186 4.63822,-3.0506 10.87125,-1.76359 13.92186,2.87464 3.0506,4.63822 1.76358,10.87124 -2.87464,13.92185 -4.63822,3.05061 -10.87124,1.76359 -13.92185,-2.87463 z m 24.89395,-16.83494 c -3.40086,-4.38788 -2.60073,-10.70189 1.78715,-14.10275 4.38787,-3.40086 10.70189,-2.60073 14.10275,1.78715 3.40086,4.38787 2.60072,10.70189 -1.78715,14.10275 -4.38788,3.40086 -10.70189,2.60072 -14.10275,-1.78715 z m 23.51451,-18.71341 c -3.73067,-4.11114 -3.42223,-10.46817 0.68891,-14.19883 4.11114,-3.73067 10.46818,-3.42223 14.19884,0.68891 3.73066,4.11114 3.42222,10.46818 -0.68892,14.19884 -4.11114,3.73066 -10.46817,3.42222 -14.19883,-0.68892 z m 21.99365,-20.47933 c -4.03803,-3.80968 -4.22314,-10.1715 -0.41346,-14.20953 3.80968,-4.03802 10.1715,-4.22313 14.20953,-0.41345 4.03802,3.80968 4.22313,10.1715 0.41345,14.20952 -3.80968,4.03803 -10.1715,4.22314 -14.20952,0.41346 z m 20.34052,-22.12209 c -4.3211,-3.48531 -4.99865,-9.81366 -1.51334,-14.13476 3.48531,-4.3211 9.81365,-4.99865 14.13476,-1.51334 4.3211,3.48531 4.99864,9.81365 1.51334,14.13475 -3.48531,4.32111 -9.81366,4.99865 -14.13476,1.51335 z m 18.56506,-23.63181 c -4.57819,-3.13997 -5.7441,-9.39678 -2.60412,-13.97498 3.13997,-4.57819 9.39678,-5.7441 13.97498,-2.60413 4.57818,3.13998 5.74408,9.39679 2.60412,13.97498 -3.13997,4.5782 -9.39678,5.74411 -13.97498,2.60413 z m 16.67794,-24.99939 c -4.80773,-2.77576 -6.45499,-8.92341 -3.67924,-13.73116 2.77574,-4.80775 8.92344,-6.45501 13.73114,-3.67925 4.8078,2.77576 6.455,8.9234 3.6793,13.73115 -2.7758,4.80776 -8.9234,6.45501 -13.7312,3.67926 z m 14.6906,-26.21664 c -5.0084,-2.39484 -7.1271,-8.39636 -4.7323,-13.40475 2.3948,-5.00839 8.3964,-7.12709 13.4048,-4.73225 5.0083,2.39485 7.127,8.39636 4.7322,13.40475 -2.3948,5.0084 -8.3964,7.1271 -13.4047,4.73225 z m 12.6147,-27.2762 c -5.1789,-1.99953 -7.7563,-7.81882 -5.7568,-12.99773 1.9996,-5.17892 7.8189,-7.75632 12.9978,-5.75679 5.1789,1.99953 7.7563,7.81881 5.7568,12.99773 -1.9996,5.17892 -7.8189,7.75632 -12.9978,5.75679 z m 10.4632,-28.17174 c -5.3183,-1.59219 -8.3389,-7.19424 -6.7467,-12.51253 1.5922,-5.31829 7.1942,-8.3389 12.5125,-6.7467 5.3183,1.59219 8.3389,7.19424 6.7467,12.51253 -1.5922,5.31829 -7.1942,8.3389 -12.5125,6.7467 z m 8.2485,-28.89783 c -5.4256,-1.17528 -8.8713,-6.52641 -7.696,-11.95209 1.1753,-5.42568 6.5264,-8.87132 11.9521,-7.69604 5.4257,1.17528 8.8713,6.52641 7.696,11.95209 -1.1752,5.42568 -6.5264,8.87132 -11.9521,7.69604 z m 5.9845,-29.45014 c -5.5005,-0.75129 -9.3504,-5.81932 -8.5991,-11.31977 0.7513,-5.50044 5.8193,-9.35038 11.3197,-8.59909 5.5005,0.7513 9.3504,5.81933 8.5991,11.31977 -0.7513,5.50044 -5.8193,9.35039 -11.3197,8.59909 z m 3.6842,-29.82532 c -5.5421,-0.3228 -9.7732,-5.07725 -9.4504,-10.61937 0.3228,-5.54212 5.0772,-9.77322 10.6193,-9.45043 5.5422,0.32279 9.7733,5.07724 9.4505,10.61936 -0.3228,5.54213 -5.0773,9.77323 -10.6194,9.45044 z m 1.3619,-30.02115 c -5.5504,0.10766 -10.1372,-4.30462 -10.2449,-9.85509 -0.1076,-5.55047 4.3046,-10.13728 9.8551,-10.24493 5.5505,-0.10765 10.1373,4.30462 10.2449,9.85509 0.1077,5.55047 -4.3046,10.13728 -9.8551,10.24493 z m -0.9685,-30.0364 c -5.5255,0.53745 -10.4404,-3.50612 -10.9778,-9.03156 -0.5375,-5.52543 3.5061,-10.44037 9.0315,-10.97782 5.5254,-0.53744 10.4404,3.50612 10.9778,9.03156 0.5375,5.52543 -3.5061,10.44037 -9.0315,10.97782 z m -3.2933,-29.87103 c -5.4671,0.96401 -10.6806,-2.68652 -11.6447,-8.1537 -0.964,-5.46717 2.6866,-10.68067 8.1537,-11.64468 5.4672,-0.96402 10.6807,2.68652 11.6447,8.15369 0.964,5.46718 -2.6865,10.68068 -8.1537,11.64469 z m -5.5981,-29.526 c -5.376,1.38477 -10.8567,-1.85078 -12.2415,-7.22681 -1.3848,-5.37603 1.8508,-10.85674 7.2268,-12.24152 5.376,-1.38477 10.8567,1.85078 12.2415,7.22681 1.3848,5.37603 -1.8508,10.85674 -7.2268,12.24152 z m -7.8693,-29.00341 c -5.2526,1.79722 -10.9675,-1.00389 -12.7648,-6.25644 -1.7972,-5.25256 1.0039,-10.96752 6.2565,-12.76474 5.2525,-1.79721 10.9675,1.0039 12.7647,6.25645 1.7972,5.25256 -1.0039,10.96752 -6.2564,12.76473 z m -10.0932,-28.30637 c -5.0975,2.19884 -11.0124,-0.15098 -13.2112,-5.24847 -2.1989,-5.09748 0.151,-11.01233 5.2484,-13.21117 5.0975,-2.19884 11.0124,0.15097 13.2112,5.24846 2.1989,5.09749 -0.151,11.01234 -5.2484,13.21118 z m -12.2564,-27.43911 c -4.9118,2.58725 -10.9909,0.70285 -13.5782,-4.20892 -2.5872,-4.91176 -0.7028,-10.99091 4.2089,-13.57816 4.9118,-2.58725 10.9909,-0.70285 13.5782,4.20892 2.5872,4.91176 0.7028,10.99091 -4.2089,13.57816 z m -14.3459,-26.40682 c -4.69649,2.96009 -10.90339,1.55245 -13.86348,-3.14405 -2.96009,-4.69651 -1.55245,-10.90341 3.14405,-13.8635 4.69651,-2.96009 10.90343,-1.55245 13.86353,3.14406 2.9601,4.6965 1.5524,10.9034 -3.1441,13.86349 z m -16.34904,-25.21572 c -4.45299,3.31514 -10.75031,2.39271 -14.06544,-2.06028 -3.31514,-4.453 -2.39272,-10.75031 2.06028,-14.06545 4.453,-3.31513 10.75031,-2.39271 14.06545,2.06029 3.31513,4.45299 2.39271,10.75031 -2.06029,14.06544 z M 968.97825,371.8603 c -4.18271,3.65023 -10.53257,3.21858 -14.18281,-0.96413 -3.65023,-4.18271 -3.21858,-10.53257 0.96413,-14.1828 4.18271,-3.65024 10.53257,-3.21859 14.1828,0.96412 3.65024,4.18271 3.21859,10.53257 -0.96412,14.18281 z m -20.04899,-22.38664 c -3.88727,3.96339 -10.25148,4.0251 -14.21487,0.13783 -3.96339,-3.88726 -4.02511,-10.25148 -0.13784,-14.21487 3.88727,-3.96339 10.25148,-4.0251 14.21487,-0.13783 3.96339,3.88726 4.0251,10.25148 0.13784,14.21487 z m -21.72351,-20.76568 c -3.56844,4.25271 -9.90873,4.80741 -14.16144,1.23897 -4.25271,-3.56845 -4.80741,-9.90874 -1.23897,-14.16145 3.56845,-4.2527 9.90874,-4.80741 14.16145,-1.23896 4.2527,3.56844 4.80741,9.90874 1.23896,14.16144 z m -23.26736,-19.01982 c -3.22816,4.51644 -9.5064,5.5608 -14.02285,2.33264 -4.51644,-3.22816 -5.5608,-9.5064 -2.33264,-14.02285 3.22816,-4.51644 9.5064,-5.5608 14.02285,-2.33264 4.51644,3.22816 5.5608,9.5064 2.33264,14.02285 z m -24.67128,-17.15959 c -2.86847,4.75302 -9.0469,6.28076 -13.79992,3.41229 -4.75302,-2.86846 -6.28076,-9.04689 -3.4123,-13.79992 2.86847,-4.75302 9.0469,-6.28075 13.79992,-3.41229 4.75302,2.86846 6.28076,9.0469 3.4123,13.79992 z m -25.92684,-15.19615 c -2.49151,4.96101 -8.53298,6.96294 -13.49399,4.47142 -4.96102,-2.49151 -6.96294,-8.53298 -4.47143,-13.49399 2.49152,-4.96102 8.53298,-6.96294 13.494,-4.47143 4.96101,2.49152 6.96294,8.53299 4.47142,13.494 z M 826.31381,264.1911 c -2.09958,5.13917 -7.96775,7.60324 -13.10692,5.50366 -5.13916,-2.09958 -7.60324,-7.96775 -5.50366,-13.10692 2.09959,-5.13917 7.96775,-7.60324 13.10692,-5.50366 5.13917,2.09958 7.60324,7.96775 5.50366,13.10692 z m -27.96354,-11.00746 c -1.69502,5.28642 -7.3546,8.19782 -12.64101,6.5028 -5.28642,-1.69502 -8.19782,-7.3546 -6.5028,-12.64101 1.69502,-5.28642 7.3546,-8.19782 12.64101,-6.5028 5.28642,1.69502 8.19782,7.35459 6.5028,12.64101 z m -28.73245,-8.80739 c -1.28027,5.40187 -6.69721,8.74309 -12.09908,7.46282 -5.40187,-1.28027 -8.74309,-6.69721 -7.46283,-12.09908 1.28027,-5.40187 6.69721,-8.74309 12.09909,-7.46283 5.40187,1.28027 8.74309,6.69721 7.46282,12.09909 z m -29.32855,-6.55437 c -0.85782,5.48484 -5.99955,9.23579 -11.48439,8.37797 -5.48484,-0.85781 -9.23578,-5.99955 -8.37797,-11.48438 0.85781,-5.48484 5.99955,-9.23579 11.48439,-8.37798 5.48483,0.85782 9.23578,5.99955 8.37797,11.48439 z m -29.74828,-4.26191 c -0.4302,5.53482 -5.2658,9.67293 -10.80062,9.24273 -5.53482,-0.4302 -9.67293,-5.26581 -9.24273,-10.80063 0.4302,-5.53482 5.2658,-9.67293 10.80062,-9.24273 5.53482,0.4302 9.67293,5.26581 9.24273,10.80063 z"
       class="UnoptimicedTransforms" />
    <circle
       style="fill:none;fill-opacity:1;fill-rule:evenodd;stroke:none;stroke-width:1.96601;stroke-dasharray:none;stroke-opacity:1"
       id="path27787"
       cx="670.49994"
       cy="618.99994"
       r="424.42932" />
    <g
       transform="rotate(97.30127,669.56925,619.97129)"
       id="text27947"
       style="font-weight:bold;font-size:106.667px;font-family:FreeSerif;-inkscape-font-specification:'FreeSerif Bold';fill:#ffffff;fill-rule:evenodd;stroke-width:2">
      <path
         d="m 1106.671,645.81404 56.0289,4.54964 q 0.484,-9.91335 -3.2825,-14.92798 -3.6689,-4.89967 -13.0188,-7.05014 l 0.2504,-3.08318 21.3437,2.0542 -5.1798,63.79004 -21.387,-1.52262 0.2504,-3.08319 q 9.5744,-0.61377 13.9943,-4.96365 4.5176,-4.23493 5.6308,-13.99017 l -56.0289,-4.54964 q -6.0601,-0.49209 -7.793,1.07948 -1.7415,1.67789 -2.8342,8.54531 l -2.658,-0.21582 3.0821,-37.95508 2.6579,0.21583 q -0.021,6.84744 1.4357,8.678 1.5543,1.94552 7.508,2.42897 z"
         id="path31485" />
      <path
         d="m 1111.0241,749.25906 6.6058,-24.84344 -23.7095,-6.30427 q -3.8142,-1.01417 -5.7233,0.35454 -1.9366,1.47179 -4.0627,6.97699 l -2.5771,-0.68525 9.2372,-34.73957 2.5771,0.68524 q -0.7037,5.55228 0.1978,7.55797 0.9772,2.13618 4.7914,3.15034 l 49.893,13.26638 q 3.8141,1.01417 5.7507,-0.45762 2.0122,-1.3413 3.8982,-6.35849 l 2.5771,0.68525 -9.2371,34.73958 -2.5772,-0.68525 q 1.013,-5.47005 -0.013,-7.83981 -0.9224,-2.34235 -4.8396,-3.38392 l -21.3386,-5.67385 -6.6057,24.84344 21.3385,5.67385 q 3.9172,1.04157 5.8812,-0.5333 2.0671,-1.54747 3.9047,-6.79824 l 2.5771,0.68525 -9.3193,35.04883 -2.5771,-0.68524 q 0.9855,-5.36697 -0.04,-7.73673 -1.0529,-2.26667 -4.8671,-3.28084 l -49.893,-13.26638 q -3.8142,-1.01416 -5.7233,0.35454 -1.8061,1.39612 -4.0078,6.77083 l -2.5771,-0.68525 9.3193,-35.04883 2.5771,0.68524 q -0.889,5.83413 0.088,7.97031 0.9498,2.23926 4.764,3.25343 z"
         id="path31487" />
      <path
         d="m 1056.3421,803.6283 q -4.9725,10.50967 -3.3304,18.01282 1.6421,7.50315 8.353,15.51647 l -1.2773,2.69973 -18.2304,-13.34563 26.6874,-56.40515 2.4105,1.14049 q -1.9762,5.67319 -1.4527,7.80894 0.5236,2.13576 4.2839,3.91493 l 46.6668,22.07985 q 3.664,1.73354 5.9314,0.68229 2.2674,-1.05125 4.9289,-5.92818 l 2.4105,1.14048 -26.3225,55.6338 -19.3802,-9.16952 1.1405,-2.41048 q 10.5086,2.72999 15.8802,-0.39268 5.468,-3.07705 11.0336,-14.84017 1.7791,-3.76035 1.408,-5.46999 -0.2747,-1.66402 -2.9744,-2.94137 l -22.3693,-10.58373 -0.1824,0.38567 q -3.604,7.61711 -2.0696,12.35518 1.6307,4.7837 9.2281,9.67635 l -1.1861,2.50689 -32.5896,-15.4194 1.1861,-2.50689 q 8.799,3.10112 13.7196,1.1811 4.8749,-1.8236 8.6157,-9.72997 l -23.3334,-11.03992 q -3.0854,-1.45983 -5.018,-0.36814 -1.9782,1.18811 -4.1679,5.81623 z"
         id="path31489" />
      <path
         d="m 1056.0995,934.36341 q -3.1781,3.87728 -7.0229,6.38054 -3.83,2.65337 -6.7132,4.15181 -2.8833,1.49844 -3.8976,2.73587 -0.9467,1.15493 -0.7979,2.65608 0.1488,1.50114 1.6174,4.08418 l -1.8257,2.22737 -19.3038,-15.82282 1.6904,-2.06238 q 6.4603,1.7094 10.5053,1.99069 4.0599,0.43141 8.5335,-0.31511 9.015,-1.57553 13.6131,-7.18521 6.1533,-7.50707 2.5668,-16.92909 -3.5717,-9.27191 -16.5234,-19.88808 -14.7667,-12.10378 -26.009,-12.35395 -8.3604,-0.2326 -14.44612,7.19197 -3.38094,4.12476 -3.53376,7.17167 -0.0703,3.11453 3.0645,5.68405 l 8.66198,7.09998 q 3.3823,2.77238 5.657,2.01639 2.2896,-0.60587 6.9472,-5.61509 l 2.0624,1.69048 -23.1933,28.29586 -2.06238,-1.69047 q 3.29168,-5.02545 2.98604,-7.34478 -0.30564,-2.31933 -4.76038,-5.97075 l -10.47689,-8.5876 q 0.93584,-5.8531 4.60483,-13.18976 3.669,-7.33666 8.94327,-13.77129 10.61621,-12.95175 25.38011,-14.64224 14.7788,-1.54038 27.5655,8.94054 12.7043,10.41331 14.5071,25.54509 1.7351,15.21426 -8.3401,27.50605 z"
         id="path31491" />
      <path
         d="m 955.16219,1003.4716 q -2.12099,-2.5368 -3.08156,-5.34869 -1.0424,-2.74342 -1.05987,-5.09245 -0.0309,-2.19877 0.89341,-4.91807 0.84245,-2.65088 1.93176,-4.67392 1.00747,-1.95463 2.60118,-4.53844 l -35.94783,-9.5701 q -2.52746,-0.52854 -4.65511,1.25036 l -1.71048,-2.04582 16.77572,-14.02592 38.35457,11.45091 2.20948,-1.84731 -13.41014,-16.03923 q -3.62621,-4.33714 -5.94841,-4.62017 -2.3222,-0.28304 -7.54743,3.11244 l -1.71048,-2.04582 27.65948,-23.12566 1.71048,2.04582 q -4.3492,4.60956 -4.46857,6.79492 -0.20121,2.25377 3.56184,6.75458 l 30.24127,36.17009 q 3.6946,4.41897 6.2489,4.647 2.4724,0.29645 7.2469,-3.13927 l 1.7105,2.04582 -26.35016,22.03095 q -11.2111,9.37338 -20.25033,10.53528 -9.12108,1.2303 -15.00512,-5.8073 z m 34.40219,-8.74184 q 4.41897,-3.69463 1.54536,-7.1316 L 973.66287,966.7308 q -8.61927,7.4845 -9.74476,12.45758 -1.12549,4.97308 4.96381,12.2562 5.40511,6.46479 10.18634,7.19453 4.84965,0.81157 10.49612,-3.90935 z"
         id="path31493" />
      <path
         d="m 882.03529,990.77302 q -10.08031,5.79368 -13.01293,12.89248 -2.93262,7.0989 -1.99368,17.5089 l -2.58944,1.4882 -7.35663,-21.3619 54.10075,-31.09451 1.32883,2.312 q -4.85996,3.53144 -5.64865,5.58413 -0.78869,2.05269 1.28428,5.6594 l 25.72605,44.76028 q 2.01982,3.5142 4.48175,3.9447 2.46194,0.4304 7.43035,-2.0561 l 1.32883,2.312 -53.36091,30.6693 -10.68376,-18.5885 2.312,-1.3288 q 7.07242,8.2381 13.2655,8.7386 6.24624,0.593 17.52879,-5.8917 3.60672,-2.073 4.27743,-3.6888 0.72386,-1.5233 -0.76443,-4.1127 l -12.33149,-21.4554 -0.36992,0.2127 q -7.30592,4.199 -8.74934,8.9656 -1.39027,4.859 2.05731,13.212 l -2.40448,1.382 -17.96572,-31.2582 2.40448,-1.382 q 5.45663,7.5674 10.59311,8.7982 5.044,1.284 12.62735,-3.0746 l -12.86303,-22.38011 q -1.70089,-2.95935 -3.91089,-3.16551 -2.30247,-0.15301 -6.74151,2.39834 z"
         id="path31495" />
      <path
         d="m 781.66592,1033.1546 -0.91888,-2.5033 32.44344,-11.9087 0.91888,2.5033 q -1.99255,1.0723 -3.09403,1.4766 -4.69617,2.0647 -3.59351,5.0687 1.10266,3.004 9.60488,11.9275 l 22.53016,-8.27 0.0686,-4.4565 q 0.14724,-8.576 -0.47759,-10.2783 -0.69835,-1.9025 -2.96845,-2.2055 -2.23335,-0.2029 -6.74951,1.114 l -0.91888,-2.5034 20.32721,-7.4613 0.91888,2.5034 q -3.34754,2.0241 -4.21458,4.6149 -0.96717,2.6275 -1.29819,10.7028 l -2.08789,63.0331 -2.80376,1.0291 -41.66315,-44.4741 q -6.93942,-7.4518 -9.7976,-9.3569 -2.92156,-1.7683 -5.82545,-0.7024 z m 57.82239,2.7507 -19.52614,7.1673 19.04506,20.6203 z"
         id="path31497" />
      <path
         d="m 759.37525,1046.8623 10.34917,55.2525 q 9.69152,-2.1409 13.53875,-7.0939 3.76202,-4.8284 3.37721,-14.4148 l 3.04046,-0.5695 3.63269,21.1324 -62.90602,11.7828 -4.1569,-21.0343 3.04045,-0.5695 q 3.11074,9.0758 8.47009,12.1958 5.27414,3.2445 14.97864,1.7523 l -10.34917,-55.2525 q -1.11936,-5.976 -3.09142,-7.2345 -2.0769,-1.2388 -8.98991,-0.4865 l -0.49095,-2.6211 37.42908,-7.0107 0.49095,2.621 q -6.61179,1.7811 -7.99471,3.6679 -1.46813,2.0114 -0.36841,7.8826 z"
         id="path31499" />
      <path
         d="m 656.68343,1116.9459 q -5.11768,-0.154 -10.6073,-2.1333 -5.49282,-1.8727 -6.23915,-1.8952 -1.38604,-0.042 -2.15483,0.6822 -0.77199,0.8304 -1.36604,2.8402 l -3.19855,-0.096 0.69618,-23.1362 2.98532,0.09 q 2.78715,10.2218 8.18694,15.1865 5.29316,4.9614 11.79689,5.1571 5.43754,0.1637 8.72271,-2.6188 3.17856,-2.7856 3.32613,-7.6901 0.1155,-3.8383 -2.04649,-6.4645 -2.27181,-2.5228 -8.57267,-5.9138 l -15.43871,-8.2548 q -5.04068,-2.7128 -8.18223,-8.2498 -3.14156,-5.537 -2.96189,-11.5076 0.30157,-10.0222 7.84752,-16.0913 7.43613,-5.9657 19.27078,-5.6096 5.75739,0.1733 11.46024,2.159 5.59624,1.9826 6.66242,2.0147 2.34561,0.071 3.30764,-3.5288 l 3.09193,0.093 -0.79243,26.3348 -3.09194,-0.093 q -4.85759,-22.9831 -21.06359,-23.4708 -6.18387,-0.1861 -9.90835,3.01 -3.72448,3.1961 -3.89131,8.7403 -0.12512,4.1581 2.2469,6.8973 2.37202,2.7393 9.30938,6.2562 l 7.04077,3.6267 q 9.35108,4.8702 13.56523,10.226 4.21095,5.4625 3.9992,12.4993 -0.30478,10.1287 -6.66189,15.7 -6.46373,5.5681 -17.33881,5.2409 z"
         id="path31501" />
      <path
         d="m 589.65278,1039.0318 q -11.42657,-2.1477 -18.26892,1.3417 -6.84235,3.4894 -12.89409,12.0115 l -2.93527,-0.5517 8.29172,-21.0167 61.32608,11.527 -0.4926,2.6208 q -5.98876,-0.4745 -7.92221,0.573 -1.93345,1.0476 -2.70191,5.136 l -9.53685,50.7381 q -0.74876,3.9836 0.84263,5.9108 1.59139,1.9271 6.98349,3.2662 l -0.49261,2.6208 -60.48744,-11.3694 3.96055,-21.071 2.62078,0.4926 q 0.0214,10.8575 4.40301,15.2627 4.36194,4.5101 17.15131,6.914 4.0884,0.7685 5.64825,-0.024 1.54014,-0.6873 2.09186,-3.6226 l 4.57138,-24.3208 -0.41933,-0.079 q -8.28164,-1.5566 -12.47642,1.128 -4.2145,2.7895 -7.02279,11.3786 l -2.7256,-0.5123 6.66003,-35.4329 2.7256,0.5123 q -0.77079,9.2976 2.33318,13.5713 2.99914,4.2539 11.59527,5.8696 l 4.76843,-25.3691 q 0.63053,-3.3546 -0.91514,-4.9475 -1.65051,-1.6127 -6.68239,-2.5585 z"
         id="path31503" />
      <path
         d="m 485.88003,1005.8302 0.94119,-2.4951 32.33587,12.1977 -0.94118,2.4951 q -2.20879,-0.4912 -3.30661,-0.9053 -4.90344,-1.5077 -6.03286,1.4864 -1.12942,2.994 -0.52914,15.3048 l 22.45547,8.4707 2.96528,-3.3276 q 5.71781,-6.3934 6.35781,-8.09 0.7153,-1.8962 -0.80447,-3.6096 -1.55741,-1.6135 -5.83576,-3.5694 l 0.94118,-2.495 20.25983,7.6424 -0.94119,2.495 q -3.8564,-0.6567 -6.20618,0.737 -2.44958,1.3561 -7.97916,7.2504 l -42.78679,46.3339 -2.79446,-1.0541 -2.45338,-60.8913 q -0.37971,-10.1755 -1.29712,-13.4857 -1.05486,-3.248 -3.94912,-4.3397 z m 41.95746,39.8819 -19.4614,-7.3413 0.93171,28.0543 z"
         id="path31505" />
      <path
         d="m 451.04692,986.15353 q -2.66074,-1.5777 -5.1721,-2.5708 -2.60311,-1.04749 -4.76453,-1.58507 -2.16141,-0.53757 -4.41135,-0.50759 -2.39609,0.0673 -3.93232,0.14848 -1.62797,0.0267 -3.69118,0.7875 -2.11761,0.8525 -3.19508,1.20567 -1.13189,0.44493 -2.9369,1.60679 -1.80501,1.16186 -2.40668,1.54915 -0.65608,0.47904 -2.27759,1.74971 -1.71327,1.21627 -1.91382,1.34536 l -2.66075,-1.5777 16.11137,-18.59665 53.03137,31.44532 -1.36009,2.2937 q -5.42707,-2.3499 -7.51056,-1.9732 -2.17524,0.3223 -4.24258,3.8088 l -26.33137,44.4068 q -2.06734,3.4865 -1.2319,5.842 0.74369,2.3012 5.25972,5.351 l -1.36009,2.2937 -32.02067,-18.9868 1.36009,-2.2938 q 6.12695,3.261 8.70331,2.6805 2.52195,-0.4887 5.56855,-5.6267 l 25.67853,-43.30589 q 1.74091,-2.93599 0.83401,-4.96185 -0.9069,-2.02586 -5.12739,-4.52843 z"
         id="path31507" />
      <path
         d="m 319.94627,972.90924 q -11.45294,-11.32497 -11.38684,-26.41052 -0.01,-15.16055 11.46522,-26.76519 11.62497,-11.75632 26.70967,-11.84107 15.00886,-0.15975 26.76519,11.46522 11.75633,11.62496 11.91607,26.63382 0.009,15.00971 -11.61606,26.76604 -11.69997,11.83217 -26.78468,11.91692 -15.16055,0.01 -27.06857,-11.76522 z m 2.55084,-2.42796 q 6.67456,6.59998 16.53852,3.60296 9.86395,-2.99703 22.01392,-15.28429 11.39997,-11.52879 13.98682,-20.97156 2.51101,-9.51777 -4.01185,-15.96775 -6.52287,-6.44998 -15.93598,-3.75719 -9.56396,2.69364 -21.11393,14.37412 -11.69996,11.83217 -14.66097,21.80503 -3.11185,9.9737 3.18347,16.19868 z"
         id="path31509" />
      <path
         d="m 266.97263,871.23116 q -1.98147,2.18581 -2.75452,3.1247 -0.86011,1.0005 -2.28298,3.05244 -1.50995,2.11354 -1.82628,3.5133 -0.31633,1.39975 -0.48813,3.74255 -0.25888,2.40441 0.57397,4.68975 0.74577,2.34695 2.28175,5.44147 1.53598,3.09452 4.0618,6.66471 2.34101,3.30896 4.01265,3.82492 1.58457,0.57757 4.02276,-1.14738 l 20.20207,-14.29244 q -4.6204,-6.53084 -9.29119,-7.40757 -4.75786,-0.81512 -13.10904,3.26385 l -1.54013,-2.17695 29.43233,-20.82261 1.54013,2.17695 q -6.95972,6.23045 -7.80032,11.13699 -0.84059,4.90655 3.72886,11.73476 l 20.28915,-14.35405 q 3.5702,-2.52582 3.55718,-5.12985 -0.1617,-2.6295 -4.15124,-8.8227 l 2.17695,-1.54013 22.17793,31.34804 -2.17695,1.54014 q -3.97237,-4.50673 -6.09007,-5.09911 -2.11769,-0.59238 -5.51373,1.81023 l -42.1457,29.81699 q -3.39604,2.40261 -3.50623,4.83248 -0.19727,2.49148 2.74497,7.20435 l -2.17695,1.54013 -34.93023,-49.37316 17.50266,-12.38267 z"
         id="path31511" />
      <path
         d="m 270.4175,794.77693 -51.89957,21.59567 q 4.10645,9.03582 9.75027,11.77082 5.50436,2.67751 14.8019,0.31068 l 1.18838,2.85595 -19.91765,7.94124 -24.58711,-59.0887 19.71276,-8.43364 1.18837,2.85595 q -8.2321,4.92735 -10.17133,10.8177 -2.07869,5.83285 1.39589,15.01606 l 51.89957,-21.59568 q 5.61343,-2.33578 6.43499,-4.52615 0.78058,-2.28886 -1.39062,-8.89503 l 2.46203,-1.02446 14.62933,35.15777 -2.46203,1.02447 q -3.11503,-6.09791 -5.2479,-7.05893 -2.27233,-1.01852 -7.78728,1.27628 z"
         id="path31513" />
      <path
         d="m 219.20297,704.7952 5.49734,25.11199 23.9658,-5.24643 q 3.85537,-0.84399 4.92638,-2.93472 1.04819,-2.19493 0.41881,-8.06275 l 2.60497,-0.57026 7.68716,35.1151 -2.60498,0.57027 q -1.91554,-5.25868 -3.6351,-6.62933 -1.84656,-1.45204 -5.70193,-0.60805 l -50.43237,11.04031 q -3.85537,0.84399 -4.90357,3.03892 -1.1752,2.11355 -0.55567,7.43755 l -2.60498,0.57027 -7.68716,-35.1151 2.60498,-0.57027 q 1.60295,5.32711 3.59933,6.96474 1.89219,1.66043 5.85176,0.79363 l 21.56921,-4.72178 -5.49734,-25.11199 -21.56922,4.72179 q -3.95956,0.8668 -4.98495,3.16593 -1.12959,2.32194 -0.36023,7.83154 l -2.60498,0.57026 -7.75559,-35.4277 2.60498,-0.57026 q 1.58013,5.22291 3.57652,6.86053 1.97358,1.53343 5.82894,0.68944 l 50.43238,-11.04031 q 3.85536,-0.84399 4.92637,-2.93472 0.96681,-2.06793 0.46443,-7.85435 l 2.60498,-0.57027 7.75559,35.4277 -2.60498,0.57027 q -1.87977,-5.59409 -3.72634,-7.04613 -1.86938,-1.55623 -5.72474,-0.71224 z"
         id="path31515" />
      <path
         d="m 242.9402,631.42703 q -0.38834,-11.62018 -5.28213,-17.54002 -4.89379,-5.91985 -14.5279,-9.97366 l -0.0998,-2.985 22.31679,3.52324 2.08419,62.36518 -2.66518,0.0891 q -0.83915,-5.94863 -2.28205,-7.60802 -1.4429,-1.6594 -5.60057,-1.52046 l -51.59786,1.72436 q -4.05108,0.13538 -5.58605,2.10775 -1.53498,1.97237 -1.66954,7.52663 l -2.66518,0.0891 -2.05569,-61.51233 21.42804,-0.71611 0.0891,2.66518 q -10.59303,2.38181 -13.94005,7.61652 -3.45364,5.23828 -3.01898,18.24435 0.13894,4.15768 1.25133,5.50795 1.00578,1.35382 3.99078,1.25407 l 24.73286,-0.82655 -0.0143,-0.42643 q -0.28146,-8.42196 -3.81402,-11.9326 -3.63917,-3.50707 -12.63336,-4.38049 l -0.0926,-2.77178 36.03322,-1.2042 0.0926,2.77179 q -9.24276,1.26942 -12.73914,5.22841 -3.49995,3.85238 -3.20781,12.59417 l 25.79893,-0.86218 q 3.41143,-0.11401 4.63015,-1.96908 1.21516,-1.96168 1.04415,-7.07883 z"
         id="path31517" />
      <path
         d="m 180.65558,528.47313 q 0.94234,-5.03253 3.74556,-10.1507 2.69838,-5.1378 2.83581,-5.87171 0.25521,-1.36298 -0.34127,-2.23431 -0.70133,-0.89097 -2.59522,-1.7882 l 0.58896,-3.14533 22.75125,4.26016 -0.5497,2.93564 q -10.52955,1.17544 -16.26842,5.74391 -5.71924,4.46362 -6.9168,10.85914 -1.00123,5.34706 1.24061,9.02246 2.26147,3.57056 7.08431,4.47363 3.7744,0.70676 6.70294,-1.0238 2.84333,-1.85504 7.16659,-7.55675 l 10.53956,-13.97899 q 3.45861,-4.56136 9.41427,-6.81031 5.95566,-2.24894 11.82695,-1.14954 9.85538,1.84542 14.68659,10.23798 4.74599,8.26808 2.56683,19.90581 -1.06013,5.6616 -3.90262,10.98946 -2.82286,5.22301 -3.01918,6.27145 -0.43191,2.30658 2.97575,3.81283 l -0.56933,3.04049 -25.89658,-4.84913 0.56933,-3.04049 q 23.45758,-1.25064 26.44166,-17.187 1.13866,-6.08098 -1.44403,-10.25428 -2.58268,-4.17331 -8.0346,-5.19418 -4.08893,-0.76565 -7.16158,1.15497 -3.07265,1.92062 -7.61854,8.23176 l -4.67038,6.39635 q -6.25556,8.48698 -12.19786,11.82363 -6.04713,3.31702 -12.96687,2.0213 -9.96022,-1.86505 -14.48316,-9.00616 -4.50331,-7.24596 -2.50083,-17.94009 z"
         id="path31519" />
      <path
         d="m 255.41344,482.4901 -53.13421,-18.34924 q -2.93563,9.48108 -0.5355,15.27525 2.33412,5.65852 10.85481,10.06806 l -1.00973,2.9239 -20.16115,-7.30095 20.89096,-60.49436 20.33525,6.79683 -1.00973,2.92389 q -9.42597,-1.78811 -14.78928,1.32504 -5.42932,2.97752 -8.93507,12.14887 l 53.13421,18.34923 q 5.74696,1.98464 7.81641,0.89373 2.10427,-1.19173 4.87158,-7.57119 l 2.5206,0.87045 -12.43013,35.99415 -2.52059,-0.87046 q 1.72425,-6.62682 0.76898,-8.76228 -1.02127,-2.2711 -6.66741,-4.22092 z"
         id="path31521" />
      <path
         d="m 312.66933,382.69494 2.34775,1.26458 -16.38888,30.42693 -2.34775,-1.26457 q 0.78051,-2.12387 1.33692,-3.15688 2.14625,-4.65944 -0.67106,-6.17693 -2.81731,-1.51749 -15.09861,-2.55941 l -11.38117,21.12981 2.90376,3.38139 q 5.57636,6.51712 7.17284,7.37703 1.78429,0.96108 3.68447,-0.31739 1.80627,-1.32905 4.31365,-5.30935 l 2.34776,1.26457 -10.26834,19.06379 -2.34776,-1.26457 q 1.16362,-3.73485 0.0947,-6.24908 -1.0183,-2.60813 -6.12511,-8.87234 l -40.23342,-48.56754 1.41632,-2.62949 60.67681,5.66464 q 10.13568,0.97662 13.53842,0.50749 3.35942,-0.61364 4.82632,-3.33703 z m -45.10656,36.28214 9.86368,-18.3125 -27.92908,-2.80673 z"
         id="path31523" />
      <path
         d="m 320.26677,357.65389 -44.38269,-34.49805 q -5.83524,8.02862 -5.43105,14.28718 0.38544,6.10889 7.02982,13.02976 l -1.89838,2.44231 -16.73136,-13.41035 39.27672,-50.53058 17.05866,12.98927 -1.89837,2.44231 q -8.34637,-4.73122 -14.42693,-3.51317 -6.09932,1.06837 -12.3744,8.62001 l 44.38269,34.49805 q 4.80041,3.73129 7.11105,3.36572 2.37611,-0.44978 7.05217,-5.59662 l 2.10544,1.63653 -23.36964,30.0657 -2.10544,-1.63653 q 3.76843,-5.71724 3.55254,-8.04664 -0.23464,-2.47908 -4.95083,-6.1449 z"
         id="path31525" />
      <path
         d="m 381.97044,303.22685 q 8.54877,-7.88022 9.83822,-15.45195 1.28945,-7.57173 -1.92926,-17.51604 l 2.19602,-2.02427 11.90031,19.20508 -45.88102,42.29292 -1.80739,-1.96073 q 3.95825,-4.51913 4.27328,-6.69544 0.31502,-2.17631 -2.50451,-5.23504 l -34.99106,-37.95969 q -2.74724,-2.98031 -5.24339,-2.85542 -2.49616,0.12488 -6.79136,3.64897 l -1.80739,-1.96073 45.25359,-41.71456 14.53142,15.76425 -1.96073,1.80739 q -8.71971,-6.46929 -14.87007,-5.58726 -6.22264,0.8036 -15.79099,9.62366 -3.05874,2.81953 -3.35536,4.54366 -0.36892,1.6457 1.65536,3.84172 l 16.77257,18.19555 0.31372,-0.28918 q 6.1959,-5.71135 6.54903,-10.67913 0.28084,-5.04621 -4.92927,-12.42951 l 2.03915,-1.87969 24.43591,26.50904 -2.03915,1.87969 q -6.99558,-6.17267 -12.27708,-6.23662 -5.20307,-0.13625 -11.63426,5.79199 l 17.49554,18.97985 q 2.31345,2.50973 4.5143,2.22185 2.27927,-0.36017 6.04387,-3.83036 z"
         id="path31527" />
      <path
         d="m 432.14302,181.59122 q 14.13662,-7.71884 28.56794,-3.32392 14.52494,4.3438 22.34602,18.66767 7.92331,14.5111 3.67313,28.98492 -4.15657,14.4227 -18.66767,22.34602 -14.5111,7.92332 -28.93381,3.76675 -14.3802,-4.3013 -22.30351,-18.8124 -7.97444,-14.60473 -3.72425,-29.07855 4.3438,-14.52494 19.04215,-22.55049 z m 1.59328,3.14058 q -8.23857,4.4984 -8.20004,14.80754 0.0385,10.30913 8.31966,25.47558 7.76997,14.23024 16.07232,19.41953 8.39598,5.13816 16.4473,0.742 8.05132,-4.39616 8.17477,-14.18608 0.16595,-9.93466 -7.70625,-24.35215 -7.97444,-14.60472 -16.67712,-20.30461 -8.66018,-5.84462 -16.43064,-1.60181 z"
         id="path31529" />
      <path
         d="m 544.74808,160.0442 q -1.52491,-2.5256 -2.20233,-3.53565 -0.71144,-1.11116 -2.26849,-3.06324 -1.59106,-2.05318 -2.84106,-2.75806 -1.25001,-0.70488 -3.44486,-1.54207 -2.22885,-0.93828 -4.6571,-0.79662 -2.46225,0.0406 -5.86748,0.62345 -3.40522,0.58288 -7.55027,1.97736 -3.84176,1.29244 -4.81593,2.74558 -1.00818,1.35205 -0.0558,4.18281 l 7.89072,23.45494 q 7.58241,-2.55088 9.76321,-6.77332 2.14679,-4.32353 0.63717,-13.4942 l 2.52747,-0.85029 11.49596,34.17141 -2.52747,0.8503 q -3.97001,-8.45549 -8.42866,-10.66936 -4.45865,-2.21388 -12.31128,0.20282 l 7.92472,23.55604 q 1.39449,4.14505 3.89263,4.8802 2.56522,0.60004 9.64308,-1.44347 l 0.85029,2.52747 -36.39559,12.24422 -0.85029,-2.52747 q 5.45747,-2.51125 6.6329,-4.36973 1.17543,-1.85847 -0.15103,-5.80132 l -16.46167,-48.93185 q -1.32646,-3.94286 -3.6224,-4.74603 -2.32996,-0.90428 -7.68913,0.56104 l -0.85029,-2.52748 57.32305,-19.28464 6.83636,20.32088 z"
         id="path31531" />
      <path
         d="m 661.04618,129.18651 -22.59478,66.57185 -2.87389,0.18746 -30.94708,-61.47603 3.26316,50.02702 q 0.3888,5.96067 2.65647,7.95062 2.26072,1.88351 8.78136,1.88575 l 0.17358,2.66102 -24.90707,1.62463 -0.17358,-2.66101 q 6.13189,-1.04133 7.73774,-2.64258 1.70534,-1.71464 1.39291,-6.50446 l -3.29787,-50.55922 q -0.27077,-4.15118 -2.17746,-5.52332 -1.90669,-1.37214 -7.78868,-1.41604 l -0.17358,-2.66101 26.92944,-1.75655 24.56514,48.85132 18.01105,-51.62848 26.823,-1.74961 0.17357,2.66102 q -5.82645,0.80762 -7.51791,2.73513 -1.58502,1.92058 -1.2101,7.66836 l 3.06875,47.04669 q 0.36798,5.64135 2.07567,7.24025 1.70769,1.5989 7.92984,1.9413 l 0.17357,2.66101 -35.33823,2.30504 -0.17358,-2.66101 q 5.92596,-0.921 7.5318,-2.52226 1.71229,-1.60819 1.42069,-6.07869 z"
         id="path31533" />
      <path
         d="m 706.43013,185.72877 5.29942,-51.35396 q 0.41607,-4.03192 -1.5527,-5.73635 -1.85173,-1.79958 -7.5375,-2.81525 l 0.27373,-2.65258 37.13612,3.83222 -0.27373,2.65258 q -5.85757,-0.39 -8.14387,0.98257 -2.28631,1.37256 -2.71333,5.51059 l -5.29942,51.35395 q -0.42702,4.13803 1.43565,5.83151 1.86268,1.69348 7.86676,2.74199 l -0.27373,2.65258 -37.13612,-3.83222 0.27373,-2.65258 q 5.99652,0.0826 8.05967,-1.20572 2.16925,-1.27741 2.58532,-5.30933 z"
         id="path31535" />
      <path
         d="m 776.65652,133.74932 25.12305,53.3726 7.82764,-31.57762 q 1.36021,-5.48726 -0.0936,-8.04554 -1.42818,-2.66182 -6.99418,-4.59103 l 0.64161,-2.58833 22.25963,5.51785 -0.64161,2.58833 q -5.27844,-0.42929 -7.21641,0.73874 -1.80876,1.09016 -2.91233,5.54209 l -15.11633,60.98103 -2.89893,-0.7186 -32.31789,-67.79403 -10.31709,41.62033 q -1.36021,5.48726 -0.01,8.01988 1.47951,2.45476 7.30478,4.66802 l -0.64161,2.58833 -23.50203,-5.82581 0.64161,-2.58833 q 5.87398,0.68681 7.91547,-0.45556 2.14503,-1.1167 3.2486,-5.56863 l 12.16492,-49.07472 q -2.62362,-5.37584 -4.02439,-7.2616 -1.37509,-1.98929 -2.92809,-2.37426 l 0.64161,-2.58833 z"
         id="path31537" />
      <path
         d="m 862.82343,161.01795 15.03779,57.04093 13.41903,-29.63693 q 2.33183,-5.15002 1.36553,-7.92937 -0.9223,-2.87651 -6.04668,-5.78219 l 1.09992,-2.42925 20.8916,9.45931 -1.09992,2.42926 q -5.11332,-1.37849 -7.23082,-0.58088 -1.97634,0.74442 -3.8682,4.92274 l -25.91412,57.23328 -2.72077,-1.23191 -19.50084,-72.52719 -17.68672,39.06244 q -2.33183,5.15003 -1.4627,7.88537 1.0103,2.68218 6.33819,5.91419 l -1.09992,2.42925 -22.05764,-9.98727 1.09992,-2.42926 q 5.65234,1.73963 7.86701,0.98603 2.31185,-0.70961 4.20371,-4.88793 l 20.85449,-46.0587 q -1.60627,-5.76221 -2.64221,-7.87054 -0.99194,-2.2055 -2.44949,-2.86545 l 1.09992,-2.42925 z"
         id="path31539" />
      <path
         d="m 913.76826,267.171 q 9.59204,6.57055 17.26039,6.13451 7.66836,-0.43604 16.64132,-5.79657 l 2.46401,1.68785 -16.05832,15.89285 -51.4802,-35.26398 1.507,-2.20001 q 5.28971,2.8477 7.48135,2.66818 2.19165,-0.17952 4.54259,-3.61153 l 29.17567,-42.59217 q 2.29065,-3.34402 1.61085,-5.74907 -0.6798,-2.40505 -5.07498,-5.80362 l 1.50701,-2.20001 50.7762,34.78174 -12.11634,17.68807 -2.20001,-1.50701 q 4.35602,-9.94536 2.12125,-15.74283 -2.17448,-5.88546 -12.91052,-13.23966 -3.43202,-2.35093 -5.17883,-2.25458 -1.68652,0.008 -3.37437,2.47237 l -13.98503,20.41608 0.352,0.24113 q 6.95203,4.76214 11.87301,3.99566 4.98126,-0.85448 11.01281,-7.58343 l 2.28801,1.56729 -20.37475,29.74412 -2.28801,-1.56729 q 4.45239,-8.19855 3.33391,-13.36066 -1.03049,-5.10182 -8.24651,-10.0448 l -14.58784,21.29608 q -1.92897,2.81601 -1.15633,4.89678 0.86064,2.14105 5.08466,5.03451 z"
         id="path31541" />
      <path
         d="m 1011.48,255.85575 q 3.7241,3.51352 6.5143,8.63882 2.8634,5.04771 3.4065,5.5601 1.0086,0.95158 2.0641,0.92086 1.1287,-0.10831 2.9074,-1.21648 l 2.3276,2.19595 -15.884,16.83643 -2.1725,-2.04956 q 4.7039,-9.49353 3.9632,-16.79127 -0.663,-7.22455 -5.3958,-11.68965 -3.9569,-3.73311 -8.2609,-3.83421 -4.2264,-0.0279 -7.59353,3.54111 -2.63514,2.79314 -2.76257,6.1924 0.0234,3.39487 2.48264,10.11439 l 6.06184,16.42403 q 1.96742,5.37561 0.63951,11.60171 -1.32792,6.2261 -5.42703,10.57098 -6.88064,7.2932 -16.55286,6.82015 -9.52144,-0.47743 -18.13362,-8.60245 -4.18971,-3.95271 -7.13505,-9.2244 -2.86775,-5.1985 -3.64362,-5.93049 -1.70692,-1.61036 -4.81636,0.44202 l -2.25003,-2.12275 18.08,-19.16404 2.25003,2.12275 q -11.62992,20.40998 0.16334,31.53613 4.50006,4.24551 9.40717,4.32905 4.90711,0.0835 8.71343,-3.951 2.85474,-3.0259 2.90019,-6.64914 0.0454,-3.62324 -2.80615,-10.85954 l -2.856,-7.38708 q -3.75773,-9.85091 -3.35208,-16.65381 0.47884,-6.8805 5.30994,-12.00125 6.95384,-7.37079 15.40661,-7.31499 8.5304,0.129 16.4443,7.59523 z"
         id="path31543" />
      <path
         d="m 1068.7056,319.71132 q 9.6882,12.86709 7.4337,27.78337 -2.1904,15.00149 -15.2279,24.81808 -13.208,9.94492 -28.1453,7.83975 -14.8732,-2.01996 -24.8181,-15.2279 -9.9449,-13.20794 -7.9249,-28.08111 2.1693,-14.85212 15.3772,-24.79704 13.2932,-10.00908 28.2305,-7.9039 15.0015,2.19038 25.0748,15.56875 z m -2.8762,2.03209 q -5.6462,-7.4987 -15.8406,-5.96481 -10.1945,1.53389 -23.9989,11.92793 -12.9523,9.75244 -16.8821,18.71987 -3.8656,9.05263 1.6522,16.38091 5.5179,7.32828 15.2221,6.02998 9.8536,-1.27725 22.9763,-11.15801 13.2932,-10.00908 17.6701,-19.44668 4.5262,-9.41655 -0.7991,-16.48919 z"
         id="path31545" />
      <path
         d="m 1056.7884,414.76215 50.0781,-25.53678 q -4.7916,-8.69194 -10.6296,-10.98321 -5.6946,-2.2447 -14.7818,0.83264 l -1.4052,-2.75572 19.2453,-9.45476 29.0742,57.01486 -19.0031,9.92989 -1.4053,-2.75572 q 7.8273,-5.54799 9.3061,-11.57044 1.6224,-5.97588 -2.5506,-14.86353 l -50.078,25.53678 q -5.4165,2.76204 -6.0665,5.00929 -0.6016,2.34228 2.0729,8.76117 l -2.3756,1.21142 -17.2991,-33.92384 2.3756,-1.21142 q 3.5764,5.8393 5.7771,6.63284 2.3441,0.84011 7.6655,-1.87347 z"
         id="path31547" />
      <path
         d="m 1088.7633,525.30204 -2.5436,0.80075 -10.3777,-32.9651 2.5436,-0.80075 q 0.9779,2.04054 1.3302,3.15973 1.8427,4.78763 4.895,3.82673 3.0523,-0.96089 12.3638,-9.03628 l -7.2067,-22.89243 -4.4484,-0.277 q -8.5597,-0.54835 -10.2894,-0.004 -1.9331,0.60857 -2.342,2.862 -0.3071,2.22141 0.797,6.79424 l -2.5436,0.80075 -6.5021,-20.65406 2.5436,-0.80075 q 1.8653,3.43858 4.4127,4.42589 2.5794,1.08906 10.6303,1.79755 l 62.8664,5.03486 0.8969,2.84883 -46.3748,39.53663 q -7.7684,6.58315 -9.8052,9.34907 -1.903,2.83563 -0.9741,5.78621 z m 5.4531,-57.63035 6.2458,19.8401 21.4888,-18.0594 z"
         id="path31549" />
    </g>
    <path
       style="fill:#ffffff;fill-opacity:1;fill-rule:evenodd;stroke:none;stroke-width:2;stroke-dasharray:none;stroke-opacity:1"
       d="M 670.5,1048.9162 705.94377,1084.36 670.5,1119.8038 635.05623,1084.36 Z"
       transform="matrix(0.50000323,0,0,1,335.24777,-5.4869537)" />
    <path
       id="path29035"
       style="fill:#f2ce00;fill-opacity:1;fill-rule:evenodd;stroke:none;stroke-width:2.16425;stroke-dasharray:none;stroke-opacity:1"
       d="m 1201.7621,619 c 3e-4,6.46192 -0.1467,13.06492 -0.3839,19.52249 l 39.4304,1.45017 c 0.2574,-6.98793 0.3863,-13.97999 0.3867,-20.97266 z m -1.1053,-34.03148 c 0.4143,6.44862 0.6907,13.04748 0.8677,19.50697 l 39.4423,-1.07912 c -0.1909,-6.99006 -0.5102,-13.97602 -0.9578,-20.95434 z m -3.2835,-33.89074 c 0.8267,6.40883 1.5253,12.97641 2.1158,19.4113 l 39.2921,-3.60398 c -0.6383,-6.96348 -1.4046,-13.91462 -2.2984,-20.84993 z m -5.448,-33.61074 c 1.2355,6.3427 2.3534,12.85203 3.355,19.23586 l 38.9805,-6.11403 c -1.0831,-6.90827 -2.2932,-13.79603 -3.6295,-20.65983 z m -7.5904,-33.19262 c 1.6394,6.2505 3.1721,12.67484 4.5806,18.98138 l 38.5087,-8.59896 c -1.5235,-6.82468 -3.1724,-13.62076 -4.9458,-20.38483 z m -9.7014,-32.63811 c 2.0365,6.13263 3.9776,12.44556 5.7874,18.6489 l 37.8786,-11.04855 c -1.9577,-6.71304 -4.0386,-13.38952 -6.2417,-20.02608 z m -11.7726,-31.94948 c 2.4252,5.98955 4.7669,12.16514 6.9703,18.23979 l 37.0929,-13.45274 c -2.3837,-6.57383 -4.8882,-13.10326 -7.5119,-19.58503 z m -13.7954,-31.12956 c 2.804,5.82186 5.5365,11.83473 8.1246,17.75572 l 36.1548,-15.80165 c -2.8001,-6.40759 -5.7177,-12.76315 -8.7513,-19.0635 z m -15.7616,-30.18173 c 3.1713,5.63024 6.2834,11.4557 9.2456,17.1987 l 35.068,-18.08563 c -3.2048,-6.21503 -6.5236,-12.37059 -9.9547,-18.46363 z m -17.6629,-29.10987 c 3.5255,5.41549 7.0044,11.02958 10.3285,16.571 l 33.8372,-20.29529 c -3.5964,-5.99692 -7.3028,-11.9272 -11.1172,-17.7879 z m -19.4917,-27.91839 c 3.8652,5.17849 7.6967,10.55815 11.3689,15.8752 l 32.4675,-22.42155 c -3.9733,-5.75418 -8.052,-11.4348 -12.2341,-17.03906 z m -21.2404,-26.6122 c 4.189,4.92021 8.3573,10.04333 12.3627,15.11418 l 30.9642,-24.45568 c -4.3338,-5.48778 -8.7681,-10.89542 -13.3007,-16.22022 z m -22.9018,-25.19663 c 4.4956,4.6417 8.9836,9.48723 13.3057,14.29104 l 29.3336,-26.38932 c -4.6765,-5.19884 -9.4481,-10.31125 -14.3125,-15.33471 z M 1027.538,225.8609 c 4.7838,4.34413 9.573,8.89216 14.1939,13.40918 l 27.5827,-28.21451 c -5,-4.88853 -10.0894,-9.68472 -15.2657,-14.3862 z m -25.9359,-22.06115 c 5.0523,4.0287 10.1231,8.26053 15.024,12.47221 l 25.7182,-29.92376 c -5.3029,-4.55814 -10.6891,-9.0184 -16.156,-13.37857 z m -27.29602,-20.35412 c 5.30006,3.69673 10.63155,7.59498 15.79217,11.48401 l 23.74815,-31.51006 c -5.584,-4.20902 -11.245,-8.31501 -16.97993,-12.31596 z M 945.76204,164.8822 c 5.52601,3.34956 11.09632,6.89821 16.4955,10.4486 l 21.68053,-32.96686 c -5.84224,-3.8426 -11.75463,-7.57746 -17.73416,-11.20275 z m -29.67477,-16.69646 c 5.72928,2.98861 11.5155,6.17309 17.13106,9.37026 l 19.52379,-34.28821 c -6.07643,-3.46039 -12.21597,-6.80877 -18.41548,-10.0435 z m -30.68353,-14.7609 c 5.90898,2.61541 11.88734,5.42261 17.69621,8.25342 l 17.28683,-35.46865 c -6.28566,-3.06396 -12.62712,-6.0121 -19.02114,-8.842984 z m -31.56623,-12.76466 c 6.06441,2.23144 12.21035,4.64984 18.18866,7.10266 l 14.97882,-36.503346 c -6.46906,-2.654949 -12.98637,-5.19073 -19.54863,-7.60613 z M 821.5183,109.94419 c 6.19492,1.83831 12.48318,3.85797 18.60636,5.92272 l 12.60927,-37.38804 c -6.62587,-2.23502 -13.29226,-4.348026 -19.99579,-6.338017 z m -32.93937,-8.62326 c 6.29997,1.43762 12.70471,3.05024 18.94759,4.71843 l 10.1879,-38.1191 c -6.75545,-1.805907 -13.54352,-3.487455 -20.36078,-5.043861 z m -33.4242,-6.49512 c 6.37914,1.031026 12.87404,2.22998 19.21098,3.494767 l 7.72466,-38.693526 c -6.85727,-1.369373 -13.73913,-2.612553 -20.64211,-3.728978 z m -33.77167,-4.340276 c 6.43209,0.620195 12.99047,1.400555 19.39542,2.256735 l 5.22969,-39.108947 C 739.07725,52.706109 732.12988,51.906406 725.16956,51.23455 Z M 687.4027,88.317933 c 6.45861,0.206815 13.05351,0.565376 19.50016,1.00943 l 2.71323,-39.363661 C 702.64,49.48246 695.65566,49.129519 688.6666,48.904994 Z m -34.04942,0.01398 c 6.45859,-0.207415 13.06291,-0.272127 19.52476,-0.242024 l 0.18562,-39.456622 c -6.99259,-0.03329 -13.98519,0.06198 -20.97428,0.285706 z m -33.97857,2.195507 c 6.43203,-0.620792 13.01864,-1.108511 19.46914,-1.492482 L 636.5011,49.647494 c -6.98036,0.414792 -13.95249,0.957886 -20.91288,1.628945 z m -33.76809,4.368011 c 6.37904,-1.031618 12.92087,-1.94034 19.33352,-2.736808 l -4.86151,-39.15642 c -6.93944,0.861173 -13.86244,1.849857 -20.76554,2.965491 z M 552.18777,101.418 c 6.29984,-1.438206 12.77,-2.764197 19.11845,-3.969889 l -7.36028,-38.76449 c -6.87,1.304014 -13.71544,2.734226 -20.53288,4.289851 z m -32.93228,8.65032 c 6.19475,-1.83889 12.56666,-3.5767 18.82481,-5.18666 l -9.8288,-38.213268 c -6.77235,1.741498 -13.51208,3.607359 -20.21585,5.596583 z m -32.3104,10.74252 c 6.06421,-2.232 12.31168,-4.37449 18.45383,-6.38211 L 493.14197,76.923708 c -6.64684,2.171825 -13.25319,4.46567 -19.81573,6.880318 z m -31.55573,12.79058 c 5.90874,-2.61595 12.00611,-5.15431 18.00701,-7.55133 L 458.76165,89.407429 c -6.49404,2.593228 -12.93985,5.305629 -19.33419,8.13578 z m -30.6714,14.78609 c 5.72899,-2.98915 11.6512,-5.91296 17.48619,-8.68953 L 425.2518,104.06825 c -6.31455,3.00398 -12.57333,6.12379 -18.77321,9.35782 z m -29.66104,16.72084 c 5.52571,-3.35007 11.24842,-6.64731 16.89352,-9.79203 l -19.20032,-34.47038 c -6.10911,3.40238 -12.15514,6.91678 -18.13508,10.54139 z m -28.52879,18.58686 c 5.29971,-3.69722 10.79941,-7.35434 16.23144,-10.85428 l -21.3694,-33.16938 c -5.87857,3.7868 -11.68701,7.68135 -17.42243,11.68165 z m -27.27931,20.37653 c 5.05195,-4.02918 10.30603,-8.03115 15.50266,-11.87193 l -23.45067,-31.7321 c -5.62387,4.15566 -11.17085,8.41436 -16.63819,12.77391 z m -25.91773,22.08245 c 4.78341,-4.34458 9.7703,-8.67496 14.71016,-12.8408 l -25.43556,-30.16441 c -5.34606,4.50745 -10.60879,9.11279 -15.78558,13.81368 z m -24.44966,23.69763 c 4.49523,-4.64213 9.19442,-9.28312 13.85723,-13.7569 l -27.31594,-28.47277 c -5.04628,4.84071 -10.00313,9.77378 -14.8681,14.79668 z m -22.8811,25.21544 c 4.18857,-4.9206 8.58075,-9.85314 12.94735,-14.61647 L 249.8636,233.78666 c -4.72577,5.15408 -9.35637,10.3946 -13.88952,15.71888 z m -21.21854,26.62963 c 3.8647,-5.17885 7.93184,-10.38267 11.98427,-15.41598 l -30.7327,-24.74592 c -4.38583,5.44627 -8.67116,10.9727 -12.85387,16.57648 z m -19.46877,27.93439 c 3.52495,-5.41582 7.25032,-10.86953 10.97194,-16.15214 l -32.25503,-22.72603 c -4.02788,5.71608 -7.95033,11.50573 -11.76541,17.36598 z m -17.63901,29.12436 c 3.17071,-5.63054 6.539,-11.31172 9.91452,-16.82192 l -33.64482,-20.61275 c -3.65337,5.9624 -7.19681,11.99146 -10.62859,18.08411 z m -15.73677,30.19467 c 2.80345,-5.82212 5.80083,-11.70744 8.81637,-17.42259 l -34.89635,-18.41477 c -3.26386,6.18423 -6.41374,12.42793 -9.4481,18.72793 z m -13.76985,31.14088 c 2.42467,-5.98978 5.03881,-12.05504 7.68199,-17.95166 l -36.0045,-16.14112 c -2.86093,6.38064 -5.6043,12.81333 -8.22879,19.2948 z m -11.74636,31.95913 c 2.03592,-6.13281 4.25609,-12.35311 6.51604,-18.40696 l -36.96469,-13.80113 c -2.44624,6.55082 -4.77183,13.14606 -6.97566,19.78237 z m -9.6746,32.64607 c 1.63881,-6.25066 3.45588,-12.60042 5.32332,-18.78663 l -37.77298,-11.40444 c -2.02151,6.6941 -3.91976,13.42479 -5.69387,20.18866 z m -7.56307,33.19884 c 1.23495,-6.34281 2.64146,-12.79594 4.10871,-19.08909 l -38.42606,-8.96089 c -1.58846,6.80986 -3.05157,13.64835 -4.38867,20.51199 z m -5.42049,33.61521 c 0.82604,-6.40891 1.8162,-12.9389 2.87723,-19.31312 l -38.92123,-6.48051 c -1.14888,6.89764 -2.17085,13.81581 -3.06545,20.75102 z m -3.25561,33.89342 c 0.41372,-6.44866 0.98347,-13.02867 1.63392,-19.45778 l -39.25647,-3.9735 c -0.70459,6.95708 -1.28121,13.92651 -1.72963,20.90479 z m -1.07736,34.03238 c -3e-4,-6.46192 0.1467,-13.06492 0.3839,-19.52249 l -39.4304,-1.45017 c -0.2574,6.98793 -0.3863,13.97999 -0.3867,20.97266 z m 1.10531,34.03148 c -0.41431,-6.44862 -0.69067,-13.04748 -0.8677,-19.50697 l -39.4423,1.07912 c 0.19085,6.99006 0.5102,13.97602 0.95782,20.95434 z m 3.28345,33.89074 c -0.82663,-6.40883 -1.52521,-12.97641 -2.11573,-19.4113 l -39.29212,3.60398 c 0.63831,6.96348 1.40459,13.91462 2.29839,20.84993 z m 5.44809,33.61074 c -1.23555,-6.3427 -2.35348,-12.85203 -3.35508,-19.23586 l -38.98048,6.11403 c 1.08315,6.90827 2.29322,13.79603 3.62954,20.65983 z m 7.59034,33.19262 c -1.63939,-6.2505 -3.17208,-12.67484 -4.58063,-18.98138 l -38.50866,8.59896 c 1.52354,6.82468 3.17242,13.62076 4.94576,20.38483 z m 9.7014,32.63811 c -2.03649,-6.13263 -3.97764,-12.44556 -5.78735,-18.6489 l -37.87861,11.04855 c 1.95767,6.71304 4.03859,13.38952 6.24166,20.02608 z m 11.7726,31.94948 c -2.42522,-5.98955 -4.76685,-12.16514 -6.9703,-18.23979 l -37.0929,13.45274 c 2.38375,6.57383 4.88816,13.10326 7.51191,19.58503 z m 13.79543,31.12956 c -2.80399,-5.82186 -5.53649,-11.83473 -8.12461,-17.75572 l -36.15477,15.80165 c 2.80004,6.40759 5.71765,12.76315 8.75129,19.0635 z m 15.76156,30.18173 c -3.17124,-5.63024 -6.28337,-11.4557 -9.24553,-17.1987 l -35.06807,18.08563 c 3.20482,6.21503 6.52364,12.37059 9.95471,18.46363 z m 17.66292,29.10987 c -3.52545,-5.41549 -7.00442,-11.02958 -10.32846,-16.571 l -33.83726,20.29529 c 3.59643,5.99692 7.30282,11.9272 11.11723,17.7879 z m 19.49171,27.91839 c -3.86518,-5.17849 -7.6967,-10.55815 -11.36894,-15.8752 l -32.46742,22.42155 c 3.97327,5.75418 8.05199,11.4348 12.23406,17.03906 z m 21.2404,26.6122 c -4.18903,-4.92021 -8.35735,-10.04333 -12.36271,-15.11418 l -30.96416,24.45568 c 4.33378,5.48778 8.76808,10.89542 13.30062,16.22022 z m 22.90181,25.19663 c -4.49566,-4.6417 -8.98366,-9.48723 -13.30568,-14.29104 l -29.33366,26.38935 c 4.67648,5.1988 9.44813,10.3112 14.31253,15.3347 z m 24.46911,23.67751 c -4.78382,-4.3441 -9.57305,-8.8921 -14.19398,-13.40914 l -27.58262,28.21454 c 4.99996,4.8885 10.08937,9.6847 15.26562,14.3862 z m 25.93586,22.0612 c -5.05232,-4.0287 -10.1231,-8.2605 -15.02394,-12.4722 l -25.71824,29.9237 c 5.30289,4.5582 10.68914,9.0184 16.15598,13.3786 z m 27.29603,20.3541 c -5.30006,-3.6967 -10.63155,-7.595 -15.79217,-11.484 l -23.74818,31.5101 c 5.58405,4.209 11.245,8.315 16.97996,12.3159 z m 28.54404,18.5634 c -5.52601,-3.3495 -11.09632,-6.8982 -16.4955,-10.4486 l -21.68053,32.9669 c 5.84224,3.8426 11.75463,7.5775 17.73416,11.2028 z m 29.67477,16.6965 c -5.72928,-2.9886 -11.5155,-6.1731 -17.13106,-9.3703 l -19.52379,34.2882 c 6.07643,3.4604 12.21597,6.8088 18.41548,10.0436 z m 30.68353,14.7609 c -5.90898,-2.6154 -11.88734,-5.4226 -17.69621,-8.2534 l -17.28683,35.4686 c 6.28566,3.064 12.62712,6.0121 19.02114,8.843 z m 31.56623,12.7647 c -6.06441,-2.2315 -12.21035,-4.6499 -18.18866,-7.1027 l -14.97882,36.5033 c 6.46906,2.655 12.98637,5.1908 19.54863,7.6062 z m 32.31921,10.7159 c -6.19492,-1.8383 -12.48318,-3.8579 -18.60636,-5.9227 l -12.60927,37.3881 c 6.62587,2.235 13.29226,4.348 19.99579,6.338 z m 32.93937,8.6233 c -6.29997,-1.4376 -12.70471,-3.0502 -18.94759,-4.7184 l -10.1879,38.1191 c 6.75545,1.8059 13.54352,3.4874 20.36078,5.0438 z m 33.4242,6.4951 c -6.37914,-1.031 -12.87404,-2.2299 -19.21098,-3.4947 l -7.72466,38.6935 c 6.85727,1.3694 13.73913,2.6125 20.64211,3.729 z m 33.77167,4.3403 c -6.43209,-0.6202 -12.99047,-1.4005 -19.39542,-2.2567 l -5.22969,39.1089 c 6.93092,0.9272 13.87829,1.7269 20.83861,2.3988 z m 33.98036,2.1676 c -6.45861,-0.2068 -13.05351,-0.5654 -19.50016,-1.0094 l -2.71323,39.3636 c 6.97609,0.4813 13.96043,0.8342 20.94949,1.0587 z m 34.04942,-0.014 c -6.45859,0.2074 -13.06291,0.2722 -19.52476,0.242 l -0.18562,39.4567 c 6.99259,0.033 13.98519,-0.062 20.97428,-0.2857 z m 33.97857,-2.1955 c -6.43203,0.6208 -13.01864,1.1085 -19.46914,1.4925 l 2.34275,39.3874 c 6.98036,-0.4147 13.95249,-0.9578 20.91288,-1.6289 z m 33.76809,-4.368 c -6.37904,1.0316 -12.92087,1.9403 -19.33352,2.7368 l 4.86151,39.1564 c 6.93944,-0.8611 13.86244,-1.8498 20.76554,-2.9655 z m 33.41885,-6.5226 c -6.29984,1.4382 -12.77,2.7642 -19.11845,3.9699 l 7.36028,38.7645 c 6.87,-1.304 13.71544,-2.7342 20.53288,-4.2898 z m 32.93228,-8.6503 c -6.19475,1.8389 -12.56666,3.5767 -18.82481,5.1867 l 9.8288,38.2132 c 6.77235,-1.7414 13.51208,-3.6073 20.21585,-5.5965 z m 32.3104,-10.7425 c -6.06421,2.232 -12.31168,4.3745 -18.45383,6.3821 l 12.25695,37.505 c 6.64684,-2.1718 13.25319,-4.4656 19.81573,-6.8803 z m 31.55573,-12.7906 c -5.90874,2.616 -12.00611,5.1543 -18.00701,7.5514 l 14.63472,36.6426 c 6.49404,-2.5932 12.93985,-5.3056 19.33419,-8.1358 z m 30.6714,-14.7861 c -5.72899,2.9892 -11.6512,5.913 -17.48619,8.6896 l 16.95235,35.6297 c 6.31455,-3.004 12.57333,-6.1238 18.77321,-9.3578 z m 29.66104,-16.7208 c -5.52571,3.3501 -11.24842,6.6473 -16.89352,9.792 l 19.20032,34.4704 c 6.10911,-3.4024 12.15514,-6.9168 18.13508,-10.5414 z m 28.52879,-18.5869 c -5.29971,3.6972 -10.79941,7.3544 -16.23144,10.8543 l 21.3694,33.1694 c 5.87857,-3.7868 11.68701,-7.6814 17.42243,-11.6817 z m 27.27933,-20.3765 c -5.05197,4.0292 -10.30605,8.0312 -15.50268,11.8719 l 23.45068,31.7321 c 5.6239,-4.1556 11.1708,-8.4143 16.6382,-12.7739 z m 25.9177,-22.0824 c -4.7834,4.3445 -9.7703,8.6749 -14.7102,12.8407 l 25.4356,30.1645 c 5.3461,-4.5075 10.6088,-9.1128 15.7856,-13.8137 z m 24.4497,-23.69768 c -4.4953,4.64213 -9.1945,9.28312 -13.8573,13.75688 l 27.316,28.4728 c 5.0463,-4.8407 10.0031,-9.7738 14.8681,-14.7967 z m 22.8811,-25.21544 c -4.1886,4.9206 -8.5808,9.85314 -12.9474,14.61647 l 29.0841,26.66415 c 4.7258,-5.1541 9.3564,-10.39462 13.8895,-15.7189 z m 21.2185,-26.62963 c -3.8647,5.17885 -7.9318,10.38267 -11.9843,15.41598 l 30.7327,24.74592 c 4.3859,-5.44627 8.6712,-10.9727 12.8539,-16.57648 z m 19.4688,-27.93439 c -3.525,5.41582 -7.2503,10.86953 -10.972,16.15214 l 32.2551,22.72603 c 4.0279,-5.71608 7.9503,-11.50573 11.7654,-17.36598 z m 17.639,-29.12436 c -3.1707,5.63054 -6.539,11.31172 -9.9145,16.82192 l 33.6448,20.61275 c 3.6534,-5.9624 7.1968,-11.99146 10.6286,-18.08411 z m 15.7368,-30.19467 c -2.8035,5.82212 -5.8009,11.70744 -8.8164,17.42259 l 34.8963,18.41477 c 3.2639,-6.18423 6.4138,-12.42793 9.4481,-18.72793 z m 13.7698,-31.14088 c -2.4247,5.98978 -5.0388,12.05504 -7.682,17.95166 l 36.0045,16.14112 c 2.8609,-6.38064 5.6043,-12.81333 8.2288,-19.2948 z m 11.7464,-31.95913 c -2.0359,6.13281 -4.2561,12.35311 -6.5161,18.40696 l 36.9647,13.80113 c 2.4463,-6.55082 4.7718,-13.14606 6.9757,-19.78237 z m 9.6746,-32.64607 c -1.6388,6.25066 -3.4559,12.60042 -5.3233,18.78663 l 37.7729,11.40444 c 2.0215,-6.6941 3.9198,-13.42479 5.6939,-20.18866 z m 7.563,-33.19884 c -1.2349,6.34281 -2.6414,12.79594 -4.1087,19.08909 l 38.4261,8.96089 c 1.5884,-6.80986 3.0516,-13.64835 4.3887,-20.51199 z m 5.4205,-33.61521 c -0.826,6.40891 -1.8162,12.9389 -2.8772,19.31312 l 38.9212,6.48051 c 1.1489,-6.89764 2.1709,-13.81581 3.0655,-20.75102 z m 3.2556,-33.89342 c -0.4137,6.44866 -0.9834,13.02867 -1.6339,19.45778 l 39.2565,3.9735 c 0.7046,-6.95708 1.2812,-13.92651 1.7296,-20.90479 z"
       class="UnoptimicedTransforms" />
  </g>
</svg>
