<svg width="300" height="298.2" viewBox="0 0 300 298.2" xmlns="http://www.w3.org/2000/svg">
 <path d="m142.98-0.039062c-3.27 0.18-5.8809 2.3784-8.8809 3.3984-2.92 0.33-5.6601-2.0298-8.5801-1.0098-2.74 0.66-4.7903 2.7301-7.3203 3.8301-2.89 0.57-6.0293-0.80961-8.7793 0.65039-3.14 1.61-6.0591 3.9501-9.7891 3.8301-4.01 0.11-6.8704 3.0005-9.4004 5.7305-4.53 0.01-9.1308 1.0891-12.301 4.6191-2.52 3.21-7.1388 2.0005-10.049 4.5605-1.79 1.35-3.0517 3.2206-4.5117 4.8906-1.72 2.07-4.6995 2.1691-6.6895 3.8691-1.84 1.74-2.5405 4.3893-4.4805 6.0293-2.72 1.73-6.0788 2.7508-7.9688 5.5508-1.77 3.03-4.041 5.7506-7.041 7.6406-4.1 2.4-4.1493 8.0492-8.2793 10.449-4.41 3.07-3.7906 9.3694-7.8906 12.609-3.27 2.98-2.6302 8.1709-5.9102 11.131-2.58 2.69-3.9496 6.3998-4.0996 10.09 0.08 3.44-3.3606 5.49-3.8906 8.75-0.47 2.88-0.19985 6.0305-2.0898 8.4805-2.69 3.68-1.4193 8.3901-1.7793 12.58-0.92 3.6-3.4302 7.1798-1.9102 11.01 1.29 2.81-0.29984 5.5294-1.3398 8.1094v4.5195c1.73 2.47 1.9399 5.3012 0.66992 8.0312-1.73 4.24 3.1903 7.3502 2.0703 11.49-0.44 3.22-0.27055 6.6695 1.4395 9.5195 2.35 3.5-0.17969 7.9694 1.8203 11.609 1.19 2.68 4.7098 4.4202 4.0098 7.7402-0.69 4.16 1.41 8.0907 4.25 10.971 2.29 2.17 1.2202 5.7188 2.9102 8.2188 1.22 2.24 3.5899 3.4411 5.1699 5.3711 1.17 2.38 1.0807 5.21 2.4707 7.5 1.15 1.79 3.2596 2.599 4.5996 4.209 1.14 2.05 1.4395 4.5304 2.9395 6.4004 1.44 1.96 3.9401 2.6804 5.5801 4.4004 1.71 2.24 2.2303 5.3396 4.5703 7.0996 2.52 2.02 6.4893 2.5098 7.5293 6.0098 1.66 4.26 6.3815 5.1912 10.021 6.9512 2.31 3.05 4.8596 6.159 8.8496 6.959 3.74 0.42 4.0095 5.0295 7.1895 6.2695 2.03 0.97 4.2499 1.3516 6.4199 1.8516 3.15 0.4 4.5098 3.8082 7.3398 4.9082 3.12 1.6 7.1297-0.02914 9.9297 2.3809 2.43 1.93 5.5509 2.8294 8.6309 2.4395 3.12-0.53 5.159 2.4507 7.959 3.2207 2.68 1.25 5.5618-0.00922 8.3418 0.05078 2.86 0.46 5.2793 2.6092 8.2793 2.4492 2.69 0.11 5.4691-1.6205 8.0391-0.23047 3.56 1.83 7.6903 1.0011 11.32-0.12891 2.53-0.91 5.0303 0.58993 7.5703 0.66992 3.04 0.22 5.7804-1.3198 8.6504-2.0098 2.6-0.29 5.1891 0.70906 7.7891 0.28906 2.89-0.38 5.0398-2.6906 7.8398-3.3105 2.25-0.09 4.59 0.63117 6.75-0.29883 3.12-0.93 5.3098-4.2705 8.8398-3.7305 3.39 0.22 6.5905-1.4405 8.9805-3.7305 2.54-2.55 6.6195-1.4194 9.5195-3.3594 3.2-1.39 4.5702-5.6302 8.4102-5.6602 4.69-0.56 7.6716-4.381 10.352-7.791 3.8-1.26 7.4702-3.3888 9.1602-7.2188 1.32-3.66 6.1087-2.9512 8.1387-5.9512 2.88-2.7 3.6902-7.1782 7.4902-8.9082 5.01-2.79 4.7005-9.8913 9.7305-12.531 3.25-2.67 3.1492-7.4593 5.8691-10.529 2.27-2.64 4.5502-5.5098 4.9902-9.0898 0.34-3.22 3.8697-4.5104 4.9297-7.4004 1.96-3.41 0.22054-7.9705 3.0605-10.98 2.28-2.72 3.5303-6.2098 3.5703-9.7598-0.1-3.1 2.8503-5.2498 2.8203-8.3398 0.24-3.21-1.4106-6.6906 0.43945-9.6406 1.65-2.79 2.6796-6.0803 1.8496-9.3203-0.8-2.61 0.02086-5.2097 0.88086-7.6797v-5.1191l0.01953 0.01953c-1.93-2.77-1.7493-5.9889-1.0293-9.1289 0.98-4.52-4.0406-7.9206-2.6406-12.391 1.18-3.99-1.161-7.6409-2.541-11.211 0.19-4.23-0.23992-8.7796-3.1699-12.1-2.33-2.34-0.9982-5.9397-2.4082-8.6797-1.27-2.78-4.5309-4.4695-4.6309-7.7695-0.23-3.44-2.0192-6.5712-4.6992-8.7012-2.65-1.83-2.1917-5.4195-3.7617-7.9395-1.14-2.36-3.7188-3.3409-5.4688-5.1309-1.08-1.75-1.3304-3.9191-2.6504-5.5391-1.51-1.9-3.8706-2.7691-5.6406-4.3691-1.43-2.05-1.5488-4.8016-3.2988-6.6816-1.98-2.5-5.2602-3.2495-7.6602-5.1895-1.72-2.04-2.3994-4.8892-4.6894-6.4492-2.45-2.06-6.5211-1.64-8.1211-4.75-1.56-2.96-4.7897-4.3302-7.9297-4.9102-2.69-0.21-3.6309-3.0498-5.4609-4.5898-2.45-2.23-5.9687-2.1704-8.8887-3.4004-1.77-1.13-2.8604-3.1804-4.9004-3.9004-2.8-0.94-5.8504-0.41031-8.6504-1.3203-1.98-1.07-3.1796-3.2395-5.3496-4.0195-2.39-1.04-5.0298-0.29898-7.5098-0.70898-1.98-0.81-3.5203-2.4518-5.5703-3.0918-2.85-0.84-5.9394 1.4009-8.6094-0.28906-3.58-2.12-7.8706-1.8596-11.811-1.0996-2.54 0.68-4.5493-1.6113-7.0293-1.6113-2.24-0.15-4.2814 0.95125-6.4414 1.2812-2.2-0.49-4.139-1.9695-6.459-1.9395zm0.62891 2.9277c1.0898 0.044531 2.2428 0.93047 1.3203 1.9805-1.55 1.65-3.7298 4.6707-6.2598 3.4707-0.26-2.21 2.2792-3.9895 3.9492-5.1895 0.27-0.1975 0.62695-0.27656 0.99024-0.26172zm13.941 0.5918c0.51 3.26-3.6107 5.64-6.4707 4.75 0.62-2.92 3.7107-4.5 6.4707-4.75zm13.83 0.86914c0.74 3.3-3.6802 4.6611-6.2402 4.3711 0.13-3.08 3.5002-4.6511 6.2402-4.3711zm-43.412 1.3672c0.68625-0.044375 1.3566 0.19398 1.9316 0.83398-0.69 2.62-3.6599 4.9987-6.4199 3.9687 0.225-1.995 2.4295-4.6696 4.4883-4.8027zm57.252 1.3535c-0.4 3.3-4.3909 4.3191-7.2109 4.0391-0.05-3.25 4.5509-4.3691 7.2109-4.0391zm-71.818 2.2031c0.33569-0.026914 0.66602-0.0073437 0.97852 0.066406-0.17 2.43-2.1706 5.071-4.8106 4.791-1.1462-2.1962 1.4822-4.669 3.832-4.8574zm48.855 0.56641c0.75938 0.082344 1.5027 0.32055 2.2227 0.81055 3.1 1.91 6.7194 1.2094 10.109 1.1094 3.02 1.76 6.3792 2.9997 9.9492 2.6797 4.21-0.61 6.9018 3.861 11.092 3.541 4.29-0.66 6.6088 3.7387 10.549 4.3887 2.47 0.77 5.5906 0.30172 7.3906 2.5117 2.3 2.69 5.4806 4.6683 9.0606 4.9883 3.69-0.01 4.9893 4.0602 7.7793 5.7402 2.22 1.6 5.7698 1.2208 7.0098 4.0508 1.56 3.15 4.5008 5.3306 7.8008 6.3906 2.79 0.78 2.8493 4.1395 4.2793 6.1895 1.71 3.42 6.8405 3.54 7.4805 7.75 1.17 5.05 8.0895 5.4106 8.7695 10.561 1.15 3.54 3.9605 6.129 6.4805 8.709 0.38 4.16 1.999 7.9909 4.959 10.961 0.55 3.85 1.891 7.5996 4.791 10.35 2.64 2.38 0.59898 6.0097 1.709 8.9297 0.64 3.32 3.7998 5.8297 3.0898 9.4297-0.75 3.86 1.6902 7.0708 2.7402 10.551-0.87 3.74-1.0088 7.6694 0.20117 11.359 0.9 2.2-0.79062 4.1192-1.1406 6.1992-0.15 4 3.1094 7.8801 0.93945 11.83-2.38 4.62 0.52969 10.002-1.8203 14.602l0.04101-0.03125c-1.51 3.17-1.0499 6.7403-1.6699 10.07-2.65 3.83-3.9897 8.2603-4.6797 12.82-2.4 3.18-4.7198 6.5895-5.0898 10.689-0.23 3.74-4.1706 5.46-5.3906 8.75-1.09 2.69-1.1002 6.1905-3.9902 7.7305-3.68 2.07-3.6696 6.8902-6.0996 9.7402-4.55 1.79-5.7706 6.7799-8.3105 10.42-3.94 2.07-7.7294 4.8389-9.8594 8.8789-1.37 3.2-5.2705 3.6117-7.4805 6.0117-1.92 1.45-2.3094 4.5294-4.8594 5.1094-6.33 1.32-9.6513 8.1489-16.281 8.8789-4.35 1.29-6.9198 6.1212-11.84 5.9512-3.54-0.1-5.9898 2.6193-8.8398 4.0293-4.86-0.87-8.8697 1.9098-12.93 4.0098-4.31-0.91-9.0498-0.78-12.84 1.75-2.1 1.9-4.6608-0.36016-7.0508-0.16016-3.37-0.37-6.4695 2.9299-9.7695 1.1699-3.8-1.84-8.2407-0.90961-11.971 0.65039-3.74-1.35-7.4497-3.8693-11.68-2.7793-2.93 1.14-5.37-1.1495-8-2.0195-2.44-0.90999-5.1298-0.0014-7.5898-0.6914-2.52-1.27-4.8486-3.2591-7.8086-3.2891-2.11-0.29-4.9012 0.86984-6.2012-1.4102-2.23-3.02-6.0794-3.82-9.6094-4-3.58-0.19-4.6408-4.4195-7.8008-5.5195-2.51-1.72-6.7002-0.42094-7.9902-3.7109-1.87-3.81-6.1499-5.0305-9.6699-6.7305-2.12-3.69-5.1402-7.2094-9.4902-8.1894-3.04-0.6-2.92-4.3306-5-6.0606-1.65-2.17-4.5398-2.8694-6.2598-4.8594-0.95-3.64-2.9691-6.9489-5.8691-9.3789-2.27-1.72-1.7809-4.9608-3.4609-7.0508-1.37-1.81-3.5497-2.7706-4.9297-4.5606-0.46-1.76-0.29039-3.6489-0.90039-5.3789-0.8-3.03-4.3102-3.9296-5.9902-6.3496-0.019999-2.97 1.07-6.1109-0.5-8.8809-0.66-2.27-3.1895-3.2296-4.0195-5.3496 0.16-2.83 1.7509-5.771 0.38086-8.541-0.81-2.41-4.3812-3.6291-3.4512-6.5391 0.82-3.22-0.54992-6.3-2.1699-9-1.97-3.1 0.93148-6.501 0.021484-9.791 0.08-2.88-3.2409-5.3287-1.4609-8.1387 1.93-3.42-0.25977-7.24-0.25977-10.75 2.51-3.97 3.0003-8.7412 2.0703-13.281 1.82-3.88 4.0291-8.1303 2.6191-12.57-0.73-1.88 1.2207-2.9688 2.2207-4.2188 2.02-2.74 2.2594-6.2395 2.1094-9.5195 1.42-2.65 4.1798-4.5201 4.8398-7.5801 0.8-2.48 0.14-5.6702 2.5-7.4102 2.67-2.17 4.2002-5.3609 4.7402-8.7109 0.15-2.07 2.3107-2.8195 3.7207-3.9395 4.01-2.23 3.0004-8.3712 7.6504-9.9512 4.12-2.17 3.7784-8.0595 7.8984-10.189 2.71-1.45 5.26-3.4496 6.5-6.3496 1.06-2.73 4.5612-2.0606 6.7012-3.3906 2.91-1.1 3.9295-4.25 6.0195-6.25 2.51-1.34 5.4106-2.1291 7.3906-4.2891 2.21-2.33 4.1295-5.6298 7.7695-5.5898 5.23-0.39 8.0206-6.2705 13.391-5.9805 3.9-0.11 6.6001-3.1902 9.8301-4.9102 2.69-0.53 5.5899 0.009608 8.1699-1.1504 2.49-0.79 4.3488-3.6586 7.2188-2.8086 4.55 0.97 9.0198-0.08133 13.09-2.1113 3.72 0.17 7.6202 1.5112 11.16-0.54883 2.84-1.16 5.6213 1.2402 8.5312 0.49024 2.34 0.037499 4.759-1.1181 7.0371-0.87109zm32.457 0.70898c1.2802-0.12328 2.7269 0.25664 2.7344 1.6816-1.49 1.81-4.3601 3.3004-6.5801 1.9004-0.98-1.58 1.5816-2.6305 2.6816-3.3105 0.33-0.1325 0.73735-0.23039 1.1641-0.27148zm-95.535 2.582c2.24-0.08 0.72969 2.43 0.17969 3.5-0.81 1.53-2.1293 4.4184-4.2793 3.1484-0.13-2.67 1.4196-5.8484 4.0996-6.6484zm109.57 2.4941c0.6239 0.10531 1.2339 0.35695 1.8164 0.81445-1.37 2.32-6.6894 3.9408-7.4394 0.55078 1.755-0.6825 3.7513-1.6812 5.623-1.3652zm-58.754 0.82422c-35.44 0-68.751 13.802-93.811 38.852s-38.859 58.359-38.859 93.799c0 35.44 13.799 68.741 38.859 93.801 25.06 25.05 58.371 38.85 93.811 38.85s68.751-13.8 93.811-38.85c25.06-25.05 38.859-58.361 38.859-93.801 0-35.44-13.799-68.739-38.859-93.799-25.06-25.05-58.371-38.852-93.811-38.852zm-64.914 2.8965c0.3018-0.061015 0.62711-0.059062 0.97461 0.023438 0.15 2.37-0.66125 5.7805-3.5312 5.9805-0.525-1.9775 0.44406-5.5768 2.5566-6.0039zm64.914 0.23438c71.43 0 129.54 58.1 129.54 129.52 0 71.42-58.109 129.52-129.54 129.52v-0.00976c-71.43 0-129.54-58.1-129.54-129.52 0-71.42 58.109-129.51 129.54-129.51zm69.289 2.2305c1.883-0.096094 4.0478 0.15539 4.0703 2.1504-1.95 1.66-5.1292 1.1595-7.3692 0.18945-0.82999-1.08 0.64961-2.0097 1.5996-2.1797 0.475-0.0575 1.0716-0.12812 1.6992-0.16016zm-80.699 3.4902-0.43945 0.16992c0 0.42-0.05008 1.5489-0.08008 1.8789-0.68-0.14-2.7809-0.089843-4.4609 0.16016-2 0.3-3.9293 0.95945-5.5293 2.4395-1.55 1.43-2.6307 3.6109-2.2207 6.3809 0.35999 2.45 2.1212 4.4503 4.7812 5.3203l-0.02148 0.009765c1.77 0.58 4.0618 0.35992 5.3418 0.16992 1.33-0.2 3.8399-0.89062 4.9199-1.3906-0.12-0.54-0.27086-1.5786-0.38086-2.3086l-0.08984-0.63086c-0.08-0.55-0.25024-1.8495-0.24024-2.1895 0.42-0.16 1.4999-0.4207 1.6699-0.4707l0.04102-0.42969c-0.23 0.07-2.1303 0.37977-3.0703 0.50977-0.69 0.1-2.2007 0.30992-3.2207 0.41992l0.17969 0.39062c0.38 0.02 1.6098-0.060078 2.0098-0.080078 0.11 0.34 0.22054 0.95055 0.31054 1.5605l0.15039 1.0391c0.15 0.98 0.22047 1.6492 0.23047 1.9492-0.76 0.55-1.9099 0.80086-2.4199 0.88086-4.23 0.63-7.571-3.0698-8.041-6.2598-0.47-3.14 1.4296-5.9998 4.8496-6.5098 3.2-0.47 4.7808 0.62039 5.3808 1.1504 0.15 0.44 0.34047 1.1095 0.48047 1.7695l0.49024 0.16992c-0.33-1.81-0.6311-5.3196-0.6211-6.0996zm15.92 0.11914-0.44922 0.089844c-0.03 0.36-0.09063 0.69969-0.14063 0.92969-0.53 0.15-5.1903 0.22047-5.8203 0.23047h-1.7402c-0.65 0-1.3093-0.019297-1.7793-0.029297l0.08984 0.41016c0.48 0.05 1.6903 0.16828 2.0703 0.23828l-0.00976 0.03125c0.09 0.61 0.20047 3.7588 0.23047 5.5488v0.91016c0.05 2.18 0.04875 5.8216-0.03125 6.1816-0.53 0.15-1.7191 0.27859-2.0391 0.30859l-0.08984 0.41992c0.77-0.05 2.3398-0.11891 3.0098-0.12891 1.25-0.02 5.6488-0.009922 6.2188 0.080078 0.02 0.32 0.03101 0.66898 0.04101 1.209l0.41992 0.070313c0.06-0.99 0.45008-4.0098 0.58008-4.5898l-0.45117 0.13086c-0.11 0.44-0.1982 1.05-0.4082 1.75-0.9 0.53-2.7602 0.72-4.7402 0.75-0.07-0.57-0.22023-4.8916-0.24023-6.1016v-0.39844c1.7-0.03 3.2494 0.06914 3.8594 0.36914 0 0.4 4.7e-4 0.91008-0.01953 1.3301l0.37891 0.15039c0.09-0.64 0.40117-3.3609 0.45117-3.7109l-0.41016 0.050782c-0.04 0.28-0.08945 0.55961-0.18945 0.84961-0.47 0.19-2.3916 0.36086-4.1016 0.38086v-0.40039c-0.02-1.17 7.8e-4 -4.9895 0.05078-5.2695 1.05-0.02 4.1107 0.18977 4.4707 0.75976 0.03 0.39 0.01953 1.2897 0.01953 1.4297l0.43946 0.12891c0.03-0.61 0.24008-3.6894 0.33008-4.1094zm-81.74 1.1699c2.41 0.98-0.1193 7.1211-2.7793 7.1211-1.49-2.43 0.2493-6.0811 2.7793-7.1211zm100.13 1.8125c-4.3426-0.082305-7.3623 2.559-8.0098 5.9277-0.34999 1.83-0.17124 3.3403 0.96876 5.0703 1.46 2.19 3.6316 2.9501 5.6016 3.3301l-0.01172 0.009765c4.79 0.91 8.9902-1.4702 9.9102-6.2402 0.34999-1.81-0.10969-3.8493-1.4297-5.2793-1.46-1.57-3.0298-2.2113-5.0898-2.6113-0.67125-0.12875-1.3191-0.19527-1.9394-0.20703zm-0.99023 0.78711c0.6925-0.10625 1.3955-0.086484 2.0605 0.041016 3.23 0.62 5.5302 4.12 4.7402 8.25-0.6 3.11-3.3704 5.1904-6.1504 4.6504-3.8-0.72-5.9512-4.6899-5.2812-8.1699 0.57-3.0075 2.5534-4.4527 4.6309-4.7715zm59.57 0.22461c0.9975-0.115 1.999 0.20117 2.459 1.0762-0.55 2.05-3.6887 1.8797-4.8887 0.42969 0.44-0.845 1.4322-1.3909 2.4297-1.5059zm-45.08 2.1953-0.06055 0.41992c0.54 0.25 1.6904 0.75117 1.9004 0.95117-0.13 0.54-1.1309 3.5698-1.7109 5.2598l-0.39844 1.1602c-0.72 2.08-1.8117 5.1193-2.0117 5.5293-0.58-0.03-1.8401-0.37992-2.0801-0.41992l-0.20898 0.37109c0.67 0.19 2.0904 0.63 3.1504 1 1.26 0.43 2.7799 0.99977 3.4199 1.2598l-0.00977-0.03125 0.0586-0.41992c-0.42-0.19-1.3088-0.57875-1.9688-0.96875 0.09-0.56 1.169-3.8912 1.709-5.4512l0.19141-0.55859c1.07 0.37 3.3282 1.2893 3.6582 1.7793-0.14 0.58-0.31922 1.2289-0.44922 1.6289l0.34961 0.25c0.52-1.39 1.3202-3.2084 1.7402-4.0684l-0.41016-0.080078c-0.2 0.33-0.44867 0.76953-0.63867 1.0195-0.66-0.02-3.131-0.77961-4.041-1.0996l0.14063-0.41016c0.48-1.41 1.6989-4.7407 1.8789-4.9707 0.93999 0.32 3.8505 1.6007 4.3105 2.4707-0.07 0.38-0.30992 1.2098-0.41992 1.5098l0.38086 0.29883c0.5-1.38 1.4582-3.69 1.9082-4.5l-0.45898-0.048828c-0.2 0.39-0.56922 1.04-0.69922 1.25-0.43-0.02-5.1705-1.6597-5.9805-1.9297-0.73-0.25-2.61-0.94117-3.25-1.2012zm-69.1 0.39062c-1.44-0.2-3.3898 0.14914-5.5898 0.86914-1.45 0.47-3.6701 1.28-4.3301 1.5-0.79 0.26-2.8409 0.88141-3.1309 0.94141l0.16992 0.37891c0.46-0.11 1.5601-0.31867 2.0801-0.38867v0.009766c0.22 0.35 1.3802 3.7789 1.6602 4.6289l0.49023 1.4902c0.71 2.18 1.7693 5.5504 1.7793 5.9004-0.41 0.28-1.5191 0.77039-1.8691 0.90039l0.04883 0.41992c0.44999-0.17 4.4302-1.4898 5.4902-1.8398 7.23-2.36 9.0812-7.2798 7.7812-11.26-0.56-1.71-2.0301-3.2108-4.5801-3.5508zm-2.2637 1.377c0.49047 0.036563 0.95781 0.12117 1.3828 0.26367 1.95 0.66 2.9505 2.0797 3.4805 3.6797 1.31 4.01-1.441 7.2499-5.041 8.4199-0.49 0.16-1.2302 0.38008-2.1602 0.33008-0.3-0.65-1.5098-4.1795-1.8398-5.1895l-0.24024-0.73047c-0.27-0.83-1.6084-5.1802-1.6484-5.4902 0.37-0.2 1.1891-0.51039 1.6191-0.65039h-0.00976c1.3125-0.4275 2.9856-0.7425 4.457-0.63281zm-53.496 1.4453c0.42639-0.064668 0.86734-0.026328 1.3086 0.13867-0.52 2.55-0.43891 6.6791-3.6289 7.2891-2.9575-1.5312-0.66439-6.9751 2.3203-7.4277zm180.77 2.6484c1.4198-0.074062 2.9813 0.31625 3.4238 1.7188-0.09 3.07-7.44 0.14023-4.75-1.5098 0.395-0.1075 0.85289-0.1843 1.3262-0.20898zm-145.04 1.7637c-1.44 0.045937-2.7066 0.50133-4.1016 1.2363-4.84 2.55-6.0292 7.2097-4.1992 10.68 0.87 1.65 1.9499 2.7096 3.9199 3.3496v0.009766c2.51 0.8 4.6792 0.039374 6.4492-0.89062 4.31-2.27 6.1096-6.7586 3.8496-11.059-0.86-1.63-2.4902-2.9405-4.4102-3.2305-0.53-0.08-1.0278-0.11102-1.5078-0.095703zm110.38 0.71484-0.11133 0.41992c0.17 0.15 1.121 0.90023 1.541 1.2402-1.09 1.24-7.9605 8.5406-8.9805 9.3906-0.44-0.12-1.0198-0.38-1.3398-0.5l-0.33008 0.28906c0.58 0.3 1.4697 0.79055 1.9297 1.0605 0.31999 0.19 2.2802 1.4101 2.4902 1.5801v-0.029297l0.15039-0.40039c-0.24-0.19-1.1091-0.89062-1.3691-1.1406 1.24-2.23 5.0684-6.3592 7.0684-8.6992l0.07031 0.039063c-0.18 0.77-2.049 11.172-2.209 12.512 1.09-0.66 9.3204-6.8318 10.4-7.5918l0.06836 0.041015c-0.55 1.38-3.6385 9.9203-3.9785 10.57-0.36-0.17-1.7502-0.79016-1.9902-0.91016l-0.25 0.33984c0.51 0.26 2.4094 1.3405 3.1894 1.8105 0.8 0.48 1.7994 1.12 2.3594 1.5l0.13085-0.41016c-0.28-0.23-0.90953-0.73008-1.2695-1.0801 0.35-1.24 3.44-10.09 4.25-12.18 0.41 0.13 1.3084 0.50914 1.5684 0.61914l0.26172-0.33008c-0.41-0.2-1.8602-1.0198-2.4102-1.3398-0.58999-0.36-1.7298-1.0795-2.2598-1.4395l-0.13086 0.41016c0.28 0.23 0.75953 0.61969 1.0195 0.92969-0.27 0.37-7.4202 5.6601-8.4902 6.3301 0.24-1.61 1.4899-8.41 1.9199-10.25 0.36 0.12 0.90992 0.28953 1.4199 0.51953l0.28125-0.32031c-0.5-0.25-1.8598-1.0192-2.5898-1.4492-0.9-0.54-2.2102-1.3612-2.4102-1.5312zm-112.44 0.9082c2.4389-0.10547 5.0456 1.3233 6.5156 4.1133 1.48 2.8 0.59961 6.1585-1.9004 7.4785-3.42 1.8-7.5705 0.050153-9.2305-3.0898-1.9-3.61-0.12875-6.6089 2.2812-7.8789 0.7275-0.3825 1.521-0.58789 2.334-0.62305zm-44.865 3.4727v0.009766c2.37 1.55-0.18867 4.4898-0.63867 6.5098-0.43 0.04-1.3005 0.12039-1.7305 0.15039-0.52-2.26-0.52086-6.2399 2.3691-6.6699zm94.82 1.9004c-2.26 0.13-4.0609 1.6496-6.1309 2.3496-2.01 0.23-3.9099-1.3992-5.9199-0.69922-1.89 0.46-3.3088 1.8787-5.0488 2.6387-1.99 0.4-4.1606-0.55883-6.0605 0.45117-2.16 1.11-4.18 2.7187-6.75 2.6387-2.77 0.08-4.7405 2.0712-6.4805 3.9512-3.13 0-6.3002 0.74969-8.4902 3.1797-1.74 2.22-4.9295 1.3806-6.9395 3.1406-1.23 0.93-2.0994 2.2191-3.1094 3.3691-1.18 1.43-3.2394 1.4999-4.6094 2.6699-1.27 1.2-1.7518 3.0302-3.0918 4.1602-1.87 1.2-4.19 1.9001-5.5 3.8301-1.22 2.09-2.7896 3.9695-4.8496 5.2695-2.83 1.65-2.859 5.5509-5.709 7.2109-3.04 2.12-2.6214 6.4592-5.4414 8.6992-2.26 2.06-1.8084 5.6397-4.0684 7.6797-1.78 1.86-2.7301 4.4109-2.8301 6.9609 0.06 2.37-2.3197 3.7891-2.6797 6.0391-0.33 1.98-0.14141 4.1596-1.4414 5.8496-1.86 2.54-0.97875 5.7916-1.2188 8.6816-0.64 2.48-2.3603 4.9598-1.3203 7.5898 0.89 1.94-0.20992 3.8096-0.91992 5.5996v3.1192c1.2 1.7 1.339 3.661 0.45898 5.541-1.19 2.93 2.1997 5.0697 1.4297 7.9297-0.31 2.22-0.19 4.6003 1 6.5703 1.62 2.41-0.11828 5.4998 1.2617 8.0098 0.82 1.85 3.2495 3.0498 2.7695 5.3398-0.48 2.87 0.96969 5.5803 2.9297 7.5703 1.58 1.5 0.84977 3.9499 2.0098 5.6699 0.84 1.54 2.4703 2.3792 3.5703 3.6992 0.81 1.64 0.73899 3.5997 1.709 5.1797 0.79 1.23 2.2499 1.7902 3.1699 2.9102 0.79 1.41 0.99125 3.1199 2.0312 4.4199 0.99 1.35 2.7196 1.851 3.8496 3.041 1.18 1.55 1.5404 3.6804 3.1504 4.9004 1.74 1.39 4.4795 1.7284 5.1895 4.1484 1.14 2.94 4.4002 3.581 6.9102 4.791 1.59 2.11 3.3594 4.2508 6.1094 4.8008 2.58 0.29 2.7707 3.4701 4.9707 4.3301 1.4 0.67 2.9397 0.92953 4.4297 1.2695 2.17 0.27 3.1105 2.6287 5.0605 3.3887 2.15 1.1 4.9196-0.01937 6.8496 1.6406 1.67 1.33 3.8292 1.9497 5.9492 1.6797 2.15-0.36 3.5602 1.6907 5.4902 2.2207 1.85 0.86 3.84-9.4e-4 5.75 0.03906 1.97 0.32 3.6407 1.8014 5.7207 1.6914 1.86 0.08 3.7808-1.1202 5.5508-0.16015 2.46 1.26 5.2986 0.69015 7.8086-0.08985 1.75-0.62999 3.4707 0.40876 5.2207 0.46876 2.1 0.14999 3.9907-0.90868 5.9707-1.3887 1.8-0.2 3.5789 0.48922 5.3789 0.19922 1.99-0.26 3.4802-1.8593 5.4102-2.2793 1.55-0.05999 3.1702 0.42907 4.6602-0.21093l-0.06055-0.00977c2.15-0.64 3.6596-2.9403 6.0996-2.5703 2.34 0.15 4.5412-0.99031 6.2012-2.5703 1.75-1.76 4.5703-0.97836 6.5703-2.3184 2.21-0.96 3.1486-3.8802 5.8086-3.9102 3.24-0.38 5.2906-3.0211 7.1406-5.3711 2.62-0.87 5.1503-2.3402 6.3203-4.9902 0.91-2.52 4.2191-2.0294 5.6191-4.1094 1.99-1.86 2.5399-4.9604 5.1699-6.1504 3.46-1.92 3.2507-6.8306 6.7207-8.6406 2.24-1.84 2.1708-5.1498 4.0508-7.2598 1.57-1.82 3.1395-3.7995 3.4395-6.2695 0.23-2.22 2.6704-3.1096 3.4004-5.0996 1.35-2.35 0.14937-5.5001 2.1094-7.5801 1.57-1.88 2.4409-4.2805 2.4609-6.7305-0.07-2.14 1.9692-3.62 1.9492-5.75 0.17-2.22-0.97922-4.6104 0.30078-6.6504 1.14-1.93 1.8495-4.1997 1.2695-6.4297-0.55-1.8 0.01938-3.5988 0.60938-5.2988v-3.5312c-1.33-1.91-1.209-4.1288-0.70899-6.2988 0.67-3.12-2.7903-5.4708-1.8203-8.5508 0.82-2.76-0.8-5.2705-1.75-7.7305 0.13-2.92-0.17141-6.0596-2.1914-8.3496-1.61-1.62-0.6882-4.1002-1.6582-5.9902-0.88-1.92-3.1212-3.0794-3.2012-5.3594-0.16-2.37-1.39-4.53-3.25-6-1.83-1.26-1.5098-3.7405-2.5898-5.4805-0.78-1.63-2.5695-2.2991-3.7695-3.5391-0.74-1.2-0.92008-2.7003-1.8301-3.8203-1.04-1.31-2.6706-1.9095-3.8906-3.0195-0.99-1.41-1.0693-3.3113-2.2793-4.6113-1.37-1.73-3.631-2.2401-5.291-3.5801-1.18-1.41-1.6602-3.3692-3.2402-4.4492-1.69-1.42-4.4996-1.1295-5.5996-3.2695-1.08-2.04-3.2988-2.9906-5.4688-3.3906-1.86-0.15-2.5098-2.1102-3.7598-3.1602-1.69-1.54-4.1209-1.4998-6.1309-2.3398-1.22-0.78-1.9809-2.1995-3.3809-2.6895-1.93-0.65-4.0388-0.28016-5.9688-0.91016-1.37-0.74-2.1914-2.2395-3.6914-2.7695-1.65-0.72-3.4697-0.21023-5.1797-0.49023-1.37-0.56-2.4296-1.6909-3.8496-2.1309-1.96-0.58-4.0995 0.97078-5.9395-0.19922-2.47-1.46-5.4304-1.2798-8.1504-0.75977-1.75 0.47-3.1396-1.1113-4.8496-1.1113-1.54-0.11-2.9512 0.65086-4.4512 0.88086-1.52-0.34-2.8592-1.3598-4.4492-1.3398zm107.52 0.95117c2.1244 0.15984 4.2716 1.3735 3.9941 3.7285-2.41 0.16-6.2795-0.28102-6.0195-3.541 0.6125-0.1775 1.3173-0.24078 2.0254-0.1875zm-107.09 1.041c0.75187 0.031406 1.5438 0.63969 0.90625 1.3672-1.07 1.14-2.5803 3.2204-4.3203 2.4004-0.18-1.53 1.5805-2.7501 2.7305-3.5801v-0.009765c0.1875-0.135 0.43297-0.1882 0.68359-0.17774zm9.6172 0.4082c0.35 2.25-2.4909 3.8895-4.4609 3.2695 0.43-2.01 2.5609-3.0995 4.4609-3.2695zm-75.432 0.21875c-0.3 0.26-1.8302 1.4212-2.9102 2.2012-0.98 0.71-2.3984 1.6895-2.8184 1.9395l0.28906 0.29883c0.44-0.27 1.4809-0.82953 1.8809-1.0195l0.009766 0.009766c0.44 0.47 2.2499 2.9413 2.9199 3.8613l0.66992 0.92969c1.15 1.59 3.3803 4.6992 3.8203 5.4492-0.26 0.36-1.311 1.2709-1.541 1.4609l0.17969 0.37891c0.43-0.36 1.8816-1.4591 2.6816-2.0391 0.87-0.63 4.3798-3.071 4.7598-3.291 0.31 0.43 1.1193 1.7114 1.2793 1.9414l0.42969-0.19141c-1.33-2.31-2.2588-4.2384-2.9688-5.8984l-0.3418 0.33984c0.2 0.54 0.59 1.53 0.75 2.25-0.32 0.84-1.33 2.2096-3.25 3.5996-0.32-0.31-2.5698-3.3805-4.0898-5.4805l-0.41992-0.58008c-0.93-1.28-2.5884-3.6099-2.8984-4.1699 0.6-0.53 1.3685-1.2896 1.7285-1.5996l-0.16016-0.39062zm84.971 0.38086c0.51 2.28-2.5406 3.2098-4.3106 3.0098 0.09-2.12 2.4106-3.2098 4.3106-3.0098zm-29.949 0.94726c0.47297-0.031406 0.93508 0.13227 1.3301 0.57227-0.47 1.81-2.5316 3.4502-4.4316 2.7402 0.1575-1.3725 1.6827-3.2183 3.1016-3.3125zm39.5 0.93164c-0.28 2.28-3.0307 2.9812-4.9707 2.7812-0.04-2.24 3.1407-3.0112 4.9707-2.7812zm51.789 0.65039-0.17968 0.39062c0.27 0.27 1.1892 1.2095 1.4492 1.5195-0.36 0.57-2.6603 3.4802-3.0703 3.9902l-0.72851 0.91016c-1.22 1.51-3.5213 4.359-4.1113 4.959-0.37-0.2-1.5386-0.89961-1.8086-1.0996l-0.00976 0.009765-0.32031 0.28125c0.49 0.34 1.939 1.4491 2.459 1.8691 0.96 0.77 2.5413 2.0906 2.8613 2.3906l0.17969-0.39062c-0.28-0.28-1.1412-1.1195-1.4512-1.5195 0.18999-0.36 2.2416-2.9509 3.8516-4.9609l0.76953-0.95898c1.52-1.9 2.9791-3.6795 3.2891-3.9395 0.61 0.38 1.4608 0.86812 1.8008 1.0781l0.33985-0.25976c-0.29-0.18-1.6397-1.2196-2.4297-1.8496-1.22-0.98-2.6206-2.1499-2.8906-2.4199zm-100.67 0.91016c-0.12 1.67-1.5003 3.5008-3.3203 3.3008-0.91-1.73 1.6003-3.7108 3.3203-3.3008zm33.055 0.35156c0.52437 0.057188 1.0377 0.22109 1.5352 0.55859 2.14 1.32 4.6305 0.83977 6.9805 0.75977 2.09 1.22 4.3992 2.0696 6.8692 1.8496 2.9-0.42 4.7604 2.6612 7.6504 2.4512 2.96-0.46 4.5593 2.5793 7.2793 3.0293 1.71 0.53 3.8616 0.21047 5.1016 1.7305 1.59 1.86 3.78 3.2295 6.25 3.4395 2.55 0 3.4394 2.8009 5.3594 3.9609 1.53 1.1 3.9798 0.84906 4.8398 2.7891 1.08 2.17 3.1109 3.6802 5.3809 4.4102 1.92 0.54 1.9692 2.8495 2.9492 4.2695 1.18 2.36 4.7202 2.4498 5.1602 5.3398 0.81 3.48 5.5808 3.731 6.0508 7.291 0.8 2.44 2.7288 4.2298 4.4688 6.0098 0.26 2.87 1.3799 5.5106 3.4199 7.5605 0.38 2.66 1.3108 5.2387 3.3008 7.1387 1.82 1.65 0.40969 4.1502 1.1797 6.1602 0.44 2.29 2.6209 4.0198 2.1309 6.5098-0.52 2.66 1.1587 4.8712 1.8887 7.2812-0.6 2.58-0.69937 5.2898 0.14063 7.8398 0.62 1.52-0.5493 2.8393-0.7793 4.2793-0.11 2.76 2.1484 5.4402 0.64844 8.1602-1.64 3.19 0.36 6.9001-1.25 10.08-1.04 2.19-0.72016 4.6495-1.1602 6.9395-1.83 2.64-2.7485 5.6998-3.2285 8.8398-1.65 2.19-3.2598 4.5511-3.5098 7.3711-0.16 2.58-2.8807 3.7591-3.7207 6.0391-0.75 1.85-0.76001 4.2701-2.75 5.3301-2.54 1.43-2.5309 4.7507-4.2109 6.7207-3.14 1.24-3.9785 4.6794-5.7285 7.1894-2.72 1.43-5.3408 3.3411-6.8008 6.1211-0.95 2.21-3.6402 2.4884-5.1602 4.1484-1.32 1-1.5996 3.1215-3.3496 3.5215-4.37 0.91-6.6605 5.6192-11.23 6.1192-3 0.88999-4.7699 4.2196-8.1699 4.0996-2.45-0.07-4.1396 1.8112-6.0996 2.7812-3.36-0.59999-6.1199 1.3195-8.9199 2.7695-2.98-0.63-6.2494-0.54102-8.8594 1.209l0.00976-0.01953c-1.45 1.31-3.2213-0.24938-4.8613-0.10938-2.33-0.26-4.4602 2.0206-6.7402 0.81055-2.62-1.27-5.6798-0.63078-8.2598 0.44922-2.58-0.93-5.1386-2.6699-8.0586-1.9199-2.02 0.78-3.7015-0.80063-5.5215-1.3906-1.69-0.63-3.5383 0.00125-5.2383-0.46875-1.74-0.87-3.3406-2.2515-5.3906-2.2715-1.46-0.2-3.3812 0.60125-4.2812-0.96875-1.54-2.09-4.1889-2.6398-6.6289-2.7598-2.47-0.13-3.2009-3.0505-5.3809-3.8105-1.73-1.19-4.6198-0.29055-5.5098-2.5606-1.29-2.63-4.2399-3.4687-6.6699-4.6387-1.46-2.54-3.5488-4.9704-6.5488-5.6504-2.1-0.41-2.0112-2.9897-3.4512-4.1797-1.14-1.5-3.1303-1.9816-4.3203-3.3516-0.66-2.51-2.0488-4.7988-4.0488-6.4688-1.56-1.19-1.2206-3.4211-2.3906-4.8711-0.94-1.25-2.4504-1.9087-3.4004-3.1387-0.32-1.22-0.19914-2.5209-0.61914-3.7109-0.55-2.09-2.9806-2.7089-4.1406-4.3789-0.02-2.05 0.74039-4.2209-0.34961-6.1309-0.45-1.57-2.1995-2.2295-2.7695-3.6895 0.11-1.95 1.2098-3.9806 0.25976-5.8906-0.56-1.66-3.0209-2.4998-2.3809-4.5098 0.57-2.22-0.38-4.3509-1.5-6.2109-1.36-2.14 0.64148-4.48 0.021485-6.75 0.049999-1.99-2.2317-3.6794-1.0117-5.6094 1.33-2.36-0.17969-4.9899-0.17969-7.4199 1.73-2.74 2.0697-6.0302 1.4297-9.1602 1.26-2.68 2.7805-5.6099 1.8105-8.6699-0.51-1.3 0.8393-2.0502 1.5293-2.9102 1.39-1.89 1.5609-4.3103 1.4609-6.5703 0.98-1.83 2.8798-3.1185 3.3398-5.2285 0.55-1.71 0.10047-3.9113 1.7305-5.1113 1.84-1.5 2.8995-3.6998 3.2695-6.0098 0.1-1.43 1.5903-1.9507 2.5703-2.7207 2.77-1.54 2.0693-5.7691 5.2793-6.8691 2.84-1.5 2.6112-5.5593 5.4512-7.0293 1.87-1 3.6285-2.3809 4.4785-4.3809 0.73-1.88 3.1411-1.4198 4.6211-2.3398 2.01-0.76 2.7102-2.9305 4.1602-4.3105 1.73-0.92 3.7296-1.469 5.0996-2.959 1.52-1.6 2.8494-3.8813 5.3594-3.8613 3.61-0.27 5.5302-4.3189 9.2402-4.1289 2.69-0.08 4.5612-2.2006 6.7812-3.3906 1.86-0.36 3.8587 9.37e-4 5.6387-0.78906 1.72-0.54 3.0005-2.5214 4.9805-1.9414 3.14 0.67 6.2293-0.048986 9.0293-1.459 2.57 0.12 5.2612 1.0391 7.7012-0.38086 1.96-0.8 3.8787 0.84984 5.8887 0.33984 1.6125 0.0225 3.2824-0.76922 4.8555-0.59766zm22.379 0.49414c0.88218-0.084375 1.8792 0.17406 1.8867 1.1641-1.03 1.24-3.011 2.2805-4.541 1.3105-0.68-1.09 1.0916-1.821 1.8516-2.291 0.2275-0.09 0.50867-0.15547 0.80274-0.18359zm-140.91 0.8457c1.0105-0.26688 1.5082 1.512 1.377 2.4395-0.079999 1.9 0.15945 4.8894-2.0605 5.6094-2.36-1.85-1.1593-5.6908 0.2207-7.8008 0.165-0.13 0.31854-0.20992 0.46289-0.24805zm74.986 0.92773c1.55-0.049999 0.50109 1.6719 0.12109 2.4219-0.56 1.06-1.4712 3.0499-2.9512 2.1699-0.09-1.84 0.98008-4.0418 2.8301-4.5918zm75.611 1.7266c0.42937 0.073125 0.84804 0.24695 1.248 0.56445-0.95 1.6-4.6189 2.7209-5.1289 0.38086 1.215-0.4725 2.5927-1.1647 3.8809-0.94531zm-40.541 0.003906c-50.79 0-92.1 41.31-92.1 92.08s41.31 92.08 92.1 92.08c50.79 0 92.1-41.31 92.1-92.08s-41.31-92.08-92.1-92.08zm110.8 1.4102c2.1127-0.074532 4.585 0.3261 4.1875 2.6211-2.24 0.34-4.8205-0.44141-6.0605-2.4414 0.505-0.0775 1.1688-0.15484 1.873-0.17969zm-155.6 1.1504c0.20863-0.041601 0.43383-0.037969 0.67383 0.019531 0.11 1.64-0.45141 3.9911-2.4414 4.1211-0.3675-1.365 0.30715-3.8494 1.7676-4.1406zm44.793 0.57031c49.06 0 88.971 39.899 88.971 88.949s-39.911 88.951-88.971 88.951-88.971-39.901-88.971-88.951 39.911-88.949 88.971-88.949zm85.113 0.44336c-0.94125 0.03375-1.753 0.46063-2.293 1.0156-1.56 1.61-1.2209 3.4802-0.71093 5.7402 0.34999 1.49 0.69031 2.9301-0.42969 4.0801-1.02 1.05-2.6298 0.91984-3.7598-0.16016-0.98-0.95-1.1992-2.4095-0.69922-3.6895 0.21-0.3 0.91938-1.1796 1.1094-1.3496l-0.24024-0.40039c-0.29 0.38-1.8607 1.839-2.2207 2.209-0.54 0.56-2.2683 1.9413-2.4883 2.1113l0.4082 0.23047c0.61-0.43 1.41-0.98164 1.75-1.1816 0.19 0.6 0.9411 1.6017 1.6211 2.2617 1.94 1.87 4.5898 2.2691 6.5098 0.28906 1.74-1.79 1.3096-3.7509 0.84961-5.6309-0.42-1.73-0.91-3.1698 0-4.0898 0.62-0.64 1.8911-0.93023 3.1211 0.25976 1 0.97 0.98844 2.4511 0.64844 3.1211-0.22 0.28-0.51828 0.65063-0.98828 1.1406l0.18945 0.45898c1.13-1.17 2.5592-2.3503 4.1192-3.5703l-0.36915-0.26953c-0.46 0.3-0.94109 0.66039-1.3711 0.90039l-0.01953-0.009765c-0.26-0.42-0.82992-1.3011-1.6699-2.1211-1.055-1.02-2.1252-1.3795-3.0664-1.3457zm-37.312 0.68555c1.2989-0.066094 2.7936 0.10797 2.8086 1.4805-1.34 1.15-3.5401 0.80086-5.0801 0.13086-0.57-0.75 0.45156-1.39 1.1016-1.5 0.3275-0.04 0.73695-0.089297 1.1699-0.11133zm-131.79 1.0469c-0.54516 0.054375-1.1173 0.19133-1.7148 0.42383-1.36 0.52-2.9002 1.7592-4.4902 3.4492-1.04 1.11-2.6001 2.8906-3.0801 3.3906-0.57 0.61-2.0608 2.1401-2.3008 2.3301l0.33008 0.25977c0.36-0.32 1.2206-1.0298 1.6406-1.3398l0.009765 0.009765c0.36 0.2 3.0297 2.6498 3.6797 3.2598l1.1406 1.0703c1.68 1.57 4.2204 4.0203 4.4004 4.3203-0.22 0.44-0.97094 1.3995-1.2109 1.6895l0.25 0.33984c0.31-0.36 3.1697-3.44 3.9297-4.25 5.21-5.55 4.4699-10.749 1.4199-13.619-0.99-0.9225-2.3684-1.4971-4.0039-1.334zm86.656 1.3984c-2.9012-0.06125-6.2772 0.35047-9.9922 1.1055l-0.83008 0.44922s6.151 0.09 6.541 0c0.39-0.09-2.5902 0.63164-0.24023 0.43164 2.34-0.19 10.299 1.1191 10.299 1.1191l-5.709-2c1.88-0.21 4.3001 0.06086 7.0801 0.63086-1.82-1.14-4.2472-1.6751-7.1484-1.7363zm-86.92 0.83594c1.3514 0.11859 2.4662 0.76641 3.3887 1.6289 3.08 2.89 2.2091 7.0506-0.38086 9.8105-0.35 0.38-0.90024 0.92008-1.7402 1.3301-0.58-0.43-3.3294-2.9399-4.1094-3.6699l-0.56055-0.5293c-0.64-0.6-3.9101-3.7815-4.0801-4.0215 0.23-0.36 0.80133-1.0196 1.1113-1.3496h-0.011718c1.26-1.34 3.1812-2.8089 4.9512-3.1289 0.505-0.09 0.98117-0.10984 1.4316-0.070312zm30.969 0.009765c1.66 0.68-0.079924 4.9102-1.9199 4.9102-1.03-1.68 0.16992-4.1902 1.9199-4.9102zm-64.631 0.44922c0.57 2.27 2.3508 5.8213-0.44922 7.2812-2.5-0.84-3.2208-7.2812 0.44922-7.2812zm174.13 1.502c0.6875-0.07875 1.3784 0.13828 1.6934 0.73828-0.38 1.41-2.5411 1.3008-3.3711 0.30078 0.305-0.585 0.99024-0.96031 1.6777-1.0391zm-55.477 0.47852c-4.17 0-7.6601 1.7491-10.08 4.7891l-0.26954 0.3418 0.2793 0.33008c2.65 3.11 6.8507 4.9688 11.221 4.9688v-0.019532c4.33 0 7.7702-1.7694 8.9902-4.6094l0.10937-0.25-0.15039-0.23047c-2.16-3.33-5.9296-5.3203-10.1-5.3203zm-2.0234 1.2285c-1.336 0.82292-2.2266 2.2813-2.2266 3.9707 0 1.52 0.72961 2.8509 1.8496 3.7109-2.56-0.65-4.8801-1.9605-6.5801-3.8105 1.7826-2.0714 4.2405-3.4155 6.957-3.8711zm120.62 0.21289c2.5097-0.098164 5.5138 1.6667 4.4375 4.4492-2.4-0.36-5.5688-1.291-5.4688-4.291 0.325-0.0925 0.67271-0.14418 1.0312-0.1582zm-115.25 0.087891c2.33 0.7 4.3509 2.1116 5.7109 4.1016l0.00977 0.009766c-0.97 1.93-3.3308 3.2591-6.3008 3.6191 0.66999-0.39 1.2404-0.93961 1.6504-1.5996-1.02-0.02-1.8398-0.85086-1.8398-1.8809s0.83891-1.8789 1.8789-1.8789c0.17 0 0.33023 0.030312 0.49023 0.070312-0.26-0.98-0.83961-1.8214-1.5996-2.4414zm30.414 1.0195-0.27539 0.44141 21.055 13.182 0.27539-0.44141-21.055-13.182zm59.494 0.2168c-0.93875-0.065-1.7889 0.27344-2.3789 0.77344-1.71 1.44-1.5691 3.3406-1.2891 5.6406l-0.00977-0.009766c0.19 1.52 0.39016 2.9895-0.83984 4.0195-1.12 0.94-2.7107 0.65117-3.7207-0.54883-0.88-1.05-0.95032-2.5102-0.32032-3.7402 0.23-0.27 1.04-1.0805 1.25-1.2305l-0.19922-0.42969c-0.33 0.35-2.0397 1.6407-2.4297 1.9707-0.59 0.5-2.4614 1.6996-2.6914 1.8496l0.38086 0.26953c0.65-0.36 1.5094-0.83023 1.8594-0.99023 0.12999 0.62 0.77085 1.6802 1.3808 2.4102 1.73 2.06 4.3295 2.7309 6.4395 0.96094 1.91-1.6 1.6899-3.5917 1.4199-5.5117-0.24-1.76-0.56984-3.2384 0.41016-4.0684 0.67999-0.57 1.9803-0.72992 3.0703 0.58008 0.89 1.06 0.73008 2.5382 0.33008 3.1582-0.25 0.26-0.57961 0.60125-1.0996 1.0312l0.13867 0.48047c1.24-1.05 2.7809-2.0809 4.4609-3.1309l-0.33985-0.31055c-0.49 0.25-1.0109 0.55977-1.4609 0.75977-0.22-0.44-0.69922-1.3793-1.4492-2.2793-0.945-1.12-1.9734-1.5893-2.9121-1.6543zm-155.03 0.49023c0.29459-0.044863 0.59734-0.02 0.90234 0.09375-0.36 1.76-0.29977 4.6113-2.5098 5.0312-2.0387-1.05-0.4547-4.811 1.6074-5.125zm93.643 1.3477-0.32813 0.40234 3.8262 3.123 0.33008-0.40234-3.8281-3.123zm-69.436 0.39062-5.5039 3.3828 0.27149 0.44336 5.5039-3.3828-0.27148-0.44336zm100.51 0.080078c0.97968-0.052031 2.0577 0.21805 2.3652 1.1855-0.07 2.12-5.1412 0.090936-3.2812-1.0391 0.2725-0.075 0.58945-0.12914 0.91602-0.14648zm-94.98 1.6367-8.3145 7.1895 0.3418 0.39258 8.3125-7.1875-0.33984-0.39453zm62.002 0.007812-0.35742 0.37695 11.521 10.898 0.35743-0.37695-11.521-10.898zm-128.95 1.5918c-0.2 0.37-1.0703 1.7591-1.3203 2.1191-0.25 0.36-1.4592 2.1199-1.6992 2.4199l0.40039 0.15039c0.34-0.44 1.0498-1.2298 1.3398-1.5098 1.08 0.24 6.8788 4.0691 8.7188 5.2891-0.8 0.23-5.7288 0.74133-6.4688 0.86133-0.48 0.08-6.8504 0.63891-7.6504 0.62891-0.79 1.33-1.8009 2.8898-2.3809 3.8398l0.39062 0.16016c0.44718-0.59624 1.059-1.3465 1.4004-1.6699h0.001954c0.55213 0.36149 9.6876 6.6898 10.188 7.4297-0.14 0.46-0.43969 1.0215-0.67969 1.5215l0.31055 0.2793c0.28-0.5 1.1097-1.811 1.4297-2.291 0.28-0.43 1.4595-2.1284 1.6895-2.3984l-0.37891-0.17969c-0.24 0.29-1.1816 1.4484-1.4316 1.6484-0.74-0.18-9.5401-5.7398-9.8301-6.0098 0.99-0.13 6.9008-0.71906 7.3008-0.78906 0.68-0.1 9.0498-1.1305 9.8398-1.3105-0.6-0.54-7.4397-5.2698-8.1797-5.8398-0.51-0.38-2.7791-2.0106-3.2891-2.6406 0.23-0.49 0.48961-1.1702 0.59961-1.4102l-0.30078-0.29883zm29.49 1.5098c1.63 1.07-0.12945 3.1002-0.43945 4.4902-0.3 0.03-0.90117 0.079375-1.2012 0.10938-0.36-1.56-0.35937-4.2996 1.6406-4.5996zm97.119 0.5-0.37891 0.34961 8.5488 9.2305 0.38086-0.34961-8.5508-9.2305zm-154.45 0.42969c1.49 1.91 2.7401 4.8593 0.58008 6.7793-2.55-1.08-2.2301-5.0093-0.58008-6.7793zm166.9 0.37891-0.31445 0.41406 4.9824 3.7578 0.3125-0.41602-4.9805-3.7559zm30.027 0.65234c1.4662 0.11156 2.9492 0.95063 2.7617 2.5781-1.66 0.11-4.3302-0.18922-4.1602-2.4492 0.4225-0.1225 0.90969-0.16609 1.3984-0.12891zm-45.98 0.2168-0.41992 0.30859 9.8633 13.451 0.41992-0.30859-9.8633-13.451zm-46.592 0.67773-12.891 13.768 0.3789 0.35547 12.893-13.768-0.38086-0.35547zm121.73 0.99414c-1.473-0.085664-2.9171 0.28656-4.1621 1.0703h-0.00976c-1.58 0.99-2.5608 2.1502-3.0508 4.1602-0.61 2.56 0.31086 4.6694 1.3809 6.3594 2.59 4.13 7.2103 5.58 11.32 3 1.56-0.98 2.7487-2.7106 2.8887-4.6406 0.16-2.13-0.43859-3.72-1.5586-5.5-1.8188-2.8937-4.3536-4.3064-6.8086-4.4492zm25.318 0.15039c2.37-0.37 6.0206 1.3004 5.3906 4.1504-2.3-0.14-5.3806-1.5004-5.3906-4.1504zm-155.01 0.58203-4.3945 4.0273 0.35156 0.38281 4.3945-4.0254-0.35156-0.38476zm131.12 0.79883c1.8862 0.12559 3.4434 1.268 4.3496 2.6992 1.75 2.79 0.7514 6.8498-2.8086 9.0898-2.69 1.69-6.0916 1.0699-7.6016-1.3301-2.06-3.27-0.61914-7.5397 2.3809-9.4297 1.2975-0.81375 2.548-1.1046 3.6797-1.0293zm-177.08 1.5391c0.50859 0.15234 0.74883 1.1322 0.67383 1.6797-0.05 1.31 0.11008 3.3691-1.4199 3.8691-1.63-1.28-0.79961-3.9189 0.15039-5.3789 0.2275-0.18 0.42617-0.2207 0.5957-0.16992zm95.258 1.2207-0.44532 0.26758 5.1758 8.5918 0.44532-0.26758-5.1758-8.5918zm-2.5156 0.69336-0.48047 0.19922 4.0039 9.5664 0.48047-0.20117-4.0039-9.5645zm-3.8008 0.32617-0.48633 0.18555 5.2754 13.967 0.48633-0.18359-5.2754-13.969zm63.152 0.55859c1.4555-0.048749 3.1606 0.22805 2.8906 1.8105-1.54 0.23-3.3197-0.30945-4.1797-1.6895 0.3475-0.0525 0.80391-0.10484 1.2891-0.12109zm-83.42 0.10156-2.1992 6.4492 0.49024 0.16016 2.1992-6.4395-0.49024-0.16992zm17.637 0.001953-0.49414 0.1582 2.0488 6.3691 0.49609-0.16016-2.0508-6.3672zm-2.1387 0.3418-0.51953 0.019531 0.28906 7.5332 0.51953-0.019531-0.28906-7.5332zm-3.4277 0.005859v15.99h0.51954v-15.99h-0.51954zm36.439 0.009766c-0.79 0-1.4297 0.64969-1.4297 1.4297v1.6211c0 0.79 0.64969 1.4297 1.4297 1.4297h19.891c0.79 0 1.4297-0.63969 1.4297-1.4297v-1.6211c0-0.79-0.63969-1.4297-1.4297-1.4297h-19.891zm-101.18 0.009766c-0.79 0-1.4297 0.64969-1.4297 1.4297v1.6211c0 0.79 0.63969 1.4297 1.4297 1.4297h19.891c0.79 0 1.4297-0.63969 1.4297-1.4297v-1.6211c0-0.79-0.64969-1.4297-1.4297-1.4297h-19.891zm58.297 0.44336-0.73437 14.131 0.51953 0.02735 0.73438-14.131-0.51954-0.027344zm-3.4316 0.17578-2.0547 9.8184 0.50976 0.10547 2.0547-9.8164-0.50977-0.10742zm-54.305 0.71094h18.77c0.48 0 0.87109 0.39109 0.87109 0.87109v0.20898c0 0.48-0.39109 0.86914-0.87109 0.86914h-18.77c-0.48 0-0.87109-0.38914-0.87109-0.86914v-0.20898c0-0.48 0.3911-0.87109 0.87109-0.87109zm101.18 0h18.77c0.47999 0 0.87109 0.39109 0.87109 0.87109v0.20898c0 0.48-0.3911 0.86914-0.87109 0.86914h-18.77c-0.48 0-0.86914-0.38914-0.86914-0.86914v-0.20898c0-0.48 0.38914-0.87109 0.86914-0.87109zm-16.189 0.18945c1.66 1.58 2.6894 3.8015 2.6894 6.2715 0 4.78-3.8704 8.6484-8.6504 8.6484-3.31 0-6.1787-1.8598-7.6387-4.5898 0.93 4.2 4.6799 7.3516 9.1699 7.3516 5.19 0 9.3887-4.2006 9.3887-9.3906l0.00976-0.009765c0-3.59-2.0088-6.7013-4.9688-8.2812zm-158.88 1.0605c1.54 2.28 4.2502 5.9895 1.1602 8.1895-2.69-1.69-4.0102-5.9795-1.1602-8.1895zm109.89 0.41016c-3.92 0-7.0996 3.1796-7.0996 7.0996 0 3.91 3.1796 7.0898 7.0996 7.0898 3.92 0 7.0996-3.1798 7.0996-7.0898 0-3.91-3.1796-7.0996-7.0996-7.0996zm0 0.5293c3.63 0 6.5703 2.9503 6.5703 6.5703 0 3.62-2.9503 6.5703-6.5703 6.5703-3.62 0-6.5801-2.9503-6.5801-6.5703 0-3.62 2.9501-6.5703 6.5801-6.5703zm-58.26 0.56055c0.4 1.57 1.6195 4.0095-0.31055 5.0195-1.73-0.58-2.2195-5.0195 0.31055-5.0195zm31.779 0.94922c-1.55 1.81-2.8202 3.84-4.2402 5.75-0.29 0.05-0.87016 0.1607-1.1602 0.2207 0.98-4.62-6.3688-6.6398-7.5488-2.3398 1.57-0.38 3.1788-0.64969 4.7988-0.42969 0.09 0.81 0.19102 1.6197 0.29102 2.4297-1.64 0.16-3.2799 0.22047-4.9199 0.23047 0.85 1.25 1.7201 2.5098 2.5801 3.7598-2.25 1.66-1.5009 5.0797 1.5391 4.9297-0.97 25.23-1.8088 50.469-2.7988 75.689-4.07-0.81-4.7913 5.1311-0.61133 5.1211-0.2 5.59-0.51961 11.17-0.84961 16.75-0.05 1.51-1.7907 3.2898-0.2207 4.5098 8.52 0.29 17.091 0.13007 25.631 0.08007 2.29-0.21 0.82063-2.8311 0.39063-4.1211-0.49-5.72-0.81-11.479-1-17.219 3.72-0.39 2.9795-5.7102-0.73047-5.1602l-0.00977 0.01954c-0.96-25.21-1.8105-50.43-2.7305-75.65 2.76-0.2 3.2502-3.0598 1.4902-4.8398 0.91-1.27 1.8192-2.5496 2.6992-3.8496-1.52-0.04-3.0288-0.079141-4.5488-0.11914-1.09-3.8 3.1801-2.2 5.3301-2.5-2.46-3.57-8.47-1.9816-8 2.6484-0.33-0.03-0.99032-0.088907-1.3203-0.12891-1.39-1.9-2.7305-3.8413-4.0605-5.7812zm101.18 0c-1.55 1.81-2.8202 3.84-4.2402 5.75-0.29 0.05-0.8682 0.1607-1.1582 0.2207 0.98-4.62-6.3708-6.6398-7.5508-2.3398 1.57-0.38 3.1808-0.64969 4.8008-0.42969 0.09 0.81 0.18906 1.6197 0.28906 2.4297-1.64 0.16-3.2799 0.22047-4.9199 0.23047 0.85 1.25 1.7201 2.5098 2.5801 3.7598-2.25 1.66-1.5009 5.0797 1.5391 4.9297-0.97 25.23-1.8088 50.469-2.7988 75.689-4.07-0.81-4.7913 5.1311-0.61133 5.1211-0.2 5.59-0.50937 11.17-0.85937 16.75-0.05 1.51-1.7888 3.2898-0.21875 4.5098 8.52 0.29 17.089 0.13007 25.629 0.08007 2.29-0.21 0.82063-2.8311 0.39063-4.1211-0.49-5.72-0.81-11.479-1-17.219 3.72-0.39 2.9795-5.7102-0.73047-5.1602-0.95969-25.203-1.8107-50.417-2.7305-75.631 2.76-0.2 3.2502-3.0598 1.4902-4.8398 0.90999-1.27 1.8212-2.5496 2.7012-3.8496-1.52-0.04-3.0308-0.079141-4.5508-0.11914-1.09-3.8 3.1801-2.2 5.3301-2.5-2.45-3.57-8.47-1.9816-8 2.6484-0.33-0.03-0.99031-0.088907-1.3203-0.12891-1.39-1.9-2.7306-3.8413-4.0605-5.7812zm-50.18 0.011719v14.16h0.51953v-14.16h-0.51953zm129.17 0.39844c2.65-0.4 7.7706 1.3998 5.8906 4.8398-2.36-0.79-6.2406-1.6398-5.8906-4.8398zm-47.5 1.0488c1.515 0.24516 2.9458 1.3715 2.3008 3.0215-1.65-0.25-3.8395-0.88899-3.7695-2.959 0.45-0.1275 0.96375-0.14422 1.4688-0.0625zm-132.75 1.8418 3.1211 4.5898h5.5684l-1.1699 2.4395h-14.648l-1.6602-2.4395h5.7598l3.0293-4.5898zm101.18 0 3.1211 4.5898h5.5703l-1.1699 2.4395h-14.65l-1.6602-2.4395h5.7598l3.0293-4.5898zm-162.15 0.33984c-0.21 0.54-1.0113 2.3496-1.3613 3.0996-0.14 0.31-0.88016 1.7808-1.1602 2.3008l0.39062 0.16015c0.26-0.41 0.60039-0.96054 0.90039-1.3105 0.57 0.57 8.5489 8.6601 9.3789 9.8301-0.11 0.47-0.25016 0.97093-0.41016 1.4609-2.94 1.17-7.5495 2.3287-8.0195 2.3887-0.36-1.71-1.5502-3.4093-2.7402-3.7793-1.04-0.33-1.9599 0.06922-2.6699 0.94922-0.91 1.13-1.6392 3.3699-2.1992 5.1699l-1.2598 4.0898 0.41016 0.07032c0.17-0.4 0.67938-1.6592 0.85938-1.9492l-0.019531-0.00977c0.38 0.04 4.0192 1.1491 4.6992 1.3691l1.1504 0.36133c1.99 0.62 5.689 1.7988 6.209 2.0488-0.029999 0.57-0.29938 1.8198-0.35937 2.0898l0.37109 0.20117c0.1-0.45 0.67992-2.4507 0.91992-3.2207 0.27-0.87 0.90984-2.7705 1.0898-3.2305l-0.41992-0.04883c-0.17 0.4-0.69086 1.6084-0.88086 1.8984-0.89-0.21-3.8091-1.0888-5.0391-1.4688l-0.49023-0.15039c0.1-0.32 0.28922-1.1096 0.44922-1.8496 0.49-0.18 7.8706-3.3912 8.8906-4.5312l0.12891-0.86914c-0.17 0.08-0.35859 0.16977-0.55859 0.25977 0.22-0.52 0.48867-1.149 0.63867-1.459 0.24-0.52 1.0398-2.1416 1.3398-2.6816l-0.4082-0.09961c-0.29 0.48-0.6407 1.0397-0.9707 1.4297-1.3-0.83-4.2395-3.3794-4.4395-3.6094 0.2-0.71 1.409-3.6298 1.709-4.2598 0.65-0.04 5.0606 0.46031 6.1406 0.57031-0.13 0.62-0.35961 1.2797-0.59961 1.9297l0.33984 0.25976c0.19-0.5 1.0996-2.5503 1.3496-3.0703 0.45-0.95 1.3307-2.7492 1.4707-2.9492l-0.40039-0.12109c-0.32 0.51-0.64024 0.99094-0.99024 1.4609-1.97 0.09-5.5011-0.20961-7.1211-0.34961-2.2-0.2-5.4791-0.52969-6.3691-0.67969 0.08-0.46 0.24039-0.9807 0.40039-1.4707l-0.34961-0.23047zm223.37 0.15039-0.35938 0.2207c0.13 0.53 0.27961 1.1288 0.34961 1.5488-0.49 0.27-2.4498 1.1301-4.0898 1.8301l-2.8496 1.2012 0.00977-0.01172c-3.2 1.34-4.8107 4.0618-3.2207 7.8418 0.76 1.81 1.7809 2.7493 2.8809 3.2793 1.83 0.88 3.7486 0.52993 5.8086-0.33007 0.66-0.28 1.5205-0.68047 2.2305-0.98047l0.88085-0.36914c0.49-0.21 2.7898-1.1314 3.0898-1.1914 0.31 0.43 0.58906 0.88992 0.78906 1.1699l0.42969-0.04883c-0.17-0.3-0.60977-1.2512-1.0098-2.2012-0.48-1.13-1.0199-2.5183-1.1699-2.9883l-0.33008 0.28906c0.16 0.49 0.48008 1.6496 0.58008 2.0996-0.57 0.33-3.9102 1.7502-4.4902 1.9902l-1.6797 0.71093c-2.19 0.92-3.9 1.3598-5.25 0.75977-0.85-0.38-1.4805-1.0598-1.9805-2.2598-0.83-1.97-0.20007-4.1708 3.6699-5.8008l2.4316-1.0195c1.57-0.66 3.9102-1.5999 4.2402-1.6699 0.36 0.54 0.78883 1.3191 1.0488 1.7891l0.41992-0.07031c-0.23-0.44-0.85899-1.8299-1.209-2.6699-0.59-1.41-1.0507-2.5891-1.2207-3.1191zm-79.18 3.1426-0.44336 0.27344 5.1777 8.3789 0.4414-0.27344-5.1758-8.3789zm-144.88 0.53711c1.13 0.16 4.8607 0.51968 6.2207 0.67968l-1.8301 3.7305c-0.50955-0.45959-3.0653-3.0658-4.4062-4.377l0.015625-0.033203zm24.32 0.35938c1.03 1.32 1.8904 3.3516 0.40039 4.6816-1.76-0.75-1.5404-3.4616-0.40039-4.6816zm53.451 1.8418-4.5918 5.2793 0.39063 0.33985 0.17968-0.21094h2.041v-0.51953h-1.5898l3.959-4.5391-0.38867-0.34961zm120 0.26953c1.63-0.26 4.1488 0.89914 3.7188 2.8691-1.59-0.1-3.7088-1.0291-3.7188-2.8691zm-145.4 1.0098h18.42c0.57 0 1.0391 0.46907 1.0391 1.0391v0.25976c0 0.57-0.46906 1.041-1.0391 1.041h-18.42c-0.57 0-1.041-0.47102-1.041-1.041v-0.25976c0-0.57 0.47102-1.0391 1.041-1.0391zm101.18 0h18.42c0.57 0 1.0391 0.46907 1.0391 1.0391v0.25976c0 0.57-0.46906 1.041-1.0391 1.041h-18.42c-0.57 0-1.041-0.47102-1.041-1.041v-0.25976c0-0.57 0.47101-1.0391 1.041-1.0391zm-180.02 0.59961c0.98 2 3.409 4.6402 1.209 6.6602-2.38-1.08-3.699-4.9702-1.209-6.6602zm68.17 0.46094c-1.23 0-2.2305 0.99852-2.2305 2.2285s1.0005 2.2305 2.2305 2.2305 2.2285-1.0005 2.2285-2.2305-0.99852-2.2285-2.2285-2.2285zm100.27 0.35547-0.46679 0.22852 2.9297 5.9688 0.4668-0.22852-2.9297-5.9688zm41.252 0.07422c-1.23 0-2.2305 1.0005-2.2305 2.2305s1.0005 2.2285 2.2305 2.2285 2.2305-0.99851 2.2305-2.2285c0-1.23-1.0005-2.2305-2.2305-2.2305zm64.854 1.8438c2.4668-0.15654 5.2893 2.6104 4.4668 5.0254-2.4-0.73-4.7102-2.2595-5.4902-4.7695 0.32625-0.15125 0.67104-0.2335 1.0234-0.25586zm-191.29 0.25586h0.25c0.55 0.03 0.97875 0.48906 0.96875 1.0391v0.01172l-2.4395 72.969c-0.02 0.55-0.4793 0.98094-1.0293 0.96094h-0.25c-0.55-0.03-0.9807-0.49102-0.9707-1.041l2.4395-72.969c0.02-0.55 0.48125-0.9807 1.0312-0.9707zm101.18 0h0.25c0.55 0.03 0.97875 0.48906 0.96875 1.0391v0.01172l-2.4394 72.969c-0.02 0.55-0.4793 0.98094-1.0293 0.96094h-0.25c-0.55-0.03-0.9807-0.49102-0.9707-1.041l2.4394-72.969c0.02-0.55 0.48125-0.9807 1.0312-0.9707zm-91.52 0.00976h0.25c0.55-0.03 1.0193 0.41094 1.0293 0.96094l2.4394 72.969c0.02 0.55-0.41875 1.0112-0.96875 1.0312h-0.25c-0.55 0.03-1.0112-0.41094-1.0312-0.96094l-2.4394-72.971c-0.02-0.55 0.4207-1.0093 0.9707-1.0293zm101.18 0h0.25c0.55-0.03 1.0193 0.41094 1.0293 0.96094l2.4395 72.969c0.02 0.55-0.40875 1.0112-0.96875 1.0312h-0.25c-0.55 0.03-1.0112-0.41094-1.0312-0.96094l-2.4395-72.971c-0.02-0.55 0.42071-1.0093 0.97071-1.0293zm-106.24 0.2793h0.25977c0.57 0 1.0391 0.47102 1.0391 1.041v72.609c0 0.57-0.46906 1.041-1.0391 1.041h-0.25977c-0.57 0-1.041-0.47102-1.041-1.041v-72.609c0-0.57 0.47102-1.041 1.041-1.041zm101.18 0h0.25977c0.57 0 1.041 0.47102 1.041 1.041v72.609c0 0.57-0.47101 1.041-1.041 1.041h-0.25977c-0.57 0-1.0391-0.47102-1.0391-1.041v-72.609c0-0.57 0.46906-1.041 1.0391-1.041zm-30.244 0.39844-0.49609 0.1543 1.6602 5.3691 0.4961-0.1543-1.6602-5.3691zm-112.76 0.77148c1.06 1.58 2.9308 4.1304 0.80078 5.6504-1.86-1.16-2.7708-4.1304-0.80078-5.6504zm71.85 0.35938-1.6621 3.1387 0.46094 0.24219 1.6602-3.1367-0.45898-0.24414zm-7.0332 0.58008-4.2969 7.9082 0.45703 0.24805 4.2949-7.9082-0.45507-0.24804zm117.04 1.041c1.83-0.27 5.3605 0.96985 4.0605 3.3398-1.63-0.54-4.3005-1.1298-4.0605-3.3398zm-165.33 0.48047c-1.23 0-2.2285 1.0005-2.2285 2.2305s0.99852 2.2305 2.2285 2.2305 2.2305-1.0005 2.2305-2.2305-1.0005-2.2305-2.2305-2.2305zm11.141 0c-1.23 0-2.2305 1.0005-2.2305 2.2305s1.0005 2.2305 2.2305 2.2305 2.2305-1.0005 2.2305-2.2305-1.0005-2.2305-2.2305-2.2305zm130.38 0.41992c-1.23 0-2.2305 1.0005-2.2305 2.2305s1.0005 2.2305 2.2305 2.2305 2.2285-1.0005 2.2285-2.2305-0.99852-2.2305-2.2285-2.2305zm11.139 0.00977c-1.23 0-2.2285 1.0005-2.2285 2.2305s0.99851 2.2305 2.2285 2.2305c1.23 0 2.2305-1.0005 2.2305-2.2305s-1.0005-2.2305-2.2305-2.2305zm-192.3 1.2812c0.35672-0.05766 0.6975-0.02664 1 0.06836 1.87 0.59 2.3191 2.2013 2.3691 3.1113 0.05 0.91-0.14938 1.7399-0.35938 2.4199l-0.58984-0.17969c-1.34-0.42-4.7207-1.5203-5.4707-1.8203 0.765-2.4525 1.9806-3.4266 3.0508-3.5996zm234.76 1.7383-0.39062 0.16016c0.07 0.42999 0.29101 1.7713 0.29101 2.1113-0.35 0.17-4.0307 1.1288-4.7207 1.2988v0.00977l-1.1699 0.30078c-2.02 0.51-5.7794 1.4495-6.3594 1.5195-0.27-0.5-0.70101-1.6988-0.79101-1.9688l-0.41993 0.0293c0.15 0.43 0.70039 2.4407 0.90039 3.2207 0.23 0.88 0.67977 2.8284 0.75977 3.3184l0.38086-0.17969c-0.07-0.43-0.26023-1.7301-0.24024-2.0801 0.87-0.28 3.8186-1.0687 5.0586-1.3887l0.5-0.13086c0.08 0.33 0.34008 1.1006 0.58008 1.8106-0.32 0.41-4.9195 7.0195-5.1895 8.5195l0.34961 0.81055c1.6-2.53 5.8512-6.9002 6.2812-7.2402 1.2 1.27 3.1084 2.0893 4.3184 1.7793 1.06-0.27 1.6215-1.089 1.7715-2.209 0.19-1.44-0.37985-3.7308-0.83985-5.5508l-1.0703-4.1406zm-126.63 0.06445c-4.892 0.35772-10.164 2.7805-14.951 1.8555-0.08 10.68-0.01101 21.361-0.04101 32.041-0.18 1.03 0.25031 1.6705 1.3203 1.7305v2.5293h-1.0293v4.7793l-4.9805 2.8301v5.1699l-4.1992 4.2012v5.7598h64.359v-5.7598l-4-4.2012v-5.1699h-0.00977l-5.4707-3.4199v-4.1992h-0.83008v-2.8301-0.01953c0.47 0.04 1.0797 0.0989 1.4297 0.1289 0.02-11.18 0.00172-22.359 0.01172-33.529-7.76 1.32-16.63-5.5506-23.4 0.85937-2.475-2.4412-5.2738-2.9705-8.209-2.7559zm16.857 1.4707c4.3597 0.33974 9.048 2.5152 13.311 2.1465-0.01 10.03-0.02 20.06 0 30.09-5.41-0.3-10.389 2.5492-15.799 2.1992-2.18-0.13-5.0009 0.26023-6.2109-2.0098-1.09 2.35-3.9598 1.8595-6.0898 2.0195-5.33 0.28-10.26-2.489-15.59-2.209 0.03-10.03 0.03-20.05 0-30.08l-0.01953-0.02148c6.88 0.42 14.429-5.0198 20.689-0.08984-2.31 1.52-3.3797 4.4201-1.6797 6.8301-1.57 2.02-3.1412 4.0498-4.7012 6.0898-1.37-1.27-2.7191-2.5494-4.0391-3.8594-2.46 0.41-4.9209 0.83102-7.3809 1.291 2.41 2.48 5.1014 4.6883 7.4414 7.2383-1.04 2.64-3.7212 4.6417-5.0312 7.2617 2.42-1.7 4.4912-3.8316 6.7812-5.6816 3.18 2.97 6.28 6.0505 9.5 8.9805 3.41-2.26 6.2899-5.6692 9.4199-8.4492 1.96 1.78 3.669 3.8098 5.709 5.5098-1.27-2.34-2.7985-4.52-4.2285-6.75 2.8-2.82 5.8089-5.4207 8.6289-8.2207-2.09-0.45-4.1893-0.87961-6.2793-1.3496-1.8 1.59-3.5911 3.2003-5.3711 4.8203-1.39-2.43-3.3791-4.6209-4.3691-7.2109 1.01-2.37 0.33047-4.9985-2.0195-6.2285 2.2162-2.0625 4.7123-2.5202 7.3281-2.3164zm-79.76 0.5957c-1.23 0-2.2285 1.0005-2.2285 2.2305s0.99852 2.2285 2.2285 2.2285c1.23 0 2.2305-0.99851 2.2305-2.2285s-1.0005-2.2305-2.2305-2.2305zm141.52 0.42969c-1.23 0-2.2305 1.0005-2.2305 2.2305 0 1.23 1.0005 2.2305 2.2305 2.2305 1.23 0 2.2285-1.0005 2.2285-2.2305 0-1.23-0.99852-2.2305-2.2285-2.2305zm-214.54 0.23046c0.46875-0.1 1.0112 0.04422 1.3262 0.44922 1.86 1.87 4.1505 5.1007 1.3105 7.2207-2-1.6-3.8293-3.9306-3.5293-6.6406l0.0097656-0.00976c0.02-0.575 0.41406-0.91954 0.88281-1.0195zm47.586 0.95899c0.68 1.38 2.3501 3.1998 0.83008 4.5898-1.64-0.74-2.5501-3.4298-0.83008-4.5898zm215.57 0.83984c0.84999 3.32-0.36961 4.8209-1.5996 5.1309-1.9 0.48-3.1304-0.65039-3.6504-1.4004s-0.78899-1.56-0.95899-2.25l0.59961-0.15039c1.36-0.35 4.8094-1.1801 5.6094-1.3301zm20.166 0.3711c1.8773 0.29437 3.3064 2.9339 4.0039 4.6289-0.26 0.29-0.77907 0.88188-1.0391 1.1719-2.26-1.08-3.9405-2.9314-4.9805-5.1914 0.715-0.545 1.3898-0.7075 2.0156-0.60937zm-46.32 0.67578c1.7023-0.10514 3.6527 1.8023 3.084 3.4648-1.66-0.51-3.2491-1.561-3.7891-3.291 0.225-0.10375 0.4619-0.15881 0.70508-0.17383zm-20.246 4.1133c-3.16-0.05-4.14 3.74-2.5 6-1.6 1.11-2.9503 2.6907-3.0703 4.7207-0.73 5.83-1.1895 12.401-5.9394 16.561 0.86 1.16 1.8897 2.1891 3.1797 2.8691 5.61-5.41 7.8402-13.089 8.4902-20.629 0.43 7.56 2.671 15.51 8.541 20.68 1.15-0.86 2.1294-1.9297 2.8594-3.1797-4.99-4.01-5.0592-10.851-5.9492-16.641l-0.02148 0.01953c-0.16-1.95-1.5798-3.3504-3.0898-4.4004 1.82-2.23 0.67999-6.13-2.5-6zm-143.56 0.46094c-1.51 0-2.7305 1.2205-2.7305 2.7305 0 1.03 0.57992 1.9189 1.4199 2.3789v26.17c-0.89 0.47-1.5 1.3909-1.5 2.4609 0 1.54 1.2488 2.7988 2.7988 2.7988 1.55 0 2.8008-1.2488 2.8008-2.7988 0-1.07-0.61-1.9909-1.5-2.4609h0.019531v-26.17c0.85-0.46 1.4199-1.3489 1.4199-2.3789 0-1.51-1.2185-2.7305-2.7285-2.7305zm-43.73 1.0195c0 0.24-0.27016 2.1498-0.41016 3.0898-0.1 0.69-0.35078 2.1912-0.55078 3.2012l0.42969-0.06054c0.13-0.36 0.42148-1.5592 0.52148-1.9492 0.36 0 0.97008 0.0682 1.5801 0.1582l1.0391 0.16016c0.98 0.15 1.6397 0.27156 1.9297 0.35156 0.31 0.89 0.21086 2.0586 0.13086 2.5586-0.64 4.23-5.1496 6.3296-8.3496 5.8496-3.13-0.47-5.3208-3.1291-4.8008-6.5391 0.49-3.19 1.9899-4.3908 2.6699-4.8008 0.46 0 1.1598 5.5e-4 1.8398 0.06055l0.30078-0.41016c-1.83-0.22-5.2698-0.95945-6.0098-1.1894l0.029297 0.4707c0.4 0.12 1.4695 0.49891 1.7695 0.62891-0.33 0.61-0.90016 2.6305-1.1602 4.3105-0.3 2-0.22906 4.03 0.71094 6l0.019532-0.00976c0.91 1.9 2.6812 3.5702 5.4512 3.9902 2.45 0.37 4.8783-0.72 6.4883-3 1.07-1.52 1.5405-3.7808 1.7305-5.0508 0.2-1.33 0.27937-3.9294 0.10937-5.1094-0.55-0.03999-1.5884-0.20054-2.3184-0.31054l-0.63086-0.08985c-0.55-0.08-1.8402-0.30015-2.1602-0.41015-0.03-0.45 0.041015-1.5602 0.041015-1.7402l-0.40039-0.16015zm14.762 1.5898c0.32375-0.06875 0.69797 0.03055 0.91797 0.31055 1.28 1.29 2.8604 3.5205 0.90039 4.9805-1.38-1.1-2.6397-2.7101-2.4297-4.5801v-0.00977c0.015-0.395 0.28758-0.63242 0.61133-0.70117zm100.13 1.2402c1.74 1.74 3.4794 3.4802 5.1894 5.2402-1.72 1.57-3.4594 3.1102-5.1894 4.6602-1.79-1.73-3.5718-3.4609-5.3418-5.2109 1.75-1.6 3.5518-3.1495 5.3418-4.6894zm95.348 0.26171c1.2942 0.20297 2.2817 2.0217 2.7617 3.1992-0.18 0.2-0.54094 0.60883-0.71093 0.79883-1.56-0.74-2.7195-2.0201-3.4395-3.5801 0.4925-0.375 0.95727-0.48562 1.3887-0.41797zm-174.11 1.2891 0.29102 25.189h2.9297c2.59-7.53 2.88-15.829 0-25.189h-3.2207zm11.73 0c-2.88 9.36-2.59 17.659 0 25.189h2.9297l0.29102-25.189h-3.2207zm189.05 0.82031-0.40039 0.14844c0.01 0.38 0.03 1.7016 0 2.1016v0.00976c-0.66 0.17-4.3207 0.69907-4.9707 0.78907l-1.1602 0.16015c-1.92 0.27-5.5587 0.75102-6.3887 0.79102-0.14-0.4-0.50055-1.711-0.56055-2.041l-0.41992-0.01953c0.12 0.58 0.41 2.3788 0.5 3.0488 0.17 1.22 0.40969 3.2612 0.42969 3.7012l0.40039-0.16015c-0.02-0.4-0.05977-1.5896-0.00977-2.0996 0.38-0.13 3.659-0.61094 6.209-0.96094l1.2207-0.16992c2.41-0.34 4.6896-0.62938 5.0996-0.60938 0.18 0.7 0.47054 1.6395 0.56054 2.0195l0.42969 0.04102c-0.09-0.33-0.36-2.0117-0.5-3.0117-0.22-1.55-0.42945-3.3583-0.43945-3.7383zm-268.49 0.41992c2.71 1.02 3.8991 5.3099 2.3691 7.6699-2.03-1.61-5.4291-5.6799-2.3691-7.6699zm286.45 1.7812c0.56625-0.01625 1.2087 0.25203 1.5137 0.70703 1.61 1.42 4.3116 3.9308 2.1816 6.0508-2.44-0.96-4.21-3.22-4.75-5.75 0-0.69 0.48844-0.99156 1.0547-1.0078zm-241.55 3.8984c1.87 0.7 2.6887 3.6691 1.6387 5.2891-1.4-1.11-3.7387-3.9191-1.6387-5.2891zm197.63 1.2226c0.39-0.01249 0.83297 0.17133 1.043 0.48633 1.11 0.98 2.9798 2.7097 1.5098 4.1797h-0.00977c-1.68-0.66-2.9015-2.2188-3.2715-3.9688 0-0.475 0.33851-0.68477 0.72851-0.69727zm-23.568 2.5762c-0.76 3.43-1.999 6.7416-2.709 10.182-0.44 1.75 0.46859 4.1984 2.5586 4.1484 2.19 0.22999 3.2415-2.3599 2.7715-4.1699-0.67-3.43-2.0711-6.6902-2.6211-10.16zm38.74 2.1816-2.1094 0.18945 0.58985 2.3106 2.1094-0.24024-0.58984-2.2598zm-259.99 2.7695c2.67-0.51 6.8311 4.8999 3.1211 5.9199-1.67-1.58-3.5611-3.3699-3.1211-5.9199zm290.03 1.1113c2.275 0.09679 4.7635 4.8525 2.3223 5.7188-1.57-1.35-3.7995-3.1312-3.2695-5.4512 0.30125-0.20125 0.62227-0.28141 0.94727-0.26758zm-244.43 0.08789c1.84-0.35 4.7104 3.3798 2.1504 4.0898-1.16-1.09-2.4604-2.3298-2.1504-4.0898zm200.09 0.76562c1.5682 0.06768 3.2874 3.3503 1.6074 3.9453-1.08-0.92999-2.6198-2.1598-2.2598-3.7598 0.2075-0.13875 0.42832-0.19522 0.65234-0.18555zm-113.82 2.4551c4.93 1.38 10.17 2.409 15.26 1.209 0.92-0.28 1.8903-0.28 2.8203 0 5.07 1.15 10.309 0.27984 15.229-1.1602v0.02148s0.07156-0.01148 0.10156-0.02148v2.4805h-33.432c0.06-0.94 0.12125-2.2798 0.03125-2.5098l-0.00976-0.01953zm-85.15 6.0332c1.5153 0.10637 2.4906 2.3892 2.1406 3.8066-1.67-0.27-2.9903-2.0409-2.8203-3.7109 0.23625-0.0825 0.46322-0.1109 0.67969-0.09571zm197.79 0.43555c2.22-0.31 3.4113 2.9903 2.3613 4.5703-1.57-0.73-2.7713-2.8203-2.3613-4.5703zm-116.21 0.69141h0.00977 40.279l4.8301 2.9297h-49.148l4.0293-2.9297zm-126.67 1.832c2.1953 0.15572 3.6023 3.4526 3.1035 5.5176-2.41-0.39-4.3398-2.9609-4.0898-5.3809 0.3425-0.11875 0.67272-0.15897 0.98633-0.13672zm253.62 0.24804-1.1387 9.75 15.289 1.7793 1.1797-10.07-2.8398-0.33008-0.75977 6.4902-3.6309-0.41993 0.68164-5.8105-2.8105-0.33008-0.67969 5.8106-3.1797-0.36915 0.71875-6.1699-2.8301-0.33008zm33.061 0.36915c3.22-0.45 4.9499 4.3309 3.4199 6.6308-2.28-1.07-4.0199-4.0909-3.4199-6.6308zm-248.38 4.541-8.4492 1.5293c-4.83 0.88-6.5305 3.5793-5.8105 7.5293 0.74 4.08 3.4101 6.1215 8.0801 5.2715v-0.01172l8.5-1.5391-0.63867-3.5293-8.7207 1.5801c-2.67 0.49-4.1209-0.31016-4.4609-2.1602-0.33-1.81 0.80992-3.071 3.4199-3.541l8.7207-1.5801-0.64062-3.5488zm8.0703 0.91016c1.73 0.59 2.8507 2.409 2.9707 4.209-1.43-0.13-2.2792-1.4894-3.1992-2.4394-0.57-0.47-0.82148-1.8495 0.22852-1.7695zm74.971 0.00976h51.561l4.0996 5.0488h-59.689l4.0293-5.0488zm120.78 1.209c1.98 0.36 2.5506 3.1006 1.8906 4.8105-1.86-0.37-2.7906-3.2105-1.8906-4.8105zm-240.27 5.8008c2.51 0.85 4.1305 3.4996 4.3105 6.0996-2.08-0.19-3.3106-2.161-4.6406-3.541-0.83-0.68-1.1899-2.6786 0.33008-2.5586zm250.21 0.17969-1.0215 3.6758 5.791 3.7031c1.55 0.99 3.1794 1.9618 4.8594 2.8418l-0.01954 0.06836c-1.95-0.15-3.7797-0.13961-5.6797-0.09961l-6.791 0.13086-1.0488 3.7988 16.199-0.8086 1.1191-4.0508-13.408-9.2598zm-1.0215 3.6758-0.00977-0.00586 0.00977 0.00976v-0.0039zm34.541-2.0859c2.87 0.52 3.6902 4.4907 2.7402 6.9707-2.7-0.53-4.0402-4.6507-2.7402-6.9707zm-237.3 0.77734c1.0594 0.20344 2.0341 1.1518 2.8066 1.8418 0.68 0.6 1.2601 2.59-0.16992 2.5-1.71-0.71-4.1405-2.0498-3.7305-4.2598h0.009765c0.3675-0.135 0.73086-0.14985 1.084-0.08204zm191.43 0.90235c1.66 0.41 2.3805 3.4901 1.0605 4.8301-1.67-0.46-2.1605-3.7301-1.0605-4.8301zm-197.87 5.8203-14.439 5.3594 1.1484 3.1016 4.3516-1.6113c2.36-0.87 4.38-1.6688 6.25-2.4688l0.048828 0.05859c-1.42 1.36-2.9187 3.0205-4.1387 4.4805l-4.3906 5.25 1.3105 3.541 14.439-5.3613-1.1504-3.0996-0.009766-0.00977-4.2207 1.5703c-2.16 0.8-4.0902 1.5895-5.9102 2.5195l-0.019531-0.07031c1.38-1.27 2.8508-2.8195 4.0508-4.2695l4.1387-5.0605-1.459-3.9297zm41.26 2.9004h25.35c0.55 0 1 0.45 1 1v0.25c0 0.55-0.45 1-1 1h-25.35c-0.55 0-1-0.45-1-1v-0.25c0-0.55 0.45-1 1-1zm101.19 0h25.34c0.55 0 1 0.45 1 1v0.25c0 0.55-0.45 1-1 1h-25.34c-0.55 0-1-0.45-1-1v-0.25c0-0.55 0.45-1 1-1zm52.07 0.41016c1.51 1.01 2.8411 5.1694 0.12109 5.4394-1.05-1.49-1.7911-4.2894-0.12109-5.4394zm-185.11 0.07812c2.0342 0.01135 4.4512 1.8481 3.8125 3.9219-2.11 0.11-4.3204-1.7006-4.6504-3.8106 0.265-0.0775 0.54728-0.11295 0.83789-0.11133zm-47.393 1.1524c1.837-0.12155 3.5313 1.555 4.8437 2.7188 0.99 0.86999 1.8198 3.7611-0.24023 3.6211-2.48-1.04-5.9984-2.9599-5.3984-6.1699 0.2675-0.0975 0.5325-0.15256 0.79492-0.16992zm278.21 1.3789c2.41 0.59 3.4491 5.0602 1.5391 6.9902-2.43-0.67-3.1391-5.4102-1.5391-6.9902zm-32.297 3.6758c-2.3927 0.20733-4.5766 1.591-5.8828 4.3535-2.01 4.24-0.19172 8.4714 3.9883 10.441 3.97 1.87 8.2612 0.85008 10.281-3.4199 1.98-4.2 0.56999-8.3715-4-10.521-1.44-0.67875-2.9511-0.97791-4.3867-0.85352zm-112.43 1.5938c-1.1 0-2.0609 0.2111-2.8809 0.6211s-1.4391 0.96039-1.8691 1.6504c-0.42 0.69-0.64063 1.4192-0.64063 2.1992 0 1.61 0.80063 2.7891 2.3906 3.5391-1.98 0.78-2.9609 2.2106-2.9609 4.3106 0 0.97999 0.23117 1.8702 0.70117 2.6602s1.1601 1.4094 2.0801 1.8594 2.0186 0.68164 3.3086 0.68164 2.33-0.23164 3.25-0.68164 1.6118-1.0791 2.0918-1.8691c0.47-0.8 0.70898-1.6899 0.70898-2.6699 0-0.66999-0.11007-1.2801-0.33007-1.8301s-0.55024-1.0292-0.99024-1.4492h0.00977c-0.44-0.42-0.97844-0.75172-1.6484-1.0117 0.78-0.38 1.3598-0.86875 1.7598-1.4688 0.39-0.6 0.58985-1.281 0.58985-2.041 0-0.6-0.10985-1.1592-0.33985-1.6992-0.22999-0.53-0.57101-1.0094-1.041-1.4394-0.47-0.42-1.05-0.76-1.75-1s-1.5094-0.36133-2.4394-0.36133zm-12.631 0.02149v0.00976c-0.37 0-0.61 0.06899-0.75 0.20899-0.13 0.14-0.41961 0.51109-0.84961 1.1211-0.44 0.61-0.94 1.1584-1.5 1.6484s-1.3198 0.96039-2.2598 1.4004c-0.63 0.3-1.0703 0.5407-1.3203 0.7207-0.25 0.19-0.36914 0.47891-0.36914 0.87891 0 0.34 0.12891 0.64039 0.37891 0.90039 0.24999 0.26 0.54109 0.39062 0.87109 0.39062 0.68 0 2.0102-0.75929 3.9902-2.2793v10.619c0 0.62 0.13969 1.0902 0.42969 1.4102s0.66867 0.48047 1.1387 0.48047c1.07 0 1.6016-0.78156 1.6016-2.3516v-13.359c0-0.56-0.12109-1.0003-0.37109-1.3203s-0.58023-0.47851-0.99023-0.47851zm27.08 0c-0.99 0-1.8498 0.14945-2.5898 0.43945-0.73 0.29-1.3403 0.68039-1.8203 1.1504s-0.84008 0.99985-1.0801 1.5898c-0.24 0.58-0.35937 1.1397-0.35937 1.6797 0 0.44 0.13086 0.78883 0.38085 1.0488 0.26 0.26 0.57876 0.39063 0.96876 0.39063 0.43999 0 0.77976-0.13993 1.0098-0.41993s0.44109-0.67922 0.62109-1.1992c0.18-0.51999 0.31063-0.84093 0.39063-0.96093 0.58-0.89 1.3884-1.3398 2.3984-1.3398 0.48 0 0.92984 0.11008 1.3398 0.33008s0.7307 0.51992 0.9707 0.91992c0.24 0.39 0.35938 0.83985 0.35938 1.3398 0 0.46-0.11008 0.93015-0.33008 1.4102s-0.54875 0.94039-0.96875 1.4004c-0.42 0.45-0.95984 0.90938-1.5898 1.3594-0.36 0.24-0.95102 0.74977-1.791 1.5098-0.83 0.76999-1.7688 1.6898-2.7988 2.7598-0.25 0.26-0.4814 0.6318-0.6914 1.0918s-0.31836 0.82937-0.31836 1.1094c0 0.44 0.15828 0.82063 0.48828 1.1406s0.78109 0.47851 1.3711 0.47851h8.5898c0.51 0 0.90039-0.13039 1.1504-0.40039 0.25-0.26 0.3789-0.58875 0.3789-0.96875 0-0.43-0.15851-0.76953-0.47851-1.0195s-0.78063-0.37109-1.3906-0.37109h-6.0898c0.19-0.3 0.39031-0.54977 0.57031-0.75977 0.43-0.53 1.2402-1.2705 2.4102-2.2305s2.01-1.6594 2.5-2.1094c0.5-0.45 0.98875-1.0694 1.4688-1.8594s0.7207-1.6709 0.7207-2.6309c0-0.61-0.10984-1.2093-0.33984-1.7793s-0.55094-1.0798-0.96094-1.5098c-0.41-0.44-0.88945-0.78125-1.4394-1.0312-0.84-0.37-1.8608-0.55859-3.0508-0.55859zm15.541 0v0.00976c-0.37 0-0.62 0.06899-0.75 0.20899s-0.41961 0.51109-0.84961 1.1211c-0.44 0.61-0.94 1.1584-1.5 1.6484s-1.3217 0.96039-2.2617 1.4004c-0.63 0.3-1.0684 0.5407-1.3184 0.7207-0.25 0.19-0.37109 0.47891-0.37109 0.87891 0 0.34 0.13086 0.64039 0.38086 0.90039s0.53914 0.39062 0.86914 0.39062c0.68 0 2.0102-0.75929 3.9902-2.2793v10.619c0 0.62 0.13969 1.0902 0.42969 1.4102s0.67063 0.48047 1.1406 0.48047c1.07 0 1.5996-0.78156 1.5996-2.3516v-13.359c0-0.56-0.12915-1.0003-0.36915-1.3203-0.24999-0.32-0.58023-0.47851-0.99023-0.47851zm64.27 0.64844c1.86 0.60999 2.4095 4.2798 0.76953 5.0898-1.61-1.08-1.3795-3.4798-0.76953-5.0898zm-175.5 0.75781c1.8412 0.21703 3.8024 1.373 3.0449 3.293-1.74-0.69-4.2702-1.0295-4.7402-3.1895 0.4825-0.1425 1.0816-0.17586 1.6953-0.10351zm192.86 0.67969c1.1275-0.1875 2.4356 0.05257 3.6856 0.64257 2.71 1.28 4.1396 3.4914 3.0996 5.6914-1.03 2.18-3.5708 2.5888-6.3008 1.2988-2.71-1.28-4.1298-3.509-3.0898-5.709 0.53-1.12 1.478-1.7363 2.6055-1.9238zm-111.54 0.13281c0.48 0 0.9093 0.11031 1.2793 0.32031s0.66109 0.49938 0.87109 0.85938c0.21 0.35999 0.30859 0.78023 0.30859 1.2402 0 0.34-0.05992 0.65945-0.16992 0.93945-0.12 0.28-0.28 0.53047-0.5 0.73047-0.21 0.21-0.46953 0.37047-0.76953 0.48047-0.3 0.12-0.63 0.17969-1 0.17969-0.72 0-1.3193-0.22016-1.7793-0.66016s-0.6914-0.99039-0.6914-1.6504c0-0.72 0.21992-1.2998 0.66992-1.7598h0.01172c0.45-0.45 1.0395-0.67969 1.7695-0.67969zm-88.764 3.1836-13.613 7.1777 1.6836 3.1934 13.613-7.1777-1.6836-3.1934zm228.59 2.5273c2.19 1.46 4.1199 7.4889 0.16992 7.8789-1.52-2.16-2.5999-6.2189-0.16992-7.8789zm-268.33 0.10743c2.9475 0.01627 6.4529 2.6804 5.5254 5.6816-3.07 0.15-6.2702-2.4595-6.7402-5.5195 0.38375-0.1125 0.79377-0.16444 1.2148-0.16211zm128.49 1.1621c0.56 0 1.0695 0.11937 1.5195 0.35937s0.79883 0.59102 1.0488 1.041 0.3711 0.97984 0.3711 1.5898-0.1211 1.1394-0.3711 1.6094l-0.00976-0.00977c-0.25 0.47-0.5893 0.82984-1.0293 1.0898s-0.9307 0.38086-1.4707 0.38086-1.019-0.13086-1.459-0.38086-0.78125-0.61031-1.0312-1.0703-0.3789-0.99961-0.3789-1.5996c0-0.95 0.27054-1.6907 0.81054-2.2207s1.2-0.78906 2-0.78906zm89.76 0.17968c1.54 0.85 1.6002 3.9001 0.24023 5.0801-1.67-0.63-2.3702-4.5001-0.24023-5.0801zm-166.09 0.70704c1.4798 0.15093 3.0734 0.80625 3.1484 2.3437-1.77 0.28-3.9093-0.54984-4.5293-2.3398 0.4075-0.0475 0.88758-0.05422 1.3809-0.0039zm-10.846 5.041c-1.4988 0.10301-3.0255 0.66086-4.4355 1.6621-3.58 2.53-4.8003 6.7809-2.0703 10.631 2.69 3.79 7.0109 4.5997 11.131 1.6797 3.47-2.45 4.8202-6.6802 1.9902-10.66-1.6937-2.3938-4.1173-3.4842-6.6152-3.3125zm172.04 1.5918c0.65 1.67 0.51008 3.6102-0.16992 5.2402h-0.00977c-0.28 0.76-1.6999 1.221-1.6699 0.04102-0.15-1.83-0.36039-4.6012 1.8496-5.2812zm13.859 0.15039-2 3 12.801 8.5508 5.5195-8.2617-2.4297-1.6191-3.5195 5.25-10.371-6.9199zm-170.72 0.28125c1.2567-0.11578 2.6448 0.8832 2.8848 2.1582-1.56 0.33-3.0588-0.46867-4.0488-1.6387 0.3425-0.3175 0.74516-0.48094 1.1641-0.51953zm-13.721 1.3633c1.1425-0.00375 2.1555 0.45531 2.8555 1.4453 1.43 2.02 0.28125 4.5094-1.9688 6.1094-2.44 1.73-5.0705 1.8902-6.4805-0.08985-1.39-1.96-0.50101-4.3789 1.959-6.1289 1.22-0.865 2.4923-1.3322 3.6348-1.3359zm218.66 1.7949c2.7 0.88 3.4891 6.2009 1.1191 7.3809-2.33-1.56-1.9991-5.0409-1.1191-7.3809zm-255.68 1.0586c2.9143-0.17212 6.9884 1.5673 5.7109 4.8223-2.52-1-6.1891-1.5009-6.8691-4.6309 0.35-0.10375 0.74188-0.16682 1.1582-0.19141zm200.71 2.6719c1.24 1.99 0.46101 4.8008-1.209 6.3008-2.09-1.39-1.431-5.8408 1.209-6.3008zm-143.12 0.88281c1.4002 0.09844 2.9509 0.60391 2.9434 2.0664-1.42 0.61-4.3105-0.35883-4.2305-2.0488 0.37-0.0375 0.82039-0.05039 1.2871-0.01758zm-8.6758 2.707-10.861 10.91 2.3398 2.3301 3.2715-3.291c1.77-1.78 3.2687-3.3494 4.6387-4.8594l0.070313 0.03125c-0.72 1.83-1.3889 3.9688-1.8789 5.7988l-1.7812 6.5996 2.6699 2.6602 10.861-10.91-2.3418-2.3301-3.1699 3.1914v0.00977c-1.63 1.64-3.0386 3.1595-4.3086 4.7695l-0.050781-0.05078c0.72-1.73 1.4109-3.7584 1.8809-5.5684l1.6387-6.3301-2.9785-2.9609zm164.23 0.25-2.8789 2.8301 1.4492 3.7598c0.43 1.11 0.79094 2.0094 1.2109 2.9394l-0.03124 0.03125c-0.99-0.44-1.7995-0.79023-2.9395-1.2402l-3.75-1.5-2.9297 2.8789 9.9492 2.9609 4.4199 4.5 2.5605-2.5098-4.5-4.5801-2.5605-10.07zm-148.58 3.3027c1.9912-0.17344 4.3547 0.2693 3.6797 2.4668-1.84-0.13-5.0319 0.32109-5.4219-2.1289 0.455-0.1525 1.0784-0.28008 1.7422-0.33789zm128.36 0.74804c0.94 1.48 0.08024 3.7685-1.5098 4.4785-0.76-1.49-0.21023-4.1585 1.5098-4.4785zm56.32 1.0488c2.24 1.24 2.3296 5.6513 0.34961 7.3613-2.41-0.92-3.4296-6.5213-0.34961-7.3613zm-240.73 1.0195c2.1445 0.22172 4.4578 1.1706 4.5703 3.3906-2.57 0.41-5.6603-0.79868-6.5703-3.3887 0.59-0.0675 1.2852-0.07586 2-0.00196zm65.359 3.4941c0.8075 0.08875 1.5201 0.40633 1.8301 1.2363-0.88 1.56-3.2594 0.85977-4.6094 0.25977h-0.009766c-0.94-0.27-0.14133-1.1394 0.38867-1.3594 0.69-0.085 1.5929-0.22546 2.4004-0.13672zm111.71 0.54883c0.87363 0.12866 0.27594 1.8085-0.03906 2.4473v0.01172c-0.39 0.79-1.1607 2.7884-2.2207 1.8184 0.1-1.52 0.74102-3.1185 1.791-4.2285 0.19-0.0525 0.34394-0.06721 0.46875-0.04883zm12.301 3.6289-2.8496 2.209 9.4102 12.18 7.8594-6.0703-1.7891-2.3086-5 3.8594-7.6309-9.8691zm-115.98 1.002c1.2275 0.14875 2.2639 0.81789 2.0039 2.0879-1.61 0.07-4.6184 1.0494-5.1484-1.0605 0.5-0.805 1.917-1.1761 3.1445-1.0274zm94.549 0.48242c0.23362-0.03789 0.48813-0.02406 0.76563 0.05469-0.08 1.98-1.4088 3.8793-3.2988 4.5293 0.28875-1.4788 0.89791-4.3188 2.5332-4.584zm65.676 0.46485c0.95 2.41 0.74 5.2298-0.25 7.5898-0.4 1.1-2.4697 1.7606-2.4297 0.06055-0.21-2.65-0.52031-6.6704 2.6797-7.6504zm-227.34 0.61719c1.823-0.16875 3.8327 1.278 4.1777 3.123-2.26 0.48-4.4391-0.68109-5.8691-2.3711 0.4975-0.46 1.0838-0.6957 1.6914-0.75195zm55.541 1.8379c-1.883-0.3586-3.4577 0.49687-4.2227 1.7344-0.58 0.93-0.74078 2.1702-0.55078 3.1602l-0.048828 0.08008c-2.03-0.18-3.8206 0.42039-4.8906 2.1504-1.13 1.82-0.85984 4.5989 2.4102 6.6289 1.6 1 3.1299 1.2702 4.4199 1.1602 0.1 0.55 0.20078 1.0105 0.30078 1.4805l3.5488 2.2012c-0.3-1.4-0.54906-2.731-0.78906-4.041 2.01-0.55 3.7401-1.8203 5.3301-3.5703l-2.7305-1.6894c-0.9 1.05-2.0711 1.9907-3.1211 2.4707v-0.02148c-0.25-1.07-0.48-2.5296-0.75-3.8496l0.070312-0.06055c2.43 0.25 3.93-0.37922 4.75-1.6992 1.17-1.88 0.32023-4.0498-1.7598-5.3398-0.6775-0.42-1.3391-0.67539-1.9668-0.79492zm21.26 0.71875c0.71584-0.01881 1.3282 0.27578 1.6582 1.1758-1.1 1.18-4.821 2.6094-5.291 0.18945 0.95625-0.43125 2.4398-1.3339 3.6328-1.3652zm77.617 0.44531c-0.66 1.79-1.6999 3.7498-3.6699 4.3398-1.01-0.1-0.47078-1.1396-0.05078-1.5996 0.94-1.2 1.9007-3.0902 3.7207-2.7402zm20.512 0.77148c-1.1433 0.12422-2.4309 0.6443-3.9609 1.5293-1.66 0.95-3.0802 1.9299-3.9902 2.6699l7.5801 13.16 3.0898-1.7793-3.0195-5.25 0.93945-0.54101c1.28-0.71 2.129-0.60063 3.459 0.85937 1.35 1.41 2.31 2.3108 2.75 2.5508l3.1914-1.8398c-0.56-0.36-1.991-1.8594-3.291-3.1094-1.05-1.03-2.0993-1.6114-3.2793-1.4414l-0.00977 0.00976-0.03124-0.05859c0.94999-1.1 1.521-2.9814 0.54101-4.6914-0.71-1.23-1.6911-1.8986-2.8711-2.0586-0.3525-0.0475-0.71657-0.05117-1.0977-0.00977zm-119.26 0.42188c0.19594 0.02125 0.39484 0.08703 0.58984 0.20703 0.8 0.5 0.76086 1.4112 0.38086 2.0312-0.47 0.76-1.2797 0.95-2.6797 1-0.2-1.01-0.16-1.7912 0.25-2.4512 0.315-0.51 0.87117-0.85086 1.459-0.78711zm30.096 1.9453c0.84282-0.11391 1.8174 0.18485 1.4648 1.1523-1.21 1.19-3.2112 1.4089-4.7812 0.87891-0.1-1.26 1.7103-1.3091 2.5703-1.7891 0.1975-0.12 0.46516-0.20422 0.74609-0.24219zm58.555 0.43164c-0.4 1.44-2.0309 4.3302-3.7109 3.2402 1.01-1.27 1.8709-3.1402 3.7109-3.2402zm30.223 0.2832c0.57125 0.0825 1.0512 0.41735 1.4062 1.0274 0.67 1.17 0.19086 2.4498-1.3691 3.3398h0.00976l-1.2305 0.71094-2.1192-3.6816c0.2-0.17 0.59961-0.48016 1.3496-0.91016 0.72-0.4 1.3819-0.56883 1.9531-0.48633zm-79.619 1.4942c0.4639-0.02032 0.92094 0.06796 1.3359 0.29296-0.91 1.62-2.989 2.05-4.709 2 0.5325-1.2 1.9813-2.232 3.373-2.293zm40.186 0.18359c-0.17 1.84-1.8793 2.8793-3.2793 3.7793v0.00976c-0.63 0.54-1.7802 0.06039-1.4102-0.84961 0.99-1.62 2.6795-3.0794 4.6895-2.9394zm-83.91 0.58008c0.35 1.89 0.72055 3.7598 1.0605 5.0898-0.63 0.12-1.4695 0-2.2695-0.5-1.38-0.86-1.6507-2.3512-0.9707-3.4512 0.53-0.85 1.3797-1.0987 2.1797-1.1387zm111.65 0.59961-9.0898 3.6894 5.791 14.27 9.3984-3.8184-1.0801-2.6406-6.0488 2.4492-1.3809-3.3789 5.4297-2.2012-1.0684-2.6191-5.4199 2.1894-1.2012-2.959 5.75-2.3301-1.0801-2.6504zm-58.154 0.03515c0.75188-0.01312 1.493 0.51493 0.85547 1.2949h-0.01172c-1 1.07-3.0791 2.9405-4.3691 1.4805 0.12-1.38 1.7103-2.0603 2.8203-2.5703 0.2025-0.135 0.45446-0.2007 0.70508-0.20508zm112.67 0.23438c1.81 2.88 0.67023 6.9609-1.7598 9.1309-3.03-2.01-2.0702-8.4709 1.7598-9.1309zm-102.36 0.14062c0.5875 0.09375 1.015 0.41508 0.75 1.0801v0.00977c-1.4 1.31-3.5193 3.2902-5.5293 2.2402-0.23-1.58 1.9503-2.2908 3.0703-3.0508 0.375-0.24 1.1215-0.37305 1.709-0.2793zm9.9707 0.00977c0.06 1.83-1.9402 3.6102-3.7402 2.9902 0.68-1.56 2.0702-2.6802 3.7402-2.9902zm-115.08 1.125c2.0297 0.14344 4.2806 0.87914 4.2656 2.9941-2.06 0.88-6.2509-0.50875-6.1309-2.9688 0.535-0.055 1.1887-0.0732 1.8652-0.02539zm63.896 0.44531-5.0508 14.25c0.72 0.38 1.9198 0.91977 3.5898 1.5098 2.98 1.06 4.9694 1.2295 6.3594 0.76953 1.19-0.4 2.1804-1.2093 2.6504-2.5293 0.66-1.87-0.15899-3.5709-1.709-4.6309l0.01954-0.03906c1.9 0 3.1103-0.93047 3.5703-2.2305 0.47-1.31 0.05898-2.5705-0.79102-3.4805-0.87-1.01-2.0689-1.6487-4.1289-2.3887l-0.02149 0.01953c-1.69-0.6-3.5383-1.11-4.4883-1.25zm75.459 3.2891-3.4902 0.84961 1.4102 5.75-5.7598 1.4004-1.4004-5.75-3.5 0.84961 3.6406 14.961 3.5098-0.84961-1.5293-6.2598 5.7598-1.4004 1.5195 6.25 3.4902-0.84961-3.6504-14.951zm-72.859 0.07032c0.3 0.06 0.74047 0.16968 1.4805 0.42968 1.53 0.54 2.1986 1.4312 1.8086 2.5312l-0.00976-0.00976c-0.38 1.08-1.5891 1.4484-3.3691 0.81836l-1.1113-0.38868 1.2012-3.3808zm12.529 1.6211-2.9805 14.889 3.4902 0.70117 1.1914-5.9316 1.0586 0.21094c1.43 0.31 2.001 0.95992 2.041 2.9199 0.09 1.95 0.21891 3.2605 0.37891 3.7305l3.6113 0.71875c-0.18-0.64-0.27992-2.7098-0.41992-4.5098-0.12-1.47-0.52148-2.6002-1.5215-3.2402v-0.06836c1.45-0.2 3.1198-1.2399 3.5098-3.1699 0.28-1.39-0.01883-2.5414-0.79883-3.4414-0.93999-1.07-2.4905-1.7294-4.8105-2.1894h0.00976c-1.87-0.38-3.5898-0.57914-4.7598-0.61914zm44.09 1.959-12.17 1.1406 0.28125 2.9199 4.25-0.40039 1.1582 12.41 3.5918-0.33985-1.1602-12.41 4.3184-0.41016-0.26953-2.9102zm-21.809 0.69922c-4.69-0.22-7.8916 3.0912-8.1016 7.7012-0.2 4.38 2.4013 7.9499 7.1113 8.1699 4.64 0.21 7.9399-2.7002 8.1699-7.7402 0.2-4.24-2.2997-7.9009-7.1797-8.1309zm-19.262 0.35156c0.26 0 0.76109 0.03899 1.6211 0.20899 1.61 0.35 2.4499 1.2311 2.1699 2.6211v0.00977c-0.26 1.32-1.4805 1.9594-3.2305 1.6094l-1.3906-0.27929 0.83008-4.1699zm-70.469 0.60743c2.4404 0.07832 4.6816 0.96758 3.8691 3.6113-2.66-0.19-7.2894 0.45991-7.8594-3.0801 0.99-0.33375 2.526-0.57825 3.9902-0.53125zm52.879 0.48242 1.1602 0.41015c1.69 0.6 2.8403 1.6592 2.3203 3.1192v0.00976c-0.54 1.53-2.0989 1.6106-3.6289 1.0606-0.58-0.21-0.98078-0.34977-1.3008-0.50977l1.4492-4.0898zm131.71 0.62891c1.37 2.15 0.12055 5.4602-2.1894 6.4902-1.1-2.16-0.31055-6.0202 2.1894-6.4902zm-95.09 0.6914c2.47 0.11 3.7294 2.5486 3.6094 5.3086-0.14 2.99-1.6306 5.1608-4.0605 5.0508-2.4-0.11-3.7689-2.3006-3.6289-5.3106 0.14-2.99 1.6501-5.1588 4.0801-5.0488zm-77.475 7.3711c1.1687 0.12874 2.1995 0.58906 2.6445 1.7891-1.28 2.26-4.7295 1.2489-6.6895 0.3789h0.009765c-1.36-0.39-0.2014-1.6507 0.55859-1.9707 1-0.125 2.3078-0.32601 3.4766-0.19726zm161.93 0.80273c1.264 0.19072 0.39742 2.6184-0.04883 3.5547h-0.00976c-0.56 1.14-1.6807 4.0406-3.2207 2.6406 0.15-2.2 1.0696-4.5309 2.5996-6.1309 0.275-0.075 0.49912-0.0917 0.67968-0.06445zm-151.66 6.6875c2.2694-0.18975 4.7379 0.74883 4.2754 3.0488-2.33 0.11-6.7007 1.529-7.4707-1.541 0.54375-0.87375 1.8337-1.394 3.1953-1.5078zm138.41 0.73437c0.33916-0.05427 0.70883-0.03101 1.1113 0.08399-0.11 2.86-2.051 5.6186-4.791 6.5586 0.41125-2.1438 1.3056-6.2626 3.6797-6.6426zm-123.01 5.2539c1.0364-0.02783 1.9201 0.39797 2.3926 1.6992-1.59 1.71-6.9802 3.7812-7.6602 0.28125 1.3875-0.625 3.5402-1.9341 5.2676-1.9805zm111.57 0.61523c0.29332-0.03021 0.6036-0.01757 0.9336 0.04493-0.96 2.6-2.4606 5.4391-5.3106 6.2891-1.46-0.14-0.67008-1.6606-0.08008-2.3106 1.19-1.5312 2.4038-3.8119 4.457-4.0234zm-98.58 4.5957c1.2197-0.16406 2.633 0.26547 2.123 1.668-1.75 1.73-4.6497 2.0512-6.9297 1.2812-0.14-1.83 2.4705-1.8996 3.7305-2.5996 0.285-0.1725 0.66961-0.29492 1.0762-0.34961zm84.873 0.61914c-0.57 2.09-2.9391 6.2692-5.3691 4.6992 1.47-1.84 2.7092-4.5492 5.3691-4.6992zm-71.59 2.5723c0.67359-0.02843 1.3389 0.10024 1.9414 0.42774-1.32 2.34-4.3401 2.9804-6.8301 2.9004 0.765-1.7475 2.8679-3.2428 4.8887-3.3281zm58.25 0.28711c-0.25 2.67-2.7198 4.1705-4.7598 5.4805-0.91 0.79-2.5791 0.0893-2.0391-1.2207 1.44-2.34 3.8788-4.4598 6.7988-4.2598zm-44.096 1.7422c1.0898-0.02062 2.1588 0.74641 1.2363 1.8789-1.45 1.55-4.4698 4.2584-6.3398 2.1484 0.17-2 2.4701-2.9785 4.0801-3.7285 0.295-0.1975 0.66015-0.29195 1.0234-0.29883zm14.967 0.55274c0.85125 0.1375 1.4701 0.60617 1.0801 1.5762-2.03 1.89-5.0998 4.76-8.0098 3.25-0.32999-2.28 2.8192-3.3219 4.4492-4.4219 0.545-0.35 1.6292-0.54179 2.4805-0.40429zm14.449 0.00585c0.08 2.65-2.8099 5.2301-5.4199 4.3301 0.98-2.26 2.9899-3.8801 5.4199-4.3301z"/>
</svg>