<?xml version="1.0" standalone="no"?>
<!DOCTYPE svg PUBLIC "-//W3C//DTD SVG 20010904//EN"
 "http://www.w3.org/TR/2001/REC-SVG-20010904/DTD/svg10.dtd">
<svg version="1.0" xmlns="http://www.w3.org/2000/svg"
 width="225.000000pt" height="225.000000pt" viewBox="0 0 225.000000 225.000000"
 preserveAspectRatio="xMidYMid meet">
<metadata>
Created by potrace 1.16, written by Peter Selinger 2001-2019
</metadata>
<g transform="translate(0.000000,225.000000) scale(0.100000,-0.100000)"
fill="#000000" stroke="none">
<path d="M996 2239 c-402 -55 -737 -304 -897 -667 -78 -177 -110 -381 -89
-559 34 -285 143 -508 341 -698 172 -164 368 -263 594 -300 360 -59 717 57
975 315 545 544 394 1455 -297 1799 -189 94 -432 137 -627 110z m44 -17 c0
-19 -47 -50 -85 -57 l-40 -7 25 27 c14 15 34 31 45 35 26 11 55 12 55 2z m77
-17 c-15 -14 -36 -25 -45 -25 -9 0 -28 -3 -42 -6 -24 -5 -24 -4 8 25 24 23 41
31 70 31 l37 -1 -28 -24z m113 17 c0 -4 -6 -14 -12 -21 -7 -8 -1 -6 14 4 20
12 38 15 60 11 18 -4 49 -9 68 -12 62 -9 68 -13 45 -31 l-20 -16 20 8 c40 16
70 16 90 1 20 -14 19 -15 -9 -26 -27 -10 -77 -6 -101 8 -5 3 -25 7 -44 9 -45
5 -49 10 -25 28 10 8 15 14 9 14 -5 0 -19 -6 -29 -14 -20 -15 -77 -20 -90 -8
-4 4 -28 6 -54 5 l-47 -3 28 26 c27 24 97 36 97 17z m-304 -41 c-23 -24 -82
-48 -92 -38 -2 2 10 18 26 35 21 23 38 32 61 32 l33 0 -28 -29z m-92 -19 c-9
-17 -32 -34 -53 -41 -20 -7 -49 -19 -66 -26 -16 -7 -37 -15 -45 -17 -8 -2 -17
-5 -20 -8 -18 -19 -63 -40 -73 -34 -7 4 -9 4 -5 -1 6 -7 -55 -58 -71 -60 -2 0
-18 -13 -34 -28 -24 -22 -32 -25 -40 -15 -7 10 -8 9 -4 -3 4 -11 -13 -34 -44
-65 -28 -27 -67 -70 -87 -96 -25 -33 -38 -44 -44 -35 -14 22 -8 54 15 83 l22
29 6 -35 6 -35 2 41 c0 25 9 52 22 68 25 32 36 33 42 4 3 -17 5 -14 6 10 1 39
49 92 63 70 6 -10 8 -10 8 1 0 16 38 61 52 61 4 0 8 -10 9 -22 1 -18 3 -16 10
9 14 47 69 83 69 46 0 -11 6 -6 16 14 9 19 28 36 46 42 27 10 29 9 23 -12 -5
-18 -3 -17 10 5 16 29 44 48 70 48 13 0 14 -4 4 -22 -7 -14 2 -8 23 15 20 21
45 37 57 37 22 0 22 -1 5 -28z m741 -24 c27 -12 32 -24 13 -31 -7 -2 -1 -2 14
0 14 2 41 -3 60 -13 l33 -17 -35 -12 c-29 -10 -40 -10 -65 3 -16 8 -32 18 -35
21 -3 4 -25 13 -50 20 l-45 13 30 13 c38 17 49 18 80 3z m-467 -40 c18 -18 15
-45 -7 -65 -18 -18 -18 -19 6 -56 15 -24 30 -37 41 -35 10 2 35 38 59 83 57
109 72 108 93 -5 8 -47 19 -91 23 -97 6 -10 -1 -13 -27 -13 -19 0 -38 5 -41
10 -3 6 -1 10 5 10 6 0 10 10 8 23 -2 17 -11 23 -36 25 -35 4 -57 -23 -31 -38
21 -14 9 -16 -56 -12 -59 3 -61 5 -85 45 l-25 42 -3 -35 c-2 -19 1 -36 7 -38
28 -9 6 -22 -36 -22 -35 1 -44 3 -32 10 22 13 14 149 -10 167 -13 10 -2 12 60
13 45 0 80 -5 87 -12z m-220 -56 c2 -13 -2 -30 -8 -38 -10 -11 -9 -14 7 -14
42 0 58 -53 26 -82 -17 -15 -105 -48 -127 -48 -6 0 -6 4 1 11 13 13 -29 148
-49 160 -8 5 -4 11 12 17 14 5 32 12 40 15 8 3 33 5 55 4 33 -2 41 -6 43 -25z
m605 6 c17 -8 27 -21 27 -35 0 -32 -18 -38 -26 -8 -7 27 -38 50 -54 40 -18
-11 -11 -30 25 -69 38 -42 40 -48 25 -76 -20 -37 -46 -42 -94 -21 -38 18 -43
24 -39 46 7 33 15 31 33 -8 9 -20 24 -33 38 -35 38 -6 38 24 -2 68 -39 43 -45
70 -20 94 19 19 51 20 87 4z m257 -5 l24 -17 -30 -13 -29 -13 32 5 c32 6 93
-16 93 -34 0 -5 -13 -11 -29 -13 -22 -3 -46 7 -100 43 -39 26 -65 50 -58 52
26 11 74 6 97 -10z m-113 -65 c31 -19 34 -24 18 -26 -11 -1 -28 -16 -37 -33
-17 -29 -17 -30 0 -25 9 3 30 8 45 12 18 4 26 11 23 20 -7 18 -2 18 34 -1 41
-21 38 -30 -10 -30 -21 -1 -43 -4 -47 -8 -3 -4 -9 -33 -11 -65 -6 -84 5 -89
103 -46 76 33 105 37 105 14 0 -6 -18 -43 -40 -82 -23 -39 -39 -77 -36 -85 9
-22 -9 -15 -39 17 -22 23 -25 30 -12 30 9 0 21 8 26 19 8 14 5 23 -13 40 -19
18 -25 19 -41 7 -10 -7 -15 -18 -11 -24 4 -7 2 -12 -3 -12 -6 0 -16 9 -23 21
-7 11 -28 29 -46 41 -22 13 -30 23 -22 28 7 4 10 25 8 51 l-3 44 -23 -25 c-13
-14 -21 -33 -18 -42 5 -23 5 -23 -41 5 -31 18 -34 23 -18 25 23 3 99 118 91
138 -7 19 -4 18 41 -8z m-959 0 c20 -20 13 -27 -23 -21 -21 3 -41 1 -50 -7
-13 -11 -13 -15 0 -41 17 -31 45 -30 45 2 0 28 13 23 34 -12 18 -31 18 -31 -3
-24 -11 3 -27 2 -35 -2 -13 -7 -12 -13 7 -36 27 -35 52 -28 69 18 13 37 28 37
28 0 0 -18 -14 -32 -59 -59 -65 -40 -73 -42 -65 -22 7 18 -65 134 -86 139 -17
4 86 76 111 76 8 1 20 -4 27 -11z m1195 -39 c38 -21 47 -45 20 -52 -10 -3 -4
-5 13 -6 35 -1 89 -50 65 -59 -9 -3 -3 -9 17 -17 17 -8 35 -23 42 -34 9 -19 8
-21 -14 -21 -14 0 -42 14 -62 32 -32 28 -34 33 -18 39 18 7 18 8 -1 9 -11 0
-49 28 -85 60 l-65 60 33 0 c18 0 43 -5 55 -11z m-1332 -156 c70 -67 61 -78
-45 -58 -43 8 -81 15 -84 15 -3 0 12 -18 33 -40 21 -22 47 -40 57 -40 17 0 17
-1 2 -25 -18 -28 -40 -34 -30 -8 8 20 -79 113 -106 113 -24 0 -23 16 2 33 20
14 53 12 140 -9 24 -5 23 -4 -9 30 -19 20 -44 36 -55 36 -18 0 -18 2 5 26 l24
25 6 -23 c3 -13 30 -47 60 -75z m804 67 c400 -126 624 -534 513 -934 -34 -125
-92 -220 -198 -326 -72 -72 -114 -105 -175 -137 -201 -105 -414 -118 -625 -39
-294 110 -490 390 -490 702 0 211 68 381 214 532 103 108 219 175 366 213 103
26 294 21 395 -11z m-1105 -133 c0 -10 -7 -32 -16 -49 -12 -24 -18 -28 -25
-17 -14 22 -10 62 7 88 13 18 18 20 25 10 5 -8 9 -22 9 -32z m1811 8 c13 -5
39 -45 39 -60 0 -2 -16 2 -36 8 -20 8 -44 26 -55 44 l-20 32 28 -8 c15 -5 35
-12 44 -16z m-1876 -145 c-12 -25 -32 -74 -44 -110 -12 -36 -24 -72 -27 -80
-4 -11 -9 -9 -19 10 -17 31 -19 64 -4 92 11 21 12 21 26 -3 l14 -24 -8 25
c-17 57 4 125 28 90 7 -11 8 -6 4 18 -5 23 -2 41 11 60 l18 27 12 -30 c10 -26
9 -36 -11 -75z m1922 64 c21 -13 40 -51 30 -60 -11 -11 -59 22 -77 53 l-20 34
22 -6 c13 -4 33 -13 45 -21z m64 -116 c6 -16 9 -31 6 -34 -9 -9 -65 27 -70 45
-3 9 -8 24 -12 34 -7 17 -6 17 28 1 21 -10 41 -29 48 -46z m32 -92 c5 -15 6
-30 3 -33 -12 -13 -60 33 -72 70 l-13 37 37 -23 c19 -13 40 -36 45 -51z
m-1916 -6 c10 -26 16 -30 50 -30 l38 -1 -28 -25 c-26 -22 -28 -27 -18 -56 15
-43 15 -42 -23 -18 -22 13 -37 17 -41 10 -3 -5 -15 -15 -27 -21 -19 -10 -20
-9 -13 22 7 29 4 36 -21 56 l-29 23 27 0 c31 0 58 23 58 51 0 29 14 23 27 -11z
m1733 -12 c0 -13 11 -20 41 -24 l41 -7 -32 -20 c-19 -12 -29 -25 -26 -34 4 -8
9 -27 13 -41 l6 -27 -32 28 -33 27 -28 -20 c-38 -27 -41 -25 -25 14 14 34 14
35 -18 60 l-32 26 42 0 c37 0 42 3 52 33 9 25 14 29 21 17 5 -8 10 -23 10 -32z
m-1917 -80 c-11 -51 -14 -54 -28 -28 -15 27 -19 68 -9 95 10 25 44 -37 37 -67z
m2117 22 c6 -10 10 -28 10 -40 0 -20 -1 -20 -27 -4 -26 16 -25 15 5 -14 23
-22 32 -40 32 -63 0 -26 -3 -30 -12 -21 -25 25 -28 10 -4 -19 24 -29 34 -68
20 -82 -3 -3 -18 8 -31 24 -21 24 -25 37 -20 69 3 21 1 42 -3 47 -4 4 -10 28
-13 53 -4 25 -11 60 -16 78 l-10 32 30 -20 c16 -12 34 -30 39 -40z m-2130
-117 c0 -41 -14 -49 -34 -18 -16 25 -22 76 -9 89 12 12 43 -38 43 -71z m-25
-46 c9 -14 14 -45 14 -84 -1 -33 2 -71 6 -84 7 -22 7 -23 -11 -9 -34 26 -43
44 -44 79 0 33 0 34 20 16 11 -10 20 -14 20 -8 0 5 -9 18 -20 28 -12 11 -20
31 -20 52 0 39 13 43 35 10z m2175 -113 c5 -12 6 -32 3 -43 -5 -21 -6 -21 -26
-4 -19 17 -19 16 2 -19 17 -29 21 -46 16 -70 l-8 -32 -23 29 c-12 16 -20 33
-17 38 3 5 5 45 5 90 l-1 82 20 -25 c11 -14 24 -35 29 -46z m-2173 -71 c11
-10 23 -35 27 -56 l7 -38 -26 17 c-26 17 -45 51 -45 80 0 19 13 18 37 -3z
m276 -30 c4 -23 -3 -37 -44 -80 -27 -28 -49 -54 -49 -56 0 -11 86 15 96 28 16
22 21 19 26 -15 5 -31 -1 -37 -18 -20 -6 6 -36 2 -84 -10 -41 -11 -78 -20 -82
-20 -19 0 -4 27 50 88 l57 65 -39 -7 c-56 -11 -86 -24 -87 -38 -1 -15 -17 21
-18 40 -1 9 6 11 19 7 28 -9 141 15 147 31 8 22 20 16 26 -13z m1712 13 c55
-23 66 -63 44 -153 -9 -34 -14 -41 -21 -30 -4 9 -40 23 -79 32 -58 13 -74 13
-86 3 -14 -11 -15 -10 -10 7 3 11 8 31 12 45 14 55 29 81 54 95 33 18 44 18
86 1z m165 -116 c0 -25 -15 -58 -23 -50 -2 3 -10 14 -16 25 l-13 20 8 -20 c13
-39 16 -65 10 -90 -8 -32 -20 -32 -32 2 -6 19 -4 49 11 109 l19 83 18 -27 c10
-15 18 -38 18 -52z m-2107 -12 c2 -18 3 -34 2 -36 -1 -2 -17 9 -34 23 -22 19
-31 35 -31 57 l0 29 29 -20 c18 -13 30 -32 34 -53z m23 -85 c19 -44 18 -46
-16 -28 -33 17 -50 43 -50 75 0 20 1 20 26 3 15 -9 33 -32 40 -50z m1822 -5
c3 -26 7 -28 46 -28 23 0 47 5 54 12 15 15 15 6 0 -27 -10 -22 -17 -25 -60
-25 -26 0 -48 -4 -48 -8 0 -13 48 -32 65 -26 19 8 19 3 -2 -41 -16 -33 -39
-51 -27 -21 7 18 -119 79 -147 71 -19 -6 -19 -3 7 47 37 73 43 79 78 76 25 -2
32 -8 34 -30z m198 -44 c4 -22 2 -46 -6 -62 l-13 -27 -13 32 c-10 24 -11 39
-3 62 14 41 27 39 35 -5z m-1732 17 c3 -5 -23 -37 -59 -72 -36 -34 -65 -68
-65 -76 0 -24 -16 -13 -33 23 -13 25 -14 35 -5 31 7 -2 21 2 30 11 15 13 16
17 3 42 -11 21 -20 27 -35 23 -11 -3 -20 -12 -20 -21 0 -20 -15 -5 -24 23 -5
19 0 20 98 23 59 2 107 -1 110 -7z m-291 -12 c15 -7 37 -39 62 -92 22 -45 42
-84 46 -87 3 -3 21 -27 39 -55 51 -75 185 -204 273 -261 l77 -51 -36 -6 c-37
-6 -94 14 -94 33 0 5 12 11 28 13 17 3 11 5 -18 6 -67 2 -120 44 -67 54 13 3
8 5 -15 6 -25 1 -46 9 -60 23 l-23 23 30 6 30 7 -31 1 c-30 1 -84 34 -84 51 0
5 10 11 23 13 18 4 18 4 -6 6 -28 1 -77 40 -77 61 0 6 11 8 28 5 16 -3 12 1
-13 10 -41 16 -65 39 -65 63 0 9 7 12 23 8 12 -3 9 0 -9 8 -35 17 -49 32 -58
64 -7 20 -5 21 19 12 17 -7 24 -7 20 0 -3 6 -11 10 -17 10 -19 0 -58 42 -58
62 0 21 2 21 33 7z m1987 -110 c0 -32 -14 -59 -31 -59 -15 0 -16 56 -1 87 18
39 32 27 32 -28z m-1619 -5 c33 -43 41 -59 33 -72 -18 -28 -31 -24 -26 8 2 17
0 30 -6 30 -21 0 -123 -92 -118 -106 10 -27 -9 -13 -38 27 -26 38 -27 41 -8
35 16 -5 35 4 74 35 29 23 53 47 53 53 0 6 -13 13 -30 16 -28 5 -29 6 -10 18
11 6 23 12 26 12 4 0 26 -25 50 -56z m1419 -52 c14 -5 31 -7 39 -4 9 3 7 -6
-8 -26 -26 -37 -47 -53 -38 -29 10 26 -31 33 -55 9 -16 -16 -18 -23 -9 -40 7
-14 17 -19 27 -15 14 5 15 3 5 -15 -15 -28 -31 -37 -31 -18 0 9 -20 49 -45 89
-28 44 -43 80 -40 89 6 15 13 14 68 -7 34 -13 73 -28 87 -33z m154 -37 c-4
-11 -14 -28 -23 -38 -15 -18 -16 -17 -23 15 -5 25 -1 41 15 67 l21 35 8 -30
c4 -16 5 -38 2 -49z m-357 1 c-3 -8 14 -40 39 -71 24 -32 44 -64 44 -72 0 -22
-55 -73 -79 -73 -12 0 -39 22 -68 55 -27 31 -56 55 -68 55 -16 0 -13 5 15 30
39 33 52 37 44 15 -7 -17 63 -111 89 -120 22 -8 47 11 47 35 0 27 -79 123 -96
116 -22 -8 -16 10 9 27 28 20 30 20 24 3z m-1117 -18 c28 -20 44 -48 19 -32
-13 7 -101 -89 -109 -120 -5 -18 -8 -17 -40 13 -19 18 -27 30 -18 27 21 -6
121 101 114 121 -7 18 0 16 34 -9z m1404 -89 c-23 -26 -31 -24 -37 8 -4 19 3
37 22 62 l26 35 3 -43 c2 -30 -2 -49 -14 -62z m-1266 -12 c40 -37 25 -119 -28
-150 -64 -38 -130 -2 -130 70 0 46 22 81 63 98 36 15 64 9 95 -18z m1200 -64
l-23 -25 -6 29 -7 28 -1 -33 c-1 -21 -10 -42 -28 -60 l-28 -27 -6 30 c-5 27 1
37 55 93 l61 63 3 -37 c3 -27 -3 -43 -20 -61z m-382 50 c20 -27 17 -32 -15
-20 -32 12 -59 5 -68 -19 -8 -21 15 -88 39 -114 23 -24 66 -26 75 -4 7 19 -10
50 -26 46 -25 -5 -8 16 25 32 33 15 36 15 30 1 -3 -9 -1 -26 5 -38 10 -18 7
-25 -20 -49 -43 -39 -92 -38 -132 1 -52 52 -35 135 34 165 41 18 38 19 53 -1z
m-712 -33 c14 -5 26 -17 27 -27 0 -10 8 -43 18 -73 l17 -55 17 49 c13 37 14
53 6 63 -14 16 -9 16 27 3 24 -9 25 -12 11 -23 -9 -7 -27 -43 -40 -82 -13 -39
-30 -70 -37 -70 -8 0 -21 29 -32 70 -28 105 -28 105 -49 41 -14 -44 -16 -62
-8 -72 14 -17 11 -17 -31 -2 -28 9 -31 12 -15 18 25 9 70 137 54 157 -14 16
-1 17 35 3z m261 -137 c10 -49 22 -94 28 -100 7 -10 0 -13 -32 -13 -38 0 -56
13 -30 22 7 2 9 13 4 27 -5 18 -13 22 -38 19 -34 -3 -50 -34 -25 -49 9 -6 2
-9 -19 -9 -30 0 -45 14 -24 22 5 2 25 37 46 78 34 69 50 89 66 90 3 0 14 -39
24 -87z m136 73 c-10 -12 -8 -69 5 -133 6 -31 39 -30 69 3 l25 27 0 -30 c0
-29 -3 -31 -47 -37 -27 -4 -64 -10 -83 -13 -31 -5 -34 -4 -22 10 19 22 6 156
-16 165 -13 4 -12 7 4 13 10 4 32 8 48 8 23 1 26 -2 17 -13z m559 -69 c-23
-20 -35 -25 -40 -17 -5 8 -9 5 -12 -8 -8 -29 -57 -60 -68 -42 -6 9 -9 8 -14
-7 -7 -22 -52 -50 -63 -39 -12 12 20 59 55 79 31 18 32 18 26 0 -4 -13 -2 -12
8 4 7 12 40 42 73 67 l60 45 3 -27 c3 -20 -4 -34 -28 -55z m-1120 -66 l35 -19
-39 -7 c-42 -8 -87 2 -93 22 -2 6 8 13 24 16 15 2 30 4 33 5 3 1 21 -7 40 -17z
m905 -41 c-9 -17 -27 -35 -41 -40 -39 -15 -46 -12 -33 13 8 15 2 12 -17 -10
-16 -18 -42 -35 -58 -39 -25 -6 -27 -5 -18 12 18 34 48 55 102 69 3 1 21 9 40
18 19 8 36 14 38 12 2 -2 -4 -17 -13 -35z m-812 3 c9 -3 17 -10 17 -15 0 -5 4
-7 9 -4 5 3 26 0 47 -8 l39 -14 -37 -16 c-29 -12 -43 -13 -69 -4 -29 10 -30
12 -15 24 15 10 11 11 -22 7 -28 -4 -47 0 -62 10 l-23 16 34 9 c19 6 41 8 49
5 8 -3 23 -8 33 -10z m642 -57 c-28 -36 -44 -46 -77 -46 -20 0 -20 1 -3 28 17
26 16 25 -17 -5 -25 -24 -43 -33 -68 -33 l-35 1 33 29 c27 25 58 35 95 30 1
-1 20 6 42 14 57 21 59 20 30 -18z m-408 -2 l62 -7 -26 -20 c-25 -20 -85 -28
-99 -14 -4 4 1 14 12 22 15 12 11 12 -18 -1 -28 -13 -45 -15 -70 -7 l-33 9 30
17 c17 9 41 15 55 12 14 -3 53 -8 87 -11z m215 -35 c-20 -18 -43 -29 -62 -29
-35 0 -37 6 -13 34 18 21 18 21 -7 0 -33 -28 -56 -35 -88 -27 l-26 6 27 22
c23 18 42 21 115 22 l87 2 -33 -30z M1027 2094 c-4 -4 -7 -20 -7 -36 0 -25 4
-29 23 -26 17 2 22 10 22 33 0 29 -22 45 -38 29z M1228 2029 c-17 -29 -17 -29
7 -29 17 0 25 6 25 18 0 36 -15 41 -32 11z M797 2044 c-9 -9 14 -65 26 -61 18
6 31 33 24 51 -6 15 -38 22 -50 10z M820 1961 c0 -28 21 -61 39 -61 26 0 34
15 27 46 -5 19 -13 24 -36 24 -17 0 -30 -4 -30 -9z M1783 1773 c-36 -18 -40
-25 -19 -42 13 -11 19 -6 50 47 9 15 9 15 -31 -5z M975 1835 c-322 -70 -558
-349 -573 -675 -6 -139 14 -237 72 -355 77 -154 183 -262 331 -335 114 -56
190 -73 320 -74 134 0 205 17 335 81 266 130 431 439 391 732 -41 309 -268
558 -568 625 -85 19 -224 20 -308 1z m274 -6 c78 -13 102 -29 46 -29 -78 0
-169 -31 -301 -100 -73 -39 -201 -97 -286 -129 -84 -32 -161 -62 -172 -66 -35
-15 2 35 93 125 171 169 386 238 620 199z m35 -162 c42 -28 23 -32 -33 -8 -63
27 -68 26 -34 -3 24 -21 26 -27 18 -52 -22 -63 -186 -112 -267 -80 -23 9 -42
15 -43 13 0 -1 -9 -15 -19 -31 -18 -29 -9 -28 27 2 9 8 17 11 17 6 0 -12 -78
-63 -157 -103 -83 -42 -128 -83 -149 -136 -16 -42 -16 -48 0 -90 10 -25 27
-52 39 -61 21 -15 18 -16 -43 -10 -82 8 -230 37 -230 45 1 3 49 32 108 64 79
44 114 69 135 98 15 22 48 53 74 69 56 36 46 40 -14 5 l-43 -24 0 29 c0 40 82
127 159 167 55 29 61 31 70 15 9 -14 10 -11 11 15 0 22 8 38 26 52 40 32 50
25 14 -9 -21 -19 -30 -36 -26 -46 3 -9 6 -19 6 -23 0 -14 59 -41 90 -41 47 0
104 19 136 46 l29 24 -37 -15 c-44 -18 -51 -19 -43 -5 5 7 -3 8 -22 3 -41 -11
-73 -7 -90 10 -24 24 -7 35 44 29 l48 -5 -23 19 c-16 13 -21 25 -16 38 6 16
17 18 109 14 76 -2 108 -8 129 -21z m357 -48 c38 -39 69 -75 69 -80 0 -5 -10
-9 -22 -10 -13 0 -43 -6 -68 -13 l-45 -12 -59 53 c-32 28 -78 60 -102 70 -24
10 -44 21 -44 25 0 6 25 12 125 32 65 13 76 8 146 -65z m-351 -185 c49 -20
113 -97 86 -102 -17 -4 -22 -27 -7 -36 5 -3 18 -24 30 -46 l21 -40 -38 0 c-53
0 -68 -11 -51 -39 16 -24 59 -29 59 -6 0 8 5 15 10 15 11 0 12 -6 4 -37 -5
-18 -11 -22 -30 -17 -12 3 -40 0 -61 -7 -21 -7 -41 -12 -44 -11 -4 1 -9 -11
-12 -26 -4 -22 -3 -24 6 -11 16 21 70 41 99 37 35 -5 18 -23 -22 -23 -26 0
-35 -5 -38 -19 -3 -16 0 -18 25 -11 50 13 58 11 61 -17 3 -24 0 -26 -35 -26
-21 1 -72 -3 -113 -7 -83 -8 -115 1 -156 47 -20 22 -40 109 -27 121 3 3 16 -1
29 -10 31 -20 41 -10 21 21 -19 28 -72 68 -80 60 -3 -3 -3 -32 0 -64 5 -50 3
-61 -11 -66 -37 -14 -113 121 -85 151 5 5 9 -7 10 -30 1 -35 2 -37 9 -15 l8
25 1 -26 c1 -33 24 -64 40 -55 11 7 10 35 -6 89 -3 12 0 17 9 15 8 -2 30 15
49 36 34 40 24 41 -18 3 -16 -14 -42 -22 -80 -25 -32 -2 -64 -9 -70 -14 -15
-12 -17 -32 -3 -23 22 14 8 -14 -15 -29 -30 -20 -41 -21 -26 -2 7 8 11 23 9
32 -5 27 67 63 112 57 26 -4 42 1 60 16 l25 21 -30 -15 c-27 -12 -36 -12 -72
0 -23 8 -50 12 -60 9 -12 -4 -9 3 10 20 19 18 38 25 62 24 22 -1 43 6 56 18
16 14 21 15 17 4 -2 -8 -15 -21 -29 -27 -17 -9 -19 -13 -7 -13 21 0 50 28 45
44 -2 6 -14 10 -26 9 -29 -4 -26 5 7 18 80 31 198 32 272 3z m-385 -114 c-3
-6 -21 -17 -38 -26 l-32 -15 30 25 c30 26 51 34 40 16z m933 -212 c-4 -126
-25 -228 -57 -276 -10 -17 -104 -29 -284 -38 -119 -6 -135 -9 -118 -21 11 -7
41 -43 66 -80 l47 -67 -24 -21 c-14 -11 -46 -35 -71 -52 -26 -18 -47 -38 -47
-45 0 -10 2 -10 9 0 5 9 29 12 82 10 l74 -3 -65 -32 c-114 -55 -157 -66 -287
-71 -180 -7 -306 27 -441 120 -53 37 -142 117 -142 129 0 4 20 15 45 25 55 21
111 15 208 -22 52 -20 75 -36 104 -71 l37 -45 18 22 18 22 77 -20 c43 -12 110
-26 148 -33 40 -6 75 -18 83 -27 10 -14 12 -13 12 9 0 13 12 51 25 84 14 33
25 74 25 90 0 35 -31 89 -59 105 -17 9 -21 20 -20 63 0 50 2 53 50 90 28 21
49 45 49 56 0 15 10 20 49 25 63 8 142 49 266 135 55 39 106 70 113 71 11 0
13 -26 10 -132z m-928 97 c0 -15 -12 -35 -30 -52 -16 -14 -30 -32 -30 -39 0
-7 -12 -26 -26 -43 -20 -24 -23 -34 -15 -48 10 -16 10 -16 11 3 0 12 6 27 14
33 8 6 19 25 26 42 16 38 24 32 10 -7 -6 -16 -10 -29 -8 -30 2 0 -2 -7 -8 -15
-6 -8 -8 -27 -4 -44 l6 -30 8 32 c12 51 31 58 32 12 1 -25 -2 -37 -9 -32 -7 4
-8 -6 -4 -31 7 -43 -10 -46 -30 -5 -7 13 -13 17 -13 9 0 -9 -6 -6 -16 9 -13
18 -18 20 -25 10 -6 -10 -9 -7 -9 11 0 38 -16 57 -23 29 -12 -44 3 -67 59 -95
61 -30 87 -54 59 -54 -10 0 -26 -6 -34 -13 -13 -11 -56 -13 -203 -9 l-187 4
-15 47 c-20 62 -36 145 -29 151 2 3 87 6 189 8 l184 3 15 53 c12 42 24 59 58
84 23 17 43 31 45 32 1 0 2 -11 2 -25z m122 -130 c9 4 20 -8 31 -32 13 -29 14
-34 2 -19 -8 11 -15 18 -15 15 0 -8 48 -174 56 -193 6 -15 4 -17 -6 -11 -8 5
-5 -5 6 -21 28 -40 36 -64 21 -64 -7 0 7 -19 31 -41 47 -45 56 -61 16 -30 -47
37 -80 26 -156 -47 l-47 -46 -58 55 c-32 31 -77 68 -99 83 l-41 27 52 55 53
55 54 -19 c29 -11 62 -23 73 -27 11 -4 3 5 -18 21 -26 19 -36 33 -31 43 19 47
22 86 7 133 -9 31 -12 65 -8 86 l6 35 29 -31 c16 -18 35 -30 42 -27z m268
-359 c14 -14 12 -28 -2 -21 -7 4 -5 0 5 -9 25 -20 40 -87 27 -121 l-10 -27
-41 54 c-23 29 -58 71 -78 92 -20 21 -30 36 -23 32 15 -9 15 -6 -3 38 -18 44
-12 48 10 6 24 -47 51 -39 46 13 -1 9 5 20 13 23 10 4 16 18 16 35 0 16 6 38
13 49 10 18 12 8 15 -67 2 -48 7 -92 12 -97z M1200 1354 c-23 -14 -23 -14 -2
-9 28 8 29 -11 0 -21 -20 -6 -19 -7 11 -20 19 -8 42 -14 52 -14 18 0 19 -1 3
-25 -9 -14 -14 -28 -12 -31 3 -2 13 7 22 21 9 14 23 25 31 25 7 0 21 10 29 22
17 24 22 53 7 44 -5 -3 -22 1 -37 9 -36 19 -72 19 -104 -1z M940 1344 c21 -9
44 -12 60 -8 l25 7 -30 7 c-16 4 -43 8 -60 8 l-30 1 35 -15z M1292 1203 c-17
-30 -15 -37 4 -19 8 9 14 22 11 29 -2 7 -8 4 -15 -10z M846 1159 c-14 -17 -26
-40 -25 -52 0 -21 1 -20 10 3 6 14 22 37 36 53 15 15 22 27 16 27 -6 0 -23
-14 -37 -31z M1930 940 c-16 -30 -7 -36 74 -55 56 -12 71 -13 78 -3 11 18 10
23 -10 48 -14 18 -32 24 -74 28 -50 4 -57 2 -68 -18z M1867 764 c-14 -14 -6
-31 20 -43 30 -14 47 -3 41 25 -3 19 -47 32 -61 18z M317 741 c-25 -5 -27 -8
-14 -25 13 -17 14 -17 43 8 30 26 24 29 -29 17z M1796 549 c16 -31 37 -34 42
-7 2 10 -8 20 -27 26 l-31 11 16 -30z M648 403 c-33 -36 -48 -66 -48 -97 0
-56 58 -45 95 17 27 48 31 77 13 95 -18 18 -32 15 -60 -15z M1028 247 c-17
-35 -17 -36 3 -42 27 -9 28 -7 20 39 l-6 39 -17 -36z"/>
</g>
</svg>
