<?xml version="1.0" standalone="no"?>
<!DOCTYPE svg PUBLIC "-//W3C//DTD SVG 20010904//EN"
 "http://www.w3.org/TR/2001/REC-SVG-20010904/DTD/svg10.dtd">
<svg version="1.0" xmlns="http://www.w3.org/2000/svg"
 width="384.000000pt" height="386.000000pt" viewBox="0 0 384.000000 386.000000"
 preserveAspectRatio="xMidYMid meet">
<metadata>
Created by potrace 1.16, written by Peter Selinger 2001-2019
</metadata>
<g transform="translate(0.000000,386.000000) scale(0.100000,-0.100000)"
fill="#000000" stroke="none">
<path d="M1620 3840 c-138 -23 -203 -41 -335 -90 -266 -100 -547 -280 -733
-469 -257 -261 -466 -676 -528 -1046 -24 -138 -24 -462 0 -600 44 -267 198
-638 344 -829 84 -111 203 -244 280 -314 131 -117 432 -296 622 -370 118 -46
328 -88 556 -112 86 -9 129 -8 285 10 279 32 395 67 685 205 108 52 181 95
255 151 243 183 509 507 606 737 102 242 144 385 164 562 16 137 16 388 0 519
-31 263 -136 546 -288 774 -234 351 -421 515 -822 716 -156 79 -318 129 -517
160 -141 22 -434 20 -574 -4z m574 -6 c199 -31 361 -81 517 -160 399 -201 580
-358 812 -706 152 -228 257 -511 288 -774 16 -131 16 -382 0 -519 -20 -177
-62 -320 -164 -562 -43 -103 -94 -184 -211 -338 -191 -252 -393 -422 -640
-540 -290 -138 -406 -173 -685 -205 -156 -18 -199 -19 -285 -10 -228 24 -438
66 -556 112 -187 73 -490 252 -618 367 -74 66 -191 197 -274 307 -146 191
-300 562 -344 829 -24 138 -24 462 0 600 61 367 270 783 523 1041 220 224 592
440 898 520 203 54 531 71 739 38z M1793 3683 c-30 -6 -75 -55 -90 -98 -14
-40 2 -100 34 -133 24 -25 95 -46 124 -37 90 27 136 106 104 180 -32 77 -86
105 -172 88z m59 -14 c30 -16 48 -70 48 -143 0 -59 -3 -67 -25 -82 -59 -38
-105 15 -105 120 0 58 3 70 25 91 28 28 29 29 57 14z M2071 3669 c1 -8 -1 -56
-5 -107 -7 -80 -11 -95 -32 -111 l-23 -18 32 -6 c17 -3 47 -9 65 -13 21 -4 32
-3 32 5 0 6 -6 11 -14 11 -12 0 -13 12 -9 58 3 31 7 59 9 61 9 10 44 -34 44
-56 0 -12 4 -23 9 -23 10 0 26 128 17 137 -3 4 -6 1 -6 -6 0 -15 -25 -41 -39
-41 -6 0 -11 21 -11 50 0 46 2 50 24 50 31 0 76 -36 76 -61 0 -10 5 -19 10
-19 6 0 10 17 10 39 l0 38 -57 7 c-32 4 -75 9 -96 13 -30 4 -38 3 -36 -8z
M1470 3630 c-24 -8 -24 -8 -2 -9 18 -1 22 -7 23 -33 1 -21 3 -26 6 -13 3 10
12 29 20 42 14 21 14 23 -3 22 -11 -1 -30 -5 -44 -9z M1325 3590 c-27 -10 -44
-19 -37 -19 21 -2 114 -94 128 -128 17 -40 18 -80 2 -86 -7 -2 -10 -8 -5 -12
4 -5 35 1 70 12 51 18 58 23 40 28 -30 10 -53 78 -41 124 5 18 7 35 5 38 -3 2
-8 -10 -12 -27 l-7 -32 -44 43 c-45 44 -53 64 -31 72 36 15 -25 3 -68 -13z
M2412 3582 c17 -44 -34 -189 -71 -204 l-26 -10 35 -13 c53 -20 67 -19 45 5
-13 14 -15 23 -7 32 5 7 18 42 27 78 9 36 18 66 19 68 2 1 27 -55 57 -125 l54
-127 39 122 c33 104 42 122 60 123 19 1 18 2 -4 9 -41 13 -47 11 -43 -12 2
-13 -4 -47 -15 -77 l-18 -54 -39 93 c-33 80 -43 95 -72 106 -47 20 -53 18 -41
-14z M1109 3501 l-95 -47 18 -40 c10 -21 16 -31 13 -21 -6 23 21 77 38 77 8 0
34 -44 60 -97 44 -91 46 -98 30 -115 -9 -10 -11 -18 -5 -18 21 0 121 54 116
62 -3 5 -10 6 -15 2 -17 -10 -40 18 -84 105 -35 71 -40 88 -29 99 19 17 37 15
68 -9 30 -23 30 -23 15 20 -6 17 -16 31 -22 30 -7 0 -55 -22 -108 -48z M2744
3461 c-2 -44 -93 -165 -128 -169 -25 -3 -19 -9 63 -68 49 -35 94 -64 99 -64 4
0 19 12 33 26 l24 27 -38 -7 c-43 -8 -102 8 -110 28 -3 8 8 33 25 55 25 35 33
40 45 29 9 -7 13 -23 11 -40 -6 -40 6 -35 42 18 34 49 34 62 0 44 -11 -6 -30
-8 -40 -5 -19 6 -19 8 5 39 14 18 25 38 25 44 0 7 5 12 10 12 6 0 10 -4 10
-10 0 -5 7 -10 15 -10 20 0 45 -52 38 -81 l-6 -24 27 24 c14 14 26 28 26 32 0
7 -163 129 -172 129 -1 0 -3 -13 -4 -29z M905 3369 c-20 -14 -23 -19 -10 -15
16 5 33 -6 70 -44 56 -57 57 -56 -74 -39 -81 11 -89 11 -126 -9 l-40 -21 33
-1 c28 0 38 -8 80 -66 26 -37 53 -73 61 -81 12 -12 12 -19 3 -34 -20 -32 10
-23 44 12 26 27 27 30 8 27 -15 -2 -37 15 -78 60 -32 34 -52 62 -45 62 8 0 61
-9 119 -20 118 -22 133 -24 128 -11 -1 5 -32 44 -68 87 -36 44 -67 87 -70 96
-5 16 -7 16 -35 -3z M2960 3298 c0 -18 -13 -84 -29 -145 -16 -62 -26 -113 -23
-113 2 0 56 29 118 65 72 41 120 63 131 59 11 -3 7 4 -11 20 l-30 25 -10 -22
c-10 -19 -116 -91 -123 -83 -2 2 6 38 19 80 19 67 24 75 43 70 13 -3 4 9 -25
35 -25 22 -48 41 -52 41 -5 0 -8 -15 -8 -32z M1820 3304 c-209 -24 -330 -56
-475 -124 -126 -60 -207 -117 -376 -265 -150 -132 -230 -256 -326 -505 -70
-181 -87 -262 -86 -425 0 -352 86 -621 283 -884 82 -109 164 -189 305 -298 61
-47 312 -168 385 -186 182 -44 303 -59 420 -53 287 15 484 75 717 218 190 116
410 370 501 578 112 255 148 541 102 809 -24 139 -48 213 -115 356 -99 211
-232 370 -448 534 -148 112 -372 206 -550 230 -90 13 -285 21 -337 15z m337
-25 c108 -14 194 -41 335 -104 131 -59 251 -143 387 -271 l76 -72 -50 -7 c-27
-4 -80 -15 -117 -25 -52 -14 -68 -15 -68 -6 0 38 -122 169 -156 169 -14 0 -19
18 -29 104 -7 52 -8 53 -48 63 -23 6 -50 13 -59 16 -9 3 -45 -9 -80 -27 -59
-30 -69 -32 -156 -30 -60 1 -99 -2 -108 -10 -8 -6 -14 -8 -14 -3 0 4 -11 -3
-25 -16 -32 -30 -31 -47 1 -91 l25 -34 -35 -3 c-20 -2 -45 4 -59 12 -22 15
-33 14 -137 -9 -62 -14 -128 -34 -146 -46 -29 -17 -44 -20 -96 -14 -40 4 -183
-5 -388 -24 -179 -16 -326 -28 -328 -27 -4 4 182 164 266 229 95 73 286 166
402 194 77 19 174 36 270 47 52 6 247 -2 337 -15z m307 -152 c55 -14 58 -19
69 -119 l7 -58 -64 0 c-59 0 -67 3 -119 43 -31 23 -60 51 -65 63 -9 18 -6 23
24 37 37 18 39 17 24 -16 -10 -20 -9 -20 2 -3 19 29 56 66 65 66 4 0 30 -6 57
-13z m-214 -54 c0 -5 -26 -8 -57 -7 -50 1 -51 0 -10 -3 29 -3 47 -9 47 -17 0
-7 24 -38 53 -68 59 -64 104 -82 201 -81 43 1 62 5 68 17 8 15 12 15 39 -1 16
-10 41 -35 56 -55 24 -35 43 -54 27 -25 -25 42 -54 72 -87 92 -22 12 -35 25
-29 29 25 15 152 -122 152 -166 0 -30 -58 -58 -115 -56 l-50 1 45 6 c40 6 36
7 -40 12 -48 4 -112 16 -147 28 -35 12 -67 20 -73 16 -5 -3 -55 18 -110 46
-103 53 -173 116 -186 167 -8 30 23 67 43 51 7 -6 13 -17 13 -24 0 -24 58 -92
106 -124 36 -23 55 -30 75 -26 18 4 41 -1 66 -14 45 -22 177 -52 225 -50 l33
2 -30 4 c-83 10 -193 36 -227 54 -26 13 -49 18 -67 14 -53 -11 -158 82 -176
158 l-7 27 81 0 c45 0 81 -3 81 -7z m-279 -133 c17 -10 19 -22 19 -113 0 -56
-7 -138 -15 -181 -8 -44 -13 -86 -11 -95 3 -9 10 -35 16 -58 10 -41 13 -43 70
-61 l59 -18 -45 -52 c-39 -45 -51 -52 -82 -52 -34 0 -39 4 -65 49 l-27 49 26
114 c38 163 38 176 15 231 -11 26 -23 47 -25 47 -3 0 4 -21 14 -46 46 -107 3
-182 -115 -197 l-30 -4 33 -2 c18 0 51 8 74 20 28 14 39 17 36 7 -3 -7 -11
-44 -19 -81 -11 -60 -17 -71 -43 -85 -17 -9 -51 -19 -76 -23 l-45 -6 38 -2
c21 0 52 6 70 15 29 16 32 16 42 -1 5 -9 36 -57 67 -105 47 -71 56 -92 50
-114 -7 -25 -8 -25 -31 20 -19 36 -37 52 -81 74 -51 26 -234 83 -242 75 -2 -2
-2 54 0 123 3 117 5 129 26 152 13 14 29 36 35 50 10 21 10 22 -1 6 -31 -45
-57 -70 -65 -62 -4 5 -2 11 5 13 7 3 17 14 23 26 10 21 9 21 -5 3 -8 -10 -22
-16 -30 -13 -12 5 -13 2 -6 -19 6 -14 10 -72 10 -129 l0 -104 -28 8 c-53 16
-198 22 -267 12 -38 -6 -70 -9 -72 -7 -1 1 4 40 12 87 13 72 19 87 45 109 17
14 30 32 30 40 0 21 134 127 208 165 31 17 80 45 108 63 36 22 84 40 155 56
128 29 117 28 140 16z m65 -57 c8 -21 22 -69 30 -108 9 -38 17 -72 20 -74 11
-11 -10 88 -31 152 l-23 68 26 -3 c24 -3 28 -9 39 -58 6 -30 12 -87 12 -125 1
-43 7 -78 15 -91 8 -11 16 -31 18 -44 2 -14 3 16 4 65 0 73 -1 82 -8 46 -13
-75 -21 -60 -16 35 4 99 19 130 51 112 13 -7 15 -13 7 -29 -7 -13 -7 -25 0
-38 5 -11 7 -32 4 -48 -3 -15 -1 -39 5 -53 8 -21 9 -17 5 20 l-6 45 23 -45
c18 -33 30 -46 49 -47 l25 -2 -25 7 c-19 6 -32 24 -52 72 -31 76 -30 71 -19
88 6 11 21 7 71 -18 34 -17 71 -30 81 -27 15 4 17 -1 14 -32 -2 -20 -9 -49
-14 -65 -9 -22 -15 -26 -34 -21 -19 5 -20 5 -4 -5 13 -9 22 -9 32 0 10 8 20 8
32 2 15 -9 12 -15 -30 -58 -46 -45 -48 -46 -62 -28 -11 13 -15 15 -13 4 2 -8
8 -18 13 -22 7 -5 7 -8 0 -8 -19 0 -33 15 -38 40 -2 14 -3 8 -2 -12 3 -35 1
-38 -24 -38 -19 0 -31 7 -39 23 -6 12 -11 16 -11 10 -1 -7 8 -22 19 -33 11
-11 20 -31 20 -45 0 -49 -110 -77 -174 -45 -46 23 -60 91 -41 196 8 44 15 124
15 177 0 105 10 121 36 60z m84 -42 c0 -45 -6 -37 -14 19 -4 31 -3 40 4 30 5
-8 10 -30 10 -49z m-500 20 c23 -7 19 -10 -40 -39 -76 -37 -230 -158 -230
-180 0 -9 -14 -27 -30 -41 -27 -23 -33 -38 -46 -116 -11 -63 -12 -96 -5 -111
7 -17 6 -24 -3 -27 -17 -7 -40 -100 -32 -131 7 -28 5 -29 -92 -46 -58 -11 -78
-19 -96 -41 -13 -15 -51 -41 -84 -58 l-60 -30 -18 -75 c-10 -42 -20 -80 -23
-84 -3 -5 -34 -23 -68 -41 -34 -17 -67 -40 -73 -51 -6 -11 -33 -31 -60 -45
-27 -14 -53 -32 -58 -42 -13 -22 -18 5 -33 157 -13 131 -6 239 21 355 20 88
90 275 140 375 44 91 132 219 150 221 8 0 148 13 310 28 309 30 388 34 430 22z
m1409 -134 c68 -97 153 -267 190 -378 35 -106 61 -281 61 -413 0 -184 -53
-456 -89 -456 -5 0 -16 -3 -25 -6 -12 -5 -16 0 -16 18 0 14 -9 33 -20 43 -18
16 -36 17 -217 11 l-198 -6 49 26 c133 71 219 231 172 323 -39 75 -174 154
-287 168 l-62 8 -25 69 c-21 57 -24 73 -14 98 9 26 5 41 -37 136 -43 96 -49
117 -53 200 -4 66 -10 98 -22 111 -15 16 -14 19 7 39 21 20 28 21 77 12 86
-16 123 -13 166 16 40 28 108 51 184 64 92 16 89 17 159 -83z m-643 44 c-3 -5
10 -12 29 -15 19 -4 35 -10 35 -14 0 -5 -15 -23 -34 -41 -42 -40 -70 -37 -60
6 10 42 23 73 29 73 4 0 4 -4 1 -9z m62 -203 c4 -77 11 -105 38 -165 l33 -73
-42 0 c-59 0 -111 -17 -147 -47 -17 -14 -32 -24 -33 -22 -35 57 -87 215 -87
265 0 2 15 6 34 10 42 7 108 62 143 117 22 35 26 38 40 24 11 -10 17 -44 21
-109z m-233 -135 c3 -16 19 -56 36 -91 25 -54 27 -63 12 -58 -10 2 -58 12
-108 21 -49 9 -93 19 -97 21 -5 3 8 25 27 48 19 24 31 47 27 51 -4 5 -2 6 3 3
6 -4 26 2 45 13 46 24 49 24 55 -8z m320 -143 c22 -43 7 -67 -38 -62 -42 5
-127 -30 -127 -52 0 -26 -30 -6 -50 34 l-19 37 24 23 c31 29 90 49 147 50 43
0 49 -3 63 -30z m15 -152 l29 -78 -52 0 c-29 0 -62 -3 -74 -6 -20 -5 -26 0
-43 41 -36 85 -36 90 7 108 21 9 53 15 72 14 32 -2 34 -5 61 -79z m-1281 3
c49 -45 59 -47 242 -57 l126 -6 -5 -25 c-3 -14 -15 -28 -29 -34 -34 -13 -34
-12 -22 17 5 15 8 29 5 31 -2 2 -8 -9 -14 -25 -9 -27 -15 -30 -86 -41 -42 -6
-124 -11 -182 -11 -118 0 -152 -11 -181 -60 -10 -17 -26 -30 -37 -30 -21 0
-66 -37 -66 -53 0 -5 9 2 21 17 12 15 30 26 44 26 16 0 30 11 45 35 12 19 26
35 32 35 6 0 5 -6 -2 -15 -7 -9 -10 -18 -6 -22 3 -3 6 0 6 8 1 10 5 8 15 -5
17 -23 19 -18 6 17 -13 33 -2 37 112 37 l92 -1 -55 -22 c-50 -21 -57 -27 -75
-75 -16 -41 -26 -53 -47 -57 -16 -4 -28 -10 -28 -15 0 -4 -20 -33 -45 -63 -25
-31 -45 -59 -45 -63 0 -4 24 23 53 60 35 45 61 69 80 73 15 3 27 12 27 19 0 7
7 31 16 53 15 37 21 42 97 69 45 16 109 32 142 36 33 4 73 9 88 12 l29 6 -7
-46 -7 -46 31 0 c31 0 31 -1 31 -50 l0 -49 -42 -13 c-24 -7 -99 -12 -168 -13
-69 0 -131 -4 -137 -8 -7 -4 -18 -18 -24 -30 -10 -18 -7 -17 14 6 14 15 33 27
42 27 17 0 16 -10 -1 -85 -4 -15 -3 -17 4 -5 5 8 12 32 16 53 l7 37 63 -6 c57
-6 169 6 211 23 14 5 16 -11 15 -128 -1 -74 0 -138 1 -144 1 -5 3 -31 3 -57
l1 -48 -41 0 c-23 0 -62 -3 -88 -6 l-46 -7 -20 47 c-12 25 -23 46 -25 46 -5 0
10 -42 25 -71 10 -17 7 -19 -30 -19 -81 0 -101 22 -125 136 -4 22 -15 35 -41
47 -48 23 -57 21 -12 -3 20 -11 39 -28 41 -37 3 -10 11 -41 17 -70 9 -38 18
-54 32 -59 16 -5 18 -8 7 -15 -8 -5 -26 -9 -40 -9 -35 0 -76 -34 -84 -69 -7
-35 -13 -37 -138 -61 l-98 -19 -44 21 c-40 19 -45 26 -55 72 -16 72 -21 88
-25 84 -3 -2 2 -30 9 -61 7 -31 10 -57 7 -57 -17 0 -51 33 -51 49 0 24 -30 49
-68 57 -39 8 -39 15 -6 62 l26 37 -30 -35 c-18 -19 -32 -38 -32 -42 0 -10 -22
-10 -38 1 -10 6 -40 154 -42 202 0 3 11 11 24 17 18 8 25 21 31 57 3 26 9 54
12 62 8 21 201 116 253 124 l45 6 -38 2 c-21 0 -55 -8 -76 -19 l-38 -19 19 78
20 78 51 24 c29 13 64 38 80 54 22 24 43 33 105 46 42 9 77 17 78 18 0 1 20
-17 43 -38z m731 -142 c6 -41 16 -78 24 -84 17 -13 29 -61 21 -86 -8 -25 -25
-14 -25 16 0 13 -4 26 -8 29 -12 7 11 -113 27 -142 9 -17 9 -22 0 -22 -7 0
-10 -3 -6 -6 3 -3 10 -3 16 1 7 4 6 16 -5 37 -15 28 -15 34 2 70 53 119 307
238 506 238 70 0 78 -2 78 -19 0 -17 -6 -18 -82 -14 -89 6 -183 -9 -214 -32
-13 -11 -7 -10 21 2 31 14 69 18 163 18 121 0 122 0 122 23 0 21 3 22 38 16
94 -17 216 -93 248 -155 49 -95 -36 -248 -176 -319 l-60 -30 -10 25 c-8 22 -3
31 41 77 58 60 72 88 63 126 -20 81 -65 114 -183 134 -134 23 -264 -17 -361
-110 -88 -85 -77 -166 30 -229 44 -27 65 -33 111 -33 49 0 59 -3 73 -25 l16
-25 -115 0 c-110 0 -119 2 -178 31 -121 61 -168 119 -153 190 4 21 0 32 -13
41 -31 22 -64 95 -58 128 4 20 0 36 -14 54 -21 27 -18 46 6 46 8 0 18 21 26
55 7 30 14 54 15 52 2 -2 8 -37 14 -78z m122 65 c19 -4 28 -13 32 -32 3 -15 8
-42 11 -59 4 -19 2 -33 -3 -33 -5 0 -29 -18 -54 -40 -46 -40 -58 -42 -58 -8 0
10 -6 21 -14 24 -8 3 -17 24 -21 47 -3 23 -8 59 -11 80 l-6 39 48 -7 c27 -3
61 -9 76 -11z m-195 -137 c14 -20 20 -41 17 -57 -3 -14 0 -39 7 -55 7 -17 11
-35 10 -42 -1 -6 10 -20 24 -31 17 -14 25 -30 25 -51 0 -73 48 -129 154 -183
27 -14 45 -28 39 -31 -5 -3 -55 -9 -111 -13 l-102 -7 0 92 c0 91 0 92 -54 199
-47 93 -53 113 -51 157 4 59 3 55 13 55 4 0 17 -15 29 -33z m695 -38 c78 -17
123 -43 139 -80 17 -41 17 -93 0 -112 -7 -9 -61 -32 -121 -52 -116 -39 -214
-49 -357 -38 -67 5 -72 7 -83 34 -20 48 -4 98 46 146 98 94 236 131 376 102z
m-692 -149 c49 -98 50 -102 50 -190 0 -71 -3 -90 -14 -90 -8 0 -23 -3 -33 -7
-13 -4 -10 2 10 24 24 26 27 34 18 52 -14 25 -11 25 -81 6 -30 -8 -56 -12 -58
-10 -3 3 7 71 22 152 14 82 26 151 26 156 0 21 14 -2 60 -93z m-1226 -22 c-4
-25 -14 -39 -30 -47 -13 -6 -24 -14 -24 -18 0 -5 7 -51 15 -103 8 -52 15 -98
15 -101 0 -4 31 -15 70 -24 73 -18 84 -25 93 -65 5 -19 27 -36 85 -67 l79 -43
101 20 c56 10 110 24 121 29 17 9 20 6 25 -24 9 -45 37 -61 69 -40 18 11 153
24 589 55 312 22 573 40 580 39 24 0 -115 -49 -286 -99 -93 -28 -172 -52 -174
-55 -3 -3 42 -5 99 -5 94 0 116 4 210 35 74 26 113 34 137 30 26 -5 68 6 178
46 l145 52 -6 38 c-4 22 -3 39 2 39 4 0 82 5 173 11 142 9 167 13 183 29 10
11 24 20 31 20 28 0 -32 -142 -116 -275 -89 -142 -269 -322 -401 -403 -233
-143 -430 -203 -717 -218 -117 -6 -238 9 -420 53 -73 18 -324 139 -385 186
-249 193 -396 385 -493 648 -55 146 -66 204 -47 232 13 18 96 69 102 63 1 -1
0 -18 -3 -38z m2016 -67 c0 -5 -13 -19 -28 -29 -21 -15 -32 -18 -46 -10 -9 5
-20 8 -23 5 -2 -3 5 -8 16 -12 14 -4 27 -28 46 -84 22 -67 30 -80 59 -93 24
-12 35 -25 40 -49 3 -18 3 -36 -1 -40 -5 -3 -67 -27 -140 -53 -99 -36 -139
-46 -165 -41 -24 4 -62 -4 -137 -30 -86 -29 -119 -35 -180 -34 l-76 1 60 19
c33 11 74 21 92 21 17 1 30 5 28 8 -2 3 4 6 13 7 9 1 68 20 130 44 82 31 109
45 97 51 -11 7 -15 25 -15 70 0 60 0 60 23 46 12 -9 25 -30 28 -49 l6 -34 2
32 c1 26 -6 37 -34 59 -19 14 -49 45 -65 67 -17 23 -30 36 -30 29 0 -19 -86
-14 -128 8 -67 35 -66 37 46 36 93 -1 107 -3 93 -15 -9 -7 -4 -6 11 3 35 21
55 22 39 2 -10 -11 -1 -23 46 -61 53 -43 59 -53 70 -104 l12 -56 -5 55 c-5 48
-10 59 -42 85 -20 17 -47 40 -61 51 l-25 21 23 12 c12 7 38 13 56 14 18 1 31
4 28 7 -4 4 109 47 130 49 4 1 7 -3 7 -8z m408 -125 c7 -4 12 -20 12 -37 0
-25 -4 -29 -27 -30 l-28 -1 30 -8 c19 -5 0 -6 -50 -4 -58 2 -71 1 -45 -5 32
-8 30 -9 -20 -8 -30 1 -93 -2 -140 -7 -75 -6 -89 -5 -115 12 -19 12 -35 33
-42 55 l-11 36 107 3 c166 5 316 2 329 -6z m-648 -75 c0 -21 -16 -25 -140 -36
-87 -8 -142 -16 -138 -21 4 -3 98 5 231 21 l47 6 0 -40 0 -39 -67 -6 c-38 -4
-261 -20 -498 -36 -236 -16 -460 -32 -497 -36 l-67 -6 2 46 c1 25 2 46 3 46 0
0 27 5 60 10 32 6 74 13 93 16 18 3 31 7 29 9 -2 3 -46 -2 -97 -10 -88 -15
-94 -14 -107 2 -11 16 -9 19 24 25 20 4 120 12 222 17 231 14 452 30 550 40
41 5 137 9 213 10 129 1 137 0 137 -18z M2440 3044 c0 -10 5 -26 10 -34 8 -11
9 -7 4 15 -8 37 -14 45 -14 19z M1488 2713 c-27 -14 -46 -28 -45 -30 2 -2 28
10 58 27 30 16 50 30 44 30 -5 0 -31 -12 -57 -27z M1379 2584 c-12 -25 -19
-47 -17 -50 2 -2 14 19 25 46 12 28 19 50 17 50 -3 0 -14 -21 -25 -46z M1555
2605 c-5 -2 -26 -6 -46 -9 -29 -5 -38 -13 -52 -44 -9 -20 -11 -28 -4 -18 25
39 48 56 75 57 28 0 79 18 52 18 -8 -1 -19 -2 -25 -4z M2060 2649 c10 -34 22
-64 26 -68 4 -3 4 2 0 13 -3 10 -11 38 -17 62 -6 25 -15 47 -19 49 -5 3 0 -22
10 -56z M2022 2606 c-2 -50 2 -66 24 -98 29 -42 46 -53 20 -13 -17 26 -9 34
12 13 6 -6 14 -9 17 -6 3 2 -10 13 -30 23 -32 18 -34 22 -38 80 l-3 60 -2 -59z
M2260 2633 c13 -3 30 -12 38 -21 11 -15 12 -14 2 6 -7 15 -19 22 -38 21 -26
-2 -26 -2 -2 -6z M2278 2473 c-61 -7 -47 -29 23 -36 44 -5 68 -3 90 8 31 17
40 28 12 18 -11 -4 -14 -3 -9 6 5 8 -4 7 -29 -3 -21 -9 -56 -15 -79 -15 -34 2
-36 3 -11 6 17 3 34 9 40 14 5 5 7 8 5 7 -3 -1 -22 -3 -42 -5z m102 -23 c-8
-5 -22 -10 -30 -10 -13 0 -13 1 0 10 8 5 22 10 30 10 13 0 13 -1 0 -10z M1020
2035 c-25 -13 -41 -24 -37 -25 11 0 87 39 87 45 0 7 0 7 -50 -20z M1130 2000
c-29 -22 -50 -40 -46 -40 7 0 69 44 101 72 27 23 -8 3 -55 -32z M1040 1970
c-19 -11 -31 -19 -27 -20 11 0 67 29 67 35 0 7 -1 7 -40 -15z M970 1874 l-25
-15 24 7 c21 5 23 4 18 -16 -7 -29 8 -13 18 18 7 26 0 27 -35 6z M891 1813
c-7 -26 -15 -57 -18 -68 -3 -11 -2 -17 1 -13 10 8 38 119 33 124 -2 3 -10 -17
-16 -43z M780 1809 c0 -2 -7 -26 -15 -53 -8 -27 -12 -46 -8 -42 10 10 33 89
28 95 -3 2 -5 2 -5 0z M950 1744 c-18 -30 -31 -57 -28 -59 2 -2 18 23 36 56
18 32 31 59 28 59 -2 0 -19 -25 -36 -56z M1476 1729 c-4 -23 -5 -44 -2 -46 2
-2 7 14 11 37 4 23 5 43 2 46 -2 3 -7 -14 -11 -37z M826 1719 c-8 -42 0 -50 9
-9 4 17 5 34 2 36 -2 3 -7 -10 -11 -27z M1019 1713 c-29 -35 -41 -53 -36 -53
2 0 17 16 31 35 28 36 31 49 5 18z M1117 1660 c-20 -27 -37 -53 -37 -57 0 -3
18 18 40 47 22 29 40 55 40 57 0 8 -9 -1 -43 -47z M1426 1664 c-4 -20 -5 -38
-3 -40 3 -3 8 11 11 32 4 20 5 38 3 40 -3 3 -8 -11 -11 -32z M1566 1653 c-9
-26 -12 -43 -7 -38 11 13 32 77 27 82 -2 2 -11 -17 -20 -44z M1018 1653 c-18
-21 -31 -43 -25 -43 2 0 13 14 25 30 25 33 24 41 0 13z M756 1636 c-21 -8 -44
-20 -50 -26 -6 -7 2 -6 19 3 44 22 91 30 134 22 l39 -7 -34 -56 c-19 -31 -34
-61 -34 -67 0 -5 16 18 36 53 19 34 42 62 51 62 8 0 31 -17 51 -37 l35 -38
-23 34 c-40 57 -148 85 -224 57z M739 1573 l-34 -38 38 34 c20 19 37 36 37 38
0 8 -8 0 -41 -34z M1620 1597 c0 -1 -4 -18 -10 -36 -5 -19 -6 -30 -1 -25 10
11 24 64 16 64 -3 0 -5 -1 -5 -3z M1142 1550 c0 -19 2 -27 5 -17 2 9 2 25 0
35 -3 9 -5 1 -5 -18z M1395 1524 c-9 -14 -15 -27 -13 -30 2 -2 12 10 22 26 21
37 15 40 -9 4z M1043 1470 c0 -41 2 -58 4 -37 2 20 2 54 0 75 -2 20 -4 3 -4
-38z M1551 1504 c-6 -21 -9 -40 -6 -42 2 -2 8 13 14 34 6 21 9 40 6 42 -2 2
-8 -13 -14 -34z M1193 1430 c0 -41 2 -58 4 -37 2 20 2 54 0 75 -2 20 -4 3 -4
-38z M935 1428 c-4 -18 -9 -42 -11 -53 -4 -15 -3 -17 4 -5 11 17 25 90 18 90
-2 0 -7 -15 -11 -32z M1006 1384 c-4 -20 -5 -38 -3 -40 3 -3 8 11 11 32 4 20
5 38 3 40 -3 3 -8 -11 -11 -32z M1082 1378 c-6 -23 -9 -44 -7 -46 2 -2 9 15
15 38 6 23 9 44 7 46 -2 3 -9 -14 -15 -38z M1166 1369 c-8 -42 0 -50 9 -9 4
17 5 34 2 36 -2 3 -7 -10 -11 -27z M2710 2005 c0 -2 19 -14 43 -26 57 -28 114
-85 128 -127 6 -18 13 -31 15 -29 10 10 -20 65 -54 100 -32 34 -132 96 -132
82z M2610 1958 c8 -8 100 -47 100 -43 0 3 -12 11 -27 18 -30 16 -81 33 -73 25z
M2200 1903 c-44 -29 -81 -67 -96 -98 -8 -17 -9 -22 -2 -11 35 50 55 71 97 97
25 16 41 29 35 29 -5 0 -21 -7 -34 -17z M2824 1782 c-1 -59 -12 -90 -48 -132
l-21 -25 24 20 c43 37 71 126 54 172 -6 16 -8 6 -9 -35z M2126 1781 c-10 -11
-22 -38 -27 -62 -12 -52 1 -97 39 -130 l27 -24 -22 25 c-47 54 -52 126 -12
183 23 31 20 36 -5 8z M1873 1670 c0 -41 2 -58 4 -37 2 20 2 54 0 75 -2 20 -4
3 -4 -38z M1921 1655 c-2 -57 -2 -59 -16 -35 -21 36 -18 15 3 -23 l17 -32 3
38 c2 20 1 54 -1 75 -3 27 -4 20 -6 -23z M2730 1239 c-69 -16 -168 -36 -220
-44 -99 -17 -123 -25 -74 -25 86 -1 77 -12 -53 -65 -70 -28 -173 -67 -228 -85
-136 -45 -191 -73 -250 -125 l-50 -45 36 0 c19 0 116 23 215 51 135 38 196 61
249 92 l70 42 -47 3 c-25 2 -51 9 -57 16 -9 10 -6 12 13 9 13 -3 71 0 127 6
88 10 107 15 129 36 15 14 56 34 93 45 44 12 90 35 132 66 36 26 65 49 65 51
0 5 -23 1 -150 -28z m110 8 c0 -14 -98 -69 -155 -86 -38 -12 -81 -33 -95 -46
-22 -21 -42 -26 -128 -36 -56 -6 -107 -9 -114 -7 -6 2 50 28 125 58 75 30 135
56 133 57 -2 2 -15 -1 -30 -7 -15 -5 -44 -9 -64 -9 l-37 1 45 11 c236 54 320
71 320 64z m-485 -215 l40 -7 -55 -32 c-56 -32 -391 -133 -439 -133 l-26 0 21
18 c76 62 104 77 210 117 120 44 168 51 249 37z M2680 1190 c8 -5 24 -10 34
-10 26 0 18 6 -19 14 -22 5 -26 4 -15 -4z M2491 1109 c-18 -6 -31 -12 -29 -14
2 -3 24 1 49 9 49 16 33 20 -20 5z M2202 983 c-45 -20 -81 -38 -79 -40 5 -4
149 56 162 68 13 13 9 12 -83 -28z M2067 968 c-32 -11 -56 -22 -54 -24 5 -5
99 26 112 37 12 11 11 11 -58 -13z M1966 904 c-26 -9 -46 -17 -44 -19 5 -5 84
18 94 28 9 9 9 9 -50 -9z M2045 1129 c-117 -17 -246 -53 -285 -80 -10 -7 20
-8 95 -4 97 6 124 12 233 52 67 25 122 47 122 49 0 6 -22 3 -165 -17z m14 -33
c-66 -25 -109 -34 -180 -39 l-94 -7 64 25 c75 29 105 33 75 10 -18 -14 -17
-14 9 -4 15 7 24 15 21 18 -5 5 123 27 171 29 11 1 -19 -14 -66 -32z M2020
1033 c-52 -13 -142 -28 -200 -32 -96 -7 -228 -36 -217 -48 3 -2 38 -13 78 -23
73 -19 75 -19 150 0 63 16 292 109 308 125 8 9 -23 3 -119 -22z m-38 -39 c-40
-18 -108 -43 -150 -53 -76 -20 -78 -20 -147 -1 -63 16 -64 27 -2 22 10 -1 16
2 13 6 -2 4 3 8 12 8 9 1 26 5 36 9 14 6 17 5 11 -4 -6 -10 -3 -11 13 -2 11 6
33 11 49 11 l28 -1 -32 -14 c-18 -8 -33 -16 -33 -19 0 -3 17 2 38 11 36 16
208 62 227 62 6 -1 -23 -16 -63 -35z M1775 894 c-46 -11 -71 -12 -109 -4 -48
10 -54 9 -205 -52 l-156 -63 63 -8 62 -9 -21 -29 c-11 -16 -18 -29 -16 -29 2
0 28 -5 58 -10 53 -10 55 -10 228 61 l173 72 -33 18 -34 17 38 22 c59 35 49
37 -48 14z m-60 -18 c17 0 46 3 65 7 35 7 35 7 12 -10 l-24 -17 32 -16 31 -16
-163 -67 c-142 -58 -169 -66 -206 -60 -23 3 -45 9 -47 13 -3 4 5 19 16 34 l20
26 -28 0 c-15 0 -39 3 -52 7 -19 5 1 16 105 59 109 45 135 52 169 46 22 -3 54
-6 70 -6z M1697 845 c-38 -14 -217 -123 -217 -132 0 -5 39 18 133 78 32 21 71
41 87 44 17 4 32 11 35 16 7 11 10 11 -38 -6z M1553 831 c-13 -11 -46 -22 -74
-26 -27 -4 -48 -9 -46 -12 12 -11 99 11 128 33 18 13 29 24 23 24 -5 -1 -19
-9 -31 -19z M2600 1547 c0 -2 11 -18 25 -37 14 -19 26 -45 26 -59 2 -25 2 -25
6 -3 3 15 -5 38 -23 63 -24 35 -34 45 -34 36z M2685 1368 c-22 -12 -62 -27
-90 -34 l-50 -13 45 6 c25 3 58 12 73 20 16 8 31 12 34 9 8 -8 -17 -36 -33
-36 -7 0 -15 -4 -19 -10 -3 -6 5 -5 23 1 17 6 35 23 45 44 9 19 16 35 14 35
-1 -1 -20 -10 -42 -22z M2882 1520 c-29 -4 -56 -11 -59 -14 -6 -6 48 0 137 14
40 7 41 8 10 8 -19 0 -59 -4 -88 -8z M3023 1463 c9 -2 25 -2 35 0 9 3 1 5 -18
5 -19 0 -27 -2 -17 -5z M2127 1436 c-37 -7 -70 -16 -74 -20 -5 -4 3 -5 17 -2
14 3 52 10 84 16 33 5 62 12 64 15 7 7 -11 5 -91 -9z M1713 1393 c37 -2 96 -2
130 0 34 2 4 3 -68 3 -71 0 -99 -1 -62 -3z M2187 1360 c-115 -15 -211 -31
-215 -35 -4 -4 9 -4 28 -1 19 3 122 17 229 31 107 14 197 27 199 30 8 8 -16 5
-241 -25z M1500 1350 c-54 -7 -54 -7 -10 -7 25 -1 72 3 105 7 l60 7 -50 0
c-27 0 -75 -3 -105 -7z M674 3189 c-26 -28 -27 -31 -7 -25 17 6 32 -4 77 -51
31 -31 56 -61 56 -65 0 -4 5 -8 10 -8 17 0 11 -56 -8 -73 -35 -32 -64 -21
-131 47 -49 49 -62 69 -58 85 8 31 -4 26 -53 -25 -25 -25 -37 -42 -27 -38 14
5 35 -10 88 -62 58 -57 74 -68 102 -68 45 0 85 27 103 69 19 46 7 72 -62 146
-42 43 -55 64 -51 79 7 28 -5 25 -39 -11z M3175 2974 c-53 -15 -106 -23 -128
-20 l-39 4 24 -25 c18 -20 24 -22 26 -9 6 29 58 20 83 -15 26 -37 16 -64 -24
-64 l-25 1 36 -43 c32 -40 36 -42 47 -26 25 38 115 191 121 206 8 22 -9 21
-121 -9z m36 -21 c-5 -10 -16 -27 -24 -38 -15 -20 -16 -20 -42 5 l-26 24 38
12 c57 18 65 17 54 -3z M453 2906 c-59 -27 -94 -106 -73 -165 16 -47 37 -69
79 -87 44 -18 75 -18 113 2 45 23 66 52 74 101 7 49 -16 105 -58 136 -33 25
-95 31 -135 13z m60 -47 c12 -7 41 -27 65 -46 46 -38 56 -78 25 -108 -43 -44
-203 38 -203 104 0 52 59 78 113 50z M3397 2835 c7 -20 -14 -37 -102 -81 -47
-23 -79 -33 -96 -30 l-26 5 34 -65 c37 -71 56 -95 90 -113 69 -36 183 33 183
110 0 33 -33 121 -60 158 -23 34 -33 40 -23 16z m51 -122 c7 -76 -143 -148
-200 -96 -21 19 -24 43 -5 43 6 0 46 20 87 44 89 53 114 55 118 9z M300 2663
c0 -9 -12 -29 -27 -45 -20 -21 -27 -41 -31 -81 -4 -46 -1 -57 22 -84 15 -17
47 -39 72 -49 39 -15 51 -16 81 -5 66 24 102 86 89 154 -10 55 -21 44 -18 -17
3 -47 1 -56 -19 -70 -29 -20 -52 -20 -106 -1 -50 17 -89 52 -98 87 -10 38 29
79 77 81 21 1 38 3 38 4 0 3 -68 43 -74 43 -3 0 -6 -8 -6 -17z M3301 2456 c8
-18 16 -23 24 -16 6 5 24 6 40 1 55 -14 58 -111 4 -111 -11 0 -19 5 -19 10 0
6 -4 10 -9 10 -5 0 -2 -27 7 -61 11 -46 17 -57 24 -45 5 9 14 16 20 16 12 0
188 158 188 169 0 4 -57 14 -127 23 -71 8 -136 18 -146 23 -16 7 -16 5 -6 -19z
m162 -58 c-36 -35 -38 -35 -48 5 -7 26 -6 27 36 27 l44 0 -32 -32z M395 1413
l6 -52 -53 -27 c-57 -29 -57 -30 24 -48 20 -5 29 -14 33 -34 3 -15 10 -40 14
-57 l8 -30 24 48 c19 38 28 47 44 43 11 -2 35 -7 54 -11 l34 -7 -36 44 -36 44
29 44 c16 24 28 46 26 47 -2 2 -25 -6 -52 -17 l-49 -21 -38 43 -38 43 6 -52z
m107 -29 c51 22 52 21 24 -21 l-25 -36 29 -38 30 -37 -37 9 c-53 12 -52 13
-70 -26 -19 -40 -33 -45 -33 -12 0 51 -11 67 -51 73 -22 4 -39 10 -39 14 0 4
18 15 41 25 l41 19 -7 45 -7 46 34 -38 33 -38 37 15z M3409 1420 l-32 -39 -36
15 c-20 9 -42 18 -50 21 -8 4 -3 -12 13 -39 14 -25 26 -48 26 -51 0 -4 -17
-26 -37 -48 l-38 -42 30 6 c17 3 44 9 60 12 29 5 32 2 55 -42 l24 -48 10 57
c10 61 10 61 79 73 47 8 41 19 -23 40 l-50 17 6 54 c4 30 4 54 1 54 -3 0 -20
-18 -38 -40z m29 -27 l-3 -48 43 -15 c46 -16 55 -30 20 -30 -51 0 -68 -11 -68
-44 0 -52 -14 -61 -33 -21 -9 19 -20 35 -24 35 -5 -1 -27 -5 -50 -9 l-43 -8
30 34 c35 40 35 39 10 81 -23 37 -23 37 23 17 36 -15 36 -15 63 20 14 19 28
35 31 35 2 0 3 -21 1 -47z M3036 798 c19 -57 38 -120 42 -141 l7 -38 30 32
c27 29 28 31 7 24 -17 -5 -24 -1 -31 17 -7 19 -4 28 19 52 27 27 30 28 59 16
25 -10 29 -15 20 -27 -7 -7 -9 -17 -5 -20 4 -4 28 14 54 40 45 46 46 47 20 47
-14 0 -74 23 -133 50 -59 28 -111 50 -115 50 -5 0 7 -46 26 -102z m62 -6 c22
-14 22 -16 5 -34 -17 -18 -17 -18 -35 14 -28 54 -26 56 30 20z M803 810 c-47
-19 -93 -85 -93 -132 1 -69 64 -128 137 -128 24 0 43 5 43 11 0 5 -5 7 -11 4
-17 -11 -74 4 -97 26 -27 25 -28 54 -1 103 24 46 64 84 96 92 50 13 93 -49 77
-112 -9 -35 11 -30 35 10 25 40 26 46 7 46 -8 0 -25 14 -37 31 -35 49 -102 70
-156 49z M2850 750 c-25 -22 -38 -38 -29 -35 10 4 40 -20 88 -70 60 -61 72
-80 69 -100 -3 -14 -2 -25 1 -25 3 0 29 21 56 46 43 39 46 45 24 40 -22 -5
-36 5 -99 69 -54 56 -71 80 -67 95 3 11 4 20 4 20 -1 0 -22 -18 -47 -40z
M2720 651 l-35 -19 30 -4 c25 -2 35 -13 58 -56 16 -29 27 -55 24 -58 -2 -2
-42 12 -88 31 -81 35 -106 38 -139 15 -13 -9 -13 -12 3 -21 9 -6 37 -50 62
-98 41 -82 43 -89 27 -105 -21 -21 -3 -21 42 1 36 17 39 33 6 33 -14 0 -30 20
-56 71 -20 40 -30 69 -22 66 165 -66 229 -89 234 -85 6 7 -71 165 -94 191 -13
15 -14 22 -4 38 16 25 0 25 -48 0z M1045 576 c-49 -40 -102 -77 -117 -82 l-27
-9 34 -23 c19 -12 35 -18 35 -12 0 5 -4 10 -10 10 -22 0 -8 26 19 38 25 11 34
11 60 -3 17 -8 31 -22 31 -31 0 -23 -20 -55 -30 -49 -5 3 -11 2 -14 -3 -3 -5
19 -20 48 -34 l53 -26 0 26 c-1 15 3 82 7 150 5 67 7 122 5 122 -2 0 -44 -33
-94 -74z m31 -73 c-3 -3 -19 0 -35 7 l-29 12 31 28 32 29 3 -36 c2 -19 1 -37
-2 -40z M1297 535 c7 -32 -54 -185 -76 -192 -9 -3 -23 -7 -31 -10 -13 -4 178
-93 200 -93 11 0 54 69 47 76 -2 3 -13 -3 -23 -13 -18 -18 -104 -26 -119 -11
-9 8 74 222 88 227 9 3 -25 21 -70 35 -17 6 -20 3 -16 -19z M2380 490 c-8 -5
-39 -15 -67 -21 -29 -7 -53 -16 -53 -21 0 -4 3 -7 8 -7 23 4 32 -10 62 -97 27
-78 31 -100 21 -115 -13 -22 -9 -23 58 -7 51 11 69 28 31 28 -14 0 -22 11 -31
43 -6 23 -14 46 -17 51 -8 14 18 -3 70 -47 44 -35 51 -38 88 -32 22 4 40 11
40 16 0 5 -4 9 -9 9 -5 0 -34 19 -64 43 -53 41 -55 44 -36 57 25 18 25 71 1
93 -20 19 -78 22 -102 7z m44 -35 c24 -36 20 -70 -8 -83 -24 -10 -25 -9 -42
40 -14 42 -14 52 -3 59 23 14 36 10 53 -16z M1560 431 c0 -52 -23 -175 -34
-187 -6 -5 -20 -14 -31 -18 -16 -7 -9 -11 35 -22 30 -7 64 -13 75 -13 18 0 19
1 3 13 -16 12 -16 18 1 113 20 110 26 127 47 119 8 -3 14 -1 14 4 0 6 -8 10
-17 10 -10 0 -35 3 -55 6 -37 6 -38 6 -38 -25z M1713 333 c-1 -97 -14 -143
-40 -143 -7 0 -13 -4 -13 -10 0 -6 30 -10 73 -9 39 1 64 3 55 6 -10 2 -18 10
-19 16 -2 21 3 102 5 105 9 9 37 -14 42 -34 12 -47 24 -23 23 44 -1 37 -3 58
-6 47 -5 -20 -30 -45 -46 -45 -5 0 -7 27 -5 60 l3 60 -35 0 -35 0 -2 -97z
M2015 418 c-56 -31 -82 -97 -64 -162 17 -63 63 -96 130 -96 45 0 103 33 119
68 13 30 13 108 -1 135 -23 44 -61 66 -114 66 -27 0 -59 -5 -70 -11z m97 -12
c36 -27 47 -176 16 -213 -17 -21 -73 -16 -94 8 -15 17 -19 37 -19 101 0 72 2
82 24 99 27 22 49 24 73 5z M1825 413 c33 -5 60 -29 68 -59 2 -10 5 0 6 24 l1
42 -52 -1 c-34 -1 -42 -4 -23 -6z"/>
</g>
</svg>
