<?xml version="1.0" standalone="no"?>
<!DOCTYPE svg PUBLIC "-//W3C//DTD SVG 20010904//EN"
 "http://www.w3.org/TR/2001/REC-SVG-20010904/DTD/svg10.dtd">
<svg version="1.0" xmlns="http://www.w3.org/2000/svg"
 width="250.000000pt" height="250.000000pt" viewBox="0 0 250.000000 250.000000"
 preserveAspectRatio="xMidYMid meet">
<metadata>
Created by potrace 1.16, written by Peter Selinger 2001-2019
</metadata>
<g transform="translate(0.000000,250.000000) scale(0.100000,-0.100000)"
fill="#000000" stroke="none">
<path d="M0 1250 l0 -1250 1250 0 1250 0 0 1250 0 1250 -1250 0 -1250 0 0
-1250z m1290 1178 c0 -6 23 -9 59 -6 37 3 58 0 54 -5 -4 -6 11 -8 38 -4 26 4
36 3 24 -2 -16 -6 -11 -9 26 -15 25 -4 54 -4 65 0 13 4 15 3 7 -3 -15 -11 123
-57 139 -47 6 4 8 3 5 -3 -8 -12 121 -76 135 -67 6 4 8 3 4 -4 -8 -14 60 -56
76 -46 7 4 10 3 5 -1 -4 -5 3 -19 15 -32 23 -24 44 -31 32 -10 -4 7 -3 9 2 4
5 -5 8 -12 7 -15 -2 -9 38 -52 49 -52 5 0 6 6 2 13 -4 6 9 -3 29 -22 21 -20
33 -39 30 -48 -4 -10 0 -13 12 -11 11 2 19 -4 21 -15 3 -24 23 -47 37 -44 7 1
11 -4 9 -12 -4 -18 28 -52 41 -44 6 3 7 1 3 -6 -4 -6 12 -41 37 -79 25 -37 52
-84 61 -105 8 -21 20 -36 26 -32 5 3 7 0 4 -8 -3 -8 2 -32 11 -53 36 -87 63
-252 64 -397 1 -77 5 -145 8 -150 3 -6 1 -7 -5 -4 -6 5 -13 -12 -17 -45 -16
-121 -83 -291 -167 -425 -22 -35 -36 -68 -32 -74 4 -7 3 -9 -3 -6 -13 8 -45
-31 -37 -45 4 -6 3 -8 -3 -5 -13 8 -76 -60 -68 -72 2 -5 -3 -8 -13 -7 -10 0
-17 -6 -17 -16 0 -10 -6 -23 -14 -30 -10 -10 -12 -10 -7 0 4 6 3 12 -2 12 -10
0 -49 -40 -54 -55 -2 -5 -7 -9 -11 -7 -15 5 -67 -39 -61 -50 4 -7 2 -8 -5 -4
-14 9 -123 -52 -116 -65 4 -5 -2 -6 -11 -2 -12 4 -15 3 -10 -5 5 -8 1 -10 -10
-5 -10 3 -15 2 -12 -3 4 -5 -4 -10 -15 -10 -12 -1 -67 -17 -123 -37 -55 -19
-122 -39 -150 -43 -30 -4 -42 -9 -32 -13 36 -13 -318 -9 -392 4 -78 14 -286
80 -307 97 -7 6 -20 8 -28 4 -9 -3 -14 -2 -10 3 4 8 -61 52 -126 86 -28 14
-23 25 12 25 17 0 28 4 24 10 -3 5 4 11 17 14 67 14 89 15 83 6 -3 -6 1 -10
10 -10 9 0 14 4 11 9 -3 5 1 11 9 15 8 3 14 0 12 -7 -1 -6 9 -13 22 -15 17 -3
21 0 16 10 -6 9 -5 10 4 2 15 -14 3 -44 -18 -44 -9 0 -23 6 -30 12 -11 11 -12
9 -3 -8 8 -16 18 -20 37 -17 14 3 25 8 25 12 0 4 12 7 28 8 25 2 26 1 5 -7
-25 -10 -32 -26 -8 -16 8 3 15 1 15 -5 0 -6 9 -4 20 4 14 10 32 12 60 7 22 -4
37 -3 34 1 -3 5 -19 9 -35 9 -21 0 -28 4 -23 12 5 8 2 9 -9 5 -10 -3 -17 -3
-17 1 0 11 104 10 111 -1 4 -5 42 -10 86 -11 44 -2 85 -6 91 -10 23 -14 1 -27
-35 -20 -23 4 -34 3 -30 -3 14 -22 48 -21 75 2 22 19 24 25 14 38 -10 12 -7
14 23 13 19 0 35 -4 35 -7 0 -12 32 -20 44 -12 18 13 46 9 56 -7 5 -8 12 -11
17 -7 4 5 1 12 -7 17 -23 14 -5 22 49 24 27 0 48 3 46 6 -2 3 26 6 62 7 36 1
70 6 76 12 14 14 67 14 67 1 0 -5 -12 -11 -27 -11 -19 -1 -13 -4 17 -9 29 -5
47 -3 52 4 4 6 20 11 36 12 16 1 34 4 41 8 6 4 11 2 11 -3 0 -6 15 -10 33 -10
l32 1 -30 8 -30 8 33 1 c17 0 32 -3 32 -7 0 -4 19 -8 43 -9 l42 -2 -56 24
c-50 21 -83 30 -129 35 -9 1 -6 5 8 10 25 11 82 2 82 -12 0 -14 73 -5 78 10 2
8 -9 12 -37 12 -23 0 -41 4 -41 9 0 5 6 9 13 8 6 0 35 1 62 3 44 2 46 3 20 10
l-30 7 25 6 c14 4 43 8 65 10 28 3 21 4 -22 5 -34 1 -64 -2 -68 -8 -3 -5 -12
-7 -20 -4 -8 4 -12 11 -8 17 3 6 1 7 -6 3 -9 -6 -9 -11 0 -22 9 -12 6 -14 -19
-14 -17 0 -34 5 -38 11 -3 6 -15 8 -26 6 -13 -4 -8 5 17 29 41 38 41 38 51 22
5 -7 3 -8 -6 -3 -8 5 -11 3 -8 -6 3 -8 21 -14 46 -15 32 -1 42 2 43 15 0 10 2
12 6 4 3 -8 23 -13 56 -12 45 1 48 2 22 9 l-30 8 27 1 c44 2 44 21 -1 21 -27
0 -43 5 -49 17 -7 11 -15 14 -28 8 -26 -12 -54 -14 -54 -4 0 4 9 11 20 14 11
4 18 11 15 16 -6 8 23 14 54 9 8 -1 17 2 20 7 3 5 18 14 33 20 21 10 29 9 38
-3 10 -11 10 -14 -1 -14 -11 0 -11 -2 1 -10 8 -5 13 -10 10 -11 -3 0 -13 -2
-22 -4 -10 -2 -20 1 -24 6 -3 5 -10 9 -15 9 -6 0 -7 -4 -4 -10 3 -5 1 -10 -6
-10 -8 0 -8 -4 1 -15 15 -18 51 -20 69 -2 10 10 15 9 25 -5 8 -11 26 -18 44
-18 29 0 31 2 22 24 -5 13 -6 27 -2 31 4 5 -3 5 -15 2 -13 -3 -23 -1 -23 5 0
5 -4 7 -9 4 -5 -3 -14 1 -21 9 -11 13 -10 18 6 30 24 18 34 19 35 3 0 -10 2
-10 6 0 2 6 9 12 14 12 6 0 7 -4 4 -10 -3 -5 -3 -10 2 -10 11 1 89 101 85 111
-1 5 3 9 9 9 5 0 7 5 4 10 -3 6 -3 10 2 10 4 0 9 10 9 23 1 12 5 40 8 62 4 22
9 66 12 98 4 31 11 60 17 64 6 4 7 -16 3 -58 -4 -35 -8 -72 -9 -81 -1 -10 -4
-18 -7 -18 -3 0 -6 -11 -6 -25 -2 -22 14 -37 17 -17 1 4 4 18 6 32 12 67 14
180 4 180 -6 0 -8 6 -5 13 5 15 -32 67 -48 67 -6 0 -4 -8 5 -18 10 -10 17 -34
17 -53 l-1 -34 -13 31 c-15 33 -45 61 -33 31 3 -9 -1 -21 -10 -29 -13 -10 -17
-10 -20 0 -5 13 -24 17 -22 5 4 -26 -2 -53 -11 -48 -7 4 -9 -2 -5 -18 4 -15 2
-28 -5 -32 -9 -5 -10 -1 -6 12 4 13 0 25 -9 33 -13 11 -19 10 -33 -5 -9 -10
-12 -15 -5 -11 7 4 9 -1 5 -16 -5 -19 -7 -20 -10 -5 -4 18 -22 24 -22 6 0 -5
-5 -7 -10 -4 -6 3 -13 -1 -16 -9 -8 -21 -34 -21 -34 0 0 14 -1 14 -16 0 -20
-20 -28 -20 -20 -1 3 8 1 15 -5 15 -6 0 -7 4 -4 10 3 5 0 7 -9 4 -8 -3 -23 -1
-33 5 -16 9 -15 11 7 11 14 1 19 4 13 7 -20 8 -15 23 7 23 11 0 19 3 18 8 -1
4 4 20 10 35 16 38 15 63 -3 81 -9 8 -17 33 -19 55 -3 39 -2 40 22 34 17 -4
23 -2 18 6 -8 12 -39 15 -50 4 -4 -5 -18 -8 -29 -8 -33 0 -37 -52 -5 -57 33
-5 48 -61 23 -88 -17 -19 -20 -19 -36 -4 -10 9 -17 19 -16 23 3 12 -24 51 -35
51 -9 0 -9 -3 0 -12 7 -7 12 -22 12 -35 0 -12 8 -27 18 -33 15 -9 14 -10 -6
-5 -18 5 -22 3 -20 -16 2 -12 -3 -24 -12 -27 -11 -3 -12 -2 -4 7 8 9 6 18 -9
36 -23 25 -43 23 -53 -7 -6 -19 -6 -19 -19 -1 -13 17 -14 16 -24 -10 -6 -16
-11 -37 -11 -48 0 -10 -7 -19 -15 -19 -12 0 -12 5 1 42 21 60 33 73 50 51 7
-10 13 -13 13 -8 0 6 -6 18 -13 28 -13 17 -16 15 -38 -22 -14 -23 -27 -39 -30
-36 -3 3 -3 -6 -1 -20 7 -33 -21 -45 -46 -18 -16 17 -17 23 -4 65 13 45 39 68
61 54 5 -3 20 6 32 19 13 14 19 25 13 25 -6 0 -16 -7 -23 -15 -9 -11 -22 -14
-40 -10 -24 5 -29 2 -34 -20 -6 -22 -9 -25 -21 -15 -11 9 -15 9 -15 1 0 -6 5
-11 10 -11 6 0 10 -7 10 -16 0 -10 -6 -14 -15 -10 -8 3 -15 1 -15 -4 0 -6 5
-10 10 -10 6 0 10 -7 10 -15 0 -8 -4 -15 -10 -15 -5 0 -10 -5 -10 -11 0 -5 4
-8 9 -5 5 3 14 -1 21 -9 10 -12 9 -15 -4 -15 -9 0 -16 -4 -16 -10 0 -14 13
-13 28 2 9 9 12 9 12 0 0 -7 10 -9 28 -6 54 11 70 -48 17 -62 -34 -8 -86 14
-83 35 2 9 -2 15 -7 14 -21 -3 -21 127 0 167 9 18 14 34 11 37 -5 6 -50 -45
-51 -57 -1 -3 -4 -21 -8 -41 -7 -35 -9 -36 -75 -49 -159 -32 -371 -28 -557 9
-27 6 -61 14 -75 17 -18 5 -22 4 -14 -5 5 -6 53 -21 105 -33 79 -18 126 -22
294 -22 127 -1 213 3 235 11 80 26 87 26 94 -9 6 -30 56 -88 76 -88 5 0 10
-13 10 -29 0 -23 6 -31 30 -40 17 -5 30 -16 30 -22 0 -10 -3 -10 -12 -1 -24
24 -79 8 -78 -23 0 -5 5 -2 11 8 5 9 20 17 31 17 25 0 58 -27 58 -47 0 -8 -8
-5 -22 10 l-23 22 -3 -22 c-2 -12 -9 -24 -15 -26 -7 -2 1 -3 16 -1 15 2 25 0
22 -5 -3 -5 0 -11 5 -13 13 -4 -23 -83 -54 -117 l-21 -25 27 17 c21 13 26 14
22 3 -3 -8 -12 -17 -20 -20 -8 -3 -14 -10 -14 -17 0 -20 64 29 82 63 25 46 24
68 -4 60 -14 -3 -19 -2 -14 6 4 7 16 12 27 12 22 0 23 8 5 74 -7 28 -22 56
-36 66 -13 10 -20 22 -16 29 10 15 46 14 46 -1 0 -10 2 -10 9 0 6 10 10 10 21
-3 10 -13 10 -15 -5 -15 -17 0 -17 -1 -2 -18 11 -11 19 -43 22 -82 3 -35 7
-66 9 -68 7 -6 -14 -76 -37 -121 -24 -49 -91 -110 -140 -128 -80 -29 -176 -4
-197 53 -13 34 -13 80 1 107 16 30 14 29 57 34 33 4 43 1 56 -18 8 -13 18 -20
21 -17 10 9 -47 58 -69 58 -11 0 -34 -7 -50 -15 -15 -8 -34 -15 -42 -15 -7 0
-16 -5 -19 -10 -4 -7 3 -8 22 -4 23 5 26 4 16 -7 -7 -7 -14 -33 -15 -58 l-1
-46 -6 40 -5 40 -5 -44 c-4 -32 -11 -45 -23 -47 -13 -2 -17 3 -14 19 2 12 1
16 -1 9 -3 -7 -9 -9 -15 -6 -6 4 -8 -2 -3 -17 5 -19 4 -21 -4 -9 -6 8 -11 26
-12 40 -1 20 -3 18 -9 -10 l-7 -35 -3 35 -3 35 -7 -35 -7 -35 -3 30 -2 30 -8
-30 c-5 -21 -8 -24 -10 -10 l-1 20 -10 -20 c-7 -15 -8 -7 -5 27 3 25 7 52 8
59 2 7 -9 19 -25 28 -25 15 -30 15 -55 0 -20 -11 -37 -13 -66 -7 -55 12 -56 3
-1 -12 36 -10 45 -16 39 -29 -3 -9 -9 -24 -11 -33 -3 -10 -10 -18 -15 -18 -5
0 -6 6 -2 13 5 8 2 8 -9 -2 -14 -11 -17 -11 -17 0 0 11 -2 11 -10 -1 -8 -12
-10 -12 -11 5 -1 17 -2 16 -9 -5 -7 -23 -8 -23 -10 10 l-2 35 -8 -33 c-4 -18
-11 -36 -15 -40 -5 -4 -5 2 -1 13 9 24 -3 14 -19 -17 -6 -13 -17 -22 -23 -20
-7 1 -12 -5 -12 -13 0 -16 -16 -20 -24 -6 -8 12 20 34 33 27 11 -7 12 -1 15
94 2 57 0 67 -18 77 -34 20 -80 16 -103 -9 -37 -41 -46 -66 -34 -100 14 -39
10 -43 -26 -25 -87 46 -118 156 -71 252 23 47 17 72 -15 59 -24 -9 -21 -27 3
-19 11 3 20 4 20 1 0 -7 -49 -99 -57 -105 -3 -3 -3 -1 1 6 3 6 2 14 -4 18 -15
9 -12 25 5 25 11 0 12 5 5 24 -5 13 -7 26 -6 27 2 2 6 21 9 42 4 27 3 36 -6
31 -9 -5 -8 -3 0 6 7 8 20 15 30 16 9 2 26 5 38 8 30 8 64 -18 48 -35 -10 -10
-15 -10 -27 0 -12 10 -20 9 -40 -4 -30 -20 -34 -31 -8 -20 9 4 33 8 52 9 25 1
36 6 38 19 5 26 -27 48 -63 42 -16 -2 -37 0 -45 5 -13 9 -13 11 0 20 8 5 11
10 6 10 -5 0 -3 7 4 15 7 9 21 13 30 10 18 -6 80 38 80 57 0 5 -14 -2 -31 -16
-32 -27 -67 -33 -100 -16 -25 14 -26 68 -1 86 16 12 15 13 -8 14 l-25 1 24 13
c14 8 32 11 40 8 10 -4 11 -7 3 -10 -7 -2 -12 -8 -12 -14 0 -6 6 -8 14 -5 8 3
13 -1 12 -10 0 -9 5 -18 13 -21 10 -3 12 0 8 11 -3 9 -1 17 6 20 7 2 12 35 12
94 0 51 -2 90 -5 88 -4 -2 -12 12 -19 31 -7 18 -17 34 -23 34 -5 0 -8 7 -4 15
3 8 0 15 -7 16 -7 0 -1 5 13 10 14 6 26 6 28 1 6 -18 52 -75 52 -65 0 7 -7 19
-16 27 -8 9 -12 21 -8 27 4 8 3 9 -4 5 -7 -4 -12 -1 -12 8 0 9 7 16 16 16 44
0 141 87 120 107 -3 3 -9 -2 -12 -11 -5 -12 -9 -14 -14 -6 -5 8 -9 7 -13 -5
-4 -9 -3 -13 3 -10 6 3 10 2 10 -4 0 -13 -41 -41 -52 -35 -4 3 -8 1 -8 -4 0
-5 -6 -9 -12 -9 -7 0 -31 -4 -53 -8 -22 -4 -46 -7 -53 -8 -7 0 -10 -7 -7 -14
8 -24 -14 -53 -40 -53 -17 0 -25 -5 -24 -17 0 -10 3 -13 5 -7 7 17 67 4 90
-20 22 -23 45 -98 40 -135 -3 -27 -20 -39 -31 -22 -3 6 0 11 7 11 9 0 9 3 -2
10 -8 5 -11 10 -6 10 10 0 -13 30 -24 30 -5 0 -6 -8 -4 -17 3 -12 -4 -22 -23
-30 -15 -7 -31 -13 -35 -13 -13 0 -9 18 5 23 6 2 4 3 -5 2 -17 -3 -22 11 -21
52 1 7 -2 11 -6 9 -3 -2 -7 9 -8 25 -1 17 2 27 7 24 6 -4 10 -13 10 -21 0 -8
5 -14 10 -14 13 0 13 6 -1 33 -17 32 -17 32 -39 12 -19 -17 -22 -17 -36 -3
-10 9 -13 21 -9 29 6 9 11 5 18 -12 l9 -24 9 23 c5 13 6 28 3 33 -8 14 -12 58
-5 56 3 -1 21 14 39 32 31 33 37 35 103 37 79 2 115 22 104 59 -4 11 -7 26 -7
33 -1 6 -3 10 -6 7 -2 -2 -26 7 -53 21 -33 16 -49 31 -49 44 0 10 -12 32 -26
47 l-25 28 18 -29 c14 -23 15 -30 4 -34 -8 -3 -1 -14 21 -33 18 -15 28 -28 21
-29 -15 0 -64 51 -58 61 3 4 -2 12 -10 19 -12 10 -13 6 -9 -27 4 -27 3 -34 -5
-23 -5 8 -8 17 -5 21 2 4 -3 13 -12 20 -13 11 -14 9 -8 -17 7 -31 7 -31 5 -54
-1 -13 -2 -13 -11 0 -8 13 -10 12 -10 -3 0 -11 -9 -30 -20 -44 -11 -14 -20
-36 -20 -48 0 -12 -3 -25 -7 -29 -4 -4 -8 -26 -10 -49 -5 -68 -7 -77 -15 -77
-4 0 -8 -9 -8 -20 0 -14 -7 -20 -22 -21 -20 -1 -21 -2 -3 -5 83 -18 105 -27
94 -40 -6 -8 -17 -14 -24 -14 -7 0 -16 -7 -19 -16 -3 -8 -10 -12 -16 -9 -6 4
-10 -11 -10 -38 0 -27 -6 -49 -15 -57 -18 -15 -10 -31 11 -23 24 9 44 56 32
77 -5 9 -7 20 -4 23 3 4 6 1 6 -6 0 -7 9 -3 19 10 16 20 22 22 33 11 10 -10
13 -56 13 -182 1 -119 5 -172 13 -183 10 -12 10 -17 1 -23 -7 -4 -9 -3 -5 4 3
6 2 13 -4 17 -6 3 -10 -4 -10 -17 0 -35 20 -98 31 -98 5 0 4 -9 -3 -20 -11
-17 -10 -22 2 -30 12 -8 12 -12 2 -18 -11 -7 -10 -16 4 -45 10 -21 21 -37 26
-37 4 0 8 -8 8 -17 0 -15 -2 -14 -15 3 -13 17 -16 17 -26 4 -10 -13 -10 -13
-6 0 2 8 1 24 -3 35 -5 13 -9 1 -14 -39 -7 -61 -2 -81 17 -70 9 5 9 3 0 -6 -7
-7 -24 -14 -38 -16 -22 -2 -25 0 -19 18 8 27 8 133 0 147 -4 6 -1 11 6 11 10
0 10 2 -1 9 -8 5 -10 14 -6 21 5 9 4 11 -3 6 -7 -4 -12 -1 -13 6 0 7 -3 25 -5
40 -3 17 0 28 6 28 7 0 2 16 -10 35 -12 19 -17 35 -12 35 5 0 12 -7 16 -15 9
-25 26 -17 25 13 0 23 -2 24 -8 8 -7 -18 -8 -18 -14 -2 -4 9 -11 14 -17 11 -6
-4 -7 1 -3 11 3 10 2 15 -3 12 -5 -3 -10 16 -11 44 -1 27 -7 56 -13 64 -7 7
-10 28 -8 44 3 17 1 33 -3 36 -5 2 -6 11 -3 18 3 7 -6 20 -19 29 -33 22 -91
113 -81 129 6 11 5 11 -8 0 -14 -11 -19 -9 -37 14 -27 35 -27 54 2 53 12 0 16
-3 9 -6 -6 -2 -9 -9 -6 -15 3 -5 14 -2 26 9 21 18 21 18 16 -9 -6 -35 -1 -34
40 1 29 24 31 30 17 41 -8 7 -15 19 -15 26 0 8 -5 14 -11 14 -6 0 -8 -7 -5
-15 3 -8 9 -22 12 -30 8 -21 -5 -19 -46 7 l-35 21 40 18 c21 10 45 25 51 34 7
9 17 14 23 10 6 -3 11 2 11 13 0 25 25 74 33 66 3 -4 4 5 1 19 -2 14 0 29 6
32 6 4 8 10 5 15 -3 5 3 15 15 22 11 7 20 16 20 21 0 4 -3 6 -7 4 -5 -3 -24 8
-43 24 -19 16 -28 29 -21 29 7 0 3 8 -10 19 -23 18 -23 18 -2 29 11 6 24 8 28
4 3 -4 5 -1 3 7 -6 25 22 23 31 -2 5 -14 15 -27 22 -29 14 -5 4 -28 -12 -28
-6 0 -8 4 -5 9 9 14 -23 36 -35 24 -8 -8 -7 -13 2 -18 8 -5 10 -4 5 3 -4 7 -3
12 3 12 15 0 23 -18 11 -25 -13 -8 6 -35 24 -35 6 0 5 4 -3 9 -11 7 -9 10 8
16 16 5 21 13 19 28 -2 12 -9 21 -16 20 -6 -2 -12 2 -12 7 0 6 6 10 13 10 6 0
4 5 -5 11 -10 5 -18 17 -18 26 0 12 -3 13 -13 4 -11 -8 -18 -6 -32 9 -14 15
-21 17 -32 8 -11 -9 -12 -7 -4 14 8 22 6 29 -16 48 -23 20 -24 24 -11 34 11 8
13 18 7 34 -6 16 -5 21 2 17 6 -4 13 3 16 14 5 20 7 21 23 6 21 -19 35 -5 17
18 -29 40 -103 -46 -91 -106 3 -16 12 -40 20 -55 8 -15 14 -35 14 -46 0 -17 2
-17 23 -3 22 14 23 14 23 -8 0 -13 -4 -21 -8 -19 -4 3 -8 0 -8 -7 0 -7 -8 -5
-21 7 -12 10 -23 18 -25 17 -13 -9 -25 -1 -20 12 3 8 0 15 -7 15 -8 0 -6 4 3
10 11 7 11 10 2 10 -7 0 -10 5 -7 10 3 6 -3 10 -14 10 -11 0 -23 5 -27 12 -5
8 -2 9 9 5 10 -3 17 -2 17 3 0 6 -5 10 -11 10 -6 0 -9 6 -6 14 3 7 0 19 -6 25
-8 8 -6 11 8 11 18 0 18 1 0 20 -17 18 -17 20 -2 14 10 -3 17 -1 17 5 0 6 -5
11 -11 11 -6 0 -9 6 -6 13 2 6 11 11 21 9 17 -3 22 22 10 52 -5 13 -8 14 -20
1 -8 -8 -13 -18 -12 -22 2 -4 -1 -8 -5 -8 -15 0 -26 -29 -20 -57 4 -19 1 -28
-7 -28 -9 0 -7 -7 6 -22 10 -12 13 -18 7 -14 -8 4 -13 1 -13 -8 0 -8 -3 -21
-6 -30 -4 -10 2 -19 19 -27 19 -8 24 -17 21 -35 -3 -16 2 -24 15 -29 24 -7 54
-52 41 -60 -6 -3 -10 -2 -10 3 0 5 -10 12 -22 15 -23 6 -68 -25 -68 -47 0 -6
4 -5 9 3 5 8 11 9 15 3 4 -6 -2 -15 -11 -21 -17 -9 -16 -11 5 -26 22 -16 26
-45 9 -72 -4 -6 -3 -14 3 -18 13 -8 7 -48 -9 -53 -9 -3 -9 -7 0 -18 6 -8 8
-14 4 -14 -4 0 0 -12 10 -26 9 -15 13 -24 7 -20 -6 3 -20 -14 -32 -39 -20 -41
-24 -44 -35 -29 -7 10 -17 14 -25 9 -9 -6 -10 -2 -5 16 4 13 4 21 0 17 -9 -9
-35 9 -35 24 0 6 7 5 16 -3 13 -10 17 -10 25 2 7 12 9 12 10 -1 1 -8 1 -18 1
-22 -1 -3 6 -12 15 -20 12 -9 15 -9 9 0 -4 7 -2 12 5 12 7 0 5 9 -7 22 -12 15
-13 18 -3 10 13 -10 19 -9 30 5 9 11 10 14 2 9 -8 -4 -13 -2 -13 4 0 6 -4 8
-10 5 -5 -3 -10 -1 -10 5 0 6 8 9 18 6 13 -4 19 -1 19 9 0 9 -6 14 -14 11 -9
-4 -11 -2 -7 6 5 7 7 25 6 41 -2 21 1 26 10 21 10 -6 10 -4 0 9 -8 10 -11 25
-7 39 6 17 4 20 -4 12 -7 -6 -14 -34 -16 -63 -2 -29 -12 -67 -25 -88 -20 -34
-23 -36 -35 -20 -10 14 -14 15 -19 5 -3 -7 -5 -4 -2 8 2 12 -1 29 -7 39 -5 10
-8 59 -7 109 5 165 2 254 -10 261 -3 2 -5 -85 -5 -193 0 -196 0 -197 28 -250
15 -29 25 -58 21 -63 -10 -17 -7 -138 4 -152 5 -6 13 -37 16 -67 10 -87 12
-310 3 -310 -5 0 -5 5 -2 10 3 6 -1 10 -10 10 -9 0 -14 4 -10 9 3 5 1 12 -4
16 -6 3 -7 13 -4 22 6 15 7 14 14 -3 6 -15 8 -12 8 14 1 23 -4 32 -15 32 -8 0
-12 5 -9 10 4 6 11 7 17 4 6 -4 8 1 6 12 -2 14 -11 18 -33 17 l-30 -2 33 10
c17 5 32 14 32 18 0 11 -19 9 -38 -3 -7 -4 -18 -3 -25 2 -7 5 -22 8 -35 7 -12
-1 -22 1 -22 5 0 6 -21 7 -52 1 -15 -2 -8 -21 7 -21 8 0 15 -5 15 -12 0 -6 7
-3 16 8 8 10 12 12 8 4 -5 -12 -4 -12 6 -3 15 14 40 6 40 -12 0 -8 10 -16 23
-18 12 -2 4 -2 -18 0 -22 3 -47 5 -55 5 -8 1 -21 5 -27 11 -16 12 -16 11 0
-33 11 -31 19 -37 45 -31 4 2 -2 6 -13 11 l-20 9 20 1 20 1 -20 9 -20 9 20 0
c30 1 49 -14 39 -30 -15 -24 -13 -39 4 -40 10 -1 6 -4 -8 -8 -18 -5 -28 -3
-35 9 -5 10 -18 16 -27 15 -11 -2 -15 2 -11 13 5 11 3 13 -7 7 -9 -5 -11 -4
-6 4 11 18 -2 63 -16 55 -7 -4 -8 -3 -4 4 9 15 -15 143 -26 136 -4 -3 -8 0 -8
5 0 6 3 11 8 11 4 0 6 21 5 47 -7 127 -7 281 -2 265 4 -10 9 5 13 38 4 30 14
79 22 109 9 29 13 60 10 68 -4 9 -2 11 6 7 7 -5 9 0 6 14 -4 12 -2 20 2 17 12
-7 23 32 14 46 -4 7 -3 9 3 6 13 -8 36 50 26 66 -4 6 -1 7 7 2 10 -6 12 -4 7
9 -5 11 -3 15 5 10 8 -5 9 -2 5 10 -4 9 -3 15 1 12 11 -7 74 103 66 115 -3 5
0 8 8 7 7 -2 12 5 12 14 -1 10 2 15 7 13 9 -6 55 52 52 65 -1 4 8 16 20 26
l22 19 -20 -25 -20 -25 27 24 c15 13 26 29 25 35 -1 6 4 10 12 8 18 -4 62 38
54 51 -3 6 -1 7 4 4 13 -8 65 31 58 44 -4 5 0 6 8 4 15 -6 63 32 59 47 -1 5 2
7 7 3 12 -6 120 50 138 73 7 8 22 16 35 17 38 4 39 5 32 17 -4 7 -3 8 5 4 16
-10 53 3 45 16 -4 7 -2 8 5 4 18 -11 63 2 55 16 -5 7 -3 8 5 4 16 -10 83 2 76
14 -3 4 14 6 37 3 29 -3 39 -1 30 5 -9 6 4 8 40 6 37 -3 46 -1 28 5 -17 5 7 8
73 8 60 1 97 -3 97 -9z m-795 -768 c-3 -4 11 -20 31 -35 32 -25 34 -28 20 -44
-9 -10 -13 -20 -10 -24 3 -3 -3 -10 -14 -16 -14 -7 -24 -7 -38 3 -16 13 -15
13 16 10 18 -2 30 -1 27 3 -4 3 -1 13 6 21 8 10 2 9 -18 -4 -21 -14 -27 -15
-20 -4 18 30 13 60 -15 80 -15 11 -29 18 -31 17 -3 -1 -1 2 3 7 3 5 4 16 1 25
-4 11 2 8 20 -8 15 -13 24 -27 22 -31z m-101 18 c-5 -7 -2 -9 8 -5 9 3 21 0
27 -6 7 -7 15 -12 19 -12 4 -1 17 -6 30 -14 20 -11 21 -15 10 -29 -8 -9 -8
-13 -1 -9 21 13 7 -23 -15 -39 -23 -16 -24 -16 -26 15 0 11 -4 23 -8 27 -4 3
-5 -3 -3 -15 3 -15 0 -19 -8 -15 -7 4 -9 4 -5 -1 4 -4 2 -15 -5 -23 -10 -13
-9 -14 1 -8 11 7 12 4 4 -10 -9 -17 -6 -19 17 -19 16 -1 28 5 28 12 0 7 -5 9
-10 6 -6 -3 -7 -1 -3 5 5 9 13 8 30 -3 12 -8 25 -13 28 -9 3 3 9 0 14 -7 4 -7
3 -10 -3 -6 -10 6 -27 -27 -24 -46 1 -4 -6 -10 -14 -13 -8 -3 -12 -10 -9 -15
3 -5 -2 -12 -10 -15 -9 -3 -14 -9 -12 -13 3 -4 -4 -8 -15 -8 -10 -1 -19 4 -19
12 0 15 27 28 42 18 6 -3 8 -1 4 5 -3 6 -2 13 4 17 6 4 8 11 5 16 -4 5 -1 9 5
9 6 0 8 5 4 12 -4 7 -3 8 4 4 8 -5 10 -2 6 8 -5 13 -8 14 -20 1 -8 -7 -24 -12
-36 -10 l-21 4 22 -23 c19 -20 20 -24 7 -29 -9 -3 -18 -2 -21 4 -4 5 -10 7
-14 4 -5 -2 -7 9 -6 25 1 17 -1 33 -6 36 -5 3 -5 13 1 24 7 13 7 21 0 25 -6 4
-8 11 -4 16 3 5 9 7 14 4 5 -3 11 -1 15 5 7 12 -34 30 -52 23 -16 -6 -17 13
-3 22 8 5 8 11 1 19 -7 9 -7 16 1 24 15 15 31 16 22 0z m304 -65 c-2 -11 2
-17 10 -15 8 1 11 -2 7 -8 -4 -6 3 -9 17 -7 13 1 22 -2 21 -8 0 -5 5 -16 13
-23 17 -15 17 -12 4 22 -6 16 -6 26 0 26 5 0 12 -17 16 -37 6 -33 8 -35 15
-15 12 33 26 27 21 -9 -4 -30 -6 -31 -46 -26 -22 2 -52 8 -65 12 -19 6 -22 5
-16 -5 6 -10 2 -11 -19 -6 -17 4 -25 3 -22 -3 4 -5 3 -12 -2 -15 -4 -2 -9 4
-9 15 -2 17 8 24 30 20 4 0 7 4 7 9 0 6 6 10 13 10 7 0 22 6 32 14 18 13 17
14 -7 11 -15 -2 -35 3 -44 10 -15 11 -16 14 -3 28 19 21 31 21 27 0z m-68
-113 c0 -5 -4 -10 -10 -10 -5 0 -7 -7 -4 -15 5 -11 2 -13 -10 -9 -19 7 -20 16
-4 32 15 15 28 16 28 2z m1807 -257 c-2 -16 -4 -3 -4 27 0 30 2 43 4 28 2 -16
2 -40 0 -55z m-2139 20 c2 -20 6 -41 9 -47 4 -6 0 -5 -9 1 -8 7 -19 9 -23 5
-5 -4 -4 0 1 8 5 8 10 26 10 40 2 27 3 30 7 30 2 0 4 -16 5 -37z m42 -9 c0
-19 4 -33 9 -30 4 3 5 -9 2 -27 -4 -17 -3 -48 2 -67 24 -95 52 -178 68 -207
11 -19 19 -39 18 -46 0 -7 -5 -2 -11 11 -6 12 -15 22 -20 22 -5 0 -6 -10 -3
-22 4 -13 9 -31 12 -42 3 -12 1 -16 -6 -12 -6 4 -11 14 -11 22 0 8 -4 14 -8
14 -12 0 -63 116 -78 180 -16 67 -18 120 -3 120 6 0 10 18 9 43 -3 64 -1 77
10 77 6 0 10 -16 10 -36z m47 -68 c-3 -7 8 -27 24 -44 17 -18 25 -32 20 -32
-6 0 -17 -12 -25 -27 -8 -16 -16 -23 -16 -18 -1 6 -3 18 -5 27 -2 10 2 15 10
12 7 -3 16 0 21 7 4 7 3 10 -4 5 -6 -3 -13 -2 -17 4 -4 6 -11 7 -17 4 -7 -4
-8 -2 -4 4 4 6 14 8 24 5 15 -6 15 -5 3 10 -7 9 -16 15 -20 13 -4 -3 -7 8 -6
24 0 15 4 26 8 23 5 -3 6 -11 4 -17z m343 -5 c0 -5 -9 -11 -20 -14 -11 -3 -20
-1 -20 3 0 5 8 11 18 13 9 3 18 5 20 6 1 0 2 -3 2 -8z m-294 -117 c1 -32 -9
-21 -14 14 -2 15 0 23 4 19 5 -4 9 -19 10 -33z m32 -49 c-2 -19 1 -36 7 -38 5
-3 8 -7 5 -10 -3 -3 -14 1 -24 9 -17 12 -17 16 -5 31 8 9 9 14 2 10 -6 -4 -15
-3 -18 3 -4 6 -1 9 7 8 7 -2 12 3 11 10 -2 6 2 12 8 12 7 0 10 -14 7 -35z
m1291 -30 c1 -16 -1 -17 -9 -5 -5 8 -9 29 -9 45 1 29 1 29 9 5 4 -14 8 -34 9
-45z m-1066 14 c5 -3 2 -9 -7 -12 -12 -5 -16 0 -16 15 0 12 3 17 8 12 4 -5 11
-12 15 -15z m-190 -26 c3 -16 5 -35 5 -43 -1 -8 2 -25 6 -37 5 -14 3 -23 -3
-23 -9 0 -15 19 -13 41 1 3 -6 6 -14 7 -7 1 -21 3 -29 4 -8 1 -15 5 -15 9 0
12 38 17 49 6 14 -14 15 2 1 37 -5 15 -6 26 -1 26 5 0 12 -12 14 -27z m-129
-117 c51 -102 63 -133 55 -148 -22 -41 -51 -7 -45 53 3 24 3 36 0 27 -9 -31
-33 -20 -40 17 -6 33 -8 34 -20 18 -13 -17 -13 -17 -15 2 -2 27 -4 164 -2 162
0 -1 31 -60 67 -131z m113 24 c2 -17 -1 -18 -17 -10 -11 6 -17 17 -14 25 8 19
29 9 31 -15z m1454 -23 c29 -22 41 -55 29 -78 -11 -20 -13 -20 -31 -3 -10 9
-16 21 -12 27 3 6 1 7 -6 3 -8 -6 -9 -12 -2 -20 7 -9 7 -17 -2 -26 -10 -10 -9
-12 6 -7 11 4 17 1 17 -7 0 -26 -12 -45 -25 -40 -7 3 -20 -4 -28 -16 -10 -15
-23 -20 -39 -18 -23 4 -23 4 4 16 29 12 48 40 41 59 -2 7 -11 9 -19 6 -15 -5
-21 27 -7 41 4 4 9 19 10 34 2 15 0 22 -4 17 -10 -14 -56 -17 -47 -4 3 6 11 8
17 6 7 -2 18 2 25 10 17 16 52 16 73 0z m201 -20 c28 -22 40 -63 22 -77 -19
-16 -18 -34 2 -26 8 3 12 2 9 -4 -3 -6 -17 -10 -31 -10 -14 0 -23 -4 -20 -9 3
-5 -2 -15 -11 -22 -12 -10 -14 -10 -9 -1 4 7 1 12 -9 12 -10 0 -13 4 -8 13 4
6 8 18 10 26 1 8 7 17 14 21 16 10 1 33 -17 26 -9 -4 -14 2 -14 16 0 20 -1 20
-18 4 -18 -16 -19 -15 -20 14 0 23 4 30 18 30 10 0 22 5 25 10 6 10 23 4 57
-23z m-1614 5 c3 -11 0 -12 -19 -2 -23 11 -23 10 -5 -4 11 -9 23 -16 27 -16 4
0 10 -26 14 -57 4 -32 13 -76 20 -98 12 -35 19 -93 16 -134 -2 -28 -37 17 -39
51 -1 18 -7 43 -14 55 -9 18 -8 26 3 40 13 16 12 17 -2 5 -15 -11 -18 -8 -28
19 -14 40 -14 42 2 33 8 -6 8 -3 -1 9 -8 9 -11 25 -8 35 4 13 1 22 -9 25 -9 4
-12 13 -8 23 4 12 3 15 -5 10 -7 -4 -12 -1 -12 8 0 19 61 17 68 -2z m-348 -27
c7 4 6 -1 -2 -14 -7 -12 -20 -21 -28 -21 -13 0 -13 1 0 10 13 8 13 10 -1 10
-18 0 -32 24 -22 34 4 3 14 -1 24 -10 10 -9 23 -13 29 -9z m1684 -4 c3 -5 -2
-15 -11 -22 -12 -10 -14 -10 -9 -1 5 8 1 12 -11 12 -15 0 -16 2 -3 10 19 12
27 12 34 1z m-1404 -17 c0 -8 -6 -11 -15 -8 -8 4 -15 9 -15 13 0 4 7 8 15 8 8
0 15 -6 15 -13z m1407 -66 c10 -11 11 -18 4 -23 -6 -3 -11 1 -11 11 0 14 -3
14 -15 4 -12 -10 -19 -10 -27 -2 -9 9 -8 12 6 12 9 0 14 5 11 10 -3 6 -3 15 1
22 6 9 9 8 12 -2 3 -8 11 -22 19 -32z m-1497 2 c0 -5 -7 -15 -15 -24 -18 -17
-20 -30 -3 -20 8 5 9 2 5 -10 -4 -10 -2 -26 3 -37 14 -25 -1 -25 -22 0 -33 39
-41 62 -28 86 8 16 18 21 36 17 13 -2 24 -8 24 -12z m104 -4 c-3 -8 0 -17 5
-21 6 -3 9 -11 5 -16 -3 -6 -12 -3 -20 8 -11 16 -12 11 -8 -37 7 -69 11 -83
24 -75 6 3 7 -1 4 -10 -4 -9 -9 -13 -12 -11 -3 3 -12 0 -20 -7 -13 -9 -14 -9
-8 1 4 7 1 12 -8 12 -19 0 -21 16 -4 26 6 4 8 3 5 -3 -4 -6 0 -14 9 -17 13 -5
15 -2 9 11 -4 10 -8 35 -7 55 0 21 -4 36 -8 33 -15 -9 3 40 19 52 21 16 21 16
15 -1z m220 -32 c10 -25 -1 -29 -14 -5 -6 12 -7 21 -1 21 5 0 12 -7 15 -16z
m6 -67 c0 -18 -2 -19 -10 -7 -13 20 -13 43 0 35 6 -3 10 -16 10 -28z m184 -1
c-3 -7 -14 -12 -24 -13 -11 -1 -18 2 -15 8 4 5 13 9 20 9 9 0 12 6 9 18 -5 13
-4 14 4 3 6 -8 8 -19 6 -25z m59 4 c-22 -21 -24 -20 -17 7 4 14 11 20 20 16
12 -5 12 -8 -3 -23z m977 9 c-7 -11 -14 -18 -17 -15 -8 8 5 36 17 36 7 0 7 -6
0 -21z m-80 -30 c-9 -16 -4 -29 11 -29 4 0 6 7 5 16 -1 19 30 28 41 12 3 -6 1
-8 -4 -5 -10 6 -28 -19 -25 -34 2 -11 -55 -4 -67 9 -9 9 -9 12 1 12 7 0 19 10
27 23 13 21 13 22 -6 4 -11 -9 -22 -14 -26 -11 -3 4 4 15 16 24 25 21 42 7 27
-21z m-669 4 c-5 -10 -13 -27 -16 -38 -4 -11 -9 -15 -11 -9 -6 16 13 64 26 64
7 0 7 -6 1 -17z m50 -78 c-2 -50 -5 -93 -8 -97 -2 -5 -15 -8 -29 -8 -14 0 -23
4 -19 10 3 5 13 6 22 3 11 -4 14 -3 9 6 -13 20 -16 62 -10 124 5 47 9 57 23
55 14 -3 15 -16 12 -93z m-310 40 c5 4 9 1 9 -4 0 -6 -7 -11 -15 -11 -9 0 -15
9 -14 23 1 17 2 18 6 4 2 -9 9 -15 14 -12z m897 -29 c-2 -1 -12 -8 -22 -16
-18 -14 -19 -14 -7 8 7 12 17 20 22 16 6 -3 9 -7 7 -8z m-1354 -31 c-4 -8 -13
-15 -20 -15 -12 0 -12 3 -2 15 17 19 29 19 22 0z m106 0 c19 -23 5 -42 -36
-48 -21 -4 -40 -4 -43 -1 -5 5 49 61 60 63 4 1 12 -6 19 -14z m251 -5 c10 0
20 -4 23 -9 7 -10 -6 -9 -41 3 -13 4 -23 12 -23 19 0 8 3 8 12 -1 7 -7 20 -12
29 -12z m-57 -23 c3 4 6 0 6 -8 0 -11 2 -11 10 1 7 11 10 11 10 2 0 -7 5 -10
12 -6 7 4 8 3 4 -5 -10 -15 -64 -5 -86 15 -10 10 -11 14 -2 14 7 0 10 6 7 13
-4 6 2 2 13 -10 11 -12 22 -19 26 -16z m1006 13 c0 -14 -6 -20 -22 -19 -17 1
-19 2 -5 6 9 2 17 11 17 19 0 8 2 14 5 14 3 0 5 -9 5 -20z m-1300 -25 c0 -8
-4 -15 -9 -15 -13 0 -22 16 -14 24 11 11 23 6 23 -9z m-76 -1 c16 -6 12 -24
-5 -24 -6 0 -8 4 -5 9 4 5 0 12 -6 14 -7 3 -10 6 -6 6 3 1 13 -2 22 -5z m311
-53 c-15 -15 -49 14 -41 35 6 16 9 16 29 -4 13 -14 18 -25 12 -31z m1073 40
c12 0 22 -5 22 -10 0 -6 -9 -8 -20 -6 -11 2 -39 -3 -62 -11 -26 -9 -45 -11
-51 -5 -6 6 -2 9 9 8 11 -1 18 4 16 11 -1 8 2 11 8 7 5 -3 10 -2 10 3 0 5 10
8 23 7 12 -1 32 -3 45 -4z m-1160 -51 c17 -6 32 -16 32 -21 0 -9 -27 -2 -45
12 -6 4 -28 6 -50 5 -32 -3 -36 -2 -22 9 19 14 39 12 85 -5z m1012 -1 c0 4 7
8 15 8 8 0 15 -9 15 -19 0 -13 -7 -18 -25 -18 -14 0 -25 5 -25 10 0 6 -6 10
-14 10 -8 0 -17 4 -21 9 -3 6 6 6 25 1 16 -5 30 -5 30 -1z m-842 -6 c-10 -2
-28 -2 -40 0 -13 2 -5 4 17 4 22 1 32 -1 23 -4z m-273 -14 c4 -5 0 -9 -9 -9
-8 0 -21 -3 -29 -6 -8 -3 -17 1 -20 9 -4 10 3 14 24 15 16 0 31 -4 34 -9z
m1205 2 c0 -5 -11 -11 -25 -13 -14 -3 -25 -2 -25 3 0 4 10 10 23 12 12 2 23 5
25 6 1 0 2 -3 2 -8z m-1110 -10 c25 -7 25 -8 3 -15 -20 -6 -63 7 -63 19 0 7
30 4 60 -4z m900 -1 c0 -6 17 -8 42 -4 25 4 39 3 35 -2 -3 -6 -22 -11 -43 -12
-20 -2 -41 -5 -45 -8 -4 -2 -10 0 -14 6 -3 5 -23 10 -43 11 -28 0 -32 2 -17 8
29 12 85 12 85 1z m-965 -20 c-3 -5 4 -11 17 -11 22 -2 22 -2 -2 -7 l-25 -5
24 -6 24 -6 -26 -12 c-21 -10 -26 -10 -24 0 1 6 -6 11 -16 11 -10 -1 -16 1
-13 4 3 3 -1 14 -11 24 -15 17 -14 18 21 18 22 0 35 -4 31 -10z m645 0 c0 -5
-7 -10 -15 -10 -8 0 -15 5 -15 10 0 6 7 10 15 10 8 0 15 -4 15 -10z m-56 -21
c-3 -5 -11 -9 -19 -9 -8 0 -16 4 -19 9 -3 5 5 9 19 9 14 0 22 -4 19 -9z m-264
-8 c0 -6 -9 -9 -20 -8 -11 1 -20 5 -20 9 0 4 9 8 20 8 11 0 20 -4 20 -9z
M1151 2311 l3 -51 38 0 c24 0 37 4 33 10 -3 6 -17 10 -29 10 -20 0 -23 5 -22
36 1 22 -4 39 -12 41 -10 4 -13 -8 -11 -46z M1057 2343 c-10 -10 -8 -52 3 -74
20 -36 70 -17 70 27 0 38 -50 70 -73 47z m53 -37 c0 -32 -20 -44 -36 -22 -16
23 -7 46 17 46 13 0 19 -7 19 -24z M1262 2308 c-23 -48 -21 -59 6 -35 18 16
20 16 37 -3 10 -11 20 -19 22 -17 6 6 -29 97 -37 97 -4 0 -17 -19 -28 -42z
M1355 2338 c11 -6 21 -12 22 -12 1 -1 -2 -18 -6 -39 -7 -29 -6 -37 5 -37 8 0
15 9 15 20 1 11 3 25 4 30 1 6 3 15 4 21 0 6 10 8 21 4 11 -3 20 -2 20 3 0 12
-35 22 -75 22 -27 -1 -28 -2 -10 -12z M1005 2310 c-7 -30 -25 -42 -25 -16 0
17 -26 40 -33 29 -2 -4 9 -28 24 -52 28 -43 29 -43 37 -20 15 41 22 89 13 89
-5 0 -12 -13 -16 -30z M1527 2265 c-14 -39 -14 -45 -1 -45 8 0 14 9 14 20 0
17 3 18 27 9 22 -8 30 -7 40 7 11 15 10 21 -4 36 -9 10 -26 18 -39 18 -17 0
-25 -10 -37 -45z m63 15 c8 -5 12 -12 8 -15 -9 -9 -48 4 -48 16 0 12 21 11 40
-1z M823 2280 c-13 -6 -23 -18 -23 -30 0 -16 6 -20 35 -20 19 0 35 -4 35 -10
0 -5 -12 -10 -27 -10 -20 0 -24 -3 -16 -11 7 -7 23 -9 38 -5 20 5 26 12 23 29
-2 17 -11 23 -36 25 -34 3 -35 22 -1 22 11 0 17 5 14 10 -7 12 -13 12 -42 0z
M1633 2272 c-3 -9 -12 -32 -19 -49 -11 -28 -11 -33 1 -33 7 0 17 9 20 20 8 26
25 16 25 -15 0 -28 19 -45 21 -18 1 10 1 24 0 31 -1 6 5 12 14 12 29 0 16 36
-20 53 -34 16 -36 16 -42 -1z m47 -22 c8 -5 11 -12 8 -16 -10 -9 -38 3 -38 16
0 12 10 13 30 0z M753 2243 c2 -5 11 -25 21 -45 14 -32 36 -51 36 -33 0 15
-42 85 -51 85 -6 0 -8 -3 -6 -7z M1737 2215 c-19 -14 -30 -55 -19 -72 4 -6 19
-14 34 -18 23 -6 29 -2 43 24 11 23 13 36 6 50 -13 24 -43 32 -64 16z m47 -20
c7 -20 -2 -42 -21 -49 -33 -13 -44 16 -16 46 20 22 29 23 37 3z M670 2200 c0
-6 9 -29 20 -50 20 -40 21 -40 45 -24 30 20 33 39 4 24 -24 -13 -21 -15 -43
28 -17 33 -26 40 -26 22z M1840 2165 c0 -8 -3 -15 -7 -15 -5 0 -16 -14 -25
-30 -19 -33 -14 -38 13 -15 15 14 18 14 32 0 21 -21 34 -19 48 7 10 18 8 24
-7 35 -39 30 -54 35 -54 18z m40 -30 c7 -9 10 -19 6 -22 -8 -9 -38 9 -44 25
-5 17 23 15 38 -3z M604 2118 c8 -47 26 -76 26 -41 0 28 17 38 35 23 9 -8 15
-8 15 -2 0 12 -57 62 -72 62 -7 0 -8 -15 -4 -42z M1184 2090 c-5 -10 -17 -31
-27 -49 -9 -17 -20 -52 -24 -77 -5 -39 -3 -49 12 -60 18 -13 18 -14 1 -14 -13
0 -16 -5 -11 -22 6 -18 5 -21 -5 -11 -7 6 -14 26 -15 43 -3 38 -11 48 -27 32
-8 -8 -8 -12 -1 -12 6 0 10 -12 10 -27 0 -16 -2 -22 -4 -15 -3 6 -8 10 -13 7
-4 -3 -11 2 -14 11 -4 9 -2 13 5 8 8 -4 9 1 4 15 -3 11 -2 21 3 21 6 0 13 7
16 16 4 10 2 13 -6 8 -7 -5 -9 -2 -5 9 3 9 0 18 -9 21 -10 4 -20 -5 -30 -29
-17 -42 -18 -48 -2 -39 7 4 8 3 4 -5 -4 -7 -15 -11 -24 -9 -10 1 -23 -1 -29
-5 -7 -5 -13 -5 -13 0 0 15 15 28 30 28 10 0 14 9 13 30 -2 22 0 26 7 15 8
-12 10 -12 10 5 0 47 -15 51 -79 20 -74 -35 -113 -71 -91 -85 12 -7 12 -12 3
-21 -10 -10 -14 -9 -19 4 -7 20 -24 22 -24 3 0 -14 69 -36 115 -36 14 0 42 7
63 16 36 14 38 14 55 -8 11 -12 26 -23 35 -23 8 0 17 -5 19 -12 6 -17 -46 -12
-56 6 -5 8 -11 9 -15 3 -3 -5 3 -21 14 -33 11 -13 19 -18 20 -11 0 8 17 12 53
12 37 0 48 3 37 10 -8 5 -11 10 -7 10 4 0 3 8 -2 19 -10 17 -7 18 37 9 29 -5
58 -5 76 2 39 13 41 8 12 -23 -14 -15 -22 -27 -19 -27 3 0 0 -7 -7 -15 -7 -8
-28 -15 -47 -15 -32 0 -34 2 -22 18 13 16 13 16 -5 2 -13 -10 -49 -15 -115
-18 -81 -2 -98 0 -108 15 -11 14 -13 15 -13 1 0 -33 24 -36 286 -37 217 -1
263 1 274 13 8 11 9 20 1 33 -9 16 -10 16 -11 -4 0 -18 -6 -23 -24 -23 -14 0
-28 5 -31 10 -4 7 -11 8 -18 2 -13 -11 -107 -20 -107 -11 0 3 9 14 20 24 15
14 32 17 79 13 45 -3 58 -1 51 7 -6 7 -7 15 -3 18 3 4 -2 16 -12 27 -10 11
-19 34 -21 52 -3 29 -2 31 9 14 21 -34 88 -94 115 -104 35 -12 109 -7 127 8
40 33 -7 98 -51 71 -17 -11 -17 -11 4 -6 28 8 60 -14 40 -26 -10 -7 -10 -9 1
-9 11 0 11 -3 1 -15 -14 -17 -40 -20 -40 -5 0 6 -4 10 -10 10 -5 0 -10 -8 -10
-17 0 -15 -2 -16 -9 -3 -6 8 -8 17 -6 21 3 3 -8 5 -22 3 -27 -3 -88 38 -76 50
4 3 0 6 -7 6 -7 0 -23 11 -36 26 -33 34 -30 43 2 10 15 -14 31 -26 36 -26 12
0 -93 120 -107 122 -5 0 -14 2 -20 3 -5 2 -18 3 -28 4 -10 0 -16 5 -12 10 3 6
-5 15 -17 22 -19 9 -21 9 -10 -2 6 -7 12 -20 12 -28 0 -10 -3 -12 -8 -6 -12
17 -35 17 -29 1 4 -9 2 -18 -4 -21 -5 -4 -3 -13 6 -21 8 -9 13 -19 10 -24 -9
-14 16 -23 28 -11 18 18 31 13 16 -6 -11 -15 -11 -16 1 -5 21 18 34 15 19 -5
-13 -16 -12 -17 4 -4 9 8 15 16 12 19 -3 3 1 12 8 20 10 13 9 14 -9 4 -28 -15
-54 1 -28 17 18 11 18 12 -2 6 -13 -3 -21 -1 -21 8 0 9 12 13 33 13 26 -1 34
-6 39 -24 3 -13 3 -28 -1 -34 -5 -7 -2 -8 6 -3 10 6 11 2 6 -18 -4 -16 -2 -27
6 -29 7 -3 5 -7 -6 -11 -10 -4 -15 -3 -11 3 3 6 1 10 -6 10 -8 0 -8 5 2 18 11
14 11 15 -1 5 -18 -16 -22 -43 -7 -43 17 -1 -32 -40 -49 -40 -8 0 -14 5 -14
10 0 6 4 10 10 10 5 0 14 10 21 21 7 13 7 19 1 15 -6 -3 -13 -2 -17 4 -3 5
-12 10 -18 10 -7 0 -6 -4 3 -11 13 -9 13 -10 0 -6 -8 2 -16 9 -16 15 -3 25 -5
27 -15 12 -9 -13 -10 -13 -6 0 2 8 -2 27 -9 41 -7 15 -10 30 -6 35 4 5 -3 1
-14 -9 -17 -14 -23 -15 -27 -5 -3 8 -6 6 -6 -5 -1 -14 4 -17 22 -12 18 6 20 5
10 -6 -7 -7 -13 -24 -12 -38 l1 -26 8 25 c7 20 8 21 9 5 0 -11 -6 -28 -14 -38
-7 -11 -11 -26 -8 -35 4 -10 2 -13 -5 -8 -7 4 -12 15 -12 24 0 9 -5 24 -10 32
-8 11 -9 8 -4 -12 6 -25 3 -28 -21 -28 -15 0 -24 4 -20 10 4 6 1 17 -5 25 -7
9 -8 15 -2 15 12 0 22 49 11 56 -5 3 -9 9 -9 14 0 13 51 70 63 70 6 0 -1 -12
-16 -28 -19 -20 -24 -31 -17 -42 8 -13 12 -12 25 7 10 14 24 20 40 19 21 -3
23 -1 14 16 -8 15 -14 17 -22 9 -17 -17 -31 -13 -16 5 7 8 21 13 31 11 10 -3
21 -1 24 4 3 6 -14 9 -43 8 -35 -2 -52 -8 -59 -19z m131 -60 c-2 -11 1 -20 6
-20 6 0 7 -5 3 -11 -4 -8 -9 -7 -15 2 -4 7 -5 17 -3 21 3 4 0 8 -6 8 -6 0 -8
5 -5 10 11 17 24 11 20 -10z m-318 -42 c2 -18 0 -20 -7 -8 -8 12 -10 10 -10
-7 0 -26 -18 -31 -27 -8 -3 9 2 22 13 30 26 19 29 19 31 -7z m-51 -63 c-1 -28
-25 -25 -44 5 -11 18 -12 21 -2 13 8 -7 19 -13 25 -13 5 0 4 4 -4 9 -12 8 -12
11 0 24 12 13 15 13 20 -2 3 -9 6 -25 5 -36z m470 -10 c-1 -8 -6 -18 -11 -22
-4 -4 -5 -2 0 6 5 9 4 12 -3 7 -14 -8 5 -44 22 -42 6 0 12 -3 14 -9 3 -15 -97
-14 -110 2 -8 10 -6 13 7 13 9 0 30 14 45 30 31 34 39 37 36 15z m-95 -109
c-5 -6 -22 -13 -37 -14 -20 -1 -24 1 -16 11 6 6 22 13 37 13 19 2 23 -1 16
-10z M1903 2080 c-28 -34 -31 -61 -5 -37 14 12 19 13 29 2 8 -9 8 -16 1 -23
-13 -13 -2 -46 12 -37 5 3 10 15 10 26 0 10 7 19 15 19 27 0 29 30 5 56 -30
30 -40 30 -67 -6z m57 -5 c20 -24 8 -37 -18 -19 -12 8 -20 20 -17 25 9 13 21
11 35 -6z M1078 2069 c-38 -19 -57 -39 -38 -39 6 0 8 -5 4 -12 -5 -8 -2 -9 10
-5 10 4 19 7 22 7 2 0 1 6 -2 14 -3 7 1 16 10 19 8 3 17 -1 20 -9 3 -9 1 -12
-4 -9 -6 3 -10 1 -10 -4 0 -6 6 -11 14 -11 22 0 46 29 39 47 -4 10 -2 14 5 9
6 -3 13 -3 16 2 9 15 -49 10 -86 -9z M481 2046 c1 -6 5 -22 9 -36 6 -19 8 -20
9 -6 1 12 6 16 16 12 8 -3 15 -1 15 3 0 5 -6 12 -12 14 -7 3 -3 6 10 6 12 1
22 5 22 11 0 5 -16 9 -35 8 -19 -1 -35 -6 -34 -12z M443 2039 c9 -5 17 -15 17
-21 0 -9 -3 -9 -12 0 -23 23 -29 12 -12 -20 l17 -33 13 30 c7 17 8 31 3 33 -5
2 -7 8 -3 13 3 5 -5 9 -18 9 -20 -1 -21 -2 -5 -11z M556 2034 c-16 -11 -17
-17 -8 -26 16 -16 16 -58 0 -58 -9 0 -9 -3 0 -12 15 -15 16 -31 0 -22 -7 5 -8
3 -2 -7 4 -8 10 -23 11 -34 3 -16 1 -17 -7 -5 -5 8 -10 11 -10 6 0 -5 8 -18
17 -28 21 -23 3 -49 -20 -29 -12 9 -14 7 -13 -11 0 -12 8 -23 16 -25 13 -4 13
-3 0 7 -12 9 -9 10 13 5 l29 -6 -6 73 c-3 40 -5 81 -6 91 -1 10 9 27 22 37 22
18 22 19 3 21 -11 1 -23 1 -27 0 -13 -2 -9 17 5 22 6 2 10 7 7 10 -3 3 -14 -1
-24 -9z M1987 2002 c-26 -28 -35 -52 -19 -52 5 0 23 18 41 40 37 46 20 56 -22
12z M1112 2011 c-9 -5 -11 -17 -6 -37 l8 -29 7 35 c9 40 8 42 -9 31z M1186
1994 c-3 -9 -4 -19 -1 -22 3 -3 5 1 5 9 0 11 2 11 10 -1 5 -8 10 -10 10 -5 0
6 -4 16 -9 23 -6 11 -10 10 -15 -4z M2022 1959 c-24 -22 -30 -35 -23 -42 8 -8
15 -5 25 8 8 11 12 23 10 27 -3 4 1 6 8 3 7 -3 19 4 26 15 20 32 -7 25 -46
-11z M2076 1941 c-3 -4 -1 -23 4 -41 5 -19 8 -36 5 -38 -8 -9 -25 10 -25 29 0
12 -5 19 -12 16 -30 -10 9 -70 42 -64 11 2 14 14 12 46 -2 27 1 40 8 36 5 -3
10 -15 10 -25 0 -10 5 -22 10 -25 15 -9 12 37 -4 58 -14 18 -41 23 -50 8z
M474 1895 c0 -14 6 -25 14 -25 7 0 11 -4 8 -9 -3 -5 1 -11 9 -15 10 -3 15 1
15 12 0 10 5 23 11 29 8 8 7 13 -2 18 -7 5 -10 4 -6 -2 4 -6 -2 -13 -13 -16
-11 -3 -23 0 -27 5 -3 6 -1 8 5 4 6 -3 14 -1 18 6 4 7 4 10 -1 6 -4 -4 -13 -4
-20 2 -8 6 -11 2 -11 -15z M990 1854 c-35 -16 -35 -16 -11 -25 35 -14 53 -8
57 19 4 26 1 26 -46 6z M875 1740 c-4 -6 -11 -8 -16 -4 -5 3 -9 2 -8 -3 2 -4
-4 -20 -11 -35 -24 -50 24 -109 48 -60 5 9 7 22 5 29 -2 6 6 18 18 27 22 15
22 15 -7 12 -22 -2 -30 -9 -32 -27 -2 -13 -8 -28 -13 -34 -7 -7 -9 0 -5 20 2
17 5 33 5 38 1 4 16 16 34 27 28 17 29 20 10 20 -12 0 -25 -5 -28 -10z M1045
1740 c28 -12 37 -12 30 0 -3 6 -16 10 -28 9 -21 0 -21 -1 -2 -9z M1559 1723
c-30 -37 -40 -57 -15 -30 26 28 56 31 56 5 0 -18 -15 -39 -26 -37 -12 3 -64
-19 -64 -26 0 -9 44 6 51 16 3 5 11 -8 18 -29 24 -68 44 -76 108 -45 34 16 36
16 49 -1 14 -20 9 -42 -12 -50 -9 -3 -12 -1 -9 4 10 16 -12 11 -30 -6 -9 -10
-14 -25 -12 -36 4 -12 -8 -32 -34 -59 -33 -35 -39 -38 -39 -20 0 12 3 20 8 19
10 -3 52 25 52 34 0 23 -66 -25 -72 -52 -2 -8 -9 -20 -16 -25 -8 -7 -12 -23
-10 -40 l5 -30 8 33 c4 17 12 32 17 32 6 0 7 -7 2 -17 -4 -10 -9 -40 -12 -67
-3 -41 -2 -48 12 -43 8 3 18 1 22 -5 4 -7 3 -8 -4 -4 -16 10 -14 -5 3 -28 15
-19 15 -19 40 4 14 13 21 26 17 29 -5 3 -12 23 -16 43 -9 49 24 119 52 111 12
-3 30 7 50 27 18 18 37 28 43 24 8 -4 9 -3 5 4 -4 6 0 22 9 35 15 24 17 99 2
90 -5 -3 -6 -12 -2 -21 9 -24 -13 -78 -39 -91 -33 -18 -71 -11 -71 14 0 15 8
21 35 25 31 4 35 9 38 36 6 58 -70 91 -104 46 -14 -20 -44 -8 -44 16 0 10 11
24 24 32 42 22 25 85 -20 74 -29 -7 -52 5 -33 17 11 6 9 9 -7 9 -11 0 -27 -8
-35 -17z m101 -37 c0 -25 -12 -46 -26 -46 -14 0 -20 41 -7 53 12 12 33 7 33
-7z m-48 -41 c3 -14 1 -25 -3 -25 -5 0 -9 11 -9 25 0 14 2 25 4 25 2 0 6 -11
8 -25z m123 -215 c0 -9 -10 -15 -25 -15 -51 -1 -90 -109 -60 -166 15 -27 -11
-26 -28 1 -16 26 -24 88 -12 95 6 4 10 13 10 22 0 9 12 31 26 50 21 28 32 34
57 31 20 -2 32 -8 32 -18z M1126 1705 c22 -17 40 -19 49 -5 3 5 0 7 -8 4 -8
-3 -18 -1 -22 5 -3 6 -14 11 -23 11 -13 0 -13 -2 4 -15z M945 1675 c-20 -20
-26 -33 -23 -56 5 -33 1 -36 -18 -11 -13 16 -14 16 -8 -2 4 -10 2 -21 -6 -26
-9 -6 -10 -12 -1 -26 10 -18 10 -18 11 0 0 17 4 16 33 -11 43 -41 69 -48 110
-28 50 23 71 80 47 126 -14 25 -8 24 38 -4 20 -13 63 -34 95 -47 35 -15 57
-30 57 -39 0 -9 3 -12 8 -6 4 6 45 10 92 10 63 0 97 5 128 19 52 24 54 37 5
30 -76 -11 -253 -13 -253 -3 0 6 -4 8 -8 5 -5 -3 -49 14 -98 38 -49 25 -110
47 -136 51 -42 6 -49 4 -73 -20z m37 -1 c-23 -16 -30 -44 -11 -44 5 0 8 4 4 9
-7 13 27 31 58 31 55 0 78 -111 24 -119 -81 -12 -117 9 -117 70 0 37 26 69 54
69 6 0 0 -7 -12 -16z M987 1623 c-10 -16 31 -53 51 -46 14 6 13 8 -7 13 -13 3
-27 14 -31 25 -4 10 -9 14 -13 8z M1230 1655 c14 -8 34 -14 45 -14 14 0 10 4
-14 14 -43 19 -64 19 -31 0z M1710 1666 c0 -2 19 -13 43 -25 l42 -20 -28 24
c-24 22 -57 33 -57 21z M1415 1644 c-32 -14 -17 -17 25 -5 14 4 20 9 15 13 -6
3 -23 -1 -40 -8z M1318 1633 c12 -2 30 -2 40 0 9 3 -1 5 -23 4 -22 0 -30 -2
-17 -4z M1055 1443 c-79 -104 -122 -168 -70 -105 15 18 30 30 35 27 4 -3 13 2
20 10 7 8 16 12 21 10 4 -3 13 4 19 15 8 14 21 20 45 20 32 0 35 -2 35 -30 0
-27 -3 -30 -32 -31 -28 -1 -29 -2 -8 -6 14 -2 30 -10 35 -18 8 -10 13 -5 21
21 6 18 7 31 3 28 -5 -3 -8 10 -7 28 1 41 -11 98 -26 120 -10 14 -23 1 -91
-89z m95 52 c0 -9 -9 -15 -25 -15 -18 0 -23 4 -19 15 4 8 15 15 25 15 10 0 19
-7 19 -15z m7 -45 c2 -17 -4 -20 -36 -20 -36 0 -67 -19 -56 -33 3 -4 2 -5 -2
-2 -3 3 -15 -2 -25 -12 -10 -9 -18 -12 -18 -7 1 16 57 84 64 77 3 -3 6 -1 6 5
0 7 14 12 33 12 26 0 33 -4 34 -20z M1240 1500 c-7 -17 -10 -33 -7 -36 3 -3 8
4 12 15 4 15 15 21 38 22 28 2 29 2 7 6 -14 3 -28 9 -31 15 -3 5 -12 -5 -19
-22z M1370 1485 c-7 -9 -10 -18 -6 -22 3 -3 6 -1 6 5 0 6 8 12 18 14 11 2 13
6 6 11 -7 4 -17 0 -24 -8z M1360 1441 c0 -4 10 -8 23 -7 13 1 21 -4 19 -12 -1
-8 2 -11 8 -7 22 14 10 35 -20 35 -16 0 -30 -4 -30 -9z M1260 1430 l-35 -7 38
-2 c20 0 37 4 37 9 0 6 -1 9 -2 9 -2 -1 -19 -5 -38 -9z M1313 1384 c-5 -13 -7
-13 -14 -2 -6 9 -9 6 -9 -10 0 -21 -4 -23 -42 -21 -24 2 -43 -1 -45 -8 -3 -7
11 -9 43 -5 l47 5 -7 -36 c-5 -26 -2 -39 10 -52 23 -23 40 -4 23 26 -20 37
-21 66 -3 94 9 14 13 25 10 25 -4 0 -9 -7 -13 -16z M1355 1345 c1 -27 -2 -52
-6 -55 -4 -3 -1 -14 7 -24 13 -18 14 -17 14 16 0 20 4 48 9 61 10 26 47 42 55
23 2 -6 5 -2 5 9 1 17 -5 20 -41 20 l-43 0 0 -50z M1440 1342 c0 -29 52 -102
74 -102 6 0 -2 12 -18 26 -15 15 -34 41 -42 58 -7 17 -13 25 -14 18z M831
1308 c6 -12 15 -33 20 -47 5 -17 8 -20 8 -8 1 18 -25 77 -35 77 -2 0 1 -10 7
-22z M1548 1303 c6 -2 12 -9 12 -14 0 -6 -5 -7 -12 -3 -7 5 -8 3 -2 -7 9 -15
14 -32 17 -66 1 -13 5 -23 8 -23 14 0 17 30 7 62 -6 18 -12 39 -14 46 -2 6 -9
12 -16 11 -10 0 -10 -2 0 -6z M941 1286 c-7 -8 -8 -17 -3 -20 6 -3 15 1 21 8
7 8 8 17 3 20 -6 3 -15 -1 -21 -8z M1736 1246 c3 -9 11 -16 16 -16 13 0 5 23
-10 28 -7 2 -10 -2 -6 -12z M950 1239 c0 -5 11 -9 24 -9 14 0 31 -6 39 -14 7
-8 39 -17 70 -21 49 -6 57 -5 57 9 0 20 16 21 23 2 4 -10 24 -13 78 -11 62 1
69 0 53 -12 -10 -7 -13 -13 -8 -13 6 0 15 5 22 12 6 6 29 12 52 14 22 2 47 10
56 19 19 19 34 17 -191 16 -99 -1 -201 3 -227 7 -27 6 -48 6 -48 1z M2034
1242 c4 -7 13 -12 20 -12 18 0 26 -33 13 -55 -7 -14 -7 -16 4 -9 11 6 12 5 3
-7 -18 -22 11 -109 35 -109 27 0 46 26 26 34 -9 3 -13 2 -10 -4 3 -6 2 -10 -4
-10 -20 0 -32 42 -28 99 3 48 1 60 -12 64 -9 3 -25 8 -35 13 -14 5 -17 4 -12
-4z M800 1172 c0 -50 -4 -62 -25 -82 -22 -21 -29 -23 -46 -12 -18 12 -20 11
-17 -5 9 -46 76 -11 103 53 18 43 17 104 -1 104 -10 0 -14 -15 -14 -58z M1979
1216 c7 -8 26 -14 43 -14 24 1 26 3 14 10 -9 5 -29 12 -43 14 -22 4 -24 3 -14
-10z M1822 1200 c-12 -5 -32 -19 -45 -31 l-22 -22 36 21 c20 12 38 19 41 16 3
-2 8 2 11 11 4 8 5 15 4 14 -1 0 -12 -4 -25 -9z M889 1187 c5 -5 24 -4 42 2
l34 10 -42 -2 c-23 -1 -38 -6 -34 -10z M858 1160 c-3 -19 -9 -44 -13 -55 -7
-17 -5 -17 9 3 10 13 16 35 14 55 l-3 32 -7 -35z M1801 1144 c-27 -19 -28 -39
-2 -24 16 8 23 6 34 -11 17 -23 32 -10 22 20 -8 27 -29 32 -54 15z M2179 1113
c-13 -15 -12 -15 6 -6 11 6 27 13 35 16 10 4 8 6 -6 6 -12 1 -28 -6 -35 -16z
M165 1068 c1 -13 -2 -28 -7 -35 -7 -8 -4 -11 9 -10 13 1 18 9 17 31 0 16 -5
31 -11 33 -5 2 -9 -7 -8 -19z M1480 1079 c0 -4 -8 -10 -17 -12 -12 -3 -9 -5 7
-5 14 0 34 3 45 7 17 7 17 8 -8 13 -15 3 -27 2 -27 -3z M2000 1042 c-20 -16
-21 -20 -7 -25 11 -4 21 1 28 14 15 29 6 33 -21 11z M187 1018 c-11 -11 -25
-17 -34 -14 -21 8 -55 -3 -47 -15 3 -5 10 -6 16 -2 10 5 40 7 93 4 8 -1 12 -7
9 -16 -4 -8 -1 -15 5 -15 11 0 14 7 14 35 0 28 -3 35 -13 35 -5 0 -7 -7 -3
-16 4 -12 2 -15 -8 -12 -8 3 -13 12 -11 22 4 20 2 19 -21 -6z M1645 970 c-19
-7 -19 -8 5 -18 26 -10 50 -6 50 8 0 12 -33 18 -55 10z M1260 923 c0 -6 7 -13
15 -17 8 -3 12 -12 9 -21 -3 -8 -4 -15 -1 -15 15 0 13 31 -4 46 -10 9 -19 12
-19 7z M1060 880 c-13 -8 -12 -10 3 -10 10 0 29 -7 43 -16 13 -9 27 -14 31
-10 3 3 0 6 -8 6 -9 0 -4 8 11 20 l25 21 -28 -12 c-21 -10 -30 -10 -39 -1 -14
14 -19 15 -38 2z M1475 880 c-26 -7 -25 -8 17 -9 26 0 50 -5 53 -11 6 -10 62
-8 70 3 3 4 2 5 -1 2 -4 -2 -15 0 -25 5 -25 14 -79 18 -114 10z M1312 867 c10
-8 15 -17 11 -20 -3 -4 -1 -7 5 -7 20 0 13 19 -10 30 -21 10 -21 10 -6 -3z
M1370 829 c-28 -28 -50 -52 -48 -54 2 -2 29 21 60 51 31 30 53 54 48 54 -4 0
-31 -23 -60 -51z M988 854 c-16 -8 -28 -17 -28 -20 0 -2 12 2 28 9 15 8 34 17
42 20 13 5 13 5 0 6 -8 0 -27 -7 -42 -15z M905 840 c-30 -8 -30 -8 8 -9 20 0
37 4 37 9 0 11 -2 11 -45 0z M830 820 c-21 -7 -21 -8 -5 -9 11 0 27 4 35 9 18
11 5 11 -30 0z M1184 821 c3 -5 -1 -11 -9 -15 -8 -3 -15 -1 -15 4 0 6 -5 10
-12 10 -18 0 7 -23 29 -26 9 -2 28 -5 41 -9 15 -4 21 -2 17 4 -4 7 6 9 27 6
l33 -5 -35 11 c-19 6 -45 15 -58 20 -14 5 -21 5 -18 0z M1770 710 c-1 -3 -3
-16 -6 -30 -3 -21 -2 -22 7 -7 6 10 8 23 5 30 -2 7 -5 10 -6 7z M1460 601
c-25 -48 -1 -105 52 -124 19 -7 117 16 127 30 3 4 19 16 34 26 15 10 25 22 21
28 -3 6 -11 3 -20 -8 -7 -10 -14 -13 -14 -6 0 8 -13 12 -36 10 -45 -2 -56 18
-20 34 14 7 26 16 26 21 0 5 -13 1 -29 -8 -29 -17 -48 -69 -29 -80 4 -3 8 -2
8 3 0 4 11 8 25 8 33 0 32 -10 -2 -23 -51 -19 -83 -23 -104 -12 -19 11 -19 12
12 33 18 12 35 29 37 37 4 12 1 11 -15 -2 -39 -35 -95 -6 -59 30 12 13 18 13
31 2 13 -11 15 -10 9 4 -8 22 -41 20 -54 -3z M1720 595 c-7 -9 -11 -18 -8 -20
3 -3 11 1 18 10 7 9 11 18 8 20 -3 3 -11 -1 -18 -10z M1417 313 c-3 -5 10 -8
29 -9 21 0 30 3 22 8 -16 10 -45 10 -51 1z M1551 293 c1 -17 3 -21 6 -10 5 19
18 22 28 7 4 -7 13 -7 26 0 20 11 28 -3 8 -15 -6 -4 -8 -14 -5 -22 5 -11 2
-13 -9 -9 -9 3 -18 -1 -21 -9 -7 -17 -24 -20 -24 -4 0 20 -26 38 -41 28 -11
-7 -9 -10 9 -15 15 -5 22 -14 22 -32 l0 -25 24 23 c17 15 33 21 50 18 29 -6
33 3 11 22 -12 10 -12 15 2 36 12 19 13 24 2 24 -8 0 -20 -4 -28 -9 -9 -6 -19
-4 -28 5 -22 22 -33 17 -32 -13z M1216 295 c19 -15 19 -15 -1 -8 -25 8 -18 0
13 -16 22 -12 23 -11 13 7 -6 11 -7 22 -4 26 3 3 -4 6 -17 6 -23 0 -23 0 -4
-15z M756 254 c-6 -24 -2 -44 8 -33 9 11 15 59 7 59 -5 0 -12 -12 -15 -26z
M980 265 c0 -10 -10 -15 -27 -15 -24 0 -25 -1 -10 -18 10 -11 14 -26 10 -41
-5 -21 -4 -23 25 -17 18 4 33 3 37 -3 12 -20 27 -12 22 11 -4 14 0 26 11 34
16 12 15 13 -8 22 -26 10 -42 6 -24 -6 12 -8 14 -52 2 -52 -4 0 -10 5 -13 11
-4 6 -13 8 -21 5 -8 -3 -14 -1 -14 3 0 5 -3 17 -7 27 -4 12 -3 15 6 10 8 -5
14 -1 18 12 3 14 10 19 21 15 10 -4 13 -2 8 5 -10 17 -36 15 -36 -3z M1380
255 c0 -8 -4 -16 -10 -16 -5 -1 -14 -2 -19 -3 -21 -3 -21 -15 -1 -26 16 -9 20
-18 16 -36 -7 -27 5 -32 24 -9 8 9 22 12 41 8 28 -5 41 9 19 22 -6 4 -8 16 -4
28 6 19 5 20 -10 8 -13 -11 -14 -17 -4 -28 10 -12 9 -14 -7 -12 -11 2 -26 0
-32 -4 -8 -5 -13 -3 -13 7 0 8 -5 16 -12 18 -8 3 -4 12 9 25 18 18 22 19 27 6
4 -9 9 -13 13 -10 7 8 -15 37 -28 37 -5 0 -9 -7 -9 -15z M1187 239 c-4 -16
-11 -20 -26 -16 -27 7 -27 -4 -1 -21 11 -7 20 -23 20 -37 0 -27 9 -32 28 -13
9 9 15 9 24 0 7 -7 18 -12 25 -12 10 0 10 5 1 25 -8 19 -8 28 2 40 7 8 9 15 4
16 -5 0 -19 2 -32 5 -14 2 -21 0 -17 -6 3 -5 13 -10 22 -10 12 0 13 -3 4 -13
-7 -9 -7 -17 0 -24 6 -6 0 -10 -20 -10 -17 0 -28 5 -24 10 3 6 -2 16 -12 24
-11 7 -14 13 -7 13 15 0 35 37 23 44 -5 3 -11 -4 -14 -15z M785 240 c-4 -6 -3
-9 2 -8 4 1 18 -3 31 -10 18 -11 22 -10 22 2 0 10 -6 13 -15 10 -8 -4 -15 -1
-15 5 0 14 -17 14 -25 1z M374 1629 c-2 -4 4 -6 16 -4 11 2 22 -1 26 -7 4 -6
10 -5 15 3 6 10 9 11 9 2 0 -7 8 -13 17 -13 12 0 14 3 6 11 -13 13 -82 19 -89
8z M1890 825 c-1 -5 -2 -14 -1 -19 1 -4 -4 -14 -10 -22 -14 -17 -8 -26 10 -15
7 5 11 20 8 37 -2 16 -5 25 -7 19z"/>
</g>
</svg>
