<?xml version="1.0" standalone="no"?>
<!DOCTYPE svg PUBLIC "-//W3C//DTD SVG 20010904//EN"
 "http://www.w3.org/TR/2001/REC-SVG-20010904/DTD/svg10.dtd">
<svg version="1.0" xmlns="http://www.w3.org/2000/svg"
 width="471.000000pt" height="471.000000pt" viewBox="0 0 471.000000 471.000000"
 preserveAspectRatio="xMidYMid meet">
<metadata>
Created by potrace 1.16, written by Peter Selinger 2001-2019
</metadata>
<g transform="translate(0.000000,471.000000) scale(0.100000,-0.100000)"
fill="#000000" stroke="none">
<path d="M2311 4688 c-32 -33 -35 -76 -12 -136 20 -51 18 -91 -8 -106 -5 -3
-12 -20 -16 -36 -6 -28 -10 -30 -53 -30 -64 0 -237 -26 -336 -49 -303 -72
-604 -225 -843 -428 -40 -34 -68 -51 -76 -46 -6 4 -32 15 -57 23 -33 11 -48
23 -58 45 -28 66 -39 81 -74 100 -74 40 -129 -15 -92 -91 18 -37 31 -47 99
-76 22 -10 34 -25 45 -58 8 -25 19 -51 23 -57 5 -8 -12 -36 -46 -76 -203 -239
-356 -540 -428 -843 -23 -99 -49 -272 -49 -336 0 -43 -2 -47 -30 -53 -16 -4
-33 -11 -36 -16 -15 -26 -55 -28 -106 -8 -60 23 -103 20 -136 -12 -28 -26 -28
-60 1 -86 36 -34 78 -37 137 -12 l51 22 59 -29 c58 -29 59 -29 59 -73 1 -68
30 -246 57 -355 75 -302 214 -576 411 -811 l58 -70 -20 -59 c-21 -61 -25 -66
-87 -90 -93 -37 -104 -160 -14 -160 47 0 87 31 106 81 20 52 38 73 64 73 11 0
34 7 49 15 27 14 29 13 100 -46 103 -87 274 -198 405 -264 207 -103 494 -183
717 -201 l90 -7 28 -57 29 -57 -22 -52 c-26 -59 -22 -102 12 -138 29 -30 62
-29 87 4 34 42 36 70 11 130 l-22 54 28 58 29 58 90 7 c385 30 819 210 1123
465 46 39 77 59 85 54 6 -4 32 -15 57 -23 33 -11 48 -23 58 -45 28 -65 38 -79
73 -97 47 -24 83 -16 99 23 10 24 9 34 -7 66 -19 37 -33 47 -98 75 -22 10 -34
25 -45 58 -8 25 -19 51 -23 57 -5 8 15 39 54 85 255 304 435 738 465 1123 l7
90 58 29 58 28 54 -22 c60 -25 88 -23 130 11 33 25 34 58 4 87 -36 34 -79 38
-138 12 l-52 -22 -57 29 -57 28 -7 90 c-18 223 -98 510 -201 717 -66 131 -177
302 -264 405 -59 71 -60 73 -46 100 8 15 15 38 15 49 0 26 21 44 73 64 50 19
81 59 81 106 0 90 -123 79 -160 -14 -24 -62 -29 -66 -90 -87 l-59 -20 -70 58
c-235 197 -509 336 -811 411 -109 27 -287 56 -355 57 -44 0 -44 1 -73 59 l-29
59 22 51 c15 36 20 61 15 84 -13 70 -73 98 -113 54z m78 -24 c26 -33 26 -53 0
-111 -23 -50 -20 -81 12 -121 34 -43 26 -52 -46 -52 -36 0 -65 4 -65 9 0 5 12
32 27 61 l26 51 -21 45 c-26 53 -27 75 -7 114 19 37 47 38 74 4z m306 -329
c349 -58 685 -217 970 -458 102 -86 119 -103 226 -227 199 -231 354 -544 423
-851 68 -306 65 -635 -9 -929 -180 -719 -746 -1285 -1465 -1465 -216 -54 -508
-72 -725 -45 -886 110 -1590 781 -1741 1660 -32 182 -36 432 -10 613 43 303
153 589 322 839 156 231 321 396 552 552 428 289 935 397 1457 311z m-1924
-331 c21 -10 38 -33 54 -69 23 -52 47 -75 79 -75 8 0 27 -5 42 -10 l27 -11
-48 -49 c-27 -27 -52 -47 -56 -44 -5 2 -11 21 -15 42 -10 58 -22 72 -79 98
-64 28 -94 71 -76 110 12 28 30 30 72 8z m3233 0 c9 -8 16 -21 16 -27 0 -29
-39 -71 -90 -95 -42 -21 -57 -34 -64 -57 -5 -16 -13 -43 -19 -58 l-10 -28 -49
48 -49 48 28 12 c15 6 43 17 61 24 26 9 39 24 57 65 31 71 86 102 119 68z
m-3674 -1649 c0 -72 -9 -80 -52 -46 -40 32 -71 35 -121 12 -53 -24 -70 -26
-100 -10 -46 25 -50 62 -7 84 39 20 61 19 114 -7 l45 -21 48 25 c71 39 73 37
73 -37z m4116 39 l45 -26 59 22 c63 23 97 22 124 -6 25 -24 19 -52 -14 -69
-38 -20 -52 -19 -107 6 -50 23 -81 20 -121 -12 -43 -34 -52 -26 -52 46 0 40 4
65 11 65 6 0 30 -12 55 -26z m-3503 -1530 c-15 -7 -41 -16 -58 -20 -23 -7 -36
-22 -58 -66 -29 -61 -72 -94 -107 -83 -53 17 -23 96 48 127 50 22 81 52 82 80
0 9 5 29 12 43 l12 26 48 -48 49 -48 -28 -11z m2913 58 c10 -58 21 -71 79 -97
64 -28 94 -72 76 -111 -22 -50 -92 -16 -126 61 -23 52 -47 75 -79 75 -8 0 -27
5 -42 10 l-27 11 48 49 c27 27 52 47 56 44 5 -2 11 -21 15 -42z m-1436 -606
c0 -7 -9 -24 -19 -38 -32 -40 -35 -71 -12 -121 25 -55 26 -69 6 -107 -17 -33
-45 -39 -69 -14 -29 28 -30 63 -6 122 l24 56 -27 48 c-15 26 -27 53 -27 58 0
6 28 10 65 10 48 0 65 -4 65 -14z M2292 4267 c17 -6 33 -25 42 -46 16 -38 20
-25 10 28 -6 28 -10 31 -43 30 l-36 -1 27 -11z M2141 4218 c4 -29 10 -94 13
-145 l6 -92 -28 -4 c-15 -3 -2 -4 28 -3 40 1 54 5 52 14 -1 7 -5 40 -9 73 l-6
59 31 0 c24 0 35 -7 47 -27 l16 -28 -5 34 c-4 18 -6 48 -7 65 0 17 -3 24 -6
16 -10 -26 -35 -50 -53 -50 -13 0 -19 12 -24 46 -10 78 -9 82 27 87 18 2 6 4
-29 5 l-61 2 8 -52z M2588 4253 c23 -4 23 -8 18 -66 l-5 -62 13 60 12 60 36
-75 c19 -41 52 -113 73 -159 42 -91 48 -90 58 9 3 30 3 42 -1 25 -7 -27 -11
-20 -61 88 -30 64 -59 117 -65 118 -6 0 -31 2 -56 4 -25 2 -34 1 -22 -2z
M1868 4214 c-16 -8 -37 -32 -48 -54 -38 -75 -17 -163 49 -207 45 -30 67 -30
36 1 -29 29 -45 80 -52 167 -5 61 -4 67 18 83 31 21 82 21 101 -1 19 -22 36
-73 48 -147 11 -67 0 -101 -39 -115 -22 -8 -23 -10 -5 -10 21 -1 63 38 83 76
16 32 13 103 -7 143 -35 70 -120 99 -184 64z M2953 4180 c9 -6 17 -16 17 -23
0 -7 -20 -64 -44 -127 -40 -103 -47 -115 -67 -112 -36 4 -20 -4 91 -47 95 -37
130 -47 130 -37 0 2 7 21 16 42 l16 39 -25 -27 c-18 -19 -36 -28 -57 -28 -34
0 -100 24 -100 37 0 5 22 66 49 135 l49 127 -27 9 c-63 23 -67 24 -48 12z
M3070 4134 c52 -23 70 -44 70 -78 1 -33 11 -24 24 22 6 19 2 25 -36 41 -55 23
-106 37 -58 15z M1488 4069 c-21 -11 -38 -22 -38 -25 0 -2 9 0 20 6 11 6 26 8
33 4 6 -4 9 -4 5 1 -4 4 0 14 10 21 24 19 13 16 -30 -7z M3227 3903 c-14 -86
-24 -159 -22 -161 3 -3 29 14 60 37 62 47 63 45 45 -49 -6 -29 -8 -55 -6 -57
2 -2 16 6 31 19 20 18 27 34 30 69 5 81 14 103 55 132 22 16 44 25 50 22 5 -3
10 -4 10 -2 0 2 -42 31 -92 63 -51 32 -102 64 -114 71 -20 13 -21 10 -47 -144z
m104 99 c22 -18 22 -21 10 -93 -11 -65 -17 -77 -44 -96 -17 -13 -33 -20 -35
-18 -7 7 30 225 38 225 4 0 18 -8 31 -18z m101 -63 c20 -11 20 -12 -8 -35 -38
-31 -41 -30 -36 11 4 37 12 41 44 24z M3056 4029 c-12 -15 -24 -19 -41 -15
l-24 6 24 -24 c17 -17 22 -31 18 -47 -3 -13 -3 -22 0 -19 7 7 47 113 44 117
-2 1 -11 -7 -21 -18z M1520 4018 c0 -4 16 -34 34 -67 19 -34 32 -61 29 -61 -3
0 -53 25 -111 56 l-104 56 -42 -22 c-45 -25 -77 -50 -36 -30 15 8 25 9 27 3 2
-6 11 -19 19 -29 14 -18 14 -18 4 4 -7 13 -9 26 -6 29 2 3 71 -29 152 -71 80
-43 148 -75 150 -73 2 2 -21 49 -52 103 -56 100 -64 112 -64 102z M2550 3980
c-22 -6 -20 -8 18 -14 24 -5 46 -5 49 -2 4 3 -3 6 -14 6 -12 0 -23 4 -25 8 -1
5 -14 5 -28 2z M2171 3880 c-92 -13 -214 -39 -222 -48 -3 -4 18 -72 47 -152
29 -80 51 -151 49 -157 -5 -16 -4 -16 65 2 l55 15 -50 -6 -50 -5 -53 147 c-29
81 -51 148 -49 150 7 7 245 43 323 48 122 9 431 -27 455 -52 4 -4 -17 -72 -46
-152 -51 -140 -55 -160 -34 -160 6 0 8 4 5 9 -3 5 17 74 45 152 27 79 51 148
52 153 9 38 -426 79 -592 56z M3528 3878 c11 -14 2 -25 -68 -78 -44 -35 -80
-65 -80 -67 0 -3 6 -1 13 4 113 90 160 121 175 117 15 -5 15 -4 2 5 -8 7 -24
17 -35 23 -18 10 -18 9 -7 -4z M1155 3850 c-18 -8 -18 -9 5 -9 31 -1 74 -37
129 -109 47 -62 51 -93 16 -127 -35 -36 -68 -32 -120 16 -47 43 -105 124 -105
145 0 7 12 27 27 45 23 27 24 30 7 21 -24 -13 -42 -51 -48 -99 -4 -41 24 -103
59 -131 131 -103 285 30 200 173 -33 58 -121 96 -170 75z M1407 3792 c32 -61
36 -74 23 -82 -8 -5 -12 -10 -8 -10 4 0 22 9 40 21 22 14 26 18 11 14 -19 -5
-26 1 -47 42 -13 26 -32 57 -40 68 -9 11 1 -13 21 -53z M1762 3771 c-472 -197
-821 -631 -917 -1141 -74 -397 24 -834 263 -1170 93 -131 279 -307 415 -394
549 -351 1255 -320 1772 77 135 104 300 292 386 442 288 499 274 1116 -37
1602 -123 193 -339 396 -536 505 -111 61 -258 122 -268 112 -4 -5 -32 -77 -62
-160 l-54 -151 69 -26 c38 -15 74 -24 80 -20 7 3 9 2 5 -2 -10 -11 110 -77
124 -69 7 4 8 2 4 -4 -7 -11 32 -38 47 -34 5 1 6 -2 3 -7 -3 -5 6 -16 20 -26
14 -9 43 -32 65 -52 21 -19 39 -32 39 -28 0 7 31 -31 138 -164 55 -70 137
-226 171 -326 36 -110 54 -225 55 -355 1 -155 -7 -282 -16 -266 -5 6 -8 2 -8
-11 0 -79 -107 -325 -193 -445 -31 -42 -52 -80 -49 -85 4 -4 3 -5 -2 0 -11 9
-128 -102 -120 -114 2 -4 -1 -11 -7 -15 -8 -4 -9 -3 -5 4 5 8 -4 12 -29 12
-30 0 -36 3 -31 16 5 13 2 15 -16 9 -38 -13 -148 -17 -254 -8 -83 7 -101 6
-100 -5 1 -20 -35 -41 -41 -24 -3 8 -34 12 -107 12 l-103 0 -7 48 c-14 95 -25
362 -16 419 6 43 31 106 94 232 47 96 93 182 102 192 9 10 31 23 49 29 29 10
50 33 47 51 -1 7 18 9 73 10 22 0 67 7 99 15 74 19 103 13 142 -33 22 -25 43
-38 70 -42 28 -5 40 -12 42 -26 5 -30 69 -85 98 -85 14 0 37 -9 53 -21 32 -24
75 -18 92 12 14 27 13 245 -1 316 -14 70 -31 98 -70 118 -35 18 -39 41 -10 50
37 12 26 50 -51 166 -54 82 -74 99 -115 99 -44 0 -49 12 -24 61 21 40 21 42 3
61 -73 82 -376 270 -405 252 -6 -4 -8 -3 -5 3 9 15 -127 59 -169 54 -5 0 -18
-19 -28 -41 -18 -41 -48 -66 -67 -55 -5 4 -9 29 -8 56 2 27 -1 52 -5 56 -12
12 -214 7 -281 -6 -89 -19 -165 -43 -159 -53 3 -4 -2 -5 -10 -2 -14 5 -90 -28
-100 -44 -3 -5 2 -31 10 -58 31 -104 -13 -131 -50 -31 -10 27 -24 51 -32 54
-15 5 -48 -16 -141 -90 -54 -43 -61 -53 -50 -66 10 -14 10 -14 -4 -3 -14 11
-21 7 -48 -23 -54 -61 -64 -82 -57 -117 6 -32 4 -33 -42 -48 -46 -15 -48 -18
-94 -109 -69 -134 -66 -213 8 -227 32 -6 34 -8 19 -24 -8 -9 -12 -20 -8 -25 5
-4 3 -5 -3 -2 -16 9 -91 -49 -98 -76 -3 -12 -6 -65 -6 -117 0 -140 25 -210 74
-210 15 0 25 -9 32 -28 6 -16 20 -31 32 -34 23 -7 62 16 62 36 0 17 31 26 91
26 32 0 53 6 70 21 13 12 41 30 61 40 21 11 48 33 60 50 22 30 25 31 93 27 53
-3 87 -12 141 -36 l70 -33 82 -133 c45 -73 82 -143 82 -155 0 -12 4 -20 8 -17
4 3 8 -104 8 -237 l-1 -242 -42 -3 -43 -3 0 67 0 68 -30 -29 c-55 -52 -44 -16
20 67 77 101 88 117 73 103 -6 -5 -39 -45 -72 -89 l-61 -79 0 134 0 133 53 56
52 55 -52 -50 c-32 -30 -53 -43 -53 -34 0 8 5 20 12 27 9 9 9 12 0 12 -7 0
-12 26 -15 73 l-3 72 -2 -81 -2 -82 -42 -34 c-24 -20 -68 -58 -98 -86 l-55
-51 -3 136 c-1 80 1 140 7 146 6 6 24 11 41 12 l30 2 0 -64 c0 -56 -2 -63 -20
-63 -22 0 -26 -20 -8 -38 15 -15 51 -15 66 0 18 18 14 38 -8 38 -18 0 -20 7
-20 64 0 85 5 96 45 96 19 0 39 8 50 20 22 24 20 24 -35 5 -23 -8 -46 -15 -51
-15 -5 0 -10 42 -11 93 l-2 92 -5 -99 -6 -99 -37 -13 c-28 -9 -38 -10 -42 -1
-2 7 -5 -65 -5 -159 -1 -166 -2 -172 -23 -188 l-23 -17 23 5 c20 4 22 1 22
-45 0 -53 -1 -54 -31 -39 -25 14 -25 -2 0 -24 32 -29 92 -45 169 -46 60 0 72
-3 72 -16 0 -15 -11 -16 -83 -12 -54 4 -98 13 -125 26 l-43 20 7 -34 c5 -30 4
-34 -15 -34 -16 0 -21 6 -21 29 0 27 -2 29 -46 29 -85 2 -83 0 -83 119 0 109
10 143 41 143 10 0 18 5 18 10 0 6 11 15 25 20 14 5 25 14 25 20 0 11 -27 -2
-69 -32 -13 -10 -27 -18 -32 -18 -4 0 -10 30 -12 68 l-3 67 -2 -77 -2 -77 -40
-23 c-41 -24 -51 -38 -25 -38 8 0 20 9 27 20 7 11 18 20 25 20 10 0 13 -27 13
-105 0 -86 -3 -105 -15 -105 -8 0 -18 -14 -23 -33 -7 -27 -13 -32 -43 -35 -31
-3 -41 4 -96 60 -172 176 -289 403 -325 631 -6 42 -14 74 -17 72 -3 -1 -6 57
-6 130 0 73 4 131 9 128 4 -3 7 13 4 35 -2 22 1 38 6 35 5 -3 7 8 4 26 -2 17
-2 29 1 26 2 -3 13 26 23 63 23 89 77 217 128 302 77 130 224 286 347 368 29
19 50 38 48 42 -3 4 1 7 8 7 6 -1 44 14 82 32 39 18 104 46 145 63 41 16 63
26 48 23 -25 -5 -27 -1 -52 68 -14 39 -39 108 -55 152 -16 43 -33 80 -37 82
-5 1 -51 -15 -102 -36z m459 -512 c25 -13 15 -29 -19 -29 -34 0 -57 14 -48 29
9 14 41 14 67 0z m-66 -64 c0 -26 -55 -34 -75 -10 -18 22 2 36 45 33 22 -2 30
-8 30 -23z m595 -3 l23 -19 -24 -47 c-13 -26 -31 -52 -40 -56 -13 -8 -16 -4
-14 20 1 17 2 50 3 75 2 50 15 57 52 27z m-484 -35 c11 -32 10 -41 -12 -86
-25 -50 -54 -74 -54 -45 0 8 5 24 11 35 8 17 6 24 -15 40 -35 28 -33 55 7 79
40 25 47 22 63 -23z m568 -13 c8 -20 7 -21 -24 -29 -21 -5 -26 -2 -26 14 0 11
4 17 8 15 4 -3 8 0 8 5 0 17 27 13 34 -5z m213 -220 c-3 -4 0 -13 8 -21 17
-16 20 -33 6 -33 -15 0 -33 29 -27 45 3 8 9 15 12 15 4 0 5 -3 1 -6z m-588
-74 c4 0 5 -71 3 -157 -2 -121 -8 -174 -23 -225 -12 -37 -25 -70 -29 -73 -14
-9 -33 75 -32 145 1 59 8 299 11 343 1 17 4 16 32 -7 17 -14 34 -26 38 -26z
m-753 -25 c9 -14 33 -34 53 -46 84 -47 68 -86 -21 -54 -39 14 -55 15 -74 6
-41 -18 -47 -14 -39 27 3 20 8 46 9 57 2 11 8 20 13 20 6 0 15 3 19 8 13 12
23 8 40 -18z m634 -99 c0 -58 -4 -107 -9 -110 -9 -6 -30 50 -50 136 -15 64
-15 66 17 71 15 2 30 5 35 6 4 0 7 -46 7 -103z m240 85 c0 -10 7 -24 15 -31
11 -9 12 -16 5 -25 -5 -6 -6 -16 -2 -20 4 -5 2 -5 -4 -2 -15 9 -68 -48 -59
-64 5 -8 4 -10 -3 -5 -8 5 -12 -1 -12 -17 0 -14 -7 -27 -15 -31 -13 -4 -13 -2
-5 14 5 10 10 53 10 94 0 47 4 76 11 76 5 0 7 5 3 12 -4 6 -3 8 4 4 6 -3 13
-2 17 4 11 17 35 11 35 -9z m207 -88 c14 -21 14 -23 -3 -30 -11 -3 -33 -17
-50 -30 -38 -28 -44 -29 -44 -4 0 11 -4 22 -8 25 -5 3 -7 18 -4 34 3 26 7 28
49 27 36 0 49 -5 60 -22z m-153 -193 c-44 -119 -162 -322 -171 -293 -2 6 8 68
22 138 18 92 32 136 50 159 13 18 29 56 36 85 7 33 22 66 42 88 l32 36 8 -69
c7 -61 5 -77 -19 -144z m-382 171 c-2 -17 3 -49 11 -73 10 -26 18 -96 21 -180
5 -119 4 -138 -9 -138 -9 0 -20 12 -26 26 -5 15 -21 40 -34 56 -14 16 -28 42
-31 56 -4 15 -18 53 -31 85 -28 70 -24 92 23 107 36 12 59 42 50 66 -3 8 -2
12 3 9 5 -3 12 -1 16 5 10 16 12 12 7 -19z m-514 -26 c3 -40 -64 -76 -84 -44
-4 7 -20 8 -41 4 -30 -5 -34 -4 -31 12 9 45 152 72 156 28z m1172 -7 c31 -25
33 -28 22 -53 -10 -22 -10 -31 0 -44 10 -13 10 -14 -2 -4 -11 10 -20 6 -47
-17 -30 -27 -63 -39 -63 -24 0 3 9 37 21 75 12 38 19 76 16 83 -8 21 15 14 53
-16z m-115 -65 c-4 -27 -8 -56 -8 -65 -1 -9 -5 -14 -9 -12 -4 3 -8 1 -8 -4 0
-4 -10 -19 -22 -32 -13 -14 -21 -29 -20 -35 2 -5 0 -7 -3 -3 -4 4 -21 0 -37
-8 -17 -9 -31 -14 -33 -12 -2 2 12 41 30 88 33 82 71 130 104 130 11 0 12 -10
6 -47z m250 -50 c26 -38 19 -51 -24 -50 -21 1 -37 5 -34 10 2 4 -12 7 -31 7
-20 0 -36 2 -36 5 0 3 10 19 21 34 13 17 18 34 14 42 -5 8 -4 10 3 5 7 -4 12
-2 12 4 0 14 56 -28 75 -57z m-1425 43 c0 -3 -13 -18 -30 -34 l-30 -30 0 34
c0 31 3 34 30 34 17 0 30 -2 30 -4z m468 -58 c5 -7 15 -30 23 -50 7 -20 16
-35 20 -32 4 2 11 -1 15 -7 4 -8 3 -9 -4 -5 -17 10 -15 3 10 -48 12 -25 26
-42 31 -39 6 3 7 1 3 -5 -3 -6 14 -50 39 -99 25 -48 47 -101 51 -118 l5 -30
-31 35 c-17 19 -54 70 -82 112 -28 43 -55 75 -61 71 -6 -3 -7 -1 -3 5 9 15
-52 144 -65 136 -5 -3 -8 -2 -7 3 1 4 -4 18 -11 31 -10 18 -10 26 0 38 14 17
53 18 67 2z m-53 -156 c15 -30 25 -55 23 -57 -4 -5 -118 22 -126 30 -3 3 3 12
15 20 11 8 26 28 33 45 15 36 20 33 55 -38z m31 -579 c-20 -19 -36 -37 -36
-41 0 -3 16 9 35 28 l35 34 0 -143 0 -144 -86 7 c-47 4 -92 10 -100 13 -10 4
-14 23 -14 68 l0 63 97 86 c54 48 100 81 102 75 2 -7 -13 -27 -33 -46z m-447
-365 c11 -10 13 -10 7 0 -4 6 -3 12 2 12 6 0 12 -6 15 -14 4 -9 21 -13 56 -12
28 1 51 -2 51 -5 0 -4 10 -5 22 -1 15 4 19 2 14 -7 -5 -8 -19 -10 -37 -6 -19
4 -29 3 -29 -5 0 -6 4 -9 9 -5 5 3 21 0 35 -6 19 -9 32 -9 48 -1 21 11 21 11
-7 6 l-30 -5 24 21 c22 19 25 20 42 4 11 -10 22 -14 26 -11 3 4 0 7 -8 7 -11
0 -11 2 1 10 8 5 22 7 31 5 9 -3 56 -6 105 -7 49 -1 94 -5 100 -9 11 -9 85 10
95 24 4 5 12 6 19 2 9 -5 11 -4 6 3 -5 8 1 11 18 10 21 -2 23 -5 14 -21 -7
-14 -7 -17 1 -13 7 5 11 -2 11 -17 0 -17 -7 -26 -22 -30 -21 -6 -21 -7 -5 -25
18 -20 15 -61 -6 -77 -7 -5 -23 -23 -36 -40 -13 -16 -21 -22 -18 -13 4 12 2
15 -8 12 -8 -3 -11 -12 -8 -20 7 -20 -17 -17 -33 4 -13 16 -14 16 -8 0 5 -16
2 -17 -27 -11 -19 3 -36 9 -39 12 -3 3 -12 6 -20 6 -8 0 -16 6 -16 13 -3 22
-4 23 -23 12 -24 -12 -51 -3 -52 19 -1 15 -2 14 -6 -1 -4 -15 -6 -15 -34 0
-17 10 -27 23 -24 31 4 9 0 11 -10 7 -8 -3 -21 -8 -28 -11 -16 -7 -61 30 -53
43 3 5 -1 9 -9 9 -8 0 -11 -5 -8 -11 4 -6 -1 -5 -10 3 -10 8 -39 26 -65 40
-27 14 -57 33 -68 41 -24 18 -39 40 -27 40 5 0 15 -6 22 -12z m251 0 c0 -5 -4
-6 -10 -3 -5 3 -10 1 -10 -6 0 -8 -3 -9 -13 0 -8 6 -17 8 -20 4 -4 -3 -7 -1
-7 5 0 6 14 10 30 10 17 -1 30 -5 30 -10z m790 2 c0 -7 124 -21 179 -20 16 0
21 -4 18 -15 -4 -9 -1 -12 8 -8 8 3 13 9 10 13 -6 10 24 22 36 15 5 -3 18 -1
30 6 17 9 20 8 14 -2 -6 -9 -2 -11 13 -7 12 4 25 2 28 -3 3 -5 10 -9 15 -9 6
0 7 5 4 10 -3 6 3 11 14 11 21 2 39 5 44 8 1 2 13 4 26 7 24 4 24 4 5 -17 -10
-12 -33 -28 -51 -35 -17 -7 -37 -19 -45 -26 -18 -16 -46 -35 -78 -50 -14 -7
-29 -18 -33 -25 -4 -7 -14 -13 -21 -13 -7 0 -40 -11 -74 -25 -34 -14 -65 -24
-69 -23 -5 0 -21 -4 -36 -10 -16 -7 -33 -10 -38 -6 -5 3 -9 -1 -9 -8 0 -9 -3
-9 -10 2 -7 11 -12 12 -18 3 -14 -21 -70 11 -74 43 -2 15 -10 30 -18 32 -13 5
-13 3 -1 -11 7 -10 9 -17 4 -17 -16 0 -34 48 -20 54 7 2 4 5 -5 5 -10 1 -18 5
-18 10 0 5 -2 15 -5 23 -3 8 8 21 26 32 26 15 33 16 41 5 8 -12 9 -11 5 1 -2
9 -14 14 -26 13 -13 -2 -20 1 -16 7 3 5 0 7 -9 4 -8 -3 -12 -12 -9 -20 3 -8 1
-14 -4 -14 -13 0 -12 33 1 42 7 5 4 8 -6 8 -10 0 -18 5 -18 10 0 7 34 10 95 9
52 -1 95 -5 95 -9z M2210 1410 c0 -7 -9 -9 -22 -5 -18 5 -20 4 -8 -4 13 -9 12
-11 -5 -12 -11 0 -15 -3 -8 -5 17 -7 69 21 54 30 -6 4 -11 2 -11 -4z M1896
1374 c-24 -23 -20 -27 22 -21 36 6 36 6 12 -8 -14 -8 -20 -14 -15 -15 6 0 21
7 33 16 20 14 22 14 22 -1 0 -10 4 -13 13 -8 13 8 27 11 69 15 37 3 43 23 7
24 -16 1 -29 -3 -29 -9 0 -5 -7 -4 -15 3 -21 17 -76 21 -94 7 -12 -9 -13 -9
-7 1 10 17 1 15 -18 -4z M2123 1362 c4 -2 2 -11 -5 -20 -12 -14 -11 -14 10 -1
20 12 24 12 32 -1 8 -13 10 -12 10 3 0 9 -6 17 -14 17 -8 0 -20 2 -28 3 -7 2
-9 2 -5 -1z M1835 1350 c-4 -6 -12 -7 -18 -3 -8 4 -8 1 1 -9 8 -10 21 -14 35
-10 18 5 19 7 4 10 -9 2 -15 8 -12 13 4 5 4 9 1 9 -3 0 -8 -5 -11 -10z M2034
1331 c18 -7 19 -8 2 -14 -10 -4 -24 -3 -30 2 -7 6 -17 6 -26 1 -13 -9 -13 -10
0 -11 8 -1 18 -1 23 0 4 0 7 -3 7 -9 0 -5 18 -7 43 -4 23 3 50 5 60 5 43 0
-10 29 -61 34 -25 3 -31 1 -18 -4z M2163 1308 c-25 -12 -29 -23 -12 -34 8 -5
8 -9 -1 -14 -9 -5 -8 -9 2 -13 9 -3 14 2 15 14 1 10 -4 19 -10 19 -7 0 -6 4 3
10 25 16 31 11 26 -20 -2 -17 0 -28 5 -24 5 3 7 10 4 15 -4 5 -1 9 5 9 7 0 8
6 0 19 -8 16 -6 20 13 24 20 4 20 4 -3 5 -14 0 -35 -4 -47 -10z M2101 1259
c-16 -13 -18 -19 -8 -19 15 0 43 27 36 34 -2 3 -15 -4 -28 -15z M2587 1410
c-16 -20 -12 -27 8 -12 9 6 19 32 12 32 -1 0 -10 -9 -20 -20z M2650 1383 c-41
-7 -130 -34 -130 -39 0 -3 8 -4 18 -2 10 2 16 -2 14 -10 -1 -8 2 -11 8 -7 6 3
8 10 5 15 -7 11 61 23 85 15 11 -4 20 -11 20 -16 0 -5 8 -9 18 -9 15 0 15 2 2
11 -12 8 -11 9 5 6 11 -2 19 -8 18 -14 -2 -11 62 -1 74 10 3 3 16 2 29 -3 23
-9 24 -8 13 11 -6 11 -13 18 -16 15 -4 -3 -13 0 -21 6 -16 13 -82 19 -82 8 0
-4 -9 -10 -20 -13 -22 -6 -28 8 -7 16 14 6 2 6 -33 0z m123 -35 c-2 -5 -15 -8
-29 -8 -14 0 -23 3 -21 8 3 4 16 7 30 7 14 0 23 -3 20 -7z M2885 1340 c-3 -5
-3 -10 2 -10 4 0 1 -5 -7 -10 -8 -5 -10 -10 -5 -10 6 0 17 5 25 10 13 9 13 10
0 10 -13 0 -13 1 0 10 9 6 10 10 3 10 -6 0 -15 -4 -18 -10z M2596 1318 c-17
-16 -18 -18 -3 -19 82 -6 107 -4 107 10 0 4 -6 8 -12 8 -7 1 -26 5 -43 11 -24
7 -34 5 -49 -10z M2753 1284 c-17 -14 -16 -14 5 -4 12 6 27 8 32 5 5 -3 11 -2
14 3 9 14 -32 11 -51 -4z M3623 3794 c16 -20 14 -23 -74 -120 -50 -54 -93
-101 -95 -103 -2 -2 -12 2 -21 10 -16 13 -17 12 -4 -4 8 -10 33 -32 55 -49 23
-18 33 -23 23 -12 -17 20 -16 22 24 68 l41 46 39 -35 c69 -62 149 -42 149 36
0 30 -10 45 -77 109 -43 41 -70 66 -60 54z m107 -129 c0 -30 -44 -75 -73 -75
-13 0 -36 9 -51 21 l-26 20 47 54 48 54 27 -26 c16 -15 28 -36 28 -48z M2239
3787 c-27 -14 -38 -69 -18 -93 14 -17 66 -19 72 -1 2 6 8 9 12 5 11 -11 -18
-62 -38 -66 -10 -2 -25 5 -32 15 -13 16 -14 16 -15 1 0 -17 28 -38 49 -38 29
0 51 41 51 93 0 57 -5 69 -36 85 -15 8 -27 7 -45 -1z m49 -19 c19 -19 14 -56
-8 -68 -37 -20 -69 23 -44 58 17 25 34 28 52 10z M2386 3782 c-8 -14 -18 -82
-11 -82 3 0 15 4 25 10 38 21 72 -19 50 -60 -14 -26 -45 -26 -63 1 -11 15 -17
17 -23 8 -9 -15 30 -49 57 -49 26 0 59 35 59 63 0 31 -29 57 -64 57 -22 0 -27
4 -22 16 3 9 6 18 6 20 0 2 15 4 34 4 19 0 38 5 41 10 4 6 -11 10 -39 10 -25
0 -47 -3 -50 -8z M2092 3755 c-6 -14 -16 -25 -22 -25 -6 0 -8 -5 -4 -11 4 -8
9 -8 17 0 18 18 24 13 31 -26 14 -79 18 -93 27 -93 6 0 8 8 5 18 -2 9 -10 50
-16 90 -7 39 -15 72 -19 72 -4 0 -13 -11 -19 -25z M2552 3772 c-16 -10 -24
-50 -12 -57 5 -3 0 -15 -10 -25 -25 -25 -25 -52 -2 -73 49 -45 136 15 90 61
-9 9 -9 15 0 24 15 15 15 51 0 66 -14 14 -47 16 -66 4z m56 -39 c3 -19 -1 -23
-21 -23 -26 0 -38 15 -29 38 8 22 47 10 50 -15z m-10 -55 c16 -16 15 -33 -3
-51 -19 -19 -52 -11 -60 15 -12 37 35 64 63 36z M930 3646 c-24 -28 -36 -43
-26 -34 18 16 24 12 117 -75 72 -67 97 -97 93 -109 -8 -27 -2 -22 41 30 22 26
31 41 22 33 -20 -16 -22 -14 -149 108 -63 61 -67 66 -51 83 9 10 12 18 7 17
-5 -1 -29 -24 -54 -53z M813 3502 l-41 -57 112 -79 c61 -44 113 -81 116 -83 2
-2 -1 -14 -8 -26 -8 -13 -3 -10 13 8 32 37 52 70 36 61 -15 -10 -231 152 -225
168 10 27 52 40 89 29 19 -6 35 -9 35 -7 0 7 -64 44 -76 44 -6 0 -29 -26 -51
-58z M2318 3553 c23 -2 61 -2 85 0 23 2 4 4 -43 4 -47 0 -66 -2 -42 -4z M2198
3543 c12 -2 30 -2 40 0 9 3 -1 5 -23 4 -22 0 -30 -2 -17 -4z M3733 3512 c-137
-74 -103 -262 47 -262 115 0 198 131 141 223 -34 56 -122 74 -188 39z m171
-33 c36 -42 33 -66 -15 -111 -44 -42 -135 -98 -160 -98 -27 0 -69 46 -69 76 0
31 54 88 129 135 59 37 83 36 115 -2z M739 3399 l-21 -31 33 -34 c39 -41 50
-38 18 5 -20 27 -22 36 -12 61 14 38 10 38 -18 -1z M3970 3224 c-167 -79 -171
-80 -186 -59 -22 29 -17 14 16 -51 17 -32 28 -49 24 -36 -5 20 2 26 58 51 l63
28 13 -21 c12 -20 12 -20 6 5 -5 23 -1 28 45 47 27 12 52 22 56 22 8 0 35 -65
35 -84 0 -18 -49 -46 -80 -46 -29 0 -25 -17 9 -35 49 -25 91 1 91 56 0 22 -60
159 -69 159 -3 -1 -40 -17 -81 -36z M645 3230 c-2 -4 17 -27 43 -51 25 -24 38
-33 27 -20 -19 23 -19 24 -2 18 10 -4 33 -7 50 -7 53 0 61 -11 41 -53 l-18
-37 -25 22 c-14 13 -1 -5 29 -39 29 -35 55 -63 58 -63 7 0 31 34 32 45 0 5 -8
-1 -17 -14 l-17 -24 -27 33 -28 32 22 45 c21 44 22 44 62 37 22 -3 42 -11 44
-16 2 -6 14 9 27 32 26 45 32 64 11 37 -12 -17 -21 -16 -160 6 -81 13 -150 21
-152 17z M3972 3093 c-2 -22 -39 -58 -71 -68 -27 -8 -40 -45 -29 -77 11 -31
29 -39 21 -10 -3 13 7 24 36 40 44 25 55 49 48 103 -2 19 -5 24 -5 12z M4120
2994 c-40 -11 -41 -12 -15 -13 37 -1 75 -26 76 -49 0 -9 3 -12 5 -6 2 5 -1 26
-8 45 l-13 35 -45 -12z M547 2982 c-20 -22 -42 -81 -33 -89 3 -4 6 1 6 10 0
10 9 26 19 36 17 17 26 18 53 10 18 -5 39 -17 46 -26 10 -15 12 -12 12 18 0
19 -5 40 -12 47 -18 18 -73 14 -91 -6z M673 2914 c-18 -20 -33 -41 -33 -47 -1
-34 -16 -40 -70 -26 -29 7 -55 20 -58 28 -3 9 -13 -7 -24 -39 -10 -29 -16 -55
-14 -57 2 -3 7 5 11 16 3 12 9 21 13 21 4 0 66 -18 137 -40 72 -22 130 -40
131 -40 5 0 24 83 20 88 -3 3 -6 -2 -6 -11 0 -26 -15 -28 -79 -6 -59 20 -62
23 -56 48 12 48 23 54 92 46 67 -7 93 2 93 34 0 13 -12 16 -62 18 -58 2 -63 1
-95 -33z M4056 2868 c-104 -32 -130 -37 -137 -26 -12 18 -11 2 3 -43 9 -30 13
-36 22 -25 6 7 69 30 139 51 95 29 126 42 122 53 -3 7 -5 18 -5 23 0 12 2 13
-144 -33z M4211 2835 c2 -39 -1 -46 -33 -76 l-33 -30 48 18 c26 9 47 22 46 28
-1 21 -29 80 -28 60z M525 2676 c-143 -62 -90 -256 70 -256 32 0 62 7 82 20
34 21 70 67 59 77 -3 3 -6 1 -6 -5 0 -40 -70 -52 -186 -31 -74 13 -94 31 -94
80 0 29 6 42 27 59 24 19 36 21 83 15 68 -8 160 -33 160 -43 0 -5 7 -17 15
-28 14 -17 14 -15 0 21 -33 86 -127 127 -210 91z M3983 2450 c0 -30 2 -43 4
-27 2 15 2 39 0 55 -2 15 -4 2 -4 -28z M4260 2473 c-1 -12 -51 -53 -140 -117
-77 -55 -140 -101 -140 -103 0 -2 39 -2 88 -1 48 1 67 3 44 5 l-44 4 106 75
c103 73 106 76 104 110 -2 37 -18 59 -18 27z M4078 2463 c28 -2 76 -2 105 0
28 2 5 3 -53 3 -58 0 -81 -1 -52 -3z M467 2368 c-18 -14 -37 -59 -37 -86 1
-14 2 -14 12 3 17 31 39 45 73 45 42 0 61 -18 68 -61 l5 -36 -64 -7 c-36 -4
-69 -4 -74 -1 -6 4 -9 -15 -9 -47 1 -29 4 -43 6 -31 5 27 23 31 166 34 l117 3
-1 51 c-1 27 -4 41 -6 30 -7 -28 -21 -35 -75 -35 -52 0 -48 -4 -62 79 -4 19
-14 43 -23 53 -19 21 -71 24 -96 6z M2982 2243 l-2 -103 -51 21 c-29 11 -54
17 -58 14 -11 -12 41 -45 69 -45 34 0 40 -14 40 -96 0 -57 -2 -64 -20 -64 -12
0 -20 -7 -20 -18 0 -9 9 -23 20 -30 18 -11 20 -23 20 -137 0 -114 -2 -125 -20
-135 -12 -6 -20 -21 -20 -36 0 -22 -3 -24 -22 -19 -13 4 -32 16 -44 26 -11 11
-27 19 -35 19 -17 0 -22 48 -13 117 5 40 6 42 30 33 39 -15 42 -12 10 9 -44
29 -53 51 -29 70 32 26 35 48 7 54 -61 11 -97 -19 -54 -45 11 -7 20 -18 20
-25 0 -17 -10 -16 -34 2 -29 22 -42 18 -21 -5 10 -11 26 -20 37 -20 15 0 18
-8 18 -60 l0 -60 -69 0 -70 0 -55 72 c-31 39 -56 68 -56 64 0 -4 20 -34 45
-66 25 -32 45 -61 45 -64 0 -3 -30 -7 -67 -8 l-68 -2 63 -3 c63 -4 63 -4 57
-31 -3 -17 2 -41 15 -67 11 -21 20 -49 20 -62 0 -20 3 -21 26 -12 22 8 25 7
16 -3 -8 -11 23 -13 163 -13 161 0 176 2 202 21 18 14 29 32 31 53 2 18 10 35
18 38 9 3 14 19 13 47 -1 22 -3 34 -6 25 -5 -19 -46 -40 -87 -45 -16 -2 -34
-8 -40 -13 -15 -11 -56 -21 -56 -12 0 3 9 11 21 16 20 9 21 18 21 138 0 111 3
129 18 137 10 5 20 19 23 30 4 16 0 20 -19 20 -23 0 -24 3 -24 66 l0 67 51 -7
c61 -8 58 6 -5 24 l-45 12 -4 107 -3 106 -2 -102z m-184 -551 c30 -10 2 -103
-32 -102 -11 1 -76 89 -76 104 0 8 84 6 108 -2z m-131 -17 c-4 -8 -2 -17 4
-20 5 -4 6 -11 3 -17 -5 -8 -1 -9 10 -5 9 4 15 3 12 -2 -3 -5 1 -14 9 -21 8
-7 15 -9 15 -5 0 5 8 1 18 -7 9 -9 24 -18 32 -21 10 -4 8 -6 -7 -6 -12 -1 -23
2 -25 7 -1 4 -16 14 -33 24 -32 17 -60 62 -50 78 9 15 18 12 12 -5z M4270
2291 c0 -15 -8 -21 -32 -23 l-33 -3 38 -6 c35 -5 37 -4 37 23 0 15 -2 28 -5
28 -3 0 -5 -9 -5 -19z M2814 2200 c0 -52 1 -74 3 -47 2 26 2 68 0 95 -2 26 -3
4 -3 -48z M3965 2115 c-3 -31 -4 -59 -1 -63 3 -3 6 7 6 21 0 16 6 27 14 27 19
0 119 -19 123 -24 2 -2 1 -15 -3 -30 -4 -18 -16 -28 -38 -34 l-31 -9 45 -7
c25 -4 54 -10 65 -13 16 -4 14 0 -8 19 -24 19 -27 28 -22 51 5 19 12 26 24 23
9 -2 40 -8 69 -11 50 -7 52 -6 52 18 0 24 -4 25 -137 46 -75 12 -140 26 -144
32 -3 6 -10 -15 -14 -46z M2700 2131 c0 -17 38 -41 65 -41 15 0 33 -6 39 -14
6 -7 36 -16 66 -20 62 -6 59 -4 -77 47 -51 19 -93 32 -93 28z M720 2114 c0
-16 -10 -24 -40 -33 -22 -6 -47 -23 -56 -36 -15 -23 -22 -100 -10 -112 3 -4 6
10 6 30 0 40 6 46 70 67 40 13 45 19 48 49 2 18 -1 38 -7 44 -8 8 -11 5 -11
-9z M490 2040 c-14 -14 -20 -33 -20 -62 l1 -43 14 32 c10 25 22 33 49 39 23 4
42 2 51 -6 25 -21 17 2 -12 32 -32 33 -56 35 -83 8z M3946 1997 c-4 -27 -6
-50 -4 -52 2 -2 21 -6 43 -10 l40 -7 -25 18 c-14 9 -27 19 -29 21 -2 1 -7 20
-11 40 l-6 38 -8 -48z M4228 1962 c-4 -13 -21 -28 -40 -37 l-33 -14 37 -1 c32
0 39 4 44 25 3 13 4 30 2 37 -3 7 -7 2 -10 -10z M724 1934 c-23 -6 -57 -14
-75 -17 -19 -3 -58 -13 -88 -21 -61 -17 -71 -14 -71 16 0 12 -3 19 -6 16 -3
-3 0 -34 7 -67 9 -44 15 -56 20 -43 10 26 256 82 271 61 7 -10 8 -3 4 21 -8
46 -14 49 -62 34z M2679 1900 c13 -11 31 -20 40 -20 10 0 6 7 -14 20 -39 26
-57 25 -26 0z M3084 1807 c-7 -24 -7 -34 1 -34 5 0 11 15 12 34 4 42 1 42 -13
0z M4025 1813 c-147 -4 -155 -6 -127 -36 20 -21 27 -22 94 -16 40 4 97 8 127
8 53 1 53 1 46 -26 -9 -38 -20 -43 -99 -43 -62 0 -73 3 -100 28 l-31 27 24
-27 23 -27 -72 -7 -72 -7 21 -21 c18 -18 31 -20 102 -17 l81 3 38 -37 37 -36
38 108 c21 59 40 114 43 121 3 8 -5 11 -24 10 -16 -1 -83 -4 -149 -5z m100
-182 c-9 -36 -12 -37 -40 -11 -30 28 -26 36 15 36 29 0 31 -2 25 -25z M675
1788 c-63 -22 -106 -85 -104 -150 l2 -33 6 35 c7 41 44 69 133 99 68 23 103
26 113 11 3 -5 11 -10 16 -10 20 0 -5 23 -45 41 -46 21 -76 22 -121 7z M2919
1760 c13 -11 27 -20 32 -20 18 0 8 10 -23 25 l-33 16 24 -21z M3040 1720 c-18
-35 -18 -40 -5 -40 9 0 13 4 10 10 -3 5 1 23 10 40 8 16 13 30 10 30 -2 0 -14
-18 -25 -40z M857 1697 c7 -48 -8 -66 -89 -102 -73 -33 -127 -41 -159 -26 -22
11 -22 11 3 -13 33 -30 103 -43 151 -27 35 12 76 49 96 88 13 26 14 83 1 103
-6 10 -8 3 -3 -23z M3972 1569 c40 -34 81 -71 91 -81 9 -11 17 -16 17 -10 0 6
3 19 6 29 5 14 4 15 -4 4 -9 -12 -24 -4 -81 44 -39 31 -74 62 -77 66 -3 5 -10
9 -15 9 -5 0 23 -28 63 -61z M875 1559 l-30 -19 35 0 c29 0 36 4 37 20 2 24
-3 24 -42 -1z M3775 1550 c4 -6 -4 -20 -17 -31 -22 -19 -22 -20 -1 -10 12 6
37 11 55 11 l33 0 -33 20 c-36 22 -46 25 -37 10z M949 1522 c15 -11 23 -29 23
-51 1 -41 -23 -64 -129 -119 -69 -35 -74 -36 -100 -22 -15 8 -30 26 -34 40 -6
21 -7 22 -8 4 -1 -27 37 -62 82 -75 129 -35 262 130 179 224 -8 9 -19 17 -25
17 -5 0 1 -8 12 -18z M695 1443 c-21 -12 -26 -18 -15 -21 8 -3 17 -9 20 -13 3
-5 11 5 17 21 6 17 11 30 10 30 -1 -1 -15 -8 -32 -17z M3840 1415 c-28 -25
-55 -45 -61 -45 -21 0 -49 21 -64 48 -15 26 -16 26 -9 2 11 -43 33 -69 67 -78
41 -11 73 0 118 44 44 43 79 43 93 1 15 -43 -18 -81 -74 -85 l-43 -3 29 -20
c34 -22 45 -24 38 -6 -2 7 6 19 20 26 51 28 59 89 17 132 -42 41 -71 38 -131
-16z M1321 1113 c10 -17 5 -48 -30 -183 -23 -89 -40 -164 -39 -166 2 -1 66 43
143 98 121 88 141 99 158 89 38 -24 26 -3 -13 23 -41 27 -68 37 -34 12 10 -8
17 -17 14 -19 -16 -16 -195 -145 -198 -142 -2 1 12 57 30 124 l32 120 23 -15
c13 -8 23 -11 23 -7 0 7 -90 72 -113 82 -5 2 -3 -6 4 -16z M3250 1028 c0 -7
12 -53 25 -103 22 -78 29 -78 9 0 -7 28 -6 27 50 -15 31 -23 56 -44 56 -46 0
-2 -16 -15 -36 -30 -29 -23 -37 -25 -45 -13 -13 20 -11 1 6 -56 14 -49 14 -50
9 -8 -5 40 -4 43 35 68 43 29 60 28 101 -6 24 -20 24 -21 6 -35 -11 -8 -18
-16 -15 -18 2 -2 33 16 69 40 36 24 60 44 54 44 -5 0 -15 -5 -21 -11 -11 -11
-63 24 -255 166 -27 19 -48 30 -48 23z M3055 905 c-38 -19 -59 -32 -45 -29 24
5 29 -2 83 -125 31 -71 60 -136 63 -144 3 -10 -2 -18 -16 -22 -12 -4 -20 -9
-17 -11 2 -2 37 12 78 31 62 30 75 40 26 20 -8 -4 -33 41 -76 136 l-63 142 23
18 c33 25 25 23 -56 -16z M1627 913 l22 -18 -66 -138 c-63 -131 -68 -138 -92
-133 -14 3 5 -10 43 -30 37 -19 70 -33 73 -31 2 3 -5 8 -16 12 -12 3 -21 10
-21 15 0 12 129 280 134 280 3 0 17 -5 33 -11 51 -19 9 7 -62 40 -39 17 -60
24 -48 14z M1800 838 c14 -7 26 -13 28 -14 4 -2 -65 -260 -78 -290 -7 -19 -3
-23 46 -36 29 -8 51 -11 48 -7 -3 5 -12 9 -20 9 -18 0 -18 11 3 93 18 70 23
74 70 56 40 -15 44 -26 37 -104 -7 -81 0 -93 63 -101 37 -5 37 -5 13 8 -15 9
-24 22 -23 34 11 93 8 106 -32 140 -22 18 -54 35 -73 39 -25 5 -32 10 -28 23
3 9 10 38 17 65 6 26 15 49 18 52 16 9 92 -19 102 -38 14 -25 -5 -95 -27 -104
-8 -3 -14 -9 -14 -13 0 -12 82 7 91 21 12 19 11 66 -1 89 -11 21 -109 55 -245
86 -14 3 -12 0 5 -8z M2895 840 c-11 -5 -15 -9 -9 -9 7 -1 20 -30 29 -66 10
-36 20 -63 22 -61 2 2 -3 31 -11 64 -20 75 -20 70 7 75 18 4 19 4 2 5 -11 0
-29 -3 -40 -8z M2670 779 c-30 -10 -43 -16 -28 -14 31 6 28 13 83 -195 29
-111 29 -110 11 -110 -8 0 -17 -4 -20 -9 -3 -5 13 -4 37 2 24 7 35 13 25 15
-10 2 -21 16 -25 30 -3 15 -21 81 -39 147 -18 66 -31 121 -29 123 2 2 59 -46
127 -106 68 -61 136 -120 152 -133 l28 -22 -7 32 c-13 61 -43 156 -44 139 -1
-9 4 -29 9 -44 13 -33 15 -35 -118 84 -52 45 -97 82 -100 81 -4 -1 -32 -9 -62
-20z M2182 743 c-40 -20 -80 -85 -88 -144 -7 -59 35 -144 86 -171 67 -36 158
-7 182 58 9 26 18 34 38 35 41 2 -60 18 -110 17 -28 -1 -34 -3 -17 -5 23 -4
27 -9 27 -39 0 -69 -68 -97 -117 -48 -26 26 -26 27 -20 137 8 150 30 180 122
163 26 -5 38 -15 53 -46 21 -42 32 -36 32 17 0 18 -4 24 -15 20 -8 -4 -27 0
-42 8 -37 19 -90 19 -131 -2z M2465 750 c-37 -7 -37 -7 -9 -9 l31 -1 12 -113
c17 -168 15 -197 -9 -197 -11 0 -20 -4 -20 -8 0 -10 117 -3 145 9 16 7 15 8
-10 6 -28 -2 -30 0 -36 43 -4 25 -10 95 -14 157 l-8 111 29 5 c16 2 7 4 -21 4
-27 0 -68 -3 -90 -7z M3366 715 c-10 -8 -23 -12 -27 -9 -5 3 -9 0 -9 -7 0 -6
-8 -18 -17 -26 -12 -9 -7 -9 12 2 42 23 69 44 64 49 -2 2 -13 -2 -23 -9z"/>
</g>
</svg>
