<?xml version="1.0" standalone="no"?>
<!DOCTYPE svg PUBLIC "-//W3C//DTD SVG 20010904//EN"
 "http://www.w3.org/TR/2001/REC-SVG-20010904/DTD/svg10.dtd">
<svg version="1.0" xmlns="http://www.w3.org/2000/svg"
 width="789.000000pt" height="793.000000pt" viewBox="0 0 789.000000 793.000000"
 preserveAspectRatio="xMidYMid meet">
<metadata>
Created by potrace 1.16, written by Peter Selinger 2001-2019
</metadata>
<g transform="translate(0.000000,793.000000) scale(0.100000,-0.100000)"
fill="#000000" stroke="none">
<path d="M0 3965 l0 -3965 3945 0 3945 0 0 3965 0 3965 -3945 0 -3945 0 0
-3965z m4440 3851 c735 -101 1380 -373 1935 -817 821 -657 1334 -1598 1440
-2642 19 -189 19 -586 0 -775 -167 -1625 -1327 -2967 -2910 -3366 -322 -81
-576 -111 -940 -111 -284 0 -410 10 -655 51 -1046 176 -1989 790 -2574 1677
-578 877 -777 1923 -560 2949 290 1377 1341 2511 2689 2902 257 75 496 122
750 146 151 14 682 5 825 -14z m-4423 -3803 c-2 -16 -4 -5 -4 22 0 28 2 40 4
28 2 -13 2 -35 0 -50z m0 -145 c-2 -13 -4 -3 -4 22 0 25 2 35 4 23 2 -13 2
-33 0 -45z m1050 -2581 c6 -7 14 -37 9 -37 -1 0 -13 11 -25 24 -17 18 -19 24
-7 22 8 -1 19 -5 23 -9z m-487 -97 c0 -5 -7 -10 -15 -10 -8 0 -15 5 -15 10 0
6 7 10 15 10 8 0 15 -4 15 -10z m707 -135 c0 -13 -2 -13 -17 0 -9 8 -17 22
-17 30 0 13 2 13 17 0 9 -8 17 -22 17 -30z M3845 7673 c-1539 -44 -2897 -1048
-3399 -2511 -81 -237 -134 -462 -171 -732 -22 -156 -31 -597 -16 -770 43 -490
158 -903 371 -1335 199 -402 420 -706 736 -1015 417 -407 879 -689 1424 -870
704 -234 1467 -251 2183 -49 1270 359 2265 1385 2585 2665 72 286 100 495 109
804 11 403 -34 760 -142 1135 -308 1062 -1080 1938 -2094 2375 -496 214 -1043
318 -1586 303z m392 -64 c569 -46 1105 -215 1581 -497 867 -515 1490 -1372
1706 -2349 63 -284 86 -500 86 -799 0 -410 -62 -794 -190 -1168 -576 -1690
-2265 -2713 -4027 -2440 -996 154 -1887 718 -2455 1554 -615 905 -793 2016
-492 3070 106 368 301 776 523 1088 632 892 1611 1451 2698 1541 147 12 425
12 570 0z M3436 7415 c-4 -14 -19 -39 -35 -57 -15 -18 -33 -43 -40 -55 -7 -14
-21 -23 -35 -23 -12 0 -44 -14 -70 -31 l-47 -32 -27 26 c-37 34 -77 53 -147
67 -33 7 -65 14 -71 17 -8 3 -9 -10 -3 -48 9 -57 45 -119 84 -145 14 -9 25
-20 25 -24 0 -4 -20 -15 -44 -24 -25 -10 -74 -39 -111 -67 -36 -27 -68 -49
-70 -49 -2 0 5 19 15 43 23 53 40 187 32 250 l-7 48 -60 -48 c-73 -59 -121
-127 -142 -203 -14 -52 -18 -56 -40 -52 -13 2 -35 -1 -49 -8 -19 -11 -27 -11
-36 -2 -29 29 -108 0 -108 -39 0 -12 -7 -19 -18 -19 -40 0 -57 -57 -27 -90 14
-16 10 -23 -52 -84 -92 -92 -154 -123 -126 -63 6 12 14 30 16 39 4 11 13 15
26 11 15 -4 21 -1 21 12 0 13 -6 16 -21 12 -27 -7 -49 1 -49 18 0 23 20 28 39
11 39 -36 54 -12 21 34 -18 25 -18 28 -2 26 9 0 17 6 17 14 0 8 4 21 9 28 11
17 1 26 -20 18 -9 -4 -14 -9 -11 -13 11 -10 -13 -32 -28 -27 -22 9 -30 -18 -9
-34 18 -13 18 -14 -3 -8 -15 5 -24 2 -31 -10 -8 -14 -10 -14 -15 5 -3 14 1 26
13 34 25 18 22 70 -4 75 -15 3 -18 0 -12 -21 7 -28 -11 -48 -24 -27 -4 7 -15
10 -25 7 -18 -8 -11 -27 10 -27 7 0 16 -7 19 -16 5 -12 1 -14 -17 -8 -20 6
-19 4 6 -15 15 -13 27 -29 27 -37 0 -8 7 -17 15 -20 8 -4 13 -10 10 -14 -3 -5
2 -13 10 -18 14 -7 15 -14 3 -52 -18 -59 -77 -116 -130 -124 -22 -4 -58 -16
-80 -27 -22 -11 -43 -18 -46 -14 -3 3 1 27 10 53 28 82 30 114 8 150 -16 26
-26 32 -55 32 -93 0 -161 -79 -200 -231 -9 -32 -18 -65 -21 -74 -3 -8 -2 -15
3 -15 5 0 26 36 47 80 34 71 41 80 66 80 21 0 30 -7 38 -27 34 -85 25 -118
-61 -237 -34 -47 -77 -110 -95 -141 -18 -30 -36 -55 -40 -55 -4 0 -5 38 -3 85
3 90 -3 135 -19 135 -13 0 -31 -36 -45 -89 -14 -56 -29 -62 -49 -19 -9 18 -25
44 -35 58 l-19 24 -7 -38 c-16 -84 27 -243 70 -260 23 -8 18 -27 -21 -81 -20
-28 -47 -74 -61 -104 -28 -63 -40 -63 -18 0 34 94 37 127 17 172 -21 48 -80
104 -119 113 -32 8 -88 -20 -118 -60 -15 -21 -20 -47 -23 -126 -3 -58 0 -100
5 -100 5 0 22 14 39 31 16 17 41 37 57 45 25 13 28 13 35 -3 4 -10 7 -50 7
-88 0 -82 -24 -146 -69 -184 -15 -14 -34 -31 -42 -39 -12 -12 -18 -9 -16 9 4
30 -20 184 -31 206 l-15 28 -6 -38 c-3 -20 -8 -53 -11 -72 -7 -45 -17 -49 -57
-26 -18 10 -44 22 -57 26 l-24 7 5 -80 c7 -98 34 -164 77 -187 36 -18 37 -24
11 -73 -10 -20 -22 -46 -26 -57 -5 -16 -8 -12 -16 20 -25 113 -165 151 -249
66 -42 -42 -56 -82 -64 -191 -12 -140 -48 -272 -82 -297 -26 -20 -10 -24 44
-13 39 9 60 21 97 59 26 26 55 63 64 82 40 80 54 10 19 -101 l-23 -75 -46 -6
c-80 -12 -112 -40 -131 -115 -10 -39 -17 -49 -42 -58 -53 -19 -96 -50 -102
-74 -3 -12 0 -44 7 -70 11 -45 10 -48 -14 -67 -34 -27 -37 -96 -6 -118 17 -12
20 -24 19 -76 -2 -73 16 -106 74 -134 20 -9 43 -26 49 -37 7 -11 34 -27 61
-36 64 -21 99 -73 105 -154 4 -53 2 -61 -21 -84 -34 -34 -46 -32 -81 10 -28
34 -28 37 -16 75 12 37 12 41 -10 64 -13 14 -25 23 -28 20 -2 -2 -23 8 -46 24
-58 39 -89 45 -111 21 -19 -21 -17 -70 6 -130 24 -60 26 -61 94 -59 72 2 87
-5 116 -62 15 -31 19 -59 19 -154 0 -63 -4 -115 -8 -115 -17 0 -44 38 -33 45
6 3 11 19 11 34 0 34 -86 120 -122 122 -57 3 -69 -9 -79 -81 -11 -79 32 -123
108 -113 34 4 45 1 71 -23 27 -26 31 -36 35 -101 4 -67 3 -73 -15 -73 -10 0
-38 18 -62 40 -33 30 -51 40 -78 40 -19 0 -39 -5 -46 -12 -18 -18 -14 -80 8
-108 22 -28 25 -67 9 -104 -18 -38 -4 -72 41 -97 22 -13 40 -28 40 -35 0 -22
46 -68 79 -79 49 -16 41 -30 -22 -35 -97 -9 -115 -60 -46 -135 34 -37 40 -50
39 -82 -3 -70 0 -82 30 -116 19 -22 53 -43 90 -57 89 -33 106 -79 45 -125 -19
-15 -37 -36 -40 -46 -8 -24 17 -65 45 -74 15 -5 20 -15 20 -40 0 -53 54 -72
107 -38 14 10 40 16 58 14 22 -1 39 4 51 17 24 25 60 43 68 35 3 -3 6 -19 6
-33 0 -36 21 -84 64 -150 39 -59 44 -80 21 -80 -8 0 -15 6 -15 14 0 18 -54 64
-83 71 -30 8 -139 -21 -154 -41 -18 -24 -6 -41 57 -79 73 -44 128 -48 166 -10
33 33 66 32 109 -6 27 -24 35 -39 35 -64 0 -29 -4 -34 -29 -40 -51 -11 -89
-71 -73 -113 6 -15 13 -40 16 -55 22 -96 156 -16 156 93 0 20 -9 39 -25 54
-31 29 -36 72 -6 56 11 -5 33 -23 49 -40 28 -28 30 -35 33 -119 3 -67 8 -94
22 -108 16 -19 16 -20 -8 -31 -34 -16 -34 -64 0 -96 30 -28 31 -36 5 -36 -10
0 -24 -9 -30 -21 -24 -44 20 -119 70 -119 35 0 56 -18 69 -61 18 -57 50 -80
119 -86 57 -5 60 -7 66 -36 9 -43 23 -56 67 -63 30 -5 43 -14 58 -40 17 -28
26 -34 56 -34 22 0 43 -8 55 -20 37 -37 133 -22 165 26 20 31 141 69 190 60
20 -4 50 -20 69 -36 18 -16 46 -34 62 -41 l29 -11 -24 -9 c-16 -6 -35 -6 -54
1 -17 5 -51 10 -77 10 -42 0 -53 -5 -89 -40 -51 -50 -57 -96 -14 -129 35 -28
147 -28 181 -1 32 27 55 86 42 110 -14 27 -14 27 24 34 23 4 46 1 70 -11 46
-22 47 -48 2 -67 -18 -8 -41 -24 -50 -37 -17 -25 -22 -69 -7 -69 5 0 11 -11
15 -23 10 -41 45 -76 82 -83 52 -10 81 8 95 58 21 75 5 124 -51 153 -17 9 -30
23 -30 31 0 24 52 11 173 -42 56 -25 113 -50 127 -56 l25 -11 -33 -7 c-46 -11
-52 -19 -59 -83 l-6 -57 44 -20 c24 -11 59 -30 78 -42 26 -16 48 -21 92 -20
60 2 64 0 204 -71 44 -22 72 -30 105 -28 41 2 123 3 168 2 114 -1 165 19 188
74 7 19 18 36 24 40 5 3 10 17 10 31 0 32 18 38 84 30 65 -9 84 -21 92 -63 6
-28 2 -37 -26 -63 -17 -16 -55 -38 -82 -47 -28 -10 -53 -24 -55 -31 -11 -28
72 -92 120 -92 54 0 149 99 164 170 8 40 17 38 31 -7 7 -21 21 -52 32 -70 25
-42 96 -93 128 -93 54 0 143 75 116 99 -5 4 -25 14 -44 21 -52 19 -107 59
-113 81 -3 11 -1 32 3 47 5 15 9 20 9 11 2 -37 131 -125 235 -158 112 -36 336
-65 336 -43 0 19 -173 158 -238 191 -35 18 -82 33 -147 46 l-30 7 44 15 c43
14 48 14 100 -8 31 -12 81 -38 111 -56 138 -83 275 -119 356 -93 45 14 183 91
184 102 0 4 -12 10 -27 13 -83 15 -155 36 -203 58 -30 13 -77 34 -105 46 -59
26 -58 28 72 66 88 26 93 27 118 11 21 -14 23 -19 13 -35 -15 -25 -5 -46 32
-65 26 -12 36 -13 54 -4 11 7 31 11 44 9 15 -2 22 3 22 14 0 25 -46 65 -76 65
-30 0 -86 30 -81 44 4 13 88 45 121 45 22 1 27 -3 22 -15 -17 -44 -16 -61 3
-78 26 -23 51 -14 51 18 0 14 4 28 10 31 5 3 46 -1 91 -10 101 -19 213 -19
303 0 75 16 211 74 199 85 -18 16 -205 43 -293 43 -80 0 -110 -5 -191 -31 -90
-30 -169 -41 -169 -24 0 4 35 22 79 40 43 18 135 66 205 107 l128 75 43 -44
c53 -55 98 -69 201 -65 65 3 91 10 144 36 36 18 78 43 95 56 l29 24 -52 -5
c-28 -2 -111 3 -184 12 -73 9 -155 17 -183 19 l-50 2 49 34 c46 32 58 35 155
43 58 5 148 6 199 3 105 -8 174 4 238 41 38 22 99 82 91 90 -1 2 -27 -4 -57
-12 -35 -10 -113 -17 -216 -19 -88 -2 -173 -9 -187 -14 -37 -14 -34 0 6 29 29
22 45 25 177 31 150 7 193 15 271 55 41 20 139 115 139 133 0 14 -223 11 -290
-3 -36 -8 -67 -12 -69 -10 -8 7 173 185 198 195 20 8 31 6 52 -11 16 -11 42
-20 58 -20 16 0 33 -5 36 -10 3 -6 23 -10 44 -10 66 0 81 48 23 75 -12 5 -22
18 -24 29 -5 29 -32 42 -60 28 -41 -22 -65 -37 -82 -51 -28 -24 -30 -3 -3 38
20 30 40 44 82 60 95 36 126 37 162 7 39 -33 85 -43 101 -23 13 15 7 47 -9 47
-16 0 -9 22 14 41 19 16 20 20 7 29 -25 16 -58 11 -123 -19 -59 -27 -137 -46
-137 -34 0 3 21 30 46 59 39 46 55 56 112 74 215 66 347 176 432 356 35 75 58
144 47 144 -2 0 -22 -14 -43 -31 -58 -47 -135 -94 -224 -139 -43 -22 -96 -54
-116 -72 -43 -38 -43 -36 14 59 42 69 47 73 155 134 138 78 235 170 288 274
45 86 56 121 63 205 l6 65 -21 -27 c-11 -15 -58 -55 -104 -88 -84 -61 -157
-141 -209 -232 -16 -27 -32 -48 -37 -48 -13 0 -12 3 30 103 21 51 44 108 50
127 8 25 22 40 49 52 54 25 167 121 206 175 45 61 133 230 125 238 -20 19
-222 -114 -279 -183 -16 -20 -30 -34 -30 -32 0 3 6 38 14 79 11 58 20 79 44
100 16 15 37 39 46 53 31 48 -5 111 -64 111 -25 0 -30 4 -30 24 0 22 4 23 60
23 89 0 116 -25 124 -115 1 -5 7 -20 14 -32 14 -26 52 -31 52 -8 0 9 11 20 24
26 18 8 25 22 29 52 3 23 1 47 -5 54 -6 7 -8 27 -4 44 13 67 -59 110 -84 50
-22 -54 -42 -64 -102 -52 -29 6 -64 12 -78 14 -20 2 -24 7 -22 27 3 31 64 95
115 121 l38 20 41 -36 c49 -45 64 -36 73 40 5 41 2 57 -17 90 -21 35 -28 40
-65 43 -39 3 -43 1 -58 -33 -11 -22 -15 -47 -12 -65 5 -25 2 -32 -26 -49 -18
-11 -43 -31 -56 -45 -13 -14 -27 -24 -30 -22 -11 7 14 243 27 259 20 24 77 47
115 47 48 0 58 16 45 67 -12 51 -37 74 -78 76 -24 2 -35 -4 -48 -26 -16 -27
-16 -29 1 -41 27 -21 21 -59 -14 -85 -17 -13 -32 -21 -34 -19 -1 1 -6 70 -11
152 -10 167 -9 173 54 258 109 148 143 275 120 453 -6 50 -13 92 -14 94 -6 7
-70 -38 -103 -73 -39 -40 -59 -48 -37 -13 31 48 49 148 43 247 -6 94 -13 130
-26 130 -3 -1 -39 -46 -79 -101 -69 -93 -122 -196 -122 -236 0 -31 -16 1 -28
55 -10 44 -9 66 4 122 13 58 22 75 55 104 21 20 44 36 49 36 6 0 10 9 10 20 0
11 -3 20 -6 20 -3 0 -34 -20 -69 -45 -48 -34 -65 -54 -70 -77 l-7 -31 -18 23
c-11 14 -23 21 -33 17 -14 -5 -14 -12 6 -59 30 -69 62 -197 52 -206 -4 -4 -10
-2 -12 5 -11 29 -51 68 -120 115 -42 27 -93 66 -115 86 l-40 36 7 -59 c15
-136 78 -280 158 -362 22 -24 38 -45 35 -49 -4 -3 -28 4 -54 15 -26 12 -49 19
-51 17 -7 -7 50 -43 119 -74 106 -48 184 -133 213 -232 5 -19 -6 -12 -52 35
-32 33 -85 78 -118 99 -33 21 -82 60 -108 85 l-48 46 24 -67 c13 -37 36 -83
50 -102 34 -44 121 -101 199 -130 34 -13 69 -33 77 -45 21 -33 4 -38 -27 -8
-38 36 -93 57 -152 57 l-50 0 29 -47 c56 -91 144 -152 197 -139 24 6 24 5 24
-74 0 -52 -4 -79 -10 -75 -5 3 -10 14 -10 24 0 26 -30 59 -61 66 -21 5 -32 1
-53 -22 -14 -15 -26 -31 -26 -34 0 -12 54 -69 65 -69 6 0 16 -9 23 -21 8 -12
19 -18 28 -15 28 11 41 -4 39 -45 -1 -22 -4 -41 -6 -43 -2 -2 -30 1 -61 7 -46
8 -58 14 -58 29 0 34 -29 77 -57 84 -32 8 -54 -4 -72 -42 -8 -16 -18 -30 -23
-32 -12 -5 2 -85 20 -104 22 -26 51 -22 62 7 15 38 57 55 110 44 78 -17 83
-25 74 -119 l-7 -82 -36 7 c-48 10 -158 25 -196 28 -30 2 -30 1 -32 -50 -2
-50 0 -54 28 -68 42 -22 68 -10 91 42 l20 45 46 -7 c72 -11 84 -20 80 -63 -3
-32 -7 -37 -31 -40 -18 -2 -31 -11 -37 -26 -5 -13 -16 -26 -24 -29 -29 -11
-17 -41 37 -92 l54 -50 -7 -50 c-13 -94 -44 -224 -52 -219 -5 3 -6 9 -4 13 11
17 -25 164 -59 239 -21 45 -41 82 -44 82 -9 0 -40 -125 -43 -175 l-3 -40 -34
65 -33 64 -14 -26 c-8 -15 -19 -58 -26 -98 -10 -60 -10 -89 6 -198 19 -136 54
-289 81 -362 17 -44 17 -46 -4 -80 -11 -19 -28 -52 -37 -72 -9 -21 -20 -38
-25 -38 -5 0 -9 58 -9 129 0 70 -5 153 -10 182 -12 60 -39 139 -49 139 -17 0
-61 -89 -79 -158 -43 -161 -38 -294 15 -429 l24 -61 -27 -41 c-14 -23 -31 -41
-35 -41 -5 0 -9 48 -9 108 0 59 -5 136 -11 172 -10 67 -39 160 -50 160 -13 0
-49 -81 -69 -154 -17 -62 -21 -99 -18 -180 3 -90 7 -109 37 -173 l33 -72 -29
-43 c-16 -24 -33 -43 -37 -43 -17 0 -36 76 -25 97 13 24 3 70 -22 103 -26 32
-78 35 -86 4 -3 -11 -17 -25 -30 -30 -33 -12 -26 -27 33 -65 113 -75 124 -108
64 -189 -22 -30 -47 -55 -55 -55 -20 0 -29 20 -16 33 19 19 12 56 -13 72 -20
14 -23 22 -19 55 5 39 5 40 -23 40 -39 0 -53 -11 -62 -45 -5 -16 -15 -31 -23
-35 -67 -31 -73 -45 -26 -65 21 -9 39 -25 47 -45 10 -23 19 -30 40 -30 15 0
33 7 40 15 16 19 30 10 30 -20 0 -16 -33 -54 -116 -134 -135 -128 -214 -197
-214 -184 0 5 14 31 31 59 52 81 69 125 69 184 0 58 -8 100 -19 100 -3 0 -17
-20 -30 -45 -13 -25 -41 -65 -61 -88 -62 -70 -91 -140 -98 -229 l-5 -79 -91
-65 c-81 -57 -116 -75 -116 -59 0 9 70 100 95 124 15 13 33 38 41 55 l16 31
-26 -30 c-26 -30 -26 -30 -22 -5 3 14 8 50 11 81 4 36 20 84 44 132 28 56 34
74 21 67 -39 -21 -152 -148 -178 -200 -24 -50 -27 -66 -27 -165 -1 -112 -6
-135 -30 -135 -10 0 -12 11 -8 40 7 51 -18 110 -57 133 -40 24 -105 22 -131
-4 -24 -24 -21 -39 14 -59 24 -13 28 -13 51 9 40 38 74 16 97 -61 13 -47 0
-88 -35 -109 -40 -24 -52 -24 -59 1 -7 26 -29 26 -45 -1 -10 -16 -11 -24 -1
-35 14 -17 15 -16 -38 -43 -55 -28 -67 -27 -47 4 15 24 15 27 0 44 -9 9 -16
23 -16 29 0 22 -22 12 -56 -23 -19 -18 -34 -37 -34 -40 0 -3 12 -17 26 -30
l27 -25 -87 -40 c-112 -52 -130 -54 -134 -16 -3 20 4 36 23 56 22 23 25 31 16
49 -6 11 -11 24 -10 28 4 22 -3 32 -30 43 -33 13 -71 0 -71 -25 0 -7 -11 -26
-24 -42 l-24 -28 22 -26 c11 -15 34 -29 49 -33 40 -9 34 -53 -10 -78 -46 -28
-219 -68 -288 -67 l-60 0 35 27 c51 39 98 89 117 125 15 28 35 157 25 157 -2
0 -16 -8 -30 -18 -29 -20 -109 -55 -212 -93 -119 -44 -190 -142 -190 -261 0
-53 -6 -58 -82 -72 -51 -9 -50 5 7 111 50 93 55 127 23 168 -47 60 -144 64
-188 7 -28 -35 -25 -44 20 -81 22 -17 40 -39 40 -47 0 -8 -12 -33 -26 -56 -15
-23 -35 -60 -45 -82 l-17 -39 -25 49 c-13 27 -35 68 -48 92 l-24 43 44 38 c47
40 49 61 11 96 -49 44 -135 35 -178 -20 -33 -41 -27 -75 29 -180 50 -94 50
-95 26 -95 -13 0 -38 3 -55 6 -36 7 -54 40 -92 162 -12 39 -28 72 -34 72 -6 0
-18 13 -27 29 -25 43 -87 46 -112 4 -10 -17 -51 -17 -66 1 -7 8 -24 17 -39 21
-15 3 -38 17 -52 29 -59 54 -101 69 -205 75 -55 4 -109 12 -121 18 -15 9 -31
9 -56 2 -42 -11 -60 -30 -56 -56 2 -13 -9 -24 -38 -37 -33 -16 -44 -27 -53
-58 -7 -21 -16 -38 -22 -38 -5 0 -31 11 -58 25 -27 13 -70 30 -97 37 l-49 12
55 7 c42 6 60 14 79 35 21 25 23 35 19 101 -4 60 -9 78 -29 99 -34 36 -71 26
-136 -38 -45 -44 -53 -58 -53 -89 0 -22 10 -50 25 -73 13 -20 23 -36 21 -36
-11 0 -183 86 -198 98 -10 8 -18 25 -18 37 0 18 7 24 38 28 76 13 106 61 90
147 -19 109 -124 119 -194 19 -23 -33 -24 -41 -15 -75 6 -20 21 -49 34 -63 27
-29 41 -81 23 -81 -14 0 -110 97 -125 127 -17 33 -13 64 14 108 25 41 33 99
15 110 -6 4 -8 11 -4 16 10 18 -18 70 -43 80 -13 5 -39 9 -57 9 -37 0 -56 15
-56 45 0 11 -9 35 -20 53 -14 23 -27 32 -47 32 -34 0 -43 6 -71 47 -14 19 -38
37 -65 46 -27 9 -43 21 -45 33 -2 10 -16 32 -30 47 -23 25 -32 28 -65 23 -35
-6 -38 -4 -54 29 -15 31 -21 35 -54 35 -29 0 -42 -6 -58 -26 -12 -15 -21 -36
-21 -47 0 -16 -3 -18 -12 -9 -7 7 -35 12 -64 12 -51 0 -51 0 -114 71 -60 67
-63 72 -45 85 29 21 41 17 63 -21 36 -60 89 -60 162 3 l44 39 -17 27 c-10 15
-30 32 -45 38 -15 6 -37 15 -48 20 -32 15 -93 -8 -112 -41 -8 -15 -32 -37 -54
-48 l-38 -21 -40 45 c-28 33 -40 55 -40 77 0 43 25 76 58 76 76 0 143 94 118
168 -6 17 -15 22 -44 22 -46 0 -117 -32 -131 -58 -14 -26 -14 -67 -1 -91 7
-13 4 -34 -10 -72 l-19 -54 -30 68 c-41 92 -53 140 -42 169 12 31 76 88 100
88 21 0 61 40 61 61 0 8 -7 23 -15 33 -8 11 -12 29 -9 42 5 18 -2 30 -25 52
-21 19 -30 34 -25 45 12 32 -7 87 -46 133 -34 38 -38 48 -29 66 16 30 2 82
-31 118 -27 29 -30 39 -30 96 0 59 -3 67 -35 103 -27 30 -35 47 -35 77 0 48
-8 61 -41 69 -29 7 -43 -5 -53 -48 -9 -37 -37 -32 -48 9 -4 17 -17 39 -28 49
-19 17 -23 17 -59 3 -35 -14 -40 -14 -45 -1 -15 39 5 95 52 145 22 24 31 27
62 22 48 -8 72 6 110 60 57 84 36 122 -60 111 -83 -10 -110 -32 -110 -94 0
-37 -5 -52 -24 -70 l-24 -22 -5 43 c-4 24 -1 81 6 127 l13 83 74 39 c124 66
140 90 140 207 0 44 6 97 14 119 14 39 11 55 -18 123 -4 11 4 23 24 38 16 13
30 31 30 42 0 10 5 30 11 42 8 18 7 35 -5 68 -15 45 -15 45 14 75 35 36 36 44
11 91 -20 36 -20 37 0 63 19 26 19 28 2 75 -22 60 -48 74 -91 52 -71 -36 -89
-12 -71 94 14 79 29 109 70 144 24 21 41 26 68 24 46 -4 51 -25 17 -75 -26
-38 -31 -82 -17 -147 7 -35 31 -47 31 -16 0 33 17 57 58 80 51 29 85 83 90
148 4 42 1 57 -14 73 -28 32 -80 49 -145 49 -33 0 -59 2 -59 5 0 23 92 166
132 205 56 56 131 91 151 71 9 -10 5 -18 -21 -39 -49 -41 -72 -81 -72 -129 0
-51 11 -55 28 -10 7 20 46 61 101 109 115 99 146 149 146 239 1 37 6 73 12 81
6 7 39 68 73 135 34 68 65 125 70 128 4 3 13 -2 20 -9 11 -14 6 -65 -15 -149
-10 -38 7 -34 51 11 50 52 114 162 114 198 0 36 -35 94 -61 101 -45 12 -9 73
69 116 56 30 167 62 183 51 25 -15 -6 -74 -94 -177 -27 -32 -48 -59 -46 -61 2
-2 42 19 88 47 105 63 168 126 211 209 41 79 37 120 -15 173 -34 33 -34 35
-14 45 40 22 126 24 155 5 26 -17 27 -20 21 -86 -7 -78 -8 -77 62 -21 50 41
75 92 68 139 -5 29 -3 33 18 33 12 0 33 9 46 19 17 13 33 17 57 14 50 -9 76
20 68 74 -3 25 -2 43 4 43 18 0 51 45 46 63 -2 10 3 21 14 27 26 14 40 12 34
-4 -13 -34 189 -22 288 18 l57 23 -38 -46 c-22 -25 -46 -61 -55 -79 -15 -30
-15 -33 -1 -39 9 -3 58 -3 110 -1 105 6 163 31 207 89 13 17 34 41 47 52 14
12 42 40 63 61 l38 40 31 -23 c16 -12 54 -27 84 -34 50 -10 59 -9 102 13 37
18 61 23 103 21 66 -4 102 -21 132 -62 23 -31 23 -31 29 -7 18 63 3 136 -42
200 l-19 27 27 3 c16 2 28 8 28 13 0 6 -39 11 -92 13 l-93 3 0 27 c0 21 8 32
37 47 31 17 153 154 153 172 0 9 -131 -7 -190 -24 -70 -19 -133 -55 -154 -88
-23 -35 -61 -34 -80 3 -15 29 -51 63 -103 99 l-31 22 -6 -24z m334 -64 c0 -11
-31 -24 -39 -16 -3 3 1 10 9 15 19 12 30 12 30 1z m-61 -91 c21 -10 41 -26 45
-35 4 -10 2 -14 -5 -9 -7 4 -19 8 -28 9 -43 4 -91 18 -91 26 0 5 7 9 15 9 8 0
15 5 15 10 0 14 5 13 49 -10z m-137 -40 c-18 -11 -36 -20 -40 -20 -14 1 43 40
58 40 8 0 0 -9 -18 -20z m-90 -91 c2 -21 0 -35 -5 -30 -4 4 -9 20 -11 34 -1
15 -10 35 -19 45 -26 28 -20 38 7 13 15 -14 25 -37 28 -62z m-172 46 c7 -8 22
-15 34 -15 12 0 30 -6 39 -12 15 -11 8 -12 -37 -10 -33 2 -54 8 -53 15 1 6 -9
16 -23 24 l-25 13 26 0 c15 0 32 -7 39 -15z m-152 -59 c0 -24 3 -49 7 -56 5
-8 3 -11 -6 -8 -20 7 -38 60 -28 86 14 36 28 25 27 -22z m447 -26 c14 0 16 -3
8 -11 -16 -16 -67 10 -71 36 -4 19 -3 19 20 -2 13 -13 33 -23 43 -23z m-47
-20 c18 -22 28 -40 22 -40 -15 0 -70 55 -70 69 0 20 15 11 48 -29z m-288 -30
c12 -23 12 -24 -3 -11 -10 7 -17 20 -17 29 0 18 3 16 20 -18z m216 -26 c-6
-16 -65 -54 -85 -54 -8 0 1 10 19 23 18 12 40 36 49 54 13 26 17 28 19 11 2
-11 1 -26 -2 -34z m258 5 c-18 -20 -91 -28 -79 -9 3 6 13 10 22 10 8 0 27 9
41 21 31 24 43 8 16 -22z m-561 -23 c7 -8 33 -20 55 -27 53 -16 53 -26 1 -31
-47 -4 -89 20 -89 53 0 22 13 25 33 5z m-593 -85 c0 -5 10 -11 22 -13 18 -2
23 -10 25 -47 2 -35 -2 -49 -20 -66 -19 -20 -30 -22 -70 -18 -36 4 -47 10 -47
23 0 10 -6 23 -14 30 -13 10 -13 16 2 45 9 19 25 35 34 35 9 0 20 5 23 10 8
13 45 13 45 1z m-176 -176 c20 -8 36 -19 36 -23 0 -4 -27 -7 -60 -8 -63 -1
-70 4 -44 30 19 20 23 20 68 1z m-1435 -1469 c7 -8 15 -31 18 -53 l6 -38 -25
23 c-13 12 -32 22 -41 22 -23 0 -22 36 1 49 23 14 28 13 41 -3z m6201 -193
c-1 -22 -24 -116 -40 -163 -15 -40 -72 -105 -113 -127 -36 -18 -41 -13 -31 34
4 21 8 44 7 50 0 7 4 10 10 6 6 -4 8 0 4 11 -4 10 -3 15 3 11 6 -3 10 -4 10
-1 0 2 3 12 7 22 5 13 3 15 -8 9 -8 -5 -11 -5 -6 1 5 5 14 9 20 9 7 0 11 8 11
17 -1 10 2 16 6 15 9 -2 61 71 64 90 1 7 6 16 11 20 4 4 5 2 1 -4 -4 -7 -3
-13 2 -13 6 0 12 7 16 15 8 21 26 19 26 -2z m-431 -67 c68 -50 147 -137 173
-190 12 -25 28 -46 35 -46 7 0 13 -7 13 -15 0 -24 -26 -18 -44 10 -9 14 -22
23 -28 19 -6 -4 -8 -3 -4 4 3 6 -19 30 -52 56 -33 24 -67 56 -76 71 -9 14 -21
23 -26 20 -6 -4 -7 1 -3 11 5 13 3 15 -7 9 -8 -5 -11 -4 -7 3 9 13 -2 44 -13
37 -5 -3 -12 0 -16 6 -4 8 -3 9 4 5 16 -9 15 7 0 22 -24 24 5 11 51 -22z m543
-280 c-7 -65 -19 -105 -46 -163 -40 -84 -76 -143 -88 -143 -5 0 -8 27 -8 59 0
88 57 254 131 381 l14 25 3 -37 c2 -20 -1 -75 -6 -122z m-6446 119 c-12 -22
-48 -61 -70 -75 -11 -8 -28 28 -22 48 7 22 54 51 83 52 20 0 21 -2 9 -25z m25
-33 c-5 -10 -18 -25 -27 -33 -16 -12 -17 -12 -9 1 10 18 37 50 42 50 2 0 -1
-8 -6 -18z m6204 -48 c-13 -20 -27 -52 -31 -73 -10 -63 -16 -69 -30 -26 -19
61 -17 69 29 102 55 41 61 40 32 -3z m-6287 -86 c10 -26 9 -28 -14 -22 -34 9
-30 1 16 -31 42 -29 49 -45 27 -64 -11 -8 -23 1 -55 45 -40 54 -41 57 -25 78
23 30 38 28 51 -6z m191 6 c11 -10 12 -19 4 -37 -9 -20 -17 -23 -40 -19 -20 4
-23 7 -10 10 10 2 16 9 14 15 -5 13 -9 13 -46 2 -15 -5 -21 -4 -17 3 3 6 2 14
-4 17 -8 5 -8 11 0 20 14 16 78 9 99 -11z m23 -176 c15 -6 25 -14 22 -19 -3
-5 2 -9 10 -9 18 0 30 -34 19 -53 -4 -8 -23 -31 -40 -51 -26 -29 -39 -36 -63
-34 -17 1 -36 9 -43 16 -9 12 -3 22 33 55 l45 40 -46 -27 c-43 -24 -47 -25
-51 -9 -3 10 -1 27 3 38 4 11 8 34 8 52 1 31 1 31 39 22 20 -6 49 -15 64 -21z
m-232 12 c4 0 10 -9 13 -20 4 -17 2 -20 -14 -15 -23 8 -25 -7 -4 -25 12 -10
13 -16 4 -26 -17 -20 -47 -17 -59 6 -18 34 9 96 37 85 8 -3 18 -5 23 -5z
m6194 -171 c30 -7 58 -25 87 -55 24 -24 37 -44 29 -44 -7 0 -21 7 -30 15 -22
20 -90 47 -90 36 0 -11 54 -52 98 -75 41 -21 35 -31 -12 -22 -39 7 -128 82
-152 127 -14 27 -13 29 6 29 12 0 41 -5 64 -11z m-5904 -104 c0 -29 -62 -151
-100 -195 l-29 -35 -1 45 c0 48 12 73 63 127 16 17 27 37 25 44 -2 7 -13 -2
-26 -22 -12 -20 -30 -44 -42 -54 -17 -15 -20 -16 -20 -2 0 8 -3 24 -7 34 -3
10 -3 15 1 12 7 -7 76 58 73 68 -1 3 7 9 18 13 25 9 45 -6 45 -35z m-213 15
c12 -9 25 -29 29 -45 l7 -28 -48 36 c-26 21 -52 37 -56 37 -18 0 -8 -20 19
-37 15 -9 44 -32 65 -52 31 -30 37 -41 37 -78 l0 -42 -26 24 c-15 14 -31 25
-35 25 -5 0 -15 15 -23 33 -7 19 -27 49 -43 68 -29 34 -45 64 -38 71 11 10 93
1 112 -12z m-217 -189 c19 -10 35 -24 35 -31 0 -18 -45 -49 -75 -52 -21 -3
-26 3 -34 33 -17 68 8 86 74 50z m30 -326 c39 -20 38 -40 -1 -54 -50 -17 -89
-14 -89 7 1 62 30 78 90 47z m416 -10 c4 -8 -1 -27 -10 -41 -13 -19 -22 -23
-39 -18 -24 7 -47 31 -47 50 0 24 87 32 96 9z m6293 -346 c-9 -4 -41 -40 -72
-78 -31 -38 -73 -79 -94 -91 -21 -13 -53 -37 -70 -54 -31 -28 -33 -28 -33 -9
0 47 137 179 245 236 31 16 53 13 24 -4z m-6488 -59 l-10 -25 0 27 c-1 14 2
35 6 45 7 17 8 17 11 -2 1 -12 -2 -32 -7 -45z m51 25 c6 -29 -7 -43 -16 -19
-9 24 -7 56 3 50 5 -3 11 -17 13 -31z m6018 -115 c22 -66 31 -204 15 -230 -5
-7 -21 21 -43 76 -30 74 -36 101 -36 160 0 39 4 79 8 90 7 18 9 17 21 -6 7
-14 23 -55 35 -90z m-5935 34 c24 -26 29 -46 25 -109 -1 -21 9 -42 34 -72 43
-49 50 -99 14 -87 -13 3 -30 12 -39 20 -13 12 -19 11 -40 -3 l-24 -17 20 25
c11 13 27 29 35 36 8 6 12 15 8 18 -4 4 -21 -4 -38 -19 -17 -14 -35 -26 -40
-26 -12 0 -20 29 -10 35 13 8 13 98 -1 112 -7 7 -1 18 21 37 26 21 28 26 13
26 -11 0 -24 -5 -31 -12 -9 -9 -12 -5 -12 18 0 52 27 59 65 18z m-185 -18 c0
-29 -11 -44 -31 -39 -28 8 -23 -4 15 -38 44 -38 88 -116 84 -149 -2 -16 -13
-30 -31 -38 -21 -10 -25 -17 -17 -26 8 -10 5 -12 -14 -9 -49 10 -33 -14 26
-37 64 -25 98 -63 98 -107 0 -13 16 -41 36 -63 41 -45 40 -67 -1 -26 -14 14
-31 26 -38 26 -17 1 -60 40 -90 84 -23 35 -24 40 -11 54 12 12 13 17 3 23 -8
4 -18 1 -24 -8 -11 -14 -14 -14 -33 5 -29 29 -28 48 3 68 33 22 32 39 -11 102
-37 56 -51 104 -40 145 8 35 76 64 76 33z m305 -306 c24 0 25 -2 24 -72 -1
-40 -4 -61 -6 -47 -3 21 -9 26 -24 22 -25 -7 -24 9 1 32 31 28 23 38 -11 13
l-31 -23 -28 35 c-15 19 -26 40 -23 46 6 17 56 22 66 7 4 -7 19 -13 32 -13z
m-103 -164 c-4 -27 -6 -28 -18 -11 -19 26 -17 44 4 42 14 -1 17 -7 14 -31z
m38 -46 c0 -13 -1 -13 -10 0 -5 8 -10 22 -10 30 0 13 1 13 10 0 5 -8 10 -22
10 -30z m131 -4 c37 -34 44 -89 19 -151 -10 -28 -19 -44 -20 -37 0 6 -7 12
-15 12 -22 0 -18 29 10 79 29 50 29 51 11 51 -8 0 -17 -7 -20 -16 -9 -23 -33
-1 -41 36 -12 54 14 65 56 26z m-237 -58 c-4 -6 0 -14 7 -19 11 -7 10 -9 -3
-9 -21 0 -24 -18 -5 -26 7 -2 13 -13 14 -24 2 -20 -17 -18 -45 3 -29 23 -33
45 -10 70 21 23 55 27 42 5z m125 -79 c29 -10 70 -64 57 -76 -9 -9 -96 30 -96
43 0 24 -2 29 -13 36 -19 12 15 10 52 -3z m404 -187 c-2 -45 -7 -48 -44 -26
-41 24 -47 42 -17 54 43 17 63 9 61 -28z m171 -263 c36 -17 41 -40 14 -61 -13
-10 -26 -18 -31 -18 -12 0 -26 46 -20 69 6 25 5 24 37 10z m-534 -49 c0 -22
-2 -40 -5 -40 -12 0 -70 33 -77 44 -16 24 -2 32 55 35 25 1 27 -2 27 -39z
m539 -235 c12 -12 9 -16 -20 -28 -37 -15 -46 -11 -69 32 -12 24 -12 24 31 17
24 -4 50 -13 58 -21z m161 -35 c22 -22 25 -46 10 -70 -5 -8 -10 -13 -11 -10 0
3 -2 14 -4 25 -2 10 -14 27 -26 36 -12 9 -19 21 -15 28 10 16 23 14 46 -9z
m-415 -24 c0 -10 -13 -28 -28 -40 -35 -26 -61 -13 -65 33 l-3 32 48 -3 c39 -2
48 -6 48 -22z m211 -58 c1 -4 3 -11 4 -15 2 -5 3 -19 4 -32 1 -20 10 -26 50
-38 31 -9 45 -18 39 -24 -6 -6 -19 -6 -37 1 -15 5 -34 10 -43 10 -30 0 7 -29
46 -35 83 -14 82 -13 68 -38 -6 -12 -12 -23 -13 -25 -1 -1 -30 6 -65 17 -35
10 -81 22 -101 25 -42 7 -51 17 -42 40 4 10 16 15 33 14 56 -4 65 21 21 59
-26 22 -30 31 -30 76 l1 52 32 -39 c18 -22 33 -43 33 -48z m370 -64 c55 -20
88 -56 85 -94 -1 -16 -3 -43 -4 -60 -1 -16 -6 -30 -12 -30 -5 0 -34 23 -63 51
-45 42 -53 55 -48 75 7 26 -11 34 -20 9 -5 -12 -9 -12 -30 2 -22 14 -32 51
-18 66 8 8 58 -1 110 -19z m4454 -53 c0 -14 -60 -48 -105 -59 -22 -6 -71 -14
-110 -18 l-70 -7 30 25 c48 40 76 51 145 58 99 11 110 11 110 1z m-4537 -155
c15 -12 13 -15 -28 -26 -25 -7 -48 -16 -51 -21 -8 -13 7 -59 18 -53 5 3 5 11
-2 19 -8 10 -3 15 21 24 48 16 99 14 99 -4 0 -9 12 -18 29 -21 16 -4 31 -14
34 -24 5 -21 -32 -30 -131 -30 -54 0 -67 4 -87 25 -14 13 -25 31 -25 40 0 25
19 55 34 55 8 0 19 7 26 15 15 18 39 19 63 1z m373 -13 c22 -24 25 -34 23 -97
-2 -42 3 -81 10 -94 7 -13 11 -27 9 -32 -6 -17 -68 19 -78 45 -13 34 -13 96
-1 76 7 -11 10 -10 13 5 9 47 -4 82 -33 94 -38 16 -37 30 1 30 21 0 39 -9 56
-27z m317 -65 c23 -28 23 -68 -2 -68 -31 0 -121 42 -121 56 0 20 51 44 80 37
14 -3 33 -14 43 -25z m-472 -139 c5 -11 15 -17 22 -13 7 3 1 -3 -13 -14 -14
-12 -22 -23 -19 -26 2 -3 34 -1 69 4 90 13 98 13 96 -7 -1 -20 -44 -46 -101
-62 -32 -9 -46 -7 -82 9 -24 10 -46 25 -48 33 -3 7 4 34 15 60 22 49 40 54 61
16z m724 4 c14 -33 23 -83 16 -87 -8 -6 -112 14 -131 24 -12 7 -7 15 23 44 41
39 80 47 92 19z m1929 -185 c-7 -24 -20 -43 -69 -96 -32 -35 -70 -59 -117 -73
-25 -7 -28 -5 -28 15 0 41 43 88 120 132 88 50 104 53 94 22z m-1400 -124 c22
-53 24 -69 14 -75 -7 -5 -16 -9 -19 -9 -11 0 -89 161 -83 171 3 5 18 2 33 -6
21 -10 36 -33 55 -81z m701 66 c23 -19 18 -38 -20 -71 -19 -17 -35 -39 -35
-49 0 -10 19 -53 41 -95 40 -73 41 -80 37 -144 -6 -74 -32 -128 -88 -174 -38
-32 -78 -34 -114 -6 -21 17 -24 24 -15 35 6 8 17 14 23 14 7 0 33 13 58 29 87
55 90 145 8 282 -65 107 -66 153 -5 188 24 14 90 8 110 -9z m224 5 c55 -28 55
-83 1 -169 -81 -127 -89 -210 -29 -272 18 -19 52 -41 76 -50 24 -9 43 -20 43
-25 0 -16 -54 -49 -81 -49 -39 0 -92 49 -125 116 -37 75 -31 145 19 232 46 80
47 102 1 141 -40 36 -41 59 -4 78 33 17 65 16 99 -2z m-1013 -43 c12 -26 24
-59 28 -74 5 -23 4 -26 -11 -21 -10 4 -24 13 -31 20 -7 7 -19 13 -26 13 -13 0
-22 82 -11 100 13 21 31 8 51 -38z m-883 -15 c33 -44 39 -64 21 -71 -29 -11
-78 -6 -96 11 -25 22 -23 68 3 87 27 18 42 13 72 -27z m635 -14 c-20 -5 -24
-19 -6 -25 6 -2 9 -9 7 -16 -6 -16 -25 -1 -33 26 -7 19 -4 22 21 21 17 -1 21
-3 11 -6z m538 -31 c6 -12 18 -30 26 -39 20 -24 19 -53 -2 -53 -10 0 -24 16
-35 40 -20 45 -41 54 -31 14 6 -22 4 -25 -16 -22 -26 3 -27 27 -2 66 18 28 44
25 60 -6z m-403 -44 c28 -11 27 -11 -38 -43 -68 -33 -81 -55 -17 -28 87 36
165 49 113 19 -71 -42 -104 -56 -131 -56 -32 0 -34 4 -30 64 4 65 24 74 103
44z m564 -1 c-1 -5 -11 -11 -20 -13 -14 -2 -15 1 -6 17 10 20 33 16 26 -4z
m-1013 -40 c14 -10 15 -18 7 -40 -9 -23 -16 -27 -50 -27 -42 0 -71 25 -71 62
0 15 9 18 48 18 27 0 56 -6 66 -13z m664 -13 c30 -9 28 -29 -8 -55 -48 -36
-22 -42 37 -9 30 17 52 27 49 21 -3 -5 0 -11 6 -14 31 -11 -63 -66 -114 -67
-11 0 -18 7 -18 18 0 13 -2 14 -9 3 -6 -9 -11 -1 -16 29 -6 38 -5 45 16 61 27
21 26 21 57 13z m272 -54 c0 -16 -59 -87 -77 -92 -31 -8 -67 7 -80 32 -15 31
-2 56 34 63 l28 5 -23 -18 c-12 -10 -19 -21 -14 -24 10 -6 60 18 80 38 14 13
52 10 52 -4z m1285 -52 c17 -10 43 -22 58 -29 41 -17 28 -34 -29 -37 -81 -5
-132 6 -169 40 -19 16 -35 35 -35 40 0 16 141 5 175 -14z M2520 6859 c-18 -32
12 -71 48 -63 15 4 30 9 35 11 11 7 8 48 -5 61 -20 20 -66 15 -78 -9z m60 7
c0 -2 -11 -6 -25 -8 -14 -3 -25 -1 -25 3 0 5 11 9 25 9 14 0 25 -2 25 -4z
M4655 7350 c-9 -10 -20 -34 -24 -52 -5 -25 -16 -37 -41 -50 -19 -9 -46 -27
-59 -41 l-23 -25 41 -26 c22 -14 47 -26 55 -26 8 0 18 -5 22 -11 4 -8 -25 -10
-100 -7 -80 2 -106 0 -106 -9 0 -10 24 -13 88 -13 l87 0 -41 -38 c-37 -33 -74
-82 -74 -97 0 -3 25 -5 55 -5 l54 0 36 -52 c19 -29 35 -58 35 -65 0 -20 8 -16
42 23 42 48 68 43 88 -16 8 -25 20 -52 25 -60 6 -8 19 -34 31 -59 24 -52 27
-50 100 61 26 40 54 79 62 86 22 17 42 15 42 -5 0 -10 9 -31 20 -48 11 -16 20
-42 20 -57 0 -22 -5 -27 -27 -30 -22 -2 -29 -9 -31 -30 -3 -23 2 -30 24 -38
15 -6 33 -9 40 -6 18 7 31 59 16 64 -7 2 -12 14 -12 28 0 23 1 23 33 10 17 -8
54 -22 80 -31 71 -25 116 -104 55 -97 -31 4 -52 -20 -44 -52 4 -16 1 -26 -9
-30 -27 -10 -18 -47 14 -59 18 -6 31 -20 34 -33 4 -20 2 -22 -16 -13 -15 8
-22 8 -28 -2 -14 -22 -11 -28 11 -22 11 3 27 3 35 -1 13 -4 10 -16 -17 -71
-18 -37 -39 -65 -48 -65 -8 -1 0 -9 19 -19 l34 -18 33 68 c18 38 38 69 43 69
15 0 42 -31 36 -41 -4 -5 -2 -9 3 -9 16 0 22 28 9 38 -7 5 -31 19 -54 31 -41
21 -60 40 -27 27 9 -4 22 -1 30 5 9 7 18 7 33 -1 11 -6 32 -8 46 -4 23 6 25 3
25 -25 0 -34 4 -35 65 -21 24 5 44 5 51 -1 10 -8 120 -52 167 -66 20 -6 19 6
-11 105 -14 47 -14 54 0 68 14 14 19 12 59 -25 24 -22 47 -41 52 -41 7 0 11
21 9 50 -1 26 21 29 60 7 43 -25 45 -32 22 -80 -14 -30 -21 -34 -51 -33 -44 1
-64 -23 -45 -54 11 -18 9 -23 -14 -43 -49 -43 -4 -89 55 -57 15 7 20 4 30 -16
16 -37 62 -30 76 11 7 21 15 29 28 27 10 -2 24 2 32 8 24 20 17 48 -15 65 -17
9 -27 21 -24 29 7 19 -25 48 -48 43 -15 -4 -18 -2 -13 11 4 9 10 25 12 35 8
25 20 22 98 -24 90 -52 109 -70 135 -131 21 -49 21 -51 3 -100 -13 -38 -28
-57 -55 -74 -51 -32 -88 -84 -88 -123 0 -31 40 -124 59 -135 5 -3 17 6 26 21
l17 26 14 -31 c15 -38 91 -122 110 -122 7 0 23 15 36 32 19 28 23 44 21 100
-2 75 -2 76 62 53 56 -20 58 -19 52 20 -10 59 18 39 66 -47 25 -47 25 -48 5
-48 -16 0 -19 -5 -15 -22 7 -26 -8 -58 -28 -58 -8 0 -27 -11 -42 -24 l-28 -25
53 -7 c39 -5 56 -12 64 -28 6 -11 19 -32 29 -45 l19 -24 20 44 c11 24 20 56
20 72 0 40 13 34 56 -25 20 -29 39 -47 41 -41 3 7 -5 26 -17 43 l-21 30 72 0
c72 0 72 0 54 21 -19 20 -19 20 7 42 25 21 54 85 43 95 -4 5 -83 -8 -124 -19
-9 -2 -16 4 -18 16 -9 44 -13 45 -48 10 -27 -28 -35 -44 -35 -73 l-1 -37 -42
47 c-23 26 -50 61 -60 77 -16 27 -16 31 -3 31 13 0 16 13 16 64 0 71 6 80 63
90 21 4 63 17 94 28 51 20 54 23 37 36 -11 8 -37 22 -59 32 -22 9 -61 27 -86
38 l-46 21 5 56 c4 50 3 55 -14 48 -11 -4 -13 -8 -6 -11 20 -6 13 -32 -9 -32
-15 0 -19 5 -15 15 7 20 -10 19 -62 -5 -34 -15 -47 -29 -60 -61 -14 -37 -18
-40 -45 -35 -16 3 -41 6 -56 6 -23 0 -29 7 -44 50 -21 59 -63 96 -196 172 -52
29 -97 59 -99 67 -4 11 0 12 14 6 43 -18 72 -17 93 4 12 12 27 21 35 21 29 0
46 13 46 35 0 13 -4 27 -10 30 -6 4 -4 15 5 29 14 21 13 24 -5 41 -17 15 -24
16 -46 6 -23 -10 -28 -9 -41 9 -26 36 -95 15 -79 -25 6 -17 -9 -20 -20 -4 -5
8 -31 10 -79 6 -44 -3 -77 -1 -83 5 -6 6 -21 16 -34 22 -20 10 -23 20 -26 74
-2 35 -7 75 -13 89 l-9 25 -48 -43 c-26 -24 -51 -49 -55 -56 -5 -9 -30 -13
-72 -13 -57 0 -65 -2 -65 -19 0 -15 -10 -20 -49 -25 -99 -13 -215 18 -261 70
-29 33 -41 84 -20 84 6 0 6 7 -1 19 -18 28 -4 51 31 51 30 0 30 -1 30 -52 0
-45 4 -57 32 -85 l31 -32 29 20 c15 11 28 27 28 34 0 15 12 19 74 30 30 5 89
26 114 41 9 6 -85 80 -120 96 -22 10 -56 35 -74 55 l-34 37 -29 -28 c-16 -16
-33 -45 -38 -65 -5 -20 -12 -35 -16 -33 -4 1 -16 2 -27 2 -26 0 -25 11 4 57
52 80 66 93 101 93 25 0 34 5 38 21 9 32 -1 46 -36 52 -40 6 -50 -3 -50 -45 0
-19 -9 -44 -21 -59 -12 -15 -26 -35 -33 -45 -11 -18 -12 -18 -12 4 -1 26 -30
87 -38 79 -2 -3 0 -14 6 -25 12 -22 15 -85 5 -95 -4 -3 -21 10 -39 28 -23 25
-31 42 -28 59 3 16 -2 28 -16 38 -20 14 -20 15 14 31 60 29 36 74 -35 64 -38
-5 -40 -4 -40 23 0 33 -22 54 -48 45 -27 -8 -34 -42 -16 -77 16 -30 32 -35 53
-15 11 10 13 9 8 -5 -4 -10 -2 -18 3 -18 16 0 12 -40 -4 -46 -11 -4 -12 -12
-4 -35 11 -33 19 -40 54 -44 30 -3 63 -31 76 -64 14 -38 -4 -47 -54 -28 -24 9
-60 19 -81 23 -20 3 -41 11 -45 18 -9 14 -37 32 -84 54 -21 9 -38 22 -38 29 0
18 30 43 59 49 23 5 51 41 51 65 0 4 -16 13 -36 19 -30 10 -38 9 -53 -4 -26
-24 -30 -21 -37 33 -6 49 -36 111 -52 111 -5 0 -17 -9 -27 -20z m118 -175 c16
-23 16 -26 2 -31 -20 -8 -22 -6 -30 29 -9 34 4 34 28 2z m676 -484 c11 -15 25
-40 31 -55 5 -14 15 -26 22 -26 9 0 9 3 0 12 -31 31 -2 50 40 27 17 -9 18 -13
7 -21 -11 -8 -10 -9 3 -4 10 3 33 -1 52 -9 20 -8 49 -15 65 -15 16 0 32 -4 35
-9 5 -7 -48 -15 -161 -24 -13 -1 -23 -5 -23 -9 0 -4 -10 -12 -21 -19 -18 -9
-24 -8 -31 5 -5 9 -16 16 -23 16 -18 0 -18 5 -3 29 19 31 3 54 -36 49 -25 -3
-37 1 -45 14 -6 10 -20 18 -30 18 -22 0 -45 25 -36 40 3 5 35 10 70 10 59 0
65 -2 84 -29z m570 -60 c12 -21 -4 -48 -29 -51 -48 -7 -64 8 -49 48 11 28 63
31 78 3z m-652 -63 c13 -10 7 -35 -14 -56 -11 -12 -16 -12 -31 0 -35 27 -40
40 -23 58 16 16 45 15 68 -2z m128 -159 c0 -7 -8 -15 -17 -17 -18 -3 -25 18
-11 32 10 10 28 1 28 -15z m440 -130 c0 -19 -6 -25 -28 -27 -19 -2 -33 3 -43
15 -12 16 -11 20 7 35 27 23 64 10 64 -23z m399 -85 c10 -26 7 -74 -5 -74 -24
0 -99 62 -99 82 0 4 22 8 49 8 35 0 51 -4 55 -16z m-87 -59 c-1 -1 -17 -5 -34
-8 -27 -5 -33 -3 -33 11 0 10 5 23 12 30 9 9 17 7 35 -10 13 -12 22 -22 20
-23z m427 16 c3 -5 -1 -12 -10 -15 -22 -9 -24 -8 -24 9 0 16 25 21 34 6z m120
-296 c-6 -16 -24 -21 -24 -7 0 11 11 22 21 22 5 0 6 -7 3 -15z m-124 -32 c0
-9 10 -27 21 -40 20 -20 20 -23 5 -29 -21 -8 -66 22 -66 44 0 19 18 42 32 42
4 0 8 -8 8 -17z m-122 -45 c30 -30 -1 -74 -33 -48 -22 18 -19 60 3 60 10 0 23
-5 30 -12z M4260 7318 c0 -38 -26 -61 -37 -32 -8 21 -63 49 -63 31 0 -7 7 -23
16 -35 8 -12 11 -22 5 -22 -5 0 -12 -9 -16 -20 -3 -11 -14 -19 -23 -18 -9 1
-33 0 -52 -1 l-35 -1 25 -15 c14 -8 35 -19 48 -24 27 -13 29 -41 3 -41 -21 0
-35 -15 -46 -48 l-6 -22 44 21 c26 13 52 19 62 15 17 -6 17 -7 1 -19 -15 -11
-17 -22 -11 -60 4 -25 12 -53 19 -62 9 -12 11 -4 11 42 0 52 2 58 22 61 12 2
27 10 33 18 17 20 30 18 30 -5 0 -23 15 -36 66 -57 l39 -16 -32 31 c-23 21
-33 39 -33 60 0 29 1 30 30 20 22 -8 34 -7 50 4 20 14 20 15 -9 27 -51 21 -55
34 -21 70 18 20 30 42 29 59 0 26 0 26 -9 3 -21 -51 -104 -44 -106 10 -1 16
-9 37 -18 46 -15 15 -16 14 -16 -20z m11 -108 c34 -19 19 -80 -20 -80 -18 0
-51 29 -51 46 0 15 27 44 41 44 6 0 19 -5 30 -10z M4827 7113 c-9 -21 -7 -28
16 -50 26 -26 27 -27 47 -8 32 29 23 68 -18 76 -29 6 -35 4 -45 -18z M2224
6967 c-8 -23 -3 -27 31 -30 16 -1 30 4 33 11 3 9 -2 13 -14 10 -11 -2 -24 3
-31 12 -10 13 -12 13 -19 -3z M5760 6900 c-21 -5 -25 -12 -26 -48 0 -29 -8
-50 -25 -70 -24 -27 -24 -27 8 2 27 24 37 27 66 22 32 -6 37 -4 52 26 15 31
15 34 -2 46 -32 24 -48 29 -73 22z M2084 6879 c-4 -7 -2 -15 5 -17 9 -3 9 -7
0 -18 -14 -17 -6 -29 15 -21 9 4 14 17 13 33 -2 30 -21 42 -33 23z M2123 6824
c-7 -19 11 -39 26 -30 16 10 13 33 -4 40 -9 3 -18 -1 -22 -10z M3727 6733
c-32 -4 -36 -7 -28 -22 5 -9 11 -47 13 -84 l3 -67 41 0 c77 0 104 10 104 37
l0 25 -17 -20 c-10 -12 -31 -23 -48 -24 -27 -3 -30 0 -33 30 -2 24 1 32 12 32
9 0 16 -4 16 -10 0 -5 4 -10 8 -10 4 0 6 16 4 35 -4 33 -5 34 -18 18 -12 -16
-15 -16 -24 -3 -28 43 11 75 55 46 24 -16 25 -15 25 4 0 21 -16 23 -113 13z
M4038 6655 l-3 -85 30 0 c30 0 30 1 27 40 -3 32 -1 40 12 40 9 0 19 -7 22 -15
9 -24 24 -7 24 27 0 29 -1 30 -18 15 -29 -26 -42 -20 -42 18 0 32 2 35 29 35
16 0 37 -7 46 -16 18 -19 30 -13 22 11 -5 11 -22 15 -76 15 l-70 0 -3 -85z
M4256 6717 c2 -7 1 -46 -4 -85 -9 -76 -6 -82 40 -82 15 0 18 3 10 13 -9 11 1
127 13 147 6 9 -19 20 -46 20 -11 0 -16 -5 -13 -13z M4393 6646 c-1 -35 -6
-73 -12 -84 -9 -17 -6 -20 21 -26 93 -19 149 1 163 57 15 58 -29 98 -125 112
l-45 6 -2 -65z m108 23 c38 -38 5 -129 -48 -129 -27 0 -27 2 -11 86 12 69 24
78 59 43z M3404 6675 c-13 -13 -24 -28 -24 -34 0 -19 32 -41 76 -52 50 -13 61
-24 44 -44 -16 -20 -50 -19 -80 2 -22 16 -23 16 -17 -1 4 -10 7 -21 7 -25 0
-4 23 -4 51 -1 51 7 79 27 79 57 0 23 -36 50 -77 56 -46 8 -62 31 -32 47 15 8
27 7 49 -4 28 -13 30 -13 30 3 0 30 -75 27 -106 -4z M4647 6616 c-4 -24 -13
-62 -20 -84 l-14 -41 70 -17 c58 -14 71 -15 78 -3 14 23 10 30 -10 19 -48 -25
-84 -7 -75 38 8 37 21 41 33 10 8 -24 15 -17 25 25 6 25 5 27 -13 15 -11 -7
-23 -10 -26 -6 -11 11 7 58 22 58 24 0 53 -20 53 -36 0 -8 5 -12 10 -9 6 3 10
14 10 23 0 13 -17 22 -64 35 -35 9 -66 17 -69 17 -2 0 -7 -20 -10 -44z M3216
6629 c-3 -8 -12 -45 -20 -84 -7 -38 -17 -78 -21 -87 -5 -13 -2 -15 14 -11 23
6 39 23 22 23 -6 0 -11 8 -11 18 0 23 62 46 79 29 6 -6 11 -17 11 -24 0 -10 8
-11 28 -7 15 4 29 8 31 10 4 4 -89 114 -114 134 -12 10 -16 10 -19 -1z m34
-90 c0 -4 -9 -9 -20 -12 -16 -4 -20 0 -20 17 0 31 11 39 26 18 7 -9 14 -20 14
-23z M3010 6571 c-63 -23 -76 -31 -78 -52 -3 -23 -3 -23 22 6 30 37 36 31 67
-55 12 -36 23 -66 24 -68 1 -1 16 3 34 9 27 9 29 13 17 23 -18 13 -58 124 -50
137 8 13 38 11 53 -3 11 -11 13 -10 7 5 -3 10 -6 21 -6 23 0 7 -13 4 -90 -25z
M4876 6585 c6 -15 -35 -136 -49 -146 -4 -3 20 -16 55 -29 35 -12 68 -25 74
-27 6 -2 16 8 22 22 12 25 11 25 -12 10 -23 -15 -47 -12 -73 7 -9 7 -7 22 8
61 10 29 24 60 30 70 12 22 13 21 -28 35 -26 9 -31 8 -27 -3z M5096 6496 c6
-15 -41 -127 -59 -138 -7 -4 -1 -11 17 -18 16 -6 33 -13 39 -17 6 -3 7 -1 3 5
-8 13 39 123 60 139 14 10 11 14 -21 27 -45 19 -46 19 -39 2z M2750 6460 c-30
-16 -48 -29 -39 -30 17 0 76 -114 71 -137 -2 -10 5 -9 33 4 19 9 31 19 27 22
-14 9 -34 52 -28 59 4 3 25 -3 49 -15 33 -15 48 -18 70 -10 l28 9 -38 20 c-52
28 -58 35 -44 52 9 11 10 20 1 35 -15 30 -63 26 -130 -9z m88 -22 c2 -19 -3
-30 -17 -37 -18 -10 -23 -7 -37 20 -13 26 -14 33 -2 40 25 17 53 6 56 -23z
M3747 6469 c-55 -4 -176 -22 -270 -39 -481 -87 -936 -325 -1301 -680 -516
-502 -798 -1201 -773 -1910 21 -559 214 -1081 564 -1520 156 -196 413 -423
638 -565 303 -191 701 -330 1058 -370 565 -63 1136 61 1611 350 344 209 656
519 864 860 566 927 478 2124 -216 2955 -538 644 -1350 987 -2175 919z m528
-69 c148 -17 453 -88 478 -110 5 -4 -12 -27 -38 -51 -66 -61 -89 -110 -89
-188 0 -49 -4 -69 -18 -83 -10 -10 -18 -25 -18 -33 0 -8 -9 -15 -19 -15 -22 0
-68 -51 -77 -85 -6 -25 10 -65 27 -65 6 0 2 -13 -8 -30 -18 -30 -37 -38 -48
-20 -11 19 -70 10 -107 -15 -45 -31 -54 -46 -63 -107 l-7 -48 -67 -2 -66 -2
64 -3 c35 -2 68 0 74 6 5 5 11 24 13 43 7 63 14 77 51 103 43 28 88 32 114 9
15 -14 19 -13 41 9 13 13 22 30 19 38 -4 12 -2 12 12 0 10 -7 17 -10 17 -6 0
4 -11 16 -24 26 -14 11 -28 28 -31 39 -9 29 22 80 59 95 21 9 36 24 40 38 3
13 17 29 30 35 24 11 24 12 9 42 -34 69 29 199 120 246 26 14 34 12 120 -22
268 -106 559 -291 782 -498 l60 -55 -37 -33 c-87 -76 -116 -98 -131 -98 -9 0
-39 -20 -67 -45 -28 -25 -67 -52 -86 -60 -25 -10 -40 -26 -52 -54 l-17 -39
-52 5 c-65 7 -95 -10 -124 -72 -24 -50 -28 -50 -99 5 -19 15 -46 30 -60 33
-14 3 -51 14 -82 26 -92 34 -135 26 -218 -40 -19 -15 -52 -31 -73 -34 -20 -4
-48 -15 -60 -26 -13 -10 -36 -21 -52 -25 -15 -4 -52 -28 -81 -53 -96 -82 -120
-100 -150 -107 -16 -4 -55 -17 -86 -30 -44 -19 -63 -22 -83 -14 -14 5 -25 6
-25 2 0 -4 -10 8 -21 25 -18 28 -19 37 -9 67 6 19 8 45 5 57 -3 14 0 32 8 43
12 16 12 23 1 45 -18 34 -18 73 0 116 19 44 12 46 -10 3 -13 -24 -15 -47 -11
-95 l6 -63 -732 1 c-403 1 -836 4 -964 8 -138 3 -228 2 -223 -3 5 -5 416 -11
963 -14 924 -5 954 -5 950 -23 -4 -15 -16 -19 -57 -21 l-51 -2 53 -3 c48 -4
53 -6 50 -26 -2 -15 -12 -24 -33 -28 -28 -6 -28 -7 -5 -8 24 -1 31 -11 50 -66
6 -18 33 -32 53 -27 16 4 17 2 7 -14 -14 -22 -77 -57 -90 -49 -4 3 -14 -3 -21
-13 -12 -15 -12 -16 1 -7 9 6 2 -2 -15 -17 -37 -34 -41 -34 -68 -3 -17 21 -38
29 -97 38 l-75 12 160 6 160 5 -185 1 c-135 1 -207 5 -265 18 l-80 17 -75 -27
c-178 -65 -235 -83 -241 -79 -4 2 -18 -9 -32 -25 -14 -17 -28 -27 -32 -23 -8
7 14 -39 23 -48 2 -3 2 5 -2 17 -5 15 1 29 19 50 l26 28 -20 -30 c-25 -36 -19
-68 15 -83 13 -7 26 -23 30 -39 3 -15 9 -39 14 -53 4 -14 14 -45 21 -70 7 -25
19 -49 25 -55 7 -5 15 -20 19 -32 10 -36 -30 -30 -45 6 -6 16 -25 44 -41 62
-16 18 -29 36 -29 40 0 3 -13 9 -30 12 -19 4 -35 17 -45 37 -8 16 -22 30 -29
30 -7 0 -20 10 -29 23 -14 21 -15 21 -34 5 -25 -23 -32 -23 -62 5 -14 12 -20
15 -13 6 10 -13 7 -20 -14 -40 l-26 -24 -331 -5 c-323 -5 -332 -6 -334 -25 -1
-16 -1 -16 3 -2 5 16 28 17 331 17 l326 -1 36 33 c35 33 35 33 -4 -13 -35 -41
-67 -58 -110 -60 -5 0 -109 2 -230 5 -121 4 -326 2 -455 -2 -228 -9 -221 -9
223 -10 448 -2 501 -6 431 -32 -30 -12 -1098 -15 -1127 -4 -9 3 -17 15 -17 25
0 15 8 19 38 21 l37 1 -35 4 c-19 3 -42 11 -52 19 -10 10 -29 14 -50 11 l-33
-4 36 -1 c21 -1 42 -9 50 -19 13 -16 12 -17 -3 -4 -10 8 -32 12 -53 9 -19 -2
-35 -1 -35 3 0 5 14 46 31 93 l31 86 133 0 c110 0 136 3 143 15 7 14 11 13 27
-5 10 -11 22 -20 27 -20 5 0 -4 11 -19 25 -24 20 -30 22 -39 10 -9 -12 -39
-15 -143 -15 -72 0 -131 2 -131 4 0 2 3 12 6 21 6 14 25 16 136 14 71 0 132 1
134 4 3 3 1 14 -6 24 -10 16 -10 15 -5 -5 6 -21 5 -23 -13 -13 -12 6 -61 9
-122 7 -55 -2 -100 0 -98 4 2 4 30 65 63 134 52 109 64 127 87 133 15 3 25 9
22 14 -3 5 -10 7 -16 3 -5 -3 -2 8 7 25 9 18 20 29 25 26 5 -3 12 0 16 6 5 8
3 9 -6 4 -8 -5 -11 -3 -8 6 3 8 11 13 17 11 7 -1 10 2 6 8 -5 9 80 140 91 140
3 0 2 -5 -2 -12 -4 -7 -3 -8 5 -4 6 4 9 12 6 17 -4 5 10 29 30 53 l36 44 111
1 c62 1 114 4 117 7 2 2 -46 4 -109 4 -99 0 -111 2 -100 15 9 11 36 15 109 16
53 1 123 5 156 9 45 6 22 7 -88 6 -81 0 -147 2 -147 5 0 3 11 15 24 28 22 21
30 22 170 19 139 -3 146 -4 126 -20 -11 -9 -20 -24 -20 -35 0 -13 5 -10 19 12
27 44 52 63 96 73 52 11 99 0 133 -29 14 -13 20 -16 13 -6 -11 14 -11 17 0 18
8 0 3 6 -11 12 -14 6 -31 18 -38 27 -8 8 -11 9 -7 3 4 -10 -5 -12 -37 -8 -24
2 -90 7 -148 9 -58 3 -127 9 -153 12 l-48 7 27 28 c20 20 34 27 58 25 17 -2
21 -1 9 1 -13 2 -23 8 -23 13 0 16 53 50 79 51 14 0 20 3 14 6 -21 8 -15 20
19 41 23 15 37 18 49 11 10 -5 21 -9 26 -9 4 1 -3 7 -16 14 l-23 13 30 21 c16
12 35 22 41 22 6 0 56 -23 111 -50 79 -40 100 -55 100 -71 0 -18 -5 -21 -32
-17 -18 3 -42 8 -53 12 -13 5 -11 2 5 -8 14 -8 36 -15 50 -16 19 0 21 -3 12
-12 -7 -7 -12 -21 -12 -32 0 -17 -2 -18 -17 -4 -18 15 -112 43 -119 35 -2 -2
23 -11 56 -20 49 -14 63 -22 71 -44 5 -14 7 -33 5 -40 -4 -9 -1 -11 6 -7 8 5
9 2 5 -10 -4 -9 -3 -15 2 -12 5 3 14 -1 21 -9 10 -12 9 -15 -8 -15 -11 0 -26
-8 -33 -17 -11 -15 -11 -16 1 -5 20 17 50 15 72 -5 18 -16 18 -16 12 3 -4 10
-16 25 -27 33 -27 19 -49 76 -41 109 4 15 18 42 32 61 14 19 20 31 14 27 -7
-4 -12 -2 -12 4 0 6 8 10 18 9 9 -2 33 3 53 9 98 34 194 -77 148 -171 -10 -21
-10 -21 5 -3 19 24 20 67 4 113 -6 18 -9 36 -5 39 9 9 82 -42 112 -77 20 -24
25 -26 35 -14 7 8 22 16 34 16 15 1 16 3 5 6 -18 4 -14 42 11 94 21 46 105 53
157 13 50 -38 46 -73 -16 -133 -43 -42 -92 -116 -91 -138 1 -4 12 12 25 37 25
47 65 95 101 120 18 12 23 28 25 77 2 34 0 65 -5 70 -5 4 -6 3 -3 -4 4 -6 4
-19 1 -28 -6 -15 -10 -13 -31 9 -21 23 -63 34 -106 27 -4 0 -6 2 -5 6 1 5 -34
79 -77 165 -53 106 -76 161 -69 168 5 5 24 12 41 16 l31 6 32 -91 c18 -50 35
-90 37 -88 2 3 -10 42 -27 88 -16 45 -30 88 -30 94 0 7 16 17 36 23 39 12 42
8 59 -68 5 -19 10 -30 12 -25 2 6 -3 32 -11 57 l-14 47 31 10 c50 18 53 15 66
-69 8 -45 16 -79 18 -76 3 2 -1 39 -8 81 -13 85 -9 95 43 95 25 0 27 -3 31
-47 l3 -48 2 52 c2 47 5 53 27 59 14 4 27 5 29 3 2 -2 6 -94 9 -204 l4 -200
-26 0 -27 0 -3 130 c-1 71 -4 132 -7 134 -2 2 -4 -57 -4 -132 0 -90 -4 -137
-11 -137 -5 0 -8 -4 -4 -9 3 -6 16 -6 34 0 73 26 135 -54 93 -119 -5 -7 -36
-17 -70 -22 -33 -4 -69 -14 -79 -20 -16 -11 -16 -11 2 -4 11 5 62 9 113 10 50
1 98 6 105 11 23 19 42 20 54 4 10 -14 11 -13 6 6 -3 15 15 61 61 148 37 69
65 125 62 125 -2 0 -35 -56 -72 -125 -56 -103 -75 -129 -104 -143 -19 -10 -45
-16 -57 -14 -20 3 -21 6 -10 29 l12 26 5 -24 c4 -18 11 -4 24 54 10 43 16 80
14 83 -3 2 -11 -24 -18 -58 -12 -60 -13 -62 -22 -33 -12 37 -11 90 3 315 12
195 14 200 81 200 29 0 38 -4 39 -17 0 -15 2 -15 8 2 6 15 20 21 57 26 78 9
429 2 539 -11z m-735 -221 c-6 -107 -16 -202 -21 -213 -7 -13 -7 -16 0 -11 6
3 11 -1 11 -12 0 -16 -2 -16 -21 3 -19 20 -20 33 -22 224 l-2 204 25 6 c14 4
28 4 33 0 4 -3 3 -94 -3 -201z m-427 -94 c42 -85 77 -162 77 -170 0 -36 -38
-10 -90 61 -30 42 -62 81 -70 87 -8 7 6 -15 31 -48 25 -33 55 -75 68 -92 l22
-33 -23 -60 c-13 -33 -28 -60 -34 -60 -6 0 -31 14 -55 31 -97 70 -143 100
-115 76 37 -32 26 -55 -13 -26 -18 13 -27 27 -24 38 3 12 -8 27 -34 45 l-38
27 33 -29 c17 -15 32 -33 32 -38 0 -6 -34 -16 -75 -23 l-75 -12 -54 30 c-29
17 -56 28 -59 24 -4 -3 -7 -1 -7 5 0 6 -17 16 -37 23 -21 6 -42 14 -47 17 -10
6 44 51 63 52 13 0 189 -104 201 -119 3 -3 12 -7 20 -9 24 -5 3 9 -100 73 -52
32 -97 60 -100 62 -6 6 42 42 56 43 6 0 41 -23 78 -50 36 -28 66 -48 66 -46 0
3 -30 28 -66 55 l-66 50 33 20 c37 23 26 27 129 -57 l65 -54 -65 61 c-36 33
-68 61 -72 61 -19 0 -5 19 28 36 l35 19 52 -55 c29 -30 94 -100 146 -155 51
-55 92 -95 90 -89 -2 6 -64 76 -137 155 -133 144 -133 144 -111 161 32 26 50
22 87 -19 l34 -38 -32 43 -32 42 44 20 c23 11 48 20 53 20 6 0 45 -70 88 -155z
m-708 -402 c58 -4 91 -9 80 -13 -11 -4 -23 -6 -27 -3 -5 2 -8 -1 -8 -6 0 -7
-50 -11 -145 -11 -80 0 -145 3 -145 6 0 3 10 15 23 25 18 16 32 19 72 14 28
-3 95 -8 150 -12z m2519 -362 c48 -16 100 -41 118 -57 19 -16 44 -36 57 -44
l23 -15 -22 -43 c-12 -23 -25 -44 -30 -47 -4 -2 -21 11 -37 30 -53 59 -118 57
-162 -6 -21 -31 -23 -41 -17 -112 5 -77 5 -78 -27 -115 -18 -20 -38 -49 -44
-64 -10 -21 -21 -28 -55 -33 -55 -8 -70 -20 -98 -75 -31 -63 -47 -79 -92 -90
-23 -7 -58 -30 -89 -60 -29 -28 -55 -50 -59 -50 -4 0 -22 -29 -40 -65 -18 -36
-51 -83 -72 -106 l-40 -42 -151 -18 c-167 -21 -182 -28 -174 -85 3 -17 2 -36
-2 -42 -4 -6 -65 -16 -141 -22 -74 -7 -138 -14 -142 -16 -11 -7 -60 20 -82 45
-10 11 -50 32 -88 47 -38 15 -74 36 -79 46 -5 10 -8 57 -7 105 l3 88 64 50
c36 27 92 75 126 106 60 55 63 56 134 62 88 7 122 25 257 134 54 44 115 88
134 98 19 9 53 34 75 55 28 27 60 44 108 58 37 11 77 29 90 40 12 11 47 42 77
69 30 28 68 53 84 57 16 4 40 15 53 25 12 11 40 22 60 26 21 4 54 19 73 33 93
72 97 73 214 33z m-1278 -372 c7 -6 63 -23 124 -38 61 -15 119 -36 128 -45 16
-17 15 -20 -23 -53 -57 -50 -89 -64 -168 -74 -79 -10 -132 -37 -188 -96 -38
-39 -138 -116 -126 -96 4 7 2 15 -4 18 -5 4 -8 13 -5 21 3 8 -1 17 -10 21 -9
3 -20 15 -24 27 -8 18 -9 19 -9 3 -1 -11 8 -30 19 -44 11 -14 20 -35 19 -47
-1 -15 -3 -12 -10 10 -5 17 -16 37 -24 44 -8 7 -15 21 -15 31 0 10 -4 21 -10
24 -5 3 -10 17 -10 30 0 13 -4 27 -10 30 -5 3 -10 17 -10 30 0 13 -12 38 -27
56 l-27 32 28 23 c15 13 40 24 55 24 16 0 68 20 117 45 82 42 93 45 143 40 30
-3 60 -10 67 -16z m2622 -84 l31 -75 -24 6 c-25 6 -119 -11 -145 -27 -28 -17
-63 -30 -68 -25 -2 3 12 15 32 27 37 22 48 52 21 63 -25 9 -17 25 20 40 27 12
35 21 35 40 0 23 4 26 34 26 32 0 35 -3 64 -75z m-990 -80 c2 -17 9 -34 16
-40 7 -5 18 -20 25 -32 7 -15 21 -23 37 -23 45 0 20 -25 -28 -28 -42 -3 -48 0
-96 47 -29 28 -52 57 -52 66 0 17 55 46 80 42 9 -1 16 -15 18 -32z m1026 -49
c49 -65 28 -113 -30 -67 -36 29 -85 27 -118 -4 -29 -27 -34 -50 -10 -59 20 -8
33 0 44 29 11 29 52 23 80 -12 19 -25 30 -26 71 -9 13 6 20 -10 38 -86 12 -51
23 -106 24 -123 l2 -30 -140 -12 c-77 -7 -221 -19 -319 -28 -197 -18 -196 -18
-196 42 0 39 48 80 77 65 26 -13 94 -13 110 -1 20 17 16 49 -5 49 -10 0 -22
-3 -26 -7 -8 -8 -127 -5 -135 3 -2 2 3 12 13 23 11 12 37 21 78 25 48 6 67 13
89 36 16 16 29 39 29 52 0 42 71 94 103 76 16 -8 25 -4 48 21 15 17 38 31 51
31 13 0 30 5 38 10 29 19 57 10 84 -24z m-279 4 l30 0 -30 -19 c-45 -28 -77
-66 -84 -103 -7 -34 -8 -35 -121 -58 -49 -11 -80 -39 -80 -75 0 -12 -7 -39
-15 -58 -8 -20 -15 -48 -15 -62 0 -18 -5 -25 -20 -25 -23 0 -24 4 -9 31 7 15
6 28 -5 51 -19 38 -21 127 -3 132 6 3 24 7 40 10 22 5 27 12 27 36 0 31 30 70
53 70 7 0 26 14 42 30 17 17 40 30 54 31 14 0 35 4 46 9 11 5 29 7 40 5 11 -3
34 -5 50 -5z m-2894 -80 c7 -14 13 -28 13 -31 2 -15 37 -40 53 -37 23 4 63
-57 63 -98 0 -28 -7 -39 -41 -63 -25 -18 -59 -32 -87 -36 -81 -11 -306 -55
-334 -66 -15 -6 -29 -17 -32 -25 -3 -8 -16 -14 -29 -14 -13 0 -32 -9 -42 -20
-10 -11 -27 -20 -37 -20 -20 0 -67 47 -68 67 0 19 -75 93 -93 93 -9 0 -28 -5
-44 -11 -28 -10 -28 -10 -8 10 11 10 71 35 133 55 62 19 125 44 140 55 15 10
47 24 72 31 25 6 56 22 70 34 14 13 41 29 59 36 19 8 49 26 65 40 64 54 77 59
107 41 16 -9 34 -27 40 -41z m-992 -92 c-33 -65 -66 -108 -82 -108 -10 0 -15
-5 -12 -10 4 -6 11 -8 16 -5 5 4 9 1 9 -4 0 -20 -29 -11 -36 12 -5 12 -7 25
-6 28 1 4 -7 5 -17 2 -18 -4 -34 19 -36 52 0 5 -9 11 -20 12 l-20 3 20 -10
c14 -6 3 -7 -36 -3 -37 3 -59 2 -63 -6 -4 -6 -12 -9 -17 -6 -5 3 -6 -1 -3 -10
4 -9 3 -15 -2 -14 -20 3 -28 -2 -16 -10 9 -5 4 -8 -16 -7 -23 1 -28 5 -24 19
3 10 -5 31 -17 47 -11 16 -21 32 -21 35 0 3 92 5 205 5 l206 0 -12 -22z m588
11 c-10 -6 -25 -8 -32 -5 -8 3 -17 0 -21 -6 -5 -7 -2 -8 6 -3 9 6 11 4 6 -4
-5 -7 -14 -10 -22 -7 -8 3 -13 0 -11 -6 1 -6 -45 -26 -103 -44 -80 -25 -111
-40 -132 -63 -34 -38 -51 -33 -78 24 -18 36 -27 44 -53 47 -29 3 -32 6 -32 35
0 17 -3 29 -7 27 -4 -2 -9 0 -13 6 -4 7 80 10 252 10 186 -1 253 -4 240 -11z
m1839 -122 c2 -7 -3 -30 -11 -51 -15 -35 -15 -40 0 -62 18 -27 56 -32 75 -9
19 23 30 18 30 -15 0 -25 -4 -30 -23 -30 -22 0 -47 -16 -47 -31 0 -4 14 -12
30 -18 33 -11 40 -40 15 -61 -17 -14 -20 -46 -5 -55 16 -10 42 16 37 36 -6 21
9 28 43 19 30 -7 39 -37 13 -47 -50 -18 -100 -118 -53 -106 11 3 20 9 20 14 0
7 10 14 77 50 12 6 29 9 38 5 13 -5 14 -10 5 -26 -16 -31 4 -53 41 -45 24 6
31 2 40 -19 7 -14 19 -26 27 -26 9 0 26 -10 39 -22 15 -14 42 -24 71 -28 l47
-5 3 -43 c2 -24 -2 -50 -9 -58 -8 -10 -9 -18 -2 -25 7 -7 28 -1 65 20 56 29
78 28 78 -6 0 -7 9 -13 19 -13 29 0 54 -29 41 -45 -8 -10 -8 -19 2 -34 10 -16
10 -27 1 -51 -10 -27 -9 -34 6 -49 26 -26 94 -23 100 4 4 23 19 35 44 35 26 0
22 -43 -8 -78 -47 -56 -21 -120 30 -72 27 25 61 21 51 -6 -3 -9 -6 -23 -6 -33
0 -11 -17 -21 -57 -33 -46 -15 -90 -17 -247 -15 l-191 3 -36 37 c-21 20 -44
37 -53 37 -12 0 -16 10 -16 38 0 29 -17 65 -80 167 -55 90 -80 140 -80 161 0
17 -3 46 -6 63 -7 31 -8 32 -58 29 -44 -3 -51 -6 -54 -25 -4 -30 -20 -29 -32
1 -10 27 -56 66 -78 66 -8 0 -30 14 -50 31 -31 28 -40 31 -81 26 -25 -2 -54
-8 -63 -12 -13 -5 -20 -1 -24 11 -4 11 -16 29 -28 42 -28 32 -12 58 35 54 29
-3 41 4 79 43 l44 45 -32 30 c-36 32 -39 46 -18 76 8 11 16 36 18 54 3 32 6
35 45 42 24 4 51 12 60 17 25 15 73 13 79 -2z m-1308 -124 l-3 -68 -48 -7
c-26 -3 -67 -16 -92 -28 l-44 -21 -30 22 c-23 17 -37 20 -68 15 -21 -3 -68
-10 -104 -14 -36 -5 -75 -14 -86 -21 -12 -6 -37 -11 -57 -11 -23 0 -45 -9 -66
-27 l-32 -26 4 23 c2 16 13 27 33 33 17 5 39 18 51 28 11 11 25 19 30 19 5 0
21 8 34 17 30 21 164 55 313 79 69 11 117 24 130 35 12 10 26 18 30 19 4 0 7
-30 5 -67z m-1481 -25 c-2 -13 -4 -5 -4 17 -1 22 1 32 4 23 2 -10 2 -28 0 -40z
m4599 9 c-3 -14 1 -33 11 -46 15 -23 15 -23 -8 -16 -22 7 -68 51 -69 67 0 7
24 15 54 17 14 1 17 -4 12 -22z m-156 -2 c0 -12 -24 -55 -31 -55 -9 0 -29 33
-29 49 0 6 14 11 30 11 17 0 30 -2 30 -5z m-165 -35 c-18 -35 -30 -38 -45 -11
-17 33 -12 41 25 41 l36 0 -16 -30z m265 -22 c0 -5 -9 -8 -20 -8 -16 0 -20 7
-20 33 l0 32 20 -25 c11 -14 20 -28 20 -32z m-390 37 c0 -13 -31 -65 -39 -65
-10 0 -41 45 -41 60 0 5 18 10 40 10 22 0 40 -2 40 -5z m-150 -13 c0 -13 -30
-52 -40 -52 -13 0 -32 39 -25 50 7 12 65 14 65 2z m369 -19 c10 -19 9 -23 -4
-23 -10 0 -15 9 -15 27 0 29 2 29 19 -4z m-531 0 c-36 -74 -37 -75 -61 -34
-23 40 -23 41 24 41 22 0 39 -3 37 -7z m482 -7 c0 -15 -18 -31 -26 -23 -7 7 7
37 17 37 5 0 9 -6 9 -14z m-3960 -53 c-11 -17 -11 -17 -6 0 3 10 7 28 7 40 2
22 2 22 6 0 2 -12 -1 -30 -7 -40z m3338 15 c-3 -29 -7 -33 -35 -36 -40 -4 -41
3 -6 40 35 36 45 35 41 -4z m219 13 c13 -20 8 -31 -14 -31 -7 0 -13 11 -13 25
0 30 11 32 27 6z m151 -5 c3 -12 -1 -17 -10 -14 -7 3 -15 13 -16 22 -3 12 1
17 10 14 7 -3 15 -13 16 -22z m-308 -27 c0 -5 -7 -9 -15 -9 -9 0 -15 9 -15 21
0 18 2 19 15 9 8 -7 15 -16 15 -21z m-3254 3 c-21 -2 -42 0 -47 5 -4 4 13 6
39 3 l47 -5 -39 -3z m968 -9 c0 -13 -1 -53 -2 -90 l-2 -67 -28 31 c-16 17 -38
34 -50 38 -21 6 -52 51 -52 75 0 5 13 10 29 10 16 0 34 7 41 16 8 8 25 14 39
12 20 -2 26 -9 25 -25z m-1456 10 c-10 -2 -26 -2 -35 0 -10 3 -2 5 17 5 19 0
27 -2 18 -5z m1672 -11 c24 -12 42 -31 57 -63 19 -41 27 -47 61 -53 22 -3 45
-13 52 -21 7 -8 23 -15 36 -15 15 0 27 -9 36 -27 17 -37 48 -40 85 -9 27 23
33 24 57 13 17 -7 29 -23 33 -39 12 -57 57 -60 71 -4 6 21 17 34 36 41 25 9
31 7 45 -15 9 -14 28 -37 44 -52 24 -24 28 -33 25 -75 l-3 -48 -55 -3 c-30 -2
-62 -9 -70 -15 -8 -7 -37 -12 -65 -12 l-50 0 -3 58 -3 57 -53 0 -54 0 -4 -57
c-3 -43 -12 -69 -34 -100 -16 -23 -32 -42 -35 -43 -3 0 -23 16 -43 35 -32 30
-35 37 -26 55 6 12 22 25 36 30 13 5 27 16 30 24 7 19 -54 111 -88 130 -37 22
-90 20 -122 -5 -28 -22 -54 -19 -81 7 -11 12 -15 40 -15 120 l0 104 33 0 c17
-1 48 -9 67 -18z m2772 12 c3 -3 4 -14 1 -25 -4 -15 -8 -17 -19 -8 -18 15 -18
39 -1 39 8 0 16 -3 19 -6z m-144 -37 c4 -34 -11 -35 -26 -2 -16 34 -15 37 6
33 10 -2 18 -14 20 -31z m52 13 c-6 -11 -13 -20 -15 -20 -3 0 -5 9 -5 20 0 11
7 20 15 20 13 0 14 -4 5 -20z m-210 -17 c0 -22 -2 -25 -10 -13 -13 20 -13 40
0 40 6 0 10 -12 10 -27z m60 20 c0 -5 -5 -15 -10 -23 -8 -12 -10 -11 -10 8 0
12 5 22 10 22 6 0 10 -3 10 -7z m-140 -12 c0 -5 -9 -19 -20 -32 l-19 -24 -1
33 c0 25 4 32 20 32 11 0 20 -4 20 -9z m348 -46 c-2 -15 -12 -21 -35 -23 -39
-4 -40 1 -12 48 20 33 22 33 35 15 8 -11 13 -29 12 -40z m-568 13 c0 -30 -1
-31 -15 -12 -19 25 -19 44 0 44 10 0 15 -10 15 -32z m60 24 c0 -5 -7 -17 -15
-28 -14 -18 -14 -18 -15 9 0 17 5 27 15 27 8 0 15 -4 15 -8z m-3880 -14 c52 0
107 -4 122 -10 19 -7 42 -7 75 1 35 8 62 9 98 1 28 -6 93 -13 145 -16 52 -3
104 -7 115 -10 11 -3 76 -9 144 -14 106 -7 128 -11 155 -31 25 -19 44 -24 95
-24 57 -1 66 -3 85 -28 14 -18 40 -32 75 -41 30 -8 58 -21 63 -30 5 -9 21 -16
36 -16 47 0 106 -21 143 -51 20 -16 45 -29 54 -29 16 0 17 -13 10 -182 l-7
-183 -54 -55 c-36 -37 -54 -64 -54 -81 0 -24 -1 -25 -72 -22 -125 6 -156 12
-154 31 1 15 -14 18 -99 24 -146 11 -265 25 -272 31 -3 3 -13 116 -23 250 -9
134 -20 249 -24 255 -5 8 -42 12 -106 12 -84 0 -99 -2 -105 -17 -3 -10 -17
-132 -30 -271 -12 -140 -27 -258 -33 -264 -20 -20 -32 4 -32 67 0 54 3 66 20
75 11 6 20 17 20 25 0 7 -48 63 -107 123 l-108 109 -119 12 c-65 6 -123 14
-127 17 -5 3 -9 18 -9 33 0 41 -33 71 -80 71 -48 0 -60 -18 -60 -89 0 -49 -1
-51 -62 -101 l-63 -50 -7 47 c-8 61 -10 337 -2 384 6 36 7 37 68 47 33 6 90 8
126 5 36 -3 108 -5 160 -5z m3660 -24 c0 -30 -10 -30 -39 0 l-23 24 24 4 c32
5 38 1 38 -28z m53 5 c-18 -30 -18 -30 -24 -7 -8 30 -3 38 22 38 20 0 20 -1 2
-31z m521 2 c18 -34 13 -41 -31 -41 -38 0 -38 1 -18 40 19 37 31 38 49 1z
m-286 -40 c-4 -18 -55 -28 -70 -13 -7 7 -3 21 12 43 l23 32 19 -23 c10 -13 17
-30 16 -39z m147 33 c20 -31 18 -33 -29 -41 -41 -6 -47 7 -20 45 20 28 28 28
49 -4z m-500 -15 c19 -17 35 -35 35 -40 0 -13 -87 -11 -112 2 -20 11 -19 11 8
40 15 16 29 29 31 29 1 0 18 -14 38 -31z m190 -9 l16 -30 -41 0 c-44 0 -47 5
-24 38 20 29 30 28 49 -8z m-1857 8 c-6 -18 -25 -20 -31 -3 -5 10 0 15 14 15
12 0 19 -5 17 -12z m2470 -63 c2 -12 -9 -32 -28 -50 -35 -34 -37 -46 -10 -70
11 -10 20 -26 20 -36 0 -10 13 -25 30 -34 26 -14 29 -18 19 -36 l-11 -21 -19
21 c-14 15 -33 21 -67 22 -67 1 -95 11 -109 39 -19 38 -49 58 -99 66 -32 5
-49 14 -64 34 -30 42 -67 53 -135 41 -32 -6 -73 -20 -92 -31 -19 -11 -39 -20
-45 -20 -19 0 -48 32 -48 52 0 15 8 18 53 19 28 0 142 7 252 14 110 7 234 12
275 11 67 -1 75 -3 78 -21z m-1802 -42 c11 -47 23 -54 70 -47 41 6 44 4 54
-21 5 -14 22 -42 36 -61 15 -19 24 -37 22 -40 -8 -8 -251 -26 -305 -22 l-48 3
-5 60 -5 60 -42 3 c-67 5 -50 22 21 22 47 0 67 4 77 17 21 25 71 53 96 53 16
0 24 -8 29 -27z m949 7 c3 -5 26 -10 50 -10 24 0 47 -5 51 -11 3 -6 19 -9 35
-5 32 6 44 -6 31 -30 -6 -11 -3 -28 10 -52 22 -44 22 -54 3 -110 -13 -35 -13
-51 -4 -83 7 -21 16 -39 20 -39 5 0 11 -16 15 -35 3 -19 10 -38 15 -40 5 -3 6
-20 2 -37 -4 -22 0 -43 17 -73 25 -46 22 -75 -8 -75 -28 0 -60 40 -71 90 -6
27 -20 54 -35 67 -20 17 -26 32 -26 62 0 47 -30 77 -61 61 -10 -6 -33 -10 -51
-10 -33 0 -34 1 -46 60 -11 50 -18 62 -42 75 -16 8 -34 24 -40 35 -6 11 -28
24 -50 30 -42 11 -55 34 -48 81 3 21 9 24 50 27 25 2 52 10 58 18 14 16 115
20 125 4z m499 -55 c27 -27 44 -35 71 -35 46 0 79 -32 95 -91 12 -43 12 -44
-23 -74 -20 -16 -50 -40 -66 -53 -20 -15 -31 -32 -31 -48 0 -20 -5 -24 -30
-24 -24 0 -31 -5 -35 -27 -3 -16 -10 -43 -16 -61 -6 -18 -8 -51 -4 -73 6 -34
3 -45 -15 -63 -11 -13 -24 -36 -29 -52 -5 -18 -25 -41 -58 -64 -27 -19 -58
-43 -67 -52 -20 -21 -30 -22 -57 -8 -31 17 -24 58 21 106 35 38 40 49 40 92 0
26 -6 56 -14 67 -20 30 -27 127 -10 143 23 21 16 41 -21 63 -40 24 -43 40 -15
76 13 17 20 41 20 72 0 54 18 84 63 108 86 44 136 44 181 -2z m-3506 -51 c12
-4 22 -13 22 -20 0 -17 -78 -104 -92 -104 -12 0 0 100 14 118 12 13 22 15 56
6z m42 -109 c0 -28 -4 -36 -24 -41 -14 -3 -31 -2 -40 3 -13 7 -12 13 10 41 34
43 54 42 54 -3z m1095 -29 c37 -1 155 -75 155 -96 0 -8 -11 -28 -24 -45 -22
-27 -24 -37 -19 -98 l6 -68 -114 3 -114 3 -9 132 c-5 72 -6 144 -2 158 7 26 9
27 49 20 23 -4 56 -8 72 -9z m-1573 -11 l68 -7 80 -85 c44 -47 80 -90 80 -95
0 -8 -112 -4 -187 8 -24 4 -51 26 -112 91 -45 47 -81 90 -81 95 0 5 19 7 43 4
23 -3 72 -8 109 -11z m458 -37 c0 -6 -7 -20 -17 -30 -15 -17 -17 -17 -35 -2
-29 27 -22 44 17 44 20 0 35 -5 35 -12z m-786 -31 c-4 -12 -15 -33 -25 -47
-14 -19 -21 -52 -26 -140 -5 -65 -12 -115 -18 -115 -12 0 -32 91 -41 185 l-6
65 53 42 c56 43 75 46 63 10z m276 -199 l0 -118 -35 0 c-31 0 -35 3 -41 36 -4
19 -4 69 -2 110 4 64 2 78 -18 111 -13 21 -24 51 -24 68 0 29 0 29 60 -30 l60
-59 0 -118z m439 186 c22 -28 20 -35 -18 -84 -11 -14 -22 -22 -26 -18 -9 8 6
128 16 128 4 0 17 -12 28 -26z m101 -35 c0 -33 -7 -37 -25 -12 -9 12 -10 23
-4 36 14 24 29 12 29 -24z m-9 -75 c12 -21 18 -41 14 -54 -6 -18 -15 -20 -81
-20 -47 0 -74 4 -74 11 0 12 55 87 78 106 19 15 33 5 63 -43z m-34 -108 c3 -2
-3 -16 -13 -31 l-17 -26 -28 27 c-16 15 -26 31 -22 37 5 9 70 3 80 -7z m-80
-38 c13 -12 23 -29 23 -38 0 -18 -50 -89 -62 -90 -5 0 -8 17 -8 38 0 46 11
112 18 112 3 0 16 -10 29 -22z m135 -40 c3 -35 4 -65 1 -67 -6 -8 -63 53 -63
68 0 15 38 61 51 61 3 0 9 -28 11 -62z m-38 -68 c20 -23 34 -45 31 -50 -9 -15
-145 -13 -145 2 0 19 51 88 65 88 7 0 29 -18 49 -40z m-162 -214 c44 -48 76
-92 71 -96 -11 -10 -451 -21 -458 -11 -2 5 52 63 121 131 l125 123 31 -29 c17
-16 66 -69 110 -118z m170 97 c-11 -16 -29 -37 -41 -47 -21 -19 -22 -19 -52
10 -62 59 -60 64 31 64 l81 0 -19 -27z m-96 -101 c-15 -15 -18 -14 -45 13 -24
24 -28 36 -24 59 l6 29 40 -42 c36 -40 38 -44 23 -59z m144 -5 l0 -81 -40 39
c-22 21 -40 46 -40 54 0 19 60 82 72 75 4 -3 8 -42 8 -87z m310 63 c179 -27
173 -25 167 -66 -9 -55 9 -96 70 -156 l58 -56 225 -12 c247 -14 342 -10 424
18 36 12 61 15 77 10 14 -5 26 -5 33 2 8 8 4 12 -12 16 -12 4 -22 10 -22 15 0
11 47 12 54 1 3 -5 81 -12 173 -16 92 -3 185 -10 206 -15 21 -5 119 -15 217
-22 l178 -12 7 -60 c3 -33 2 -64 -3 -69 -5 -5 -92 -10 -193 -11 -169 -2 -190
0 -260 22 -89 27 -129 59 -129 101 0 32 -15 47 -33 32 -7 -6 -34 -13 -60 -17
-40 -6 -50 -4 -61 10 -24 33 -46 12 -46 -43 0 -26 -5 -53 -12 -60 -18 -18
-125 -15 -260 7 -65 11 -121 22 -126 25 -5 3 -101 19 -213 36 -187 28 -211 34
-303 76 -74 33 -128 50 -209 64 -135 23 -149 34 -155 119 -6 81 0 93 40 86 18
-3 94 -14 168 -25z m-335 -171 c-8 -13 -49 3 -77 29 -31 28 -34 42 -15 61 10
10 20 3 54 -35 23 -26 40 -51 38 -55z m749 60 c5 -4 6 -15 2 -25 -5 -13 -15
-16 -52 -11 -50 5 -70 18 -61 40 4 11 17 13 54 10 26 -3 52 -9 57 -14z m1796
-65 c36 -8 90 -18 121 -23 96 -15 163 -62 180 -125 6 -22 21 -52 34 -66 13
-14 25 -38 27 -55 2 -24 9 -31 33 -35 23 -4 29 -10 27 -25 -2 -11 -6 -50 -9
-87 -4 -49 -9 -68 -19 -68 -24 0 -54 39 -54 70 0 18 -6 33 -15 36 -8 4 -15 12
-15 19 0 25 -49 55 -80 49 -37 -8 -46 9 -30 57 11 32 11 44 0 64 -19 35 -30
31 -23 -9 4 -29 1 -36 -26 -55 -19 -14 -31 -31 -31 -45 0 -13 -7 -29 -15 -36
-20 -17 -45 3 -45 36 0 29 -20 42 -32 20 -11 -20 -78 -22 -117 -2 -34 18 -81
78 -81 103 0 19 -18 43 -31 43 -3 0 -4 -20 -1 -45 4 -43 3 -45 -20 -45 -42 0
-52 23 -52 124 -1 127 2 131 119 122 49 -4 119 -13 155 -22z m-3192 -140 l2
-119 -20 33 c-16 26 -20 50 -20 116 0 45 3 86 7 90 21 20 28 -9 31 -120z m422
0 c0 -70 5 -134 11 -145 9 -18 8 -20 -13 -17 -21 3 -23 8 -26 73 -4 89 7 215
19 215 5 0 9 -56 9 -126z m132 -151 c-2 -7 -8 -13 -13 -13 -11 0 -12 273 -1
284 7 8 21 -249 14 -271z m1116 264 c115 1 190 -2 187 -8 -4 -5 -14 -9 -23 -9
-10 0 -26 -13 -35 -30 -18 -29 -20 -30 -95 -30 -42 0 -156 7 -252 15 -158 13
-177 16 -192 36 -10 12 -18 26 -18 31 0 6 43 6 118 1 64 -4 204 -7 310 -6z
m-1540 -140 c2 -117 0 -137 -13 -137 -13 0 -15 21 -15 141 0 108 3 140 13 137
9 -3 13 -43 15 -141z m152 8 c0 -111 -3 -135 -14 -135 -12 0 -14 13 -11 63 2
34 4 95 5 135 0 41 4 72 10 72 6 0 10 -52 10 -135z m353 128 c8 -7 -31 -53
-45 -53 -16 0 -8 49 10 53 27 7 28 7 35 0z m290 -12 c43 -5 84 -14 90 -21 10
-10 2 -11 -33 -7 -25 4 -75 9 -112 13 -51 5 -68 10 -68 21 0 11 6 14 23 9 12
-4 57 -10 100 -15z m-239 -48 c8 -52 8 -121 -1 -126 -5 -3 -29 -8 -55 -12
l-48 -7 0 48 c0 43 4 53 42 91 23 24 45 43 49 43 3 0 9 -17 13 -37z m267 -4
c56 -5 106 -12 110 -15 11 -6 -10 -52 -27 -58 -18 -7 -256 23 -267 34 -5 4 -4
17 2 29 14 25 32 26 182 10z m294 -60 c33 -5 92 -16 130 -24 39 -9 102 -20
140 -25 164 -21 246 -33 337 -51 53 -10 114 -19 135 -19 30 0 40 -5 48 -22 8
-19 20 -24 70 -28 52 -4 60 -8 63 -27 2 -12 -2 -32 -8 -44 -10 -18 -18 -21
-54 -16 -25 4 -47 2 -54 -5 -7 -7 -19 -5 -41 8 -39 23 -84 11 -89 -25 -5 -34
12 -41 103 -41 44 0 105 -7 135 -16 30 -9 93 -20 140 -24 107 -10 190 -26 204
-40 14 -14 -178 -13 -219 1 -43 16 -145 3 -145 -17 0 -12 11 -14 58 -8 44 5
66 2 88 -9 l29 -15 -59 -7 c-32 -4 -106 -5 -164 -1 -278 17 -325 18 -396 11
-54 -5 -76 -11 -76 -20 0 -8 4 -16 8 -19 4 -3 67 -1 140 5 112 8 138 7 171 -7
29 -11 62 -14 123 -11 46 2 238 10 428 16 190 7 355 14 366 17 12 2 24 13 27
24 5 18 15 20 138 22 123 3 134 5 132 21 -1 13 3 16 15 11 72 -30 439 -38 478
-10 16 13 17 18 6 36 -23 38 -27 116 -7 159 14 32 15 43 5 61 l-12 23 123 -7
c68 -4 177 -7 244 -6 160 1 337 -19 330 -38 -10 -28 -136 -210 -202 -292 -78
-98 -259 -283 -350 -358 -55 -45 -67 -50 -97 -45 -47 7 -194 -41 -223 -73 -17
-19 -23 -37 -23 -74 0 -48 -2 -50 -40 -70 -47 -24 -50 -24 -50 -5 0 9 -11 27
-26 41 -30 31 -47 29 -190 -17 -115 -37 -137 -58 -144 -141 l-5 -61 -52 -18
c-50 -17 -58 -16 -54 5 8 45 -48 76 -142 76 -35 0 -88 7 -118 17 -73 22 -178
22 -213 0 -25 -17 -26 -21 -26 -112 l0 -95 -50 0 -50 0 0 69 c0 97 -9 104
-114 95 -74 -6 -87 -4 -146 21 -55 23 -74 26 -123 21 -32 -3 -71 -13 -87 -21
-33 -17 -101 -20 -116 -5 -12 12 -70 16 -160 10 -58 -4 -63 -2 -105 32 -60 49
-87 58 -204 68 -179 16 -256 34 -337 80 -40 22 -83 46 -95 53 -12 7 -59 39
-103 72 -80 58 -81 60 -55 68 14 5 50 6 80 2 41 -5 54 -11 58 -25 3 -11 18
-25 33 -31 16 -5 32 -15 35 -21 12 -20 95 -27 305 -28 176 0 214 -3 224 -15 7
-8 25 -15 40 -15 16 0 33 -8 41 -19 24 -34 142 -45 469 -43 242 2 297 5 309
17 13 12 12 15 -9 23 -17 6 20 11 121 16 188 8 304 26 304 46 0 12 -13 15 -65
12 -94 -3 -130 5 -130 29 0 23 -25 35 -103 48 -37 7 -66 7 -83 1 -33 -13 -71
-13 -79 1 -11 16 25 49 55 49 38 0 50 18 50 76 0 34 5 56 15 64 17 14 20 46 5
55 -6 4 -17 1 -25 -5 -11 -9 -23 -9 -46 -1 -44 15 -79 14 -113 -4 -24 -13 -52
-15 -150 -9 -79 4 -153 2 -211 -6 -49 -7 -137 -12 -195 -11 -99 2 -106 3 -127
27 -32 36 -31 93 3 133 31 37 30 37 -88 45 -71 5 -88 3 -88 -8 0 -9 -17 -16
-47 -21 -58 -8 -108 -54 -118 -108 -5 -28 -12 -37 -27 -37 -15 0 -18 5 -13 21
4 12 0 37 -10 60 -20 44 -15 66 17 71 20 3 24 11 31 62 11 80 4 85 -80 58 -50
-17 -89 -22 -149 -21 -63 1 -89 -3 -112 -17 -35 -20 -57 -56 -49 -78 9 -23
-25 -20 -56 4 -14 11 -37 20 -50 20 -14 0 -29 5 -32 10 -18 29 -165 -7 -165
-41 0 -10 9 -20 19 -24 12 -3 21 -19 25 -39 8 -41 27 -59 66 -60 17 -1 31 -5
33 -11 1 -6 -38 -11 -99 -13 l-102 -3 -47 53 c-73 81 -255 331 -255 351 0 2
23 0 52 -3 28 -4 71 -3 96 1 24 5 49 6 54 3 15 -10 192 -15 353 -12 336 7 499
3 535 -12 50 -22 490 -17 490 6 0 12 -29 14 -172 14 -125 0 -184 4 -213 15
l-40 14 57 1 c60 0 108 13 108 29 0 13 -82 26 -152 24 -57 -1 -58 -1 -58 25 0
15 -3 45 -7 66 -6 36 -5 39 13 31 10 -4 46 -12 79 -16z m997 -44 c38 -41 52
-48 128 -67 69 -18 116 -22 246 -22 178 -1 184 -3 202 -64 7 -21 21 -47 32
-57 11 -10 20 -24 20 -32 0 -7 6 -22 13 -34 10 -17 9 -22 -8 -35 -11 -8 -31
-14 -45 -12 -22 3 -26 9 -30 49 -4 29 -16 60 -33 83 -34 44 -56 38 -29 -7 11
-18 23 -53 26 -78 9 -61 -5 -71 -102 -76 -65 -4 -82 -1 -110 17 -29 18 -33 25
-27 49 5 23 1 32 -16 45 -14 10 -23 26 -24 43 0 26 -4 28 -44 31 -54 4 -65 -6
-51 -44 10 -26 9 -31 -15 -51 -37 -32 -72 -39 -94 -19 -13 12 -21 14 -26 7
-11 -19 -35 -12 -47 14 -17 38 5 98 47 131 39 30 47 64 15 64 -11 0 -23 -6
-26 -14 -8 -22 -92 -18 -104 5 -7 11 -17 15 -31 12 -28 -8 -40 14 -33 57 9 50
10 50 69 50 51 0 56 -3 97 -45z m-1252 -4 c40 -5 45 -9 48 -35 l4 -29 -89 7
c-48 4 -121 9 -160 12 l-73 6 0 30 0 30 113 -7 c61 -4 132 -10 157 -14z m1967
-118 c8 -21 28 -53 44 -71 34 -38 36 -52 10 -52 -10 0 -32 -3 -48 -6 -27 -5
-34 -1 -62 38 -39 52 -39 96 -1 115 36 18 39 17 57 -24z m255 -45 c20 -7 31
-21 38 -47 23 -83 9 -98 -56 -59 -21 12 -56 25 -78 28 -40 5 -41 7 -47 48 -3
23 -4 44 -1 46 7 7 115 -5 144 -16z m283 -76 c28 -50 23 -65 -21 -60 -28 3
-29 5 -32 67 -3 57 -1 63 12 52 9 -7 27 -34 41 -59z m-112 19 c29 -49 23 -61
-27 -61 -25 0 -48 5 -51 11 -12 18 3 54 27 65 33 16 32 17 51 -15z m-2317 -97
c5 -21 0 -30 -26 -52 -31 -26 -36 -27 -153 -27 -118 0 -122 1 -125 22 -2 12 6
31 17 42 18 18 33 21 119 21 53 0 104 5 112 10 27 17 49 11 56 -16z m1973 -6
l86 0 -77 -10 c-82 -11 -171 -3 -133 12 11 4 24 5 29 2 4 -2 47 -4 95 -4z
m-169 -23 c0 -13 -64 -35 -102 -34 -42 1 -42 1 -13 10 17 6 45 11 63 13 19 2
36 7 39 10 8 7 13 8 13 1z m-2302 -44 c90 -36 142 -42 278 -35 117 6 131 5
152 -12 22 -18 23 -22 13 -84 -16 -101 -72 -133 -113 -65 -17 29 -24 34 -42
28 -11 -4 -44 -8 -72 -8 -43 0 -55 -4 -71 -24 l-20 -25 -24 26 c-43 45 -91
108 -106 139 -18 36 -31 37 -35 2 -2 -20 -9 -28 -23 -28 -16 0 -21 9 -26 43
-4 33 -2 45 10 52 22 13 26 12 79 -9z m816 -17 c20 -19 20 -34 2 -60 -10 -13
-11 -25 -5 -35 26 -42 -24 -62 -70 -28 -31 23 -61 20 -61 -6 0 -8 -3 -15 -7
-15 -14 1 -43 27 -43 39 0 9 -9 11 -30 6 -25 -6 -30 -4 -30 13 0 11 14 32 32
47 32 27 65 30 125 10 18 -6 24 -2 33 19 11 29 31 33 54 10z m854 -171 c25
-23 36 -97 16 -114 -22 -18 -42 -3 -46 33 -4 40 -29 45 -38 8 -7 -31 -35 -37
-61 -14 -21 19 -26 5 -8 -24 17 -27 -1 -75 -32 -82 -23 -6 -22 -7 18 -34 33
-22 49 -27 75 -21 31 6 32 5 14 -10 -42 -33 -148 -13 -194 38 -20 21 -23 32
-17 59 l7 33 -29 -27 c-33 -32 -69 -36 -77 -10 -6 18 -45 47 -53 38 -3 -2 2
-15 11 -28 20 -28 20 -52 0 -72 -21 -21 -31 -20 -39 5 -9 29 -47 21 -55 -11
-8 -33 -42 -38 -71 -9 -20 20 -21 29 -16 92 4 46 13 80 25 96 23 31 44 40 36
14 -4 -13 0 -11 15 7 20 25 21 25 185 25 159 0 165 -1 189 -23 35 -33 63 -26
59 16 -3 30 -2 32 31 32 19 0 44 -8 55 -17z m-1614 -22 c31 -20 36 -28 36 -62
l0 -39 -73 0 -74 0 -63 58 -64 57 30 7 c59 14 169 3 208 -21z m721 -32 c22 -5
70 -9 106 -9 84 0 116 -20 96 -60 -12 -24 -15 -25 -105 -21 -72 2 -97 0 -117
-13 -31 -20 -108 -21 -125 -1 -6 8 -39 20 -71 26 -33 6 -61 14 -63 18 -2 3 -6
23 -10 44 l-7 39 128 -7 c70 -4 146 -11 168 -16z m-433 -26 c33 -30 22 -43
-34 -43 -29 0 -63 -3 -75 -6 -20 -6 -23 -3 -23 24 0 32 -1 32 94 40 11 1 28
-5 38 -15z M3881 6301 c-28 -56 -49 -101 -47 -101 7 0 106 193 102 198 -3 2
-28 -41 -55 -97z M3991 6279 c-45 -66 -78 -118 -72 -115 5 3 14 0 20 -8 9 -11
8 -15 -5 -20 -23 -9 -36 -7 -29 4 3 6 -10 1 -30 -11 -19 -12 -40 -29 -45 -39
-13 -24 -13 -63 0 -55 6 3 14 -4 19 -17 7 -16 10 -18 10 -6 1 9 -3 20 -9 23
-15 9 -12 51 5 65 16 13 72 30 125 36 50 7 94 -23 115 -79 17 -44 17 -45 36
-26 11 11 33 19 52 19 26 0 41 9 72 43 l40 42 -40 -37 c-28 -26 -50 -38 -71
-38 -16 0 -40 -7 -52 -16 -20 -14 -22 -14 -23 3 -1 10 -1 21 0 26 0 4 -3 7 -8
7 -23 0 -1 37 50 86 60 58 73 64 83 37 6 -15 -7 -36 -56 -86 -10 -10 -18 -25
-17 -35 0 -14 2 -14 6 -2 3 8 23 33 43 55 36 39 60 54 60 37 0 -4 10 -8 22 -9
19 -2 17 1 -9 16 -67 42 -95 114 -65 172 16 32 17 36 3 34 -9 -1 -15 -10 -13
-20 2 -9 -1 -14 -6 -11 -6 3 -25 -13 -43 -36 -19 -24 -58 -71 -88 -105 -47
-54 -59 -63 -88 -63 -20 0 -36 6 -39 14 -3 9 23 56 60 110 37 53 63 96 59 96
-4 0 2 7 13 15 10 8 14 15 8 15 -6 0 -48 -54 -93 -121z m209 56 c0 -8 -7 -15
-16 -15 -14 0 -14 3 -4 15 7 8 14 15 16 15 2 0 4 -7 4 -15z m-6 -41 c14 -36 3
-61 -49 -116 -59 -62 -66 -66 -87 -45 -7 8 -19 12 -27 9 -8 -3 -6 3 5 15 11
10 43 49 73 86 55 68 74 79 85 51z M4316 6155 c-3 -9 -6 -24 -5 -33 0 -9 5 -4
10 12 9 32 6 48 -5 21z M4295 6086 c-30 -13 -55 -52 -55 -84 1 -9 7 1 15 22
15 41 29 56 58 56 9 0 17 5 17 10 0 12 2 12 -35 -4z M3286 6040 c4 -19 11 -44
15 -55 6 -14 7 -9 3 15 -4 19 -11 44 -15 55 -6 14 -7 9 -3 -15z M3361 6039 c0
-8 4 -35 8 -61 4 -27 4 -48 -1 -48 -4 0 -8 -5 -8 -11 0 -9 4 -9 13 0 11 8 12
24 5 68 -8 53 -19 84 -17 52z M4215 6023 c3 -12 1 -32 -5 -44 -9 -17 -9 -20 1
-17 16 5 22 45 9 66 -9 14 -10 13 -5 -5z M3230 5996 c0 -12 29 -76 34 -76 3 0
-2 17 -11 38 -16 38 -23 50 -23 38z M3814 5933 c-3 -10 -10 -27 -16 -38 -10
-18 -9 -19 5 -6 10 7 17 20 17 28 0 8 4 11 10 8 6 -3 7 1 4 9 -8 21 -13 20
-20 -1z M3740 5915 c-7 -8 -9 -15 -4 -15 5 0 -1 -7 -13 -15 -14 -10 -20 -21
-16 -32 4 -10 2 -14 -4 -10 -6 4 -17 -1 -24 -10 -12 -14 -12 -16 0 -9 10 7 12
3 6 -15 -4 -13 7 -2 24 24 17 27 33 54 34 60 1 7 9 17 17 24 9 7 10 12 4 13
-6 0 -17 -7 -24 -15z M3832 5888 c-16 -16 -15 -40 1 -57 10 -11 9 -13 -4 -8
-11 3 -29 -8 -53 -32 -48 -49 -47 -65 2 -19 71 67 111 55 43 -14 -23 -22 -41
-44 -41 -49 0 -5 -3 -8 -7 -7 -5 1 -18 -3 -30 -10 -19 -10 -23 -10 -24 0 0 7
-14 24 -32 38 l-32 25 30 -35 c17 -20 38 -47 48 -60 15 -22 16 -22 7 -2 -7 15
-7 22 0 22 5 0 10 -5 10 -11 0 -6 18 12 40 39 21 28 48 57 59 64 12 8 18 18
14 21 -3 4 11 7 32 7 34 0 36 -2 24 -17 -10 -13 -8 -13 10 2 l23 20 -46 3
c-37 2 -50 8 -63 29 -13 20 -14 29 -5 44 14 22 11 24 -6 7z M3745 5825 c-22
-24 -41 -52 -42 -62 -1 -10 8 -4 25 18 15 19 39 46 53 62 15 15 22 27 16 27
-7 0 -30 -20 -52 -45z M2570 5845 c14 -8 30 -14 35 -14 6 0 -1 6 -15 14 -14 8
-29 14 -35 14 -5 0 1 -6 15 -14z M3591 5787 c2 -2 18 -11 34 -21 l30 -17 -24
20 c-13 12 -28 21 -34 21 -6 0 -8 -1 -6 -3z M3892 5770 c4 -13 -40 -57 -105
-105 -21 -16 -24 -23 -16 -35 9 -12 10 -12 5 4 -5 13 -2 17 8 13 9 -4 31 13
57 43 25 28 46 45 50 39 3 -6 8 -2 11 9 3 11 1 26 -4 33 -8 12 -9 11 -6 -1z
M2455 5735 c6 -3 46 -11 90 -19 44 -8 90 -17 103 -21 12 -4 22 -3 22 2 0 6
-45 17 -100 26 -93 16 -138 20 -115 12z M2985 5729 c4 -5 24 -9 45 -9 28 0 40
-5 43 -17 4 -17 5 -17 6 0 1 19 -6 23 -62 31 -22 3 -35 1 -32 -5z M3880 5706
c0 -3 4 -16 10 -30 6 -16 6 -27 -1 -31 -5 -4 -7 -10 -4 -14 2 -5 -7 -19 -20
-31 -14 -13 -25 -27 -25 -31 0 -4 15 8 34 27 25 25 43 34 68 34 l33 0 -35 18
c-22 10 -36 26 -38 40 -2 12 -8 22 -13 22 -5 0 -9 -2 -9 -4z M3820 5620 c-20
-6 -21 -8 -5 -8 11 0 29 3 40 8 25 11 -1 11 -35 0z M3191 5578 c-1 -17 -14
-22 -71 -31 -18 -3 -16 -5 10 -5 19 -1 42 2 50 8 9 5 19 5 26 -1 7 -5 115 -8
270 -6 l259 2 -263 3 c-262 2 -263 2 -272 25 -6 16 -9 18 -9 5z M2305 5539
c-19 -17 -35 -38 -34 -48 0 -12 3 -10 9 5 20 50 89 79 120 52 12 -11 12 -10 1
5 -20 26 -56 21 -96 -14z M4317 5551 c9 -11 6 -18 -17 -37 -15 -13 -39 -24
-53 -24 -13 0 -30 -6 -36 -13 -6 -8 -23 -12 -39 -9 -19 2 -33 -2 -43 -14 -13
-16 -12 -16 10 -5 12 7 31 11 42 8 10 -3 23 1 30 9 6 8 24 14 39 14 15 0 35 9
44 19 10 11 27 21 38 23 20 3 19 4 -3 23 -13 11 -19 13 -12 6z M3913 5543 c31
-2 83 -2 115 0 31 2 5 3 -58 3 -63 0 -89 -1 -57 -3z M2025 5483 l-28 -38 34
32 c18 18 30 35 27 38 -3 3 -18 -11 -33 -32z M3077 5503 c-4 -3 -7 -10 -7 -15
0 -4 129 -7 288 -6 l287 3 -283 2 c-182 2 -281 7 -277 13 7 11 2 13 -8 3z
M3762 5473 c59 -2 158 -2 220 0 62 1 14 3 -107 3 -121 0 -172 -2 -113 -3z
M2185 5461 c-11 -5 -29 -19 -40 -32 -20 -24 -20 -24 8 1 18 15 40 24 62 24 21
0 30 3 22 8 -15 9 -26 9 -52 -1z M2741 5421 c-9 -17 -5 -18 62 -18 l72 1 -62
3 c-35 2 -63 9 -63 14 0 7 162 10 495 8 272 -1 498 1 502 4 3 4 -219 7 -495 7
-478 0 -502 -1 -511 -19z M3778 5428 c23 -9 284 -10 298 0 7 4 -62 7 -152 7
-90 0 -156 -3 -146 -7z M2913 5403 c9 -2 25 -2 35 0 9 3 1 5 -18 5 -19 0 -27
-2 -17 -5z M1953 5388 c-54 -71 -64 -88 -49 -82 9 3 16 10 16 16 0 5 12 25 26
44 15 19 24 34 21 34 -2 0 -9 -6 -14 -12z M3228 5393 c100 -2 264 -2 365 0
100 1 18 2 -183 2 -201 0 -283 -1 -182 -2z M3898 5383 c28 -2 76 -2 105 0 28
2 5 3 -53 3 -58 0 -81 -1 -52 -3z M2106 5365 c-3 -9 -6 -26 -5 -38 1 -14 4 -9
9 13 9 37 7 52 -4 25z M3180 5343 c0 -7 334 -7 715 0 83 1 -45 4 -282 5 -238
1 -433 -1 -433 -5z M3170 5308 c0 -5 195 -7 433 -6 237 1 365 4 282 5 -381 7
-715 7 -715 1z M2041 5200 c-9 -5 -4 -7 12 -7 14 0 40 -11 57 -23 l31 -22 22
20 c12 12 33 25 47 31 16 6 19 10 8 10 -9 1 -30 -11 -47 -25 l-31 -26 -27 20
c-38 25 -57 32 -72 22z M2522 5191 c-8 -5 7 -6 37 -3 48 4 53 3 89 -34 31 -30
45 -38 67 -36 26 3 27 2 15 -13 -7 -9 -20 -13 -29 -10 -13 5 -14 4 -4 -6 10
-10 20 -6 47 20 28 27 45 35 85 39 46 4 53 2 81 -26 20 -21 30 -40 30 -61 0
-26 4 -31 25 -31 18 0 31 -10 45 -32 11 -18 20 -28 20 -23 0 7 3 7 8 0 4 -6
62 -8 157 -5 l150 6 -150 2 c-82 1 -156 6 -163 11 -8 5 -12 17 -10 27 3 18 22
19 418 24 l415 5 -411 3 c-361 2 -413 0 -424 -13 -9 -11 -16 -13 -24 -5 -5 5
-18 10 -28 10 -11 0 -18 7 -18 19 0 11 -3 26 -6 35 -5 14 36 16 397 19 l404 2
-406 3 c-377 2 -407 3 -422 20 -11 12 -33 19 -64 21 -26 1 -52 5 -57 8 -6 3
-8 3 -4 -2 11 -12 -39 -35 -77 -35 -30 0 -45 13 -45 40 0 5 26 11 58 13 l57 3
-67 1 c-56 0 -65 -2 -60 -16 4 -11 -2 -9 -22 7 -29 23 -89 30 -114 13z M1903
5183 c15 -2 39 -2 55 0 15 2 2 4 -28 4 -30 0 -43 -2 -27 -4z M2388 5183 c12
-2 30 -2 40 0 9 3 -1 5 -23 4 -22 0 -30 -2 -17 -4z M3128 5183 c133 -2 351 -2
485 0 133 1 24 2 -243 2 -267 0 -376 -1 -242 -2z M2002 5172 c-7 -5 -14 -18
-17 -30 -6 -36 -14 -41 -48 -35 -25 4 -36 0 -52 -19 l-20 -23 22 19 c16 14 31
17 56 12 31 -6 34 -4 55 39 12 25 21 45 19 45 -1 0 -8 -4 -15 -8z M2349 5145
c37 -42 59 -52 68 -29 3 8 8 12 12 10 3 -2 22 9 41 25 26 22 28 27 10 18 -14
-8 -28 -12 -32 -11 -4 1 -15 -9 -25 -22 l-19 -23 -26 22 c-15 13 -26 25 -25
26 1 2 0 3 -2 2 -2 -2 -11 3 -20 10 -9 6 -1 -6 18 -28z M1828 5123 c29 -2 74
-2 100 0 26 2 2 3 -53 3 -55 0 -76 -1 -47 -3z M1861 5034 c-1 -23 7 -38 29
-57 17 -15 30 -22 30 -14 0 7 -10 17 -22 22 -15 7 -25 22 -29 45 l-6 35 -2
-31z M3898 5043 c18 -2 45 -2 60 0 15 2 0 4 -33 4 -33 0 -45 -2 -27 -4z M2558
4952 c-4 -12 -2 -20 2 -17 5 3 14 -11 20 -30 13 -39 44 -65 75 -64 13 0 8 4
-13 10 -25 8 -37 19 -48 47 -33 84 -30 79 -36 54z M3073 4944 c9 -11 17 -30
17 -41 0 -15 8 -22 29 -25 17 -2 28 -1 25 4 -3 4 -14 8 -25 8 -12 0 -19 7 -19
18 0 11 -10 27 -22 38 -23 19 -23 19 -5 -2z M3925 4928 c35 -30 37 -30 53 -13
16 18 16 18 -1 5 -15 -11 -21 -10 -45 13 -16 15 -31 27 -35 27 -4 0 8 -14 28
-32z M3273 4935 c-18 -8 -33 -17 -33 -20 0 -3 5 -3 11 1 7 4 30 13 53 20 23 7
32 13 21 13 -11 0 -35 -6 -52 -14z M2480 4905 c0 -19 -32 -35 -57 -29 -14 4
-29 -2 -42 -15 -26 -26 -65 -27 -91 -1 -11 11 -20 16 -20 11 0 -15 42 -41 66
-41 12 0 33 9 48 21 16 13 33 18 46 14 13 -4 27 1 44 18 16 16 28 21 34 15 6
-6 12 -5 17 3 5 7 4 10 -3 5 -6 -3 -13 -2 -17 4 -9 15 -25 12 -25 -5z M2784
4899 c-4 -7 -20 -9 -40 -6 -28 5 -35 1 -49 -21 -16 -27 -16 -27 2 -6 14 16 27
20 50 17 17 -3 34 0 38 7 5 8 14 5 30 -10 19 -18 26 -19 49 -9 14 7 26 16 26
21 0 5 -12 1 -26 -9 -26 -16 -27 -16 -44 5 -21 25 -26 27 -36 11z M2220 4893
c-14 -3 -37 -16 -53 -31 -18 -17 -44 -28 -75 -33 l-47 -6 42 -2 c34 -1 49 5
76 29 19 17 43 30 53 31 11 0 28 4 39 9 21 9 7 10 -35 3z M2925 4843 c11 -3
23 -10 27 -17 5 -7 8 -5 8 7 0 12 -7 17 -27 16 -22 -1 -23 -2 -8 -6z M1778
4653 c12 -2 32 -2 45 0 12 2 2 4 -23 4 -25 0 -35 -2 -22 -4z M2970 5920 c99
-92 137 -121 137 -105 0 8 -4 15 -8 15 -5 0 -50 34 -101 76 -89 72 -90 72 -28
14z M3436 4915 c-49 -25 -102 -45 -117 -45 -15 0 -37 -9 -50 -19 l-24 -19 22
-24 c19 -20 32 -54 59 -146 3 -9 9 -10 23 -3 10 6 22 7 26 3 5 -4 5 -2 2 5 -4
6 -16 9 -27 6 -16 -4 -20 0 -20 19 0 13 -5 29 -11 35 -5 5 -11 26 -12 45 -1
21 -7 34 -13 31 -6 -2 -17 4 -25 13 -12 15 -12 17 1 12 8 -3 20 2 26 10 6 8
20 16 30 17 10 1 32 7 47 14 16 6 34 8 40 4 7 -3 9 -3 5 2 -5 5 2 15 13 23 18
12 23 13 31 1 8 -11 9 -11 5 2 -4 11 6 21 29 33 42 19 47 20 38 4 -6 -10 -4
-10 7 0 15 14 33 16 25 3 -4 -5 9 -8 28 -7 42 4 70 -9 43 -20 -9 -3 -17 -12
-17 -20 0 -7 -6 -11 -14 -8 -8 3 -16 1 -19 -4 -3 -4 7 -8 23 -8 21 0 27 3 22
15 -4 10 -1 13 11 8 9 -3 17 -3 17 2 0 16 35 6 42 -12 4 -10 13 -15 19 -11 8
5 7 9 -2 14 -8 6 -5 9 12 12 19 4 16 6 -16 12 -22 4 -52 14 -67 22 -15 8 -49
17 -75 19 -42 4 -60 -1 -137 -40z M3548 4895 c3 -11 7 -14 10 -7 2 6 10 12 17
12 8 0 16 3 18 8 3 4 -7 7 -22 7 -23 0 -27 -4 -23 -20z M3504 4893 c-23 -4
-40 -50 -19 -50 7 0 10 8 8 17 -3 10 6 20 24 27 29 11 24 13 -13 6z M3760
4891 c0 -5 18 -11 40 -13 46 -4 41 6 -7 15 -18 4 -33 3 -33 -2z M3675 4871 c3
-5 1 -12 -5 -16 -5 -3 -10 -2 -10 3 0 6 -10 7 -22 4 -23 -6 -23 -6 2 -12 14
-4 31 -5 38 -2 15 5 16 32 1 32 -5 0 -8 -4 -4 -9z M3865 4871 c16 -7 17 -9 5
-13 -10 -3 -9 -4 3 -3 9 2 17 -1 17 -6 0 -12 -36 -30 -45 -21 -3 4 -5 0 -3 -8
2 -9 -4 -14 -14 -14 -10 1 -15 -2 -13 -7 3 -4 -2 -12 -12 -17 -24 -12 -102
-24 -84 -13 9 6 10 11 2 15 -6 4 -13 1 -16 -6 -3 -8 -17 -15 -31 -16 -17 -1
-23 2 -18 10 4 7 3 8 -5 4 -6 -4 -9 -11 -6 -16 3 -4 -4 -10 -15 -13 -11 -3
-20 0 -20 5 0 6 -8 4 -18 -5 -10 -10 -22 -14 -27 -10 -4 5 -5 2 -1 -5 4 -7 -6
-26 -25 -47 -25 -26 -36 -32 -46 -23 -9 7 -13 7 -13 -1 0 -6 5 -11 12 -11 6 0
3 -9 -7 -20 -24 -26 -39 -26 -24 1 6 13 7 19 1 15 -6 -3 -12 -1 -15 6 -2 7 -3
5 -2 -4 2 -10 -2 -18 -7 -18 -6 0 -6 -6 2 -15 10 -12 7 -17 -14 -26 -14 -7
-26 -16 -26 -21 0 -15 36 10 108 76 88 80 114 94 200 105 75 9 109 24 162 69
30 26 33 32 21 46 -7 9 -21 16 -30 15 -12 0 -11 -2 4 -8z M3388 4849 c-12 -7
32 -17 50 -11 7 2 12 7 12 12 0 9 -47 8 -62 -1z M3563 4821 c-9 -25 -9 -31 3
-31 9 0 11 6 7 18 -6 14 -4 15 8 5 13 -10 16 -10 16 2 0 8 -4 12 -8 9 -4 -2
-9 3 -11 12 -2 10 -7 5 -15 -15z M3450 4808 c0 -7 5 -20 10 -28 8 -12 10 -11
10 7 0 12 -4 25 -10 28 -5 3 -10 0 -10 -7z M3387 4705 c-15 -11 -14 -13 9 -24
15 -6 29 -10 31 -7 2 2 -5 7 -16 11 -12 3 -19 10 -16 15 3 5 12 7 20 3 8 -3
15 -3 15 0 0 12 -27 14 -43 2z M3092 4676 c10 -7 15 -16 11 -19 -3 -4 -1 -7 5
-7 7 0 12 -7 12 -16 0 -8 5 -12 10 -9 13 8 -26 65 -43 65 -7 0 -4 -7 5 -14z
M2982 4650 c-42 -39 -30 -39 15 0 18 17 30 30 26 30 -4 0 -23 -14 -41 -30z
M3022 4656 c3 -4 2 -21 -2 -37 -5 -16 -5 -27 -1 -24 14 8 19 55 7 62 -6 3 -8
3 -4 -1z M2992 4628 c-15 -15 -16 -38 -1 -38 5 0 7 5 4 10 -4 6 -1 17 5 25 15
18 9 20 -8 3z M2898 4603 c-10 -2 -18 -9 -18 -14 0 -6 7 -6 19 1 30 16 44 12
38 -9 -3 -11 0 -22 7 -24 15 -6 16 35 2 45 -12 8 -21 8 -48 1z M3083 4593 c15
-4 16 -7 6 -19 -10 -12 -10 -17 0 -27 10 -9 11 -8 6 4 -4 10 -1 20 4 24 15 9
4 25 -17 24 -15 -1 -15 -2 1 -6z M2851 4566 c-6 -8 -32 -19 -57 -25 -25 -6
-62 -22 -82 -35 -20 -13 -79 -36 -130 -51 l-92 -28 29 -18 c30 -18 81 -79 81
-96 0 -5 12 -20 28 -34 15 -13 22 -18 15 -10 -6 7 -9 19 -7 26 3 7 0 16 -7 21
-8 5 -10 3 -5 -7 4 -8 -2 -3 -13 11 -20 24 -24 34 -18 46 1 3 -6 10 -15 15
-10 6 -18 17 -18 24 0 9 -10 15 -22 16 l-23 0 23 10 c13 5 28 6 33 3 6 -3 15
-1 22 4 7 6 30 17 52 25 22 8 48 18 58 22 13 6 16 4 11 -9 -3 -9 -14 -16 -24
-16 -18 0 -92 -29 -75 -29 46 -2 122 40 109 60 -2 4 3 13 12 20 13 10 17 10
25 -2 7 -12 9 -12 9 1 0 18 77 43 83 27 1 -5 18 -11 37 -12 l35 -3 -33 10
c-25 9 -31 15 -27 30 7 21 2 23 -14 4z M3184 4532 c4 -7 18 -12 31 -12 20 0
23 -4 21 -27 -1 -16 -8 -27 -15 -25 -7 1 -10 -2 -7 -7 16 -25 -51 -47 -141
-44 -48 1 -63 -2 -63 -12 0 -8 -10 -16 -22 -18 -27 -5 18 0 116 13 69 10 129
38 140 66 13 33 7 64 -13 64 -11 0 -27 3 -37 7 -12 4 -15 3 -10 -5z M2880
4485 c0 -11 -5 -15 -15 -11 -8 3 -15 1 -15 -4 0 -6 9 -10 19 -10 21 0 36 26
21 35 -6 4 -10 -1 -10 -10z M3127 4484 c4 -12 0 -14 -22 -12 -18 2 -29 -2 -32
-12 -4 -11 -2 -12 5 -2 6 9 15 10 35 3 25 -10 27 -8 27 14 0 14 -4 25 -10 25
-5 0 -7 -7 -3 -16z M3171 4482 c-17 -31 -13 -40 5 -14 9 13 14 26 11 29 -3 2
-10 -4 -16 -15z M2817 4454 c3 -8 0 -20 -5 -27 -8 -9 -7 -13 6 -13 20 0 24 43
5 50 -7 3 -10 -1 -6 -10z M2962 4424 c-1 -17 3 -24 16 -23 10 0 12 3 5 6 -7 2
-13 9 -13 15 0 6 7 8 15 4 21 -8 19 1 -3 13 -15 8 -18 5 -20 -15z M2762 4429
c3 -8 8 -13 11 -11 9 3 7 11 -5 18 -6 4 -8 0 -6 -7z M2840 4394 l-25 -14 23 0
c14 0 20 -4 17 -10 -4 -6 -15 -10 -24 -8 -10 2 -25 -3 -34 -11 -14 -11 -17
-11 -17 0 0 8 -6 3 -13 -10 -13 -26 -40 -41 -35 -21 2 8 -13 14 -39 17 -32 3
-43 0 -43 -9 0 -10 10 -13 35 -10 21 3 35 0 35 -7 0 -17 18 -13 49 10 15 11
52 26 82 34 30 7 46 13 37 14 -11 1 -16 8 -13 21 4 23 0 23 -35 4z M1767 4560
c7 -8 16 -27 22 -40 6 -17 10 -19 10 -8 1 9 -9 27 -21 40 -13 13 -18 17 -11 8z
M2263 4545 c2 -14 10 -21 27 -22 21 -1 21 -1 3 3 -12 3 -24 13 -27 22 -3 12
-4 11 -3 -3z M2465 4496 c-16 -7 -41 -25 -55 -40 l-24 -27 -18 23 c-16 20 -17
20 -11 3 11 -34 27 -35 58 -5 16 15 46 35 65 43 19 9 31 16 25 16 -5 0 -23 -6
-40 -13z M4450 4111 c-26 -4 -35 -11 -35 -26 0 -17 6 -20 38 -19 41 1 74 24
63 43 -8 12 -11 12 -66 2z M3947 3894 c-12 -12 -8 -41 8 -54 20 -17 47 5 43
34 -3 21 -37 34 -51 20z M2066 4014 c-3 -9 -6 -30 -6 -47 l1 -32 22 28 c28 33
39 35 32 5 -8 -34 5 -45 55 -49 51 -4 62 13 20 34 -14 7 -26 21 -28 32 -2 11
-11 26 -20 33 -22 17 -69 15 -76 -4z M2770 3849 c0 -11 -5 -29 -11 -41 -15
-28 0 -38 18 -10 19 27 40 29 48 3 7 -24 84 -53 132 -49 54 4 47 22 -11 29
-28 3 -51 10 -53 15 -2 5 -12 24 -23 42 -17 27 -25 32 -60 32 -34 0 -40 -3
-40 -21z M2668 3759 c-10 -5 -18 -21 -18 -35 0 -14 -5 -34 -11 -45 -6 -12 -8
-27 -5 -35 10 -25 34 -3 45 42 9 34 16 45 29 42 12 -2 18 -14 19 -37 2 -44 18
-57 77 -66 57 -8 61 10 8 34 -27 12 -32 20 -32 48 0 27 -5 35 -25 43 -46 18
-70 20 -87 9z M2977 3603 c-3 -21 -9 -51 -13 -68 -7 -30 -7 -30 14 -12 11 10
23 29 26 43 8 32 36 32 36 -1 0 -36 35 -50 88 -35 49 13 53 24 13 38 -16 6
-35 21 -42 34 -17 32 -28 38 -75 38 -41 0 -42 -1 -47 -37z M2664 3503 c-3 -16
-10 -39 -15 -52 -19 -46 21 -40 43 6 18 38 42 36 46 -4 4 -41 24 -57 59 -47
16 4 42 8 58 9 17 0 49 2 73 3 65 3 42 18 -39 26 -68 7 -71 9 -84 40 -16 39
-30 46 -91 46 -40 0 -44 -3 -50 -27z M2561 6360 c-40 -23 -59 -40 -51 -45 22
-14 82 -116 76 -131 -4 -10 11 -6 44 13 85 47 92 55 81 83 -9 24 -10 24 -10 3
-1 -20 -43 -63 -62 -63 -5 0 -16 14 -25 31 l-16 32 30 -6 31 -6 -21 34 c-20
35 -35 47 -25 22 3 -8 1 -20 -4 -28 -7 -11 -13 -9 -29 11 -11 14 -20 28 -20
31 0 12 59 31 76 25 12 -5 15 -2 10 10 -3 8 -6 18 -6 20 0 9 -17 1 -79 -36z
M5413 6247 c-45 -23 -82 -44 -82 -47 -1 -3 9 -11 20 -19 19 -11 21 -11 16 2
-11 29 18 39 52 20 31 -18 43 -57 20 -65 -5 -2 3 -13 19 -25 l30 -22 6 57 c4
31 9 76 13 100 3 23 1 42 -3 42 -5 -1 -46 -20 -91 -43z m47 -15 c0 -27 -10
-33 -33 -20 -20 10 -20 11 -2 24 25 19 35 18 35 -4z M2347 6219 c-61 -43 -65
-48 -43 -45 19 1 98 -104 91 -122 -5 -15 3 -11 55 27 45 32 69 61 70 83 0 20
-35 42 -51 32 -8 -4 -9 1 -4 15 8 27 -10 51 -39 51 -11 0 -47 -18 -79 -41z
m72 -3 c9 -11 10 -20 1 -35 -14 -28 -26 -26 -46 5 -15 22 -15 27 -3 35 20 13
35 11 48 -5z m46 -66 c18 -20 18 -21 -2 -41 l-20 -21 -22 30 c-20 29 -20 31
-4 41 25 14 27 14 48 -9z M5599 6194 c-12 -15 -12 -16 7 -10 11 3 28 0 39 -8
18 -13 18 -15 3 -38 -9 -14 -32 -41 -51 -61 l-34 -36 22 -21 c24 -22 35 -25
35 -9 0 12 82 119 91 119 12 0 27 -24 31 -48 3 -22 4 -22 15 -4 10 17 4 25
-57 73 -82 64 -83 64 -101 43z M2204 6109 l-21 -21 36 -39 c20 -22 43 -53 52
-68 l15 -29 35 29 c19 16 27 27 18 24 -10 -4 -30 13 -62 53 -25 33 -43 62 -40
66 3 3 2 6 -3 6 -5 0 -19 -9 -30 -21z M5820 6041 c0 -18 -79 -104 -101 -111
-13 -4 -3 -18 46 -62 62 -57 63 -57 81 -37 15 16 15 19 2 14 -20 -8 -78 21
-78 38 0 6 9 23 20 37 19 25 21 24 32 -18 2 -9 12 -4 28 14 16 17 19 25 9 22
-9 -4 -22 -2 -30 2 -11 7 -9 14 11 35 l25 26 23 -27 c15 -17 22 -35 18 -47 -5
-19 -4 -19 12 -4 15 16 13 21 -41 75 -31 31 -57 51 -57 43z M2010 5935 c-19
-20 -28 -33 -18 -30 17 7 77 -44 109 -91 l15 -24 57 58 56 57 -19 25 -20 25 6
-30 c4 -24 0 -35 -20 -54 l-26 -25 -46 45 c-25 24 -49 52 -53 62 -6 15 -11 13
-41 -18z M6650 5555 c-7 -9 -9 -26 -5 -45 l7 -32 -25 17 c-34 22 -72 16 -72
-10 0 -13 12 -25 32 -35 37 -17 43 -30 13 -30 -29 0 -70 -21 -70 -36 0 -19 41
-27 73 -15 l27 11 -15 -30 c-19 -37 -19 -66 1 -74 19 -7 64 36 64 61 0 12 6 8
20 -15 27 -44 63 -42 68 3 4 35 16 45 55 45 54 0 26 73 -33 82 l-25 4 29 13
c16 6 36 9 43 6 8 -3 4 8 -9 25 -28 36 -51 45 -78 30 -17 -9 -22 -8 -27 7 -13
35 -51 44 -73 18z M7032 5148 c-10 -30 -10 -31 3 -14 13 17 21 46 12 46 -1 0
-8 -15 -15 -32z"/>
</g>
</svg>
