<?xml version="1.0" encoding="UTF-8"?>
<svg xmlns="http://www.w3.org/2000/svg" viewBox="0 0 800 800" width="800" height="800">
  <path d="M 297.14,40.0 L 562.58,42.49 L 589.12,172.72 L 626.45,364.33 L 643.87,406.64 L 660.46,430.69 L 653.82,445.62 L 671.24,454.75 L 645.53,473.82 L 646.36,492.9 L 633.09,518.62 L 648.02,564.24 L 637.23,604.06 L 653.82,645.53 L 579.17,646.36 L 260.65,646.36 L 255.67,666.27 L 289.68,695.3 L 283.87,720.18 L 295.48,732.63 L 273.09,755.02 L 252.35,760.0 L 214.19,735.12 L 210.05,697.79 L 198.43,693.64 L 184.33,721.84 L 179.35,749.22 L 140.37,741.75 L 128.76,510.32 L 163.59,222.49 L 185.16,56.59 L 169.4,40.83 L 297.14,40.0 Z" fill="none" stroke="#000000" stroke-width="2" stroke-linejoin="round" opacity="0.3"/>
</svg>