<?xml version="1.0" encoding="UTF-8"?>
<svg xmlns="http://www.w3.org/2000/svg" viewBox="0 0 800 800" width="800" height="800">
  <path d="M 740.26,477.77 L 740.66,475.76 L 743.27,476.97 L 742.87,479.04 L 739.72,478.78 L 740.26,477.77 Z M 737.44,474.02 L 739.72,475.5 L 738.45,477.64 L 737.44,476.9 L 737.44,474.02 Z M 723.46,461.64 L 726.4,461.37 L 727.67,461.84 L 727.27,463.65 L 724.66,464.05 L 722.32,462.91 L 723.46,461.64 Z M 715.89,462.71 L 721.18,463.11 L 722.52,465.46 L 727.81,468.07 L 729.61,469.67 L 729.75,471.01 L 731.02,471.28 L 731.22,473.02 L 733.36,474.76 L 733.63,476.3 L 735.04,475.83 L 735.64,477.04 L 735.91,481.79 L 735.04,482.86 L 731.62,482.66 L 730.68,480.25 L 729.48,480.45 L 727.0,478.64 L 726.27,479.24 L 724.19,478.64 L 724.53,480.45 L 726.47,479.98 L 727.74,480.65 L 727.14,483.13 L 724.8,482.86 L 721.25,479.71 L 720.24,478.11 L 720.44,476.43 L 717.63,476.57 L 717.63,475.3 L 719.78,475.16 L 721.92,474.02 L 720.98,472.02 L 718.44,471.61 L 718.04,468.4 L 717.1,466.8 L 715.36,467.93 L 714.69,466.13 L 716.5,465.26 L 715.02,463.18 L 715.89,462.71 Z M 714.15,472.42 L 716.5,473.22 L 718.1,472.22 L 719.71,472.69 L 718.04,474.49 L 715.42,473.96 L 714.15,472.42 Z M 712.08,455.62 L 710.34,454.41 L 712.35,453.61 L 718.97,454.75 L 721.92,454.68 L 723.99,456.96 L 727.81,458.83 L 727.41,460.24 L 725.4,460.97 L 722.65,460.64 L 720.71,461.51 L 718.04,460.97 L 715.09,461.51 L 714.49,458.63 L 714.76,456.76 L 712.55,456.69 L 712.08,455.62 Z M 709.54,461.11 L 707.86,460.17 L 706.05,458.16 L 705.85,456.62 L 707.33,455.89 L 708.87,456.62 L 709.2,455.35 L 714.02,457.56 L 714.49,459.7 L 712.81,459.97 L 711.74,462.38 L 712.95,463.05 L 711.48,465.86 L 709.6,465.26 L 709.33,467.0 L 708.13,466.13 L 707.39,462.71 L 709.54,461.11 Z M 703.18,463.52 L 702.78,464.92 L 701.1,464.12 L 696.55,458.7 L 693.67,457.09 L 694.68,455.82 L 693.54,452.74 L 690.33,450.26 L 693.61,447.85 L 695.08,448.86 L 697.96,449.66 L 700.57,449.8 L 700.63,451.74 L 703.18,458.09 L 703.18,463.52 Z M 702.24,439.82 L 706.39,440.76 L 708.8,440.63 L 708.66,441.56 L 712.15,444.91 L 709.74,444.37 L 709.13,445.51 L 711.74,447.25 L 712.55,450.33 L 709.94,451.13 L 709.07,452.21 L 704.85,454.41 L 703.58,454.35 L 703.04,452.0 L 703.91,450.6 L 703.51,448.52 L 702.04,445.98 L 702.31,444.64 L 701.37,441.36 L 699.76,439.96 L 699.29,437.55 L 702.24,439.82 Z M 688.25,450.73 L 689.99,450.73 L 691.8,452.94 L 691.0,454.48 L 688.25,454.82 L 688.65,452.41 L 688.25,450.73 Z M 683.1,440.02 L 686.78,440.09 L 689.19,439.02 L 692.67,440.49 L 690.79,442.1 L 691.46,442.7 L 693.2,440.89 L 697.42,441.5 L 699.76,442.83 L 698.42,445.24 L 699.5,445.45 L 700.9,448.66 L 697.69,449.13 L 691.73,446.52 L 691.93,449.19 L 690.06,450.26 L 687.85,449.8 L 686.51,448.12 L 683.97,446.98 L 682.03,444.64 L 679.55,443.57 L 679.68,441.63 L 681.36,440.96 L 681.89,439.29 L 683.1,440.02 Z M 551.11,415.66 L 545.96,418.74 L 545.56,419.95 L 541.41,420.75 L 542.28,418.87 L 546.76,416.93 L 549.57,414.79 L 551.11,415.66 Z M 545.22,411.04 L 544.55,413.59 L 542.81,416.2 L 540.4,415.33 L 542.41,412.32 L 545.22,411.04 Z M 542.48,292.91 L 543.75,293.45 L 550.11,293.98 L 553.46,293.65 L 558.07,293.65 L 563.09,294.12 L 566.04,293.85 L 568.92,294.85 L 574.14,295.99 L 581.16,296.26 L 583.11,295.59 L 587.79,295.19 L 589.8,294.32 L 594.88,294.18 L 594.82,294.79 L 597.83,294.45 L 604.05,295.39 L 608.27,296.93 L 612.22,297.66 L 613.09,298.33 L 616.7,298.47 L 620.12,299.61 L 620.79,300.34 L 622.86,299.74 L 625.4,300.21 L 625.4,414.39 L 631.09,415.39 L 631.83,414.32 L 637.79,415.86 L 641.33,413.92 L 648.76,413.72 L 647.42,417.0 L 649.3,418.14 L 653.52,419.21 L 654.45,420.95 L 666.9,427.37 L 668.84,431.46 L 671.05,430.32 L 676.4,428.38 L 679.42,428.31 L 680.82,426.84 L 680.69,424.63 L 682.83,424.63 L 683.37,422.69 L 687.18,422.22 L 692.87,420.55 L 698.42,423.43 L 697.89,425.17 L 699.23,426.91 L 702.37,427.31 L 706.32,429.92 L 706.05,430.65 L 707.86,432.06 L 712.88,433.67 L 721.05,440.69 L 722.25,442.57 L 724.8,444.44 L 728.54,448.59 L 732.29,452.14 L 730.89,453.61 L 734.77,454.15 L 733.83,456.29 L 736.98,457.16 L 737.38,459.63 L 740.52,459.5 L 746.55,462.04 L 750.3,462.51 L 752.24,463.72 L 754.11,464.05 L 754.65,465.26 L 758.59,465.59 L 759.8,467.06 L 757.99,469.81 L 758.26,472.08 L 760.0,475.83 L 758.66,476.77 L 755.72,480.18 L 751.43,482.66 L 750.23,481.39 L 748.62,481.79 L 747.48,479.24 L 747.82,478.17 L 746.48,476.9 L 749.29,475.56 L 748.49,475.1 L 745.68,476.77 L 744.14,475.7 L 742.4,476.3 L 737.31,473.62 L 739.05,470.68 L 735.84,471.68 L 735.7,473.15 L 733.16,472.02 L 732.63,470.61 L 734.37,469.07 L 733.83,467.53 L 731.42,468.8 L 729.01,466.06 L 727.54,466.59 L 726.6,464.32 L 728.94,462.85 L 731.22,462.85 L 730.55,461.04 L 731.76,458.7 L 729.88,458.76 L 726.0,456.76 L 723.26,454.35 L 716.83,452.61 L 716.96,447.72 L 714.89,447.12 L 715.36,445.11 L 713.22,444.58 L 710.07,441.9 L 709.2,440.49 L 703.78,440.02 L 697.82,436.41 L 695.28,427.98 L 694.07,429.92 L 694.61,431.66 L 697.02,435.0 L 696.42,435.54 L 698.02,438.28 L 697.69,440.09 L 695.35,439.69 L 693.47,437.68 L 691.0,437.35 L 687.52,437.88 L 687.58,435.0 L 685.44,432.59 L 683.5,433.33 L 675.8,430.79 L 675.13,431.52 L 679.35,432.33 L 682.63,434.33 L 683.9,434.4 L 684.3,436.01 L 685.98,437.88 L 681.76,438.95 L 679.28,438.28 L 679.22,439.96 L 676.0,438.69 L 674.93,437.75 L 672.92,437.75 L 667.37,435.34 L 663.29,433.2 L 662.89,431.93 L 660.61,430.05 L 654.32,428.71 L 650.84,427.31 L 644.75,425.7 L 640.73,424.16 L 641.07,422.49 L 642.2,423.02 L 643.54,421.95 L 642.2,419.54 L 643.88,418.2 L 643.07,417.6 L 640.06,420.15 L 633.77,421.82 L 626.27,421.22 L 619.98,419.68 L 619.72,418.47 L 616.77,418.74 L 613.62,417.87 L 606.6,417.07 L 602.51,417.0 L 593.35,417.67 L 590.07,418.14 L 585.92,416.4 L 580.76,415.59 L 579.16,414.52 L 578.55,412.72 L 575.01,412.85 L 573.8,414.46 L 567.51,412.32 L 566.51,411.38 L 560.01,413.12 L 556.87,415.19 L 555.53,413.25 L 556.87,412.18 L 558.74,412.45 L 564.9,411.04 L 564.1,409.97 L 561.22,410.51 L 560.08,409.1 L 557.4,408.9 L 554.73,405.35 L 553.72,406.22 L 549.97,406.69 L 548.77,406.22 L 547.5,407.36 L 542.81,406.96 L 542.61,408.23 L 539.47,408.57 L 537.99,408.1 L 539.07,405.82 L 537.73,405.89 L 535.59,408.3 L 538.53,409.1 L 538.8,410.84 L 540.6,412.72 L 539.53,414.72 L 537.19,414.06 L 536.52,415.06 L 538.8,415.46 L 540.07,418.14 L 536.79,418.67 L 534.98,418.14 L 532.1,418.87 L 530.63,418.27 L 526.82,418.34 L 526.95,417.33 L 525.14,418.0 L 524.14,419.28 L 522.53,418.14 L 520.53,419.74 L 521.4,420.48 L 518.58,421.42 L 516.04,421.55 L 515.04,422.82 L 512.29,423.96 L 510.42,423.56 L 508.34,424.9 L 506.67,424.83 L 503.19,427.57 L 499.44,427.78 L 498.24,426.91 L 495.96,428.38 L 491.28,427.24 L 492.35,425.17 L 495.43,424.43 L 497.44,424.56 L 498.04,423.76 L 501.65,422.15 L 501.79,420.82 L 497.03,422.62 L 493.08,421.55 L 492.62,420.82 L 494.62,417.74 L 498.04,415.53 L 498.57,413.72 L 499.58,413.39 L 499.98,411.44 L 498.24,409.3 L 502.45,408.5 L 510.49,405.42 L 512.43,406.63 L 514.9,406.96 L 518.58,405.69 L 514.5,404.02 L 512.9,402.74 L 509.68,402.88 L 507.41,402.28 L 506.74,402.81 L 502.92,403.68 L 501.18,405.35 L 497.37,405.76 L 493.42,407.7 L 493.02,408.97 L 490.01,409.64 L 489.34,411.04 L 487.19,411.91 L 486.19,414.39 L 482.04,416.0 L 484.05,417.27 L 482.38,419.14 L 478.49,419.48 L 478.16,421.89 L 474.55,422.76 L 473.41,421.75 L 471.6,423.63 L 469.46,423.69 L 469.86,425.03 L 465.11,425.83 L 464.17,429.52 L 469.59,429.72 L 473.88,430.72 L 475.08,431.93 L 473.34,433.87 L 470.46,435.07 L 467.79,435.14 L 467.52,436.21 L 465.78,436.61 L 466.58,437.95 L 464.77,439.96 L 460.89,441.83 L 458.68,441.83 L 456.54,442.5 L 454.47,442.37 L 452.86,443.1 L 453.33,444.11 L 450.32,444.64 L 449.71,446.11 L 447.64,445.18 L 445.36,448.06 L 441.55,447.85 L 441.82,449.39 L 439.54,448.99 L 437.93,449.66 L 437.93,451.74 L 435.39,454.95 L 431.31,455.35 L 427.96,456.82 L 427.43,457.63 L 425.29,456.49 L 421.67,459.57 L 420.67,458.7 L 418.66,458.96 L 418.19,460.71 L 416.12,461.37 L 413.64,461.11 L 411.7,462.85 L 415.11,463.38 L 411.43,467.26 L 400.86,468.54 L 397.91,471.95 L 397.17,471.21 L 397.58,469.07 L 395.5,468.74 L 392.89,469.54 L 392.49,470.41 L 388.41,471.82 L 386.67,473.42 L 386.13,472.28 L 385.06,473.62 L 382.65,472.75 L 378.17,474.83 L 374.82,474.76 L 375.29,473.15 L 373.82,471.61 L 372.48,472.89 L 372.61,474.22 L 368.13,478.31 L 366.59,477.3 L 366.12,478.84 L 363.04,478.58 L 362.57,476.17 L 360.7,475.63 L 360.03,476.5 L 361.7,477.57 L 360.9,479.24 L 358.42,480.11 L 356.55,478.24 L 354.27,478.11 L 353.87,478.84 L 356.15,479.91 L 352.0,481.65 L 354.81,482.12 L 354.88,482.93 L 352.53,482.32 L 349.39,483.93 L 343.3,483.86 L 340.28,484.93 L 340.02,485.74 L 336.54,486.67 L 333.99,486.34 L 333.12,484.06 L 335.67,483.33 L 337.61,480.58 L 340.15,480.52 L 345.64,478.71 L 350.06,478.64 L 351.73,480.38 L 353.0,479.11 L 352.73,477.64 L 355.28,476.97 L 358.02,476.97 L 361.7,473.76 L 365.78,470.88 L 371.14,468.34 L 377.43,467.2 L 380.04,467.73 L 382.58,467.0 L 383.25,468.07 L 381.85,469.27 L 383.39,470.21 L 383.86,468.74 L 387.0,468.6 L 387.87,469.54 L 389.81,469.87 L 389.88,468.74 L 386.67,467.73 L 386.4,467.06 L 388.54,463.92 L 391.42,462.11 L 395.3,460.37 L 401.46,458.83 L 405.94,456.62 L 408.08,457.43 L 409.82,457.09 L 409.09,455.69 L 409.62,454.35 L 413.04,451.54 L 417.72,449.73 L 421.47,447.32 L 421.27,445.98 L 424.28,436.48 L 428.97,433.93 L 428.43,431.93 L 417.19,434.8 L 413.64,434.47 L 412.77,433.26 L 410.76,432.73 L 410.09,431.39 L 408.28,431.99 L 407.15,434.07 L 409.09,436.68 L 406.75,437.82 L 404.67,437.41 L 400.66,433.26 L 397.91,431.19 L 396.51,431.19 L 395.57,432.73 L 394.36,433.0 L 392.56,431.72 L 390.35,431.52 L 389.34,429.45 L 382.78,431.79 L 376.9,433.46 L 376.43,434.4 L 371.81,435.81 L 369.53,434.54 L 371.61,433.06 L 370.87,429.58 L 369.33,425.9 L 372.41,424.36 L 369.87,421.28 L 367.66,419.54 L 365.92,417.0 L 363.31,415.93 L 362.64,418.14 L 359.49,418.61 L 354.47,420.01 L 348.45,420.61 L 345.17,420.48 L 342.36,419.74 L 342.02,417.8 L 339.62,417.2 L 335.8,414.52 L 332.59,413.99 L 328.84,411.04 L 331.38,409.7 L 331.92,407.23 L 329.98,407.76 L 329.71,406.22 L 330.65,404.95 L 328.17,403.81 L 327.9,405.02 L 324.89,404.55 L 324.49,402.48 L 322.15,402.21 L 320.87,400.8 L 320.94,399.06 L 318.6,399.87 L 318.2,398.19 L 321.08,397.79 L 318.73,395.92 L 322.88,395.78 L 322.88,393.51 L 323.89,391.97 L 331.58,387.08 L 333.19,385.61 L 334.33,385.88 L 333.66,383.8 L 336.6,380.26 L 339.15,378.85 L 343.9,378.25 L 347.58,378.85 L 352.73,380.99 L 356.08,380.72 L 360.7,378.65 L 365.45,375.5 L 367.86,375.17 L 368.46,375.97 L 374.22,375.97 L 379.3,375.3 L 383.86,372.02 L 383.86,371.22 L 381.58,368.14 L 381.31,366.33 L 377.77,364.39 L 376.43,362.72 L 380.04,363.19 L 383.45,361.78 L 383.65,360.44 L 379.24,357.97 L 375.96,359.91 L 372.88,359.57 L 370.0,360.65 L 366.72,360.91 L 365.92,361.65 L 362.17,362.72 L 361.03,364.53 L 359.16,365.26 L 358.29,363.12 L 356.01,362.65 L 354.41,364.33 L 353.47,363.52 L 349.25,362.32 L 340.62,362.39 L 334.46,363.72 L 332.12,363.92 L 327.1,363.12 L 317.6,362.18 L 315.12,361.45 L 313.98,360.24 L 314.85,358.57 L 311.44,357.17 L 312.11,355.63 L 314.25,354.82 L 313.58,352.88 L 310.17,352.88 L 307.36,352.35 L 301.87,351.94 L 298.99,350.94 L 294.57,349.94 L 294.17,348.67 L 301.06,346.99 L 309.76,344.18 L 315.86,342.51 L 319.34,343.44 L 322.88,343.65 L 323.69,342.31 L 321.54,342.11 L 321.34,340.97 L 329.84,339.09 L 339.41,337.69 L 344.57,337.55 L 347.38,338.02 L 345.91,340.03 L 346.44,341.44 L 345.37,342.44 L 347.18,344.05 L 350.52,343.78 L 354.74,344.05 L 359.63,343.71 L 361.03,344.31 L 364.25,344.45 L 367.06,343.85 L 370.74,344.52 L 374.28,341.84 L 376.83,341.7 L 378.57,342.24 L 379.44,340.7 L 374.55,339.96 L 369.87,340.57 L 370.34,338.56 L 366.65,336.42 L 362.64,335.75 L 361.43,333.81 L 364.58,333.34 L 368.6,335.28 L 367.86,336.82 L 369.8,338.02 L 374.02,339.43 L 375.02,337.96 L 370.2,336.02 L 372.28,332.53 L 370.6,331.93 L 365.85,332.67 L 360.97,332.47 L 360.23,331.87 L 357.75,332.47 L 347.51,331.0 L 347.31,329.46 L 344.23,326.04 L 341.76,324.77 L 337.81,323.7 L 329.78,320.76 L 326.1,319.62 L 322.41,319.35 L 316.93,317.34 L 311.57,316.2 L 311.3,315.8 L 315.32,315.2 L 317.13,313.33 L 317.26,309.58 L 328.1,309.85 L 341.22,308.98 L 344.63,308.31 L 350.06,306.43 L 355.21,303.55 L 356.28,300.68 L 358.49,298.2 L 363.04,296.13 L 364.98,294.59 L 370.6,292.11 L 371.47,292.78 L 376.16,292.98 L 382.99,291.71 L 387.27,290.37 L 397.51,286.22 L 401.39,286.02 L 401.79,286.62 L 405.74,286.15 L 409.62,286.29 L 417.25,285.75 L 424.75,283.94 L 432.18,280.2 L 435.19,279.39 L 435.73,280.06 L 447.17,281.6 L 448.11,282.67 L 444.16,284.08 L 442.35,284.14 L 442.42,286.02 L 448.18,285.42 L 448.51,284.41 L 451.12,283.48 L 451.99,284.01 L 453.93,281.87 L 459.62,283.81 L 458.68,285.28 L 462.23,285.68 L 464.31,286.55 L 467.38,285.15 L 472.81,285.08 L 475.88,284.61 L 483.78,285.08 L 487.8,285.62 L 485.86,288.5 L 493.22,289.23 L 493.75,289.97 L 500.92,291.24 L 500.98,290.64 L 506.14,289.83 L 511.09,289.9 L 511.16,290.57 L 514.03,290.64 L 517.05,289.7 L 522.0,289.57 L 525.48,289.97 L 530.23,290.97 L 532.44,290.77 L 535.59,292.18 L 537.39,291.64 L 540.34,292.04 L 542.48,292.91 Z M 479.5,442.23 L 479.43,442.77 L 475.21,441.96 L 478.23,438.82 L 480.97,438.55 L 482.84,435.67 L 484.92,438.22 L 486.66,437.35 L 490.01,438.75 L 490.01,440.69 L 485.12,440.96 L 482.98,441.83 L 479.5,442.23 Z M 467.05,448.19 L 470.53,446.58 L 467.38,446.25 L 467.32,444.84 L 469.93,443.91 L 471.8,444.58 L 472.07,445.98 L 473.14,445.04 L 473.21,442.97 L 475.48,443.91 L 475.88,442.57 L 477.89,443.37 L 480.3,443.37 L 482.18,442.63 L 485.25,443.91 L 485.25,447.45 L 489.14,447.19 L 486.59,449.53 L 481.91,448.59 L 483.65,450.13 L 482.31,451.4 L 479.9,450.8 L 479.83,453.21 L 476.15,453.88 L 474.95,454.88 L 472.67,453.95 L 470.26,456.49 L 468.39,456.76 L 466.38,457.89 L 465.64,455.15 L 462.83,456.62 L 462.7,455.75 L 460.16,454.88 L 459.95,452.41 L 457.48,451.4 L 458.88,448.52 L 463.77,446.72 L 466.78,446.85 L 467.05,448.19 Z M 460.02,459.63 L 457.48,462.11 L 456.68,461.71 L 460.02,459.63 Z M 446.57,467.93 L 448.51,468.07 L 447.84,470.61 L 444.63,470.28 L 444.09,469.41 L 446.57,467.93 Z M 394.56,475.76 L 393.83,478.37 L 390.08,480.52 L 391.89,477.24 L 393.16,477.57 L 394.56,475.76 Z M 386.87,474.83 L 389.14,474.83 L 389.08,476.17 L 386.8,477.64 L 384.79,476.63 L 383.52,477.57 L 382.78,475.3 L 383.45,474.56 L 386.87,474.83 Z M 365.65,479.45 L 365.92,480.52 L 364.51,481.19 L 363.44,480.05 L 365.65,479.45 Z M 363.71,373.7 L 361.9,374.9 L 361.3,373.83 L 363.71,373.7 Z M 358.96,485.47 L 361.57,485.94 L 361.3,486.94 L 359.23,486.87 L 358.96,485.47 Z M 325.43,487.81 L 326.3,489.22 L 324.42,489.82 L 323.75,488.35 L 325.43,487.81 Z M 323.08,489.55 L 319.34,490.89 L 318.53,489.95 L 320.14,488.75 L 323.08,489.55 Z M 315.45,413.72 L 318.26,413.25 L 318.87,414.12 L 321.34,413.92 L 323.75,414.72 L 324.22,418.2 L 322.95,419.34 L 319.8,420.01 L 319.13,421.22 L 314.52,419.88 L 312.37,419.95 L 307.76,418.2 L 306.15,418.2 L 303.47,417.2 L 302.54,415.59 L 303.87,415.19 L 308.43,415.59 L 310.57,414.32 L 312.84,414.19 L 313.85,413.32 L 315.45,413.72 Z M 315.32,491.29 L 317.33,492.23 L 313.24,494.5 L 313.31,494.91 L 318.47,493.23 L 318.53,494.17 L 316.46,495.31 L 313.11,496.04 L 312.78,497.18 L 309.16,498.39 L 306.02,498.45 L 303.94,499.59 L 300.06,500.6 L 297.99,499.52 L 302.07,498.25 L 303.34,498.45 L 306.42,497.38 L 305.68,496.18 L 307.42,494.91 L 310.03,495.51 L 310.3,494.71 L 307.49,494.44 L 305.95,493.57 L 307.29,492.1 L 312.04,491.23 L 313.04,492.9 L 315.32,491.29 Z M 285.8,501.73 L 290.49,499.39 L 290.76,498.39 L 292.56,497.25 L 295.37,496.71 L 296.85,497.32 L 297.38,498.92 L 292.16,500.66 L 289.35,503.21 L 287.08,504.08 L 285.8,501.73 Z M 274.09,504.95 L 274.63,506.15 L 271.48,506.22 L 271.15,505.41 L 274.09,504.95 Z M 269.21,452.07 L 267.53,453.21 L 267.2,452.07 L 269.21,452.07 Z M 262.85,507.36 L 263.65,508.49 L 261.37,509.3 L 261.04,508.09 L 262.85,507.36 Z M 249.73,372.69 L 259.43,374.5 L 265.06,372.96 L 267.6,373.09 L 269.87,373.96 L 270.48,375.44 L 275.36,376.24 L 276.9,376.98 L 283.26,377.31 L 287.08,377.85 L 285.0,379.65 L 281.92,379.25 L 278.64,379.59 L 276.97,380.39 L 275.43,382.2 L 273.09,380.52 L 270.34,379.39 L 267.8,379.25 L 266.6,377.98 L 260.44,376.37 L 257.56,376.31 L 253.14,377.71 L 249.8,376.98 L 248.39,375.5 L 249.73,372.69 Z M 241.3,511.1 L 241.5,512.51 L 239.15,512.78 L 239.62,511.57 L 241.3,511.1 Z M 226.7,514.05 L 228.31,514.58 L 232.86,514.52 L 233.06,514.92 L 227.64,515.52 L 226.7,514.05 Z M 218.2,512.44 L 218.14,511.24 L 219.88,510.77 L 222.35,511.97 L 221.42,513.11 L 219.95,513.04 L 220.41,514.32 L 218.07,514.45 L 213.12,515.79 L 210.31,515.39 L 211.11,514.45 L 214.12,514.58 L 218.2,512.44 Z M 191.97,517.66 L 194.18,517.46 L 194.18,519.0 L 191.37,518.8 L 187.89,520.61 L 186.55,518.2 L 188.02,518.13 L 188.22,516.32 L 190.03,516.26 L 190.03,517.6 L 191.97,517.66 Z M 183.6,516.52 L 184.94,517.13 L 184.0,519.2 L 182.13,519.8 L 182.06,518.53 L 183.6,516.52 Z M 171.76,516.86 L 173.83,516.93 L 175.7,518.4 L 173.7,520.14 L 171.76,516.86 Z M 61.96,503.74 L 59.69,504.54 L 59.55,505.82 L 40.0,506.55 L 43.21,504.54 L 43.21,503.61 L 61.96,503.74 Z" fill="none" stroke="#000000" stroke-width="2" stroke-linejoin="round" opacity="0.3"/>
</svg>