<?xml version="1.0" encoding="UTF-8"?>
<svg xmlns="http://www.w3.org/2000/svg" viewBox="0 0 800 800" width="800" height="800">
  <path d="M 122.52,68.4 L 182.39,68.02 L 276.42,69.17 L 348.96,69.17 L 349.34,190.45 L 348.96,279.1 L 439.15,342.05 L 524.35,403.84 L 591.51,454.12 L 639.87,491.34 L 725.07,559.28 L 725.07,568.1 L 736.59,579.62 L 746.18,598.04 L 760.0,608.02 L 751.56,617.23 L 740.43,621.83 L 731.98,634.12 L 734.67,650.62 L 732.75,660.98 L 718.55,670.96 L 723.16,697.06 L 732.75,697.44 L 736.59,710.49 L 732.75,716.63 L 718.93,719.32 L 626.06,725.84 L 550.45,731.98 L 542.0,722.77 L 541.62,708.19 L 536.25,690.92 L 526.27,678.64 L 504.39,661.75 L 476.38,646.01 L 471.0,650.23 L 460.26,647.55 L 461.79,640.64 L 449.51,626.44 L 433.01,629.51 L 403.84,619.15 L 399.62,610.7 L 380.04,600.34 L 357.78,600.72 L 339.36,596.12 L 315.95,598.04 L 303.67,588.83 L 306.35,569.25 L 302.13,566.18 L 304.82,552.37 L 286.4,542.0 L 285.63,527.8 L 278.72,527.04 L 267.21,514.75 L 259.15,512.07 L 255.69,504.39 L 228.83,475.61 L 216.16,467.16 L 213.48,444.52 L 218.85,446.44 L 223.84,433.01 L 213.86,420.72 L 201.58,422.26 L 185.46,411.13 L 179.7,402.3 L 180.85,393.86 L 172.79,382.73 L 172.79,364.31 L 185.84,364.31 L 180.47,338.59 L 174.71,341.28 L 173.56,353.94 L 159.74,356.63 L 143.24,347.04 L 140.55,330.53 L 129.81,317.48 L 115.61,309.42 L 107.93,300.21 L 87.21,282.17 L 90.66,276.8 L 81.07,253.39 L 85.29,240.34 L 79.15,220.77 L 61.11,201.58 L 43.45,190.83 L 40.0,178.17 L 57.65,147.46 L 61.11,137.1 L 57.65,129.04 L 64.18,107.93 L 58.42,88.74 L 50.75,84.14 L 53.82,68.78 L 122.52,68.4 Z" fill="none" stroke="#000000" stroke-width="2" stroke-linejoin="round" opacity="0.3"/>
</svg>