<?xml version="1.0" encoding="UTF-8"?>
<svg xmlns="http://www.w3.org/2000/svg" viewBox="0 0 800 800" width="800" height="800">
  <path d="M 242.31,121.96 L 288.99,121.44 L 301.96,148.93 L 431.64,155.16 L 553.03,162.42 L 557.69,182.65 L 569.11,182.13 L 573.26,162.94 L 569.63,145.3 L 578.44,138.04 L 600.23,145.82 L 626.17,149.45 L 631.87,190.43 L 643.8,236.6 L 671.3,297.29 L 713.31,362.13 L 707.09,366.8 L 709.16,396.89 L 726.8,430.61 L 754.29,498.56 L 760.0,519.83 L 759.48,541.61 L 749.11,619.94 L 740.29,621.5 L 730.95,645.88 L 734.06,653.66 L 715.91,671.3 L 708.65,667.15 L 691.01,674.41 L 660.92,678.56 L 652.1,668.7 L 656.25,654.18 L 634.99,612.16 L 618.39,604.38 L 603.86,610.09 L 592.45,586.74 L 589.34,567.55 L 569.63,546.28 L 564.96,532.28 L 568.07,512.05 L 557.18,508.41 L 559.77,520.35 L 549.91,523.46 L 519.83,472.1 L 507.9,459.14 L 536.43,421.27 L 517.75,423.34 L 505.3,435.27 L 492.85,416.6 L 509.45,364.73 L 512.56,321.67 L 501.15,311.3 L 497.52,297.29 L 479.37,294.18 L 458.1,271.35 L 440.98,262.02 L 439.94,248.01 L 428.01,242.82 L 418.16,227.26 L 381.84,206.51 L 350.2,211.18 L 351.76,225.71 L 341.38,223.11 L 301.96,240.75 L 259.94,244.9 L 260.98,234.52 L 251.12,222.07 L 201.84,194.06 L 166.57,182.13 L 134.93,179.02 L 108.47,181.1 L 50.89,189.91 L 64.9,175.91 L 57.64,168.13 L 61.27,152.56 L 40.0,134.41 L 43.11,121.96 L 242.31,121.96 Z" fill="none" stroke="#000000" stroke-width="2" stroke-linejoin="round" opacity="0.3"/>
</svg>