<?xml version="1.0" encoding="UTF-8"?>
<svg xmlns="http://www.w3.org/2000/svg" viewBox="0 0 800 800" width="800" height="800">
  <path d="M 639.87,638.28 L 604.07,625.55 L 598.5,612.82 L 603.27,580.2 L 577.81,524.51 L 597.7,506.21 L 612.02,480.75 L 601.68,464.04 L 604.86,446.54 L 645.44,467.23 L 690.78,482.34 L 718.63,504.62 L 718.63,523.71 L 760.0,554.74 L 734.54,580.2 L 689.19,592.13 L 657.37,611.23 L 639.87,638.28 Z M 501.44,335.96 L 518.14,355.85 L 539.62,347.09 L 586.56,370.17 L 579.4,390.85 L 531.67,401.19 L 522.12,397.22 L 519.73,371.76 L 495.07,366.19 L 485.52,351.87 L 501.44,335.96 Z M 444.15,309.7 L 429.83,324.82 L 396.42,324.82 L 406.76,308.11 L 444.15,309.7 Z M 303.34,238.9 L 319.25,273.1 L 311.29,292.99 L 280.27,296.18 L 259.58,255.6 L 277.88,254.81 L 303.34,238.9 Z M 82.96,161.72 L 99.67,163.31 L 107.62,178.43 L 102.85,199.91 L 86.14,213.44 L 40.0,196.73 L 45.57,172.86 L 82.96,161.72 Z" fill="none" stroke="#000000" stroke-width="2" stroke-linejoin="round" opacity="0.3"/>
</svg>