<?xml version="1.0" encoding="UTF-8"?>
<svg xmlns="http://www.w3.org/2000/svg" viewBox="0 0 800 800" width="800" height="800">
  <path d="M 204.38,40.0 L 204.38,145.27 L 237.59,173.98 L 238.15,202.13 L 257.86,214.51 L 278.69,219.01 L 280.94,226.33 L 319.22,253.92 L 323.72,265.18 L 350.74,275.87 L 351.87,282.63 L 381.7,282.06 L 367.07,320.34 L 364.25,344.55 L 374.95,360.31 L 356.37,371.57 L 363.69,382.27 L 358.62,393.53 L 380.58,404.22 L 405.91,390.15 L 416.04,378.89 L 434.62,389.02 L 431.81,397.47 L 441.94,417.17 L 458.83,438.0 L 471.21,445.32 L 470.65,465.02 L 482.47,473.46 L 503.86,474.59 L 517.37,507.8 L 529.19,513.43 L 539.89,503.86 L 571.98,504.43 L 595.62,495.42 L 609.7,500.48 L 633.9,495.98 L 638.97,501.61 L 659.8,497.67 L 683.44,476.28 L 699.77,494.29 L 718.34,504.99 L 718.34,759.44 L 603.5,760.0 L 410.41,760.0 L 103.61,759.44 L 103.61,571.42 L 117.12,537.64 L 108.68,529.19 L 88.98,527.51 L 81.66,513.43 L 102.49,476.84 L 113.18,473.46 L 123.88,458.26 L 122.19,448.69 L 134.01,436.31 L 140.2,418.3 L 161.59,387.9 L 153.15,373.82 L 128.94,366.51 L 114.87,349.05 L 114.31,331.04 L 100.8,313.03 L 102.49,304.58 L 101.92,167.22 L 103.05,40.0 L 204.38,40.0 Z" fill="none" stroke="#000000" stroke-width="2" stroke-linejoin="round" opacity="0.3"/>
</svg>