<?xml version="1.0" encoding="UTF-8"?>
<svg xmlns="http://www.w3.org/2000/svg" viewBox="0 0 800 800" width="800" height="800">
  <path d="M 251.58,40.0 L 492.77,42.14 L 621.21,42.14 L 616.93,67.12 L 636.91,96.37 L 657.6,144.18 L 656.89,451.73 L 642.62,475.28 L 659.03,503.11 L 661.17,525.95 L 644.76,544.5 L 640.48,561.63 L 616.93,589.45 L 601.94,591.6 L 605.51,608.01 L 595.52,614.43 L 587.67,645.11 L 591.95,653.68 L 574.83,672.23 L 586.96,695.06 L 533.44,707.2 L 528.44,720.75 L 540.57,737.88 L 524.16,748.58 L 476.35,728.6 L 461.37,730.03 L 441.39,752.86 L 447.81,760.0 L 427.12,758.57 L 397.86,721.47 L 408.56,712.9 L 397.86,687.93 L 397.86,667.95 L 355.76,640.12 L 341.49,642.97 L 327.22,625.85 L 288.68,599.44 L 289.4,578.75 L 311.52,545.21 L 307.95,533.08 L 320.79,517.38 L 302.24,508.11 L 273.7,502.4 L 258.71,514.53 L 248.72,506.68 L 240.16,463.87 L 196.63,436.04 L 156.67,402.5 L 140.26,362.54 L 138.83,336.13 L 150.25,317.58 L 152.39,294.03 L 188.78,279.76 L 192.35,259.78 L 209.47,246.94 L 211.62,224.1 L 190.21,205.55 L 198.77,182.72 L 249.44,176.29 L 290.11,159.88 L 294.39,139.9 L 311.52,131.34 L 316.51,106.36 L 312.94,89.95 L 283.69,77.11 L 280.12,63.55 L 251.58,40.0 Z" fill="none" stroke="#000000" stroke-width="2" stroke-linejoin="round" opacity="0.3"/>
</svg>