<?xml version="1.0" encoding="UTF-8"?>
<svg xmlns="http://www.w3.org/2000/svg" viewBox="0 0 800 800" width="800" height="800">
  <path d="M 623.9,226.84 L 640.91,226.84 L 642.13,243.24 L 658.53,254.18 L 645.16,267.54 L 648.81,292.46 L 657.32,310.08 L 696.81,322.84 L 704.71,336.81 L 729.01,356.86 L 732.05,368.41 L 756.96,379.34 L 760.0,393.32 L 755.75,414.58 L 741.16,421.87 L 737.52,438.89 L 702.89,452.86 L 659.75,458.33 L 652.46,477.77 L 670.68,493.57 L 668.86,513.01 L 654.28,523.95 L 651.24,540.96 L 620.25,553.11 L 618.43,573.16 L 606.28,569.52 L 583.8,547.04 L 572.25,547.65 L 414.28,550.68 L 261.77,551.9 L 136.0,550.08 L 123.24,535.49 L 129.32,506.94 L 118.38,482.03 L 118.99,454.08 L 99.54,444.35 L 96.51,429.16 L 103.19,415.8 L 95.9,396.35 L 80.71,389.06 L 60.66,339.24 L 40.0,314.94 L 49.72,298.53 L 53.37,276.66 L 61.87,268.76 L 47.9,257.82 L 51.54,238.38 L 45.47,229.27 L 60.05,226.84 L 623.9,226.84 Z" fill="none" stroke="#000000" stroke-width="2" stroke-linejoin="round" opacity="0.3"/>
</svg>