<?xml version="1.0" encoding="UTF-8"?>
<svg xmlns="http://www.w3.org/2000/svg" viewBox="0 0 800 800" width="800" height="800">
  <path d="M 573.12,306.29 L 594.82,319.53 L 610.18,312.65 L 646.71,320.06 L 657.29,310.53 L 671.06,307.35 L 675.29,323.76 L 686.41,326.41 L 699.65,339.65 L 697.0,368.76 L 708.65,387.29 L 724.0,401.59 L 728.76,412.71 L 747.29,423.82 L 760.0,425.41 L 722.94,451.35 L 687.47,465.65 L 687.47,473.06 L 673.18,479.41 L 672.12,487.88 L 653.59,491.59 L 647.24,502.18 L 595.35,515.94 L 593.76,517.53 L 511.18,516.47 L 439.18,513.29 L 420.12,514.35 L 313.18,510.65 L 191.41,512.76 L 170.24,508.53 L 171.82,526.0 L 51.65,524.94 L 40.0,526.0 L 45.29,513.82 L 59.59,518.06 L 67.53,478.88 L 62.76,473.59 L 77.59,456.65 L 88.71,455.59 L 124.18,470.41 L 136.35,462.47 L 127.35,449.76 L 131.06,439.71 L 170.76,430.71 L 161.76,413.76 L 174.47,400.0 L 183.47,391.0 L 207.82,389.94 L 215.76,383.06 L 224.24,389.94 L 236.94,386.76 L 261.29,401.06 L 269.24,391.0 L 293.59,381.47 L 299.94,391.0 L 321.65,387.29 L 320.06,376.71 L 341.24,364.53 L 344.94,375.65 L 366.65,384.65 L 377.76,378.29 L 386.76,353.94 L 403.71,349.18 L 410.06,337.0 L 426.47,329.06 L 425.41,310.0 L 450.29,314.24 L 468.29,305.24 L 485.24,304.71 L 477.29,278.24 L 484.71,274.0 L 521.76,274.0 L 541.35,294.12 L 542.94,302.59 L 573.12,306.29 Z" fill="none" stroke="#000000" stroke-width="2" stroke-linejoin="round" opacity="0.3"/>
</svg>