<?xml version="1.0" encoding="UTF-8"?>
<svg xmlns="http://www.w3.org/2000/svg" viewBox="0 0 800 800" width="800" height="800">
  <path d="M 101.83,113.57 L 450.87,115.91 L 464.17,132.35 L 454.0,138.61 L 452.43,167.57 L 473.57,185.57 L 476.7,227.83 L 459.48,260.7 L 425.83,281.04 L 417.22,313.13 L 403.13,310.0 L 400.78,362.43 L 383.57,364.0 L 393.74,392.17 L 383.57,402.35 L 653.57,402.35 L 639.48,449.3 L 662.96,480.61 L 668.43,504.09 L 685.65,518.96 L 643.39,538.52 L 640.26,552.61 L 674.7,562.0 L 689.57,539.3 L 719.3,562.0 L 716.96,580.0 L 699.74,587.83 L 667.65,580.78 L 671.57,594.09 L 660.61,614.43 L 688.0,632.43 L 731.83,637.91 L 747.48,659.04 L 760.0,662.17 L 737.3,686.43 L 712.26,681.74 L 691.13,656.7 L 638.7,643.39 L 638.7,619.13 L 612.87,626.96 L 614.43,647.3 L 602.7,666.09 L 583.91,669.22 L 569.83,648.09 L 536.96,647.3 L 525.22,669.22 L 503.3,675.48 L 479.83,662.17 L 461.04,660.61 L 443.04,625.39 L 410.96,609.74 L 398.43,612.09 L 385.91,582.35 L 348.35,586.26 L 347.57,568.26 L 310.78,585.48 L 315.48,598.78 L 287.3,611.3 L 243.48,605.04 L 192.61,585.48 L 156.61,576.87 L 79.13,583.91 L 68.96,589.39 L 56.43,575.3 L 90.09,524.43 L 79.13,497.04 L 89.3,482.17 L 84.61,462.61 L 98.7,447.74 L 113.57,410.96 L 111.22,380.43 L 72.09,322.52 L 71.3,291.22 L 40.0,259.91 L 40.0,113.57 L 101.83,113.57 Z" fill="none" stroke="#000000" stroke-width="2" stroke-linejoin="round" opacity="0.3"/>
</svg>