<?xml version="1.0" encoding="UTF-8"?>
<svg xmlns="http://www.w3.org/2000/svg" viewBox="0 0 800 800" width="800" height="800">
  <path d="M 126.42,760.0 L 106.72,748.36 L 109.4,732.24 L 83.43,713.43 L 72.69,498.51 L 64.63,392.84 L 135.37,370.45 L 123.73,358.81 L 150.6,333.73 L 178.36,322.09 L 172.99,312.24 L 198.96,297.01 L 190.9,268.36 L 207.01,225.37 L 232.09,211.04 L 241.94,165.37 L 368.21,40.0 L 397.76,45.37 L 399.55,75.82 L 421.04,86.57 L 473.88,68.66 L 507.01,68.66 L 530.3,57.01 L 575.97,82.99 L 602.84,104.48 L 604.63,288.06 L 601.04,331.94 L 657.46,343.58 L 649.4,362.39 L 663.73,380.3 L 652.09,396.42 L 675.37,421.49 L 705.82,416.12 L 735.37,474.33 L 701.34,500.3 L 681.64,490.45 L 665.52,508.36 L 642.24,503.88 L 639.55,519.1 L 609.1,517.31 L 560.75,552.24 L 549.1,528.06 L 532.09,526.27 L 540.15,552.24 L 502.54,564.78 L 493.58,544.18 L 475.67,554.93 L 433.58,554.93 L 432.69,530.75 L 407.61,536.12 L 412.09,553.13 L 388.81,588.96 L 393.28,598.81 L 362.84,618.51 L 332.39,611.34 L 314.48,631.94 L 289.4,634.63 L 268.81,651.64 L 243.73,648.06 L 236.57,630.15 L 199.85,658.81 L 209.7,676.72 L 182.84,682.99 L 181.04,698.21 L 150.6,717.01 L 126.42,760.0 Z" fill="none" stroke="#000000" stroke-width="2" stroke-linejoin="round" opacity="0.3"/>
</svg>