<?xml version="1.0" encoding="UTF-8"?>
<svg xmlns="http://www.w3.org/2000/svg" viewBox="0 0 800 800" width="800" height="800">
  <path d="M 606.41,539.83 L 602.86,539.83 L 598.42,539.83 L 606.41,539.83 Z M 41.78,253.07 L 640.15,253.07 L 655.24,457.26 L 760.0,459.04 L 728.04,527.4 L 703.18,530.06 L 658.79,539.83 L 624.17,546.93 L 625.06,520.3 L 611.74,509.64 L 630.38,498.1 L 605.52,471.47 L 597.53,483.01 L 563.8,480.35 L 552.26,451.05 L 562.91,451.05 L 563.8,412.87 L 574.45,397.78 L 560.25,346.29 L 578.0,316.1 L 605.52,310.78 L 609.96,279.7 L 589.54,283.26 L 588.66,299.24 L 546.04,319.65 L 533.61,338.3 L 530.95,385.35 L 514.97,407.55 L 522.07,444.83 L 543.38,470.58 L 540.72,490.11 L 554.03,509.64 L 546.93,522.96 L 509.64,497.21 L 456.37,484.78 L 440.39,459.93 L 410.21,474.13 L 398.67,454.6 L 422.64,429.74 L 436.84,404.0 L 458.15,387.13 L 437.73,371.15 L 424.41,380.91 L 403.11,365.82 L 369.37,357.83 L 369.37,333.86 L 351.62,320.54 L 326.76,317.88 L 308.11,272.6 L 280.59,272.6 L 253.07,257.51 L 237.98,269.94 L 211.34,269.05 L 205.13,286.81 L 157.19,275.27 L 125.23,299.24 L 103.92,293.91 L 71.96,321.43 L 40.0,336.52 L 41.78,253.07 Z" fill="none" stroke="#000000" stroke-width="2" stroke-linejoin="round" opacity="0.3"/>
</svg>