<?xml version="1.0" encoding="UTF-8"?>
<svg xmlns="http://www.w3.org/2000/svg" viewBox="0 0 800 800" width="800" height="800">
  <path d="M 562.33,259.75 L 582.21,263.07 L 589.94,298.4 L 581.1,327.12 L 549.08,353.62 L 547.98,384.54 L 592.15,388.96 L 618.65,420.98 L 614.23,446.38 L 636.32,453.01 L 638.53,476.2 L 694.85,496.07 L 760.0,477.3 L 745.64,504.91 L 649.57,529.2 L 614.23,530.31 L 593.25,511.53 L 560.12,517.06 L 559.02,531.41 L 521.47,540.25 L 506.01,503.8 L 500.49,497.18 L 479.51,482.82 L 468.47,435.34 L 438.65,435.34 L 384.54,437.55 L 384.54,434.23 L 131.66,430.92 L 44.42,428.71 L 40.0,420.98 L 88.59,288.47 L 252.02,291.78 L 486.14,298.4 L 508.22,279.63 L 562.33,259.75 Z" fill="none" stroke="#000000" stroke-width="2" stroke-linejoin="round" opacity="0.3"/>
</svg>