<?xml version="1.0" encoding="UTF-8"?>
<svg xmlns="http://www.w3.org/2000/svg" viewBox="0 0 800 800" width="800" height="800">
  <path d="M 666.37,688.05 L 544.64,691.5 L 544.64,685.59 L 438.19,685.59 L 363.29,685.59 L 381.52,673.76 L 393.84,653.55 L 405.17,641.23 L 413.55,623.98 L 418.48,599.34 L 416.51,572.73 L 389.9,520.49 L 398.28,500.78 L 392.36,477.13 L 413.06,452.98 L 417.49,432.77 L 414.54,421.93 L 429.32,417.49 L 431.29,402.71 L 454.46,398.77 L 472.2,382.51 L 470.72,415.03 L 480.08,416.51 L 491.91,400.25 L 492.4,372.65 L 499.79,365.75 L 524.44,361.31 L 516.55,342.09 L 532.81,325.83 L 553.02,324.85 L 575.69,335.2 L 597.86,336.67 L 608.71,349.49 L 625.46,350.47 L 653.55,362.3 L 663.41,361.81 L 678.69,381.03 L 666.37,391.38 L 678.19,404.68 L 682.63,419.96 L 677.21,453.47 L 658.97,461.85 L 654.54,479.1 L 632.85,485.01 L 621.03,505.71 L 625.46,513.59 L 647.15,520.99 L 663.9,509.65 L 683.61,486.49 L 714.66,477.62 L 729.94,484.52 L 739.3,497.33 L 748.67,534.78 L 750.14,553.51 L 760.0,576.18 L 750.64,608.71 L 735.85,613.63 L 735.36,601.81 L 725.5,605.26 L 714.17,632.36 L 695.93,642.71 L 690.51,663.41 L 667.84,680.66 L 666.37,688.05 Z M 481.56,328.3 L 483.04,339.14 L 471.21,341.11 L 476.14,325.83 L 481.56,328.3 Z M 294.29,385.46 L 280.49,376.1 L 288.87,363.29 L 267.68,361.31 L 276.06,348.99 L 277.04,333.22 L 258.32,322.38 L 247.97,311.05 L 209.53,302.18 L 197.7,305.13 L 159.26,291.83 L 66.61,273.59 L 56.76,258.32 L 40.0,252.9 L 74.99,243.53 L 90.76,232.69 L 130.18,228.25 L 155.81,214.95 L 167.64,214.46 L 177.49,205.09 L 205.59,191.79 L 219.88,180.45 L 241.07,173.06 L 261.27,179.47 L 225.79,207.06 L 217.41,216.43 L 217.91,233.18 L 235.15,220.37 L 266.2,222.34 L 290.35,231.21 L 312.03,255.85 L 323.86,260.29 L 346.53,256.34 L 351.95,261.77 L 374.62,264.72 L 422.92,244.02 L 448.05,242.05 L 481.56,243.04 L 504.23,236.14 L 521.48,235.65 L 524.93,260.78 L 542.67,264.23 L 560.41,260.29 L 567.8,266.2 L 579.63,258.81 L 605.75,256.34 L 606.24,287.89 L 618.07,301.19 L 635.81,304.64 L 637.78,295.77 L 655.03,295.77 L 664.39,305.13 L 656.51,312.03 L 607.23,306.12 L 583.57,310.06 L 557.95,299.22 L 550.55,309.08 L 554.0,317.45 L 542.67,315.48 L 525.91,303.16 L 496.84,295.77 L 482.05,295.28 L 467.76,307.1 L 444.11,310.06 L 418.48,307.6 L 408.13,312.53 L 405.67,322.38 L 377.58,330.76 L 379.06,318.93 L 366.74,316.47 L 361.81,328.79 L 341.11,329.28 L 331.75,334.7 L 317.95,355.89 L 292.32,383.0 L 294.29,385.46 Z M 184.89,126.24 L 162.22,137.58 L 150.39,139.06 L 151.38,129.69 L 208.05,108.5 L 197.21,123.29 L 184.89,126.24 Z" fill="none" stroke="#000000" stroke-width="2" stroke-linejoin="round" opacity="0.3"/>
</svg>