<?xml version="1.0" encoding="UTF-8"?>
<svg xmlns="http://www.w3.org/2000/svg" viewBox="0 0 800 800" width="800" height="800">
  <path d="M 533.12,375.14 L 525.87,370.99 L 506.71,378.76 L 506.71,434.71 L 501.01,440.4 L 474.07,448.17 L 452.32,468.37 L 450.76,481.84 L 461.64,482.88 L 473.55,494.79 L 462.68,509.29 L 464.75,525.35 L 458.01,560.06 L 482.88,577.15 L 502.56,578.7 L 512.4,589.06 L 541.41,599.42 L 546.07,611.86 L 573.01,627.91 L 588.03,631.54 L 606.16,652.26 L 603.57,667.28 L 608.75,678.16 L 594.24,678.16 L 113.55,678.16 L 113.55,508.26 L 91.8,497.38 L 75.22,479.25 L 101.12,459.05 L 103.19,448.17 L 99.57,410.36 L 88.17,400.52 L 80.4,379.8 L 81.96,354.42 L 78.33,350.27 L 75.22,289.67 L 56.58,257.55 L 49.32,239.42 L 46.22,201.09 L 52.43,188.14 L 40.0,158.1 L 236.32,158.1 L 236.32,121.84 L 254.96,122.88 L 267.4,130.13 L 279.83,179.34 L 289.67,185.04 L 320.75,186.59 L 324.37,191.25 L 360.63,193.32 L 364.78,203.68 L 395.86,201.09 L 395.86,196.95 L 420.2,191.77 L 441.44,193.84 L 465.78,201.61 L 472.52,211.45 L 486.5,210.42 L 499.45,231.65 L 505.67,222.85 L 529.5,218.71 L 533.64,227.51 L 561.61,233.73 L 561.61,242.01 L 575.6,248.75 L 604.09,245.12 L 621.18,235.8 L 644.49,230.1 L 652.78,244.09 L 668.83,240.98 L 688.0,244.09 L 710.27,242.01 L 735.65,253.93 L 760.0,251.86 L 757.93,257.04 L 726.33,268.95 L 682.3,278.27 L 653.81,288.12 L 612.89,312.46 L 595.28,327.48 L 568.35,344.58 L 525.87,367.37 L 533.12,375.14 Z" fill="none" stroke="#000000" stroke-width="2" stroke-linejoin="round" opacity="0.3"/>
</svg>