<?xml version="1.0" encoding="UTF-8"?>
<svg xmlns="http://www.w3.org/2000/svg" viewBox="0 0 800 800" width="800" height="800">
  <path d="M 466.89,149.99 L 478.18,149.4 L 500.18,171.4 L 512.07,174.96 L 502.56,190.42 L 503.75,212.42 L 517.42,245.71 L 550.72,273.66 L 586.99,296.85 L 594.12,332.52 L 602.44,339.06 L 614.93,328.95 L 638.71,333.71 L 654.17,341.44 L 643.47,354.52 L 646.44,364.62 L 628.01,392.57 L 627.42,409.81 L 659.52,431.81 L 671.41,446.08 L 683.3,443.7 L 718.38,466.89 L 718.38,483.53 L 727.3,504.34 L 718.38,511.48 L 742.76,542.39 L 760.0,543.58 L 751.08,587.58 L 735.03,582.82 L 729.08,596.5 L 721.95,596.5 L 716.0,596.5 L 716.6,623.25 L 695.19,650.6 L 625.04,650.6 L 642.28,630.39 L 658.93,617.31 L 649.41,596.5 L 180.31,595.9 L 164.86,595.9 L 164.86,541.8 L 165.45,307.55 L 142.26,302.2 L 125.02,276.63 L 111.35,265.93 L 135.72,234.42 L 100.64,226.09 L 89.94,215.99 L 63.19,187.45 L 40.0,152.37 L 163.07,154.15 L 312.3,152.96 L 466.89,149.99 Z" fill="none" stroke="#000000" stroke-width="2" stroke-linejoin="round" opacity="0.3"/>
</svg>