<?xml version="1.0" encoding="UTF-8"?>
<svg xmlns="http://www.w3.org/2000/svg" viewBox="0 0 800 800" width="800" height="800">
  <path d="M 759.67,261.88 L 760.0,330.2 L 759.67,445.16 L 760.0,501.99 L 759.01,501.99 L 647.66,501.66 L 457.81,501.66 L 339.56,501.66 L 339.89,533.19 L 329.05,526.95 L 319.53,516.44 L 305.73,528.92 L 293.58,531.22 L 290.62,527.94 L 276.5,530.57 L 268.28,527.61 L 254.49,532.86 L 235.77,532.54 L 229.53,538.12 L 222.63,534.84 L 214.74,515.46 L 202.26,514.8 L 195.36,509.87 L 195.69,498.38 L 188.47,494.11 L 178.61,481.95 L 172.7,470.46 L 174.34,465.53 L 163.5,459.62 L 157.59,466.19 L 142.81,474.4 L 130.0,468.16 L 132.96,461.59 L 128.69,455.35 L 139.53,448.78 L 133.28,439.58 L 134.93,425.46 L 143.47,403.12 L 126.06,403.45 L 125.4,399.51 L 109.64,393.27 L 107.01,386.7 L 84.67,370.6 L 83.36,366.33 L 71.2,363.7 L 59.71,356.48 L 59.38,340.05 L 40.0,323.3 L 40.0,261.88 L 312.63,262.21 L 435.47,261.88 L 759.67,261.88 Z" fill="none" stroke="#000000" stroke-width="2" stroke-linejoin="round" opacity="0.3"/>
</svg>