<?xml version="1.0" encoding="UTF-8"?>
<svg xmlns="http://www.w3.org/2000/svg" viewBox="0 0 800 800" width="800" height="800">
  <path d="M 99.96,276.47 L 239.72,276.92 L 497.16,276.92 L 499.86,280.98 L 542.24,295.85 L 552.16,287.74 L 563.88,289.54 L 602.65,289.54 L 645.94,304.87 L 651.35,316.59 L 666.22,318.85 L 681.1,355.82 L 692.37,361.23 L 697.78,375.65 L 692.82,385.57 L 695.08,396.84 L 709.51,404.06 L 709.05,424.8 L 717.17,443.28 L 712.66,464.47 L 722.13,475.29 L 739.71,501.89 L 760.0,523.53 L 216.73,523.53 L 204.56,523.53 L 204.56,441.03 L 40.0,441.03 L 40.0,276.47 L 99.96,276.47 Z" fill="none" stroke="#000000" stroke-width="2" stroke-linejoin="round" opacity="0.3"/>
</svg>