<?xml version="1.0" encoding="UTF-8"?>
<svg xmlns="http://www.w3.org/2000/svg" viewBox="0 0 800 800" width="800" height="800">
  <path d="M 550.83,106.67 L 652.5,150.0 L 615.83,238.33 L 565.83,258.33 L 539.17,305.0 L 622.5,328.33 L 629.17,363.33 L 592.5,526.67 L 497.5,648.33 L 435.83,683.33 L 380.83,760.0 L 352.5,710.0 L 264.17,685.0 L 155.83,618.33 L 149.17,573.33 L 147.5,566.67 L 164.17,550.0 L 192.5,513.33 L 274.17,488.33 L 279.17,465.0 L 372.5,415.0 L 387.5,388.33 L 300.83,326.67 L 297.5,288.33 L 259.17,278.33 L 255.83,243.33 L 302.5,190.0 L 277.5,158.33 L 354.17,95.0 L 370.83,61.67 L 410.83,40.0 L 550.83,106.67 Z" fill="none" stroke="#000000" stroke-width="2" stroke-linejoin="round" opacity="0.3"/>
</svg>