<?xml version="1.0" encoding="UTF-8"?>
<svg xmlns="http://www.w3.org/2000/svg" viewBox="0 0 800 800" width="800" height="800">
  <path d="M 319.57,287.49 L 376.86,288.86 L 442.39,289.32 L 747.17,288.4 L 756.79,321.86 L 733.42,318.65 L 730.21,322.78 L 701.79,327.82 L 697.67,332.4 L 678.88,333.77 L 679.8,339.73 L 702.71,335.61 L 705.92,339.27 L 731.13,335.15 L 739.38,342.94 L 754.5,339.73 L 760.0,359.9 L 754.96,369.52 L 744.88,370.44 L 723.79,391.06 L 695.84,391.98 L 691.25,406.19 L 703.17,420.39 L 712.79,423.14 L 694.92,446.52 L 679.8,443.77 L 653.21,446.06 L 634.88,451.1 L 606.01,467.14 L 583.09,488.22 L 571.18,514.81 L 553.76,508.85 L 523.51,514.35 L 428.64,434.6 L 334.69,433.23 L 336.07,423.6 L 323.23,409.4 L 314.53,414.44 L 314.07,405.73 L 210.95,401.6 L 188.03,404.81 L 170.16,412.6 L 141.29,418.1 L 98.66,419.48 L 40.0,419.02 L 42.29,399.31 L 58.79,397.48 L 65.21,383.73 L 85.83,371.36 L 108.75,370.9 L 129.37,358.06 L 150.91,353.48 L 169.24,334.69 L 180.7,329.19 L 182.99,337.44 L 215.99,321.4 L 231.11,324.61 L 241.65,309.03 L 257.24,304.9 L 260.9,285.19 L 319.57,287.49 Z" fill="none" stroke="#000000" stroke-width="2" stroke-linejoin="round" opacity="0.3"/>
</svg>