<?xml version="1.0" encoding="UTF-8"?>
<svg xmlns="http://www.w3.org/2000/svg" viewBox="0 0 800 800" width="800" height="800">
  <path d="M 760.0,102.37 L 760.0,327.08 L 735.24,336.25 L 747.16,354.6 L 746.24,380.28 L 723.31,420.64 L 707.72,482.09 L 642.6,536.2 L 621.5,543.54 L 603.16,532.53 L 583.9,556.38 L 564.64,555.46 L 543.54,587.57 L 548.13,606.83 L 530.7,622.42 L 505.94,596.74 L 474.75,637.1 L 483.01,662.78 L 462.83,671.95 L 456.41,693.96 L 412.38,697.63 L 389.45,674.7 L 370.19,670.11 L 362.85,641.68 L 339.01,647.18 L 320.66,663.69 L 257.38,650.85 L 230.78,662.78 L 193.17,639.85 L 140.89,633.43 L 138.14,618.75 L 104.2,583.9 L 40.0,583.9 L 42.75,350.01 L 41.83,150.06 L 268.38,143.64 L 333.5,166.57 L 355.52,180.33 L 372.03,167.49 L 408.71,194.09 L 431.64,202.34 L 509.61,180.33 L 555.46,184.92 L 604.99,153.73 L 677.45,123.46 L 760.0,102.37 L 760.0,102.37 Z" fill="none" stroke="#000000" stroke-width="2" stroke-linejoin="round" opacity="0.3"/>
</svg>