<?xml version="1.0" encoding="UTF-8"?>
<svg xmlns="http://www.w3.org/2000/svg" viewBox="0 0 800 800" width="800" height="800">
  <path d="M 159.43,217.68 L 167.72,216.71 L 186.73,225.97 L 195.02,236.7 L 199.4,263.51 L 245.23,273.26 L 284.22,259.12 L 308.6,257.66 L 336.87,262.53 L 339.8,268.38 L 388.54,255.71 L 400.24,260.09 L 426.57,257.66 L 448.5,248.88 L 487.5,241.08 L 523.09,239.13 L 535.27,233.28 L 719.54,233.77 L 731.73,248.88 L 752.69,255.22 L 760.0,267.41 L 741.48,293.73 L 736.11,309.33 L 725.88,320.05 L 727.34,328.34 L 718.08,341.5 L 708.82,344.43 L 690.78,376.11 L 697.12,388.3 L 714.18,389.76 L 721.49,397.08 L 709.79,426.32 L 709.79,589.14 L 561.11,590.12 L 445.09,589.63 L 352.96,589.63 L 233.53,588.17 L 157.48,588.65 L 70.22,589.14 L 57.55,578.9 L 50.72,550.14 L 52.19,530.16 L 40.0,514.56 L 48.77,499.93 L 55.11,476.05 L 68.27,450.7 L 74.12,428.27 L 83.87,352.71 L 82.41,342.48 L 91.18,309.33 L 94.6,263.51 L 89.72,238.16 L 94.11,223.05 L 129.7,209.88 L 145.29,220.12 L 159.43,217.68 Z" fill="none" stroke="#000000" stroke-width="2" stroke-linejoin="round" opacity="0.3"/>
</svg>