<?xml version="1.0" encoding="UTF-8"?>
<svg xmlns="http://www.w3.org/2000/svg" viewBox="0 0 800 800" width="800" height="800">
  <path d="M 133.47,244.55 L 133.47,275.71 L 678.04,275.71 L 691.59,292.64 L 701.07,291.97 L 715.97,306.19 L 713.26,324.48 L 735.62,345.48 L 754.58,346.15 L 760.0,354.96 L 743.74,363.76 L 736.97,377.31 L 705.81,403.05 L 715.97,415.92 L 697.01,437.59 L 698.36,451.82 L 713.94,455.88 L 715.3,471.46 L 750.52,496.52 L 744.42,507.36 L 706.49,527.68 L 704.46,537.16 L 671.27,547.32 L 646.21,543.93 L 625.21,557.48 L 168.69,557.48 L 40.0,557.48 L 40.0,444.36 L 40.0,278.42 L 40.0,278.42 L 63.03,271.65 L 133.47,242.52 L 133.47,244.55 Z" fill="none" stroke="#000000" stroke-width="2" stroke-linejoin="round" opacity="0.3"/>
</svg>