<?xml version="1.0" encoding="UTF-8"?>
<svg xmlns="http://www.w3.org/2000/svg" viewBox="0 0 800 800" width="800" height="800">
  <path d="M 126.3,182.19 L 158.36,168.22 L 199.45,162.47 L 384.38,169.86 L 385.21,185.48 L 400.82,176.44 L 423.84,201.92 L 421.37,219.18 L 589.86,221.64 L 760.0,364.66 L 733.7,372.05 L 700.82,396.71 L 668.77,435.34 L 663.01,466.58 L 637.53,491.23 L 603.84,491.23 L 596.44,509.31 L 561.1,529.04 L 541.37,550.41 L 510.14,559.45 L 476.44,582.47 L 473.15,593.15 L 441.92,605.48 L 408.22,637.53 L 373.7,624.38 L 372.88,598.9 L 349.04,558.63 L 328.49,547.95 L 326.85,515.89 L 316.99,491.23 L 276.71,468.22 L 250.41,440.27 L 252.05,423.01 L 211.78,397.53 L 192.05,369.59 L 157.53,350.68 L 133.7,319.45 L 128.77,302.19 L 105.75,269.32 L 90.14,271.78 L 40.0,239.73 L 42.47,224.11 L 74.52,192.05 L 126.3,182.19 Z" fill="none" stroke="#000000" stroke-width="2" stroke-linejoin="round" opacity="0.3"/>
</svg>