<?xml version="1.0" encoding="UTF-8"?>
<svg xmlns="http://www.w3.org/2000/svg" viewBox="0 0 800 800" width="800" height="800">
  <path d="M 41.03,236.81 L 748.1,237.84 L 746.03,248.71 L 720.17,268.88 L 736.72,286.98 L 758.45,297.84 L 758.45,467.5 L 746.03,469.57 L 751.21,477.33 L 748.1,493.88 L 760.0,503.19 L 752.76,509.91 L 749.66,528.53 L 741.38,542.5 L 758.97,563.19 L 741.9,560.6 L 735.69,547.16 L 686.03,529.57 L 641.55,529.57 L 628.1,527.5 L 616.72,536.81 L 568.1,519.74 L 565.0,515.09 L 269.66,515.09 L 109.31,514.57 L 40.52,514.57 L 40.0,326.29 L 41.55,326.29 L 41.03,236.81 Z" fill="none" stroke="#000000" stroke-width="2" stroke-linejoin="round" opacity="0.3"/>
</svg>