<?xml version="1.0" encoding="UTF-8"?>
<svg xmlns="http://www.w3.org/2000/svg" viewBox="0 0 800 800" width="800" height="800">
  <path d="M 228.22,344.49 L 226.85,329.42 L 245.13,333.07 L 350.2,331.24 L 442.49,334.44 L 458.93,333.53 L 521.07,336.27 L 592.34,337.18 L 593.71,335.81 L 760.0,336.73 L 756.35,356.37 L 740.81,360.48 L 730.3,376.02 L 715.23,372.82 L 682.34,388.81 L 680.05,380.58 L 668.63,386.07 L 650.36,404.8 L 628.88,409.37 L 608.32,422.16 L 585.48,422.61 L 564.92,434.95 L 558.53,448.65 L 542.08,450.48 L 539.8,470.13 L 432.44,470.58 L 286.24,469.21 L 215.89,469.67 L 193.5,469.67 L 40.0,469.67 L 48.22,467.39 L 56.45,452.77 L 55.08,432.66 L 70.61,418.96 L 73.35,406.17 L 85.69,401.6 L 88.43,386.07 L 104.87,365.05 L 104.42,344.49 L 108.98,344.49 L 114.47,344.49 L 124.52,343.58 L 228.22,344.49 Z" fill="none" stroke="#000000" stroke-width="2" stroke-linejoin="round" opacity="0.3"/>
</svg>