<?xml version="1.0" encoding="UTF-8"?>
<svg xmlns="http://www.w3.org/2000/svg" viewBox="0 0 800 800" width="800" height="800">
  <path d="M 305.15,108.69 L 404.66,108.69 L 404.66,215.11 L 408.87,214.51 L 421.19,225.04 L 427.81,223.23 L 445.24,223.83 L 449.15,234.35 L 460.28,233.75 L 472.3,238.56 L 483.12,237.96 L 487.63,242.47 L 494.55,237.36 L 505.07,239.77 L 509.58,245.78 L 517.39,246.68 L 521.6,254.2 L 531.22,246.98 L 544.15,251.19 L 548.96,255.7 L 555.27,253.59 L 559.78,260.51 L 573.61,248.18 L 577.52,254.5 L 589.54,254.5 L 600.97,258.41 L 605.18,263.22 L 616.0,254.8 L 627.72,252.09 L 633.14,255.1 L 646.06,249.69 L 649.07,252.69 L 663.2,252.99 L 666.81,248.18 L 680.94,253.59 L 686.35,259.91 L 707.39,265.92 L 713.1,271.03 L 723.92,268.33 L 731.74,270.73 L 731.74,299.89 L 731.74,356.11 L 743.77,368.13 L 744.07,380.16 L 759.1,402.41 L 760.0,414.13 L 754.29,428.26 L 748.88,433.97 L 750.68,441.49 L 746.77,447.2 L 750.98,457.72 L 738.05,477.26 L 742.86,482.67 L 733.85,482.97 L 705.29,490.49 L 695.06,486.28 L 693.26,477.26 L 686.05,483.57 L 680.94,482.07 L 678.23,489.89 L 683.94,493.19 L 684.84,503.42 L 674.62,514.24 L 658.09,527.77 L 625.02,542.2 L 621.71,539.79 L 611.79,543.4 L 611.49,540.09 L 597.96,542.5 L 591.65,535.58 L 587.74,537.09 L 602.17,551.22 L 591.65,555.72 L 581.73,553.02 L 580.23,562.94 L 567.9,573.16 L 555.27,592.1 L 547.16,611.94 L 541.14,610.44 L 539.64,617.65 L 545.95,615.85 L 542.95,630.28 L 538.74,630.88 L 538.44,639.0 L 543.55,643.51 L 545.05,660.04 L 551.06,665.75 L 552.57,676.28 L 557.38,685.59 L 540.54,691.31 L 533.63,684.09 L 520.7,681.39 L 503.57,681.99 L 488.84,672.97 L 477.71,672.07 L 469.29,664.85 L 457.87,662.45 L 450.05,655.53 L 444.94,639.0 L 435.02,629.08 L 436.23,620.66 L 431.72,611.64 L 433.22,603.82 L 426.3,595.11 L 420.59,594.2 L 411.27,586.39 L 408.27,576.47 L 400.15,567.45 L 388.43,559.93 L 382.71,543.4 L 377.3,538.89 L 370.09,525.66 L 367.68,514.84 L 360.77,507.02 L 349.04,500.11 L 346.34,495.3 L 335.52,491.09 L 327.1,479.06 L 303.05,476.36 L 288.62,476.96 L 276.29,472.75 L 273.59,478.46 L 260.36,480.27 L 250.44,491.69 L 244.43,510.03 L 241.12,510.33 L 233.6,521.15 L 224.58,521.45 L 211.06,513.04 L 177.09,499.51 L 170.47,492.29 L 157.24,485.38 L 147.92,469.75 L 147.32,455.62 L 138.0,444.19 L 135.9,434.27 L 129.89,427.96 L 108.54,418.64 L 97.12,406.01 L 87.8,401.5 L 77.88,390.68 L 64.05,384.97 L 54.43,370.54 L 46.31,367.53 L 40.0,361.22 L 41.5,355.81 L 236.31,355.81 L 236.31,300.79 L 237.51,245.18 L 237.81,108.69 L 239.92,108.69 L 305.15,108.69 Z" fill="none" stroke="#000000" stroke-width="2" stroke-linejoin="round" opacity="0.3"/>
</svg>