<?xml version="1.0" encoding="UTF-8"?>
<svg xmlns="http://www.w3.org/2000/svg" viewBox="0 0 800 800" width="800" height="800">
  <path d="M 746.9,399.06 L 760.0,397.66 L 748.77,412.16 L 737.08,417.31 L 730.06,436.96 L 712.28,468.77 L 697.78,475.32 L 693.1,463.63 L 700.58,437.43 L 723.51,404.21 L 746.9,399.06 Z M 694.04,404.21 L 695.91,404.21 L 691.7,404.21 L 694.04,404.21 Z M 494.74,275.09 L 539.18,303.63 L 548.54,287.25 L 561.64,288.65 L 570.99,295.67 L 570.99,308.3 L 588.77,312.51 L 600.0,320.47 L 606.55,332.63 L 599.06,346.2 L 588.77,349.94 L 582.22,362.11 L 585.96,370.99 L 608.89,368.19 L 613.1,381.75 L 643.04,387.37 L 651.46,398.13 L 675.32,409.82 L 664.56,433.68 L 674.39,452.4 L 662.69,461.29 L 661.29,472.05 L 672.05,478.6 L 660.35,488.89 L 642.57,475.32 L 638.36,480.0 L 653.8,489.82 L 695.91,492.16 L 706.67,523.98 L 395.56,524.91 L 328.66,524.44 L 270.18,523.04 L 210.29,520.7 L 40.0,519.77 L 85.85,507.6 L 91.46,498.25 L 107.84,494.97 L 108.77,487.49 L 121.4,481.87 L 121.4,475.32 L 152.75,462.69 L 185.5,439.77 L 184.09,446.78 L 195.79,461.29 L 210.29,468.3 L 221.05,467.84 L 237.43,456.61 L 249.12,465.5 L 271.11,460.82 L 309.94,444.44 L 313.22,449.59 L 328.19,442.11 L 328.66,426.67 L 338.01,413.1 L 353.92,400.47 L 360.47,385.03 L 377.31,369.12 L 383.86,349.47 L 398.36,361.17 L 412.4,364.91 L 421.29,357.89 L 439.53,327.49 L 450.29,334.97 L 490.06,300.35 L 494.74,275.09 Z" fill="none" stroke="#000000" stroke-width="2" stroke-linejoin="round" opacity="0.3"/>
</svg>