<?xml version="1.0" encoding="UTF-8"?>
<svg xmlns="http://www.w3.org/2000/svg" viewBox="0 0 800 800" width="800" height="800">
  <path d="M 749.37,240.51 L 748.35,354.94 L 748.86,478.48 L 747.34,486.08 L 759.49,502.28 L 760.0,518.48 L 568.61,517.97 L 555.95,524.05 L 518.99,526.08 L 478.48,534.18 L 455.7,543.29 L 428.35,545.82 L 416.2,541.27 L 365.57,554.43 L 362.53,548.35 L 333.16,543.29 L 307.85,544.81 L 267.34,559.49 L 219.75,549.37 L 215.19,521.52 L 206.58,510.38 L 186.84,500.76 L 178.23,501.77 L 163.54,504.3 L 147.34,493.67 L 130.63,490.13 L 116.96,495.7 L 99.24,487.59 L 102.78,474.94 L 114.94,468.35 L 96.2,449.11 L 83.54,398.99 L 75.95,392.41 L 65.82,356.96 L 47.59,343.29 L 40.0,315.95 L 50.13,297.72 L 68.86,306.33 L 106.84,317.97 L 132.66,317.47 L 158.48,322.03 L 182.78,317.47 L 194.43,325.57 L 216.2,325.06 L 231.39,345.32 L 242.53,343.8 L 244.56,371.14 L 251.14,395.95 L 260.25,393.42 L 251.14,372.15 L 253.67,351.39 L 268.86,330.13 L 256.71,321.52 L 255.7,306.33 L 246.58,289.62 L 251.14,277.47 L 245.06,263.29 L 230.38,261.27 L 216.71,250.63 L 220.25,240.51 L 749.37,240.51 Z M 223.8,304.3 L 235.95,300.25 L 233.92,318.99 L 219.24,311.9 L 223.8,304.3 Z M 195.44,278.99 L 205.57,266.84 L 219.24,281.52 L 215.19,294.18 L 193.92,290.63 L 195.44,278.99 Z" fill="none" stroke="#000000" stroke-width="2" stroke-linejoin="round" opacity="0.3"/>
</svg>