<?xml version="1.0" encoding="UTF-8"?>
<svg xmlns="http://www.w3.org/2000/svg" viewBox="0 0 800 800" width="800" height="800">
  <path d="M 343.76,173.36 L 366.66,180.77 L 380.13,201.65 L 506.75,226.57 L 559.29,244.75 L 575.45,240.71 L 627.99,252.83 L 642.13,268.33 L 667.73,283.14 L 666.38,304.7 L 654.93,321.53 L 683.89,324.23 L 672.44,341.74 L 691.3,354.54 L 686.59,369.35 L 663.01,372.05 L 642.81,400.34 L 635.4,419.87 L 649.54,423.24 L 668.4,410.44 L 688.61,386.19 L 714.2,376.76 L 734.41,345.78 L 760.0,339.05 L 757.98,355.21 L 740.47,370.03 L 706.12,421.22 L 696.69,449.5 L 697.36,469.71 L 684.57,476.45 L 673.12,504.06 L 677.16,527.63 L 666.38,543.12 L 651.56,581.52 L 654.93,611.82 L 669.75,638.77 L 665.03,674.46 L 543.8,674.46 L 316.15,672.44 L 307.39,656.95 L 263.61,642.81 L 254.18,623.27 L 250.14,595.66 L 264.96,580.84 L 246.77,568.72 L 245.43,550.53 L 238.69,536.39 L 242.06,516.86 L 218.48,489.92 L 198.95,485.2 L 163.93,464.32 L 157.87,448.16 L 120.15,434.69 L 107.35,421.22 L 81.76,419.2 L 49.43,396.97 L 58.19,351.84 L 55.49,330.96 L 69.64,312.1 L 54.14,296.61 L 40.0,295.27 L 42.02,277.75 L 70.31,251.49 L 105.33,241.38 L 112.74,233.98 L 112.74,161.23 L 137.66,151.13 L 147.09,156.52 L 174.71,157.87 L 260.24,136.99 L 291.9,125.54 L 302.68,134.29 L 285.84,150.46 L 326.25,171.34 L 343.76,173.36 Z" fill="none" stroke="#000000" stroke-width="2" stroke-linejoin="round" opacity="0.3"/>
</svg>